<?xml version="1.0" encoding="UTF-8"?>
<svg width="1309px" height="772px" viewBox="0 0 1309 772" version="1.1" xmlns="http://www.w3.org/2000/svg" xmlns:xlink="http://www.w3.org/1999/xlink">
    <!-- Generator: Sketch 47 (45396) - http://www.bohemiancoding.com/sketch -->
    <title>Group 2</title>
    <desc>Created with Sketch.</desc>
    <defs></defs>
    <g id="Page-1" stroke="none" stroke-width="1" fill="none" fill-rule="evenodd">
        <g id="Group-2" transform="translate(-19.000000, -24.000000)">
            <g id="backprop_backpass_0">
                <path d="M120,529 C120,556.6 97.6,579 70,579 C42.4,579 20,556.6 20,529 C20,501.4 42.4,479 70,479 C97.6,479 120,501.4 120,529 Z" id="Shape" stroke="#000000" stroke-width="2" fill="#FFFFFF" fill-rule="nonzero"></path>
                <g id="a-link" transform="translate(69.000000, 535.400000)" fill-rule="nonzero" fill="#000000">
                    <polygon id="a" points="0.1 0.25 1.9 0.25 1.9 1.57 0.1 1.57"></polygon>
                </g>
                <polygon id="Shape" points="39.6 515.15 100.4 515.15 100.4 556.62 39.6 556.62"></polygon>
                <path d="M57.32,521.92 L58.12,525.66 C62.72,518.63 65.14,516.26 68.02,516.26 C69.62,516.26 70.72,517.26 70.72,518.7 C70.72,520.08 69.82,521.06 68.49,521.06 C67.23,521.06 66.64,519.96 65.06,519.96 C63.88,519.96 61.52,522.84 58.62,527.9 C58.62,528.36 58.76,529.28 59.15,530.85 L61.25,539.65 C61.71,541.5 62.3,542.35 63.22,542.35 C64.08,542.35 64.8,541.7 66.32,539.73 C66.9,538.93 67.17,538.53 67.69,537.89 L68.69,538.47 C64.87,544.37 63.16,545.97 60.66,545.97 C58.56,545.97 57.56,544.77 56.78,541.49 L54.88,533.67 L49.08,541.49 C46.18,545.37 44.88,545.96 42.84,545.96 C40.8,545.96 39.56,544.91 39.56,543.2 C39.56,541.9 40.48,540.84 41.79,540.84 C42.39,540.84 43.05,541.11 43.89,541.57 C44.56,541.97 45.22,542.17 45.61,542.17 C46.33,542.17 47.58,540.91 48.96,538.94 L54.36,531.31 L52.51,523.18 C51.59,519.23 51.13,518.71 49.49,518.71 C48.96,518.71 48.17,518.84 46.93,519.17 L45.73,519.5 L45.55,518.43 L46.27,518.17 C50.27,516.72 52.45,516.27 53.97,516.27 C55.6,516.27 56.39,517.45 57.31,521.92 M91.9,549.7 L92.56,550.3 C89.4,554.63 88.24,555.56 86.06,555.56 C84.89,555.56 83.86,554.82 83.86,553.06 C83.86,552.59 83.96,551.98 84.61,549.56 L86.67,542.04 C87.04,540.6 87.32,538.94 87.32,538.37 C87.32,537.53 86.92,537.02 86.22,537.02 C84.35,537.02 82.26,539.3 79.34,543.62 C77.24,546.72 76.87,547.8 74.69,555.14 L71.19,555.14 L75.66,538.88 C75.71,538.65 75.76,538.38 75.76,538.08 C75.76,537.16 75.11,536.88 72.74,536.84 L72.74,536.09 C76.5,535.34 77.8,535.15 80.26,534.64 L80.46,534.74 L77.34,544.86 C81.98,537.43 85.1,534.64 88.07,534.64 C90.07,534.64 91.09,535.8 91.09,537.48 C91.09,538.3 90.91,539.28 90.63,540.25 L88.03,549.69 C87.57,551.37 87.38,552.16 87.38,552.53 C87.38,552.95 87.58,553.37 88.13,553.37 C88.78,553.37 89.63,552.62 90.96,550.91 C91.29,550.53 91.61,550.11 91.94,549.71" id="Shape" fill="#000000" fill-rule="nonzero"></path>
                <path d="M120,179 C120,206.6 97.6,229 70,229 C42.4,229 20,206.6 20,179 C20,151.4 42.4,129 70,129 C97.6,129 120,151.4 120,179 Z" id="Shape" stroke="#000000" stroke-width="2" fill="#FFFFFF" fill-rule="nonzero"></path>
                <g id="a-link" transform="translate(69.000000, 185.400000)" fill-rule="nonzero" fill="#000000">
                    <polygon id="a" points="0.1 0.25 1.9 0.25 1.9 1.57 0.1 1.57"></polygon>
                </g>
                <polygon id="Shape" points="39.6 158.15 100.4 158.15 100.4 199.85 39.6 199.85"></polygon>
                <path d="M57.32,164.92 L58.12,168.66 C62.72,161.63 65.14,159.26 68.02,159.26 C69.62,159.26 70.72,160.26 70.72,161.7 C70.72,163.08 69.82,164.06 68.49,164.06 C67.23,164.06 66.64,162.96 65.06,162.96 C63.88,162.96 61.52,165.84 58.62,170.9 C58.62,171.36 58.76,172.28 59.15,173.85 L61.25,182.65 C61.71,184.5 62.3,185.35 63.22,185.35 C64.08,185.35 64.8,184.7 66.32,182.73 C66.9,181.93 67.17,181.53 67.69,180.89 L68.69,181.47 C64.87,187.37 63.16,188.97 60.66,188.97 C58.56,188.97 57.56,187.77 56.78,184.49 L54.88,176.67 L49.08,184.49 C46.18,188.37 44.88,188.96 42.84,188.96 C40.8,188.96 39.56,187.91 39.56,186.2 C39.56,184.9 40.48,183.84 41.79,183.84 C42.39,183.84 43.05,184.11 43.89,184.57 C44.56,184.97 45.22,185.17 45.61,185.17 C46.33,185.17 47.58,183.91 48.96,181.94 L54.36,174.31 L52.51,166.18 C51.59,162.23 51.13,161.71 49.49,161.71 C48.96,161.71 48.17,161.84 46.93,162.17 L45.73,162.5 L45.55,161.43 L46.27,161.17 C50.27,159.72 52.45,159.27 53.97,159.27 C55.6,159.27 56.39,160.45 57.31,164.92 M92.65,182.8 C92.65,190.8 89.72,198.8 82.15,198.8 C74.2,198.8 71.65,190.15 71.65,182.53 C71.65,174.31 74.85,166.73 82.35,166.73 C88.42,166.73 92.65,173.28 92.65,182.81 M88.19,183.05 C88.19,173.39 86.14,167.95 82.05,167.95 C78.19,167.95 76.1,173.43 76.1,182.87 C76.1,192.3 78.15,197.6 82.15,197.6 C86.1,197.6 88.19,192.24 88.19,183.04" id="Shape" fill="#000000" fill-rule="nonzero"></path>
                <path d="M120,319 C120,346.6 97.6,369 70,369 C42.4,369 20,346.6 20,319 C20,291.4 42.4,269 70,269 C97.6,269 120,291.4 120,319 Z" id="Shape" stroke="#000000" stroke-width="2" fill="#FFFFFF" fill-rule="nonzero"></path>
                <g id="a-link" transform="translate(69.000000, 325.400000)" fill-rule="nonzero" fill="#000000">
                    <polygon id="a" points="0.1 0.25 1.9 0.25 1.9 1.57 0.1 1.57"></polygon>
                </g>
                <polygon id="Shape" points="39.6 298.15 100.4 298.15 100.4 339.2 39.6 339.2"></polygon>
                <path d="M57.32,304.92 L58.12,308.66 C62.72,301.63 65.14,299.26 68.02,299.26 C69.62,299.26 70.72,300.26 70.72,301.7 C70.72,303.08 69.82,304.06 68.49,304.06 C67.23,304.06 66.64,302.96 65.06,302.96 C63.88,302.96 61.52,305.84 58.62,310.9 C58.62,311.36 58.76,312.28 59.15,313.85 L61.25,322.65 C61.71,324.5 62.3,325.35 63.22,325.35 C64.08,325.35 64.8,324.7 66.32,322.73 C66.9,321.93 67.17,321.53 67.69,320.89 L68.69,321.47 C64.87,327.37 63.16,328.97 60.66,328.97 C58.56,328.97 57.56,327.77 56.78,324.49 L54.88,316.67 L49.08,324.49 C46.18,328.37 44.88,328.96 42.84,328.96 C40.8,328.96 39.56,327.91 39.56,326.2 C39.56,324.9 40.48,323.84 41.79,323.84 C42.39,323.84 43.05,324.11 43.89,324.57 C44.56,324.97 45.22,325.17 45.61,325.17 C46.33,325.17 47.58,323.91 48.96,321.94 L54.36,314.31 L52.51,306.18 C51.59,302.23 51.13,301.71 49.49,301.71 C48.96,301.71 48.17,301.84 46.93,302.17 L45.73,302.5 L45.55,301.43 L46.27,301.17 C50.27,299.72 52.45,299.27 53.97,299.27 C55.6,299.27 56.39,300.45 57.31,304.92 M88.84,338.14 L76.02,338.14 L76.02,337.44 C79.45,337.26 80.42,336.29 80.42,333.74 L80.42,312.86 C80.42,311.28 80.02,310.59 79.04,310.59 C78.57,310.59 77.78,310.81 76.94,311.14 L75.69,311.6 L75.69,310.96 L83.99,306.73 L84.42,306.87 L84.42,334.61 C84.42,336.61 85.35,337.46 88.82,337.46 L88.82,338.16" id="Shape" fill="#000000" fill-rule="nonzero"></path>
                <polygon id="Shape" points="53.2 371.5 86.8 371.5 86.8 446.7 53.2 446.7"></polygon>
                <path d="M74.16,403.06 C74.16,405.29 72.51,407.26 70.02,407.26 C67.52,407.26 65.82,405.62 65.82,403.06 C65.82,400.56 67.92,398.92 70.02,398.92 C72.12,398.92 74.16,400.62 74.16,403.06 M74.16,422.18 C74.16,424.41 72.51,426.38 70.02,426.38 C67.52,426.38 65.82,424.74 65.82,422.18 C65.82,419.68 67.92,418.04 70.02,418.04 C72.12,418.04 74.16,419.74 74.16,422.18 M74.16,441.38 C74.16,443.6 72.51,445.58 70.02,445.58 C67.52,445.58 65.82,443.93 65.82,441.38 C65.82,438.88 67.92,437.23 70.02,437.23 C72.12,437.23 74.16,438.93 74.16,441.37" id="Shape" fill="#000000" fill-rule="nonzero"></path>
                <polygon id="Shape" points="660.5 0 799.5 0 799.5 106 660.5 106"></polygon>
                <g id="b-link" transform="translate(674.990885, 25.771701)" fill-rule="nonzero" fill="#000000">
                    <g id="b">
                        <g id="i-link" transform="translate(0.397569, 4.259549)">
                            <path d="M7.96006944,0 C13.4440104,0 15.874566,3.06857639 15.874566,8.50694444 C15.874566,13.8845486 13.2769097,17.0442708 7.86892361,17.0442708 C2.53689236,17.0442708 0,13.8237847 0,8.50694444 C0,3.17491319 2.56727431,0 7.96006944,0 Z M7.82335069,14.1276042 C10.8615451,14.0972222 11.4084201,11.6210937 11.4084201,8.50694444 C11.4084201,5.48394097 10.9982639,2.93185764 8.02083333,2.93185764 C5.05859375,2.93185764 4.48133681,5.14973958 4.48133681,8.50694444 C4.48133681,10.4665799 4.75477431,11.8945312 5.31684028,12.7907986 C5.87890625,13.687066 6.71440972,14.1276042 7.82335069,14.1276042 L7.82335069,14.1276042 Z" id="i"></path>
                        </g>
                        <g id="j-link" transform="translate(19.720486, 4.563368)">
                            <path d="M5.10416667,16.7404514 C1.35199653,16.7404514 0,14.1731771 0,10.4361979 L0,0 L4.26866319,0 L4.26866319,9.22092014 C4.32942708,11.469184 4.73958333,13.5503472 6.88151042,13.5503472 C9.19053819,13.5503472 10.0260417,11.2717014 10.0260417,8.81076389 L10.0260417,0 L14.2947049,0 C14.3554687,5.45355903 14.1579861,11.1805556 14.4162326,16.4366319 L10.3450521,16.4366319 C10.2387153,15.4796007 10.1779514,14.21875 10.1627604,13.1705729 L10.0868056,13.1705729 C9.12977431,15.2821181 7.73220486,16.7404514 5.10416667,16.7404514" id="j"></path>
                        </g>
                        <g id="k-link" transform="translate(38.785156, 0.279514)">
                            <path d="M8.35503472,20.9179687 C4.55729167,20.9179687 2.49131944,19.4140625 2.50651042,15.6163194 L2.53689236,7.17013889 L0,7.17013889 L0,4.28385417 L2.74956597,4.28385417 L4.08637153,0 L6.75998264,0 L6.75998264,4.28385417 L12.6085069,4.28385417 L12.6085069,7.17013889 L6.75998264,7.17013889 L6.75998264,15.2213542 C6.60807292,17.1961806 7.44357639,18.046875 9.40321181,18.0164931 C10.7855903,17.9861111 12.0768229,17.8493924 13.2769097,17.6063368 L13.2769097,20.4318576 C11.7274306,20.7052951 10.2083333,20.9179687 8.35503472,20.9179687" id="k"></path>
                        </g>
                        <g id="l-link" transform="translate(57.135851, 4.244358)">
                            <path d="M4.35980903,14.1579861 C4.40538194,17.1202257 4.39019097,20.1888021 4.39019097,23.2118056 L0.121527778,23.2118056 L0.121527778,3.90407986 C0.13671875,2.64322917 0.0607638889,1.35199653 0,0.319010417 L4.13194444,0.319010417 C4.28385417,1.06336806 4.34461806,2.11154514 4.35980903,2.99262153 L4.42057292,2.99262153 C5.31684028,1.26085069 6.71440972,0 9.22092014,0 C13.6414931,0 15.0694444,3.93446181 15.0694444,8.50694444 C15.0694444,12.1983507 14.0820312,15.0846354 11.7274306,16.421441 C10.9678819,16.8467882 10.0716146,17.0594618 9.05381944,17.0594618 C6.59288194,17.0290799 5.21050347,15.874566 4.35980903,14.1579861 Z M5.40798611,4.11675347 C4.02560764,5.83333333 4.01041667,11.1501736 5.39279514,13.0186632 C6.09157986,13.9605035 7.59548611,14.5529514 8.81076389,13.8389757 C10.2690972,12.9730903 10.6032986,10.9375 10.6184896,8.50694444 C10.6184896,6.63845486 10.3450521,5.24088542 9.81336806,4.31423611 C9.11458333,3.06857639 7.86892361,2.56727431 6.47135417,3.19010417 C6.09157986,3.37239583 5.7421875,3.69140625 5.40798611,4.11675347 L5.40798611,4.11675347 Z" id="l"></path>
                        </g>
                        <g id="j-link" transform="translate(75.729601, 4.563368)">
                            <path d="M5.10416667,16.7404514 C1.35199653,16.7404514 0,14.1731771 0,10.4361979 L0,0 L4.26866319,0 L4.26866319,9.22092014 C4.32942708,11.469184 4.73958333,13.5503472 6.88151042,13.5503472 C9.19053819,13.5503472 10.0260417,11.2717014 10.0260417,8.81076389 L10.0260417,0 L14.2947049,0 C14.3554687,5.45355903 14.1579861,11.1805556 14.4162326,16.4366319 L10.3450521,16.4366319 C10.2387153,15.4796007 10.1779514,14.21875 10.1627604,13.1705729 L10.0868056,13.1705729 C9.12977431,15.2821181 7.73220486,16.7404514 5.10416667,16.7404514" id="j"></path>
                        </g>
                        <g id="k-link" transform="translate(94.794271, 0.279514)">
                            <path d="M8.35503472,20.9179687 C4.55729167,20.9179687 2.49131944,19.4140625 2.50651042,15.6163194 L2.53689236,7.17013889 L0,7.17013889 L0,4.28385417 L2.74956597,4.28385417 L4.08637153,0 L6.75998264,0 L6.75998264,4.28385417 L12.6085069,4.28385417 L12.6085069,7.17013889 L6.75998264,7.17013889 L6.75998264,15.2213542 C6.60807292,17.1961806 7.44357639,18.046875 9.40321181,18.0164931 C10.7855903,17.9861111 12.0768229,17.8493924 13.2769097,17.6063368 L13.2769097,20.4318576 C11.7274306,20.7052951 10.2083333,20.9179687 8.35503472,20.9179687" id="k"></path>
                        </g>
                    </g>
                </g>
                <g id="c-link" transform="translate(684.325738, 54.882812)" fill-rule="nonzero" fill="#000000">
                    <g id="c">
                        <g id="m-link" transform="translate(0.792535, 0.456597)">
                            <polyline id="m" points="10.2690972 19.6571181 15.6315104 19.6571181 15.6315104 22.5434028 0 22.5434028 0 19.6571181 6.00043403 19.6571181 6.00043403 2.88628472 1.59505208 2.88628472 1.59505208 0 10.2690972 0 10.2690972 19.6571181"></polyline>
                        </g>
                        <g id="n-link" transform="translate(19.279948, 6.259549)">
                            <path d="M10.1627604,13.8085937 C9.14496528,15.6011285 7.82335069,17.0442708 5.05859375,17.0442708 C1.82291667,17.0442708 0,15.327691 0,12.0920139 C0,8.27907986 2.58246528,6.91189236 6.33463542,6.8359375 L9.72222222,6.77517361 C9.78298611,4.60286458 9.53993056,2.76475694 7.47395833,2.76475694 C5.90928819,2.76475694 5.33203125,3.64583333 5.1953125,5.08897569 L0.744357639,4.87630208 C1.30642361,1.54947917 3.69140625,0 7.65625,0 C11.6514757,0 14.0060764,1.97482639 13.9908854,5.92447917 L13.9908854,11.8793403 C14.0060764,13.1553819 14.0668403,14.3250868 15.3428819,14.3098958 C15.6618924,14.3098958 15.9809028,14.2795139 16.2847222,14.21875 L16.2847222,16.5277778 C15.4188368,16.7556424 14.6440972,16.937934 13.5503472,16.9227431 C11.3476562,16.9227431 10.4817708,15.8138021 10.2539062,13.8085937 L10.1627604,13.8085937 Z M6.27387153,14.0668403 C8.82595486,14.0668403 9.82855903,11.9552951 9.72222222,9.12977431 C7.20052083,9.19053819 4.45095486,8.75 4.45095486,11.7578125 C4.45095486,13.1857639 4.95225694,14.0668403 6.27387153,14.0668403 L6.27387153,14.0668403 Z" id="n"></path>
                        </g>
                        <g id="o-link" transform="translate(36.916667, 6.563368)">
                            <path d="M1.59505208,19.6571181 C2.84071181,19.8394097 4.40538194,19.8394097 5.13454861,19.1861979 C5.89409722,18.5026042 6.39539931,17.4088542 6.80555556,16.2695312 L0,0 L4.51171875,0 C6.03081597,4.31423611 7.71701389,8.46137153 8.93229167,13.0794271 C10.0260417,8.44618056 11.6059028,4.29904514 13.0338542,0 L17.5,0 L10.6944444,17.3025174 C9.47916667,20.219184 8.32465278,22.8927951 4.35980903,22.8927951 C3.44835069,22.8927951 2.36979167,22.8320312 1.59505208,22.6953125 L1.59505208,19.6571181" id="o"></path>
                        </g>
                        <g id="p-link" transform="translate(56.528212, 6.259549)">
                            <path d="M15.3884549,12.578125 C14.2491319,15.2821181 11.9097222,17.0442708 7.99045139,17.0442708 C2.64322917,17.0442708 0,13.8693576 0,8.44618056 C0,3.0078125 2.81032986,0 8.05121528,0 C13.4895833,0 15.5859375,3.81293403 15.6315104,9.34244792 L4.48133681,9.34244792 C4.55729167,12.0768229 5.51432292,14.1883681 8.203125,14.1883681 C9.75260417,14.1883681 11.0286458,13.5047743 11.3628472,12.2287326 L15.3884549,12.578125 Z M11.499566,6.66883681 C11.4084201,3.98003472 9.55512153,2.00520833 6.71440972,2.91666667 C5.28645833,3.37239583 4.57248264,4.75477431 4.51171875,6.66883681 L11.499566,6.66883681 L11.499566,6.66883681 Z" id="p"></path>
                        </g>
                        <g id="q-link" transform="translate(76.686632, 6.244358)">
                            <path d="M10.2842882,0.0151909722 C11.3476562,0.0151909722 12.5325521,0.121527778 13.4136285,0.2734375 L13.4136285,3.87369792 C11.7426215,3.61545139 9.35763889,3.31163194 7.96006944,4.1015625 C6.09157986,5.14973958 5.04340278,7.24609375 5.04340278,10.1019965 L5.04340278,16.7556424 L0.789930556,16.7556424 C0.638020833,11.1805556 1.27604167,4.76996528 0,0.319010417 L4.11675347,0.319010417 C4.40538194,1.3671875 4.66362847,2.58246528 4.81553819,3.78255208 L4.87630208,3.78255208 C5.66623264,1.48871528 7.17013889,-0.0151909722 10.2842882,0.0151909722" id="q"></path>
                        </g>
                    </g>
                </g>
                <polygon id="Shape" points="340.5 0 479.5 0 479.5 106 340.5 106"></polygon>
                <g id="d-link" transform="translate(355.990885, 23.771701)" fill-rule="nonzero" fill="#000000">
                    <g id="d">
                        <g id="r-link" transform="translate(0.172309, 0.456597)">
                            <path d="M4.26866319,0 C4.23828125,3.12934028 4.34461806,6.44097222 4.14713542,9.38802083 L4.20789931,9.38802083 C5.22569444,7.18532986 6.63845486,5.83333333 9.49435764,5.80295139 C13.3072917,5.75737847 14.5833333,8.33984375 14.5985243,12.1223958 L14.5985243,22.5434028 L10.3450521,22.5434028 L10.3450521,13.109809 C10.3450521,10.8311632 9.99565972,8.91710069 7.71701389,9.00824653 C5.24088542,9.11458333 4.26866319,11.1653646 4.26866319,13.7478299 L4.26866319,22.5434028 L0,22.5434028 L0,0 L4.26866319,0" id="r"></path>
                        </g>
                        <g id="s-link" transform="translate(18.462240, 0.456597)">
                            <path d="M10.2690972,19.6571181 L15.6315104,19.6571181 L15.6315104,22.5434028 L0,22.5434028 L0,19.6571181 L6.00043403,19.6571181 L6.00043403,8.99305556 L1.59505208,8.99305556 L1.59505208,6.10677083 L10.2690972,6.10677083 L10.2690972,19.6571181 Z M6.00043403,3.14453125 L6.00043403,0 L10.2690972,0 L10.2690972,3.14453125 L6.00043403,3.14453125 L6.00043403,3.14453125 Z" id="s"></path>
                        </g>
                        <g id="t-link" transform="translate(36.812934, 0.456597)">
                            <path d="M10.7096354,8.73480903 C10.6640625,5.86371528 10.6792535,2.91666667 10.6792535,0 L14.9479167,0 L14.9479167,18.9583333 C14.9327257,20.219184 15.0086806,21.5104167 15.0694444,22.5434028 L10.9375,22.5434028 C10.8007813,21.7838542 10.7248264,20.766059 10.7096354,19.8697917 L10.6488715,19.8697917 C9.69184028,21.7990451 8.41579861,22.8472222 5.84852431,22.8472222 C1.42795139,22.8472222 0,18.9279514 0,14.3554687 C0,10.6640625 1.00260417,7.79296875 3.35720486,6.47135417 C4.11675347,6.04600694 4.99782986,5.83333333 6.015625,5.83333333 C8.4765625,5.86371528 9.85894097,7.01822917 10.7096354,8.73480903 Z M9.64626736,18.7304688 C11.0286458,17.0138889 11.0590278,11.7122396 9.67664931,9.85894097 C8.97786458,8.93229167 7.47395833,8.33984375 6.27387153,9.05381944 C4.81553819,9.90451389 4.46614583,11.9401042 4.45095486,14.3554688 C4.45095486,16.2239583 4.70920139,17.6063368 5.24088542,18.5329861 C5.93967014,19.7786458 7.21571181,20.2799479 8.61328125,19.6571181 C8.99305556,19.4748264 9.31206597,19.155816 9.64626736,18.7304688 L9.64626736,18.7304688 Z" id="t"></path>
                        </g>
                        <g id="t-link" transform="translate(55.482639, 0.456597)">
                            <path d="M10.7096354,8.73480903 C10.6640625,5.86371528 10.6792535,2.91666667 10.6792535,0 L14.9479167,0 L14.9479167,18.9583333 C14.9327257,20.219184 15.0086806,21.5104167 15.0694444,22.5434028 L10.9375,22.5434028 C10.8007813,21.7838542 10.7248264,20.766059 10.7096354,19.8697917 L10.6488715,19.8697917 C9.69184028,21.7990451 8.41579861,22.8472222 5.84852431,22.8472222 C1.42795139,22.8472222 0,18.9279514 0,14.3554687 C0,10.6640625 1.00260417,7.79296875 3.35720486,6.47135417 C4.11675347,6.04600694 4.99782986,5.83333333 6.015625,5.83333333 C8.4765625,5.86371528 9.85894097,7.01822917 10.7096354,8.73480903 Z M9.64626736,18.7304688 C11.0286458,17.0138889 11.0590278,11.7122396 9.67664931,9.85894097 C8.97786458,8.93229167 7.47395833,8.33984375 6.27387153,9.05381944 C4.81553819,9.90451389 4.46614583,11.9401042 4.45095486,14.3554688 C4.45095486,16.2239583 4.70920139,17.6063368 5.24088542,18.5329861 C5.93967014,19.7786458 7.21571181,20.2799479 8.61328125,19.6571181 C8.99305556,19.4748264 9.31206597,19.155816 9.64626736,18.7304688 L9.64626736,18.7304688 Z" id="t"></path>
                        </g>
                        <g id="p-link" transform="translate(74.197917, 6.259549)">
                            <path d="M15.3884549,12.578125 C14.2491319,15.2821181 11.9097222,17.0442708 7.99045139,17.0442708 C2.64322917,17.0442708 0,13.8693576 0,8.44618056 C0,3.0078125 2.81032986,0 8.05121528,0 C13.4895833,0 15.5859375,3.81293403 15.6315104,9.34244792 L4.48133681,9.34244792 C4.55729167,12.0768229 5.51432292,14.1883681 8.203125,14.1883681 C9.75260417,14.1883681 11.0286458,13.5047743 11.3628472,12.2287326 L15.3884549,12.578125 Z M11.499566,6.66883681 C11.4084201,3.98003472 9.55512153,2.00520833 6.71440972,2.91666667 C5.28645833,3.37239583 4.57248264,4.75477431 4.51171875,6.66883681 L11.499566,6.66883681 L11.499566,6.66883681 Z" id="p"></path>
                        </g>
                        <g id="u-link" transform="translate(93.399306, 6.244358)">
                            <path d="M9.61588542,0 C13.3680556,0 14.7200521,2.53689236 14.7200521,6.31944444 L14.7200521,16.7556424 L10.4665799,16.7556424 L10.4665799,7.35243056 C10.4210069,4.86111111 10.1019965,3.20529514 7.86892361,3.20529514 C5.37760417,3.20529514 4.39019097,5.36241319 4.39019097,7.94487847 L4.39019097,16.7556424 L0.121527778,16.7556424 C0.0607638889,11.3020833 0.258246528,5.57508681 0,0.319010417 L4.07118056,0.319010417 C4.17751736,1.27604167 4.25347222,2.53689236 4.26866319,3.58506944 L4.32942708,3.58506944 C5.34722222,1.38237847 6.75998264,0 9.61588542,0" id="u"></path>
                        </g>
                    </g>
                </g>
                <g id="e-link" transform="translate(364.325738, 54.882812)" fill-rule="nonzero" fill="#000000">
                    <g id="e">
                        <g id="m-link" transform="translate(0.792535, 0.456597)">
                            <polyline id="m" points="10.2690972 19.6571181 15.6315104 19.6571181 15.6315104 22.5434028 0 22.5434028 0 19.6571181 6.00043403 19.6571181 6.00043403 2.88628472 1.59505208 2.88628472 1.59505208 0 10.2690972 0 10.2690972 19.6571181"></polyline>
                        </g>
                        <g id="n-link" transform="translate(19.279948, 6.259549)">
                            <path d="M10.1627604,13.8085937 C9.14496528,15.6011285 7.82335069,17.0442708 5.05859375,17.0442708 C1.82291667,17.0442708 0,15.327691 0,12.0920139 C0,8.27907986 2.58246528,6.91189236 6.33463542,6.8359375 L9.72222222,6.77517361 C9.78298611,4.60286458 9.53993056,2.76475694 7.47395833,2.76475694 C5.90928819,2.76475694 5.33203125,3.64583333 5.1953125,5.08897569 L0.744357639,4.87630208 C1.30642361,1.54947917 3.69140625,0 7.65625,0 C11.6514757,0 14.0060764,1.97482639 13.9908854,5.92447917 L13.9908854,11.8793403 C14.0060764,13.1553819 14.0668403,14.3250868 15.3428819,14.3098958 C15.6618924,14.3098958 15.9809028,14.2795139 16.2847222,14.21875 L16.2847222,16.5277778 C15.4188368,16.7556424 14.6440972,16.937934 13.5503472,16.9227431 C11.3476562,16.9227431 10.4817708,15.8138021 10.2539062,13.8085937 L10.1627604,13.8085937 Z M6.27387153,14.0668403 C8.82595486,14.0668403 9.82855903,11.9552951 9.72222222,9.12977431 C7.20052083,9.19053819 4.45095486,8.75 4.45095486,11.7578125 C4.45095486,13.1857639 4.95225694,14.0668403 6.27387153,14.0668403 L6.27387153,14.0668403 Z" id="n"></path>
                        </g>
                        <g id="o-link" transform="translate(36.916667, 6.563368)">
                            <path d="M1.59505208,19.6571181 C2.84071181,19.8394097 4.40538194,19.8394097 5.13454861,19.1861979 C5.89409722,18.5026042 6.39539931,17.4088542 6.80555556,16.2695312 L0,0 L4.51171875,0 C6.03081597,4.31423611 7.71701389,8.46137153 8.93229167,13.0794271 C10.0260417,8.44618056 11.6059028,4.29904514 13.0338542,0 L17.5,0 L10.6944444,17.3025174 C9.47916667,20.219184 8.32465278,22.8927951 4.35980903,22.8927951 C3.44835069,22.8927951 2.36979167,22.8320312 1.59505208,22.6953125 L1.59505208,19.6571181" id="o"></path>
                        </g>
                        <g id="p-link" transform="translate(56.528212, 6.259549)">
                            <path d="M15.3884549,12.578125 C14.2491319,15.2821181 11.9097222,17.0442708 7.99045139,17.0442708 C2.64322917,17.0442708 0,13.8693576 0,8.44618056 C0,3.0078125 2.81032986,0 8.05121528,0 C13.4895833,0 15.5859375,3.81293403 15.6315104,9.34244792 L4.48133681,9.34244792 C4.55729167,12.0768229 5.51432292,14.1883681 8.203125,14.1883681 C9.75260417,14.1883681 11.0286458,13.5047743 11.3628472,12.2287326 L15.3884549,12.578125 Z M11.499566,6.66883681 C11.4084201,3.98003472 9.55512153,2.00520833 6.71440972,2.91666667 C5.28645833,3.37239583 4.57248264,4.75477431 4.51171875,6.66883681 L11.499566,6.66883681 L11.499566,6.66883681 Z" id="p"></path>
                        </g>
                        <g id="q-link" transform="translate(76.686632, 6.244358)">
                            <path d="M10.2842882,0.0151909722 C11.3476562,0.0151909722 12.5325521,0.121527778 13.4136285,0.2734375 L13.4136285,3.87369792 C11.7426215,3.61545139 9.35763889,3.31163194 7.96006944,4.1015625 C6.09157986,5.14973958 5.04340278,7.24609375 5.04340278,10.1019965 L5.04340278,16.7556424 L0.789930556,16.7556424 C0.638020833,11.1805556 1.27604167,4.76996528 0,0.319010417 L4.11675347,0.319010417 C4.40538194,1.3671875 4.66362847,2.58246528 4.81553819,3.78255208 L4.87630208,3.78255208 C5.66623264,1.48871528 7.17013889,-0.0151909722 10.2842882,0.0151909722" id="q"></path>
                        </g>
                    </g>
                </g>
                <polygon id="Shape" points="0 0 139 0 139 106 0 106"></polygon>
                <g id="f-link" transform="translate(23.825738, 23.771701)" fill-rule="nonzero" fill="#000000">
                    <g id="f">
                        <g id="s-link" transform="translate(0.792535, 0.456597)">
                            <path d="M10.2690972,19.6571181 L15.6315104,19.6571181 L15.6315104,22.5434028 L0,22.5434028 L0,19.6571181 L6.00043403,19.6571181 L6.00043403,8.99305556 L1.59505208,8.99305556 L1.59505208,6.10677083 L10.2690972,6.10677083 L10.2690972,19.6571181 Z M6.00043403,3.14453125 L6.00043403,0 L10.2690972,0 L10.2690972,3.14453125 L6.00043403,3.14453125 L6.00043403,3.14453125 Z" id="s"></path>
                        </g>
                        <g id="u-link" transform="translate(19.720486, 6.244358)">
                            <path d="M9.61588542,0 C13.3680556,0 14.7200521,2.53689236 14.7200521,6.31944444 L14.7200521,16.7556424 L10.4665799,16.7556424 L10.4665799,7.35243056 C10.4210069,4.86111111 10.1019965,3.20529514 7.86892361,3.20529514 C5.37760417,3.20529514 4.39019097,5.36241319 4.39019097,7.94487847 L4.39019097,16.7556424 L0.121527778,16.7556424 C0.0607638889,11.3020833 0.258246528,5.57508681 0,0.319010417 L4.07118056,0.319010417 C4.17751736,1.27604167 4.25347222,2.53689236 4.26866319,3.58506944 L4.32942708,3.58506944 C5.34722222,1.38237847 6.75998264,0 9.61588542,0" id="u"></path>
                        </g>
                        <g id="l-link" transform="translate(38.466146, 6.244358)">
                            <path d="M4.35980903,14.1579861 C4.40538194,17.1202257 4.39019097,20.1888021 4.39019097,23.2118056 L0.121527778,23.2118056 L0.121527778,3.90407986 C0.13671875,2.64322917 0.0607638889,1.35199653 0,0.319010417 L4.13194444,0.319010417 C4.28385417,1.06336806 4.34461806,2.11154514 4.35980903,2.99262153 L4.42057292,2.99262153 C5.31684028,1.26085069 6.71440972,0 9.22092014,0 C13.6414931,0 15.0694444,3.93446181 15.0694444,8.50694444 C15.0694444,12.1983507 14.0820312,15.0846354 11.7274306,16.421441 C10.9678819,16.8467882 10.0716146,17.0594618 9.05381944,17.0594618 C6.59288194,17.0290799 5.21050347,15.874566 4.35980903,14.1579861 Z M5.40798611,4.11675347 C4.02560764,5.83333333 4.01041667,11.1501736 5.39279514,13.0186632 C6.09157986,13.9605035 7.59548611,14.5529514 8.81076389,13.8389757 C10.2690972,12.9730903 10.6032986,10.9375 10.6184896,8.50694444 C10.6184896,6.63845486 10.3450521,5.24088542 9.81336806,4.31423611 C9.11458333,3.06857639 7.86892361,2.56727431 6.47135417,3.19010417 C6.09157986,3.37239583 5.7421875,3.69140625 5.40798611,4.11675347 L5.40798611,4.11675347 Z" id="l"></path>
                        </g>
                        <g id="j-link" transform="translate(57.059896, 6.563368)">
                            <path d="M5.10416667,16.7404514 C1.35199653,16.7404514 0,14.1731771 0,10.4361979 L0,0 L4.26866319,0 L4.26866319,9.22092014 C4.32942708,11.469184 4.73958333,13.5503472 6.88151042,13.5503472 C9.19053819,13.5503472 10.0260417,11.2717014 10.0260417,8.81076389 L10.0260417,0 L14.2947049,0 C14.3554687,5.45355903 14.1579861,11.1805556 14.4162326,16.4366319 L10.3450521,16.4366319 C10.2387153,15.4796007 10.1779514,14.21875 10.1627604,13.1705729 L10.0868056,13.1705729 C9.12977431,15.2821181 7.73220486,16.7404514 5.10416667,16.7404514" id="j"></path>
                        </g>
                        <g id="k-link" transform="translate(76.124566, 2.279514)">
                            <path d="M8.35503472,20.9179687 C4.55729167,20.9179687 2.49131944,19.4140625 2.50651042,15.6163194 L2.53689236,7.17013889 L0,7.17013889 L0,4.28385417 L2.74956597,4.28385417 L4.08637153,0 L6.75998264,0 L6.75998264,4.28385417 L12.6085069,4.28385417 L12.6085069,7.17013889 L6.75998264,7.17013889 L6.75998264,15.2213542 C6.60807292,17.1961806 7.44357639,18.046875 9.40321181,18.0164931 C10.7855903,17.9861111 12.0768229,17.8493924 13.2769097,17.6063368 L13.2769097,20.4318576 C11.7274306,20.7052951 10.2083333,20.9179687 8.35503472,20.9179687" id="k"></path>
                        </g>
                    </g>
                </g>
                <g id="c-link" transform="translate(23.825738, 54.882812)" fill-rule="nonzero" fill="#000000">
                    <g id="c">
                        <g id="m-link" transform="translate(0.792535, 0.456597)">
                            <polyline id="m" points="10.2690972 19.6571181 15.6315104 19.6571181 15.6315104 22.5434028 0 22.5434028 0 19.6571181 6.00043403 19.6571181 6.00043403 2.88628472 1.59505208 2.88628472 1.59505208 0 10.2690972 0 10.2690972 19.6571181"></polyline>
                        </g>
                        <g id="n-link" transform="translate(19.279948, 6.259549)">
                            <path d="M10.1627604,13.8085937 C9.14496528,15.6011285 7.82335069,17.0442708 5.05859375,17.0442708 C1.82291667,17.0442708 0,15.327691 0,12.0920139 C0,8.27907986 2.58246528,6.91189236 6.33463542,6.8359375 L9.72222222,6.77517361 C9.78298611,4.60286458 9.53993056,2.76475694 7.47395833,2.76475694 C5.90928819,2.76475694 5.33203125,3.64583333 5.1953125,5.08897569 L0.744357639,4.87630208 C1.30642361,1.54947917 3.69140625,0 7.65625,0 C11.6514757,0 14.0060764,1.97482639 13.9908854,5.92447917 L13.9908854,11.8793403 C14.0060764,13.1553819 14.0668403,14.3250868 15.3428819,14.3098958 C15.6618924,14.3098958 15.9809028,14.2795139 16.2847222,14.21875 L16.2847222,16.5277778 C15.4188368,16.7556424 14.6440972,16.937934 13.5503472,16.9227431 C11.3476562,16.9227431 10.4817708,15.8138021 10.2539062,13.8085937 L10.1627604,13.8085937 Z M6.27387153,14.0668403 C8.82595486,14.0668403 9.82855903,11.9552951 9.72222222,9.12977431 C7.20052083,9.19053819 4.45095486,8.75 4.45095486,11.7578125 C4.45095486,13.1857639 4.95225694,14.0668403 6.27387153,14.0668403 L6.27387153,14.0668403 Z" id="n"></path>
                        </g>
                        <g id="o-link" transform="translate(36.916667, 6.563368)">
                            <path d="M1.59505208,19.6571181 C2.84071181,19.8394097 4.40538194,19.8394097 5.13454861,19.1861979 C5.89409722,18.5026042 6.39539931,17.4088542 6.80555556,16.2695312 L0,0 L4.51171875,0 C6.03081597,4.31423611 7.71701389,8.46137153 8.93229167,13.0794271 C10.0260417,8.44618056 11.6059028,4.29904514 13.0338542,0 L17.5,0 L10.6944444,17.3025174 C9.47916667,20.219184 8.32465278,22.8927951 4.35980903,22.8927951 C3.44835069,22.8927951 2.36979167,22.8320312 1.59505208,22.6953125 L1.59505208,19.6571181" id="o"></path>
                        </g>
                        <g id="p-link" transform="translate(56.528212, 6.259549)">
                            <path d="M15.3884549,12.578125 C14.2491319,15.2821181 11.9097222,17.0442708 7.99045139,17.0442708 C2.64322917,17.0442708 0,13.8693576 0,8.44618056 C0,3.0078125 2.81032986,0 8.05121528,0 C13.4895833,0 15.5859375,3.81293403 15.6315104,9.34244792 L4.48133681,9.34244792 C4.55729167,12.0768229 5.51432292,14.1883681 8.203125,14.1883681 C9.75260417,14.1883681 11.0286458,13.5047743 11.3628472,12.2287326 L15.3884549,12.578125 Z M11.499566,6.66883681 C11.4084201,3.98003472 9.55512153,2.00520833 6.71440972,2.91666667 C5.28645833,3.37239583 4.57248264,4.75477431 4.51171875,6.66883681 L11.499566,6.66883681 L11.499566,6.66883681 Z" id="p"></path>
                        </g>
                        <g id="q-link" transform="translate(76.686632, 6.244358)">
                            <path d="M10.2842882,0.0151909722 C11.3476562,0.0151909722 12.5325521,0.121527778 13.4136285,0.2734375 L13.4136285,3.87369792 C11.7426215,3.61545139 9.35763889,3.31163194 7.96006944,4.1015625 C6.09157986,5.14973958 5.04340278,7.24609375 5.04340278,10.1019965 L5.04340278,16.7556424 L0.789930556,16.7556424 C0.638020833,11.1805556 1.27604167,4.76996528 0,0.319010417 L4.11675347,0.319010417 C4.40538194,1.3671875 4.66362847,2.58246528 4.81553819,3.78255208 L4.87630208,3.78255208 C5.66623264,1.48871528 7.17013889,-0.0151909722 10.2842882,0.0151909722" id="q"></path>
                        </g>
                    </g>
                </g>
                <path d="M460,256 C460,283.6 437.6,306 410,306 C382.4,306 360,283.6 360,256 C360,228.4 382.4,206 410,206 C437.6,206 460,228.4 460,256 Z" id="Shape" stroke="#000000" stroke-width="2" fill="#DDDDDD" fill-rule="nonzero"></path>
                <g id="Group" transform="translate(410.000000, 261.400000)"></g>
                <polygon id="Shape" fill="#DDDDDD" fill-rule="nonzero" points="367.08 233 406.92 233 406.92 279 367.08 279"></polygon>
                <path d="M404.37,265.23 L402.07,278.26 L369.6,278.26 L386.68,256.04 L370.7,233.74 L403.24,233.74 L403.24,244.67 L401.94,244.67 C401.01,238.79 399.36,236.62 393.57,236.62 L379.63,236.62 L392.26,253.65 L377.62,272.55 L395.66,272.55 C400.54,272.55 402.1,269.59 403.06,265.23 L404.36,265.23" id="Shape" fill="#000000" fill-rule="nonzero"></path>
                <path d="M411,306 L411,206 M417.5,268.5 L437.5,268.5 M435.5,243.5 L435.5,268.5 M434,245.25 L454,245.25" id="Shape" stroke="#000000" stroke-width="4"></path>
                <path d="M458,408 C458,435.6 435.6,458 408,458 C380.4,458 358,435.6 358,408 C358,380.4 380.4,358 408,358 C435.6,358 458,380.4 458,408 Z" id="Shape" stroke="#000000" stroke-width="2" fill="#DDDDDD" fill-rule="nonzero"></path>
                <g id="Group" transform="translate(408.000000, 413.400000)"></g>
                <polygon id="Shape" fill="#DDDDDD" fill-rule="nonzero" points="365.08 385 404.92 385 404.92 431 365.08 431"></polygon>
                <path d="M402.37,417.23 L400.07,430.26 L367.6,430.26 L384.68,408.04 L368.7,385.74 L401.24,385.74 L401.24,396.67 L399.94,396.67 C399.01,390.79 397.36,388.62 391.57,388.62 L377.63,388.62 L390.26,405.65 L375.62,424.55 L393.66,424.55 C398.54,424.55 400.1,421.59 401.06,417.23 L402.36,417.23" id="Shape" fill="#000000" fill-rule="nonzero"></path>
                <path d="M409,458 L409,358 M415.5,420.5 L435.5,420.5 M433.5,395.5 L433.5,420.5 M432,397.25 L452,397.25 M120,179 L360,256" id="Shape" stroke="#000000" stroke-width="4"></path>
                <polygon id="Shape" fill="#000000" fill-rule="nonzero" points="132.17 187.77 120 179 135 178.94"></polygon>
                <path d="M133.23,191 L119.88,181.38 L120,179 L119.93,177 L137.75,176.93 L133.23,191 Z M126.16,180.98 L131.1,184.54 L132.25,180.94 L126.16,180.98 Z M360.08,258.12 L359.38,257.9 L360,256 L360.08,258.12 Z" id="Shape" fill="#000000" fill-rule="nonzero"></path>
                <path d="M120,319 L360,256" id="Shape" stroke="#000000" stroke-width="4"></path>
                <polygon id="Shape" fill="#000000" fill-rule="nonzero" points="134.98 319.86 120 319 132.62 310.9"></polygon>
                <path d="M137.6,322.02 L119.9,321 L120,319 L119.92,316.68 L133.86,307.72 L137.6,322.02 Z M126.26,317.36 L132.34,317.71 L131.39,314.07 L126.26,317.36 Z M360,256 L359.5,254.07 L360.1,253.9 L360,256 Z" id="Shape" fill="#000000" fill-rule="nonzero"></path>
                <path d="M120,529 L358,408" id="Shape" stroke="#000000" stroke-width="4"></path>
                <polygon id="Shape" fill="#000000" fill-rule="nonzero" points="134.82 526.67 120 529 130.62 518.4"></polygon>
                <path d="M137.85,528.2 L119.9,531.04 L120,529 L119.9,526.27 L131.15,515.04 L137.85,528.2 Z M125.77,526.07 L131.79,525.12 L130.07,521.76 L125.77,526.07 Z M358,408 L357.1,406.22 L358.1,405.7 L358,408 Z" id="Shape" fill="#000000" fill-rule="nonzero"></path>
                <path d="M120,179 L358,408" id="Shape" stroke="#000000" stroke-width="4"></path>
                <polygon id="Shape" fill="#000000" fill-rule="nonzero" points="133.5 185.55 127.07 192.23 120 179"></polygon>
                <path d="M136.84,184.95 L126.6,195.6 L119.8,182.88 L120,179 L119.92,176.74 L136.84,184.95 Z M127.54,188.85 L130.14,186.15 L124.66,183.49 L127.54,188.85 Z M358.1,410.87 L356.6,409.44 L358,408 L358.1,410.87 Z" id="Shape" fill="#000000" fill-rule="nonzero"></path>
                <path d="M120,319 L358,408" id="Shape" stroke="#000000" stroke-width="4"></path>
                <polygon id="Shape" fill="#000000" fill-rule="nonzero" points="135 319.66 131.74 328.34 120 319"></polygon>
                <path d="M137.82,317.78 L132.65,331.62 L119.88,321.46 L120,319 L119.93,317 L137.82,317.78 Z M130.82,325.06 L132.15,321.53 L126.05,321.27 L130.82,325.06 Z M358.08,410.16 L357.3,409.86 L358,408 L358.08,410.16 Z" id="Shape" fill="#000000" fill-rule="nonzero"></path>
                <path d="M120,529 L360,256" id="Shape" stroke="#000000" stroke-width="4"></path>
                <polygon id="Shape" fill="#000000" fill-rule="nonzero" points="132.9 521.35 120 529 125.94 515.23"></polygon>
                <path d="M136.3,521.66 L119.88,531.4 L120,529 L119.87,525.4 L119.77,524.5 L125.19,511.9 L136.3,521.66 Z M124.27,524.14 L129.51,521.04 L126.69,518.54 L124.27,524.14 Z M360,256 L358.5,254.68 L360.16,252.78 L360,256 Z" id="Shape" fill="#000000" fill-rule="nonzero"></path>
                <path d="M780,329 C780,356.6 757.6,379 730,379 C702.4,379 680,356.6 680,329 C680,301.4 702.4,279 730,279 C757.6,279 780,301.4 780,329 Z" id="Shape" stroke="#000000" stroke-width="2" fill="#FFFFFF" fill-rule="nonzero"></path>
                <g id="a-link" transform="translate(729.000000, 335.400000)" fill-rule="nonzero" fill="#000000">
                    <polygon id="a" points="0.1 0.25 1.9 0.25 1.9 1.57 0.1 1.57"></polygon>
                </g>
                <polygon id="Shape" points="702.62 308.24 763.22 308.24 763.22 353 702.62 353"></polygon>
                <path d="M720.14,326.12 L721.52,333.35 C727.1,324.08 729.52,319.35 729.52,316.45 C729.52,315.55 729.07,315.15 727.82,314.35 C726.52,313.5 726.12,312.85 726.12,311.79 C726.12,310.34 727.22,309.35 728.74,309.35 C730.72,309.35 732.16,311 732.16,312.97 C732.16,316.71 729.01,323.94 723.56,333.01 C716.72,344.31 709.69,351.87 705.94,351.87 C703.97,351.87 702.59,350.75 702.59,349.05 C702.59,347.6 703.69,346.42 705.14,346.42 C707.44,346.42 707.44,348.26 709.14,348.26 C710.01,348.26 710.79,347.73 712.31,346.09 C713.49,344.84 716.45,340.96 716.97,340.11 C717.37,339.31 717.63,338.53 717.63,337.81 C717.63,335.18 714.01,320.46 712.23,315.99 C710.99,312.77 709.81,311.79 707.18,311.79 C706.45,311.79 705.86,311.85 705.13,312.05 L705.13,310.93 C705.86,310.8 706.58,310.67 707.23,310.53 C708.55,310.27 710.73,309.88 714.27,309.35 L714.52,309.35 C715.52,309.35 718.99,320.25 720.12,326.11 M751.66,348.24 L738.83,348.24 L738.83,347.54 C742.27,347.36 743.25,346.38 743.25,343.84 L743.25,322.96 C743.25,321.38 742.83,320.69 741.85,320.69 C741.39,320.69 740.6,320.91 739.75,321.23 L738.51,321.7 L738.51,321.06 L746.84,316.83 L747.24,316.97 L747.24,344.71 C747.24,346.71 748.18,347.55 751.67,347.55 L751.67,348.25" id="Shape" fill="#000000" fill-rule="nonzero"></path>
                <polygon id="Shape" points="1000 303.67 1180 303.67 1180 358.33 1000 358.33"></polygon>
                <g id="h-link" transform="translate(1018.988281, 321.158854)" fill-rule="nonzero" fill="#C92D39">
                    <g id="h">
                        <g id="v-link" transform="translate(0.953125, 0.476562)">
                            <path d="M19.7851562,16.171875 C18.3203125,19.6484375 15.3125,21.9140625 10.2734375,21.9140625 C3.3984375,21.9140625 0,17.8320312 0,10.859375 C0,3.8671875 3.61328125,0 10.3515625,0 C17.34375,0 20.0390625,4.90234375 20.0976562,12.0117187 L5.76171875,12.0117187 C5.859375,15.5273437 7.08984375,18.2421875 10.546875,18.2421875 C12.5390625,18.2421875 14.1796875,17.3632812 14.609375,15.7226562 L19.7851562,16.171875 Z M14.7851562,8.57421875 C14.6679688,5.1171875 12.2851562,2.578125 8.6328125,3.75 C6.796875,4.3359375 5.87890625,6.11328125 5.80078125,8.57421875 L14.7851562,8.57421875 L14.7851562,8.57421875 Z" id="v"></path>
                        </g>
                        <g id="w-link" transform="translate(26.871094, 0.457031)">
                            <path d="M13.2226562,0.01953125 C14.5898438,0.01953125 16.1132812,0.15625 17.2460938,0.3515625 L17.2460938,4.98046875 C15.0976562,4.6484375 12.03125,4.2578125 10.234375,5.2734375 C7.83203125,6.62109375 6.484375,9.31640625 6.484375,12.9882813 L6.484375,21.5429688 L1.015625,21.5429688 C0.8203125,14.375 1.640625,6.1328125 0,0.41015625 L5.29296875,0.41015625 C5.6640625,1.7578125 5.99609375,3.3203125 6.19140625,4.86328125 L6.26953125,4.86328125 C7.28515625,1.9140625 9.21875,-0.01953125 13.2226562,0.01953125" id="w"></path>
                        </g>
                        <g id="w-link" transform="translate(50.875000, 0.457031)">
                            <path d="M13.2226562,0.01953125 C14.5898438,0.01953125 16.1132812,0.15625 17.2460938,0.3515625 L17.2460938,4.98046875 C15.0976562,4.6484375 12.03125,4.2578125 10.234375,5.2734375 C7.83203125,6.62109375 6.484375,9.31640625 6.484375,12.9882813 L6.484375,21.5429688 L1.015625,21.5429688 C0.8203125,14.375 1.640625,6.1328125 0,0.41015625 L5.29296875,0.41015625 C5.6640625,1.7578125 5.99609375,3.3203125 6.19140625,4.86328125 L6.26953125,4.86328125 C7.28515625,1.9140625 9.21875,-0.01953125 13.2226562,0.01953125" id="w"></path>
                        </g>
                        <g id="x-link" transform="translate(72.808594, 0.476562)">
                            <path d="M10.234375,0 C17.2851562,0 20.4101562,3.9453125 20.4101562,10.9375 C20.4101562,17.8515625 17.0703125,21.9140625 10.1171875,21.9140625 C3.26171875,21.9140625 0,17.7734375 0,10.9375 C0,4.08203125 3.30078125,0 10.234375,0 Z M10.0585938,18.1640625 C13.9648438,18.125 14.6679688,14.9414062 14.6679688,10.9375 C14.6679688,7.05078125 14.140625,3.76953125 10.3125,3.76953125 C6.50390625,3.76953125 5.76171875,6.62109375 5.76171875,10.9375 C5.76171875,13.4570312 6.11328125,15.2929687 6.8359375,16.4453125 C7.55859375,17.5976562 8.6328125,18.1640625 10.0585938,18.1640625 L10.0585938,18.1640625 Z" id="x"></path>
                        </g>
                        <g id="w-link" transform="translate(98.882812, 0.457031)">
                            <path d="M13.2226562,0.01953125 C14.5898438,0.01953125 16.1132812,0.15625 17.2460938,0.3515625 L17.2460938,4.98046875 C15.0976562,4.6484375 12.03125,4.2578125 10.234375,5.2734375 C7.83203125,6.62109375 6.484375,9.31640625 6.484375,12.9882813 L6.484375,21.5429688 L1.015625,21.5429688 C0.8203125,14.375 1.640625,6.1328125 0,0.41015625 L5.29296875,0.41015625 C5.6640625,1.7578125 5.99609375,3.3203125 6.19140625,4.86328125 L6.26953125,4.86328125 C7.28515625,1.9140625 9.21875,-0.01953125 13.2226562,0.01953125" id="w"></path>
                        </g>
                        <g id="y-link" transform="translate(121.382812, 0.457031)">
                            <path d="M9.78515625,3.65234375 C7.59765625,3.69140625 5.87890625,3.92578125 5.87890625,5.8203125 C5.87890625,7.578125 7.6171875,7.79296875 9.16015625,8.18359375 C13.7304688,9.31640625 19.1992188,9.6875 19.1992188,15.3710938 C19.1992188,21.4648438 12.3046875,22.5976562 6.11328125,21.640625 C2.8515625,21.1328125 0.78125,19.3554688 0,16.2695313 L4.82421875,15.546875 C5.29296875,17.7148438 7.03125,18.3789063 9.74609375,18.3007813 C11.9726562,18.2421875 14.1601562,18.0664063 14.1601562,15.8789063 C14.1601562,13.90625 12.1484375,13.671875 10.4101563,13.2617188 C6.015625,12.2070313 0.83984375,11.7773438 0.83984375,6.40625 C0.83984375,1.58203125 4.765625,0 9.78515625,0 C14.5703125,0 17.8515625,1.71875 18.7109375,5.703125 L13.8476562,6.2109375 C13.5351562,4.296875 12.0507812,3.61328125 9.78515625,3.65234375" id="y"></path>
                        </g>
                    </g>
                </g>
                <path d="M780,329 L1000,331" id="Shape" stroke="#000000" stroke-width="4"></path>
                <polygon id="Shape" fill="#000000" fill-rule="nonzero" points="794.22 333.76 780 329 794.3 324.5"></polygon>
                <path d="M796.2,336.54 L779.9,331.07 L780,329 L779.93,326.93 L796.33,321.76 L796.2,336.54 Z M786.47,329.06 L792.25,330.99 L792.28,327.22 L786.47,329.06 Z M1000,333 L999.98,333 L1000,331 L1000,333 Z" id="Shape" fill="#000000" fill-rule="nonzero"></path>
                <path d="M780,470 C780,497.6 757.6,520 730,520 C702.4,520 680,497.6 680,470 C680,442.4 702.4,420 730,420 C757.6,420 780,442.4 780,470 Z" id="Shape" stroke="#000000" stroke-width="2" fill="#FFFFFF" fill-rule="nonzero"></path>
                <g id="a-link" transform="translate(729.000000, 476.400000)" fill-rule="nonzero" fill="#000000">
                    <polygon id="a" points="0.1 0.25 1.9 0.25 1.9 1.57 0.1 1.57"></polygon>
                </g>
                <polygon id="Shape" points="702.62 449.24 763.22 449.24 763.22 494 702.62 494"></polygon>
                <path d="M720.14,467.12 L721.52,474.35 C727.1,465.08 729.52,460.35 729.52,457.45 C729.52,456.55 729.07,456.15 727.82,455.35 C726.52,454.5 726.12,453.85 726.12,452.79 C726.12,451.34 727.22,450.35 728.74,450.35 C730.72,450.35 732.16,452 732.16,453.97 C732.16,457.71 729.01,464.94 723.56,474.01 C716.72,485.31 709.69,492.87 705.94,492.87 C703.97,492.87 702.59,491.75 702.59,490.05 C702.59,488.6 703.69,487.42 705.14,487.42 C707.44,487.42 707.44,489.26 709.14,489.26 C710.01,489.26 710.79,488.73 712.31,487.09 C713.49,485.84 716.45,481.96 716.97,481.11 C717.37,480.31 717.63,479.53 717.63,478.81 C717.63,476.18 714.01,461.46 712.23,456.99 C710.99,453.77 709.81,452.79 707.18,452.79 C706.45,452.79 705.86,452.85 705.13,453.05 L705.13,451.93 C705.86,451.8 706.58,451.67 707.23,451.53 C708.55,451.27 710.73,450.88 714.27,450.35 L714.52,450.35 C715.52,450.35 718.99,461.25 720.12,467.11 M755.38,482.88 L752.88,489.24 L734.7,489.24 L734.7,488.68 L742.97,479.9 C747.34,475.3 749.01,471.77 749.01,467.82 C749.01,463.59 746.51,461.27 742.56,461.27 C739.21,461.27 737.59,462.75 735.73,467.31 L734.75,467.09 C735.73,461.65 738.7,457.84 744.42,457.84 C749.68,457.84 753.02,461.42 753.02,466.02 C753.02,469.7 751.22,473.18 747.08,477.55 L739.41,485.73 L750.27,485.73 C752.23,485.73 753.2,485.23 754.73,482.63" id="Shape" fill="#000000" fill-rule="nonzero"></path>
                <path d="M780,470 L1000,331" id="Shape" stroke="#000000" stroke-width="4"></path>
                <polygon id="Shape" fill="#000000" fill-rule="nonzero" points="794.54 466.3 780 470 789.58 458.46"></polygon>
                <path d="M797.7,467.56 L779.9,472.09 L780,469.99 L779.9,466.99 L789.8,455.06 L797.7,467.56 Z M785.47,466.54 L791.37,465.04 L789.37,461.86 L785.47,466.54 Z M1000,331 L998.93,329.3 L1000,328.63 L1000,331 Z" id="Shape" fill="#000000" fill-rule="nonzero"></path>
                <path d="M783,179 C783,206.6 760.6,229 733,229 C705.4,229 683,206.6 683,179 C683,151.4 705.4,129 733,129 C760.6,129 783,151.4 783,179 Z" id="Shape" stroke="#000000" stroke-width="2" fill="#FFFFFF" fill-rule="nonzero"></path>
                <g id="a-link" transform="translate(732.000000, 185.400000)" fill-rule="nonzero" fill="#000000">
                    <polygon id="a" points="0.1 0.25 1.9 0.25 1.9 1.57 0.1 1.57"></polygon>
                </g>
                <polygon id="Shape" points="705.62 158.24 766.22 158.24 766.22 203 705.62 203"></polygon>
                <path d="M723.14,176.12 L724.52,183.35 C730.1,174.08 732.52,169.35 732.52,166.45 C732.52,165.55 732.07,165.15 730.82,164.35 C729.52,163.5 729.12,162.85 729.12,161.79 C729.12,160.34 730.22,159.35 731.74,159.35 C733.72,159.35 735.16,161 735.16,162.97 C735.16,166.71 732.01,173.94 726.56,183.01 C719.72,194.31 712.69,201.87 708.94,201.87 C706.97,201.87 705.59,200.75 705.59,199.05 C705.59,197.6 706.69,196.42 708.14,196.42 C710.44,196.42 710.44,198.26 712.14,198.26 C713.01,198.26 713.79,197.73 715.31,196.09 C716.49,194.84 719.45,190.96 719.97,190.11 C720.37,189.31 720.63,188.53 720.63,187.81 C720.63,185.18 717.01,170.46 715.23,165.99 C713.99,162.77 712.81,161.79 710.18,161.79 C709.45,161.79 708.86,161.85 708.13,162.05 L708.13,160.93 C708.86,160.8 709.58,160.67 710.23,160.53 C711.55,160.27 713.73,159.88 717.27,159.35 L717.52,159.35 C718.52,159.35 721.99,170.25 723.12,176.11 M758.47,182.9 C758.47,190.9 755.54,198.9 747.97,198.9 C740.02,198.9 737.47,190.25 737.47,182.63 C737.47,174.4 740.67,166.83 748.15,166.83 C754.25,166.83 758.47,173.38 758.47,182.91 M754.01,183.15 C754.01,173.48 751.97,168.05 747.88,168.05 C744.03,168.05 741.94,173.53 741.94,182.95 C741.94,192.4 743.98,197.69 747.98,197.69 C751.93,197.69 754.02,192.35 754.02,183.15" id="Shape" fill="#000000" fill-rule="nonzero"></path>
                <path d="M783,179 L1000,331" id="Shape" stroke="#000000" stroke-width="4"></path>
                <polygon id="Shape" fill="#000000" fill-rule="nonzero" points="797.34 183.4 792.04 190.98 783 179"></polygon>
                <path d="M800.56,182.28 L792.08,194.38 L782.84,182.12 L783,179 L782.93,176.9 L800.56,182.28 Z M791.96,187.58 L794.13,184.5 L788.3,182.7 L791.96,187.58 Z M1000,333.44 L998.85,332.64 L1000,331 L1000,333.44 Z" id="Shape" fill="#000000" fill-rule="nonzero"></path>
                <path d="M460,256 L683,179" id="Shape" stroke="#000000" stroke-width="4"></path>
                <polygon id="Shape" fill="#000000" fill-rule="nonzero" points="475 255.73 460 256 471.97 246.96"></polygon>
                <path d="M477.8,257.67 L459.9,258 L460,256 L459.9,253.56 L472.96,243.71 L477.8,257.67 Z M466.12,253.89 L472.22,253.77 L470.98,250.21 L466.12,253.89 Z M683,179 L682.35,177.1 L683.11,176.85 L683,179 Z" id="Shape" fill="#000000" fill-rule="nonzero"></path>
                <path d="M460,256 L680,329" id="Shape" stroke="#000000" stroke-width="4"></path>
                <polygon id="Shape" fill="#000000" fill-rule="nonzero" points="475 256.1 472.08 264.9 460 256"></polygon>
                <path d="M477.76,254.1 L473.11,268.13 L459.89,258.4 L460.01,256 L459.94,254 L477.76,254.1 Z M471.06,261.65 L472.23,258.08 L466.13,258.04 L471.06,261.65 Z M680.08,331.13 L679.38,330.9 L680,329 L680.08,331.13 Z" id="Shape" fill="#000000" fill-rule="nonzero"></path>
                <path d="M460,256 L679.33,475.33" id="Shape" stroke="#000000" stroke-width="4"></path>
                <polygon id="Shape" fill="#000000" fill-rule="nonzero" points="473.37 262.8 466.81 269.37 460 256"></polygon>
                <path d="M476.73,262.28 L466.28,272.73 L459.8,260 L460,256 L459.92,253.7 L476.73,262.28 Z M467.33,266 L470,263.34 L464.58,260.58 L467.33,266 Z M680.7,478.22 L680.04,478.87 L677.92,476.75 L680.22,474.43 L680.7,478.22 Z" id="Shape" fill="#000000" fill-rule="nonzero"></path>
                <path d="M458,408 L680,470" id="Shape" stroke="#000000" stroke-width="4"></path>
                <polygon id="Shape" fill="#000000" fill-rule="nonzero" points="470.5 416.3 458 408 473 407.37"></polygon>
                <path d="M471.68,419.5 L457.88,410.32 L458,408 L457.93,406 L475.65,405.26 L471.68,419.5 Z M464.23,409.74 L469.31,413.11 L470.33,409.51 L464.23,409.74 Z M680.07,472.1 L679.47,471.93 L680,470 L680.07,472.1 Z" id="Shape" fill="#000000" fill-rule="nonzero"></path>
                <path d="M458,408 L680,329" id="Shape" stroke="#000000" stroke-width="4"></path>
                <polygon id="Shape" fill="#000000" fill-rule="nonzero" points="473 407.58 458 408 469.9 398.85"></polygon>
                <path d="M475.8,409.5 L457.9,410 L458,408 L457.9,405.54 L470.85,395.59 L475.8,409.5 Z M464.1,405.83 L470.2,405.66 L468.92,402.11 L464.1,405.83 Z M680,329 L679.33,327.12 L680.11,326.84 L680,329 Z" id="Shape" fill="#000000" fill-rule="nonzero"></path>
                <path d="M458,408 L682.26,183.74" id="Shape" stroke="#000000" stroke-width="4"></path>
                <polygon id="Shape" fill="#000000" fill-rule="nonzero" points="471.37 401.2 458 408 464.8 394.63"></polygon>
                <path d="M474.73,401.72 L457.89,410.3 L457.99,408 L457.86,404.4 L457.81,403.95 L464.27,391.27 L474.73,401.72 Z M462.58,403.42 L468,400.66 L465.34,398 L462.58,403.42 Z M683.05,180.28 L683.13,182.58 L683.41,184.88 L680.86,182.33 L682.98,180.21 L683.05,180.28 Z" id="Shape" fill="#000000" fill-rule="nonzero"></path>
            </g>
            <g id="Group" transform="translate(863.000000, 357.000000)">
                <path d="M411.5,262.5 L233,0" id="Line-2" stroke="#6E00AF" stroke-width="6" stroke-linecap="square"></path>
                <path d="M232.5,262.5 L232.5,2" id="Line-2" stroke="#6E00AF" stroke-width="6" stroke-linecap="square"></path>
                <path d="M52.5,262.5 L232,0" id="Line-2" stroke="#6E00AF" stroke-width="6" stroke-linecap="square"></path>
                <path d="M100,312 C100,339.6 77.6,362 50,362 C22.4,362 0,339.6 0,312 C0,284.4 22.4,262 50,262 C77.6,262 100,284.4 100,312 Z" id="Shape" stroke="#6E00AF" stroke-width="4" fill="#FFFFFF" fill-rule="nonzero"></path>
                <polygon id="a" fill="#000000" fill-rule="nonzero" points="49 319 50.8 319 50.8 320.32 49 320.32"></polygon>
                <polygon id="Shape" points="22 291 82.6 291 82.6 335.76 22 335.76"></polygon>
                <path d="M39.55,308.77 L40.93,316 C46.51,306.73 48.93,302 48.93,299.1 C48.93,298.2 48.48,297.8 47.23,297 C45.93,296.15 45.53,295.5 45.53,294.44 C45.53,292.99 46.63,292 48.15,292 C50.13,292 51.57,293.65 51.57,295.62 C51.57,299.36 48.42,306.59 42.97,315.66 C36.13,326.96 29.1,334.52 25.35,334.52 C23.38,334.52 22,333.4 22,331.7 C22,330.25 23.1,329.07 24.55,329.07 C26.85,329.07 26.85,330.91 28.55,330.91 C29.42,330.91 30.2,330.38 31.72,328.74 C32.9,327.49 35.86,323.61 36.38,322.76 C36.78,321.96 37.04,321.18 37.04,320.46 C37.04,317.83 33.42,303.11 31.64,298.64 C30.4,295.42 29.22,294.44 26.59,294.44 C25.86,294.44 25.27,294.5 24.54,294.7 L24.54,293.58 C25.27,293.45 25.99,293.32 26.64,293.18 C27.96,292.92 30.14,292.53 33.68,292 L33.93,292 C34.93,292 38.4,302.9 39.53,308.76 M74.88,315.55 C74.88,323.55 71.95,331.55 64.38,331.55 C56.43,331.55 53.88,322.9 53.88,315.28 C53.88,307.05 57.08,299.48 64.56,299.48 C70.66,299.48 74.88,306.03 74.88,315.56 M70.42,315.8 C70.42,306.13 68.38,300.7 64.29,300.7 C60.44,300.7 58.35,306.18 58.35,315.6 C58.35,325.05 60.39,330.34 64.39,330.34 C68.34,330.34 70.43,325 70.43,315.8" id="Shape" fill="#000000" fill-rule="nonzero"></path>
                <path d="M50.5,283.5 L24.5,283.5" id="Line" stroke="#000000" stroke-width="1.5" stroke-linecap="square"></path>
                <path d="M282,313 C282,340.6 259.6,363 232,363 C204.4,363 182,340.6 182,313 C182,285.4 204.4,263 232,263 C259.6,263 282,285.4 282,313 Z" id="Shape" stroke="#6E00AF" stroke-width="4" fill="#FFFFFF" fill-rule="nonzero"></path>
                <polygon id="a" fill="#000000" fill-rule="nonzero" points="231 320 232.8 320 232.8 321.32 231 321.32"></polygon>
                <polygon id="Shape" points="204 292 264.6 292 264.6 336.76 204 336.76"></polygon>
                <path d="M221.55,309.77 L222.93,317 C228.51,307.73 230.93,303 230.93,300.1 C230.93,299.2 230.48,298.8 229.23,298 C227.93,297.15 227.53,296.5 227.53,295.44 C227.53,293.99 228.63,293 230.15,293 C232.13,293 233.57,294.65 233.57,296.62 C233.57,300.36 230.42,307.59 224.97,316.66 C218.13,327.96 211.1,335.52 207.35,335.52 C205.38,335.52 204,334.4 204,332.7 C204,331.25 205.1,330.07 206.55,330.07 C208.85,330.07 208.85,331.91 210.55,331.91 C211.42,331.91 212.2,331.38 213.72,329.74 C214.9,328.49 217.86,324.61 218.38,323.76 C218.78,322.96 219.04,322.18 219.04,321.46 C219.04,318.83 215.42,304.11 213.64,299.64 C212.4,296.42 211.22,295.44 208.59,295.44 C207.86,295.44 207.27,295.5 206.54,295.7 L206.54,294.58 C207.27,294.45 207.99,294.32 208.64,294.18 C209.96,293.92 212.14,293.53 215.68,293 L215.93,293 C216.93,293 220.4,303.9 221.53,309.76 M253.07,331.89 L240.24,331.89 L240.24,331.19 C243.68,331.01 244.66,330.03 244.66,327.49 L244.66,306.61 C244.66,305.03 244.24,304.34 243.26,304.34 C242.8,304.34 242.01,304.56 241.16,304.88 L239.92,305.35 L239.92,304.71 L248.25,300.48 L248.65,300.62 L248.65,328.36 C248.65,330.36 249.59,331.2 253.08,331.2 L253.08,331.9" id="Shape" fill="#000000" fill-rule="nonzero"></path>
                <path d="M233.5,284.5 L207.5,284.5" id="Line" stroke="#000000" stroke-width="1.5" stroke-linecap="square"></path>
                <path d="M463,312 C463,339.6 440.6,362 413,362 C385.4,362 363,339.6 363,312 C363,284.4 385.4,262 413,262 C440.6,262 463,284.4 463,312 Z" id="Shape" stroke="#6E00AF" stroke-width="4" fill="#FFFFFF" fill-rule="nonzero"></path>
                <polygon id="a" fill="#000000" fill-rule="nonzero" points="412 319 413.8 319 413.8 320.32 412 320.32"></polygon>
                <polygon id="Shape" points="385 291 445.6 291 445.6 335.76 385 335.76"></polygon>
                <path d="M402.55,308.77 L403.93,316 C409.51,306.73 411.93,302 411.93,299.1 C411.93,298.2 411.48,297.8 410.23,297 C408.93,296.15 408.53,295.5 408.53,294.44 C408.53,292.99 409.63,292 411.15,292 C413.13,292 414.57,293.65 414.57,295.62 C414.57,299.36 411.42,306.59 405.97,315.66 C399.13,326.96 392.1,334.52 388.35,334.52 C386.38,334.52 385,333.4 385,331.7 C385,330.25 386.1,329.07 387.55,329.07 C389.85,329.07 389.85,330.91 391.55,330.91 C392.42,330.91 393.2,330.38 394.72,328.74 C395.9,327.49 398.86,323.61 399.38,322.76 C399.78,321.96 400.04,321.18 400.04,320.46 C400.04,317.83 396.42,303.11 394.64,298.64 C393.4,295.42 392.22,294.44 389.59,294.44 C388.86,294.44 388.27,294.5 387.54,294.7 L387.54,293.58 C388.27,293.45 388.99,293.32 389.64,293.18 C390.96,292.92 393.14,292.53 396.68,292 L396.93,292 C397.93,292 401.4,302.9 402.53,308.76 M437.79,324.53 L435.29,330.89 L417.11,330.89 L417.11,330.33 L425.38,321.55 C429.75,316.95 431.42,313.42 431.42,309.47 C431.42,305.24 428.92,302.92 424.97,302.92 C421.62,302.92 420,304.4 418.14,308.96 L417.16,308.74 C418.14,303.3 421.11,299.49 426.83,299.49 C432.09,299.49 435.43,303.07 435.43,307.67 C435.43,311.35 433.63,314.83 429.49,319.2 L421.82,327.38 L432.68,327.38 C434.64,327.38 435.61,326.88 437.14,324.28" id="Shape" fill="#000000" fill-rule="nonzero"></path>
                <path d="M415.5,283.5 L389.5,283.5" id="Line" stroke="#000000" stroke-width="1.5" stroke-linecap="square"></path>
                <text id="expected-output" font-family="PTMono-Bold, PT Mono" font-size="40" font-weight="bold" fill="#6E00AF">
                    <tspan x="52" y="431">expected output</tspan>
                </text>
            </g>
        </g>
    </g>
</svg>