<?xml version="1.0" encoding="UTF-8"?>
<svg width="288px" height="244px" viewBox="0 0 288 244" version="1.1" xmlns="http://www.w3.org/2000/svg" xmlns:xlink="http://www.w3.org/1999/xlink">
    <!-- Generator: Sketch 47 (45396) - http://www.bohemiancoding.com/sketch -->
    <title>Group</title>
    <desc>Created with Sketch.</desc>
    <defs></defs>
    <g id="Page-1" stroke="none" stroke-width="1" fill="none" fill-rule="evenodd">
        <g id="Group" transform="translate(0.000000, -2.000000)">
            <polygon id="Shape" stroke="#000000" fill="#000000" fill-rule="nonzero" points="115.884211 143.92 117.298947 150.988293 115.884211 150.988293 115.884211 200.466341 115.884211 200.466341 115.884211 150.988293 114.469474 150.988293"></polygon>
            <polygon id="Shape" stroke="#000000" fill="#000000" fill-rule="nonzero" points="158.326316 129.783415 151.252632 131.197073 151.252632 129.783415 130.031579 129.783415 130.031579 129.783415 151.252632 129.783415 151.252632 128.369756"></polygon>
            <polygon id="Shape" stroke="#000000" fill="#000000" fill-rule="nonzero" points="108.036662 118.021065 102.935756 112.924046 104.112888 112.13989 67.142285 56.726252 67.142285 56.726252 104.112888 112.13989 105.290021 111.355733"></polygon>
            <polygon id="Shape" stroke="#000000" fill="#000000" fill-rule="nonzero" points="104.566316 121.301463 98.058526 118.191415 98.907368 117.060488 70.612632 95.85561 70.612632 95.85561 98.907368 117.060488 99.756211 115.929561"></polygon>
            <polygon id="Shape" stroke="#000000" fill="#000000" fill-rule="nonzero" points="101.736842 129.783415 94.663158 131.197073 94.663158 129.783415 73.442105 129.783415 73.442105 129.783415 94.663158 129.783415 94.663158 128.369756"></polygon>
            <polygon id="Shape" stroke="#000000" fill="#000000" fill-rule="nonzero" points="104.566316 138.265366 99.756211 143.637268 98.907368 142.506341 70.612632 163.71122 70.612632 163.71122 98.907368 142.506341 98.058526 141.375415"></polygon>
            <polygon id="Shape" stroke="#000000" fill="#000000" fill-rule="nonzero" points="108.036662 141.545765 105.290021 148.211096 104.112888 147.42694 67.142285 202.840577 67.142285 202.840577 104.112888 147.42694 102.935756 146.642783"></polygon>
            <polygon id="Shape" stroke="#000000" fill="#000000" fill-rule="nonzero" points="221.21561 56.726252 218.468968 63.391584 217.291836 62.607427 180.321232 118.021065 180.321232 118.021065 217.291836 62.607427 216.114704 61.823271"></polygon>
            <polygon id="Shape" stroke="#000000" fill="#000000" fill-rule="nonzero" points="217.745263 95.85561 212.935158 101.227512 212.086316 100.096585 183.791579 121.301463 183.791579 121.301463 212.086316 100.096585 211.237474 98.965659"></polygon>
            <polygon id="Shape" stroke="#000000" fill="#000000" fill-rule="nonzero" points="214.915789 129.783415 207.842105 131.197073 207.842105 129.783415 186.621053 129.783415 186.621053 129.783415 207.842105 129.783415 207.842105 128.369756"></polygon>
            <polygon id="Shape" stroke="#000000" fill="#000000" fill-rule="nonzero" points="217.745263 163.71122 211.237474 160.601171 212.086316 159.470244 183.791579 138.265366 183.791579 138.265366 212.086316 159.470244 212.935158 158.339317"></polygon>
            <polygon id="Shape" stroke="#000000" fill="#000000" fill-rule="nonzero" points="221.21561 202.840577 216.114704 197.743558 217.291836 196.959402 180.321232 141.545765 180.321232 141.545765 217.291836 196.959402 218.468968 196.175245"></polygon>
            <path d="M115.884211,143.92 C119.636136,143.92 123.234898,142.43048 125.887911,139.77949 C128.540923,137.1285 130.031579,133.532481 130.031579,129.783415 C130.031579,126.034348 128.540923,122.438329 125.887911,119.787339 C123.234898,117.136349 119.636136,115.646829 115.884211,115.646829 C112.132285,115.646829 108.533523,117.136349 105.88051,119.787339 C103.227498,122.438329 101.736842,126.034348 101.736842,129.783415 C101.736842,133.532481 103.227498,137.1285 105.88051,139.77949 C108.533523,142.43048 112.132285,143.92 115.884211,143.92 Z" id="Shape" stroke="#000000" fill="#B2B2B2" fill-rule="nonzero"></path>
            <path d="M115.884211,143.92 C119.636136,143.92 123.234898,142.43048 125.887911,139.77949 C128.540923,137.1285 130.031579,133.532481 130.031579,129.783415 C130.031579,126.034348 128.540923,122.438329 125.887911,119.787339 C123.234898,117.136349 119.636136,115.646829 115.884211,115.646829 C112.132285,115.646829 108.533523,117.136349 105.88051,119.787339 C103.227498,122.438329 101.736842,126.034348 101.736842,129.783415 C101.736842,133.532481 103.227498,137.1285 105.88051,139.77949 C108.533523,142.43048 112.132285,143.92 115.884211,143.92 Z" id="Shape" stroke="#000000"></path>
            <path d="M172.473684,143.92 C176.22561,143.92 179.824372,142.43048 182.477384,139.77949 C185.130397,137.1285 186.621053,133.532481 186.621053,129.783415 C186.621053,126.034348 185.130397,122.438329 182.477384,119.787339 C179.824372,117.136349 176.22561,115.646829 172.473684,115.646829 C168.721758,115.646829 165.122996,117.136349 162.469984,119.787339 C159.816972,122.438329 158.326316,126.034348 158.326316,129.783415 C158.326316,133.532481 159.816972,137.1285 162.469984,139.77949 C165.122996,142.43048 168.721758,143.92 172.473684,143.92 Z" id="Shape" stroke="#000000" fill="#B2B2B2" fill-rule="nonzero"></path>
            <path d="M172.473684,143.92 C176.22561,143.92 179.824372,142.43048 182.477384,139.77949 C185.130397,137.1285 186.621053,133.532481 186.621053,129.783415 C186.621053,126.034348 185.130397,122.438329 182.477384,119.787339 C179.824372,117.136349 176.22561,115.646829 172.473684,115.646829 C168.721758,115.646829 165.122996,117.136349 162.469984,119.787339 C159.816972,122.438329 158.326316,126.034348 158.326316,129.783415 C158.326316,133.532481 159.816972,137.1285 162.469984,139.77949 C165.122996,142.43048 168.721758,143.92 172.473684,143.92 Z" id="Shape" stroke="#000000"></path>
            <path d="M115.884211,228.739512 C119.636136,228.739512 123.234898,227.249992 125.887911,224.599002 C128.540923,221.948012 130.031579,218.351993 130.031579,214.602927 C130.031579,210.853861 128.540923,207.257842 125.887911,204.606851 C123.234898,201.955861 119.636136,200.466341 115.884211,200.466341 C112.132285,200.466341 108.533523,201.955861 105.88051,204.606851 C103.227498,207.257842 101.736842,210.853861 101.736842,214.602927 C101.736842,218.351993 103.227498,221.948012 105.88051,224.599002 C108.533523,227.249992 112.132285,228.739512 115.884211,228.739512 Z" id="Shape" stroke="#000000"></path>
            <path d="M59.294737,59.100488 C63.046663,59.100488 66.645425,57.610968 69.298437,54.959978 C71.951449,52.308988 73.442105,48.712969 73.442105,44.963902 C73.442105,41.214836 71.951449,37.618817 69.298437,34.967827 C66.645425,32.316837 63.046663,30.827317 59.294737,30.827317 C55.542811,30.827317 51.944049,32.316837 49.291037,34.967827 C46.638024,37.618817 45.147368,41.214836 45.147368,44.963902 C45.147368,48.712969 46.638024,52.308988 49.291037,54.959978 C51.944049,57.610968 55.542811,59.100488 59.294737,59.100488 Z" id="Shape" stroke="#000000"></path>
            <path d="M59.294737,101.510244 C63.046663,101.510244 66.645425,100.020724 69.298437,97.369734 C71.951449,94.718744 73.442105,91.122725 73.442105,87.373659 C73.442105,83.624592 71.951449,80.028573 69.298437,77.377583 C66.645425,74.726593 63.046663,73.237073 59.294737,73.237073 C55.542811,73.237073 51.944049,74.726593 49.291037,77.377583 C46.638024,80.028573 45.147368,83.624592 45.147368,87.373659 C45.147368,91.122725 46.638024,94.718744 49.291037,97.369734 C51.944049,100.020724 55.542811,101.510244 59.294737,101.510244 Z" id="Shape" stroke="#000000"></path>
            <path d="M59.294737,143.92 C63.046663,143.92 66.645425,142.43048 69.298437,139.77949 C71.951449,137.1285 73.442105,133.532481 73.442105,129.783415 C73.442105,126.034348 71.951449,122.438329 69.298437,119.787339 C66.645425,117.136349 63.046663,115.646829 59.294737,115.646829 C55.542811,115.646829 51.944049,117.136349 49.291037,119.787339 C46.638024,122.438329 45.147368,126.034348 45.147368,129.783415 C45.147368,133.532481 46.638024,137.1285 49.291037,139.77949 C51.944049,142.43048 55.542811,143.92 59.294737,143.92 Z" id="Shape" stroke="#000000"></path>
            <path d="M59.294737,186.329756 C63.046663,186.329756 66.645425,184.840236 69.298437,182.189246 C71.951449,179.538256 73.442105,175.942237 73.442105,172.193171 C73.442105,168.444104 71.951449,164.848086 69.298437,162.197095 C66.645425,159.546105 63.046663,158.056585 59.294737,158.056585 C55.542811,158.056585 51.944049,159.546105 49.291037,162.197095 C46.638024,164.848086 45.147368,168.444104 45.147368,172.193171 C45.147368,175.942237 46.638024,179.538256 49.291037,182.189246 C51.944049,184.840236 55.542811,186.329756 59.294737,186.329756 Z" id="Shape" stroke="#000000"></path>
            <path d="M59.294737,228.739512 C63.046663,228.739512 66.645425,227.249992 69.298437,224.599002 C71.951449,221.948012 73.442105,218.351993 73.442105,214.602927 C73.442105,210.853861 71.951449,207.257842 69.298437,204.606851 C66.645425,201.955861 63.046663,200.466341 59.294737,200.466341 C55.542811,200.466341 51.944049,201.955861 49.291037,204.606851 C46.638024,207.257842 45.147368,210.853861 45.147368,214.602927 C45.147368,218.351993 46.638024,221.948012 49.291037,224.599002 C51.944049,227.249992 55.542811,228.739512 59.294737,228.739512 Z" id="Shape" stroke="#000000"></path>
            <path d="M229.063158,59.100488 C232.815084,59.100488 236.413846,57.610968 239.066858,54.959978 C241.71987,52.308988 243.210526,48.712969 243.210526,44.963902 C243.210526,41.214836 241.71987,37.618817 239.066858,34.967827 C236.413846,32.316837 232.815084,30.827317 229.063158,30.827317 C225.311232,30.827317 221.71247,32.316837 219.059458,34.967827 C216.406445,37.618817 214.915789,41.214836 214.915789,44.963902 C214.915789,48.712969 216.406445,52.308988 219.059458,54.959978 C221.71247,57.610968 225.311232,59.100488 229.063158,59.100488 Z" id="Shape" stroke="#000000"></path>
            <path d="M229.063158,101.510244 C232.815084,101.510244 236.413846,100.020724 239.066858,97.369734 C241.71987,94.718744 243.210526,91.122725 243.210526,87.373659 C243.210526,83.624592 241.71987,80.028573 239.066858,77.377583 C236.413846,74.726593 232.815084,73.237073 229.063158,73.237073 C225.311232,73.237073 221.71247,74.726593 219.059458,77.377583 C216.406445,80.028573 214.915789,83.624592 214.915789,87.373659 C214.915789,91.122725 216.406445,94.718744 219.059458,97.369734 C221.71247,100.020724 225.311232,101.510244 229.063158,101.510244 Z" id="Shape" stroke="#000000"></path>
            <path d="M229.063158,143.92 C232.815084,143.92 236.413846,142.43048 239.066858,139.77949 C241.71987,137.1285 243.210526,133.532481 243.210526,129.783415 C243.210526,126.034348 241.71987,122.438329 239.066858,119.787339 C236.413846,117.136349 232.815084,115.646829 229.063158,115.646829 C225.311232,115.646829 221.71247,117.136349 219.059458,119.787339 C216.406445,122.438329 214.915789,126.034348 214.915789,129.783415 C214.915789,133.532481 216.406445,137.1285 219.059458,139.77949 C221.71247,142.43048 225.311232,143.92 229.063158,143.92 Z" id="Shape" stroke="#000000"></path>
            <path d="M229.063158,186.329756 C232.815084,186.329756 236.413846,184.840236 239.066858,182.189246 C241.71987,179.538256 243.210526,175.942237 243.210526,172.193171 C243.210526,168.444104 241.71987,164.848086 239.066858,162.197095 C236.413846,159.546105 232.815084,158.056585 229.063158,158.056585 C225.311232,158.056585 221.71247,159.546105 219.059458,162.197095 C216.406445,164.848086 214.915789,168.444104 214.915789,172.193171 C214.915789,175.942237 216.406445,179.538256 219.059458,182.189246 C221.71247,184.840236 225.311232,186.329756 229.063158,186.329756 Z" id="Shape" stroke="#000000"></path>
            <path d="M229.063158,228.739512 C232.815084,228.739512 236.413846,227.249992 239.066858,224.599002 C241.71987,221.948012 243.210526,218.351993 243.210526,214.602927 C243.210526,210.853861 241.71987,207.257842 239.066858,204.606851 C236.413846,201.955861 232.815084,200.466341 229.063158,200.466341 C225.311232,200.466341 221.71247,201.955861 219.059458,204.606851 C216.406445,207.257842 214.915789,210.853861 214.915789,214.602927 C214.915789,218.351993 216.406445,221.948012 219.059458,224.599002 C221.71247,227.249992 225.311232,228.739512 229.063158,228.739512 Z" id="Shape" stroke="#000000"></path>
            <path d="M87.589474,87.373659 C91.3414,87.373659 94.940162,85.884139 97.593174,83.233149 C100.246186,80.582158 101.736842,76.986139 101.736842,73.237073 C101.736842,69.488007 100.246186,65.891988 97.593174,63.240998 C94.940162,60.590008 91.3414,59.100488 87.589474,59.100488 C83.837548,59.100488 80.238786,60.590008 77.585774,63.240998 C74.932761,65.891988 73.442105,69.488007 73.442105,73.237073 C73.442105,76.986139 74.932761,80.582158 77.585774,83.233149 C80.238786,85.884139 83.837548,87.373659 87.589474,87.373659 Z" id="Shape"></path>
            <path d="M87.589474,114.233171 C91.3414,114.233171 94.940162,112.743651 97.593174,110.092661 C100.246186,107.441671 101.736842,103.845652 101.736842,100.096585 C101.736842,96.347519 100.246186,92.7515 97.593174,90.10051 C94.940162,87.44952 91.3414,85.96 87.589474,85.96 C83.837548,85.96 80.238786,87.44952 77.585774,90.10051 C74.932761,92.7515 73.442105,96.347519 73.442105,100.096585 C73.442105,103.845652 74.932761,107.441671 77.585774,110.092661 C80.238786,112.743651 83.837548,114.233171 87.589474,114.233171 Z" id="Shape"></path>
            <path d="M87.589474,138.265366 C91.3414,138.265366 94.940162,136.775846 97.593174,134.124856 C100.246186,131.473866 101.736842,127.877847 101.736842,124.12878 C101.736842,120.379714 100.246186,116.783695 97.593174,114.132705 C94.940162,111.481715 91.3414,109.992195 87.589474,109.992195 C83.837548,109.992195 80.238786,111.481715 77.585774,114.132705 C74.932761,116.783695 73.442105,120.379714 73.442105,124.12878 C73.442105,127.877847 74.932761,131.473866 77.585774,134.124856 C80.238786,136.775846 83.837548,138.265366 87.589474,138.265366 Z" id="Shape"></path>
            <path d="M87.589474,156.58638 C91.3414,156.58638 94.940162,155.096861 97.593174,152.44587 C100.246186,149.79488 101.736842,146.198861 101.736842,142.449795 C101.736842,138.700729 100.246186,135.10471 97.593174,132.45372 C94.940162,129.80273 91.3414,128.31321 87.589474,128.31321 C83.837548,128.31321 80.238786,129.80273 77.585774,132.45372 C74.932761,135.10471 73.442105,138.700729 73.442105,142.449795 C73.442105,146.198861 74.932761,149.79488 77.585774,152.44587 C80.238786,155.096861 83.837548,156.58638 87.589474,156.58638 Z" id="Shape"></path>
            <path d="M87.589474,175.020488 C91.3414,175.020488 94.940162,173.530968 97.593174,170.879978 C100.246186,168.228988 101.736842,164.632969 101.736842,160.883902 C101.736842,157.134836 100.246186,153.538817 97.593174,150.887827 C94.940162,148.236837 91.3414,146.747317 87.589474,146.747317 C83.837548,146.747317 80.238786,148.236837 77.585774,150.887827 C74.932761,153.538817 73.442105,157.134836 73.442105,160.883902 C73.442105,164.632969 74.932761,168.228988 77.585774,170.879978 C80.238786,173.530968 83.837548,175.020488 87.589474,175.020488 Z" id="Shape"></path>
            <path d="M127.202105,200.466341 C130.954031,200.466341 134.552793,198.976822 137.205805,196.325831 C139.858818,193.674841 141.349474,190.078822 141.349474,186.329756 C141.349474,182.58069 139.858818,178.984671 137.205805,176.333681 C134.552793,173.682691 130.954031,172.193171 127.202105,172.193171 C123.450179,172.193171 119.851417,173.682691 117.198405,176.333681 C114.545393,178.984671 113.054737,182.58069 113.054737,186.329756 C113.054737,190.078822 114.545393,193.674841 117.198405,196.325831 C119.851417,198.976822 123.450179,200.466341 127.202105,200.466341 Z" id="Shape"></path>
            <path d="M36.658947,59.100488 C40.410873,59.100488 44.009635,57.610968 46.662648,54.959978 C49.31566,52.308988 50.806316,48.712969 50.806316,44.963902 C50.806316,41.214836 49.31566,37.618817 46.662648,34.967827 C44.009635,32.316837 40.410873,30.827317 36.658947,30.827317 C32.907021,30.827317 29.30826,32.316837 26.655247,34.967827 C24.002235,37.618817 22.511579,41.214836 22.511579,44.963902 C22.511579,48.712969 24.002235,52.308988 26.655247,54.959978 C29.30826,57.610968 32.907021,59.100488 36.658947,59.100488 Z" id="Shape"></path>
            <path d="M36.658947,101.510244 C40.410873,101.510244 44.009635,100.020724 46.662648,97.369734 C49.31566,94.718744 50.806316,91.122725 50.806316,87.373659 C50.806316,83.624592 49.31566,80.028573 46.662648,77.377583 C44.009635,74.726593 40.410873,73.237073 36.658947,73.237073 C32.907021,73.237073 29.30826,74.726593 26.655247,77.377583 C24.002235,80.028573 22.511579,83.624592 22.511579,87.373659 C22.511579,91.122725 24.002235,94.718744 26.655247,97.369734 C29.30826,100.020724 32.907021,101.510244 36.658947,101.510244 Z" id="Shape"></path>
            <path d="M36.658947,143.92 C40.410873,143.92 44.009635,142.43048 46.662648,139.77949 C49.31566,137.1285 50.806316,133.532481 50.806316,129.783415 C50.806316,126.034348 49.31566,122.438329 46.662648,119.787339 C44.009635,117.136349 40.410873,115.646829 36.658947,115.646829 C32.907021,115.646829 29.30826,117.136349 26.655247,119.787339 C24.002235,122.438329 22.511579,126.034348 22.511579,129.783415 C22.511579,133.532481 24.002235,137.1285 26.655247,139.77949 C29.30826,142.43048 32.907021,143.92 36.658947,143.92 Z" id="Shape"></path>
            <path d="M36.658947,186.329756 C40.410873,186.329756 44.009635,184.840236 46.662648,182.189246 C49.31566,179.538256 50.806316,175.942237 50.806316,172.193171 C50.806316,168.444104 49.31566,164.848086 46.662648,162.197095 C44.009635,159.546105 40.410873,158.056585 36.658947,158.056585 C32.907021,158.056585 29.30826,159.546105 26.655247,162.197095 C24.002235,164.848086 22.511579,168.444104 22.511579,172.193171 C22.511579,175.942237 24.002235,179.538256 26.655247,182.189246 C29.30826,184.840236 32.907021,186.329756 36.658947,186.329756 Z" id="Shape"></path>
            <path d="M36.658947,228.739512 C40.410873,228.739512 44.009635,227.249992 46.662648,224.599002 C49.31566,221.948012 50.806316,218.351993 50.806316,214.602927 C50.806316,210.853861 49.31566,207.257842 46.662648,204.606851 C44.009635,201.955861 40.410873,200.466341 36.658947,200.466341 C32.907021,200.466341 29.30826,201.955861 26.655247,204.606851 C24.002235,207.257842 22.511579,210.853861 22.511579,214.602927 C22.511579,218.351993 24.002235,221.948012 26.655247,224.599002 C29.30826,227.249992 32.907021,228.739512 36.658947,228.739512 Z" id="Shape"></path>
            <path d="M251.698947,59.100488 C255.450873,59.100488 259.049635,57.610968 261.702648,54.959978 C264.35566,52.308988 265.846316,48.712969 265.846316,44.963902 C265.846316,41.214836 264.35566,37.618817 261.702648,34.967827 C259.049635,32.316837 255.450873,30.827317 251.698947,30.827317 C247.947021,30.827317 244.34826,32.316837 241.695247,34.967827 C239.042235,37.618817 237.551579,41.214836 237.551579,44.963902 C237.551579,48.712969 239.042235,52.308988 241.695247,54.959978 C244.34826,57.610968 247.947021,59.100488 251.698947,59.100488 Z" id="Shape"></path>
            <path d="M251.698947,101.510244 C255.450873,101.510244 259.049635,100.020724 261.702648,97.369734 C264.35566,94.718744 265.846316,91.122725 265.846316,87.373659 C265.846316,83.624592 264.35566,80.028573 261.702648,77.377583 C259.049635,74.726593 255.450873,73.237073 251.698947,73.237073 C247.947021,73.237073 244.34826,74.726593 241.695247,77.377583 C239.042235,80.028573 237.551579,83.624592 237.551579,87.373659 C237.551579,91.122725 239.042235,94.718744 241.695247,97.369734 C244.34826,100.020724 247.947021,101.510244 251.698947,101.510244 Z" id="Shape"></path>
            <path d="M251.698947,143.92 C255.450873,143.92 259.049635,142.43048 261.702648,139.77949 C264.35566,137.1285 265.846316,133.532481 265.846316,129.783415 C265.846316,126.034348 264.35566,122.438329 261.702648,119.787339 C259.049635,117.136349 255.450873,115.646829 251.698947,115.646829 C247.947021,115.646829 244.34826,117.136349 241.695247,119.787339 C239.042235,122.438329 237.551579,126.034348 237.551579,129.783415 C237.551579,133.532481 239.042235,137.1285 241.695247,139.77949 C244.34826,142.43048 247.947021,143.92 251.698947,143.92 Z" id="Shape"></path>
            <path d="M251.698947,186.329756 C255.450873,186.329756 259.049635,184.840236 261.702648,182.189246 C264.35566,179.538256 265.846316,175.942237 265.846316,172.193171 C265.846316,168.444104 264.35566,164.848086 261.702648,162.197095 C259.049635,159.546105 255.450873,158.056585 251.698947,158.056585 C247.947021,158.056585 244.34826,159.546105 241.695247,162.197095 C239.042235,164.848086 237.551579,168.444104 237.551579,172.193171 C237.551579,175.942237 239.042235,179.538256 241.695247,182.189246 C244.34826,184.840236 247.947021,186.329756 251.698947,186.329756 Z" id="Shape"></path>
            <path d="M251.698947,228.739512 C255.450873,228.739512 259.049635,227.249992 261.702648,224.599002 C264.35566,221.948012 265.846316,218.351993 265.846316,214.602927 C265.846316,210.853861 264.35566,207.257842 261.702648,204.606851 C259.049635,201.955861 255.450873,200.466341 251.698947,200.466341 C247.947021,200.466341 244.34826,201.955861 241.695247,204.606851 C239.042235,207.257842 237.551579,210.853861 237.551579,214.602927 C237.551579,218.351993 239.042235,221.948012 241.695247,224.599002 C244.34826,227.249992 247.947021,228.739512 251.698947,228.739512 Z" id="Shape"></path>
            <path d="M59.294737,257.012683 C63.046663,257.012683 66.645425,255.523163 69.298437,252.872173 C71.951449,250.221183 73.442105,246.625164 73.442105,242.876098 C73.442105,239.127031 71.951449,235.531012 69.298437,232.880022 C66.645425,230.229032 63.046663,228.739512 59.294737,228.739512 C55.542811,228.739512 51.944049,230.229032 49.291037,232.880022 C46.638024,235.531012 45.147368,239.127031 45.147368,242.876098 C45.147368,246.625164 46.638024,250.221183 49.291037,252.872173 C51.944049,255.523163 55.542811,257.012683 59.294737,257.012683 Z" id="Shape"></path>
            <polygon id="DejaVuSans-3a3" fill="#000000" fill-rule="nonzero" transform="translate(116.054523, 128.897477) scale(-1, 1) rotate(-180.000000) translate(-116.054523, -128.897477) " points="114.838898 126.081852 118.402961 126.081852 118.402961 125.252165 113.706086 125.252165 113.706086 126.081852 116.045148 129.128727 113.706086 131.71154 113.706086 132.54279 118.315461 132.54279 118.315461 131.71154 114.838898 131.71154 117.177961 129.14904"></polygon>
            <path d="M168.403371,132.541227 L168.262746,131.79279 L167.403371,131.79279 C167.07733,131.79279 166.840351,131.728727 166.692434,131.600603 C166.544517,131.472477 166.434621,131.237061 166.362746,130.894352 L166.265872,130.41154 L167.745559,130.41154 L167.612746,129.713102 L166.133059,129.713102 L165.206496,124.94279 L164.301809,124.94279 L165.234622,129.713102 L164.375247,129.713102 L164.503371,130.41154 L165.362746,130.41154 L165.434621,130.79279 C165.55858,131.437582 165.775767,131.890186 166.086184,132.150602 C166.397642,132.411019 166.887226,132.541227 167.554934,132.541227 L168.403371,132.541227 Z" id="DejaVuSans-Oblique-66" fill="#000000" fill-rule="nonzero" transform="translate(166.352590, 128.742009) scale(-1, 1) rotate(-180.000000) translate(-166.352590, -128.742009) "></path>
            <path d="M170.244192,133.859977 C169.808775,133.112061 169.484817,132.371436 169.272317,131.638103 C169.060858,130.905811 168.955129,130.163623 168.955129,129.41154 C168.955129,128.660498 169.0619,127.916228 169.275442,127.178727 C169.488983,126.441227 169.8119,125.699561 170.244192,124.953727 L169.462942,124.953727 C168.975442,125.719352 168.610338,126.471436 168.367629,127.209977 C168.124921,127.948519 168.003567,128.682373 168.003567,129.41154 C168.003567,130.137582 168.123879,130.868311 168.364504,131.603727 C168.606171,132.340186 168.972317,133.092269 169.462942,133.859977 L170.244192,133.859977 Z" id="DejaVuSans-28" fill="#000000" fill-rule="nonzero" transform="translate(169.123879, 129.406853) scale(-1, 1) rotate(-180.000000) translate(-169.123879, -129.406853) "></path>
            <polygon id="DejaVuSans-3a3" fill="#000000" fill-rule="nonzero" transform="translate(174.375247, 128.895915) scale(-1, 1) rotate(-180.000000) translate(-174.375247, -128.895915) " points="173.159622 126.08029 176.723684 126.08029 176.723684 125.250602 172.026809 125.250602 172.026809 126.08029 174.365872 129.127165 172.026809 131.709978 172.026809 132.541227 176.636184 132.541227 176.636184 131.709978 173.159622 131.709978 175.498684 129.147478"></polygon>
            <path d="M178.165481,133.859977 L178.946731,133.859977 C179.434231,133.092269 179.799335,132.340186 180.042043,131.603727 C180.284752,130.868311 180.406106,130.137582 180.406106,129.41154 C180.406106,128.682373 180.284752,127.948519 180.042043,127.209977 C179.799335,126.471436 179.434231,125.719352 178.946731,124.953727 L178.165481,124.953727 C178.597773,125.699561 178.920689,126.441227 179.134231,127.178727 C179.347773,127.916228 179.454543,128.660498 179.454543,129.41154 C179.454543,130.163623 179.347773,130.905811 179.134231,131.638103 C178.920689,132.371436 178.597773,133.112061 178.165481,133.859977 Z" id="DejaVuSans-29" fill="#000000" fill-rule="nonzero" transform="translate(179.285793, 129.406853) scale(-1, 1) rotate(-180.000000) translate(-179.285793, -129.406853) "></path>
            <path d="M117.635773,213.245114 C117.635773,213.71699 117.52744,214.08626 117.310773,214.352927 C117.094107,214.619594 116.795669,214.752927 116.415461,214.752927 C116.138378,214.752927 115.878482,214.685219 115.635773,214.549802 C115.393065,214.415427 115.182128,214.219594 115.002961,213.962302 C114.814419,213.69251 114.665461,213.378969 114.556086,213.021677 C114.447753,212.665427 114.393586,212.310219 114.393586,211.956052 C114.393586,211.506052 114.499836,211.153448 114.712336,210.89824 C114.925878,210.643031 115.220148,210.515427 115.595148,210.515427 C115.87744,210.515427 116.138898,210.581052 116.379523,210.712302 C116.62119,210.844594 116.833169,211.039385 117.015461,211.296677 C117.200878,211.563344 117.350357,211.87376 117.463898,212.227927 C117.578482,212.583135 117.635773,212.922198 117.635773,213.245114 Z M114.842023,214.543552 C115.063898,214.84251 115.341503,215.077406 115.674836,215.24824 C116.008169,215.419073 116.357128,215.50449 116.721711,215.50449 C117.282128,215.50449 117.72744,215.315427 118.057648,214.937302 C118.387857,214.560219 118.552961,214.049802 118.552961,213.406052 C118.552961,212.877927 118.456086,212.366469 118.262336,211.871677 C118.068586,211.376885 117.793065,210.937823 117.435773,210.55449 C117.201398,210.300323 116.931086,210.104489 116.624836,209.96699 C116.318586,209.830531 115.997753,209.762302 115.662336,209.762302 C115.308169,209.762302 115.000878,209.843552 114.740461,210.006052 C114.480044,210.169594 114.268065,210.412302 114.104523,210.734177 L113.943586,209.90449 L113.045148,209.90449 L114.524836,217.502927 L115.423273,217.502927 L114.842023,214.543552 Z" id="DejaVuSans-Oblique-62" fill="#000000" fill-rule="nonzero" transform="translate(115.799055, 213.632615) scale(-1, 1) rotate(-180.000000) translate(-115.799055, -213.632615) "></path>
            <polygon id="DejaVuSans-Oblique-78" fill="#000000" fill-rule="nonzero" transform="translate(56.815831, 44.957652) scale(-1, 1) rotate(-180.000000) translate(-56.815831, -44.957652) " points="59.9462995 47.692027 57.435362 45.010777 58.9744245 42.223277 57.9431745 42.223277 56.7869245 44.392027 54.7744245 42.223277 53.685362 42.223277 56.375987 45.104527 54.9462995 47.692027 55.975987 47.692027 57.025987 45.713902 58.857237 47.692027"></polygon>
            <path d="M62.0873933,48.8853082 C61.7322891,48.8853082 61.4650496,48.7103082 61.2856746,48.3603082 C61.1070287,48.0110374 61.0177058,47.4853082 61.0177058,46.7831207 C61.0177058,46.0838499 61.1070287,45.5592145 61.2856746,45.2092145 C61.4650496,44.8592145 61.7322891,44.6842145 62.0873933,44.6842145 C62.4454141,44.6842145 62.7137475,44.8592145 62.8923933,45.2092145 C63.0717683,45.5592145 63.1614558,46.0838499 63.1614558,46.7831207 C63.1614558,47.4853082 63.0717683,48.0110374 62.8923933,48.3603082 C62.7137475,48.7103082 62.4454141,48.8853082 62.0873933,48.8853082 Z M62.0873933,49.4321832 C62.6597891,49.4321832 63.0969245,49.205777 63.3987995,48.7529645 C63.7006746,48.3008812 63.851612,47.6442666 63.851612,46.7831207 C63.851612,45.9241624 63.7006746,45.268277 63.3987995,44.8154645 C63.0969245,44.3633812 62.6597891,44.1373395 62.0873933,44.1373395 C61.5157266,44.1373395 61.0789558,44.3633812 60.7770808,44.8154645 C60.4752058,45.268277 60.3242683,45.9241624 60.3242683,46.7831207 C60.3242683,47.6442666 60.4752058,48.3008812 60.7770808,48.7529645 C61.0789558,49.205777 61.5157266,49.4321832 62.0873933,49.4321832 Z" id="DejaVuSans-30" fill="#000000" fill-rule="nonzero" transform="translate(62.087940, 46.784761) scale(-1, 1) rotate(-180.000000) translate(-62.087940, -46.784761) "></path>
            <polygon id="DejaVuSans-Oblique-78" fill="#000000" fill-rule="nonzero" transform="translate(56.815831, 87.367409) scale(-1, 1) rotate(-180.000000) translate(-56.815831, -87.367409) " points="59.9462995 90.101784 57.435362 87.420534 58.9744245 84.633034 57.9431745 84.633034 56.7869245 86.801784 54.7744245 84.633034 53.685362 84.633034 56.375987 87.514284 54.9462995 90.101784 55.975987 90.101784 57.025987 88.123659 58.857237 90.101784"></polygon>
            <polygon id="DejaVuSans-31" fill="#000000" fill-rule="nonzero" transform="translate(62.150831, 89.190690) scale(-1, 1) rotate(-180.000000) translate(-62.150831, -89.190690) " points="60.7311433 87.2197527 61.8587996 87.2197527 61.8587996 91.1135027 60.6316121 90.867409 60.6316121 91.4963152 61.852237 91.742409 62.5423933 91.742409 62.5423933 87.2197527 63.6700496 87.2197527 63.6700496 86.6389715 60.7311433 86.6389715"></polygon>
            <polygon id="DejaVuSans-Oblique-78" fill="#000000" fill-rule="nonzero" transform="translate(56.815831, 129.777165) scale(-1, 1) rotate(-180.000000) translate(-56.815831, -129.777165) " points="59.9462995 132.51154 57.435362 129.83029 58.9744245 127.04279 57.9431745 127.04279 56.7869245 129.21154 54.7744245 127.04279 53.685362 127.04279 56.375987 129.92404 54.9462995 132.51154 55.975987 132.51154 57.025987 130.533415 58.857237 132.51154"></polygon>
            <path d="M61.2058308,129.537634 L63.6153621,129.537634 L63.6153621,128.956852 L60.3756745,128.956852 L60.3756745,129.537634 C60.6374454,129.808884 60.9943725,130.172738 61.4464558,130.629196 C61.8992683,131.086384 62.1836433,131.381332 62.2995808,131.51404 C62.5205183,131.761957 62.674737,131.971957 62.762237,132.14404 C62.8504662,132.316123 62.8945808,132.48529 62.8945808,132.65154 C62.8945808,132.92279 62.7994245,133.143727 62.6091121,133.314352 C62.4187996,133.485707 62.1708829,133.571384 61.8653621,133.571384 C61.6487995,133.571384 61.4202058,133.533832 61.1795808,133.458727 C60.939685,133.383623 60.6830183,133.269509 60.4095808,133.116384 L60.4095808,133.814196 C60.6873933,133.925759 60.9469766,134.009977 61.1883308,134.066852 C61.4304141,134.123727 61.6517162,134.152165 61.852237,134.152165 C62.3808829,134.152165 62.8023412,134.019821 63.1166121,133.755134 C63.4308829,133.491175 63.5880183,133.138259 63.5880183,132.696384 C63.5880183,132.486384 63.5486433,132.287321 63.4698933,132.099196 C63.3918725,131.9118 63.2489558,131.690498 63.0411433,131.43529 C62.9842683,131.368936 62.8030704,131.177894 62.4975496,130.862165 C62.1927579,130.546436 61.762185,130.104925 61.2058308,129.537634 Z" id="DejaVuSans-32" fill="#000000" fill-rule="nonzero" transform="translate(61.995518, 131.554509) scale(-1, 1) rotate(-180.000000) translate(-61.995518, -131.554509) "></path>
            <polygon id="DejaVuSans-Oblique-78" fill="#000000" fill-rule="nonzero" transform="translate(56.815831, 172.186921) scale(-1, 1) rotate(-180.000000) translate(-56.815831, -172.186921) " points="59.9462995 174.921296 57.435362 172.240046 58.9744245 169.452546 57.9431745 169.452546 56.7869245 171.621296 54.7744245 169.452546 53.685362 169.452546 56.375987 172.333796 54.9462995 174.921296 55.975987 174.921296 57.025987 172.943171 58.857237 174.921296"></polygon>
            <path d="M62.7031745,174.218015 C63.033487,174.147286 63.2912475,173.999994 63.4764558,173.77614 C63.6623933,173.553015 63.755362,173.27739 63.755362,172.949265 C63.755362,172.44614 63.582185,172.0564 63.2358308,171.780046 C62.8894766,171.504421 62.3972891,171.366609 61.7592683,171.366609 C61.5456225,171.366609 61.3254141,171.387754 61.0986433,171.430046 C60.8718725,171.472338 60.63781,171.535775 60.3964558,171.620359 L60.3964558,172.286452 C60.5874975,172.17489 60.7967683,172.090671 61.0242683,172.033796 C61.2524975,171.976921 61.490935,171.948484 61.7395808,171.948484 C62.1719766,171.948484 62.50156,172.033796 62.7283308,172.204421 C62.9551016,172.375046 63.068487,172.623327 63.068487,172.949265 C63.068487,173.250411 62.9631225,173.485567 62.7523933,173.654734 C62.5416641,173.824629 62.2485391,173.909577 61.8730183,173.909577 L61.2780183,173.909577 L61.2780183,174.477234 L61.900362,174.477234 C62.2394245,174.477234 62.4990079,174.545046 62.6791121,174.680671 C62.8592162,174.816296 62.9492683,175.011713 62.9492683,175.266921 C62.9492683,175.528692 62.8562995,175.729577 62.670362,175.869577 C62.4851537,176.010306 62.2193725,176.080671 61.8730183,176.080671 C61.683435,176.080671 61.480362,176.05989 61.2637995,176.018327 C61.047237,175.977494 60.8091641,175.914056 60.5495808,175.828015 L60.5495808,176.442702 C60.8120808,176.515619 61.05781,176.570306 61.2867683,176.606765 C61.5157266,176.643223 61.73156,176.661452 61.9342683,176.661452 C62.4585391,176.661452 62.8730704,176.542234 63.177862,176.303796 C63.4833829,176.066088 63.6361433,175.744525 63.6361433,175.339109 C63.6361433,175.056192 63.5552058,174.81739 63.3933308,174.622702 C63.2314558,174.428015 63.0014037,174.293119 62.7031745,174.218015 Z" id="DejaVuSans-33" fill="#000000" fill-rule="nonzero" transform="translate(62.075909, 174.014030) scale(-1, 1) rotate(-180.000000) translate(-62.075909, -174.014030) "></path>
            <polygon id="DejaVuSans-Oblique-78" fill="#000000" fill-rule="nonzero" transform="translate(56.815831, 214.596677) scale(-1, 1) rotate(-180.000000) translate(-56.815831, -214.596677) " points="59.9462995 217.331052 57.435362 214.649802 58.9744245 211.862302 57.9431745 211.862302 56.7869245 214.031052 54.7744245 211.862302 53.685362 211.862302 56.375987 214.743552 54.9462995 217.331052 55.975987 217.331052 57.025987 215.352927 58.857237 217.331052"></polygon>
            <path d="M62.5084871,218.370115 L60.7650496,215.645583 L62.5084871,215.645583 L62.5084871,218.370115 Z M62.3269246,218.971677 L63.1953621,218.971677 L63.1953621,215.645583 L63.9237996,215.645583 L63.9237996,215.071365 L63.1953621,215.071365 L63.1953621,213.86824 L62.5084871,213.86824 L62.5084871,215.071365 L60.2050496,215.071365 L60.2050496,215.737458 L62.3269246,218.971677 Z" id="DejaVuSans-34" fill="#000000" fill-rule="nonzero" transform="translate(62.064425, 216.419958) scale(-1, 1) rotate(-180.000000) translate(-62.064425, -216.419958) "></path>
            <path d="M226.194408,43.77484 C225.777741,43.07484 225.438158,42.6378608 225.175658,42.4639025 C224.913158,42.2899442 224.578783,42.202965 224.172533,42.202965 L223.46472,42.202965 L223.61472,42.9545275 L224.13347,42.9545275 C224.38347,42.9545275 224.596491,43.0227567 224.772533,43.159215 C224.948575,43.2956733 225.14545,43.5628608 225.363158,43.9607775 L225.641283,44.4826525 L224.430345,49.7514025 L225.38347,49.7514025 L226.291283,45.56234 L228.800658,49.7514025 L229.742845,49.7514025 L226.194408,43.77484 Z" id="DejaVuSans-Oblique-79" fill="#000000" fill-rule="nonzero" transform="translate(226.603783, 45.977184) scale(-1, 1) rotate(-180.000000) translate(-226.603783, -45.977184) "></path>
            <path d="M231.855814,48.8649962 C231.50071,48.8649962 231.233471,48.6899963 231.054096,48.3399962 C230.87545,47.9907254 230.786127,47.4649962 230.786127,46.7628087 C230.786127,46.0635379 230.87545,45.5389025 231.054096,45.1889025 C231.233471,44.8389025 231.50071,44.6639025 231.855814,44.6639025 C232.213835,44.6639025 232.482168,44.8389025 232.660814,45.1889025 C232.840189,45.5389025 232.929877,46.0635379 232.929877,46.7628087 C232.929877,47.4649962 232.840189,47.9907254 232.660814,48.3399962 C232.482168,48.6899963 232.213835,48.8649962 231.855814,48.8649962 Z M231.855814,49.4118712 C232.42821,49.4118712 232.865346,49.185465 233.167221,48.7326525 C233.469096,48.2805692 233.620033,47.6239546 233.620033,46.7628087 C233.620033,45.9038504 233.469096,45.247965 233.167221,44.7951525 C232.865346,44.3430692 232.42821,44.1170275 231.855814,44.1170275 C231.284148,44.1170275 230.847377,44.3430692 230.545502,44.7951525 C230.243627,45.247965 230.092689,45.9038504 230.092689,46.7628087 C230.092689,47.6239546 230.243627,48.2805692 230.545502,48.7326525 C230.847377,49.185465 231.284148,49.4118712 231.855814,49.4118712 Z" id="DejaVuSans-30" fill="#000000" fill-rule="nonzero" transform="translate(231.856361, 46.764449) scale(-1, 1) rotate(-180.000000) translate(-231.856361, -46.764449) "></path>
            <path d="M226.194408,86.184596 C225.777741,85.484596 225.438158,85.0476168 225.175658,84.8736585 C224.913158,84.6997002 224.578783,84.612721 224.172533,84.612721 L223.46472,84.612721 L223.61472,85.3642835 L224.13347,85.3642835 C224.38347,85.3642835 224.596491,85.4325127 224.772533,85.568971 C224.948575,85.7054293 225.14545,85.9726168 225.363158,86.3705335 L225.641283,86.8924085 L224.430345,92.1611585 L225.38347,92.1611585 L226.291283,87.972096 L228.800658,92.1611585 L229.742845,92.1611585 L226.194408,86.184596 Z" id="DejaVuSans-Oblique-79" fill="#000000" fill-rule="nonzero" transform="translate(226.603783, 88.386940) scale(-1, 1) rotate(-180.000000) translate(-226.603783, -88.386940) "></path>
            <polygon id="DejaVuSans-31" fill="#000000" fill-rule="nonzero" transform="translate(231.919252, 89.170377) scale(-1, 1) rotate(-180.000000) translate(-231.919252, -89.170377) " points="230.499564 87.1994398 231.627221 87.1994398 231.627221 91.0931898 230.400033 90.847096 230.400033 91.4760023 231.620658 91.722096 232.310814 91.722096 232.310814 87.1994398 233.438471 87.1994398 233.438471 86.6186585 230.499564 86.6186585"></polygon>
            <path d="M226.194408,128.594352 C225.777741,127.894352 225.438158,127.457373 225.175658,127.283414 C224.913158,127.109456 224.578783,127.022477 224.172533,127.022477 L223.46472,127.022477 L223.61472,127.77404 L224.13347,127.77404 C224.38347,127.77404 224.596491,127.842269 224.772533,127.978727 C224.948575,128.115185 225.14545,128.382373 225.363158,128.780289 L225.641283,129.302165 L224.430345,134.570914 L225.38347,134.570914 L226.291283,130.381852 L228.800658,134.570914 L229.742845,134.570914 L226.194408,128.594352 Z" id="DejaVuSans-Oblique-79" fill="#000000" fill-rule="nonzero" transform="translate(226.603783, 130.796696) scale(-1, 1) rotate(-180.000000) translate(-226.603783, -130.796696) "></path>
            <path d="M230.974252,129.517321 L233.383783,129.517321 L233.383783,128.936539 L230.144096,128.936539 L230.144096,129.517321 C230.405866,129.788571 230.762793,130.152425 231.214877,130.608883 C231.667689,131.066071 231.952064,131.361019 232.068002,131.493727 C232.288939,131.741644 232.443158,131.951644 232.530658,132.123727 C232.618887,132.29581 232.663002,132.464977 232.663002,132.631227 C232.663002,132.902477 232.567846,133.123414 232.377533,133.294039 C232.187221,133.465394 231.939304,133.551071 231.633783,133.551071 C231.417221,133.551071 231.188627,133.513519 230.948002,133.438414 C230.708106,133.36331 230.451439,133.249196 230.178002,133.096071 L230.178002,133.793883 C230.455814,133.905446 230.715398,133.989664 230.956752,134.046539 C231.198835,134.103414 231.420137,134.131852 231.620658,134.131852 C232.149304,134.131852 232.570762,133.999508 232.885033,133.734821 C233.199304,133.470862 233.356439,133.117946 233.356439,132.676071 C233.356439,132.466071 233.317064,132.267008 233.238314,132.078883 C233.160293,131.891487 233.017377,131.670185 232.809564,131.414977 C232.752689,131.348623 232.571491,131.157581 232.265971,130.841852 C231.961179,130.526123 231.530606,130.084612 230.974252,129.517321 Z" id="DejaVuSans-32" fill="#000000" fill-rule="nonzero" transform="translate(231.763939, 131.534196) scale(-1, 1) rotate(-180.000000) translate(-231.763939, -131.534196) "></path>
            <path d="M226.194408,171.004108 C225.777741,170.304108 225.438158,169.867129 225.175658,169.693171 C224.913158,169.519212 224.578783,169.432233 224.172533,169.432233 L223.46472,169.432233 L223.614721,170.183796 L224.13347,170.183796 C224.38347,170.183796 224.596491,170.252025 224.772533,170.388483 C224.948575,170.524941 225.14545,170.792129 225.363158,171.190045 L225.641283,171.71192 L224.430345,176.980671 L225.38347,176.980671 L226.291283,172.791608 L228.800658,176.980671 L229.742845,176.980671 L226.194408,171.004108 Z" id="DejaVuSans-Oblique-79" fill="#000000" fill-rule="nonzero" transform="translate(226.603783, 173.206452) scale(-1, 1) rotate(-180.000000) translate(-226.603783, -173.206452) "></path>
            <path d="M232.471596,174.197702 C232.801908,174.126973 233.059668,173.979681 233.244877,173.755827 C233.430814,173.532702 233.523783,173.257077 233.523783,172.928952 C233.523783,172.425827 233.350606,172.036087 233.004252,171.759733 C232.657898,171.484108 232.16571,171.346295 231.527689,171.346295 C231.314043,171.346295 231.093835,171.367441 230.867064,171.409733 C230.640293,171.452025 230.406231,171.515462 230.164877,171.600045 L230.164877,172.266139 C230.355918,172.154577 230.565189,172.070358 230.792689,172.013483 C231.020918,171.956608 231.259356,171.92817 231.508002,171.92817 C231.940398,171.92817 232.269981,172.013483 232.496752,172.184108 C232.723523,172.354733 232.836908,172.603014 232.836908,172.928952 C232.836908,173.230098 232.731543,173.465254 232.520814,173.634421 C232.310085,173.804316 232.01696,173.889264 231.641439,173.889264 L231.046439,173.889264 L231.046439,174.45692 L231.668783,174.45692 C232.007846,174.45692 232.267429,174.524733 232.447533,174.660358 C232.627637,174.795983 232.717689,174.9914 232.717689,175.246608 C232.717689,175.508379 232.624721,175.709264 232.438783,175.849264 C232.253575,175.989993 231.987793,176.060358 231.641439,176.060358 C231.451856,176.060358 231.248783,176.039577 231.032221,175.998014 C230.815658,175.957181 230.577585,175.893743 230.318002,175.807702 L230.318002,176.422389 C230.580502,176.495306 230.826231,176.549993 231.055189,176.586452 C231.284148,176.62291 231.499981,176.641139 231.702689,176.641139 C232.22696,176.641139 232.641491,176.52192 232.946283,176.283483 C233.251804,176.045775 233.404564,175.724212 233.404564,175.318795 C233.404564,175.035879 233.323627,174.797077 233.161752,174.602389 C232.999877,174.407702 232.769825,174.272806 232.471596,174.197702 Z" id="DejaVuSans-33" fill="#000000" fill-rule="nonzero" transform="translate(231.844330, 173.993717) scale(-1, 1) rotate(-180.000000) translate(-231.844330, -173.993717) "></path>
            <path d="M226.194408,213.413864 C225.777741,212.713864 225.438158,212.276885 225.175658,212.102927 C224.913158,211.928968 224.578783,211.841989 224.172533,211.841989 L223.46472,211.841989 L223.614721,212.593552 L224.13347,212.593552 C224.38347,212.593552 224.596491,212.661781 224.772533,212.798239 C224.948575,212.934697 225.14545,213.201885 225.363158,213.599802 L225.641283,214.121677 L224.430345,219.390427 L225.38347,219.390427 L226.291283,215.201364 L228.800658,219.390427 L229.742845,219.390427 L226.194408,213.413864 Z" id="DejaVuSans-Oblique-79" fill="#000000" fill-rule="nonzero" transform="translate(226.603783, 215.616208) scale(-1, 1) rotate(-180.000000) translate(-226.603783, -215.616208) "></path>
            <path d="M232.276908,218.349802 L230.533471,215.62527 L232.276908,215.62527 L232.276908,218.349802 Z M232.095346,218.951364 L232.963783,218.951364 L232.963783,215.62527 L233.692221,215.62527 L233.692221,215.051052 L232.963783,215.051052 L232.963783,213.847927 L232.276908,213.847927 L232.276908,215.051052 L229.973471,215.051052 L229.973471,215.717145 L232.095346,218.951364 Z" id="DejaVuSans-34" fill="#000000" fill-rule="nonzero" transform="translate(231.832846, 216.399645) scale(-1, 1) rotate(-180.000000) translate(-231.832846, -216.399645) "></path>
            <polygon id="DejaVuSans-Oblique-77" fill="#000000" fill-rule="nonzero" transform="translate(85.939744, 73.231867) scale(-1, 1) rotate(-180.000000) translate(-85.939744, -73.231867) " points="82.883024 75.5096018 83.6236131 75.5096018 83.8136412 71.8444018 85.5147834 75.5096018 86.3803224 75.5096018 86.6328256 71.8444018 88.2480646 75.5096018 88.9964631 75.5096018 86.9139631 70.954133 86.0393131 70.954133 85.8154443 74.7286642 84.0739537 70.954133 83.1914943 70.954133"></polygon>
            <path d="M90.8410049,76.503605 C90.5452031,76.503605 90.3225925,76.35783 90.1731731,76.06628 C90.0243612,75.7753374 89.9499552,75.337405 89.9499552,74.7524828 C89.9499552,74.1699902 90.0243612,73.7329689 90.1731731,73.4414189 C90.3225925,73.1498689 90.5452031,73.0040939 90.8410049,73.0040939 C91.1392362,73.0040939 91.3627579,73.1498689 91.5115699,73.4414189 C91.6609892,73.7329689 91.7356989,74.1699902 91.7356989,74.7524828 C91.7356989,75.337405 91.6609892,75.7753374 91.5115699,76.06628 C91.3627579,76.35783 91.1392362,76.503605 90.8410049,76.503605 Z M90.8410049,76.9591519 C91.3178106,76.9591519 91.6819444,76.7705555 91.9334063,76.3933627 C92.1848681,76.0167773 92.3105991,75.4698173 92.3105991,74.7524828 C92.3105991,74.0369706 92.1848681,73.490618 91.9334063,73.1134252 C91.6819444,72.7368398 91.3178106,72.5485471 90.8410049,72.5485471 C90.3648065,72.5485471 90.0009764,72.7368398 89.7495146,73.1134252 C89.4980527,73.490618 89.3723217,74.0369706 89.3723217,74.7524828 C89.3723217,75.4698173 89.4980527,76.0167773 89.7495146,76.3933627 C90.0009764,76.7705555 90.3648065,76.9591519 90.8410049,76.9591519 Z" id="DejaVuSans-30" fill="#000000" fill-rule="nonzero" transform="translate(90.841460, 74.753849) scale(-1, 1) rotate(-180.000000) translate(-90.841460, -74.753849) "></path>
            <polygon id="DejaVuSans-Oblique-77" fill="#000000" fill-rule="nonzero" transform="translate(85.939744, 100.091379) scale(-1, 1) rotate(-180.000000) translate(-85.939744, -100.091379) " points="82.883024 102.369114 83.6236131 102.369114 83.8136412 98.7039138 85.5147834 102.369114 86.3803224 102.369114 86.6328256 98.7039138 88.2480646 102.369114 88.9964631 102.369114 86.9139631 97.813645 86.0393131 97.813645 85.8154443 101.588176 84.0739537 97.813645 83.1914943 97.813645"></polygon>
            <polygon id="DejaVuSans-31" fill="#000000" fill-rule="nonzero" transform="translate(90.893848, 101.610173) scale(-1, 1) rotate(-180.000000) translate(-90.893848, -101.610173) " points="89.7112486 99.9683817 90.6505863 99.9683817 90.6505863 103.211875 89.6283391 103.006879 89.6283391 103.530758 90.6451197 103.735754 91.2200199 103.735754 91.2200199 99.9683817 92.1593575 99.9683817 92.1593575 99.4845909 89.7112486 99.4845909"></polygon>
            <polygon id="DejaVuSans-Oblique-77" fill="#000000" fill-rule="nonzero" transform="translate(85.939744, 124.123574) scale(-1, 1) rotate(-180.000000) translate(-85.939744, -124.123574) " points="82.883024 126.401309 83.6236131 126.401309 83.8136412 122.736109 85.5147834 126.401309 86.3803224 126.401309 86.6328256 122.736109 88.2480646 126.401309 88.9964631 126.401309 86.9139631 121.84584 86.0393131 121.84584 85.8154443 125.620371 84.0739537 121.84584 83.1914943 121.84584"></polygon>
            <path d="M90.1066633,123.924045 L92.1138028,123.924045 L92.1138028,123.440254 L89.4151431,123.440254 L89.4151431,123.924045 C89.6331983,124.149996 89.9305185,124.453087 90.3071039,124.833316 C90.6842967,125.214154 90.9211811,125.459845 91.0177571,125.570391 C91.201798,125.776906 91.3302622,125.951836 91.4031497,126.095181 C91.4766446,126.238527 91.5133921,126.379442 91.5133921,126.517929 C91.5133921,126.74388 91.4341269,126.927921 91.2755966,127.070052 C91.1170663,127.21279 90.9105517,127.284159 90.6560528,127.284159 C90.4756563,127.284159 90.2852377,127.252878 90.0847971,127.190316 C89.8849638,127.127754 89.6711605,127.032697 89.4433871,126.905144 L89.4433871,127.486421 C89.6748049,127.579353 89.8910378,127.649507 90.0920858,127.696884 C90.2937412,127.744261 90.4780859,127.767949 90.6451197,127.767949 C91.0854817,127.767949 91.4365565,127.657707 91.6983441,127.437222 C91.9601317,127.217345 92.0910255,126.923365 92.0910255,126.555284 C92.0910255,126.380354 92.0582261,126.214535 91.9926274,126.057826 C91.927636,125.901726 91.8085864,125.717381 91.6354786,125.504793 C91.5881017,125.449519 91.4371639,125.290382 91.182665,125.027379 C90.9287736,124.764377 90.5701063,124.396599 90.1066633,123.924045 Z" id="DejaVuSans-32" fill="#000000" fill-rule="nonzero" transform="translate(90.764473, 125.604102) scale(-1, 1) rotate(-180.000000) translate(-90.764473, -125.604102) "></path>
            <polygon id="DejaVuSans-Oblique-77" fill="#000000" fill-rule="nonzero" transform="translate(85.939744, 142.444588) scale(-1, 1) rotate(-180.000000) translate(-85.939744, -142.444588) " points="82.883024 144.722323 83.6236131 144.722323 83.8136412 141.057123 85.5147834 144.722323 86.3803224 144.722323 86.6328256 141.057123 88.2480646 144.722323 88.9964631 144.722323 86.9139631 140.166854 86.0393131 140.166854 85.8154443 143.941385 84.0739537 140.166854 83.1914943 140.166854"></polygon>
            <path d="M91.3539506,144.136489 C91.629101,144.077572 91.8438154,143.954878 91.9980939,143.768408 C92.1529799,143.582544 92.2304228,143.352949 92.2304228,143.079621 C92.2304228,142.660518 92.0861663,142.335865 91.7976533,142.105661 C91.5091403,141.876066 91.0991481,141.761268 90.5676767,141.761268 C90.3897098,141.761268 90.2062762,141.778883 90.0173761,141.814111 C89.828476,141.84934 89.633502,141.902184 89.4324539,141.972642 L89.4324539,142.527498 C89.5915916,142.434566 89.7659142,142.364412 89.9554217,142.317035 C90.1455366,142.269658 90.3441551,142.24597 90.5512771,142.24597 C90.9114628,142.24597 91.1860057,142.317035 91.3749058,142.459166 C91.5638059,142.601296 91.658256,142.808115 91.658256,143.079621 C91.658256,143.330475 91.5704873,143.52636 91.3949499,143.667276 C91.2194125,143.808799 90.9752393,143.879561 90.6624305,143.879561 L90.1667955,143.879561 L90.1667955,144.352419 L90.6852078,144.352419 C90.9676469,144.352419 91.1838798,144.408907 91.3339066,144.521882 C91.4839334,144.634858 91.5589467,144.79764 91.5589467,145.010228 C91.5589467,145.228283 91.4815038,145.395621 91.3266178,145.512241 C91.1723393,145.629468 90.9509435,145.688082 90.6624305,145.688082 C90.5045076,145.688082 90.3353478,145.670771 90.1549513,145.63615 C89.9745547,145.602136 89.77624,145.549292 89.5600071,145.477619 L89.5600071,145.989654 C89.7786696,146.050394 89.983362,146.095948 90.1740842,146.126318 C90.3648065,146.156688 90.5445957,146.171873 90.7134517,146.171873 C91.1501693,146.171873 91.4954739,146.072564 91.7493653,145.873945 C92.0038642,145.675934 92.1311136,145.408073 92.1311136,145.070361 C92.1311136,144.834691 92.0636927,144.635769 91.9288508,144.473594 C91.7940089,144.311419 91.6023755,144.199051 91.3539506,144.136489 Z" id="DejaVuSans-33" fill="#000000" fill-rule="nonzero" transform="translate(90.831438, 143.966570) scale(-1, 1) rotate(-180.000000) translate(-90.831438, -143.966570) "></path>
            <polygon id="DejaVuSans-Oblique-77" fill="#000000" fill-rule="nonzero" transform="translate(85.939744, 160.878696) scale(-1, 1) rotate(-180.000000) translate(-85.939744, -160.878696) " points="82.883024 163.156431 83.6236131 163.156431 83.8136412 159.491231 85.5147834 163.156431 86.3803224 163.156431 86.6328256 159.491231 88.2480646 163.156431 88.9964631 163.156431 86.9139631 158.600962 86.0393131 158.600962 85.8154443 162.375493 84.0739537 158.600962 83.1914943 158.600962"></polygon>
            <path d="M91.191776,164.02197 L89.7394925,161.752435 L91.191776,161.752435 L91.191776,164.02197 Z M91.0405344,164.523071 L91.7639428,164.523071 L91.7639428,161.752435 L92.3707313,161.752435 L92.3707313,161.274111 L91.7639428,161.274111 L91.7639428,160.271908 L91.191776,160.271908 L91.191776,161.274111 L89.2730125,161.274111 L89.2730125,161.828967 L91.0405344,164.523071 Z" id="DejaVuSans-34" fill="#000000" fill-rule="nonzero" transform="translate(90.821872, 162.397490) scale(-1, 1) rotate(-180.000000) translate(-90.821872, -162.397490) "></path>
            <polygon id="DejaVuSans-31" fill="#000000" fill-rule="nonzero" transform="translate(127.274993, 185.591770) scale(-1, 1) rotate(-180.000000) translate(-127.274993, -185.591770) " points="125.585565 183.246354 126.927476 183.246354 126.927476 187.879917 125.467122 187.587065 125.467122 188.335463 126.919666 188.628315 127.740952 188.628315 127.740952 183.246354 129.082863 183.246354 129.082863 182.555224 125.585565 182.555224"></polygon>
            <path d="M36.575354,44.726402 C36.2107707,44.726402 35.9362915,44.6644228 35.7519165,44.5404645 C35.5685832,44.4175478 35.4769165,44.2352562 35.4769165,43.9935895 C35.4769165,43.7727562 35.5508748,43.5993187 35.6987915,43.473277 C35.8477498,43.348277 36.0539998,43.285777 36.3175415,43.285777 C36.6456665,43.285777 36.922229,43.4034853 37.147229,43.638902 C37.372229,43.8753603 37.484729,44.1711937 37.484729,44.526402 L37.484729,44.726402 L36.575354,44.726402 Z M39.247229,45.385777 L39.247229,42.2654645 L37.484729,42.2654645 L37.484729,43.076402 C37.250354,42.7441103 36.9862915,42.5019228 36.6925415,42.3498395 C36.3998332,42.1987978 36.0435832,42.123277 35.6237915,42.123277 C35.0571248,42.123277 34.597229,42.2883812 34.244104,42.6185895 C33.890979,42.9498395 33.7144165,43.3790062 33.7144165,43.9060895 C33.7144165,44.5477562 33.934729,45.0180687 34.375354,45.317027 C34.8170207,45.617027 35.509729,45.767027 36.453479,45.767027 L37.484729,45.767027 L37.484729,45.9029645 C37.484729,46.1800478 37.375354,46.382652 37.156604,46.510777 C36.9388957,46.6399437 36.5987915,46.704527 36.1362915,46.704527 C35.7623332,46.704527 35.4138957,46.667027 35.090979,46.592027 C34.769104,46.517027 34.4696248,46.404527 34.1925415,46.254527 L34.1925415,47.5873395 C34.5675415,47.6790062 34.9435832,47.748277 35.3206665,47.795152 C35.6987915,47.842027 36.0763957,47.8654645 36.453479,47.8654645 C37.4399373,47.8654645 38.1519165,47.6711937 38.5894165,47.282652 C39.0279582,46.8941103 39.247229,46.2618187 39.247229,45.385777 Z" id="DejaVuSans-Bold-61" fill="#0000FF" fill-rule="nonzero" transform="translate(36.480823, 44.994371) scale(-1, 1) rotate(-180.000000) translate(-36.480823, -44.994371) "></path>
            <path d="M36.830041,83.804909 C37.2039993,83.804909 37.489416,83.9413673 37.686291,84.214284 C37.8842077,84.4882423 37.983166,84.8856382 37.983166,85.4064715 C37.983166,85.9273048 37.8842077,86.3241798 37.686291,86.5970965 C37.489416,86.8710548 37.2039993,87.008034 36.830041,87.008034 C36.4560827,87.008034 36.1685827,86.870534 35.967541,86.595534 C35.767541,86.320534 35.667541,85.9241798 35.667541,85.4064715 C35.667541,84.8887632 35.767541,84.492409 35.967541,84.217409 C36.1685827,83.942409 36.4560827,83.804909 36.830041,83.804909 Z M35.667541,87.345534 C35.9092077,87.664284 36.1763952,87.8991798 36.4691035,88.0502215 C36.7618118,88.2012632 37.098791,88.276784 37.480041,88.276784 C38.1539993,88.276784 38.7071243,88.0090757 39.139416,87.473659 C39.5727493,86.9382423 39.789416,86.2491798 39.789416,85.4064715 C39.789416,84.5637632 39.5727493,83.8741798 39.139416,83.3377215 C38.7071243,82.8023048 38.1539993,82.5345965 37.480041,82.5345965 C37.098791,82.5345965 36.7618118,82.6101173 36.4691035,82.761159 C36.1763952,82.9132423 35.9092077,83.148659 35.667541,83.467409 L35.667541,82.676784 L33.920666,82.676784 L33.920666,90.2752215 L35.667541,90.2752215 L35.667541,87.345534 Z" id="DejaVuSans-Bold-62" fill="#0000FF" fill-rule="nonzero" transform="translate(36.855041, 86.404909) scale(-1, 1) rotate(-180.000000) translate(-36.855041, -86.404909) "></path>
            <path d="M38.95426,132.383415 L38.95426,130.956852 C38.71676,131.119352 38.4782183,131.239665 38.238635,131.31779 C37.9990517,131.395915 37.7506142,131.434977 37.4933225,131.434977 C37.0058225,131.434977 36.626135,131.29279 36.35426,131.008415 C36.082385,130.72404 35.9464475,130.326123 35.9464475,129.814665 C35.9464475,129.303207 36.082385,128.904769 36.35426,128.619352 C36.626135,128.334977 37.0058225,128.19279 37.4933225,128.19279 C37.7672808,128.19279 38.0271767,128.233415 38.27301,128.314665 C38.5188433,128.396957 38.7459267,128.51779 38.95426,128.677165 L38.95426,127.245915 C38.6803017,127.144873 38.4026975,127.069352 38.1214475,127.019352 C37.8401975,126.968311 37.5579058,126.94279 37.2745725,126.94279 C36.2881142,126.94279 35.5162392,127.195915 34.9589475,127.702165 C34.4026975,128.208415 34.1245725,128.912582 34.1245725,129.814665 C34.1245725,130.716748 34.4026975,131.420394 34.9589475,131.925602 C35.5162392,132.431852 36.2881142,132.684977 37.2745725,132.684977 C37.5610308,132.684977 37.8433225,132.659977 38.1214475,132.609977 C38.3995725,132.559977 38.6771767,132.484457 38.95426,132.383415 Z" id="DejaVuSans-Bold-63" fill="#0000FF" fill-rule="nonzero" transform="translate(36.539416, 129.813884) scale(-1, 1) rotate(-180.000000) translate(-36.539416, -129.813884) "></path>
            <path d="M37.6409785,172.165046 L37.6409785,175.094734 L39.398791,175.094734 L39.398791,167.496296 L37.6409785,167.496296 L37.6409785,168.286921 C37.4003535,167.965046 37.1347285,167.729109 36.8441035,167.579109 C36.5545202,167.429109 36.2196243,167.354109 35.839416,167.354109 C35.1654577,167.354109 34.6118118,167.621817 34.1784785,168.157234 C33.7461868,168.693692 33.530041,169.383275 33.530041,170.225984 C33.530041,171.068692 33.7461868,171.757754 34.1784785,172.293171 C34.6118118,172.828588 35.1654577,173.096296 35.839416,173.096296 C36.2164993,173.096296 36.5508743,173.020775 36.842541,172.869734 C37.1342077,172.718692 37.4003535,172.483796 37.6409785,172.165046 Z M36.4878535,168.624421 C36.8628535,168.624421 37.148791,168.760879 37.345666,169.033796 C37.542541,169.307754 37.6409785,169.70515 37.6409785,170.225984 C37.6409785,170.746817 37.542541,171.143692 37.345666,171.416609 C37.148791,171.690567 36.8628535,171.827546 36.4878535,171.827546 C36.1170202,171.827546 35.833166,171.690567 35.636291,171.416609 C35.439416,171.143692 35.3409785,170.746817 35.3409785,170.225984 C35.3409785,169.70515 35.439416,169.307754 35.636291,169.033796 C35.833166,168.760879 36.1170202,168.624421 36.4878535,168.624421 Z" id="DejaVuSans-Bold-64" fill="#0000FF" fill-rule="nonzero" transform="translate(36.464416, 171.224421) scale(-1, 1) rotate(-180.000000) translate(-36.464416, -171.224421) "></path>
            <path d="M39.5659785,214.652927 L39.5659785,214.156052 L35.480041,214.156052 C35.5217077,213.745635 35.6696243,213.437823 35.923791,213.232615 C36.1779577,213.027406 36.5326452,212.924802 36.9878535,212.924802 C37.3555618,212.924802 37.7321243,212.979489 38.117541,213.088864 C38.5039993,213.198239 38.9008743,213.363344 39.308166,213.584177 L39.308166,212.237302 C38.8946243,212.081052 38.4810827,211.962823 38.067541,211.882615 C37.6539993,211.802406 37.2404577,211.762302 36.826916,211.762302 C35.8373327,211.762302 35.0680618,212.013865 34.5191035,212.516989 C33.9711868,213.020115 33.6972285,213.725844 33.6972285,214.634177 C33.6972285,215.525844 33.9664993,216.226885 34.505041,216.737302 C35.0435827,217.24876 35.7852493,217.50449 36.730041,217.50449 C37.589416,217.50449 38.276916,217.245635 38.792541,216.727927 C39.308166,216.21126 39.5659785,215.519594 39.5659785,214.652927 Z M37.7691035,215.234177 C37.7691035,215.566469 37.6722285,215.834177 37.4784785,216.037302 C37.2847285,216.241469 37.0316035,216.343552 36.7191035,216.343552 C36.3805618,216.343552 36.1055618,216.24824 35.8941035,216.057614 C35.6826452,215.86699 35.5508743,215.59251 35.498791,215.234177 L37.7691035,215.234177 Z" id="DejaVuSans-Bold-65" fill="#0000FF" fill-rule="nonzero" transform="translate(36.631604, 214.633396) scale(-1, 1) rotate(-180.000000) translate(-36.631604, -214.633396) "></path>
            <path d="M251.615354,44.726402 C251.250771,44.726402 250.976291,44.6644228 250.791916,44.5404645 C250.608583,44.4175478 250.516916,44.2352562 250.516916,43.9935895 C250.516916,43.7727562 250.590875,43.5993187 250.738791,43.473277 C250.88775,43.348277 251.094,43.285777 251.357541,43.285777 C251.685666,43.285777 251.962229,43.4034853 252.187229,43.638902 C252.412229,43.8753603 252.524729,44.1711937 252.524729,44.526402 L252.524729,44.726402 L251.615354,44.726402 Z M254.287229,45.385777 L254.287229,42.2654645 L252.524729,42.2654645 L252.524729,43.076402 C252.290354,42.7441103 252.026291,42.5019228 251.732541,42.3498395 C251.439833,42.1987978 251.083583,42.123277 250.663791,42.123277 C250.097125,42.123277 249.637229,42.2883812 249.284104,42.6185895 C248.930979,42.9498395 248.754416,43.3790062 248.754416,43.9060895 C248.754416,44.5477562 248.974729,45.0180687 249.415354,45.317027 C249.857021,45.617027 250.549729,45.767027 251.493479,45.767027 L252.524729,45.767027 L252.524729,45.9029645 C252.524729,46.1800478 252.415354,46.382652 252.196604,46.510777 C251.978896,46.6399437 251.638791,46.704527 251.176291,46.704527 C250.802333,46.704527 250.453896,46.667027 250.130979,46.592027 C249.809104,46.517027 249.509625,46.404527 249.232541,46.254527 L249.232541,47.5873395 C249.607541,47.6790062 249.983583,47.748277 250.360666,47.795152 C250.738791,47.842027 251.116396,47.8654645 251.493479,47.8654645 C252.479937,47.8654645 253.191916,47.6711937 253.629416,47.282652 C254.067958,46.8941103 254.287229,46.2618187 254.287229,45.385777 Z" id="DejaVuSans-Bold-61" fill="#0000FF" fill-rule="nonzero" transform="translate(251.520823, 44.994371) scale(-1, 1) rotate(-180.000000) translate(-251.520823, -44.994371) "></path>
            <path d="M251.870041,83.804909 C252.243999,83.804909 252.529416,83.9413673 252.726291,84.214284 C252.924208,84.4882423 253.023166,84.8856382 253.023166,85.4064715 C253.023166,85.9273048 252.924208,86.3241798 252.726291,86.5970965 C252.529416,86.8710548 252.243999,87.008034 251.870041,87.008034 C251.496083,87.008034 251.208583,86.870534 251.007541,86.595534 C250.807541,86.320534 250.707541,85.9241798 250.707541,85.4064715 C250.707541,84.8887632 250.807541,84.492409 251.007541,84.217409 C251.208583,83.942409 251.496083,83.804909 251.870041,83.804909 Z M250.707541,87.345534 C250.949208,87.664284 251.216395,87.8991798 251.509104,88.0502215 C251.801812,88.2012632 252.138791,88.276784 252.520041,88.276784 C253.193999,88.276784 253.747124,88.0090757 254.179416,87.473659 C254.612749,86.9382423 254.829416,86.2491798 254.829416,85.4064715 C254.829416,84.5637632 254.612749,83.8741798 254.179416,83.3377215 C253.747124,82.8023048 253.193999,82.5345965 252.520041,82.5345965 C252.138791,82.5345965 251.801812,82.6101173 251.509104,82.761159 C251.216395,82.9132423 250.949208,83.148659 250.707541,83.467409 L250.707541,82.676784 L248.960666,82.676784 L248.960666,90.2752215 L250.707541,90.2752215 L250.707541,87.345534 Z" id="DejaVuSans-Bold-62" fill="#0000FF" fill-rule="nonzero" transform="translate(251.895041, 86.404909) scale(-1, 1) rotate(-180.000000) translate(-251.895041, -86.404909) "></path>
            <path d="M253.99426,132.383415 L253.99426,130.956852 C253.75676,131.119352 253.518218,131.239665 253.278635,131.31779 C253.039052,131.395915 252.790614,131.434977 252.533322,131.434977 C252.045822,131.434977 251.666135,131.29279 251.39426,131.008415 C251.122385,130.72404 250.986447,130.326123 250.986447,129.814665 C250.986447,129.303207 251.122385,128.904769 251.39426,128.619352 C251.666135,128.334977 252.045822,128.19279 252.533322,128.19279 C252.807281,128.19279 253.067177,128.233415 253.31301,128.314665 C253.558843,128.396957 253.785927,128.51779 253.99426,128.677165 L253.99426,127.245915 C253.720302,127.144873 253.442697,127.069352 253.161447,127.019352 C252.880197,126.968311 252.597906,126.94279 252.314572,126.94279 C251.328114,126.94279 250.556239,127.195915 249.998947,127.702165 C249.442697,128.208415 249.164572,128.912582 249.164572,129.814665 C249.164572,130.716748 249.442697,131.420394 249.998947,131.925602 C250.556239,132.431852 251.328114,132.684977 252.314572,132.684977 C252.601031,132.684977 252.883322,132.659977 253.161447,132.609977 C253.439572,132.559977 253.717177,132.484457 253.99426,132.383415 Z" id="DejaVuSans-Bold-63" fill="#0000FF" fill-rule="nonzero" transform="translate(251.579416, 129.813884) scale(-1, 1) rotate(-180.000000) translate(-251.579416, -129.813884) "></path>
            <path d="M252.680979,172.165046 L252.680979,175.094734 L254.438791,175.094734 L254.438791,167.496296 L252.680979,167.496296 L252.680979,168.286921 C252.440354,167.965046 252.174729,167.729109 251.884104,167.579109 C251.59452,167.429109 251.259624,167.354109 250.879416,167.354109 C250.205458,167.354109 249.651812,167.621817 249.218479,168.157234 C248.786187,168.693692 248.570041,169.383275 248.570041,170.225984 C248.570041,171.068692 248.786187,171.757754 249.218479,172.293171 C249.651812,172.828588 250.205458,173.096296 250.879416,173.096296 C251.256499,173.096296 251.590874,173.020775 251.882541,172.869734 C252.174208,172.718692 252.440354,172.483796 252.680979,172.165046 Z M251.527853,168.624421 C251.902853,168.624421 252.188791,168.760879 252.385666,169.033796 C252.582541,169.307754 252.680979,169.70515 252.680979,170.225984 C252.680979,170.746817 252.582541,171.143692 252.385666,171.416609 C252.188791,171.690567 251.902853,171.827546 251.527853,171.827546 C251.15702,171.827546 250.873166,171.690567 250.676291,171.416609 C250.479416,171.143692 250.380978,170.746817 250.380978,170.225984 C250.380978,169.70515 250.479416,169.307754 250.676291,169.033796 C250.873166,168.760879 251.15702,168.624421 251.527853,168.624421 Z" id="DejaVuSans-Bold-64" fill="#0000FF" fill-rule="nonzero" transform="translate(251.504416, 171.224421) scale(-1, 1) rotate(-180.000000) translate(-251.504416, -171.224421) "></path>
            <path d="M254.605978,214.652927 L254.605978,214.156052 L250.520041,214.156052 C250.561708,213.745635 250.709624,213.437823 250.963791,213.232615 C251.217958,213.027406 251.572645,212.924802 252.027853,212.924802 C252.395562,212.924802 252.772124,212.979489 253.157541,213.088864 C253.543999,213.198239 253.940874,213.363344 254.348166,213.584177 L254.348166,212.237302 C253.934624,212.081052 253.521083,211.962823 253.107541,211.882615 C252.693999,211.802406 252.280458,211.762302 251.866916,211.762302 C250.877333,211.762302 250.108062,212.013865 249.559103,212.516989 C249.011187,213.020115 248.737228,213.725844 248.737228,214.634177 C248.737228,215.525844 249.006499,216.226885 249.545041,216.737302 C250.083583,217.24876 250.825249,217.50449 251.770041,217.50449 C252.629416,217.50449 253.316916,217.245635 253.832541,216.727927 C254.348166,216.21126 254.605978,215.519594 254.605978,214.652927 Z M252.809103,215.234177 C252.809103,215.566469 252.712228,215.834177 252.518478,216.037302 C252.324728,216.241469 252.071603,216.343552 251.759103,216.343552 C251.420562,216.343552 251.145562,216.24824 250.934103,216.057614 C250.722645,215.86699 250.590874,215.59251 250.538791,215.234177 L252.809103,215.234177 Z" id="DejaVuSans-Bold-65" fill="#0000FF" fill-rule="nonzero" transform="translate(251.671603, 214.633396) scale(-1, 1) rotate(-180.000000) translate(-251.671603, -214.633396) "></path>
            <polygon id="DejaVuSans-Bold-2e" fill="#000000" fill-rule="nonzero" transform="translate(47.263744, 244.387862) scale(-1, 1) rotate(-180.000000) translate(-47.263744, -244.387862) " points="46.5316153 245.174657 47.9958731 245.174657 47.9958731 243.601068 46.5316153 243.601068"></polygon>
            <polygon id="DejaVuSans-Bold-2e" fill="#000000" fill-rule="nonzero" transform="translate(50.428168, 244.387862) scale(-1, 1) rotate(-180.000000) translate(-50.428168, -244.387862) " points="49.6960391 245.174657 51.1602969 245.174657 51.1602969 243.601068 49.6960391 243.601068"></polygon>
            <polygon id="DejaVuSans-Bold-2e" fill="#000000" fill-rule="nonzero" transform="translate(53.592592, 244.387862) scale(-1, 1) rotate(-180.000000) translate(-53.592592, -244.387862) " points="52.8604629 245.174657 54.3247207 245.174657 54.3247207 243.601068 52.8604629 243.601068"></polygon>
            <path d="M60.4215649,242.917748 L60.4215649,242.503851 L57.017979,242.503851 C57.0526873,242.161974 57.1759019,241.905566 57.3876228,241.734627 C57.5993436,241.563689 57.8947983,241.47822 58.2739868,241.47822 C58.5802879,241.47822 58.8939644,241.523774 59.2150165,241.614884 C59.5369363,241.705993 59.8675332,241.843525 60.2068071,242.027479 L60.2068071,240.905532 C59.8623269,240.775376 59.5178467,240.676891 59.1733665,240.610077 C58.8288863,240.543264 58.4844061,240.509857 58.1399259,240.509857 C57.315603,240.509857 56.6748004,240.719409 56.2175181,241.138512 C55.7611035,241.557615 55.5328962,242.145487 55.5328962,242.902129 C55.5328962,243.644887 55.7571988,244.228855 56.205804,244.654032 C56.6544092,245.080077 57.2722175,245.293099 58.059229,245.293099 C58.7750884,245.293099 59.3477759,245.077474 59.7772915,244.646223 C60.2068071,244.215839 60.4215649,243.639681 60.4215649,242.917748 Z M58.9247681,243.401929 C58.9247681,243.678728 58.8440712,243.901729 58.6826774,244.070932 C58.5212837,244.241003 58.3104306,244.326038 58.0501181,244.326038 C57.7681129,244.326038 57.5390379,244.246643 57.3628931,244.087852 C57.1867483,243.929062 57.0769832,243.700421 57.0335978,243.401929 L58.9247681,243.401929 Z" id="DejaVuSans-Bold-65" fill="#000000" fill-rule="nonzero" transform="translate(57.977231, 242.901478) scale(-1, 1) rotate(-180.000000) translate(-57.977231, -242.901478) "></path>
            <path d="M63.1140096,245.174657 L63.1140096,243.880904 L64.6160127,243.880904 L64.6160127,242.839654 L63.1140096,242.839654 L63.1140096,240.908135 C63.1140096,240.696414 63.1560935,240.553242 63.2402612,240.478619 C63.3244289,240.403997 63.4914627,240.366685 63.7413627,240.366685 L64.4897612,240.366685 L64.4897612,239.325435 L63.2402612,239.325435 C62.6658383,239.325435 62.2584492,239.445179 62.018094,239.684666 C61.7786065,239.925022 61.6588627,240.332844 61.6588627,240.908135 L61.6588627,242.839654 L60.9338924,242.839654 L60.9338924,243.880904 L61.6588627,243.880904 L61.6588627,245.174657 L63.1140096,245.174657 Z" id="DejaVuSans-Bold-74" fill="#000000" fill-rule="nonzero" transform="translate(62.774953, 242.250046) scale(-1, 1) rotate(-180.000000) translate(-62.774953, -242.250046) "></path>
            <path d="M69.1875884,245.041898 L69.1875884,243.853571 C68.9897509,243.988934 68.7910457,244.089154 68.5914728,244.154232 C68.3918998,244.21931 68.1849514,244.251849 67.9706274,244.251849 C67.5645399,244.251849 67.2482603,244.133407 67.0217884,243.896523 C66.7953165,243.659638 66.6820806,243.328174 66.6820806,242.902129 C66.6820806,242.476084 66.7953165,242.144186 67.0217884,241.906434 C67.2482603,241.669549 67.5645399,241.551107 67.9706274,241.551107 C68.1988347,241.551107 68.415328,241.584948 68.6201071,241.652629 C68.8248863,241.721178 69.0140467,241.821832 69.1875884,241.954591 L69.1875884,240.76236 C68.9593811,240.678192 68.7281368,240.615284 68.4938556,240.573634 C68.2595743,240.531116 68.0244254,240.509857 67.7884087,240.509857 C66.9666889,240.509857 66.323717,240.72071 65.8594931,241.142416 C65.3961368,241.564123 65.1644587,242.150693 65.1644587,242.902129 C65.1644587,243.653564 65.3961368,244.239701 65.8594931,244.66054 C66.323717,245.082246 66.9666889,245.293099 67.7884087,245.293099 C68.0270285,245.293099 68.2621774,245.272274 68.4938556,245.230624 C68.7255337,245.188974 68.956778,245.126065 69.1875884,245.041898 Z" id="DejaVuSans-Bold-63" fill="#000000" fill-rule="nonzero" transform="translate(67.176024, 242.901478) scale(-1, 1) rotate(-180.000000) translate(-67.176024, -242.901478) "></path>
            <polygon id="DejaVuSans-Bold-2e" fill="#000000" fill-rule="nonzero" transform="translate(71.326381, 244.387862) scale(-1, 1) rotate(-180.000000) translate(-71.326381, -244.387862) " points="70.5942521 245.174657 72.0585099 245.174657 72.0585099 243.601068 70.5942521 243.601068"></polygon>
            <text id="21" font-family="Helvetica" font-size="12" font-weight="normal" fill="#0000FF">
                <tspan x="0.326171875" y="49">21</tspan>
            </text>
            <text id="22" font-family="Helvetica" font-size="12" font-weight="normal" fill="#0000FF">
                <tspan x="0.326171875" y="91">22</tspan>
            </text>
            <text id="23" font-family="Helvetica" font-size="12" font-weight="normal" fill="#0000FF">
                <tspan x="0.326171875" y="134">23</tspan>
            </text>
            <text id="24" font-family="Helvetica" font-size="12" font-weight="normal" fill="#0000FF">
                <tspan x="0.326171875" y="176">24</tspan>
            </text>
            <text id="25" font-family="Helvetica" font-size="12" font-weight="normal" fill="#0000FF">
                <tspan x="0.326171875" y="219">25</tspan>
            </text>
            <text id="current-char" font-family="Helvetica-Bold, Helvetica" font-size="12" font-weight="bold" fill="#000000">
                <tspan x="24.4873047" y="11">current char</tspan>
            </text>
            <text id="next-char" font-family="Helvetica-Bold, Helvetica" font-size="12" font-weight="bold" fill="#000000">
                <tspan x="202.322266" y="11">next char</tspan>
            </text>
            <text id="21" font-family="Helvetica" font-size="12" font-weight="normal" fill="#0000FF">
                <tspan x="274.326172" y="49">21</tspan>
            </text>
            <text id="22" font-family="Helvetica" font-size="12" font-weight="normal" fill="#0000FF">
                <tspan x="274.326172" y="91">22</tspan>
            </text>
            <text id="23" font-family="Helvetica" font-size="12" font-weight="normal" fill="#0000FF">
                <tspan x="274.326172" y="134">23</tspan>
            </text>
            <text id="24" font-family="Helvetica" font-size="12" font-weight="normal" fill="#0000FF">
                <tspan x="274.326172" y="176">24</tspan>
            </text>
            <text id="25" font-family="Helvetica" font-size="12" font-weight="normal" fill="#0000FF">
                <tspan x="274.326172" y="219">25</tspan>
            </text>
        </g>
    </g>
</svg>