<?xml version="1.0" encoding="UTF-8" standalone="no"?>
<svg width="288px" height="217px" viewBox="0 0 288 217" version="1.1" xmlns="http://www.w3.org/2000/svg" xmlns:xlink="http://www.w3.org/1999/xlink">
    <!-- Generator: Sketch 43.2 (39069) - http://www.bohemiancoding.com/sketch -->
    <title>Group</title>
    <desc>Created with Sketch.</desc>
    <defs></defs>
    <g id="Page-1" stroke="none" stroke-width="1" fill="none" fill-rule="evenodd">
        <g id="Group" transform="translate(0.000000, 1.000000)">
            <polygon id="Shape" stroke="#000000" fill="#000000" fill-rule="nonzero" points="115.819512 113.92 117.233171 120.988293 115.819512 120.988293 115.819512 170.466341 115.819512 170.466341 115.819512 120.988293 114.405854 120.988293"></polygon>
            <polygon id="Shape" stroke="#000000" fill="#000000" fill-rule="nonzero" points="158.229268 99.783415 151.160976 101.197073 151.160976 99.783415 129.956098 99.783415 129.956098 99.783415 151.160976 99.783415 151.160976 98.369756"></polygon>
            <polygon id="Shape" stroke="#000000" fill="#000000" fill-rule="nonzero" points="107.977946 88.021065 102.880927 82.924046 104.057162 82.13989 67.114737 26.726252 67.114737 26.726252 104.057162 82.13989 105.233397 81.355733"></polygon>
            <polygon id="Shape" stroke="#000000" fill="#000000" fill-rule="nonzero" points="104.510244 91.301463 98.007415 88.191415 98.85561 87.060488 70.582439 65.85561 70.582439 65.85561 98.85561 87.060488 99.703805 85.929561"></polygon>
            <polygon id="Shape" stroke="#000000" fill="#000000" fill-rule="nonzero" points="101.682927 99.783415 94.614634 101.197073 94.614634 99.783415 73.409756 99.783415 73.409756 99.783415 94.614634 99.783415 94.614634 98.369756"></polygon>
            <polygon id="Shape" stroke="#000000" fill="#000000" fill-rule="nonzero" points="104.510244 108.265366 99.703805 113.637268 98.85561 112.506341 70.582439 133.71122 70.582439 133.71122 98.85561 112.506341 98.007415 111.375415"></polygon>
            <polygon id="Shape" stroke="#000000" fill="#000000" fill-rule="nonzero" points="107.977946 111.545765 105.233397 118.211096 104.057162 117.42694 67.114737 172.840577 67.114737 172.840577 104.057162 117.42694 102.880927 116.642783"></polygon>
            <polygon id="Shape" stroke="#000000" fill="#000000" fill-rule="nonzero" points="221.070628 26.726252 218.32608 33.391584 217.149845 32.607427 180.20742 88.021065 180.20742 88.021065 217.149845 32.607427 215.97361 31.823271"></polygon>
            <polygon id="Shape" stroke="#000000" fill="#000000" fill-rule="nonzero" points="217.602927 65.85561 212.796488 71.227512 211.948293 70.096585 183.675122 91.301463 183.675122 91.301463 211.948293 70.096585 211.100098 68.965659"></polygon>
            <polygon id="Shape" stroke="#000000" fill="#000000" fill-rule="nonzero" points="214.77561 99.783415 207.707317 101.197073 207.707317 99.783415 186.502439 99.783415 186.502439 99.783415 207.707317 99.783415 207.707317 98.369756"></polygon>
            <polygon id="Shape" stroke="#000000" fill="#000000" fill-rule="nonzero" points="217.602927 133.71122 211.100098 130.601171 211.948293 129.470244 183.675122 108.265366 183.675122 108.265366 211.948293 129.470244 212.796488 128.339317"></polygon>
            <polygon id="Shape" stroke="#000000" fill="#000000" fill-rule="nonzero" points="221.070628 172.840577 215.97361 167.743558 217.149845 166.959402 180.20742 111.545765 180.20742 111.545765 217.149845 166.959402 218.32608 166.175245"></polygon>
            <path d="M115.819512,113.92 C119.568578,113.92 123.164597,112.43048 125.815588,109.77949 C128.466578,107.1285 129.956098,103.532481 129.956098,99.783415 C129.956098,96.034348 128.466578,92.438329 125.815588,89.787339 C123.164597,87.136349 119.568578,85.646829 115.819512,85.646829 C112.070446,85.646829 108.474427,87.136349 105.823437,89.787339 C103.172447,92.438329 101.682927,96.034348 101.682927,99.783415 C101.682927,103.532481 103.172447,107.1285 105.823437,109.77949 C108.474427,112.43048 112.070446,113.92 115.819512,113.92 Z" id="Shape" stroke="#000000" fill="#B2B2B2" fill-rule="nonzero"></path>
            <path d="M115.819512,113.92 C119.568578,113.92 123.164597,112.43048 125.815588,109.77949 C128.466578,107.1285 129.956098,103.532481 129.956098,99.783415 C129.956098,96.034348 128.466578,92.438329 125.815588,89.787339 C123.164597,87.136349 119.568578,85.646829 115.819512,85.646829 C112.070446,85.646829 108.474427,87.136349 105.823437,89.787339 C103.172447,92.438329 101.682927,96.034348 101.682927,99.783415 C101.682927,103.532481 103.172447,107.1285 105.823437,109.77949 C108.474427,112.43048 112.070446,113.92 115.819512,113.92 Z" id="Shape" stroke="#000000"></path>
            <path d="M172.365854,113.92 C176.11492,113.92 179.710939,112.43048 182.361929,109.77949 C185.012919,107.1285 186.502439,103.532481 186.502439,99.783415 C186.502439,96.034348 185.012919,92.438329 182.361929,89.787339 C179.710939,87.136349 176.11492,85.646829 172.365854,85.646829 C168.616787,85.646829 165.020768,87.136349 162.369778,89.787339 C159.718788,92.438329 158.229268,96.034348 158.229268,99.783415 C158.229268,103.532481 159.718788,107.1285 162.369778,109.77949 C165.020768,112.43048 168.616787,113.92 172.365854,113.92 Z" id="Shape" stroke="#000000" fill="#B2B2B2" fill-rule="nonzero"></path>
            <path d="M172.365854,113.92 C176.11492,113.92 179.710939,112.43048 182.361929,109.77949 C185.012919,107.1285 186.502439,103.532481 186.502439,99.783415 C186.502439,96.034348 185.012919,92.438329 182.361929,89.787339 C179.710939,87.136349 176.11492,85.646829 172.365854,85.646829 C168.616787,85.646829 165.020768,87.136349 162.369778,89.787339 C159.718788,92.438329 158.229268,96.034348 158.229268,99.783415 C158.229268,103.532481 159.718788,107.1285 162.369778,109.77949 C165.020768,112.43048 168.616787,113.92 172.365854,113.92 Z" id="Shape" stroke="#000000"></path>
            <path d="M115.819512,198.739512 C119.568578,198.739512 123.164597,197.249992 125.815588,194.599002 C128.466578,191.948012 129.956098,188.351993 129.956098,184.602927 C129.956098,180.853861 128.466578,177.257842 125.815588,174.606851 C123.164597,171.955861 119.568578,170.466341 115.819512,170.466341 C112.070446,170.466341 108.474427,171.955861 105.823437,174.606851 C103.172447,177.257842 101.682927,180.853861 101.682927,184.602927 C101.682927,188.351993 103.172447,191.948012 105.823437,194.599002 C108.474427,197.249992 112.070446,198.739512 115.819512,198.739512 Z" id="Shape" stroke="#000000"></path>
            <path d="M59.273171,71.510244 C63.022237,71.510244 66.618256,70.020724 69.269246,67.369734 C71.920236,64.718744 73.409756,61.122725 73.409756,57.373659 C73.409756,53.624592 71.920236,50.028573 69.269246,47.377583 C66.618256,44.726593 63.022237,43.237073 59.273171,43.237073 C55.524104,43.237073 51.928086,44.726593 49.277095,47.377583 C46.626105,50.028573 45.136585,53.624592 45.136585,57.373659 C45.136585,61.122725 46.626105,64.718744 49.277095,67.369734 C51.928086,70.020724 55.524104,71.510244 59.273171,71.510244 Z" id="Shape" stroke="#000000"></path>
            <path d="M59.273171,113.92 C63.022237,113.92 66.618256,112.43048 69.269246,109.77949 C71.920236,107.1285 73.409756,103.532481 73.409756,99.783415 C73.409756,96.034348 71.920236,92.438329 69.269246,89.787339 C66.618256,87.136349 63.022237,85.646829 59.273171,85.646829 C55.524104,85.646829 51.928086,87.136349 49.277095,89.787339 C46.626105,92.438329 45.136585,96.034348 45.136585,99.783415 C45.136585,103.532481 46.626105,107.1285 49.277095,109.77949 C51.928086,112.43048 55.524104,113.92 59.273171,113.92 Z" id="Shape" stroke="#000000"></path>
            <path d="M59.273171,156.329756 C63.022237,156.329756 66.618256,154.840236 69.269246,152.189246 C71.920236,149.538256 73.409756,145.942237 73.409756,142.193171 C73.409756,138.444104 71.920236,134.848086 69.269246,132.197095 C66.618256,129.546105 63.022237,128.056585 59.273171,128.056585 C55.524104,128.056585 51.928086,129.546105 49.277095,132.197095 C46.626105,134.848086 45.136585,138.444104 45.136585,142.193171 C45.136585,145.942237 46.626105,149.538256 49.277095,152.189246 C51.928086,154.840236 55.524104,156.329756 59.273171,156.329756 Z" id="Shape" stroke="#000000"></path>
            <path d="M228.912195,28.513171 C232.661261,28.513171 236.25728,27.023651 238.90827,24.372661 C241.559261,21.721671 243.04878,18.125652 243.04878,14.376585 C243.04878,10.627519 241.559261,7.03150001 238.90827,4.38051001 C236.25728,1.72952001 232.661261,0.24000001 228.912195,0.24000001 C225.163129,0.24000001 221.56711,1.72952001 218.91612,4.38051001 C216.26513,7.03150001 214.77561,10.627519 214.77561,14.376585 C214.77561,18.125652 216.26513,21.721671 218.91612,24.372661 C221.56711,27.023651 225.163129,28.513171 228.912195,28.513171 Z" id="Shape" stroke="#000000" fill="#FFFFFF"></path>
            <path d="M228.912195,71.510244 C232.661261,71.510244 236.25728,70.020724 238.90827,67.369734 C241.559261,64.718744 243.04878,61.122725 243.04878,57.373659 C243.04878,53.624592 241.559261,50.028573 238.90827,47.377583 C236.25728,44.726593 232.661261,43.237073 228.912195,43.237073 C225.163129,43.237073 221.56711,44.726593 218.91612,47.377583 C216.26513,50.028573 214.77561,53.624592 214.77561,57.373659 C214.77561,61.122725 216.26513,64.718744 218.91612,67.369734 C221.56711,70.020724 225.163129,71.510244 228.912195,71.510244 Z" id="Shape" stroke="#000000" fill="#FFFFFF"></path>
            <path d="M228.912195,113.92 C232.661261,113.92 236.25728,112.43048 238.90827,109.77949 C241.559261,107.1285 243.04878,103.532481 243.04878,99.783415 C243.04878,96.034348 241.559261,92.438329 238.90827,89.787339 C236.25728,87.136349 232.661261,85.646829 228.912195,85.646829 C225.163129,85.646829 221.56711,87.136349 218.91612,89.787339 C216.26513,92.438329 214.77561,96.034348 214.77561,99.783415 C214.77561,103.532481 216.26513,107.1285 218.91612,109.77949 C221.56711,112.43048 225.163129,113.92 228.912195,113.92 Z" id="Shape" stroke="#000000" fill="#FFFFFF"></path>
            <path d="M228.912195,156.329756 C232.661261,156.329756 236.25728,154.840236 238.90827,152.189246 C241.559261,149.538256 243.04878,145.942237 243.04878,142.193171 C243.04878,138.444104 241.559261,134.848086 238.90827,132.197095 C236.25728,129.546105 232.661261,128.056585 228.912195,128.056585 C225.163129,128.056585 221.56711,129.546105 218.91612,132.197095 C216.26513,134.848086 214.77561,138.444104 214.77561,142.193171 C214.77561,145.942237 216.26513,149.538256 218.91612,152.189246 C221.56711,154.840236 225.163129,156.329756 228.912195,156.329756 Z" id="Shape" stroke="#000000" fill="#FFFFFF"></path>
            <path d="M228.912195,198.739512 C232.661261,198.739512 236.25728,197.249992 238.90827,194.599002 C241.559261,191.948012 243.04878,188.351993 243.04878,184.602927 C243.04878,180.853861 241.559261,177.257842 238.90827,174.606851 C236.25728,171.955861 232.661261,170.466341 228.912195,170.466341 C225.163129,170.466341 221.56711,171.955861 218.91612,174.606851 C216.26513,177.257842 214.77561,180.853861 214.77561,184.602927 C214.77561,188.351993 216.26513,191.948012 218.91612,194.599002 C221.56711,197.249992 225.163129,198.739512 228.912195,198.739512 Z" id="Shape" stroke="#000000" fill="#FFFFFF"></path>
            <path d="M87.546341,57.373659 C91.295408,57.373659 94.891427,55.884139 97.542417,53.233149 C100.193407,50.582158 101.682927,46.986139 101.682927,43.237073 C101.682927,39.488007 100.193407,35.891988 97.542417,33.240998 C94.891427,30.590008 91.295408,29.100488 87.546341,29.100488 C83.797275,29.100488 80.201256,30.590008 77.550266,33.240998 C74.899276,35.891988 73.409756,39.488007 73.409756,43.237073 C73.409756,46.986139 74.899276,50.582158 77.550266,53.233149 C80.201256,55.884139 83.797275,57.373659 87.546341,57.373659 Z" id="Shape"></path>
            <path d="M87.546341,84.233171 C91.295408,84.233171 94.891427,82.743651 97.542417,80.092661 C100.193407,77.441671 101.682927,73.845652 101.682927,70.096585 C101.682927,66.347519 100.193407,62.7515 97.542417,60.10051 C94.891427,57.44952 91.295408,55.96 87.546341,55.96 C83.797275,55.96 80.201256,57.44952 77.550266,60.10051 C74.899276,62.7515 73.409756,66.347519 73.409756,70.096585 C73.409756,73.845652 74.899276,77.441671 77.550266,80.092661 C80.201256,82.743651 83.797275,84.233171 87.546341,84.233171 Z" id="Shape"></path>
            <path d="M87.546341,108.265366 C91.295408,108.265366 94.891427,106.775846 97.542417,104.124856 C100.193407,101.473866 101.682927,97.877847 101.682927,94.12878 C101.682927,90.379714 100.193407,86.783695 97.542417,84.132705 C94.891427,81.481715 91.295408,79.992195 87.546341,79.992195 C83.797275,79.992195 80.201256,81.481715 77.550266,84.132705 C74.899276,86.783695 73.409756,90.379714 73.409756,94.12878 C73.409756,97.877847 74.899276,101.473866 77.550266,104.124856 C80.201256,106.775846 83.797275,108.265366 87.546341,108.265366 Z" id="Shape"></path>
            <path d="M87.546341,126.58638 C91.295408,126.58638 94.891427,125.096861 97.542417,122.44587 C100.193407,119.79488 101.682927,116.198861 101.682927,112.449795 C101.682927,108.700729 100.193407,105.10471 97.542417,102.45372 C94.891427,99.80273 91.295408,98.31321 87.546341,98.31321 C83.797275,98.31321 80.201256,99.80273 77.550266,102.45372 C74.899276,105.10471 73.409756,108.700729 73.409756,112.449795 C73.409756,116.198861 74.899276,119.79488 77.550266,122.44587 C80.201256,125.096861 83.797275,126.58638 87.546341,126.58638 Z" id="Shape"></path>
            <path d="M87.546341,145.020488 C91.295408,145.020488 94.891427,143.530968 97.542417,140.879978 C100.193407,138.228988 101.682927,134.632969 101.682927,130.883902 C101.682927,127.134836 100.193407,123.538817 97.542417,120.887827 C94.891427,118.236837 91.295408,116.747317 87.546341,116.747317 C83.797275,116.747317 80.201256,118.236837 77.550266,120.887827 C74.899276,123.538817 73.409756,127.134836 73.409756,130.883902 C73.409756,134.632969 74.899276,138.228988 77.550266,140.879978 C80.201256,143.530968 83.797275,145.020488 87.546341,145.020488 Z" id="Shape"></path>
            <path d="M127.12878,170.466341 C130.877847,170.466341 134.473866,168.976822 137.124856,166.325831 C139.775846,163.674841 141.265366,160.078822 141.265366,156.329756 C141.265366,152.58069 139.775846,148.984671 137.124856,146.333681 C134.473866,143.682691 130.877847,142.193171 127.12878,142.193171 C123.379714,142.193171 119.783695,143.682691 117.132705,146.333681 C114.481715,148.984671 112.992195,152.58069 112.992195,156.329756 C112.992195,160.078822 114.481715,163.674841 117.132705,166.325831 C119.783695,168.976822 123.379714,170.466341 127.12878,170.466341 Z" id="Shape"></path>
            <path d="M36.654634,29.100488 C40.4037,29.100488 43.999719,27.610968 46.65071,24.959978 C49.3017,22.308988 50.79122,18.712969 50.79122,14.963902 C50.79122,11.214836 49.3017,7.618817 46.65071,4.967827 C43.999719,2.316837 40.4037,0.827317 36.654634,0.827317 C32.905568,0.827317 29.309549,2.316837 26.658559,4.967827 C24.007569,7.618817 22.518049,11.214836 22.518049,14.963902 C22.518049,18.712969 24.007569,22.308988 26.658559,24.959978 C29.309549,27.610968 32.905568,29.100488 36.654634,29.100488 Z" id="Shape"></path>
            <path d="M36.654634,71.510244 C40.4037,71.510244 43.999719,70.020724 46.65071,67.369734 C49.3017,64.718744 50.79122,61.122725 50.79122,57.373659 C50.79122,53.624592 49.3017,50.028573 46.65071,47.377583 C43.999719,44.726593 40.4037,43.237073 36.654634,43.237073 C32.905568,43.237073 29.309549,44.726593 26.658559,47.377583 C24.007569,50.028573 22.518049,53.624592 22.518049,57.373659 C22.518049,61.122725 24.007569,64.718744 26.658559,67.369734 C29.309549,70.020724 32.905568,71.510244 36.654634,71.510244 Z" id="Shape"></path>
            <path d="M36.654634,113.92 C40.4037,113.92 43.999719,112.43048 46.65071,109.77949 C49.3017,107.1285 50.79122,103.532481 50.79122,99.783415 C50.79122,96.034348 49.3017,92.438329 46.65071,89.787339 C43.999719,87.136349 40.4037,85.646829 36.654634,85.646829 C32.905568,85.646829 29.309549,87.136349 26.658559,89.787339 C24.007569,92.438329 22.518049,96.034348 22.518049,99.783415 C22.518049,103.532481 24.007569,107.1285 26.658559,109.77949 C29.309549,112.43048 32.905568,113.92 36.654634,113.92 Z" id="Shape"></path>
            <path d="M36.654634,156.329756 C40.4037,156.329756 43.999719,154.840236 46.65071,152.189246 C49.3017,149.538256 50.79122,145.942237 50.79122,142.193171 C50.79122,138.444104 49.3017,134.848086 46.65071,132.197095 C43.999719,129.546105 40.4037,128.056585 36.654634,128.056585 C32.905568,128.056585 29.309549,129.546105 26.658559,132.197095 C24.007569,134.848086 22.518049,138.444104 22.518049,142.193171 C22.518049,145.942237 24.007569,149.538256 26.658559,152.189246 C29.309549,154.840236 32.905568,156.329756 36.654634,156.329756 Z" id="Shape"></path>
            <path d="M36.654634,198.739512 C40.4037,198.739512 43.999719,197.249992 46.65071,194.599002 C49.3017,191.948012 50.79122,188.351993 50.79122,184.602927 C50.79122,180.853861 49.3017,177.257842 46.65071,174.606851 C43.999719,171.955861 40.4037,170.466341 36.654634,170.466341 C32.905568,170.466341 29.309549,171.955861 26.658559,174.606851 C24.007569,177.257842 22.518049,180.853861 22.518049,184.602927 C22.518049,188.351993 24.007569,191.948012 26.658559,194.599002 C29.309549,197.249992 32.905568,198.739512 36.654634,198.739512 Z" id="Shape"></path>
            <path d="M251.530732,29.100488 C255.279798,29.100488 258.875817,27.610968 261.526807,24.959978 C264.177797,22.308988 265.667317,18.712969 265.667317,14.963902 C265.667317,11.214836 264.177797,7.618817 261.526807,4.967827 C258.875817,2.316837 255.279798,0.827317 251.530732,0.827317 C247.781665,0.827317 244.185647,2.316837 241.534656,4.967827 C238.883666,7.618817 237.394146,11.214836 237.394146,14.963902 C237.394146,18.712969 238.883666,22.308988 241.534656,24.959978 C244.185647,27.610968 247.781665,29.100488 251.530732,29.100488 Z" id="Shape"></path>
            <path d="M251.530732,71.510244 C255.279798,71.510244 258.875817,70.020724 261.526807,67.369734 C264.177797,64.718744 265.667317,61.122725 265.667317,57.373659 C265.667317,53.624592 264.177797,50.028573 261.526807,47.377583 C258.875817,44.726593 255.279798,43.237073 251.530732,43.237073 C247.781665,43.237073 244.185647,44.726593 241.534656,47.377583 C238.883666,50.028573 237.394146,53.624592 237.394146,57.373659 C237.394146,61.122725 238.883666,64.718744 241.534656,67.369734 C244.185647,70.020724 247.781665,71.510244 251.530732,71.510244 Z" id="Shape"></path>
            <path d="M251.530732,113.92 C255.279798,113.92 258.875817,112.43048 261.526807,109.77949 C264.177797,107.1285 265.667317,103.532481 265.667317,99.783415 C265.667317,96.034348 264.177797,92.438329 261.526807,89.787339 C258.875817,87.136349 255.279798,85.646829 251.530732,85.646829 C247.781665,85.646829 244.185647,87.136349 241.534656,89.787339 C238.883666,92.438329 237.394146,96.034348 237.394146,99.783415 C237.394146,103.532481 238.883666,107.1285 241.534656,109.77949 C244.185647,112.43048 247.781665,113.92 251.530732,113.92 Z" id="Shape"></path>
            <path d="M251.530732,156.329756 C255.279798,156.329756 258.875817,154.840236 261.526807,152.189246 C264.177797,149.538256 265.667317,145.942237 265.667317,142.193171 C265.667317,138.444104 264.177797,134.848086 261.526807,132.197095 C258.875817,129.546105 255.279798,128.056585 251.530732,128.056585 C247.781665,128.056585 244.185647,129.546105 241.534656,132.197095 C238.883666,134.848086 237.394146,138.444104 237.394146,142.193171 C237.394146,145.942237 238.883666,149.538256 241.534656,152.189246 C244.185647,154.840236 247.781665,156.329756 251.530732,156.329756 Z" id="Shape"></path>
            <path d="M251.530732,198.739512 C255.279798,198.739512 258.875817,197.249992 261.526807,194.599002 C264.177797,191.948012 265.667317,188.351993 265.667317,184.602927 C265.667317,180.853861 264.177797,177.257842 261.526807,174.606851 C258.875817,171.955861 255.279798,170.466341 251.530732,170.466341 C247.781665,170.466341 244.185647,171.955861 241.534656,174.606851 C238.883666,177.257842 237.394146,180.853861 237.394146,184.602927 C237.394146,188.351993 238.883666,191.948012 241.534656,194.599002 C244.185647,197.249992 247.781665,198.739512 251.530732,198.739512 Z" id="Shape"></path>
            <path d="M59.273171,227.012683 C63.022237,227.012683 66.618256,225.523163 69.269246,222.872173 C71.920236,220.221183 73.409756,216.625164 73.409756,212.876098 C73.409756,209.127031 71.920236,205.531012 69.269246,202.880022 C66.618256,200.229032 63.022237,198.739512 59.273171,198.739512 C55.524104,198.739512 51.928086,200.229032 49.277095,202.880022 C46.626105,205.531012 45.136585,209.127031 45.136585,212.876098 C45.136585,216.625164 46.626105,220.221183 49.277095,222.872173 C51.928086,225.523163 55.524104,227.012683 59.273171,227.012683 Z" id="Shape"></path>
            <polygon id="DejaVuSans-3a3" fill="#000000" fill-rule="nonzero" transform="translate(115.989824, 98.897476) scale(-1, 1) rotate(-180.000000) translate(-115.989824, -98.897476) " points="114.774199 96.0818515 118.338262 96.0818515 118.338262 95.252164 113.641387 95.252164 113.641387 96.0818515 115.980449 99.128726 113.641387 101.711539 113.641387 102.542789 118.250762 102.542789 118.250762 101.711539 114.774199 101.711539 117.113262 99.149039"></polygon>
            <path d="M168.295541,102.541228 L168.154916,101.79279 L167.295541,101.79279 C166.9695,101.79279 166.732521,101.728728 166.584604,101.600602 C166.436687,101.472477 166.326791,101.237061 166.254916,100.894352 L166.158041,100.41154 L167.637729,100.41154 L167.504916,99.713103 L166.025229,99.713103 L165.098666,94.94279 L164.193979,94.94279 L165.126791,99.713103 L164.267416,99.713103 L164.395541,100.41154 L165.254916,100.41154 L165.326791,100.79279 C165.45075,101.437582 165.667937,101.890186 165.978354,102.150603 C166.289812,102.411019 166.779396,102.541228 167.447104,102.541228 L168.295541,102.541228 Z" id="DejaVuSans-Oblique-66" fill="#000000" fill-rule="nonzero" transform="translate(166.244760, 98.742009) scale(-1, 1) rotate(-180.000000) translate(-166.244760, -98.742009) "></path>
            <path d="M170.136362,103.859977 C169.700945,103.112061 169.376987,102.371436 169.164487,101.638103 C168.953028,100.905811 168.847299,100.163623 168.847299,99.4115395 C168.847299,98.6604975 168.95407,97.916227 169.167612,97.178727 C169.381153,96.441227 169.70407,95.6995603 170.136362,94.953727 L169.355112,94.953727 C168.867612,95.719352 168.502508,96.4714353 168.259799,97.209977 C168.017091,97.9485187 167.895737,98.6823725 167.895737,99.4115395 C167.895737,100.137582 168.016049,100.868311 168.256674,101.603727 C168.498341,102.340186 168.864487,103.092269 169.355112,103.859977 L170.136362,103.859977 Z" id="DejaVuSans-28" fill="#000000" fill-rule="nonzero" transform="translate(169.016050, 99.406852) scale(-1, 1) rotate(-180.000000) translate(-169.016050, -99.406852) "></path>
            <polygon id="DejaVuSans-3a3" fill="#000000" fill-rule="nonzero" transform="translate(174.267417, 98.895915) scale(-1, 1) rotate(-180.000000) translate(-174.267417, -98.895915) " points="173.051792 96.0802895 176.615854 96.0802895 176.615854 95.250602 171.918979 95.250602 171.918979 96.0802895 174.258042 99.1271645 171.918979 101.709976 171.918979 102.541228 176.528354 102.541228 176.528354 101.709976 173.051792 101.709976 175.390854 99.1474765"></polygon>
            <path d="M178.057651,103.859977 L178.838901,103.859977 C179.326401,103.092269 179.691505,102.340186 179.934213,101.603727 C180.176922,100.868311 180.298276,100.137581 180.298276,99.4115395 C180.298276,98.6823725 180.176922,97.9485187 179.934213,97.209977 C179.691505,96.4714353 179.326401,95.719352 178.838901,94.953727 L178.057651,94.953727 C178.489943,95.6995603 178.812859,96.441227 179.026401,97.178727 C179.239943,97.916227 179.346713,98.6604975 179.346713,99.4115395 C179.346713,100.163623 179.239943,100.905811 179.026401,101.638103 C178.812859,102.371436 178.489943,103.11206 178.057651,103.859977 Z" id="DejaVuSans-29" fill="#000000" fill-rule="nonzero" transform="translate(179.177963, 99.406852) scale(-1, 1) rotate(-180.000000) translate(-179.177963, -99.406852) "></path>
            <path d="M117.571074,183.245115 C117.571074,183.716991 117.462741,184.086261 117.246074,184.352928 C117.029408,184.619595 116.73097,184.752928 116.350762,184.752928 C116.073679,184.752928 115.813783,184.68522 115.571074,184.549803 C115.328366,184.415428 115.117429,184.219595 114.938262,183.962303 C114.74972,183.692511 114.600762,183.37897 114.491387,183.021678 C114.383054,182.665428 114.328887,182.31022 114.328887,181.956053 C114.328887,181.506053 114.435137,181.153449 114.647637,180.898241 C114.861179,180.643032 115.155449,180.515428 115.530449,180.515428 C115.812741,180.515428 116.074199,180.581053 116.314824,180.712303 C116.556491,180.844595 116.76847,181.039386 116.950762,181.296678 C117.136179,181.563345 117.285658,181.873761 117.399199,182.227928 C117.513783,182.583136 117.571074,182.922199 117.571074,183.245115 Z M114.777324,184.543553 C114.999199,184.842511 115.276804,185.077407 115.610137,185.248241 C115.94347,185.419074 116.292429,185.504491 116.657012,185.504491 C117.217429,185.504491 117.662741,185.315428 117.992949,184.937303 C118.323158,184.56022 118.488262,184.049803 118.488262,183.406053 C118.488262,182.877928 118.391387,182.36647 118.197637,181.871678 C118.003887,181.376886 117.728366,180.937824 117.371074,180.554491 C117.136699,180.300324 116.866387,180.10449 116.560137,179.966991 C116.253887,179.830532 115.933054,179.762303 115.597637,179.762303 C115.24347,179.762303 114.936179,179.843553 114.675762,180.006053 C114.415345,180.169595 114.203366,180.412303 114.039824,180.734178 L113.878887,179.904491 L112.980449,179.904491 L114.460137,187.502928 L115.358574,187.502928 L114.777324,184.543553 Z" id="DejaVuSans-Oblique-62" fill="#000000" fill-rule="nonzero" transform="translate(115.734355, 183.632615) scale(-1, 1) rotate(-180.000000) translate(-115.734355, -183.632615) "></path>
            <path d="M59.273171,199.100488 C63.022237,199.100488 66.618256,197.610968 69.269246,194.959978 C71.920236,192.308988 73.409756,188.712969 73.409756,184.963902 C73.409756,181.214836 71.920236,177.618817 69.269246,174.967827 C66.618256,172.316837 63.022237,170.827317 59.273171,170.827317 C55.524104,170.827317 51.928086,172.316837 49.277095,174.967827 C46.626105,177.618817 45.136585,181.214836 45.136585,184.963902 C45.136585,188.712969 46.626105,192.308988 49.277095,194.959978 C51.928086,197.610968 55.524104,199.100488 59.273171,199.100488 Z" id="Shape" stroke="#000000"></path>
            <polygon id="DejaVuSans-31" fill="#000000" fill-rule="nonzero" transform="translate(59.360671, 184.077964) scale(-1, 1) rotate(-180.000000) translate(-59.360671, -184.077964) " points="57.332546 181.262339 58.9434835 181.262339 58.9434835 186.824839 57.1903585 186.473276 57.1903585 187.371714 58.9341085 187.723276 59.920046 187.723276 59.920046 181.262339 61.5309835 181.262339 61.5309835 180.432651 57.332546 180.432651"></polygon>
            <path d="M59.270046,59.493971 C58.7627543,59.493971 58.3809835,59.243971 58.1247335,58.743971 C57.8695252,58.2450127 57.741921,57.493971 57.741921,56.490846 C57.741921,55.4918877 57.8695252,54.7424085 58.1247335,54.2424085 C58.3809835,53.7424085 58.7627543,53.4924085 59.270046,53.4924085 C59.7815043,53.4924085 60.1648377,53.7424085 60.420046,54.2424085 C60.676296,54.7424085 60.804421,55.4918877 60.804421,56.490846 C60.804421,57.493971 60.676296,58.2450127 60.420046,58.743971 C60.1648377,59.243971 59.7815043,59.493971 59.270046,59.493971 Z M59.270046,60.275221 C60.0877543,60.275221 60.7122335,59.9517835 61.1434835,59.3049085 C61.5747335,58.6590752 61.7903585,57.7210543 61.7903585,56.490846 C61.7903585,55.2637627 61.5747335,54.3267835 61.1434835,53.6799085 C60.7122335,53.0340752 60.0877543,52.7111585 59.270046,52.7111585 C58.4533793,52.7111585 57.829421,53.0340752 57.398171,53.6799085 C56.966921,54.3267835 56.751296,55.2637627 56.751296,56.490846 C56.751296,57.7210543 56.966921,58.6590752 57.398171,59.3049085 C57.829421,59.9517835 58.4533793,60.275221 59.270046,60.275221 Z" id="DejaVuSans-30" fill="#000000" fill-rule="nonzero" transform="translate(59.270827, 56.493190) scale(-1, 1) rotate(-180.000000) translate(-59.270827, -56.493190) "></path>
            <path d="M59.273171,28.513171 C63.022237,28.513171 66.618256,27.023651 69.269246,24.372661 C71.920236,21.721671 73.409756,18.125652 73.409756,14.376586 C73.409756,10.627519 71.920236,7.03150001 69.269246,4.38051001 C66.618256,1.72952001 63.022237,0.24000001 59.273171,0.24000001 C55.524104,0.24000001 51.928086,1.72952001 49.277095,4.38051001 C46.626105,7.03150001 45.136585,10.627519 45.136585,14.376586 C45.136585,18.125652 46.626105,21.721671 49.277095,24.372661 C51.928086,27.023651 55.524104,28.513171 59.273171,28.513171 Z" id="Shape" stroke="#000000"></path>
            <path d="M59.270046,17.493971 C58.7627543,17.493971 58.3809835,17.243971 58.1247335,16.743971 C57.8695252,16.2450127 57.741921,15.493971 57.741921,14.490846 C57.741921,13.4918877 57.8695252,12.7424085 58.1247335,12.2424085 C58.3809835,11.7424085 58.7627543,11.4924085 59.270046,11.4924085 C59.7815043,11.4924085 60.1648377,11.7424085 60.420046,12.2424085 C60.676296,12.7424085 60.804421,13.4918877 60.804421,14.490846 C60.804421,15.493971 60.676296,16.2450127 60.420046,16.743971 C60.1648377,17.243971 59.7815043,17.493971 59.270046,17.493971 Z M59.270046,18.275221 C60.0877543,18.275221 60.7122335,17.9517835 61.1434835,17.3049085 C61.5747335,16.6590752 61.7903585,15.7210543 61.7903585,14.490846 C61.7903585,13.2637627 61.5747335,12.3267835 61.1434835,11.6799085 C60.7122335,11.0340752 60.0877543,10.7111585 59.270046,10.7111585 C58.4533793,10.7111585 57.829421,11.0340752 57.398171,11.6799085 C56.966921,12.3267835 56.751296,13.2637627 56.751296,14.490846 C56.751296,15.7210543 56.966921,16.6590752 57.398171,17.3049085 C57.829421,17.9517835 58.4533793,18.275221 59.270046,18.275221 Z" id="DejaVuSans-30" fill="#000000" fill-rule="nonzero" transform="translate(59.270827, 14.493190) scale(-1, 1) rotate(-180.000000) translate(-59.270827, -14.493190) "></path>
            <path d="M59.270046,101.903727 C58.7627543,101.903727 58.3809835,101.653727 58.1247335,101.153727 C57.8695252,100.654768 57.741921,99.903727 57.741921,98.900601 C57.741921,97.9016432 57.8695252,97.152164 58.1247335,96.652164 C58.3809835,96.152164 58.7627543,95.902164 59.270046,95.902164 C59.7815043,95.902164 60.1648377,96.152164 60.420046,96.652164 C60.676296,97.152164 60.804421,97.9016432 60.804421,98.900601 C60.804421,99.903727 60.676296,100.654768 60.420046,101.153727 C60.1648377,101.653727 59.7815043,101.903727 59.270046,101.903727 Z M59.270046,102.684977 C60.0877543,102.684977 60.7122335,102.361539 61.1434835,101.714664 C61.5747335,101.068831 61.7903585,100.13081 61.7903585,98.900601 C61.7903585,97.6735182 61.5747335,96.736539 61.1434835,96.089664 C60.7122335,95.4438307 60.0877543,95.120914 59.270046,95.120914 C58.4533793,95.120914 57.829421,95.4438307 57.398171,96.089664 C56.966921,96.736539 56.751296,97.6735182 56.751296,98.900601 C56.751296,100.13081 56.966921,101.068831 57.398171,101.714664 C57.829421,102.361539 58.4533793,102.684977 59.270046,102.684977 Z" id="DejaVuSans-30" fill="#000000" fill-rule="nonzero" transform="translate(59.270827, 98.902946) scale(-1, 1) rotate(-180.000000) translate(-59.270827, -98.902946) "></path>
            <path d="M59.270046,144.313483 C58.7627543,144.313483 58.3809835,144.063483 58.1247335,143.563483 C57.8695252,143.064524 57.741921,142.313483 57.741921,141.310358 C57.741921,140.311399 57.8695252,139.56192 58.1247335,139.06192 C58.3809835,138.56192 58.7627543,138.31192 59.270046,138.31192 C59.7815043,138.31192 60.1648377,138.56192 60.420046,139.06192 C60.676296,139.56192 60.804421,140.311399 60.804421,141.310358 C60.804421,142.313483 60.676296,143.064524 60.420046,143.563483 C60.1648377,144.063483 59.7815043,144.313483 59.270046,144.313483 Z M59.270046,145.094733 C60.0877543,145.094733 60.7122335,144.771295 61.1434835,144.12442 C61.5747335,143.478587 61.7903585,142.540566 61.7903585,141.310358 C61.7903585,140.083274 61.5747335,139.146295 61.1434835,138.49942 C60.7122335,137.853587 60.0877543,137.53067 59.270046,137.53067 C58.4533793,137.53067 57.829421,137.853587 57.398171,138.49942 C56.966921,139.146295 56.751296,140.083274 56.751296,141.310358 C56.751296,142.540566 56.966921,143.478587 57.398171,144.12442 C57.829421,144.771295 58.4533793,145.094733 59.270046,145.094733 Z" id="DejaVuSans-30" fill="#000000" fill-rule="nonzero" transform="translate(59.270827, 141.312702) scale(-1, 1) rotate(-180.000000) translate(-59.270827, -141.312702) "></path>
            <path d="M228.90907,17.084214 C228.401778,17.084214 228.020007,16.834214 227.763757,16.334214 C227.508549,15.8352557 227.380945,15.084214 227.380945,14.081089 C227.380945,13.0821307 227.508549,12.3326515 227.763757,11.8326515 C228.020007,11.3326515 228.401778,11.0826515 228.90907,11.0826515 C229.420528,11.0826515 229.803862,11.3326515 230.05907,11.8326515 C230.31532,12.3326515 230.443445,13.0821307 230.443445,14.081089 C230.443445,15.084214 230.31532,15.8352557 230.05907,16.334214 C229.803862,16.834214 229.420528,17.084214 228.90907,17.084214 Z M228.90907,17.865464 C229.726778,17.865464 230.351257,17.5420265 230.782507,16.8951515 C231.213757,16.2493182 231.429382,15.3112973 231.429382,14.081089 C231.429382,12.8540057 231.213757,11.9170265 230.782507,11.2701515 C230.351257,10.6243182 229.726778,10.3014015 228.90907,10.3014015 C228.092403,10.3014015 227.468445,10.6243182 227.037195,11.2701515 C226.605945,11.9170265 226.39032,12.8540057 226.39032,14.081089 C226.39032,15.3112973 226.605945,16.2493182 227.037195,16.8951515 C227.468445,17.5420265 228.092403,17.865464 228.90907,17.865464 Z" id="DejaVuSans-30" fill="#000000" fill-rule="nonzero" transform="translate(228.909851, 14.083433) scale(-1, 1) rotate(-180.000000) translate(-228.909851, -14.083433) "></path>
            <path d="M228.90907,59.493971 C228.401778,59.493971 228.020007,59.243971 227.763757,58.743971 C227.508549,58.2450127 227.380945,57.493971 227.380945,56.490846 C227.380945,55.4918877 227.508549,54.7424085 227.763757,54.2424085 C228.020007,53.7424085 228.401778,53.4924085 228.90907,53.4924085 C229.420528,53.4924085 229.803862,53.7424085 230.05907,54.2424085 C230.31532,54.7424085 230.443445,55.4918877 230.443445,56.490846 C230.443445,57.493971 230.31532,58.2450127 230.05907,58.743971 C229.803862,59.243971 229.420528,59.493971 228.90907,59.493971 Z M228.90907,60.275221 C229.726778,60.275221 230.351257,59.9517835 230.782507,59.3049085 C231.213757,58.6590752 231.429382,57.7210543 231.429382,56.490846 C231.429382,55.2637627 231.213757,54.3267835 230.782507,53.6799085 C230.351257,53.0340752 229.726778,52.7111585 228.90907,52.7111585 C228.092403,52.7111585 227.468445,53.0340752 227.037195,53.6799085 C226.605945,54.3267835 226.39032,55.2637627 226.39032,56.490846 C226.39032,57.7210543 226.605945,58.6590752 227.037195,59.3049085 C227.468445,59.9517835 228.092403,60.275221 228.90907,60.275221 Z" id="DejaVuSans-30" fill="#000000" fill-rule="nonzero" transform="translate(228.909851, 56.493190) scale(-1, 1) rotate(-180.000000) translate(-228.909851, -56.493190) "></path>
            <path d="M228.90907,101.903727 C228.401778,101.903727 228.020007,101.653727 227.763757,101.153727 C227.508549,100.654768 227.380945,99.903727 227.380945,98.900601 C227.380945,97.9016432 227.508549,97.152164 227.763757,96.652164 C228.020007,96.152164 228.401778,95.902164 228.90907,95.902164 C229.420528,95.902164 229.803862,96.152164 230.05907,96.652164 C230.31532,97.152164 230.443445,97.9016432 230.443445,98.900601 C230.443445,99.903727 230.31532,100.654768 230.05907,101.153727 C229.803862,101.653727 229.420528,101.903727 228.90907,101.903727 Z M228.90907,102.684977 C229.726778,102.684977 230.351257,102.361539 230.782507,101.714664 C231.213757,101.068831 231.429382,100.13081 231.429382,98.900601 C231.429382,97.6735182 231.213757,96.736539 230.782507,96.089664 C230.351257,95.4438307 229.726778,95.120914 228.90907,95.120914 C228.092403,95.120914 227.468445,95.4438307 227.037195,96.089664 C226.605945,96.736539 226.39032,97.6735182 226.39032,98.900601 C226.39032,100.13081 226.605945,101.068831 227.037195,101.714664 C227.468445,102.361539 228.092403,102.684977 228.90907,102.684977 Z" id="DejaVuSans-30" fill="#000000" fill-rule="nonzero" transform="translate(228.909851, 98.902946) scale(-1, 1) rotate(-180.000000) translate(-228.909851, -98.902946) "></path>
            <polygon id="DejaVuSans-31" fill="#000000" fill-rule="nonzero" transform="translate(228.999695, 141.307232) scale(-1, 1) rotate(-180.000000) translate(-228.999695, -141.307232) " points="226.97157 138.491608 228.582507 138.491608 228.582507 144.054108 226.829382 143.702545 226.829382 144.600983 228.573132 144.952545 229.55907 144.952545 229.55907 138.491608 231.170007 138.491608 231.170007 137.66192 226.97157 137.66192"></polygon>
            <path d="M228.90907,186.723239 C228.401778,186.723239 228.020007,186.473239 227.763757,185.973239 C227.508549,185.47428 227.380945,184.723239 227.380945,183.720113 C227.380945,182.721155 227.508549,181.971676 227.763757,181.471676 C228.020007,180.971676 228.401778,180.721676 228.90907,180.721676 C229.420528,180.721676 229.803862,180.971676 230.05907,181.471676 C230.31532,181.971676 230.443445,182.721155 230.443445,183.720113 C230.443445,184.723239 230.31532,185.47428 230.05907,185.973239 C229.803862,186.473239 229.420528,186.723239 228.90907,186.723239 Z M228.90907,187.504489 C229.726778,187.504489 230.351257,187.181051 230.782507,186.534176 C231.213757,185.888343 231.429382,184.950322 231.429382,183.720113 C231.429382,182.49303 231.213757,181.556051 230.782507,180.909176 C230.351257,180.263343 229.726778,179.940426 228.90907,179.940426 C228.092403,179.940426 227.468445,180.263343 227.037195,180.909176 C226.605945,181.556051 226.39032,182.49303 226.39032,183.720113 C226.39032,184.950322 226.605945,185.888343 227.037195,186.534176 C227.468445,187.181051 228.092403,187.504489 228.90907,187.504489 Z" id="DejaVuSans-30" fill="#000000" fill-rule="nonzero" transform="translate(228.909851, 183.722458) scale(-1, 1) rotate(-180.000000) translate(-228.909851, -183.722458) "></path>
            <polygon id="DejaVuSans-Oblique-77" fill="#000000" fill-rule="nonzero" transform="translate(85.896611, 43.231867) scale(-1, 1) rotate(-180.000000) translate(-85.896611, -43.231867) " points="82.839891 45.509601 83.5804801 45.509601 83.7705082 41.8444009 85.4716504 45.509601 86.3371894 45.509601 86.5896926 41.8444009 88.2049316 45.509601 88.9533301 45.509601 86.8708301 40.9541322 85.9961801 40.9541322 85.7723113 44.7286635 84.0308207 40.9541322 83.1483613 40.9541322"></polygon>
            <path d="M90.7978719,46.503604 C90.5020701,46.503604 90.2794595,46.357829 90.1300401,46.066279 C89.9812282,45.7753364 89.9068222,45.337404 89.9068222,44.7524818 C89.9068222,44.1699892 89.9812282,43.7329679 90.1300401,43.4414179 C90.2794595,43.1498679 90.5020701,43.0040929 90.7978719,43.0040929 C91.0961032,43.0040929 91.3196249,43.1498679 91.4684369,43.4414179 C91.6178562,43.7329679 91.6925659,44.1699892 91.6925659,44.7524818 C91.6925659,45.337404 91.6178562,45.7753364 91.4684369,46.066279 C91.3196249,46.357829 91.0961032,46.503604 90.7978719,46.503604 Z M90.7978719,46.9591509 C91.2746776,46.9591509 91.6388114,46.7705545 91.8902733,46.3933617 C92.1417351,46.0167763 92.2674661,45.4698163 92.2674661,44.7524818 C92.2674661,44.0369696 92.1417351,43.490617 91.8902733,43.1134242 C91.6388114,42.7368388 91.2746776,42.5485461 90.7978719,42.5485461 C90.3216735,42.5485461 89.9578434,42.7368388 89.7063816,43.1134242 C89.4549197,43.490617 89.3291887,44.0369696 89.3291887,44.7524818 C89.3291887,45.4698163 89.4549197,46.0167763 89.7063816,46.3933617 C89.9578434,46.7705545 90.3216735,46.9591509 90.7978719,46.9591509 Z" id="DejaVuSans-30" fill="#000000" fill-rule="nonzero" transform="translate(90.798327, 44.753849) scale(-1, 1) rotate(-180.000000) translate(-90.798327, -44.753849) "></path>
            <polygon id="DejaVuSans-Oblique-77" fill="#000000" fill-rule="nonzero" transform="translate(85.896611, 70.091379) scale(-1, 1) rotate(-180.000000) translate(-85.896611, -70.091379) " points="82.839891 72.369113 83.5804801 72.369113 83.7705082 68.703913 85.4716504 72.369113 86.3371894 72.369113 86.5896926 68.703913 88.2049316 72.369113 88.9533301 72.369113 86.8708301 67.8136442 85.9961801 67.8136442 85.7723113 71.5881755 84.0308207 67.8136442 83.1483613 67.8136442"></polygon>
            <polygon id="DejaVuSans-31" fill="#000000" fill-rule="nonzero" transform="translate(90.850715, 71.610173) scale(-1, 1) rotate(-180.000000) translate(-90.850715, -71.610173) " points="89.6681156 69.9683824 90.6074533 69.9683824 90.6074533 73.2118762 89.5852061 73.0068801 89.5852061 73.530759 90.6019867 73.7357551 91.1768869 73.7357551 91.1768869 69.9683824 92.1162245 69.9683824 92.1162245 69.4845916 89.6681156 69.4845916"></polygon>
            <polygon id="DejaVuSans-Oblique-77" fill="#000000" fill-rule="nonzero" transform="translate(85.896611, 94.123574) scale(-1, 1) rotate(-180.000000) translate(-85.896611, -94.123574) " points="82.839891 96.401308 83.5804801 96.401308 83.7705082 92.736108 85.4716504 96.401308 86.3371894 96.401308 86.5896926 92.736108 88.2049316 96.401308 88.9533301 96.401308 86.8708301 91.8458392 85.9961801 91.8458392 85.7723113 95.6203705 84.0308207 91.8458392 83.1483613 91.8458392"></polygon>
            <path d="M90.0635303,93.9240453 L92.0706698,93.9240453 L92.0706698,93.4402546 L89.3720101,93.4402546 L89.3720101,93.9240453 C89.5900653,94.1499966 89.8873855,94.4530871 90.2639709,94.8333169 C90.6411637,95.2141541 90.8780481,95.4598457 90.9746241,95.5703918 C91.158665,95.7769063 91.2871292,95.9518363 91.3600167,96.0951817 C91.4335116,96.2385272 91.4702591,96.379443 91.4702591,96.5179292 C91.4702591,96.7438805 91.3909939,96.9279214 91.2324636,97.0700521 C91.0739333,97.2127901 90.8674187,97.2841591 90.6129198,97.2841591 C90.4325233,97.2841591 90.2421047,97.2528782 90.0416641,97.1903164 C89.8418308,97.1277547 89.6280275,97.0326972 89.4002541,96.9051441 L89.4002541,97.4864219 C89.6316719,97.5793535 89.8479048,97.6495077 90.0489528,97.6968846 C90.2506082,97.7442614 90.4349529,97.7679499 90.6019867,97.7679499 C91.0423487,97.7679499 91.3934235,97.6577075 91.6552111,97.4372228 C91.9169987,97.2173456 92.0478925,96.923366 92.0478925,96.5552841 C92.0478925,96.3803541 92.0150931,96.214535 91.9494944,96.0578269 C91.884503,95.9017262 91.7654534,95.7173815 91.5923456,95.504793 C91.5449687,95.44952 91.3940309,95.2903823 91.139532,95.0273799 C90.8856406,94.7643775 90.5269733,94.3965993 90.0635303,93.9240453 Z" id="DejaVuSans-32" fill="#000000" fill-rule="nonzero" transform="translate(90.721340, 95.604102) scale(-1, 1) rotate(-180.000000) translate(-90.721340, -95.604102) "></path>
            <polygon id="DejaVuSans-Oblique-77" fill="#000000" fill-rule="nonzero" transform="translate(85.896611, 112.444588) scale(-1, 1) rotate(-180.000000) translate(-85.896611, -112.444588) " points="82.839891 114.722322 83.5804801 114.722322 83.7705082 111.057122 85.4716504 114.722322 86.3371894 114.722322 86.5896926 111.057122 88.2049316 114.722322 88.9533301 114.722322 86.8708301 110.166853 85.9961801 110.166853 85.7723113 113.941384 84.0308207 110.166853 83.1483613 110.166853"></polygon>
            <path d="M91.3108176,114.136488 C91.585968,114.077571 91.8006824,113.954877 91.9549609,113.768407 C92.1098469,113.582543 92.1872898,113.352948 92.1872898,113.07962 C92.1872898,112.660517 92.0430333,112.335864 91.7545203,112.105661 C91.4660073,111.876065 91.0560151,111.761267 90.5245437,111.761267 C90.3465768,111.761267 90.1631432,111.778882 89.9742431,111.814111 C89.785343,111.849339 89.590369,111.902183 89.3893209,111.972641 L89.3893209,112.527497 C89.5484586,112.434565 89.7227812,112.364411 89.9122887,112.317034 C90.1024036,112.269657 90.3010221,112.245969 90.5081441,112.245969 C90.8683298,112.245969 91.1428727,112.317034 91.3317728,112.459165 C91.5206729,112.601296 91.615123,112.808114 91.615123,113.07962 C91.615123,113.330474 91.5273543,113.526359 91.3518169,113.667275 C91.1762795,113.808798 90.9321063,113.87956 90.6192975,113.87956 L90.1236625,113.87956 L90.1236625,114.352418 L90.6420748,114.352418 C90.9245139,114.352418 91.1407468,114.408906 91.2907736,114.521881 C91.4408004,114.634857 91.5158137,114.797639 91.5158137,115.010227 C91.5158137,115.228282 91.4383708,115.39562 91.2834848,115.51224 C91.1292063,115.629467 90.9078105,115.688081 90.6192975,115.688081 C90.4613746,115.688081 90.2922148,115.67077 90.1118183,115.636149 C89.9314217,115.602135 89.733107,115.549291 89.5168741,115.477618 L89.5168741,115.989653 C89.7355366,116.050393 89.940229,116.095947 90.1309512,116.126317 C90.3216735,116.156687 90.5014627,116.171872 90.6703187,116.171872 C91.1070363,116.171872 91.4523409,116.072563 91.7062323,115.873944 C91.9607312,115.675933 92.0879806,115.408072 92.0879806,115.07036 C92.0879806,114.83469 92.0205597,114.635768 91.8857178,114.473593 C91.7508759,114.311418 91.5592425,114.19905 91.3108176,114.136488 Z" id="DejaVuSans-33" fill="#000000" fill-rule="nonzero" transform="translate(90.788305, 113.966570) scale(-1, 1) rotate(-180.000000) translate(-90.788305, -113.966570) "></path>
            <polygon id="DejaVuSans-Oblique-77" fill="#000000" fill-rule="nonzero" transform="translate(85.896611, 130.878695) scale(-1, 1) rotate(-180.000000) translate(-85.896611, -130.878695) " points="82.839891 133.15643 83.5804801 133.15643 83.7705082 129.49123 85.4716504 133.15643 86.3371894 133.15643 86.5896926 129.49123 88.2049316 133.15643 88.9533301 133.15643 86.8708301 128.600961 85.9961801 128.600961 85.7723113 132.375492 84.0308207 128.600961 83.1483613 128.600961"></polygon>
            <path d="M91.148643,134.021971 L89.6963595,131.752436 L91.148643,131.752436 L91.148643,134.021971 Z M90.9974014,134.523072 L91.7208098,134.523072 L91.7208098,131.752436 L92.3275983,131.752436 L92.3275983,131.274112 L91.7208098,131.274112 L91.7208098,130.271909 L91.148643,130.271909 L91.148643,131.274112 L89.2298795,131.274112 L89.2298795,131.828968 L90.9974014,134.523072 Z" id="DejaVuSans-34" fill="#000000" fill-rule="nonzero" transform="translate(90.778739, 132.397491) scale(-1, 1) rotate(-180.000000) translate(-90.778739, -132.397491) "></path>
            <polygon id="DejaVuSans-31" fill="#000000" fill-rule="nonzero" transform="translate(127.201667, 155.591770) scale(-1, 1) rotate(-180.000000) translate(-127.201667, -155.591770) " points="125.51224 153.246355 126.854151 153.246355 126.854151 157.879918 125.393797 157.587066 125.393797 158.335464 126.846341 158.628316 127.667627 158.628316 127.667627 153.246355 129.009538 153.246355 129.009538 152.555225 125.51224 152.555225"></polygon>
            <path d="M36.57104,14.7264025 C36.2064567,14.7264025 35.9319775,14.6644233 35.7476025,14.540465 C35.5642692,14.4175483 35.4726025,14.2352567 35.4726025,13.99359 C35.4726025,13.7727567 35.5465608,13.5993192 35.6944775,13.4732775 C35.8434358,13.3482775 36.0496858,13.2857775 36.3132275,13.2857775 C36.6413525,13.2857775 36.917915,13.4034858 37.142915,13.6389025 C37.367915,13.8753608 37.480415,14.1711942 37.480415,14.5264025 L37.480415,14.7264025 L36.57104,14.7264025 Z M39.242915,15.3857775 L39.242915,12.265465 L37.480415,12.265465 L37.480415,13.0764025 C37.24604,12.7441108 36.9819775,12.5019233 36.6882275,12.34984 C36.3955192,12.1987983 36.0392692,12.1232775 35.6194775,12.1232775 C35.0528108,12.1232775 34.592915,12.2883817 34.23979,12.61859 C33.886665,12.94984 33.7101025,13.3790067 33.7101025,13.90609 C33.7101025,14.5477567 33.930415,15.0180692 34.37104,15.3170275 C34.8127067,15.6170275 35.505415,15.7670275 36.449165,15.7670275 L37.480415,15.7670275 L37.480415,15.902965 C37.480415,16.1800483 37.37104,16.3826525 37.15229,16.5107775 C36.9345817,16.6399442 36.5944775,16.7045275 36.1319775,16.7045275 C35.7580192,16.7045275 35.4095817,16.6670275 35.086665,16.5920275 C34.76479,16.5170275 34.4653108,16.4045275 34.1882275,16.2545275 L34.1882275,17.58734 C34.5632275,17.6790067 34.9392692,17.7482775 35.3163525,17.7951525 C35.6944775,17.8420275 36.0720817,17.865465 36.449165,17.865465 C37.4356233,17.865465 38.1476025,17.6711942 38.5851025,17.2826525 C39.0236442,16.8941108 39.242915,16.2618192 39.242915,15.3857775 Z" id="DejaVuSans-Bold-61" fill="#0000FF" fill-rule="nonzero" transform="translate(36.476509, 14.994371) scale(-1, 1) rotate(-180.000000) translate(-36.476509, -14.994371) "></path>
            <path d="M36.825728,53.804909 C37.1996863,53.804909 37.485103,53.9413673 37.681978,54.214284 C37.8798947,54.4882423 37.978853,54.8856382 37.978853,55.4064715 C37.978853,55.9273048 37.8798947,56.3241798 37.681978,56.5970965 C37.485103,56.8710548 37.1996863,57.008034 36.825728,57.008034 C36.4517697,57.008034 36.1642697,56.870534 35.963228,56.595534 C35.763228,56.320534 35.663228,55.9241798 35.663228,55.4064715 C35.663228,54.8887632 35.763228,54.492409 35.963228,54.217409 C36.1642697,53.942409 36.4517697,53.804909 36.825728,53.804909 Z M35.663228,57.345534 C35.9048947,57.664284 36.1720822,57.8991798 36.4647905,58.0502215 C36.7574988,58.2012632 37.094478,58.276784 37.475728,58.276784 C38.1496863,58.276784 38.7028113,58.0090757 39.135103,57.473659 C39.5684363,56.9382423 39.785103,56.2491798 39.785103,55.4064715 C39.785103,54.5637632 39.5684363,53.8741798 39.135103,53.3377215 C38.7028113,52.8023048 38.1496863,52.5345965 37.475728,52.5345965 C37.094478,52.5345965 36.7574988,52.6101173 36.4647905,52.761159 C36.1720822,52.9132423 35.9048947,53.148659 35.663228,53.467409 L35.663228,52.676784 L33.916353,52.676784 L33.916353,60.2752215 L35.663228,60.2752215 L35.663228,57.345534 Z" id="DejaVuSans-Bold-62" fill="#0000FF" fill-rule="nonzero" transform="translate(36.850728, 56.404909) scale(-1, 1) rotate(-180.000000) translate(-36.850728, -56.404909) "></path>
            <path d="M38.949947,102.383416 L38.949947,100.956853 C38.712447,101.119353 38.4739053,101.239666 38.234322,101.317791 C37.9947387,101.395916 37.7463012,101.434978 37.4890095,101.434978 C37.0015095,101.434978 36.621822,101.292791 36.349947,101.008416 C36.078072,100.724041 35.9421345,100.326124 35.9421345,99.814666 C35.9421345,99.303208 36.078072,98.90477 36.349947,98.619353 C36.621822,98.334978 37.0015095,98.192791 37.4890095,98.192791 C37.7629678,98.192791 38.0228637,98.233416 38.268697,98.314666 C38.5145303,98.396958 38.7416137,98.517791 38.949947,98.677166 L38.949947,97.245916 C38.6759887,97.1448743 38.3983845,97.0693535 38.1171345,97.0193535 C37.8358845,96.9683118 37.5535928,96.942791 37.2702595,96.942791 C36.2838012,96.942791 35.5119262,97.195916 34.9546345,97.702166 C34.3983845,98.208416 34.1202595,98.912583 34.1202595,99.814666 C34.1202595,100.716749 34.3983845,101.420395 34.9546345,101.925603 C35.5119262,102.431853 36.2838012,102.684978 37.2702595,102.684978 C37.5567178,102.684978 37.8390095,102.659978 38.1171345,102.609978 C38.3952595,102.559978 38.6728637,102.484458 38.949947,102.383416 Z" id="DejaVuSans-Bold-63" fill="#0000FF" fill-rule="nonzero" transform="translate(36.535103, 99.813885) scale(-1, 1) rotate(-180.000000) translate(-36.535103, -99.813885) "></path>
            <path d="M37.6366655,142.165045 L37.6366655,145.094733 L39.394478,145.094733 L39.394478,137.496295 L37.6366655,137.496295 L37.6366655,138.28692 C37.3960405,137.965045 37.1304155,137.729108 36.8397905,137.579108 C36.5502072,137.429108 36.2153113,137.354108 35.835103,137.354108 C35.1611447,137.354108 34.6074988,137.621816 34.1741655,138.157233 C33.7418738,138.693691 33.525728,139.383274 33.525728,140.225983 C33.525728,141.068691 33.7418738,141.757753 34.1741655,142.29317 C34.6074988,142.828587 35.1611447,143.096295 35.835103,143.096295 C36.2121863,143.096295 36.5465613,143.020774 36.838228,142.869733 C37.1298947,142.718691 37.3960405,142.483795 37.6366655,142.165045 Z M36.4835405,138.62442 C36.8585405,138.62442 37.144478,138.760878 37.341353,139.033795 C37.538228,139.307753 37.6366655,139.705149 37.6366655,140.225983 C37.6366655,140.746816 37.538228,141.143691 37.341353,141.416608 C37.144478,141.690566 36.8585405,141.827545 36.4835405,141.827545 C36.1127072,141.827545 35.828853,141.690566 35.631978,141.416608 C35.435103,141.143691 35.3366655,140.746816 35.3366655,140.225983 C35.3366655,139.705149 35.435103,139.307753 35.631978,139.033795 C35.828853,138.760878 36.1127072,138.62442 36.4835405,138.62442 Z" id="DejaVuSans-Bold-64" fill="#0000FF" fill-rule="nonzero" transform="translate(36.460103, 141.224421) scale(-1, 1) rotate(-180.000000) translate(-36.460103, -141.224421) "></path>
            <path d="M39.5616655,184.652927 L39.5616655,184.156052 L35.475728,184.156052 C35.5173947,183.745635 35.6653113,183.437823 35.919478,183.232615 C36.1736447,183.027406 36.5283322,182.924802 36.9835405,182.924802 C37.3512488,182.924802 37.7278113,182.979489 38.113228,183.088864 C38.4996863,183.198239 38.8965613,183.363344 39.303853,183.584177 L39.303853,182.237302 C38.8903113,182.081052 38.4767697,181.962823 38.063228,181.882615 C37.6496863,181.802406 37.2361447,181.762302 36.822603,181.762302 C35.8330197,181.762302 35.0637488,182.013865 34.5147905,182.516989 C33.9668738,183.020115 33.6929155,183.725844 33.6929155,184.634177 C33.6929155,185.525844 33.9621863,186.226885 34.500728,186.737302 C35.0392697,187.24876 35.7809363,187.50449 36.725728,187.50449 C37.585103,187.50449 38.272603,187.245635 38.788228,186.727927 C39.303853,186.21126 39.5616655,185.519594 39.5616655,184.652927 Z M37.7647905,185.234177 C37.7647905,185.566469 37.6679155,185.834177 37.4741655,186.037302 C37.2804155,186.241469 37.0272905,186.343552 36.7147905,186.343552 C36.3762488,186.343552 36.1012488,186.24824 35.8897905,186.057614 C35.6783322,185.86699 35.5465613,185.59251 35.494478,185.234177 L37.7647905,185.234177 Z" id="DejaVuSans-Bold-65" fill="#FF0000" fill-rule="nonzero" transform="translate(36.627291, 184.633396) scale(-1, 1) rotate(-180.000000) translate(-36.627291, -184.633396) "></path>
            <path d="M251.447138,14.7264025 C251.082555,14.7264025 250.808075,14.6644233 250.6237,14.540465 C250.440367,14.4175483 250.3487,14.2352567 250.3487,13.99359 C250.3487,13.7727567 250.422659,13.5993192 250.570575,13.4732775 C250.719534,13.3482775 250.925784,13.2857775 251.189325,13.2857775 C251.51745,13.2857775 251.794013,13.4034858 252.019013,13.6389025 C252.244013,13.8753608 252.356513,14.1711942 252.356513,14.5264025 L252.356513,14.7264025 L251.447138,14.7264025 Z M254.119013,15.3857775 L254.119013,12.265465 L252.356513,12.265465 L252.356513,13.0764025 C252.122138,12.7441108 251.858075,12.5019233 251.564325,12.34984 C251.271617,12.1987983 250.915367,12.1232775 250.495575,12.1232775 C249.928909,12.1232775 249.469013,12.2883817 249.115888,12.61859 C248.762763,12.94984 248.5862,13.3790067 248.5862,13.90609 C248.5862,14.5477567 248.806513,15.0180692 249.247138,15.3170275 C249.688805,15.6170275 250.381513,15.7670275 251.325263,15.7670275 L252.356513,15.7670275 L252.356513,15.902965 C252.356513,16.1800483 252.247138,16.3826525 252.028388,16.5107775 C251.81068,16.6399442 251.470575,16.7045275 251.008075,16.7045275 C250.634117,16.7045275 250.28568,16.6670275 249.962763,16.5920275 C249.640888,16.5170275 249.341409,16.4045275 249.064325,16.2545275 L249.064325,17.58734 C249.439325,17.6790067 249.815367,17.7482775 250.19245,17.7951525 C250.570575,17.8420275 250.94818,17.865465 251.325263,17.865465 C252.311721,17.865465 253.0237,17.6711942 253.4612,17.2826525 C253.899742,16.8941108 254.119013,16.2618192 254.119013,15.3857775 Z" id="DejaVuSans-Bold-61" fill="#0000FF" fill-rule="nonzero" transform="translate(251.352606, 14.994371) scale(-1, 1) rotate(-180.000000) translate(-251.352606, -14.994371) "></path>
            <path d="M251.701825,53.804909 C252.075783,53.804909 252.3612,53.9413673 252.558075,54.214284 C252.755992,54.4882423 252.85495,54.8856382 252.85495,55.4064715 C252.85495,55.9273048 252.755992,56.3241798 252.558075,56.5970965 C252.3612,56.8710548 252.075783,57.008034 251.701825,57.008034 C251.327867,57.008034 251.040367,56.870534 250.839325,56.595534 C250.639325,56.320534 250.539325,55.9241798 250.539325,55.4064715 C250.539325,54.8887632 250.639325,54.492409 250.839325,54.217409 C251.040367,53.942409 251.327867,53.804909 251.701825,53.804909 Z M250.539325,57.345534 C250.780992,57.664284 251.048179,57.8991798 251.340888,58.0502215 C251.633596,58.2012632 251.970575,58.276784 252.351825,58.276784 C253.025783,58.276784 253.578908,58.0090757 254.0112,57.473659 C254.444533,56.9382423 254.6612,56.2491798 254.6612,55.4064715 C254.6612,54.5637632 254.444533,53.8741798 254.0112,53.3377215 C253.578908,52.8023048 253.025783,52.5345965 252.351825,52.5345965 C251.970575,52.5345965 251.633596,52.6101173 251.340888,52.761159 C251.048179,52.9132423 250.780992,53.148659 250.539325,53.467409 L250.539325,52.676784 L248.79245,52.676784 L248.79245,60.2752215 L250.539325,60.2752215 L250.539325,57.345534 Z" id="DejaVuSans-Bold-62" fill="#0000FF" fill-rule="nonzero" transform="translate(251.726825, 56.404909) scale(-1, 1) rotate(-180.000000) translate(-251.726825, -56.404909) "></path>
            <path d="M253.826044,102.383416 L253.826044,100.956853 C253.588544,101.119353 253.350002,101.239666 253.110419,101.317791 C252.870836,101.395916 252.622398,101.434978 252.365106,101.434978 C251.877606,101.434978 251.497919,101.292791 251.226044,101.008416 C250.954169,100.724041 250.818231,100.326124 250.818231,99.814666 C250.818231,99.303208 250.954169,98.90477 251.226044,98.619353 C251.497919,98.334978 251.877606,98.192791 252.365106,98.192791 C252.639065,98.192791 252.898961,98.233416 253.144794,98.314666 C253.390627,98.396958 253.617711,98.517791 253.826044,98.677166 L253.826044,97.245916 C253.552086,97.1448743 253.274481,97.0693535 252.993231,97.0193535 C252.711981,96.9683118 252.42969,96.942791 252.146356,96.942791 C251.159898,96.942791 250.388023,97.195916 249.830731,97.702166 C249.274481,98.208416 248.996356,98.912583 248.996356,99.814666 C248.996356,100.716749 249.274481,101.420395 249.830731,101.925603 C250.388023,102.431853 251.159898,102.684978 252.146356,102.684978 C252.432815,102.684978 252.715106,102.659978 252.993231,102.609978 C253.271356,102.559978 253.548961,102.484458 253.826044,102.383416 Z" id="DejaVuSans-Bold-63" fill="#0000FF" fill-rule="nonzero" transform="translate(251.411200, 99.813885) scale(-1, 1) rotate(-180.000000) translate(-251.411200, -99.813885) "></path>
            <path d="M252.512763,142.165045 L252.512763,145.094733 L254.270575,145.094733 L254.270575,137.496295 L252.512763,137.496295 L252.512763,138.28692 C252.272138,137.965045 252.006513,137.729108 251.715888,137.579108 C251.426304,137.429108 251.091408,137.354108 250.7112,137.354108 C250.037242,137.354108 249.483596,137.621816 249.050263,138.157233 C248.617971,138.693691 248.401825,139.383274 248.401825,140.225983 C248.401825,141.068691 248.617971,141.757753 249.050263,142.29317 C249.483596,142.828587 250.037242,143.096295 250.7112,143.096295 C251.088283,143.096295 251.422658,143.020774 251.714325,142.869733 C252.005992,142.718691 252.272138,142.483795 252.512763,142.165045 Z M251.359638,138.62442 C251.734638,138.62442 252.020575,138.760878 252.21745,139.033795 C252.414325,139.307753 252.512763,139.705149 252.512763,140.225983 C252.512763,140.746816 252.414325,141.143691 252.21745,141.416608 C252.020575,141.690566 251.734638,141.827545 251.359638,141.827545 C250.988804,141.827545 250.70495,141.690566 250.508075,141.416608 C250.3112,141.143691 250.212763,140.746816 250.212763,140.225983 C250.212763,139.705149 250.3112,139.307753 250.508075,139.033795 C250.70495,138.760878 250.988804,138.62442 251.359638,138.62442 Z" id="DejaVuSans-Bold-64" fill="#FF0000" fill-rule="nonzero" transform="translate(251.336200, 141.224421) scale(-1, 1) rotate(-180.000000) translate(-251.336200, -141.224421) "></path>
            <path d="M254.437763,184.652927 L254.437763,184.156052 L250.351825,184.156052 C250.393492,183.745635 250.541408,183.437823 250.795575,183.232615 C251.049742,183.027406 251.404429,182.924802 251.859638,182.924802 C252.227346,182.924802 252.603908,182.979489 252.989325,183.088864 C253.375783,183.198239 253.772658,183.363344 254.17995,183.584177 L254.17995,182.237302 C253.766408,182.081052 253.352867,181.962823 252.939325,181.882615 C252.525783,181.802406 252.112242,181.762302 251.6987,181.762302 C250.709117,181.762302 249.939846,182.013865 249.390888,182.516989 C248.842971,183.020115 248.569013,183.725844 248.569013,184.634177 C248.569013,185.525844 248.838283,186.226885 249.376825,186.737302 C249.915367,187.24876 250.657033,187.50449 251.601825,187.50449 C252.4612,187.50449 253.1487,187.245635 253.664325,186.727927 C254.17995,186.21126 254.437763,185.519594 254.437763,184.652927 Z M252.640888,185.234177 C252.640888,185.566469 252.544013,185.834177 252.350263,186.037302 C252.156513,186.241469 251.903388,186.343552 251.590888,186.343552 C251.252346,186.343552 250.977346,186.24824 250.765888,186.057614 C250.554429,185.86699 250.422658,185.59251 250.370575,185.234177 L252.640888,185.234177 Z" id="DejaVuSans-Bold-65" fill="#0000FF" fill-rule="nonzero" transform="translate(251.503388, 184.633396) scale(-1, 1) rotate(-180.000000) translate(-251.503388, -184.633396) "></path>
            <polygon id="DejaVuSans-Bold-2e" fill="#000000" fill-rule="nonzero" transform="translate(47.242178, 214.387862) scale(-1, 1) rotate(-180.000000) translate(-47.242178, -214.387862) " points="46.5100493 215.174656 47.9743071 215.174656 47.9743071 213.601067 46.5100493 213.601067"></polygon>
            <polygon id="DejaVuSans-Bold-2e" fill="#000000" fill-rule="nonzero" transform="translate(50.406602, 214.387862) scale(-1, 1) rotate(-180.000000) translate(-50.406602, -214.387862) " points="49.6744731 215.174656 51.1387309 215.174656 51.1387309 213.601067 49.6744731 213.601067"></polygon>
            <polygon id="DejaVuSans-Bold-2e" fill="#000000" fill-rule="nonzero" transform="translate(53.571026, 214.387862) scale(-1, 1) rotate(-180.000000) translate(-53.571026, -214.387862) " points="52.8388969 215.174656 54.3031547 215.174656 54.3031547 213.601067 52.8388969 213.601067"></polygon>
            <path d="M60.3999989,212.917748 L60.3999989,212.503851 L56.996413,212.503851 C57.0311213,212.161974 57.1543359,211.905566 57.3660568,211.734627 C57.5777776,211.563689 57.8732323,211.47822 58.2524208,211.47822 C58.5587219,211.47822 58.8723984,211.523774 59.1934505,211.614884 C59.5153703,211.705993 59.8459672,211.843525 60.1852411,212.027479 L60.1852411,210.905532 C59.8407609,210.775376 59.4962807,210.676891 59.1518005,210.610077 C58.8073203,210.543264 58.4628401,210.509857 58.1183599,210.509857 C57.294037,210.509857 56.6532344,210.719409 56.1959521,211.138512 C55.7395375,211.557615 55.5113302,212.145487 55.5113302,212.902129 C55.5113302,213.644887 55.7356328,214.228855 56.184238,214.654032 C56.6328432,215.080077 57.2506515,215.293099 58.037663,215.293099 C58.7535224,215.293099 59.3262099,215.077474 59.7557255,214.646223 C60.1852411,214.215839 60.3999989,213.639681 60.3999989,212.917748 Z M58.9032021,213.401929 C58.9032021,213.678728 58.8225052,213.901729 58.6611114,214.070932 C58.4997177,214.241003 58.2888646,214.326038 58.0285521,214.326038 C57.7465469,214.326038 57.5174719,214.246643 57.3413271,214.087852 C57.1651823,213.929062 57.0554172,213.700421 57.0120318,213.401929 L58.9032021,213.401929 Z" id="DejaVuSans-Bold-65" fill="#000000" fill-rule="nonzero" transform="translate(57.955665, 212.901478) scale(-1, 1) rotate(-180.000000) translate(-57.955665, -212.901478) "></path>
            <path d="M63.0924436,215.174657 L63.0924436,213.880904 L64.5944467,213.880904 L64.5944467,212.839654 L63.0924436,212.839654 L63.0924436,210.908135 C63.0924436,210.696414 63.1345275,210.553242 63.2186952,210.478619 C63.3028629,210.403997 63.4698967,210.366685 63.7197967,210.366685 L64.4681952,210.366685 L64.4681952,209.325435 L63.2186952,209.325435 C62.6442723,209.325435 62.2368832,209.445179 61.996528,209.684666 C61.7570405,209.925022 61.6372967,210.332844 61.6372967,210.908135 L61.6372967,212.839654 L60.9123264,212.839654 L60.9123264,213.880904 L61.6372967,213.880904 L61.6372967,215.174657 L63.0924436,215.174657 Z" id="DejaVuSans-Bold-74" fill="#000000" fill-rule="nonzero" transform="translate(62.753387, 212.250046) scale(-1, 1) rotate(-180.000000) translate(-62.753387, -212.250046) "></path>
            <path d="M69.1660224,215.041898 L69.1660224,213.853571 C68.9681849,213.988934 68.7694797,214.089154 68.5699068,214.154232 C68.3703338,214.21931 68.1633854,214.251849 67.9490614,214.251849 C67.5429739,214.251849 67.2266943,214.133407 67.0002224,213.896523 C66.7737505,213.659638 66.6605146,213.328174 66.6605146,212.902129 C66.6605146,212.476084 66.7737505,212.144186 67.0002224,211.906434 C67.2266943,211.669549 67.5429739,211.551107 67.9490614,211.551107 C68.1772687,211.551107 68.393762,211.584948 68.5985411,211.652629 C68.8033203,211.721178 68.9924807,211.821832 69.1660224,211.954591 L69.1660224,210.76236 C68.9378151,210.678192 68.7065708,210.615284 68.4722896,210.573634 C68.2380083,210.531116 68.0028594,210.509857 67.7668427,210.509857 C66.9451229,210.509857 66.302151,210.72071 65.8379271,211.142416 C65.3745708,211.564123 65.1428927,212.150693 65.1428927,212.902129 C65.1428927,213.653564 65.3745708,214.239701 65.8379271,214.66054 C66.302151,215.082246 66.9451229,215.293099 67.7668427,215.293099 C68.0054625,215.293099 68.2406114,215.272274 68.4722896,215.230624 C68.7039677,215.188974 68.935212,215.126065 69.1660224,215.041898 Z" id="DejaVuSans-Bold-63" fill="#000000" fill-rule="nonzero" transform="translate(67.154458, 212.901478) scale(-1, 1) rotate(-180.000000) translate(-67.154458, -212.901478) "></path>
            <polygon id="DejaVuSans-Bold-2e" fill="#000000" fill-rule="nonzero" transform="translate(71.304815, 214.387862) scale(-1, 1) rotate(-180.000000) translate(-71.304815, -214.387862) " points="70.5726861 215.174656 72.0369439 215.174656 72.0369439 213.601067 70.5726861 213.601067"></polygon>
            <text id="21" fill="#0000FF" font-family="Helvetica" font-size="12" font-weight="normal">
                <tspan x="0.326171875" y="19">21</tspan>
            </text>
            <text id="22" fill="#0000FF" font-family="Helvetica" font-size="12" font-weight="normal">
                <tspan x="0.326171875" y="61">22</tspan>
            </text>
            <text id="23" fill="#0000FF" font-family="Helvetica" font-size="12" font-weight="normal">
                <tspan x="0.326171875" y="104">23</tspan>
            </text>
            <text id="24" fill="#0000FF" font-family="Helvetica" font-size="12" font-weight="normal">
                <tspan x="0.326171875" y="146">24</tspan>
            </text>
            <text id="25" fill="#FF0000" font-family="Helvetica-Bold, Helvetica" font-size="12" font-weight="bold">
                <tspan x="0.326171875" y="189">25</tspan>
            </text>
            <text id="21" fill="#0000FF" font-family="Helvetica" font-size="12" font-weight="normal">
                <tspan x="274.326172" y="19">21</tspan>
            </text>
            <text id="22" fill="#0000FF" font-family="Helvetica" font-size="12" font-weight="normal">
                <tspan x="274.326172" y="61">22</tspan>
            </text>
            <text id="23" fill="#0000FF" font-family="Helvetica" font-size="12" font-weight="normal">
                <tspan x="274.326172" y="104">23</tspan>
            </text>
            <text id="24" fill="#FF0000" font-family="Helvetica-Bold, Helvetica" font-size="12" font-weight="bold">
                <tspan x="274.326172" y="146">24</tspan>
            </text>
            <text id="25" fill="#0000FF" font-family="Helvetica" font-size="12" font-weight="normal">
                <tspan x="274.326172" y="189">25</tspan>
            </text>
        </g>
    </g>
</svg>