<?xml version="1.0" encoding="UTF-8"?>
<svg width="288px" height="232px" viewBox="0 0 288 232" version="1.1" xmlns="http://www.w3.org/2000/svg" xmlns:xlink="http://www.w3.org/1999/xlink">
    <!-- Generator: Sketch 47 (45396) - http://www.bohemiancoding.com/sketch -->
    <title>Group</title>
    <desc>Created with Sketch.</desc>
    <defs></defs>
    <g id="Page-1" stroke="none" stroke-width="1" fill="none" fill-rule="evenodd">
        <g id="Group">
            <polygon id="Shape" fill="#FFFFFF" fill-rule="nonzero" points="31 231.84 262.84 231.84 262.84 0 31 0"></polygon>
            <polygon id="Shape" stroke="#000000" fill="#000000" fill-rule="nonzero" points="115.819512 115.92 117.233171 122.988293 115.819512 122.988293 115.819512 172.466341 115.819512 172.466341 115.819512 122.988293 114.405854 122.988293"></polygon>
            <polygon id="Shape" stroke="#000000" fill="#000000" fill-rule="nonzero" points="158.229268 101.783415 151.160976 103.197073 151.160976 101.783415 129.956098 101.783415 129.956098 101.783415 151.160976 101.783415 151.160976 100.369756"></polygon>
            <polygon id="Shape" stroke="#000000" fill="#000000" fill-rule="nonzero" points="107.977946 90.021065 102.880927 84.924046 104.057162 84.13989 67.114737 28.726252 67.114737 28.726252 104.057162 84.13989 105.233397 83.355733"></polygon>
            <polygon id="Shape" stroke="#000000" fill="#000000" fill-rule="nonzero" points="104.510244 93.301463 98.007415 90.191415 98.85561 89.060488 70.582439 67.85561 70.582439 67.85561 98.85561 89.060488 99.703805 87.929561"></polygon>
            <polygon id="Shape" stroke="#000000" fill="#000000" fill-rule="nonzero" points="101.682927 101.783415 94.614634 103.197073 94.614634 101.783415 73.409756 101.783415 73.409756 101.783415 94.614634 101.783415 94.614634 100.369756"></polygon>
            <polygon id="Shape" stroke="#000000" fill="#000000" fill-rule="nonzero" points="104.510244 110.265366 99.703805 115.637268 98.85561 114.506341 70.582439 135.71122 70.582439 135.71122 98.85561 114.506341 98.007415 113.375415"></polygon>
            <polygon id="Shape" stroke="#000000" fill="#000000" fill-rule="nonzero" points="107.977946 113.545765 105.233397 120.211096 104.057162 119.42694 67.114737 174.840577 67.114737 174.840577 104.057162 119.42694 102.880927 118.642783"></polygon>
            <polygon id="Shape" stroke="#000000" fill="#000000" fill-rule="nonzero" points="221.070628 28.726252 218.32608 35.391584 217.149845 34.607427 180.20742 90.021065 180.20742 90.021065 217.149845 34.607427 215.97361 33.823271"></polygon>
            <polygon id="Shape" stroke="#000000" fill="#000000" fill-rule="nonzero" points="217.602927 67.85561 212.796488 73.227512 211.948293 72.096585 183.675122 93.301463 183.675122 93.301463 211.948293 72.096585 211.100098 70.965659"></polygon>
            <polygon id="Shape" stroke="#000000" fill="#000000" fill-rule="nonzero" points="214.77561 101.783415 207.707317 103.197073 207.707317 101.783415 186.502439 101.783415 186.502439 101.783415 207.707317 101.783415 207.707317 100.369756"></polygon>
            <polygon id="Shape" stroke="#000000" fill="#000000" fill-rule="nonzero" points="217.602927 135.71122 211.100098 132.601171 211.948293 131.470244 183.675122 110.265366 183.675122 110.265366 211.948293 131.470244 212.796488 130.339317"></polygon>
            <polygon id="Shape" stroke="#000000" fill="#000000" fill-rule="nonzero" points="221.070628 174.840577 215.97361 169.743558 217.149845 168.959402 180.20742 113.545765 180.20742 113.545765 217.149845 168.959402 218.32608 168.175245"></polygon>
            <path d="M115.819512,115.92 C119.568578,115.92 123.164597,114.43048 125.815588,111.77949 C128.466578,109.1285 129.956098,105.532481 129.956098,101.783415 C129.956098,98.034348 128.466578,94.438329 125.815588,91.787339 C123.164597,89.136349 119.568578,87.646829 115.819512,87.646829 C112.070446,87.646829 108.474427,89.136349 105.823437,91.787339 C103.172447,94.438329 101.682927,98.034348 101.682927,101.783415 C101.682927,105.532481 103.172447,109.1285 105.823437,111.77949 C108.474427,114.43048 112.070446,115.92 115.819512,115.92 Z" id="Shape" stroke="#000000" fill="#B2B2B2" fill-rule="nonzero"></path>
            <path d="M115.819512,115.92 C119.568578,115.92 123.164597,114.43048 125.815588,111.77949 C128.466578,109.1285 129.956098,105.532481 129.956098,101.783415 C129.956098,98.034348 128.466578,94.438329 125.815588,91.787339 C123.164597,89.136349 119.568578,87.646829 115.819512,87.646829 C112.070446,87.646829 108.474427,89.136349 105.823437,91.787339 C103.172447,94.438329 101.682927,98.034348 101.682927,101.783415 C101.682927,105.532481 103.172447,109.1285 105.823437,111.77949 C108.474427,114.43048 112.070446,115.92 115.819512,115.92 Z" id="Shape" stroke="#000000"></path>
            <path d="M172.365854,115.92 C176.11492,115.92 179.710939,114.43048 182.361929,111.77949 C185.012919,109.1285 186.502439,105.532481 186.502439,101.783415 C186.502439,98.034348 185.012919,94.438329 182.361929,91.787339 C179.710939,89.136349 176.11492,87.646829 172.365854,87.646829 C168.616787,87.646829 165.020768,89.136349 162.369778,91.787339 C159.718788,94.438329 158.229268,98.034348 158.229268,101.783415 C158.229268,105.532481 159.718788,109.1285 162.369778,111.77949 C165.020768,114.43048 168.616787,115.92 172.365854,115.92 Z" id="Shape" stroke="#000000" fill="#B2B2B2" fill-rule="nonzero"></path>
            <path d="M172.365854,115.92 C176.11492,115.92 179.710939,114.43048 182.361929,111.77949 C185.012919,109.1285 186.502439,105.532481 186.502439,101.783415 C186.502439,98.034348 185.012919,94.438329 182.361929,91.787339 C179.710939,89.136349 176.11492,87.646829 172.365854,87.646829 C168.616787,87.646829 165.020768,89.136349 162.369778,91.787339 C159.718788,94.438329 158.229268,98.034348 158.229268,101.783415 C158.229268,105.532481 159.718788,109.1285 162.369778,111.77949 C165.020768,114.43048 168.616787,115.92 172.365854,115.92 Z" id="Shape" stroke="#000000"></path>
            <path d="M115.819512,200.739512 C119.568578,200.739512 123.164597,199.249992 125.815588,196.599002 C128.466578,193.948012 129.956098,190.351993 129.956098,186.602927 C129.956098,182.853861 128.466578,179.257842 125.815588,176.606851 C123.164597,173.955861 119.568578,172.466341 115.819512,172.466341 C112.070446,172.466341 108.474427,173.955861 105.823437,176.606851 C103.172447,179.257842 101.682927,182.853861 101.682927,186.602927 C101.682927,190.351993 103.172447,193.948012 105.823437,196.599002 C108.474427,199.249992 112.070446,200.739512 115.819512,200.739512 Z" id="Shape" stroke="#000000"></path>
            <path d="M59.273171,31.100488 C63.022237,31.100488 66.618256,29.610968 69.269246,26.959978 C71.920236,24.308988 73.409756,20.712969 73.409756,16.963902 C73.409756,13.214836 71.920236,9.618817 69.269246,6.967827 C66.618256,4.316837 63.022237,2.827317 59.273171,2.827317 C55.524104,2.827317 51.928086,4.316837 49.277095,6.967827 C46.626105,9.618817 45.136585,13.214836 45.136585,16.963902 C45.136585,20.712969 46.626105,24.308988 49.277095,26.959978 C51.928086,29.610968 55.524104,31.100488 59.273171,31.100488 Z" id="Shape" stroke="#000000"></path>
            <path d="M59.273171,73.510244 C63.022237,73.510244 66.618256,72.020724 69.269246,69.369734 C71.920236,66.718744 73.409756,63.122725 73.409756,59.373659 C73.409756,55.624592 71.920236,52.028573 69.269246,49.377583 C66.618256,46.726593 63.022237,45.237073 59.273171,45.237073 C55.524104,45.237073 51.928086,46.726593 49.277095,49.377583 C46.626105,52.028573 45.136585,55.624592 45.136585,59.373659 C45.136585,63.122725 46.626105,66.718744 49.277095,69.369734 C51.928086,72.020724 55.524104,73.510244 59.273171,73.510244 Z" id="Shape" stroke="#000000"></path>
            <path d="M59.273171,115.92 C63.022237,115.92 66.618256,114.43048 69.269246,111.77949 C71.920236,109.1285 73.409756,105.532481 73.409756,101.783415 C73.409756,98.034348 71.920236,94.438329 69.269246,91.787339 C66.618256,89.136349 63.022237,87.646829 59.273171,87.646829 C55.524104,87.646829 51.928086,89.136349 49.277095,91.787339 C46.626105,94.438329 45.136585,98.034348 45.136585,101.783415 C45.136585,105.532481 46.626105,109.1285 49.277095,111.77949 C51.928086,114.43048 55.524104,115.92 59.273171,115.92 Z" id="Shape" stroke="#000000"></path>
            <path d="M59.273171,158.329756 C63.022237,158.329756 66.618256,156.840236 69.269246,154.189246 C71.920236,151.538256 73.409756,147.942237 73.409756,144.193171 C73.409756,140.444104 71.920236,136.848086 69.269246,134.197095 C66.618256,131.546105 63.022237,130.056585 59.273171,130.056585 C55.524104,130.056585 51.928086,131.546105 49.277095,134.197095 C46.626105,136.848086 45.136585,140.444104 45.136585,144.193171 C45.136585,147.942237 46.626105,151.538256 49.277095,154.189246 C51.928086,156.840236 55.524104,158.329756 59.273171,158.329756 Z" id="Shape" stroke="#000000"></path>
            <path d="M59.273171,200.739512 C63.022237,200.739512 66.618256,199.249992 69.269246,196.599002 C71.920236,193.948012 73.409756,190.351993 73.409756,186.602927 C73.409756,182.853861 71.920236,179.257842 69.269246,176.606851 C66.618256,173.955861 63.022237,172.466341 59.273171,172.466341 C55.524104,172.466341 51.928086,173.955861 49.277095,176.606851 C46.626105,179.257842 45.136585,182.853861 45.136585,186.602927 C45.136585,190.351993 46.626105,193.948012 49.277095,196.599002 C51.928086,199.249992 55.524104,200.739512 59.273171,200.739512 Z" id="Shape" stroke="#000000"></path>
            <path d="M228.912195,31.100488 C232.661261,31.100488 236.25728,29.610968 238.90827,26.959978 C241.559261,24.308988 243.04878,20.712969 243.04878,16.963902 C243.04878,13.214836 241.559261,9.618817 238.90827,6.967827 C236.25728,4.316837 232.661261,2.827317 228.912195,2.827317 C225.163129,2.827317 221.56711,4.316837 218.91612,6.967827 C216.26513,9.618817 214.77561,13.214836 214.77561,16.963902 C214.77561,20.712969 216.26513,24.308988 218.91612,26.959978 C221.56711,29.610968 225.163129,31.100488 228.912195,31.100488 Z" id="Shape" stroke="#000000"></path>
            <path d="M228.912195,73.510244 C232.661261,73.510244 236.25728,72.020724 238.90827,69.369734 C241.559261,66.718744 243.04878,63.122725 243.04878,59.373659 C243.04878,55.624592 241.559261,52.028573 238.90827,49.377583 C236.25728,46.726593 232.661261,45.237073 228.912195,45.237073 C225.163129,45.237073 221.56711,46.726593 218.91612,49.377583 C216.26513,52.028573 214.77561,55.624592 214.77561,59.373659 C214.77561,63.122725 216.26513,66.718744 218.91612,69.369734 C221.56711,72.020724 225.163129,73.510244 228.912195,73.510244 Z" id="Shape" stroke="#000000"></path>
            <path d="M228.912195,115.92 C232.661261,115.92 236.25728,114.43048 238.90827,111.77949 C241.559261,109.1285 243.04878,105.532481 243.04878,101.783415 C243.04878,98.034348 241.559261,94.438329 238.90827,91.787339 C236.25728,89.136349 232.661261,87.646829 228.912195,87.646829 C225.163129,87.646829 221.56711,89.136349 218.91612,91.787339 C216.26513,94.438329 214.77561,98.034348 214.77561,101.783415 C214.77561,105.532481 216.26513,109.1285 218.91612,111.77949 C221.56711,114.43048 225.163129,115.92 228.912195,115.92 Z" id="Shape" stroke="#000000"></path>
            <path d="M228.912195,158.329756 C232.661261,158.329756 236.25728,156.840236 238.90827,154.189246 C241.559261,151.538256 243.04878,147.942237 243.04878,144.193171 C243.04878,140.444104 241.559261,136.848086 238.90827,134.197095 C236.25728,131.546105 232.661261,130.056585 228.912195,130.056585 C225.163129,130.056585 221.56711,131.546105 218.91612,134.197095 C216.26513,136.848086 214.77561,140.444104 214.77561,144.193171 C214.77561,147.942237 216.26513,151.538256 218.91612,154.189246 C221.56711,156.840236 225.163129,158.329756 228.912195,158.329756 Z" id="Shape" stroke="#000000"></path>
            <path d="M228.912195,200.739512 C232.661261,200.739512 236.25728,199.249992 238.90827,196.599002 C241.559261,193.948012 243.04878,190.351993 243.04878,186.602927 C243.04878,182.853861 241.559261,179.257842 238.90827,176.606851 C236.25728,173.955861 232.661261,172.466341 228.912195,172.466341 C225.163129,172.466341 221.56711,173.955861 218.91612,176.606851 C216.26513,179.257842 214.77561,182.853861 214.77561,186.602927 C214.77561,190.351993 216.26513,193.948012 218.91612,196.599002 C221.56711,199.249992 225.163129,200.739512 228.912195,200.739512 Z" id="Shape" stroke="#000000"></path>
            <path d="M87.546341,59.373659 C91.295408,59.373659 94.891427,57.884139 97.542417,55.233149 C100.193407,52.582158 101.682927,48.986139 101.682927,45.237073 C101.682927,41.488007 100.193407,37.891988 97.542417,35.240998 C94.891427,32.590008 91.295408,31.100488 87.546341,31.100488 C83.797275,31.100488 80.201256,32.590008 77.550266,35.240998 C74.899276,37.891988 73.409756,41.488007 73.409756,45.237073 C73.409756,48.986139 74.899276,52.582158 77.550266,55.233149 C80.201256,57.884139 83.797275,59.373659 87.546341,59.373659 Z" id="Shape"></path>
            <path d="M87.546341,86.233171 C91.295408,86.233171 94.891427,84.743651 97.542417,82.092661 C100.193407,79.441671 101.682927,75.845652 101.682927,72.096585 C101.682927,68.347519 100.193407,64.7515 97.542417,62.10051 C94.891427,59.44952 91.295408,57.96 87.546341,57.96 C83.797275,57.96 80.201256,59.44952 77.550266,62.10051 C74.899276,64.7515 73.409756,68.347519 73.409756,72.096585 C73.409756,75.845652 74.899276,79.441671 77.550266,82.092661 C80.201256,84.743651 83.797275,86.233171 87.546341,86.233171 Z" id="Shape"></path>
            <path d="M87.546341,110.265366 C91.295408,110.265366 94.891427,108.775846 97.542417,106.124856 C100.193407,103.473866 101.682927,99.877847 101.682927,96.12878 C101.682927,92.379714 100.193407,88.783695 97.542417,86.132705 C94.891427,83.481715 91.295408,81.992195 87.546341,81.992195 C83.797275,81.992195 80.201256,83.481715 77.550266,86.132705 C74.899276,88.783695 73.409756,92.379714 73.409756,96.12878 C73.409756,99.877847 74.899276,103.473866 77.550266,106.124856 C80.201256,108.775846 83.797275,110.265366 87.546341,110.265366 Z" id="Shape"></path>
            <path d="M87.546341,128.58638 C91.295408,128.58638 94.891427,127.096861 97.542417,124.44587 C100.193407,121.79488 101.682927,118.198861 101.682927,114.449795 C101.682927,110.700729 100.193407,107.10471 97.542417,104.45372 C94.891427,101.80273 91.295408,100.31321 87.546341,100.31321 C83.797275,100.31321 80.201256,101.80273 77.550266,104.45372 C74.899276,107.10471 73.409756,110.700729 73.409756,114.449795 C73.409756,118.198861 74.899276,121.79488 77.550266,124.44587 C80.201256,127.096861 83.797275,128.58638 87.546341,128.58638 Z" id="Shape"></path>
            <path d="M87.546341,147.020488 C91.295408,147.020488 94.891427,145.530968 97.542417,142.879978 C100.193407,140.228988 101.682927,136.632969 101.682927,132.883902 C101.682927,129.134836 100.193407,125.538817 97.542417,122.887827 C94.891427,120.236837 91.295408,118.747317 87.546341,118.747317 C83.797275,118.747317 80.201256,120.236837 77.550266,122.887827 C74.899276,125.538817 73.409756,129.134836 73.409756,132.883902 C73.409756,136.632969 74.899276,140.228988 77.550266,142.879978 C80.201256,145.530968 83.797275,147.020488 87.546341,147.020488 Z" id="Shape"></path>
            <path d="M127.12878,172.466341 C130.877847,172.466341 134.473866,170.976822 137.124856,168.325831 C139.775846,165.674841 141.265366,162.078822 141.265366,158.329756 C141.265366,154.58069 139.775846,150.984671 137.124856,148.333681 C134.473866,145.682691 130.877847,144.193171 127.12878,144.193171 C123.379714,144.193171 119.783695,145.682691 117.132705,148.333681 C114.481715,150.984671 112.992195,154.58069 112.992195,158.329756 C112.992195,162.078822 114.481715,165.674841 117.132705,168.325831 C119.783695,170.976822 123.379714,172.466341 127.12878,172.466341 Z" id="Shape"></path>
            <path d="M36.654634,31.100488 C40.4037,31.100488 43.999719,29.610968 46.65071,26.959978 C49.3017,24.308988 50.79122,20.712969 50.79122,16.963902 C50.79122,13.214836 49.3017,9.618817 46.65071,6.967827 C43.999719,4.316837 40.4037,2.827317 36.654634,2.827317 C32.905568,2.827317 29.309549,4.316837 26.658559,6.967827 C24.007569,9.618817 22.518049,13.214836 22.518049,16.963902 C22.518049,20.712969 24.007569,24.308988 26.658559,26.959978 C29.309549,29.610968 32.905568,31.100488 36.654634,31.100488 Z" id="Shape"></path>
            <path d="M36.654634,73.510244 C40.4037,73.510244 43.999719,72.020724 46.65071,69.369734 C49.3017,66.718744 50.79122,63.122725 50.79122,59.373659 C50.79122,55.624592 49.3017,52.028573 46.65071,49.377583 C43.999719,46.726593 40.4037,45.237073 36.654634,45.237073 C32.905568,45.237073 29.309549,46.726593 26.658559,49.377583 C24.007569,52.028573 22.518049,55.624592 22.518049,59.373659 C22.518049,63.122725 24.007569,66.718744 26.658559,69.369734 C29.309549,72.020724 32.905568,73.510244 36.654634,73.510244 Z" id="Shape"></path>
            <path d="M36.654634,115.92 C40.4037,115.92 43.999719,114.43048 46.65071,111.77949 C49.3017,109.1285 50.79122,105.532481 50.79122,101.783415 C50.79122,98.034348 49.3017,94.438329 46.65071,91.787339 C43.999719,89.136349 40.4037,87.646829 36.654634,87.646829 C32.905568,87.646829 29.309549,89.136349 26.658559,91.787339 C24.007569,94.438329 22.518049,98.034348 22.518049,101.783415 C22.518049,105.532481 24.007569,109.1285 26.658559,111.77949 C29.309549,114.43048 32.905568,115.92 36.654634,115.92 Z" id="Shape"></path>
            <path d="M36.654634,158.329756 C40.4037,158.329756 43.999719,156.840236 46.65071,154.189246 C49.3017,151.538256 50.79122,147.942237 50.79122,144.193171 C50.79122,140.444104 49.3017,136.848086 46.65071,134.197095 C43.999719,131.546105 40.4037,130.056585 36.654634,130.056585 C32.905568,130.056585 29.309549,131.546105 26.658559,134.197095 C24.007569,136.848086 22.518049,140.444104 22.518049,144.193171 C22.518049,147.942237 24.007569,151.538256 26.658559,154.189246 C29.309549,156.840236 32.905568,158.329756 36.654634,158.329756 Z" id="Shape"></path>
            <path d="M36.654634,200.739512 C40.4037,200.739512 43.999719,199.249992 46.65071,196.599002 C49.3017,193.948012 50.79122,190.351993 50.79122,186.602927 C50.79122,182.853861 49.3017,179.257842 46.65071,176.606851 C43.999719,173.955861 40.4037,172.466341 36.654634,172.466341 C32.905568,172.466341 29.309549,173.955861 26.658559,176.606851 C24.007569,179.257842 22.518049,182.853861 22.518049,186.602927 C22.518049,190.351993 24.007569,193.948012 26.658559,196.599002 C29.309549,199.249992 32.905568,200.739512 36.654634,200.739512 Z" id="Shape"></path>
            <path d="M251.530732,31.100488 C255.279798,31.100488 258.875817,29.610968 261.526807,26.959978 C264.177797,24.308988 265.667317,20.712969 265.667317,16.963902 C265.667317,13.214836 264.177797,9.618817 261.526807,6.967827 C258.875817,4.316837 255.279798,2.827317 251.530732,2.827317 C247.781665,2.827317 244.185647,4.316837 241.534656,6.967827 C238.883666,9.618817 237.394146,13.214836 237.394146,16.963902 C237.394146,20.712969 238.883666,24.308988 241.534656,26.959978 C244.185647,29.610968 247.781665,31.100488 251.530732,31.100488 Z" id="Shape"></path>
            <path d="M251.530732,73.510244 C255.279798,73.510244 258.875817,72.020724 261.526807,69.369734 C264.177797,66.718744 265.667317,63.122725 265.667317,59.373659 C265.667317,55.624592 264.177797,52.028573 261.526807,49.377583 C258.875817,46.726593 255.279798,45.237073 251.530732,45.237073 C247.781665,45.237073 244.185647,46.726593 241.534656,49.377583 C238.883666,52.028573 237.394146,55.624592 237.394146,59.373659 C237.394146,63.122725 238.883666,66.718744 241.534656,69.369734 C244.185647,72.020724 247.781665,73.510244 251.530732,73.510244 Z" id="Shape"></path>
            <path d="M251.530732,115.92 C255.279798,115.92 258.875817,114.43048 261.526807,111.77949 C264.177797,109.1285 265.667317,105.532481 265.667317,101.783415 C265.667317,98.034348 264.177797,94.438329 261.526807,91.787339 C258.875817,89.136349 255.279798,87.646829 251.530732,87.646829 C247.781665,87.646829 244.185647,89.136349 241.534656,91.787339 C238.883666,94.438329 237.394146,98.034348 237.394146,101.783415 C237.394146,105.532481 238.883666,109.1285 241.534656,111.77949 C244.185647,114.43048 247.781665,115.92 251.530732,115.92 Z" id="Shape"></path>
            <path d="M251.530732,158.329756 C255.279798,158.329756 258.875817,156.840236 261.526807,154.189246 C264.177797,151.538256 265.667317,147.942237 265.667317,144.193171 C265.667317,140.444104 264.177797,136.848086 261.526807,134.197095 C258.875817,131.546105 255.279798,130.056585 251.530732,130.056585 C247.781665,130.056585 244.185647,131.546105 241.534656,134.197095 C238.883666,136.848086 237.394146,140.444104 237.394146,144.193171 C237.394146,147.942237 238.883666,151.538256 241.534656,154.189246 C244.185647,156.840236 247.781665,158.329756 251.530732,158.329756 Z" id="Shape"></path>
            <path d="M251.530732,200.739512 C255.279798,200.739512 258.875817,199.249992 261.526807,196.599002 C264.177797,193.948012 265.667317,190.351993 265.667317,186.602927 C265.667317,182.853861 264.177797,179.257842 261.526807,176.606851 C258.875817,173.955861 255.279798,172.466341 251.530732,172.466341 C247.781665,172.466341 244.185647,173.955861 241.534656,176.606851 C238.883666,179.257842 237.394146,182.853861 237.394146,186.602927 C237.394146,190.351993 238.883666,193.948012 241.534656,196.599002 C244.185647,199.249992 247.781665,200.739512 251.530732,200.739512 Z" id="Shape"></path>
            <path d="M59.273171,229.012683 C63.022237,229.012683 66.618256,227.523163 69.269246,224.872173 C71.920236,222.221183 73.409756,218.625164 73.409756,214.876098 C73.409756,211.127031 71.920236,207.531012 69.269246,204.880022 C66.618256,202.229032 63.022237,200.739512 59.273171,200.739512 C55.524104,200.739512 51.928086,202.229032 49.277095,204.880022 C46.626105,207.531012 45.136585,211.127031 45.136585,214.876098 C45.136585,218.625164 46.626105,222.221183 49.277095,224.872173 C51.928086,227.523163 55.524104,229.012683 59.273171,229.012683 Z" id="Shape"></path>
            <polygon id="DejaVuSans-3a3" fill="#000000" fill-rule="nonzero" transform="translate(115.989824, 100.897477) scale(-1, 1) rotate(-180.000000) translate(-115.989824, -100.897477) " points="114.774199 98.0818525 118.338262 98.0818525 118.338262 97.252165 113.641387 97.252165 113.641387 98.0818525 115.980449 101.128727 113.641387 103.71154 113.641387 104.54279 118.250762 104.54279 118.250762 103.71154 114.774199 103.71154 117.113262 101.14904"></polygon>
            <path d="M168.295541,104.541228 L168.154916,103.79279 L167.295541,103.79279 C166.9695,103.79279 166.732521,103.728728 166.584604,103.600602 C166.436687,103.472477 166.326791,103.237061 166.254916,102.894352 L166.158041,102.41154 L167.637729,102.41154 L167.504916,101.713103 L166.025229,101.713103 L165.098666,96.94279 L164.193979,96.94279 L165.126791,101.713103 L164.267416,101.713103 L164.395541,102.41154 L165.254916,102.41154 L165.326791,102.79279 C165.45075,103.437582 165.667937,103.890186 165.978354,104.150603 C166.289812,104.411019 166.779396,104.541228 167.447104,104.541228 L168.295541,104.541228 Z" id="DejaVuSans-Oblique-66" fill="#000000" fill-rule="nonzero" transform="translate(166.244760, 100.742009) scale(-1, 1) rotate(-180.000000) translate(-166.244760, -100.742009) "></path>
            <path d="M170.136362,105.859977 C169.700945,105.112061 169.376987,104.371436 169.164487,103.638103 C168.953028,102.905811 168.847299,102.163623 168.847299,101.41154 C168.847299,100.660498 168.95407,99.9162275 169.167612,99.1787275 C169.381153,98.4412275 169.70407,97.6995608 170.136362,96.9537275 L169.355112,96.9537275 C168.867612,97.7193525 168.502508,98.4714358 168.259799,99.2099775 C168.017091,99.9485192 167.895737,100.682373 167.895737,101.41154 C167.895737,102.137582 168.016049,102.868311 168.256674,103.603727 C168.498341,104.340186 168.864487,105.092269 169.355112,105.859977 L170.136362,105.859977 Z" id="DejaVuSans-28" fill="#000000" fill-rule="nonzero" transform="translate(169.016049, 101.406852) scale(-1, 1) rotate(-180.000000) translate(-169.016049, -101.406852) "></path>
            <polygon id="DejaVuSans-3a3" fill="#000000" fill-rule="nonzero" transform="translate(174.267416, 100.895915) scale(-1, 1) rotate(-180.000000) translate(-174.267416, -100.895915) " points="173.051792 98.08029 176.615854 98.08029 176.615854 97.2506025 171.918979 97.2506025 171.918979 98.08029 174.258042 101.127165 171.918979 103.709977 171.918979 104.541228 176.528354 104.541228 176.528354 103.709977 173.051792 103.709977 175.390854 101.147477"></polygon>
            <path d="M178.057651,105.859977 L178.838901,105.859977 C179.326401,105.092269 179.691505,104.340186 179.934213,103.603727 C180.176922,102.868311 180.298276,102.137582 180.298276,101.41154 C180.298276,100.682373 180.176922,99.9485192 179.934213,99.2099775 C179.691505,98.4714358 179.326401,97.7193525 178.838901,96.9537275 L178.057651,96.9537275 C178.489943,97.6995608 178.812859,98.4412275 179.026401,99.1787275 C179.239943,99.9162275 179.346713,100.660498 179.346713,101.41154 C179.346713,102.163623 179.239943,102.905811 179.026401,103.638103 C178.812859,104.371436 178.489943,105.112061 178.057651,105.859977 Z" id="DejaVuSans-29" fill="#000000" fill-rule="nonzero" transform="translate(179.177963, 101.406852) scale(-1, 1) rotate(-180.000000) translate(-179.177963, -101.406852) "></path>
            <path d="M117.571074,185.245114 C117.571074,185.71699 117.462741,186.08626 117.246074,186.352927 C117.029408,186.619594 116.73097,186.752927 116.350762,186.752927 C116.073679,186.752927 115.813783,186.685219 115.571074,186.549802 C115.328366,186.415427 115.117429,186.219594 114.938262,185.962302 C114.74972,185.69251 114.600762,185.378969 114.491387,185.021677 C114.383054,184.665427 114.328887,184.310219 114.328887,183.956052 C114.328887,183.506052 114.435137,183.153448 114.647637,182.89824 C114.861179,182.643031 115.155449,182.515427 115.530449,182.515427 C115.812741,182.515427 116.074199,182.581052 116.314824,182.712302 C116.556491,182.844594 116.76847,183.039385 116.950762,183.296677 C117.136179,183.563344 117.285658,183.87376 117.399199,184.227927 C117.513783,184.583135 117.571074,184.922198 117.571074,185.245114 Z M114.777324,186.543552 C114.999199,186.84251 115.276804,187.077406 115.610137,187.24824 C115.94347,187.419073 116.292429,187.50449 116.657012,187.50449 C117.217429,187.50449 117.662741,187.315427 117.992949,186.937302 C118.323158,186.560219 118.488262,186.049802 118.488262,185.406052 C118.488262,184.877927 118.391387,184.366469 118.197637,183.871677 C118.003887,183.376885 117.728366,182.937823 117.371074,182.55449 C117.136699,182.300323 116.866387,182.104489 116.560137,181.96699 C116.253887,181.830531 115.933054,181.762302 115.597637,181.762302 C115.24347,181.762302 114.936179,181.843552 114.675762,182.006052 C114.415345,182.169594 114.203366,182.412302 114.039824,182.734177 L113.878887,181.90449 L112.980449,181.90449 L114.460137,189.502927 L115.358574,189.502927 L114.777324,186.543552 Z" id="DejaVuSans-Oblique-62" fill="#000000" fill-rule="nonzero" transform="translate(115.734356, 185.632615) scale(-1, 1) rotate(-180.000000) translate(-115.734356, -185.632615) "></path>
            <path d="M59.270046,19.0842145 C58.7627543,19.0842145 58.3809835,18.8342145 58.1247335,18.3342145 C57.8695252,17.8352562 57.741921,17.0842145 57.741921,16.0810895 C57.741921,15.0821312 57.8695252,14.332652 58.1247335,13.832652 C58.3809835,13.332652 58.7627543,13.082652 59.270046,13.082652 C59.7815043,13.082652 60.1648377,13.332652 60.420046,13.832652 C60.676296,14.332652 60.804421,15.0821312 60.804421,16.0810895 C60.804421,17.0842145 60.676296,17.8352562 60.420046,18.3342145 C60.1648377,18.8342145 59.7815043,19.0842145 59.270046,19.0842145 Z M59.270046,19.8654645 C60.0877543,19.8654645 60.7122335,19.542027 61.1434835,18.895152 C61.5747335,18.2493187 61.7903585,17.3112978 61.7903585,16.0810895 C61.7903585,14.8540062 61.5747335,13.917027 61.1434835,13.270152 C60.7122335,12.6243187 60.0877543,12.301402 59.270046,12.301402 C58.4533793,12.301402 57.829421,12.6243187 57.398171,13.270152 C56.966921,13.917027 56.751296,14.8540062 56.751296,16.0810895 C56.751296,17.3112978 56.966921,18.2493187 57.398171,18.895152 C57.829421,19.542027 58.4533793,19.8654645 59.270046,19.8654645 Z" id="DejaVuSans-30" fill="#000000" fill-rule="nonzero" transform="translate(59.270827, 16.083433) scale(-1, 1) rotate(-180.000000) translate(-59.270827, -16.083433) "></path>
            <polygon id="DejaVuSans-31" fill="#000000" fill-rule="nonzero" transform="translate(59.360671, 58.487722) scale(-1, 1) rotate(-180.000000) translate(-59.360671, -58.487722) " points="57.332546 55.6720965 58.9434835 55.6720965 58.9434835 61.2345965 57.1903585 60.883034 57.1903585 61.7814715 58.9341085 62.133034 59.920046 62.133034 59.920046 55.6720965 61.5309835 55.6720965 61.5309835 54.842409 57.332546 54.842409"></polygon>
            <path d="M59.270046,103.903728 C58.7627543,103.903728 58.3809835,103.653728 58.1247335,103.153728 C57.8695252,102.654769 57.741921,101.903728 57.741921,100.900602 C57.741921,99.9016442 57.8695252,99.152165 58.1247335,98.652165 C58.3809835,98.152165 58.7627543,97.902165 59.270046,97.902165 C59.7815043,97.902165 60.1648377,98.152165 60.420046,98.652165 C60.676296,99.152165 60.804421,99.9016442 60.804421,100.900602 C60.804421,101.903728 60.676296,102.654769 60.420046,103.153728 C60.1648377,103.653728 59.7815043,103.903728 59.270046,103.903728 Z M59.270046,104.684978 C60.0877543,104.684978 60.7122335,104.36154 61.1434835,103.714665 C61.5747335,103.068832 61.7903585,102.130811 61.7903585,100.900602 C61.7903585,99.6735192 61.5747335,98.73654 61.1434835,98.089665 C60.7122335,97.4438317 60.0877543,97.120915 59.270046,97.120915 C58.4533793,97.120915 57.829421,97.4438317 57.398171,98.089665 C56.966921,98.73654 56.751296,99.6735192 56.751296,100.900602 C56.751296,102.130811 56.966921,103.068832 57.398171,103.714665 C57.829421,104.36154 58.4533793,104.684978 59.270046,104.684978 Z" id="DejaVuSans-30" fill="#000000" fill-rule="nonzero" transform="translate(59.270827, 100.902946) scale(-1, 1) rotate(-180.000000) translate(-59.270827, -100.902946) "></path>
            <path d="M59.270046,146.313484 C58.7627543,146.313484 58.3809835,146.063484 58.1247335,145.563484 C57.8695252,145.064525 57.741921,144.313484 57.741921,143.310359 C57.741921,142.3114 57.8695252,141.561921 58.1247335,141.061921 C58.3809835,140.561921 58.7627543,140.311921 59.270046,140.311921 C59.7815043,140.311921 60.1648377,140.561921 60.420046,141.061921 C60.676296,141.561921 60.804421,142.3114 60.804421,143.310359 C60.804421,144.313484 60.676296,145.064525 60.420046,145.563484 C60.1648377,146.063484 59.7815043,146.313484 59.270046,146.313484 Z M59.270046,147.094734 C60.0877543,147.094734 60.7122335,146.771296 61.1434835,146.124421 C61.5747335,145.478588 61.7903585,144.540567 61.7903585,143.310359 C61.7903585,142.083275 61.5747335,141.146296 61.1434835,140.499421 C60.7122335,139.853588 60.0877543,139.530671 59.270046,139.530671 C58.4533793,139.530671 57.829421,139.853588 57.398171,140.499421 C56.966921,141.146296 56.751296,142.083275 56.751296,143.310359 C56.751296,144.540567 56.966921,145.478588 57.398171,146.124421 C57.829421,146.771296 58.4533793,147.094734 59.270046,147.094734 Z" id="DejaVuSans-30" fill="#000000" fill-rule="nonzero" transform="translate(59.270827, 143.312702) scale(-1, 1) rotate(-180.000000) translate(-59.270827, -143.312702) "></path>
            <path d="M59.270046,188.72324 C58.7627543,188.72324 58.3809835,188.47324 58.1247335,187.97324 C57.8695252,187.474281 57.741921,186.72324 57.741921,185.720114 C57.741921,184.721156 57.8695252,183.971677 58.1247335,183.471677 C58.3809835,182.971677 58.7627543,182.721677 59.270046,182.721677 C59.7815043,182.721677 60.1648377,182.971677 60.420046,183.471677 C60.676296,183.971677 60.804421,184.721156 60.804421,185.720114 C60.804421,186.72324 60.676296,187.474281 60.420046,187.97324 C60.1648377,188.47324 59.7815043,188.72324 59.270046,188.72324 Z M59.270046,189.50449 C60.0877543,189.50449 60.7122335,189.181052 61.1434835,188.534177 C61.5747335,187.888344 61.7903585,186.950323 61.7903585,185.720114 C61.7903585,184.493031 61.5747335,183.556052 61.1434835,182.909177 C60.7122335,182.263344 60.0877543,181.940427 59.270046,181.940427 C58.4533793,181.940427 57.829421,182.263344 57.398171,182.909177 C56.966921,183.556052 56.751296,184.493031 56.751296,185.720114 C56.751296,186.950323 56.966921,187.888344 57.398171,188.534177 C57.829421,189.181052 58.4533793,189.50449 59.270046,189.50449 Z" id="DejaVuSans-30" fill="#000000" fill-rule="nonzero" transform="translate(59.270827, 185.722458) scale(-1, 1) rotate(-180.000000) translate(-59.270827, -185.722458) "></path>
            <path d="M229.586258,14.322027 L227.471258,14.322027 L227.471258,14.608902 C227.471258,14.928902 227.535633,15.212652 227.664383,15.460152 C227.793133,15.708902 228.064383,16.025152 228.478133,16.408902 L228.853133,16.748277 C229.075633,16.950777 229.238758,17.142027 229.342508,17.322027 C229.446258,17.502027 229.498133,17.682027 229.498133,17.862027 C229.498133,18.134527 229.404383,18.347652 229.216883,18.501402 C229.029383,18.656402 228.767508,18.733902 228.431258,18.733902 C228.115008,18.733902 227.773133,18.668277 227.405633,18.537027 C227.038133,18.407027 226.655633,18.213277 226.258133,17.955777 L226.258133,19.795152 C226.730633,19.958902 227.161883,20.079527 227.551883,20.157027 C227.943133,20.235777 228.320008,20.275152 228.682508,20.275152 C229.636258,20.275152 230.363133,20.080777 230.863133,19.692027 C231.363133,19.303277 231.613133,18.735777 231.613133,17.989527 C231.613133,17.607027 231.536883,17.264527 231.384383,16.962027 C231.231883,16.659527 230.971883,16.334527 230.604383,15.987027 L230.229383,15.651402 C229.964383,15.410152 229.790633,15.215777 229.708133,15.068277 C229.626883,14.922027 229.586258,14.761402 229.586258,14.586402 L229.586258,14.322027 Z M227.471258,13.455777 L229.586258,13.455777 L229.586258,11.368902 L227.471258,11.368902 L227.471258,13.455777 Z" id="DejaVuSans-Bold-3f" fill="#000000" fill-rule="nonzero" transform="translate(228.935633, 15.822027) scale(-1, 1) rotate(-180.000000) translate(-228.935633, -15.822027) "></path>
            <path d="M229.586258,56.731784 L227.471258,56.731784 L227.471258,57.018659 C227.471258,57.338659 227.535633,57.622409 227.664383,57.869909 C227.793133,58.118659 228.064383,58.434909 228.478133,58.818659 L228.853133,59.158034 C229.075633,59.360534 229.238758,59.551784 229.342508,59.731784 C229.446258,59.911784 229.498133,60.091784 229.498133,60.271784 C229.498133,60.544284 229.404383,60.757409 229.216883,60.911159 C229.029383,61.066159 228.767508,61.143659 228.431258,61.143659 C228.115008,61.143659 227.773133,61.078034 227.405633,60.946784 C227.038133,60.816784 226.655633,60.623034 226.258133,60.365534 L226.258133,62.204909 C226.730633,62.368659 227.161883,62.489284 227.551883,62.566784 C227.943133,62.645534 228.320008,62.684909 228.682508,62.684909 C229.636258,62.684909 230.363133,62.490534 230.863133,62.101784 C231.363133,61.713034 231.613133,61.145534 231.613133,60.399284 C231.613133,60.016784 231.536883,59.674284 231.384383,59.371784 C231.231883,59.069284 230.971883,58.744284 230.604383,58.396784 L230.229383,58.061159 C229.964383,57.819909 229.790633,57.625534 229.708133,57.478034 C229.626883,57.331784 229.586258,57.171159 229.586258,56.996159 L229.586258,56.731784 Z M227.471258,55.865534 L229.586258,55.865534 L229.586258,53.778659 L227.471258,53.778659 L227.471258,55.865534 Z" id="DejaVuSans-Bold-3f" fill="#000000" fill-rule="nonzero" transform="translate(228.935633, 58.231784) scale(-1, 1) rotate(-180.000000) translate(-228.935633, -58.231784) "></path>
            <path d="M229.586258,99.14154 L227.471258,99.14154 L227.471258,99.428415 C227.471258,99.748415 227.535633,100.032165 227.664383,100.279665 C227.793133,100.528415 228.064383,100.844665 228.478133,101.228415 L228.853133,101.56779 C229.075633,101.77029 229.238758,101.96154 229.342508,102.14154 C229.446258,102.32154 229.498133,102.50154 229.498133,102.68154 C229.498133,102.95404 229.404383,103.167165 229.216883,103.320915 C229.029383,103.475915 228.767508,103.553415 228.431258,103.553415 C228.115008,103.553415 227.773133,103.48779 227.405633,103.35654 C227.038133,103.22654 226.655633,103.03279 226.258133,102.77529 L226.258133,104.614665 C226.730633,104.778415 227.161883,104.89904 227.551883,104.97654 C227.943133,105.05529 228.320008,105.094665 228.682508,105.094665 C229.636258,105.094665 230.363133,104.90029 230.863133,104.51154 C231.363133,104.12279 231.613133,103.55529 231.613133,102.80904 C231.613133,102.42654 231.536883,102.08404 231.384383,101.78154 C231.231883,101.47904 230.971883,101.15404 230.604383,100.80654 L230.229383,100.470915 C229.964383,100.229665 229.790633,100.03529 229.708133,99.88779 C229.626883,99.74154 229.586258,99.580915 229.586258,99.405915 L229.586258,99.14154 Z M227.471258,98.27529 L229.586258,98.27529 L229.586258,96.188415 L227.471258,96.188415 L227.471258,98.27529 Z" id="DejaVuSans-Bold-3f" fill="#000000" fill-rule="nonzero" transform="translate(228.935633, 100.641540) scale(-1, 1) rotate(-180.000000) translate(-228.935633, -100.641540) "></path>
            <path d="M229.586258,141.551296 L227.471258,141.551296 L227.471258,141.838171 C227.471258,142.158171 227.535633,142.441921 227.664383,142.689421 C227.793133,142.938171 228.064383,143.254421 228.478133,143.638171 L228.853133,143.977546 C229.075633,144.180046 229.238758,144.371296 229.342508,144.551296 C229.446258,144.731296 229.498133,144.911296 229.498133,145.091296 C229.498133,145.363796 229.404383,145.576921 229.216883,145.730671 C229.029383,145.885671 228.767508,145.963171 228.431258,145.963171 C228.115008,145.963171 227.773133,145.897546 227.405633,145.766296 C227.038133,145.636296 226.655633,145.442546 226.258133,145.185046 L226.258133,147.024421 C226.730633,147.188171 227.161883,147.308796 227.551883,147.386296 C227.943133,147.465046 228.320008,147.504421 228.682508,147.504421 C229.636258,147.504421 230.363133,147.310046 230.863133,146.921296 C231.363133,146.532546 231.613133,145.965046 231.613133,145.218796 C231.613133,144.836296 231.536883,144.493796 231.384383,144.191296 C231.231883,143.888796 230.971883,143.563796 230.604383,143.216296 L230.229383,142.880671 C229.964383,142.639421 229.790633,142.445046 229.708133,142.297546 C229.626883,142.151296 229.586258,141.990671 229.586258,141.815671 L229.586258,141.551296 Z M227.471258,140.685046 L229.586258,140.685046 L229.586258,138.598171 L227.471258,138.598171 L227.471258,140.685046 Z" id="DejaVuSans-Bold-3f" fill="#000000" fill-rule="nonzero" transform="translate(228.935633, 143.051296) scale(-1, 1) rotate(-180.000000) translate(-228.935633, -143.051296) "></path>
            <path d="M229.586258,183.961052 L227.471258,183.961052 L227.471258,184.247927 C227.471258,184.567927 227.535633,184.851677 227.664383,185.099177 C227.793133,185.347927 228.064383,185.664177 228.478133,186.047927 L228.853133,186.387302 C229.075633,186.589802 229.238758,186.781052 229.342508,186.961052 C229.446258,187.141052 229.498133,187.321052 229.498133,187.501052 C229.498133,187.773552 229.404383,187.986677 229.216883,188.140427 C229.029383,188.295427 228.767508,188.372927 228.431258,188.372927 C228.115008,188.372927 227.773133,188.307302 227.405633,188.176052 C227.038133,188.046052 226.655633,187.852302 226.258133,187.594802 L226.258133,189.434177 C226.730633,189.597927 227.161883,189.718552 227.551883,189.796052 C227.943133,189.874802 228.320008,189.914177 228.682508,189.914177 C229.636258,189.914177 230.363133,189.719802 230.863133,189.331052 C231.363133,188.942302 231.613133,188.374802 231.613133,187.628552 C231.613133,187.246052 231.536883,186.903552 231.384383,186.601052 C231.231883,186.298552 230.971883,185.973552 230.604383,185.626052 L230.229383,185.290427 C229.964383,185.049177 229.790633,184.854802 229.708133,184.707302 C229.626883,184.561052 229.586258,184.400427 229.586258,184.225427 L229.586258,183.961052 Z M227.471258,183.094802 L229.586258,183.094802 L229.586258,181.007927 L227.471258,181.007927 L227.471258,183.094802 Z" id="DejaVuSans-Bold-3f" fill="#000000" fill-rule="nonzero" transform="translate(228.935633, 185.461052) scale(-1, 1) rotate(-180.000000) translate(-228.935633, -185.461052) "></path>
            <polygon id="DejaVuSans-Oblique-77" fill="#000000" fill-rule="nonzero" transform="translate(85.896611, 45.231867) scale(-1, 1) rotate(-180.000000) translate(-85.896611, -45.231867) " points="82.839891 47.5096018 83.5804801 47.5096018 83.7705082 43.8444017 85.4716504 47.5096018 86.3371894 47.5096018 86.5896926 43.8444017 88.2049316 47.5096018 88.9533301 47.5096018 86.8708301 42.954133 85.9961801 42.954133 85.7723113 46.7286643 84.0308207 42.954133 83.1483613 42.954133"></polygon>
            <path d="M90.7978719,48.503605 C90.5020701,48.503605 90.2794595,48.35783 90.1300401,48.06628 C89.9812282,47.7753374 89.9068222,47.337405 89.9068222,46.7524828 C89.9068222,46.1699902 89.9812282,45.7329689 90.1300401,45.4414189 C90.2794595,45.1498689 90.5020701,45.0040939 90.7978719,45.0040939 C91.0961032,45.0040939 91.3196249,45.1498689 91.4684369,45.4414189 C91.6178562,45.7329689 91.6925659,46.1699902 91.6925659,46.7524828 C91.6925659,47.337405 91.6178562,47.7753374 91.4684369,48.06628 C91.3196249,48.35783 91.0961032,48.503605 90.7978719,48.503605 Z M90.7978719,48.9591519 C91.2746776,48.9591519 91.6388114,48.7705555 91.8902733,48.3933627 C92.1417351,48.0167773 92.2674661,47.4698173 92.2674661,46.7524828 C92.2674661,46.0369706 92.1417351,45.490618 91.8902733,45.1134252 C91.6388114,44.7368398 91.2746776,44.5485471 90.7978719,44.5485471 C90.3216735,44.5485471 89.9578434,44.7368398 89.7063816,45.1134252 C89.4549197,45.490618 89.3291887,46.0369706 89.3291887,46.7524828 C89.3291887,47.4698173 89.4549197,48.0167773 89.7063816,48.3933627 C89.9578434,48.7705555 90.3216735,48.9591519 90.7978719,48.9591519 Z" id="DejaVuSans-30" fill="#000000" fill-rule="nonzero" transform="translate(90.798327, 46.753849) scale(-1, 1) rotate(-180.000000) translate(-90.798327, -46.753849) "></path>
            <polygon id="DejaVuSans-Oblique-77" fill="#000000" fill-rule="nonzero" transform="translate(85.896611, 72.091379) scale(-1, 1) rotate(-180.000000) translate(-85.896611, -72.091379) " points="82.839891 74.3691138 83.5804801 74.3691138 83.7705082 70.7039138 85.4716504 74.3691138 86.3371894 74.3691138 86.5896926 70.7039138 88.2049316 74.3691138 88.9533301 74.3691138 86.8708301 69.813645 85.9961801 69.813645 85.7723113 73.5881763 84.0308207 69.813645 83.1483613 69.813645"></polygon>
            <polygon id="DejaVuSans-31" fill="#000000" fill-rule="nonzero" transform="translate(90.850715, 73.610173) scale(-1, 1) rotate(-180.000000) translate(-90.850715, -73.610173) " points="89.6681156 71.9683817 90.6074533 71.9683817 90.6074533 75.2118755 89.5852061 75.0068794 89.5852061 75.5307583 90.6019867 75.7357544 91.1768869 75.7357544 91.1768869 71.9683817 92.1162245 71.9683817 92.1162245 71.4845909 89.6681156 71.4845909"></polygon>
            <polygon id="DejaVuSans-Oblique-77" fill="#000000" fill-rule="nonzero" transform="translate(85.896611, 96.123574) scale(-1, 1) rotate(-180.000000) translate(-85.896611, -96.123574) " points="82.839891 98.4013088 83.5804801 98.4013088 83.7705082 94.7361088 85.4716504 98.4013088 86.3371894 98.4013088 86.5896926 94.7361088 88.2049316 98.4013088 88.9533301 98.4013088 86.8708301 93.84584 85.9961801 93.84584 85.7723113 97.6203713 84.0308207 93.84584 83.1483613 93.84584"></polygon>
            <path d="M90.0635303,95.9240448 L92.0706698,95.9240448 L92.0706698,95.4402541 L89.3720101,95.4402541 L89.3720101,95.9240448 C89.5900653,96.1499961 89.8873855,96.4530866 90.2639709,96.8333164 C90.6411637,97.2141536 90.8780481,97.4598452 90.9746241,97.5703913 C91.158665,97.7769058 91.2871292,97.9518358 91.3600167,98.0951812 C91.4335116,98.2385267 91.4702591,98.3794425 91.4702591,98.5179287 C91.4702591,98.74388 91.3909939,98.9279209 91.2324636,99.0700516 C91.0739333,99.2127896 90.8674187,99.2841586 90.6129198,99.2841586 C90.4325233,99.2841586 90.2421047,99.2528777 90.0416641,99.1903159 C89.8418308,99.1277542 89.6280275,99.0326967 89.4002541,98.9051436 L89.4002541,99.4864214 C89.6316719,99.579353 89.8479048,99.6495072 90.0489528,99.6968841 C90.2506082,99.7442609 90.4349529,99.7679494 90.6019867,99.7679494 C91.0423487,99.7679494 91.3934235,99.657707 91.6552111,99.4372223 C91.9169987,99.2173451 92.0478925,98.9233655 92.0478925,98.5552836 C92.0478925,98.3803536 92.0150931,98.2145345 91.9494944,98.0578264 C91.884503,97.9017257 91.7654534,97.717381 91.5923456,97.5047925 C91.5449687,97.4495195 91.3940309,97.2903818 91.139532,97.0273794 C90.8856406,96.764377 90.5269733,96.3965988 90.0635303,95.9240448 Z" id="DejaVuSans-32" fill="#000000" fill-rule="nonzero" transform="translate(90.721340, 97.604102) scale(-1, 1) rotate(-180.000000) translate(-90.721340, -97.604102) "></path>
            <polygon id="DejaVuSans-Oblique-77" fill="#000000" fill-rule="nonzero" transform="translate(85.896611, 114.444588) scale(-1, 1) rotate(-180.000000) translate(-85.896611, -114.444588) " points="82.839891 116.722323 83.5804801 116.722323 83.7705082 113.057123 85.4716504 116.722323 86.3371894 116.722323 86.5896926 113.057123 88.2049316 116.722323 88.9533301 116.722323 86.8708301 112.166854 85.9961801 112.166854 85.7723113 115.941385 84.0308207 112.166854 83.1483613 112.166854"></polygon>
            <path d="M91.3108176,116.136489 C91.585968,116.077572 91.8006824,115.954878 91.9549609,115.768408 C92.1098469,115.582544 92.1872898,115.352949 92.1872898,115.079621 C92.1872898,114.660518 92.0430333,114.335865 91.7545203,114.105662 C91.4660073,113.876066 91.0560151,113.761268 90.5245437,113.761268 C90.3465768,113.761268 90.1631432,113.778883 89.9742431,113.814112 C89.785343,113.84934 89.590369,113.902184 89.3893209,113.972642 L89.3893209,114.527498 C89.5484586,114.434566 89.7227812,114.364412 89.9122887,114.317035 C90.1024036,114.269658 90.3010221,114.24597 90.5081441,114.24597 C90.8683298,114.24597 91.1428727,114.317035 91.3317728,114.459166 C91.5206729,114.601297 91.615123,114.808115 91.615123,115.079621 C91.615123,115.330475 91.5273543,115.52636 91.3518169,115.667276 C91.1762795,115.808799 90.9321063,115.879561 90.6192975,115.879561 L90.1236625,115.879561 L90.1236625,116.352419 L90.6420748,116.352419 C90.9245139,116.352419 91.1407468,116.408907 91.2907736,116.521882 C91.4408004,116.634858 91.5158137,116.79764 91.5158137,117.010228 C91.5158137,117.228283 91.4383708,117.395621 91.2834848,117.512241 C91.1292063,117.629468 90.9078105,117.688082 90.6192975,117.688082 C90.4613746,117.688082 90.2922148,117.670771 90.1118183,117.63615 C89.9314217,117.602136 89.733107,117.549292 89.5168741,117.477619 L89.5168741,117.989654 C89.7355366,118.050394 89.940229,118.095948 90.1309512,118.126318 C90.3216735,118.156688 90.5014627,118.171873 90.6703187,118.171873 C91.1070363,118.171873 91.4523409,118.072564 91.7062323,117.873945 C91.9607312,117.675934 92.0879806,117.408073 92.0879806,117.070361 C92.0879806,116.834691 92.0205597,116.635769 91.8857178,116.473594 C91.7508759,116.311419 91.5592425,116.199051 91.3108176,116.136489 Z" id="DejaVuSans-33" fill="#000000" fill-rule="nonzero" transform="translate(90.788305, 115.966570) scale(-1, 1) rotate(-180.000000) translate(-90.788305, -115.966570) "></path>
            <polygon id="DejaVuSans-Oblique-77" fill="#000000" fill-rule="nonzero" transform="translate(85.896611, 132.878696) scale(-1, 1) rotate(-180.000000) translate(-85.896611, -132.878696) " points="82.839891 135.156431 83.5804801 135.156431 83.7705082 131.491231 85.4716504 135.156431 86.3371894 135.156431 86.5896926 131.491231 88.2049316 135.156431 88.9533301 135.156431 86.8708301 130.600962 85.9961801 130.600962 85.7723113 134.375493 84.0308207 130.600962 83.1483613 130.600962"></polygon>
            <path d="M91.148643,136.02197 L89.6963595,133.752435 L91.148643,133.752435 L91.148643,136.02197 Z M90.9974014,136.523071 L91.7208098,136.523071 L91.7208098,133.752435 L92.3275983,133.752435 L92.3275983,133.274111 L91.7208098,133.274111 L91.7208098,132.271908 L91.148643,132.271908 L91.148643,133.274111 L89.2298795,133.274111 L89.2298795,133.828967 L90.9974014,136.523071 Z" id="DejaVuSans-34" fill="#000000" fill-rule="nonzero" transform="translate(90.778739, 134.397490) scale(-1, 1) rotate(-180.000000) translate(-90.778739, -134.397490) "></path>
            <polygon id="DejaVuSans-31" fill="#000000" fill-rule="nonzero" transform="translate(127.201668, 157.591770) scale(-1, 1) rotate(-180.000000) translate(-127.201668, -157.591770) " points="125.51224 155.246354 126.854151 155.246354 126.854151 159.879917 125.393797 159.587065 125.393797 160.335463 126.846341 160.628315 127.667627 160.628315 127.667627 155.246354 129.009538 155.246354 129.009538 154.555224 125.51224 154.555224"></polygon>
            <path d="M36.57104,16.726402 C36.2064567,16.726402 35.9319775,16.6644228 35.7476025,16.5404645 C35.5642692,16.4175478 35.4726025,16.2352562 35.4726025,15.9935895 C35.4726025,15.7727562 35.5465608,15.5993187 35.6944775,15.473277 C35.8434358,15.348277 36.0496858,15.285777 36.3132275,15.285777 C36.6413525,15.285777 36.917915,15.4034853 37.142915,15.638902 C37.367915,15.8753603 37.480415,16.1711937 37.480415,16.526402 L37.480415,16.726402 L36.57104,16.726402 Z M39.242915,17.385777 L39.242915,14.2654645 L37.480415,14.2654645 L37.480415,15.076402 C37.24604,14.7441103 36.9819775,14.5019228 36.6882275,14.3498395 C36.3955192,14.1987978 36.0392692,14.123277 35.6194775,14.123277 C35.0528108,14.123277 34.592915,14.2883812 34.23979,14.6185895 C33.886665,14.9498395 33.7101025,15.3790062 33.7101025,15.9060895 C33.7101025,16.5477562 33.930415,17.0180687 34.37104,17.317027 C34.8127067,17.617027 35.505415,17.767027 36.449165,17.767027 L37.480415,17.767027 L37.480415,17.9029645 C37.480415,18.1800478 37.37104,18.382652 37.15229,18.510777 C36.9345817,18.6399437 36.5944775,18.704527 36.1319775,18.704527 C35.7580192,18.704527 35.4095817,18.667027 35.086665,18.592027 C34.76479,18.517027 34.4653108,18.404527 34.1882275,18.254527 L34.1882275,19.5873395 C34.5632275,19.6790062 34.9392692,19.748277 35.3163525,19.795152 C35.6944775,19.842027 36.0720817,19.8654645 36.449165,19.8654645 C37.4356233,19.8654645 38.1476025,19.6711937 38.5851025,19.282652 C39.0236442,18.8941103 39.242915,18.2618187 39.242915,17.385777 Z" id="DejaVuSans-Bold-61" fill="#0000FF" fill-rule="nonzero" transform="translate(36.476509, 16.994371) scale(-1, 1) rotate(-180.000000) translate(-36.476509, -16.994371) "></path>
            <path d="M36.825728,55.804909 C37.1996863,55.804909 37.485103,55.9413673 37.681978,56.214284 C37.8798947,56.4882423 37.978853,56.8856382 37.978853,57.4064715 C37.978853,57.9273048 37.8798947,58.3241798 37.681978,58.5970965 C37.485103,58.8710548 37.1996863,59.008034 36.825728,59.008034 C36.4517697,59.008034 36.1642697,58.870534 35.963228,58.595534 C35.763228,58.320534 35.663228,57.9241798 35.663228,57.4064715 C35.663228,56.8887632 35.763228,56.492409 35.963228,56.217409 C36.1642697,55.942409 36.4517697,55.804909 36.825728,55.804909 Z M35.663228,59.345534 C35.9048947,59.664284 36.1720822,59.8991798 36.4647905,60.0502215 C36.7574988,60.2012632 37.094478,60.276784 37.475728,60.276784 C38.1496863,60.276784 38.7028113,60.0090757 39.135103,59.473659 C39.5684363,58.9382423 39.785103,58.2491798 39.785103,57.4064715 C39.785103,56.5637632 39.5684363,55.8741798 39.135103,55.3377215 C38.7028113,54.8023048 38.1496863,54.5345965 37.475728,54.5345965 C37.094478,54.5345965 36.7574988,54.6101173 36.4647905,54.761159 C36.1720822,54.9132423 35.9048947,55.148659 35.663228,55.467409 L35.663228,54.676784 L33.916353,54.676784 L33.916353,62.2752215 L35.663228,62.2752215 L35.663228,59.345534 Z" id="DejaVuSans-Bold-62" fill="#FF0000" fill-rule="nonzero" transform="translate(36.850728, 58.404909) scale(-1, 1) rotate(-180.000000) translate(-36.850728, -58.404909) "></path>
            <path d="M38.949947,104.383415 L38.949947,102.956852 C38.712447,103.119352 38.4739053,103.239665 38.234322,103.31779 C37.9947387,103.395915 37.7463012,103.434977 37.4890095,103.434977 C37.0015095,103.434977 36.621822,103.29279 36.349947,103.008415 C36.078072,102.72404 35.9421345,102.326123 35.9421345,101.814665 C35.9421345,101.303207 36.078072,100.904769 36.349947,100.619352 C36.621822,100.334977 37.0015095,100.19279 37.4890095,100.19279 C37.7629678,100.19279 38.0228637,100.233415 38.268697,100.314665 C38.5145303,100.396957 38.7416137,100.51779 38.949947,100.677165 L38.949947,99.245915 C38.6759887,99.1448733 38.3983845,99.0693525 38.1171345,99.0193525 C37.8358845,98.9683108 37.5535928,98.94279 37.2702595,98.94279 C36.2838012,98.94279 35.5119262,99.195915 34.9546345,99.702165 C34.3983845,100.208415 34.1202595,100.912582 34.1202595,101.814665 C34.1202595,102.716748 34.3983845,103.420394 34.9546345,103.925602 C35.5119262,104.431852 36.2838012,104.684977 37.2702595,104.684977 C37.5567178,104.684977 37.8390095,104.659977 38.1171345,104.609977 C38.3952595,104.559977 38.6728637,104.484457 38.949947,104.383415 Z" id="DejaVuSans-Bold-63" fill="#0000FF" fill-rule="nonzero" transform="translate(36.535103, 101.813884) scale(-1, 1) rotate(-180.000000) translate(-36.535103, -101.813884) "></path>
            <path d="M37.6366655,144.165046 L37.6366655,147.094734 L39.394478,147.094734 L39.394478,139.496296 L37.6366655,139.496296 L37.6366655,140.286921 C37.3960405,139.965046 37.1304155,139.729109 36.8397905,139.579109 C36.5502072,139.429109 36.2153113,139.354109 35.835103,139.354109 C35.1611447,139.354109 34.6074988,139.621817 34.1741655,140.157234 C33.7418738,140.693692 33.525728,141.383275 33.525728,142.225984 C33.525728,143.068692 33.7418738,143.757754 34.1741655,144.293171 C34.6074988,144.828588 35.1611447,145.096296 35.835103,145.096296 C36.2121863,145.096296 36.5465613,145.020775 36.838228,144.869734 C37.1298947,144.718692 37.3960405,144.483796 37.6366655,144.165046 Z M36.4835405,140.624421 C36.8585405,140.624421 37.144478,140.760879 37.341353,141.033796 C37.538228,141.307754 37.6366655,141.70515 37.6366655,142.225984 C37.6366655,142.746817 37.538228,143.143692 37.341353,143.416609 C37.144478,143.690567 36.8585405,143.827546 36.4835405,143.827546 C36.1127072,143.827546 35.828853,143.690567 35.631978,143.416609 C35.435103,143.143692 35.3366655,142.746817 35.3366655,142.225984 C35.3366655,141.70515 35.435103,141.307754 35.631978,141.033796 C35.828853,140.760879 36.1127072,140.624421 36.4835405,140.624421 Z" id="DejaVuSans-Bold-64" fill="#0000FF" fill-rule="nonzero" transform="translate(36.460103, 143.224421) scale(-1, 1) rotate(-180.000000) translate(-36.460103, -143.224421) "></path>
            <path d="M39.5616655,186.652927 L39.5616655,186.156052 L35.475728,186.156052 C35.5173947,185.745635 35.6653113,185.437823 35.919478,185.232615 C36.1736447,185.027406 36.5283322,184.924802 36.9835405,184.924802 C37.3512488,184.924802 37.7278113,184.979489 38.113228,185.088864 C38.4996863,185.198239 38.8965613,185.363344 39.303853,185.584177 L39.303853,184.237302 C38.8903113,184.081052 38.4767697,183.962823 38.063228,183.882615 C37.6496863,183.802406 37.2361447,183.762302 36.822603,183.762302 C35.8330197,183.762302 35.0637488,184.013865 34.5147905,184.516989 C33.9668738,185.020115 33.6929155,185.725844 33.6929155,186.634177 C33.6929155,187.525844 33.9621863,188.226885 34.500728,188.737302 C35.0392697,189.24876 35.7809363,189.50449 36.725728,189.50449 C37.585103,189.50449 38.272603,189.245635 38.788228,188.727927 C39.303853,188.21126 39.5616655,187.519594 39.5616655,186.652927 Z M37.7647905,187.234177 C37.7647905,187.566469 37.6679155,187.834177 37.4741655,188.037302 C37.2804155,188.241469 37.0272905,188.343552 36.7147905,188.343552 C36.3762488,188.343552 36.1012488,188.24824 35.8897905,188.057614 C35.6783322,187.86699 35.5465613,187.59251 35.494478,187.234177 L37.7647905,187.234177 Z" id="DejaVuSans-Bold-65" fill="#0000FF" fill-rule="nonzero" transform="translate(36.627291, 186.633396) scale(-1, 1) rotate(-180.000000) translate(-36.627291, -186.633396) "></path>
            <path d="M251.447138,16.726402 C251.082555,16.726402 250.808075,16.6644228 250.6237,16.5404645 C250.440367,16.4175478 250.3487,16.2352562 250.3487,15.9935895 C250.3487,15.7727562 250.422659,15.5993187 250.570575,15.473277 C250.719534,15.348277 250.925784,15.285777 251.189325,15.285777 C251.51745,15.285777 251.794013,15.4034853 252.019013,15.638902 C252.244013,15.8753603 252.356513,16.1711937 252.356513,16.526402 L252.356513,16.726402 L251.447138,16.726402 Z M254.119013,17.385777 L254.119013,14.2654645 L252.356513,14.2654645 L252.356513,15.076402 C252.122138,14.7441103 251.858075,14.5019228 251.564325,14.3498395 C251.271617,14.1987978 250.915367,14.123277 250.495575,14.123277 C249.928909,14.123277 249.469013,14.2883812 249.115888,14.6185895 C248.762763,14.9498395 248.5862,15.3790062 248.5862,15.9060895 C248.5862,16.5477562 248.806513,17.0180687 249.247138,17.317027 C249.688805,17.617027 250.381513,17.767027 251.325263,17.767027 L252.356513,17.767027 L252.356513,17.9029645 C252.356513,18.1800478 252.247138,18.382652 252.028388,18.510777 C251.81068,18.6399437 251.470575,18.704527 251.008075,18.704527 C250.634117,18.704527 250.28568,18.667027 249.962763,18.592027 C249.640888,18.517027 249.341409,18.404527 249.064325,18.254527 L249.064325,19.5873395 C249.439325,19.6790062 249.815367,19.748277 250.19245,19.795152 C250.570575,19.842027 250.94818,19.8654645 251.325263,19.8654645 C252.311721,19.8654645 253.0237,19.6711937 253.4612,19.282652 C253.899742,18.8941103 254.119013,18.2618187 254.119013,17.385777 Z" id="DejaVuSans-Bold-61" fill="#0000FF" fill-rule="nonzero" transform="translate(251.352607, 16.994371) scale(-1, 1) rotate(-180.000000) translate(-251.352607, -16.994371) "></path>
            <path d="M251.701825,55.804909 C252.075783,55.804909 252.3612,55.9413673 252.558075,56.214284 C252.755992,56.4882423 252.85495,56.8856382 252.85495,57.4064715 C252.85495,57.9273048 252.755992,58.3241798 252.558075,58.5970965 C252.3612,58.8710548 252.075783,59.008034 251.701825,59.008034 C251.327867,59.008034 251.040367,58.870534 250.839325,58.595534 C250.639325,58.320534 250.539325,57.9241798 250.539325,57.4064715 C250.539325,56.8887632 250.639325,56.492409 250.839325,56.217409 C251.040367,55.942409 251.327867,55.804909 251.701825,55.804909 Z M250.539325,59.345534 C250.780992,59.664284 251.048179,59.8991798 251.340888,60.0502215 C251.633596,60.2012632 251.970575,60.276784 252.351825,60.276784 C253.025783,60.276784 253.578908,60.0090757 254.0112,59.473659 C254.444533,58.9382423 254.6612,58.2491798 254.6612,57.4064715 C254.6612,56.5637632 254.444533,55.8741798 254.0112,55.3377215 C253.578908,54.8023048 253.025783,54.5345965 252.351825,54.5345965 C251.970575,54.5345965 251.633596,54.6101173 251.340888,54.761159 C251.048179,54.9132423 250.780992,55.148659 250.539325,55.467409 L250.539325,54.676784 L248.79245,54.676784 L248.79245,62.2752215 L250.539325,62.2752215 L250.539325,59.345534 Z" id="DejaVuSans-Bold-62" fill="#0000FF" fill-rule="nonzero" transform="translate(251.726825, 58.404909) scale(-1, 1) rotate(-180.000000) translate(-251.726825, -58.404909) "></path>
            <path d="M253.826044,104.383415 L253.826044,102.956852 C253.588544,103.119352 253.350002,103.239665 253.110419,103.31779 C252.870836,103.395915 252.622398,103.434977 252.365106,103.434977 C251.877606,103.434977 251.497919,103.29279 251.226044,103.008415 C250.954169,102.72404 250.818231,102.326123 250.818231,101.814665 C250.818231,101.303207 250.954169,100.904769 251.226044,100.619352 C251.497919,100.334977 251.877606,100.19279 252.365106,100.19279 C252.639065,100.19279 252.898961,100.233415 253.144794,100.314665 C253.390627,100.396957 253.617711,100.51779 253.826044,100.677165 L253.826044,99.245915 C253.552086,99.1448733 253.274481,99.0693525 252.993231,99.0193525 C252.711981,98.9683108 252.42969,98.94279 252.146356,98.94279 C251.159898,98.94279 250.388023,99.195915 249.830731,99.702165 C249.274481,100.208415 248.996356,100.912582 248.996356,101.814665 C248.996356,102.716748 249.274481,103.420394 249.830731,103.925602 C250.388023,104.431852 251.159898,104.684977 252.146356,104.684977 C252.432815,104.684977 252.715106,104.659977 252.993231,104.609977 C253.271356,104.559977 253.548961,104.484457 253.826044,104.383415 Z" id="DejaVuSans-Bold-63" fill="#0000FF" fill-rule="nonzero" transform="translate(251.411200, 101.813884) scale(-1, 1) rotate(-180.000000) translate(-251.411200, -101.813884) "></path>
            <path d="M252.512763,144.165046 L252.512763,147.094734 L254.270575,147.094734 L254.270575,139.496296 L252.512763,139.496296 L252.512763,140.286921 C252.272138,139.965046 252.006513,139.729109 251.715888,139.579109 C251.426304,139.429109 251.091408,139.354109 250.7112,139.354109 C250.037242,139.354109 249.483596,139.621817 249.050263,140.157234 C248.617971,140.693692 248.401825,141.383275 248.401825,142.225984 C248.401825,143.068692 248.617971,143.757754 249.050263,144.293171 C249.483596,144.828588 250.037242,145.096296 250.7112,145.096296 C251.088283,145.096296 251.422658,145.020775 251.714325,144.869734 C252.005992,144.718692 252.272138,144.483796 252.512763,144.165046 Z M251.359638,140.624421 C251.734638,140.624421 252.020575,140.760879 252.21745,141.033796 C252.414325,141.307754 252.512763,141.70515 252.512763,142.225984 C252.512763,142.746817 252.414325,143.143692 252.21745,143.416609 C252.020575,143.690567 251.734638,143.827546 251.359638,143.827546 C250.988804,143.827546 250.70495,143.690567 250.508075,143.416609 C250.3112,143.143692 250.212763,142.746817 250.212763,142.225984 C250.212763,141.70515 250.3112,141.307754 250.508075,141.033796 C250.70495,140.760879 250.988804,140.624421 251.359638,140.624421 Z" id="DejaVuSans-Bold-64" fill="#0000FF" fill-rule="nonzero" transform="translate(251.336200, 143.224421) scale(-1, 1) rotate(-180.000000) translate(-251.336200, -143.224421) "></path>
            <path d="M254.437763,186.652927 L254.437763,186.156052 L250.351825,186.156052 C250.393492,185.745635 250.541408,185.437823 250.795575,185.232615 C251.049742,185.027406 251.404429,184.924802 251.859638,184.924802 C252.227346,184.924802 252.603908,184.979489 252.989325,185.088864 C253.375783,185.198239 253.772658,185.363344 254.17995,185.584177 L254.17995,184.237302 C253.766408,184.081052 253.352867,183.962823 252.939325,183.882615 C252.525783,183.802406 252.112242,183.762302 251.6987,183.762302 C250.709117,183.762302 249.939846,184.013865 249.390888,184.516989 C248.842971,185.020115 248.569013,185.725844 248.569013,186.634177 C248.569013,187.525844 248.838283,188.226885 249.376825,188.737302 C249.915367,189.24876 250.657033,189.50449 251.601825,189.50449 C252.4612,189.50449 253.1487,189.245635 253.664325,188.727927 C254.17995,188.21126 254.437763,187.519594 254.437763,186.652927 Z M252.640888,187.234177 C252.640888,187.566469 252.544013,187.834177 252.350263,188.037302 C252.156513,188.241469 251.903388,188.343552 251.590888,188.343552 C251.252346,188.343552 250.977346,188.24824 250.765888,188.057614 C250.554429,187.86699 250.422658,187.59251 250.370575,187.234177 L252.640888,187.234177 Z" id="DejaVuSans-Bold-65" fill="#0000FF" fill-rule="nonzero" transform="translate(251.503388, 186.633396) scale(-1, 1) rotate(-180.000000) translate(-251.503388, -186.633396) "></path>
            <polygon id="DejaVuSans-Bold-2e" fill="#000000" fill-rule="nonzero" transform="translate(47.242178, 216.387862) scale(-1, 1) rotate(-180.000000) translate(-47.242178, -216.387862) " points="46.5100493 217.174657 47.9743071 217.174657 47.9743071 215.601068 46.5100493 215.601068"></polygon>
            <polygon id="DejaVuSans-Bold-2e" fill="#000000" fill-rule="nonzero" transform="translate(50.406602, 216.387862) scale(-1, 1) rotate(-180.000000) translate(-50.406602, -216.387862) " points="49.6744731 217.174657 51.1387309 217.174657 51.1387309 215.601068 49.6744731 215.601068"></polygon>
            <polygon id="DejaVuSans-Bold-2e" fill="#000000" fill-rule="nonzero" transform="translate(53.571026, 216.387862) scale(-1, 1) rotate(-180.000000) translate(-53.571026, -216.387862) " points="52.8388969 217.174657 54.3031547 217.174657 54.3031547 215.601068 52.8388969 215.601068"></polygon>
            <path d="M60.3999989,214.917748 L60.3999989,214.503851 L56.996413,214.503851 C57.0311213,214.161974 57.1543359,213.905566 57.3660568,213.734627 C57.5777776,213.563689 57.8732323,213.47822 58.2524208,213.47822 C58.5587219,213.47822 58.8723984,213.523774 59.1934505,213.614884 C59.5153703,213.705993 59.8459672,213.843525 60.1852411,214.027479 L60.1852411,212.905532 C59.8407609,212.775376 59.4962807,212.676891 59.1518005,212.610077 C58.8073203,212.543264 58.4628401,212.509857 58.1183599,212.509857 C57.294037,212.509857 56.6532344,212.719409 56.1959521,213.138512 C55.7395375,213.557615 55.5113302,214.145487 55.5113302,214.902129 C55.5113302,215.644887 55.7356328,216.228855 56.184238,216.654032 C56.6328432,217.080077 57.2506515,217.293099 58.037663,217.293099 C58.7535224,217.293099 59.3262099,217.077474 59.7557255,216.646223 C60.1852411,216.215839 60.3999989,215.639681 60.3999989,214.917748 Z M58.9032021,215.401929 C58.9032021,215.678728 58.8225052,215.901729 58.6611114,216.070932 C58.4997177,216.241003 58.2888646,216.326038 58.0285521,216.326038 C57.7465469,216.326038 57.5174719,216.246643 57.3413271,216.087852 C57.1651823,215.929062 57.0554172,215.700421 57.0120318,215.401929 L58.9032021,215.401929 Z" id="DejaVuSans-Bold-65" fill="#000000" fill-rule="nonzero" transform="translate(57.955665, 214.901478) scale(-1, 1) rotate(-180.000000) translate(-57.955665, -214.901478) "></path>
            <path d="M63.0924436,217.174657 L63.0924436,215.880904 L64.5944467,215.880904 L64.5944467,214.839654 L63.0924436,214.839654 L63.0924436,212.908135 C63.0924436,212.696414 63.1345275,212.553242 63.2186952,212.478619 C63.3028629,212.403997 63.4698967,212.366685 63.7197967,212.366685 L64.4681952,212.366685 L64.4681952,211.325435 L63.2186952,211.325435 C62.6442723,211.325435 62.2368832,211.445179 61.996528,211.684666 C61.7570405,211.925022 61.6372967,212.332844 61.6372967,212.908135 L61.6372967,214.839654 L60.9123264,214.839654 L60.9123264,215.880904 L61.6372967,215.880904 L61.6372967,217.174657 L63.0924436,217.174657 Z" id="DejaVuSans-Bold-74" fill="#000000" fill-rule="nonzero" transform="translate(62.753387, 214.250046) scale(-1, 1) rotate(-180.000000) translate(-62.753387, -214.250046) "></path>
            <path d="M69.1660224,217.041898 L69.1660224,215.853571 C68.9681849,215.988934 68.7694797,216.089154 68.5699068,216.154232 C68.3703338,216.21931 68.1633854,216.251849 67.9490614,216.251849 C67.5429739,216.251849 67.2266943,216.133407 67.0002224,215.896523 C66.7737505,215.659638 66.6605146,215.328174 66.6605146,214.902129 C66.6605146,214.476084 66.7737505,214.144186 67.0002224,213.906434 C67.2266943,213.669549 67.5429739,213.551107 67.9490614,213.551107 C68.1772687,213.551107 68.393762,213.584948 68.5985411,213.652629 C68.8033203,213.721178 68.9924807,213.821832 69.1660224,213.954591 L69.1660224,212.76236 C68.9378151,212.678192 68.7065708,212.615284 68.4722896,212.573634 C68.2380083,212.531116 68.0028594,212.509857 67.7668427,212.509857 C66.9451229,212.509857 66.302151,212.72071 65.8379271,213.142416 C65.3745708,213.564123 65.1428927,214.150693 65.1428927,214.902129 C65.1428927,215.653564 65.3745708,216.239701 65.8379271,216.66054 C66.302151,217.082246 66.9451229,217.293099 67.7668427,217.293099 C68.0054625,217.293099 68.2406114,217.272274 68.4722896,217.230624 C68.7039677,217.188974 68.935212,217.126065 69.1660224,217.041898 Z" id="DejaVuSans-Bold-63" fill="#000000" fill-rule="nonzero" transform="translate(67.154458, 214.901478) scale(-1, 1) rotate(-180.000000) translate(-67.154458, -214.901478) "></path>
            <polygon id="DejaVuSans-Bold-2e" fill="#000000" fill-rule="nonzero" transform="translate(71.304815, 216.387862) scale(-1, 1) rotate(-180.000000) translate(-71.304815, -216.387862) " points="70.5726861 217.174657 72.0369439 217.174657 72.0369439 215.601068 70.5726861 215.601068"></polygon>
            <text id="21" font-family="Helvetica" font-size="12" font-weight="normal" fill="#0000FF">
                <tspan x="0.326171875" y="21">21</tspan>
            </text>
            <text id="22" font-family="Helvetica-Bold, Helvetica" font-size="12" font-weight="bold" fill="#FF0000">
                <tspan x="0.326171875" y="63">22</tspan>
            </text>
            <text id="23" font-family="Helvetica" font-size="12" font-weight="normal" fill="#0000FF">
                <tspan x="0.326171875" y="106">23</tspan>
            </text>
            <text id="24" font-family="Helvetica" font-size="12" font-weight="normal" fill="#0000FF">
                <tspan x="0.326171875" y="148">24</tspan>
            </text>
            <text id="25" font-family="Helvetica" font-size="12" font-weight="normal" fill="#0000FF">
                <tspan x="0.326171875" y="191">25</tspan>
            </text>
            <text id="21" font-family="Helvetica" font-size="12" font-weight="normal" fill="#0000FF">
                <tspan x="274.326172" y="21">21</tspan>
            </text>
            <text id="22" font-family="Helvetica" font-size="12" font-weight="normal" fill="#0000FF">
                <tspan x="274.326172" y="63">22</tspan>
            </text>
            <text id="23" font-family="Helvetica" font-size="12" font-weight="normal" fill="#0000FF">
                <tspan x="274.326172" y="106">23</tspan>
            </text>
            <text id="24" font-family="Helvetica" font-size="12" font-weight="normal" fill="#0000FF">
                <tspan x="274.326172" y="148">24</tspan>
            </text>
            <text id="25" font-family="Helvetica" font-size="12" font-weight="normal" fill="#0000FF">
                <tspan x="274.326172" y="191">25</tspan>
            </text>
        </g>
    </g>
</svg>