<?xml version="1.0" encoding="UTF-8"?>
<svg width="288px" height="232px" viewBox="0 0 288 232" version="1.1" xmlns="http://www.w3.org/2000/svg" xmlns:xlink="http://www.w3.org/1999/xlink">
    <!-- Generator: Sketch 47 (45396) - http://www.bohemiancoding.com/sketch -->
    <title>Group 2</title>
    <desc>Created with Sketch.</desc>
    <defs></defs>
    <g id="Page-1" stroke="none" stroke-width="1" fill="none" fill-rule="evenodd">
        <g id="Group-2">
            <g id="char_perceptron4" transform="translate(22.000000, 0.000000)">
                <g id="patch_1" transform="translate(9.000000, 0.000000)" fill-rule="nonzero" fill="#FFFFFF">
                    <polygon id="Shape" points="0 231.84 231.84 231.84 231.84 0 0 0"></polygon>
                </g>
                <g id="axes_1" transform="translate(0.000000, 2.000000)">
                    <g id="patch_2" transform="translate(92.000000, 113.000000)" stroke="#000000" fill-rule="nonzero" fill="#000000">
                        <polygon id="Shape" points="1.819512 0.92 3.233171 7.988293 1.819512 7.988293 1.819512 57.466341 1.819512 57.466341 1.819512 7.988293 0.405854 7.988293"></polygon>
                    </g>
                    <g id="patch_3" transform="translate(107.000000, 98.000000)" stroke="#000000" fill-rule="nonzero" fill="#000000">
                        <polygon id="Shape" points="29.229268 1.783415 22.160976 3.197073 22.160976 1.783415 0.956098 1.783415 0.956098 1.783415 22.160976 1.783415 22.160976 0.369756"></polygon>
                    </g>
                    <g id="patch_4" transform="translate(45.000000, 26.000000)" stroke="#000000" fill-rule="nonzero" fill="#000000">
                        <polygon id="Shape" points="40.977946 62.021065 35.880927 56.924046 37.057162 56.13989 0.114737 0.726252 0.114737 0.726252 37.057162 56.13989 38.233397 55.355733"></polygon>
                    </g>
                    <g id="patch_5" transform="translate(48.000000, 65.000000)" stroke="#000000" fill-rule="nonzero" fill="#000000">
                        <polygon id="Shape" points="34.510244 26.301463 28.007415 23.191415 28.85561 22.060488 0.582439 0.85561 0.582439 0.85561 28.85561 22.060488 29.703805 20.929561"></polygon>
                    </g>
                    <g id="patch_6" transform="translate(51.000000, 98.000000)" stroke="#000000" fill-rule="nonzero" fill="#000000">
                        <polygon id="Shape" points="28.682927 1.783415 21.614634 3.197073 21.614634 1.783415 0.409756 1.783415 0.409756 1.783415 21.614634 1.783415 21.614634 0.369756"></polygon>
                    </g>
                    <g id="patch_7" transform="translate(48.000000, 108.000000)" stroke="#000000" fill-rule="nonzero" fill="#000000">
                        <polygon id="Shape" points="34.510244 0.265366 29.703805 5.637268 28.85561 4.506341 0.582439 25.71122 0.582439 25.71122 28.85561 4.506341 28.007415 3.375415"></polygon>
                    </g>
                    <g id="patch_8" transform="translate(45.000000, 111.000000)" stroke="#000000" fill-rule="nonzero" fill="#000000">
                        <polygon id="Shape" points="40.977946 0.545765 38.233397 7.211096 37.057162 6.42694 0.114737 61.840577 0.114737 61.840577 37.057162 6.42694 35.880927 5.642783"></polygon>
                    </g>
                    <g id="patch_9" transform="translate(158.000000, 26.000000)" stroke="#000000" fill-rule="nonzero" fill="#000000">
                        <polygon id="Shape" points="41.070628 0.726252 38.32608 7.391584 37.149845 6.607427 0.20742 62.021065 0.20742 62.021065 37.149845 6.607427 35.97361 5.823271"></polygon>
                    </g>
                    <g id="patch_10" transform="translate(161.000000, 65.000000)" stroke="#000000" fill-rule="nonzero" fill="#000000">
                        <polygon id="Shape" points="34.602927 0.85561 29.796488 6.227512 28.948293 5.096585 0.675122 26.301463 0.675122 26.301463 28.948293 5.096585 28.100098 3.965659"></polygon>
                    </g>
                    <g id="patch_11" transform="translate(164.000000, 98.000000)" stroke="#000000" fill-rule="nonzero" fill="#000000">
                        <polygon id="Shape" points="28.77561 1.783415 21.707317 3.197073 21.707317 1.783415 0.502439 1.783415 0.502439 1.783415 21.707317 1.783415 21.707317 0.369756"></polygon>
                    </g>
                    <g id="patch_12" transform="translate(161.000000, 108.000000)" stroke="#000000" fill-rule="nonzero" fill="#000000">
                        <polygon id="Shape" points="34.602927 25.71122 28.100098 22.601171 28.948293 21.470244 0.675122 0.265366 0.675122 0.265366 28.948293 21.470244 29.796488 20.339317"></polygon>
                    </g>
                    <g id="patch_13" transform="translate(158.000000, 111.000000)" stroke="#000000" fill-rule="nonzero" fill="#000000">
                        <polygon id="Shape" points="41.070628 61.840577 35.97361 56.743558 37.149845 55.959402 0.20742 0.545765 0.20742 0.545765 37.149845 55.959402 38.32608 55.175245"></polygon>
                    </g>
                    <g id="patch_14" transform="translate(79.000000, 85.000000)" stroke="#000000" fill-rule="nonzero" fill="#B2B2B2">
                        <path d="M14.819512,28.92 C18.568578,28.92 22.164597,27.43048 24.815588,24.77949 C27.466578,22.1285 28.956098,18.532481 28.956098,14.783415 C28.956098,11.034348 27.466578,7.438329 24.815588,4.787339 C22.164597,2.136349 18.568578,0.646829 14.819512,0.646829 C11.070446,0.646829 7.474427,2.136349 4.823437,4.787339 C2.172447,7.438329 0.682927,11.034348 0.682927,14.783415 C0.682927,18.532481 2.172447,22.1285 4.823437,24.77949 C7.474427,27.43048 11.070446,28.92 14.819512,28.92 Z" id="Shape"></path>
                    </g>
                    <g id="patch_15" transform="translate(79.000000, 85.000000)" stroke="#000000">
                        <path d="M14.819512,28.92 C18.568578,28.92 22.164597,27.43048 24.815588,24.77949 C27.466578,22.1285 28.956098,18.532481 28.956098,14.783415 C28.956098,11.034348 27.466578,7.438329 24.815588,4.787339 C22.164597,2.136349 18.568578,0.646829 14.819512,0.646829 C11.070446,0.646829 7.474427,2.136349 4.823437,4.787339 C2.172447,7.438329 0.682927,11.034348 0.682927,14.783415 C0.682927,18.532481 2.172447,22.1285 4.823437,24.77949 C7.474427,27.43048 11.070446,28.92 14.819512,28.92 Z" id="Shape"></path>
                    </g>
                    <g id="patch_16" transform="translate(136.000000, 85.000000)" stroke="#000000" fill-rule="nonzero" fill="#B2B2B2">
                        <path d="M14.365854,28.92 C18.11492,28.92 21.710939,27.43048 24.361929,24.77949 C27.012919,22.1285 28.502439,18.532481 28.502439,14.783415 C28.502439,11.034348 27.012919,7.438329 24.361929,4.787339 C21.710939,2.136349 18.11492,0.646829 14.365854,0.646829 C10.616787,0.646829 7.020768,2.136349 4.369778,4.787339 C1.718788,7.438329 0.229268,11.034348 0.229268,14.783415 C0.229268,18.532481 1.718788,22.1285 4.369778,24.77949 C7.020768,27.43048 10.616787,28.92 14.365854,28.92 Z" id="Shape"></path>
                    </g>
                    <g id="patch_17" transform="translate(136.000000, 85.000000)" stroke="#000000">
                        <path d="M14.365854,28.92 C18.11492,28.92 21.710939,27.43048 24.361929,24.77949 C27.012919,22.1285 28.502439,18.532481 28.502439,14.783415 C28.502439,11.034348 27.012919,7.438329 24.361929,4.787339 C21.710939,2.136349 18.11492,0.646829 14.365854,0.646829 C10.616787,0.646829 7.020768,2.136349 4.369778,4.787339 C1.718788,7.438329 0.229268,11.034348 0.229268,14.783415 C0.229268,18.532481 1.718788,22.1285 4.369778,24.77949 C7.020768,27.43048 10.616787,28.92 14.365854,28.92 Z" id="Shape"></path>
                    </g>
                    <g id="patch_18" transform="translate(79.000000, 170.000000)" stroke="#000000">
                        <path d="M14.819512,28.739512 C18.568578,28.739512 22.164597,27.249992 24.815588,24.599002 C27.466578,21.948012 28.956098,18.351993 28.956098,14.602927 C28.956098,10.853861 27.466578,7.257842 24.815588,4.606851 C22.164597,1.955861 18.568578,0.466341 14.819512,0.466341 C11.070446,0.466341 7.474427,1.955861 4.823437,4.606851 C2.172447,7.257842 0.682927,10.853861 0.682927,14.602927 C0.682927,18.351993 2.172447,21.948012 4.823437,24.599002 C7.474427,27.249992 11.070446,28.739512 14.819512,28.739512 Z" id="Shape"></path>
                    </g>
                    <g id="patch_19" transform="translate(23.000000, 0.000000)" stroke="#000000">
                        <path d="M14.273171,29.100488 C18.022237,29.100488 21.618256,27.610968 24.269246,24.959978 C26.920236,22.308988 28.409756,18.712969 28.409756,14.963902 C28.409756,11.214836 26.920236,7.618817 24.269246,4.967827 C21.618256,2.316837 18.022237,0.827317 14.273171,0.827317 C10.524104,0.827317 6.928086,2.316837 4.277095,4.967827 C1.626105,7.618817 0.136585,11.214836 0.136585,14.963902 C0.136585,18.712969 1.626105,22.308988 4.277095,24.959978 C6.928086,27.610968 10.524104,29.100488 14.273171,29.100488 Z" id="Shape"></path>
                    </g>
                    <g id="patch_20" transform="translate(23.000000, 43.000000)" stroke="#000000">
                        <path d="M14.273171,28.510244 C18.022237,28.510244 21.618256,27.020724 24.269246,24.369734 C26.920236,21.718744 28.409756,18.122725 28.409756,14.373659 C28.409756,10.624592 26.920236,7.028573 24.269246,4.377583 C21.618256,1.726593 18.022237,0.237073 14.273171,0.237073 C10.524104,0.237073 6.928086,1.726593 4.277095,4.377583 C1.626105,7.028573 0.136585,10.624592 0.136585,14.373659 C0.136585,18.122725 1.626105,21.718744 4.277095,24.369734 C6.928086,27.020724 10.524104,28.510244 14.273171,28.510244 Z" id="Shape"></path>
                    </g>
                    <g id="patch_21" transform="translate(23.000000, 85.000000)" stroke="#000000">
                        <path d="M14.273171,28.92 C18.022237,28.92 21.618256,27.43048 24.269246,24.77949 C26.920236,22.1285 28.409756,18.532481 28.409756,14.783415 C28.409756,11.034348 26.920236,7.438329 24.269246,4.787339 C21.618256,2.136349 18.022237,0.646829 14.273171,0.646829 C10.524104,0.646829 6.928086,2.136349 4.277095,4.787339 C1.626105,7.438329 0.136585,11.034348 0.136585,14.783415 C0.136585,18.532481 1.626105,22.1285 4.277095,24.77949 C6.928086,27.43048 10.524104,28.92 14.273171,28.92 Z" id="Shape"></path>
                    </g>
                    <g id="patch_22" transform="translate(23.000000, 128.000000)" stroke="#000000">
                        <path d="M14.273171,28.329756 C18.022237,28.329756 21.618256,26.840236 24.269246,24.189246 C26.920236,21.538256 28.409756,17.942237 28.409756,14.193171 C28.409756,10.444104 26.920236,6.848086 24.269246,4.197095 C21.618256,1.546105 18.022237,0.056585 14.273171,0.056585 C10.524104,0.056585 6.928086,1.546105 4.277095,4.197095 C1.626105,6.848086 0.136585,10.444104 0.136585,14.193171 C0.136585,17.942237 1.626105,21.538256 4.277095,24.189246 C6.928086,26.840236 10.524104,28.329756 14.273171,28.329756 Z" id="Shape"></path>
                    </g>
                    <g id="patch_23" transform="translate(23.000000, 170.000000)" stroke="#000000">
                        <path d="M14.273171,28.739512 C18.022237,28.739512 21.618256,27.249992 24.269246,24.599002 C26.920236,21.948012 28.409756,18.351993 28.409756,14.602927 C28.409756,10.853861 26.920236,7.257842 24.269246,4.606851 C21.618256,1.955861 18.022237,0.466341 14.273171,0.466341 C10.524104,0.466341 6.928086,1.955861 4.277095,4.606851 C1.626105,7.257842 0.136585,10.853861 0.136585,14.602927 C0.136585,18.351993 1.626105,21.948012 4.277095,24.599002 C6.928086,27.249992 10.524104,28.739512 14.273171,28.739512 Z" id="Shape"></path>
                    </g>
                    <g id="patch_24" transform="translate(192.000000, 0.000000)" stroke="#000000">
                        <path d="M14.912195,29.100488 C18.661261,29.100488 22.25728,27.610968 24.90827,24.959978 C27.559261,22.308988 29.04878,18.712969 29.04878,14.963902 C29.04878,11.214836 27.559261,7.618817 24.90827,4.967827 C22.25728,2.316837 18.661261,0.827317 14.912195,0.827317 C11.163129,0.827317 7.56711,2.316837 4.91612,4.967827 C2.26513,7.618817 0.77561,11.214836 0.77561,14.963902 C0.77561,18.712969 2.26513,22.308988 4.91612,24.959978 C7.56711,27.610968 11.163129,29.100488 14.912195,29.100488 Z" id="Shape"></path>
                    </g>
                    <g id="patch_25" transform="translate(192.000000, 43.000000)" stroke="#000000">
                        <path d="M14.912195,28.510244 C18.661261,28.510244 22.25728,27.020724 24.90827,24.369734 C27.559261,21.718744 29.04878,18.122725 29.04878,14.373659 C29.04878,10.624592 27.559261,7.028573 24.90827,4.377583 C22.25728,1.726593 18.661261,0.237073 14.912195,0.237073 C11.163129,0.237073 7.56711,1.726593 4.91612,4.377583 C2.26513,7.028573 0.77561,10.624592 0.77561,14.373659 C0.77561,18.122725 2.26513,21.718744 4.91612,24.369734 C7.56711,27.020724 11.163129,28.510244 14.912195,28.510244 Z" id="Shape"></path>
                    </g>
                    <g id="patch_26" transform="translate(192.000000, 85.000000)" stroke="#000000">
                        <path d="M14.912195,28.92 C18.661261,28.92 22.25728,27.43048 24.90827,24.77949 C27.559261,22.1285 29.04878,18.532481 29.04878,14.783415 C29.04878,11.034348 27.559261,7.438329 24.90827,4.787339 C22.25728,2.136349 18.661261,0.646829 14.912195,0.646829 C11.163129,0.646829 7.56711,2.136349 4.91612,4.787339 C2.26513,7.438329 0.77561,11.034348 0.77561,14.783415 C0.77561,18.532481 2.26513,22.1285 4.91612,24.77949 C7.56711,27.43048 11.163129,28.92 14.912195,28.92 Z" id="Shape"></path>
                    </g>
                    <g id="patch_27" transform="translate(192.000000, 128.000000)" stroke="#000000">
                        <path d="M14.912195,28.329756 C18.661261,28.329756 22.25728,26.840236 24.90827,24.189246 C27.559261,21.538256 29.04878,17.942237 29.04878,14.193171 C29.04878,10.444104 27.559261,6.848086 24.90827,4.197095 C22.25728,1.546105 18.661261,0.056585 14.912195,0.056585 C11.163129,0.056585 7.56711,1.546105 4.91612,4.197095 C2.26513,6.848086 0.77561,10.444104 0.77561,14.193171 C0.77561,17.942237 2.26513,21.538256 4.91612,24.189246 C7.56711,26.840236 11.163129,28.329756 14.912195,28.329756 Z" id="Shape"></path>
                    </g>
                    <g id="patch_28" transform="translate(192.000000, 170.000000)" stroke="#000000">
                        <path d="M14.912195,28.739512 C18.661261,28.739512 22.25728,27.249992 24.90827,24.599002 C27.559261,21.948012 29.04878,18.351993 29.04878,14.602927 C29.04878,10.853861 27.559261,7.257842 24.90827,4.606851 C22.25728,1.955861 18.661261,0.466341 14.912195,0.466341 C11.163129,0.466341 7.56711,1.955861 4.91612,4.606851 C2.26513,7.257842 0.77561,10.853861 0.77561,14.602927 C0.77561,18.351993 2.26513,21.948012 4.91612,24.599002 C7.56711,27.249992 11.163129,28.739512 14.912195,28.739512 Z" id="Shape"></path>
                    </g>
                    <g id="patch_29" transform="translate(51.000000, 29.000000)">
                        <path d="M14.546341,28.373659 C18.295408,28.373659 21.891427,26.884139 24.542417,24.233149 C27.193407,21.582158 28.682927,17.986139 28.682927,14.237073 C28.682927,10.488007 27.193407,6.891988 24.542417,4.240998 C21.891427,1.590008 18.295408,0.100488 14.546341,0.100488 C10.797275,0.100488 7.201256,1.590008 4.550266,4.240998 C1.899276,6.891988 0.409756,10.488007 0.409756,14.237073 C0.409756,17.986139 1.899276,21.582158 4.550266,24.233149 C7.201256,26.884139 10.797275,28.373659 14.546341,28.373659 Z" id="Shape"></path>
                    </g>
                    <g id="patch_30" transform="translate(51.000000, 55.000000)">
                        <path d="M14.546341,29.233171 C18.295408,29.233171 21.891427,27.743651 24.542417,25.092661 C27.193407,22.441671 28.682927,18.845652 28.682927,15.096585 C28.682927,11.347519 27.193407,7.7515 24.542417,5.10051 C21.891427,2.44952 18.295408,0.96 14.546341,0.96 C10.797275,0.96 7.201256,2.44952 4.550266,5.10051 C1.899276,7.7515 0.409756,11.347519 0.409756,15.096585 C0.409756,18.845652 1.899276,22.441671 4.550266,25.092661 C7.201256,27.743651 10.797275,29.233171 14.546341,29.233171 Z" id="Shape"></path>
                    </g>
                    <g id="patch_31" transform="translate(51.000000, 79.000000)">
                        <path d="M14.546341,29.265366 C18.295408,29.265366 21.891427,27.775846 24.542417,25.124856 C27.193407,22.473866 28.682927,18.877847 28.682927,15.12878 C28.682927,11.379714 27.193407,7.783695 24.542417,5.132705 C21.891427,2.481715 18.295408,0.992195 14.546341,0.992195 C10.797275,0.992195 7.201256,2.481715 4.550266,5.132705 C1.899276,7.783695 0.409756,11.379714 0.409756,15.12878 C0.409756,18.877847 1.899276,22.473866 4.550266,25.124856 C7.201256,27.775846 10.797275,29.265366 14.546341,29.265366 Z" id="Shape"></path>
                    </g>
                    <g id="patch_32" transform="translate(51.000000, 98.000000)">
                        <path d="M14.546341,28.58638 C18.295408,28.58638 21.891427,27.096861 24.542417,24.44587 C27.193407,21.79488 28.682927,18.198861 28.682927,14.449795 C28.682927,10.700729 27.193407,7.10471 24.542417,4.45372 C21.891427,1.80273 18.295408,0.31321 14.546341,0.31321 C10.797275,0.31321 7.201256,1.80273 4.550266,4.45372 C1.899276,7.10471 0.409756,10.700729 0.409756,14.449795 C0.409756,18.198861 1.899276,21.79488 4.550266,24.44587 C7.201256,27.096861 10.797275,28.58638 14.546341,28.58638 Z" id="Shape"></path>
                    </g>
                    <g id="patch_33" transform="translate(51.000000, 116.000000)">
                        <path d="M14.546341,29.020488 C18.295408,29.020488 21.891427,27.530968 24.542417,24.879978 C27.193407,22.228988 28.682927,18.632969 28.682927,14.883902 C28.682927,11.134836 27.193407,7.538817 24.542417,4.887827 C21.891427,2.236837 18.295408,0.747317 14.546341,0.747317 C10.797275,0.747317 7.201256,2.236837 4.550266,4.887827 C1.899276,7.538817 0.409756,11.134836 0.409756,14.883902 C0.409756,18.632969 1.899276,22.228988 4.550266,24.879978 C7.201256,27.530968 10.797275,29.020488 14.546341,29.020488 Z" id="Shape"></path>
                    </g>
                    <g id="patch_34" transform="translate(90.000000, 142.000000)">
                        <path d="M15.12878,28.466341 C18.877847,28.466341 22.473866,26.976822 25.124856,24.325831 C27.775846,21.674841 29.265366,18.078822 29.265366,14.329756 C29.265366,10.58069 27.775846,6.984671 25.124856,4.333681 C22.473866,1.682691 18.877847,0.193171 15.12878,0.193171 C11.379714,0.193171 7.783695,1.682691 5.132705,4.333681 C2.481715,6.984671 0.992195,10.58069 0.992195,14.329756 C0.992195,18.078822 2.481715,21.674841 5.132705,24.325831 C7.783695,26.976822 11.379714,28.466341 15.12878,28.466341 Z" id="Shape"></path>
                    </g>
                    <g id="patch_35">
                        <path d="M14.654634,29.100488 C18.4037,29.100488 21.999719,27.610968 24.65071,24.959978 C27.3017,22.308988 28.79122,18.712969 28.79122,14.963902 C28.79122,11.214836 27.3017,7.618817 24.65071,4.967827 C21.999719,2.316837 18.4037,0.827317 14.654634,0.827317 C10.905568,0.827317 7.309549,2.316837 4.658559,4.967827 C2.007569,7.618817 0.518049,11.214836 0.518049,14.963902 C0.518049,18.712969 2.007569,22.308988 4.658559,24.959978 C7.309549,27.610968 10.905568,29.100488 14.654634,29.100488 Z" id="Shape"></path>
                    </g>
                    <g id="patch_36" transform="translate(0.000000, 43.000000)">
                        <path d="M14.654634,28.510244 C18.4037,28.510244 21.999719,27.020724 24.65071,24.369734 C27.3017,21.718744 28.79122,18.122725 28.79122,14.373659 C28.79122,10.624592 27.3017,7.028573 24.65071,4.377583 C21.999719,1.726593 18.4037,0.237073 14.654634,0.237073 C10.905568,0.237073 7.309549,1.726593 4.658559,4.377583 C2.007569,7.028573 0.518049,10.624592 0.518049,14.373659 C0.518049,18.122725 2.007569,21.718744 4.658559,24.369734 C7.309549,27.020724 10.905568,28.510244 14.654634,28.510244 Z" id="Shape"></path>
                    </g>
                    <g id="patch_37" transform="translate(0.000000, 85.000000)">
                        <path d="M14.654634,28.92 C18.4037,28.92 21.999719,27.43048 24.65071,24.77949 C27.3017,22.1285 28.79122,18.532481 28.79122,14.783415 C28.79122,11.034348 27.3017,7.438329 24.65071,4.787339 C21.999719,2.136349 18.4037,0.646829 14.654634,0.646829 C10.905568,0.646829 7.309549,2.136349 4.658559,4.787339 C2.007569,7.438329 0.518049,11.034348 0.518049,14.783415 C0.518049,18.532481 2.007569,22.1285 4.658559,24.77949 C7.309549,27.43048 10.905568,28.92 14.654634,28.92 Z" id="Shape"></path>
                    </g>
                    <g id="patch_38" transform="translate(0.000000, 128.000000)">
                        <path d="M14.654634,28.329756 C18.4037,28.329756 21.999719,26.840236 24.65071,24.189246 C27.3017,21.538256 28.79122,17.942237 28.79122,14.193171 C28.79122,10.444104 27.3017,6.848086 24.65071,4.197095 C21.999719,1.546105 18.4037,0.056585 14.654634,0.056585 C10.905568,0.056585 7.309549,1.546105 4.658559,4.197095 C2.007569,6.848086 0.518049,10.444104 0.518049,14.193171 C0.518049,17.942237 2.007569,21.538256 4.658559,24.189246 C7.309549,26.840236 10.905568,28.329756 14.654634,28.329756 Z" id="Shape"></path>
                    </g>
                    <g id="patch_39" transform="translate(0.000000, 170.000000)">
                        <path d="M14.654634,28.739512 C18.4037,28.739512 21.999719,27.249992 24.65071,24.599002 C27.3017,21.948012 28.79122,18.351993 28.79122,14.602927 C28.79122,10.853861 27.3017,7.257842 24.65071,4.606851 C21.999719,1.955861 18.4037,0.466341 14.654634,0.466341 C10.905568,0.466341 7.309549,1.955861 4.658559,4.606851 C2.007569,7.257842 0.518049,10.853861 0.518049,14.602927 C0.518049,18.351993 2.007569,21.948012 4.658559,24.599002 C7.309549,27.249992 10.905568,28.739512 14.654634,28.739512 Z" id="Shape"></path>
                    </g>
                    <g id="patch_40" transform="translate(215.000000, 0.000000)">
                        <path d="M14.530732,29.100488 C18.279798,29.100488 21.875817,27.610968 24.526807,24.959978 C27.177797,22.308988 28.667317,18.712969 28.667317,14.963902 C28.667317,11.214836 27.177797,7.618817 24.526807,4.967827 C21.875817,2.316837 18.279798,0.827317 14.530732,0.827317 C10.781665,0.827317 7.185647,2.316837 4.534656,4.967827 C1.883666,7.618817 0.394146,11.214836 0.394146,14.963902 C0.394146,18.712969 1.883666,22.308988 4.534656,24.959978 C7.185647,27.610968 10.781665,29.100488 14.530732,29.100488 Z" id="Shape"></path>
                    </g>
                    <g id="patch_41" transform="translate(215.000000, 43.000000)">
                        <path d="M14.530732,28.510244 C18.279798,28.510244 21.875817,27.020724 24.526807,24.369734 C27.177797,21.718744 28.667317,18.122725 28.667317,14.373659 C28.667317,10.624592 27.177797,7.028573 24.526807,4.377583 C21.875817,1.726593 18.279798,0.237073 14.530732,0.237073 C10.781665,0.237073 7.185647,1.726593 4.534656,4.377583 C1.883666,7.028573 0.394146,10.624592 0.394146,14.373659 C0.394146,18.122725 1.883666,21.718744 4.534656,24.369734 C7.185647,27.020724 10.781665,28.510244 14.530732,28.510244 Z" id="Shape"></path>
                    </g>
                    <g id="patch_42" transform="translate(215.000000, 85.000000)">
                        <path d="M14.530732,28.92 C18.279798,28.92 21.875817,27.43048 24.526807,24.77949 C27.177797,22.1285 28.667317,18.532481 28.667317,14.783415 C28.667317,11.034348 27.177797,7.438329 24.526807,4.787339 C21.875817,2.136349 18.279798,0.646829 14.530732,0.646829 C10.781665,0.646829 7.185647,2.136349 4.534656,4.787339 C1.883666,7.438329 0.394146,11.034348 0.394146,14.783415 C0.394146,18.532481 1.883666,22.1285 4.534656,24.77949 C7.185647,27.43048 10.781665,28.92 14.530732,28.92 Z" id="Shape"></path>
                    </g>
                    <g id="patch_43" transform="translate(215.000000, 128.000000)">
                        <path d="M14.530732,28.329756 C18.279798,28.329756 21.875817,26.840236 24.526807,24.189246 C27.177797,21.538256 28.667317,17.942237 28.667317,14.193171 C28.667317,10.444104 27.177797,6.848086 24.526807,4.197095 C21.875817,1.546105 18.279798,0.056585 14.530732,0.056585 C10.781665,0.056585 7.185647,1.546105 4.534656,4.197095 C1.883666,6.848086 0.394146,10.444104 0.394146,14.193171 C0.394146,17.942237 1.883666,21.538256 4.534656,24.189246 C7.185647,26.840236 10.781665,28.329756 14.530732,28.329756 Z" id="Shape"></path>
                    </g>
                    <g id="patch_44" transform="translate(215.000000, 170.000000)">
                        <path d="M14.530732,28.739512 C18.279798,28.739512 21.875817,27.249992 24.526807,24.599002 C27.177797,21.948012 28.667317,18.351993 28.667317,14.602927 C28.667317,10.853861 27.177797,7.257842 24.526807,4.606851 C21.875817,1.955861 18.279798,0.466341 14.530732,0.466341 C10.781665,0.466341 7.185647,1.955861 4.534656,4.606851 C1.883666,7.257842 0.394146,10.853861 0.394146,14.602927 C0.394146,18.351993 1.883666,21.948012 4.534656,24.599002 C7.185647,27.249992 10.781665,28.739512 14.530732,28.739512 Z" id="Shape"></path>
                    </g>
                    <g id="patch_45" transform="translate(23.000000, 198.000000)">
                        <path d="M14.273171,29.012683 C18.022237,29.012683 21.618256,27.523163 24.269246,24.872173 C26.920236,22.221183 28.409756,18.625164 28.409756,14.876098 C28.409756,11.127031 26.920236,7.531012 24.269246,4.880022 C21.618256,2.229032 18.022237,0.739512 14.273171,0.739512 C10.524104,0.739512 6.928086,2.229032 4.277095,4.880022 C1.626105,7.531012 0.136585,11.127031 0.136585,14.876098 C0.136585,18.625164 1.626105,22.221183 4.277095,24.872173 C6.928086,27.523163 10.524104,29.012683 14.273171,29.012683 Z" id="Shape"></path>
                    </g>
                    <g id="text_1" transform="translate(91.000000, 95.000000)" fill-rule="nonzero" fill="#000000">
                        <g id="Group" transform="translate(2.960137, 3.892790) scale(-1, 1) rotate(-180.000000) translate(-2.960137, -3.892790) translate(0.560137, 0.242790)">
                            <g id="DejaVuSans-3a3-link">
                                <polygon id="DejaVuSans-3a3" points="1.2140625 0.8296875 4.778125 0.8296875 4.778125 0 0.08125 0 0.08125 0.8296875 2.4203125 3.8765625 0.08125 6.459375 0.08125 7.290625 4.690625 7.290625 4.690625 6.459375 1.2140625 6.459375 3.553125 3.896875"></polygon>
                            </g>
                        </g>
                    </g>
                    <g id="text_2" transform="translate(142.000000, 94.000000)" fill-rule="nonzero" fill="#000000">
                        <g id="Group" transform="translate(8.265854, 5.392790) scale(-1, 1) rotate(-180.000000) translate(-8.265854, -5.392790) translate(0.115854, 0.842790)">
                            <g id="DejaVuSans-Oblique-66-link" transform="translate(0.000000, 1.401563)">
                                <path d="M4.1796875,7.5984375 L4.0390625,6.85 L3.1796875,6.85 C2.85364583,6.85 2.61666667,6.7859375 2.46875,6.6578125 C2.32083333,6.5296875 2.2109375,6.29427083 2.1390625,5.9515625 L2.0421875,5.46875 L3.521875,5.46875 L3.3890625,4.7703125 L1.909375,4.7703125 L0.9828125,0 L0.078125,0 L1.0109375,4.7703125 L0.1515625,4.7703125 L0.2796875,5.46875 L1.1390625,5.46875 L1.2109375,5.85 C1.33489583,6.49479167 1.55208333,6.94739583 1.8625,7.2078125 C2.17395833,7.46822917 2.66354167,7.5984375 3.33125,7.5984375 L4.1796875,7.5984375 Z" id="DejaVuSans-Oblique-66"></path>
                            </g>
                            <g id="DejaVuSans-28-link" transform="translate(3.720508, 0.001563)">
                                <path d="M2.3,8.9875 C1.86458333,8.23958333 1.540625,7.49895833 1.328125,6.765625 C1.11666667,6.03333333 1.0109375,5.29114583 1.0109375,4.5390625 C1.0109375,3.78802083 1.11770833,3.04375 1.33125,2.30625 C1.54479167,1.56875 1.86770833,0.827083333 2.3,0.08125 L1.51875,0.08125 C1.03125,0.846875 0.666145833,1.59895833 0.4234375,2.3375 C0.180729167,3.07604167 0.059375,3.80989583 0.059375,4.5390625 C0.059375,5.26510417 0.1796875,5.99583333 0.4203125,6.73125 C0.661979167,7.46770833 1.028125,8.21979167 1.51875,8.9875 L2.3,8.9875 Z" id="DejaVuSans-28"></path>
                            </g>
                            <g id="DejaVuSans-3a3-link" transform="translate(7.721875, 1.401563)">
                                <polygon id="DejaVuSans-3a3" points="1.2140625 0.8296875 4.778125 0.8296875 4.778125 0 0.08125 0 0.08125 0.8296875 2.4203125 3.8765625 0.08125 6.459375 0.08125 7.290625 4.690625 7.290625 4.690625 6.459375 1.2140625 6.459375 3.553125 3.896875"></polygon>
                            </g>
                            <g id="DejaVuSans-29-link" transform="translate(13.940234, 0.001563)">
                                <path d="M0.0015625,8.9875 L0.7828125,8.9875 C1.2703125,8.21979167 1.63541667,7.46770833 1.878125,6.73125 C2.12083333,5.99583333 2.2421875,5.26510417 2.2421875,4.5390625 C2.2421875,3.80989583 2.12083333,3.07604167 1.878125,2.3375 C1.63541667,1.59895833 1.2703125,0.846875 0.7828125,0.08125 L0.0015625,0.08125 C0.433854167,0.827083333 0.756770833,1.56875 0.9703125,2.30625 C1.18385417,3.04375 1.290625,3.78802083 1.290625,4.5390625 C1.290625,5.29114583 1.18385417,6.03333333 0.9703125,6.765625 C0.756770833,7.49895833 0.433854167,8.23958333 0.0015625,8.9875 Z" id="DejaVuSans-29"></path>
                            </g>
                        </g>
                    </g>
                    <g id="text_3" transform="translate(90.000000, 179.000000)" fill-rule="nonzero" fill="#000000">
                        <g id="Group" transform="translate(3.719512, 4.612302) scale(-1, 1) rotate(-180.000000) translate(-3.719512, -4.612302) translate(0.919512, 0.662302)">
                            <g id="DejaVuSans-Oblique-62-link" transform="translate(0.000000, 0.001563)">
                                <path d="M4.6515625,3.540625 C4.6515625,4.0125 4.54322917,4.38177083 4.3265625,4.6484375 C4.10989583,4.91510417 3.81145833,5.0484375 3.43125,5.0484375 C3.15416667,5.0484375 2.89427083,4.98072917 2.6515625,4.8453125 C2.40885417,4.7109375 2.19791667,4.51510417 2.01875,4.2578125 C1.83020833,3.98802083 1.68125,3.67447917 1.571875,3.3171875 C1.46354167,2.9609375 1.409375,2.60572917 1.409375,2.2515625 C1.409375,1.8015625 1.515625,1.44895833 1.728125,1.19375 C1.94166667,0.938541667 2.2359375,0.8109375 2.6109375,0.8109375 C2.89322917,0.8109375 3.1546875,0.8765625 3.3953125,1.0078125 C3.63697917,1.14010417 3.84895833,1.33489583 4.03125,1.5921875 C4.21666667,1.85885417 4.36614583,2.16927083 4.4796875,2.5234375 C4.59427083,2.87864583 4.6515625,3.21770833 4.6515625,3.540625 Z M1.8578125,4.8390625 C2.0796875,5.13802083 2.35729167,5.37291667 2.690625,5.54375 C3.02395833,5.71458333 3.37291667,5.8 3.7375,5.8 C4.29791667,5.8 4.74322917,5.6109375 5.0734375,5.2328125 C5.40364583,4.85572917 5.56875,4.3453125 5.56875,3.7015625 C5.56875,3.1734375 5.471875,2.66197917 5.278125,2.1671875 C5.084375,1.67239583 4.80885417,1.23333333 4.4515625,0.85 C4.2171875,0.595833333 3.946875,0.4 3.640625,0.2625 C3.334375,0.126041667 3.01354167,0.0578125 2.678125,0.0578125 C2.32395833,0.0578125 2.01666667,0.1390625 1.75625,0.3015625 C1.49583333,0.465104167 1.28385417,0.7078125 1.1203125,1.0296875 L0.959375,0.2 L0.0609375,0.2 L1.540625,7.7984375 L2.4390625,7.7984375 L1.8578125,4.8390625 Z" id="DejaVuSans-Oblique-62"></path>
                            </g>
                        </g>
                    </g>
                    <g id="text_4" transform="translate(35.000000, 10.000000)" fill-rule="nonzero" fill="#000000">
                        <g id="Group" transform="translate(2.341921, 4.073277) scale(-1, 1) rotate(-180.000000) translate(-2.341921, -4.073277) translate(0.091921, 0.423277)">
                            <g id="DejaVuSans-31-link">
                                <polygon id="DejaVuSans-31" points="0.240625 0.8296875 1.8515625 0.8296875 1.8515625 6.3921875 0.0984375 6.040625 0.0984375 6.9390625 1.8421875 7.290625 2.828125 7.290625 2.828125 0.8296875 4.4390625 0.8296875 4.4390625 0 0.240625 0"></polygon>
                            </g>
                        </g>
                    </g>
                    <g id="text_5" transform="translate(34.000000, 52.000000)" fill-rule="nonzero" fill="#000000">
                        <g id="Group" transform="translate(3.241921, 4.483034) scale(-1, 1) rotate(-180.000000) translate(-3.241921, -4.483034) translate(0.691921, 0.633034)">
                            <g id="DejaVuSans-30-link">
                                <path d="M2.578125,6.840625 C2.07083333,6.840625 1.6890625,6.590625 1.4328125,6.090625 C1.17760417,5.59166667 1.05,4.840625 1.05,3.8375 C1.05,2.83854167 1.17760417,2.0890625 1.4328125,1.5890625 C1.6890625,1.0890625 2.07083333,0.8390625 2.578125,0.8390625 C3.08958333,0.8390625 3.47291667,1.0890625 3.728125,1.5890625 C3.984375,2.0890625 4.1125,2.83854167 4.1125,3.8375 C4.1125,4.840625 3.984375,5.59166667 3.728125,6.090625 C3.47291667,6.590625 3.08958333,6.840625 2.578125,6.840625 Z M2.578125,7.621875 C3.39583333,7.621875 4.0203125,7.2984375 4.4515625,6.6515625 C4.8828125,6.00572917 5.0984375,5.06770833 5.0984375,3.8375 C5.0984375,2.61041667 4.8828125,1.6734375 4.4515625,1.0265625 C4.0203125,0.380729167 3.39583333,0.0578125 2.578125,0.0578125 C1.76145833,0.0578125 1.1375,0.380729167 0.70625,1.0265625 C0.275,1.6734375 0.059375,2.61041667 0.059375,3.8375 C0.059375,5.06770833 0.275,6.00572917 0.70625,6.6515625 C1.1375,7.2984375 1.76145833,7.621875 2.578125,7.621875 Z" id="DejaVuSans-30"></path>
                            </g>
                        </g>
                    </g>
                    <g id="text_6" transform="translate(34.000000, 95.000000)" fill-rule="nonzero" fill="#000000">
                        <g id="Group" transform="translate(3.241921, 3.892790) scale(-1, 1) rotate(-180.000000) translate(-3.241921, -3.892790) translate(0.691921, 0.042790)">
                            <g id="DejaVuSans-30-link">
                                <path d="M2.578125,6.840625 C2.07083333,6.840625 1.6890625,6.590625 1.4328125,6.090625 C1.17760417,5.59166667 1.05,4.840625 1.05,3.8375 C1.05,2.83854167 1.17760417,2.0890625 1.4328125,1.5890625 C1.6890625,1.0890625 2.07083333,0.8390625 2.578125,0.8390625 C3.08958333,0.8390625 3.47291667,1.0890625 3.728125,1.5890625 C3.984375,2.0890625 4.1125,2.83854167 4.1125,3.8375 C4.1125,4.840625 3.984375,5.59166667 3.728125,6.090625 C3.47291667,6.590625 3.08958333,6.840625 2.578125,6.840625 Z M2.578125,7.621875 C3.39583333,7.621875 4.0203125,7.2984375 4.4515625,6.6515625 C4.8828125,6.00572917 5.0984375,5.06770833 5.0984375,3.8375 C5.0984375,2.61041667 4.8828125,1.6734375 4.4515625,1.0265625 C4.0203125,0.380729167 3.39583333,0.0578125 2.578125,0.0578125 C1.76145833,0.0578125 1.1375,0.380729167 0.70625,1.0265625 C0.275,1.6734375 0.059375,2.61041667 0.059375,3.8375 C0.059375,5.06770833 0.275,6.00572917 0.70625,6.6515625 C1.1375,7.2984375 1.76145833,7.621875 2.578125,7.621875 Z" id="DejaVuSans-30"></path>
                            </g>
                        </g>
                    </g>
                    <g id="text_7" transform="translate(34.000000, 137.000000)" fill-rule="nonzero" fill="#000000">
                        <g id="Group" transform="translate(3.241921, 4.302546) scale(-1, 1) rotate(-180.000000) translate(-3.241921, -4.302546) translate(0.691921, 0.452546)">
                            <g id="DejaVuSans-30-link">
                                <path d="M2.578125,6.840625 C2.07083333,6.840625 1.6890625,6.590625 1.4328125,6.090625 C1.17760417,5.59166667 1.05,4.840625 1.05,3.8375 C1.05,2.83854167 1.17760417,2.0890625 1.4328125,1.5890625 C1.6890625,1.0890625 2.07083333,0.8390625 2.578125,0.8390625 C3.08958333,0.8390625 3.47291667,1.0890625 3.728125,1.5890625 C3.984375,2.0890625 4.1125,2.83854167 4.1125,3.8375 C4.1125,4.840625 3.984375,5.59166667 3.728125,6.090625 C3.47291667,6.590625 3.08958333,6.840625 2.578125,6.840625 Z M2.578125,7.621875 C3.39583333,7.621875 4.0203125,7.2984375 4.4515625,6.6515625 C4.8828125,6.00572917 5.0984375,5.06770833 5.0984375,3.8375 C5.0984375,2.61041667 4.8828125,1.6734375 4.4515625,1.0265625 C4.0203125,0.380729167 3.39583333,0.0578125 2.578125,0.0578125 C1.76145833,0.0578125 1.1375,0.380729167 0.70625,1.0265625 C0.275,1.6734375 0.059375,2.61041667 0.059375,3.8375 C0.059375,5.06770833 0.275,6.00572917 0.70625,6.6515625 C1.1375,7.2984375 1.76145833,7.621875 2.578125,7.621875 Z" id="DejaVuSans-30"></path>
                            </g>
                        </g>
                    </g>
                    <g id="text_8" transform="translate(34.000000, 179.000000)" fill-rule="nonzero" fill="#000000">
                        <g id="Group" transform="translate(3.241921, 4.712302) scale(-1, 1) rotate(-180.000000) translate(-3.241921, -4.712302) translate(0.691921, 0.862302)">
                            <g id="DejaVuSans-30-link">
                                <path d="M2.578125,6.840625 C2.07083333,6.840625 1.6890625,6.590625 1.4328125,6.090625 C1.17760417,5.59166667 1.05,4.840625 1.05,3.8375 C1.05,2.83854167 1.17760417,2.0890625 1.4328125,1.5890625 C1.6890625,1.0890625 2.07083333,0.8390625 2.578125,0.8390625 C3.08958333,0.8390625 3.47291667,1.0890625 3.728125,1.5890625 C3.984375,2.0890625 4.1125,2.83854167 4.1125,3.8375 C4.1125,4.840625 3.984375,5.59166667 3.728125,6.090625 C3.47291667,6.590625 3.08958333,6.840625 2.578125,6.840625 Z M2.578125,7.621875 C3.39583333,7.621875 4.0203125,7.2984375 4.4515625,6.6515625 C4.8828125,6.00572917 5.0984375,5.06770833 5.0984375,3.8375 C5.0984375,2.61041667 4.8828125,1.6734375 4.4515625,1.0265625 C4.0203125,0.380729167 3.39583333,0.0578125 2.578125,0.0578125 C1.76145833,0.0578125 1.1375,0.380729167 0.70625,1.0265625 C0.275,1.6734375 0.059375,2.61041667 0.059375,3.8375 C0.059375,5.06770833 0.275,6.00572917 0.70625,6.6515625 C1.1375,7.2984375 1.76145833,7.621875 2.578125,7.621875 Z" id="DejaVuSans-30"></path>
                            </g>
                        </g>
                    </g>
                    <g id="text_9" transform="translate(204.000000, 10.000000)" fill-rule="nonzero" fill="#000000">
                        <g id="Group" transform="translate(2.880945, 4.073277) scale(-1, 1) rotate(-180.000000) translate(-2.880945, -4.073277) translate(0.330945, 0.223277)">
                            <g id="DejaVuSans-30-link">
                                <path d="M2.578125,6.840625 C2.07083333,6.840625 1.6890625,6.590625 1.4328125,6.090625 C1.17760417,5.59166667 1.05,4.840625 1.05,3.8375 C1.05,2.83854167 1.17760417,2.0890625 1.4328125,1.5890625 C1.6890625,1.0890625 2.07083333,0.8390625 2.578125,0.8390625 C3.08958333,0.8390625 3.47291667,1.0890625 3.728125,1.5890625 C3.984375,2.0890625 4.1125,2.83854167 4.1125,3.8375 C4.1125,4.840625 3.984375,5.59166667 3.728125,6.090625 C3.47291667,6.590625 3.08958333,6.840625 2.578125,6.840625 Z M2.578125,7.621875 C3.39583333,7.621875 4.0203125,7.2984375 4.4515625,6.6515625 C4.8828125,6.00572917 5.0984375,5.06770833 5.0984375,3.8375 C5.0984375,2.61041667 4.8828125,1.6734375 4.4515625,1.0265625 C4.0203125,0.380729167 3.39583333,0.0578125 2.578125,0.0578125 C1.76145833,0.0578125 1.1375,0.380729167 0.70625,1.0265625 C0.275,1.6734375 0.059375,2.61041667 0.059375,3.8375 C0.059375,5.06770833 0.275,6.00572917 0.70625,6.6515625 C1.1375,7.2984375 1.76145833,7.621875 2.578125,7.621875 Z" id="DejaVuSans-30"></path>
                            </g>
                        </g>
                    </g>
                    <g id="text_10" transform="translate(204.000000, 52.000000)" fill-rule="nonzero" fill="#000000">
                        <g id="Group" transform="translate(2.880945, 4.483034) scale(-1, 1) rotate(-180.000000) translate(-2.880945, -4.483034) translate(0.330945, 0.633034)">
                            <g id="DejaVuSans-30-link">
                                <path d="M2.578125,6.840625 C2.07083333,6.840625 1.6890625,6.590625 1.4328125,6.090625 C1.17760417,5.59166667 1.05,4.840625 1.05,3.8375 C1.05,2.83854167 1.17760417,2.0890625 1.4328125,1.5890625 C1.6890625,1.0890625 2.07083333,0.8390625 2.578125,0.8390625 C3.08958333,0.8390625 3.47291667,1.0890625 3.728125,1.5890625 C3.984375,2.0890625 4.1125,2.83854167 4.1125,3.8375 C4.1125,4.840625 3.984375,5.59166667 3.728125,6.090625 C3.47291667,6.590625 3.08958333,6.840625 2.578125,6.840625 Z M2.578125,7.621875 C3.39583333,7.621875 4.0203125,7.2984375 4.4515625,6.6515625 C4.8828125,6.00572917 5.0984375,5.06770833 5.0984375,3.8375 C5.0984375,2.61041667 4.8828125,1.6734375 4.4515625,1.0265625 C4.0203125,0.380729167 3.39583333,0.0578125 2.578125,0.0578125 C1.76145833,0.0578125 1.1375,0.380729167 0.70625,1.0265625 C0.275,1.6734375 0.059375,2.61041667 0.059375,3.8375 C0.059375,5.06770833 0.275,6.00572917 0.70625,6.6515625 C1.1375,7.2984375 1.76145833,7.621875 2.578125,7.621875 Z" id="DejaVuSans-30"></path>
                            </g>
                        </g>
                    </g>
                    <g id="text_11" transform="translate(204.000000, 95.000000)" fill-rule="nonzero" fill="#000000">
                        <g id="Group" transform="translate(2.880945, 3.892790) scale(-1, 1) rotate(-180.000000) translate(-2.880945, -3.892790) translate(0.330945, 0.042790)">
                            <g id="DejaVuSans-30-link">
                                <path d="M2.578125,6.840625 C2.07083333,6.840625 1.6890625,6.590625 1.4328125,6.090625 C1.17760417,5.59166667 1.05,4.840625 1.05,3.8375 C1.05,2.83854167 1.17760417,2.0890625 1.4328125,1.5890625 C1.6890625,1.0890625 2.07083333,0.8390625 2.578125,0.8390625 C3.08958333,0.8390625 3.47291667,1.0890625 3.728125,1.5890625 C3.984375,2.0890625 4.1125,2.83854167 4.1125,3.8375 C4.1125,4.840625 3.984375,5.59166667 3.728125,6.090625 C3.47291667,6.590625 3.08958333,6.840625 2.578125,6.840625 Z M2.578125,7.621875 C3.39583333,7.621875 4.0203125,7.2984375 4.4515625,6.6515625 C4.8828125,6.00572917 5.0984375,5.06770833 5.0984375,3.8375 C5.0984375,2.61041667 4.8828125,1.6734375 4.4515625,1.0265625 C4.0203125,0.380729167 3.39583333,0.0578125 2.578125,0.0578125 C1.76145833,0.0578125 1.1375,0.380729167 0.70625,1.0265625 C0.275,1.6734375 0.059375,2.61041667 0.059375,3.8375 C0.059375,5.06770833 0.275,6.00572917 0.70625,6.6515625 C1.1375,7.2984375 1.76145833,7.621875 2.578125,7.621875 Z" id="DejaVuSans-30"></path>
                            </g>
                        </g>
                    </g>
                    <g id="text_12" transform="translate(204.000000, 137.000000)" fill-rule="nonzero" fill="#000000">
                        <g id="Group" transform="translate(2.980945, 4.302546) scale(-1, 1) rotate(-180.000000) translate(-2.980945, -4.302546) translate(0.730945, 0.652546)">
                            <g id="DejaVuSans-31-link">
                                <polygon id="DejaVuSans-31" points="0.240625 0.8296875 1.8515625 0.8296875 1.8515625 6.3921875 0.0984375 6.040625 0.0984375 6.9390625 1.8421875 7.290625 2.828125 7.290625 2.828125 0.8296875 4.4390625 0.8296875 4.4390625 0 0.240625 0"></polygon>
                            </g>
                        </g>
                    </g>
                    <g id="text_13" transform="translate(204.000000, 179.000000)" fill-rule="nonzero" fill="#000000">
                        <g id="Group" transform="translate(2.880945, 4.712302) scale(-1, 1) rotate(-180.000000) translate(-2.880945, -4.712302) translate(0.330945, 0.862302)">
                            <g id="DejaVuSans-30-link">
                                <path d="M2.578125,6.840625 C2.07083333,6.840625 1.6890625,6.590625 1.4328125,6.090625 C1.17760417,5.59166667 1.05,4.840625 1.05,3.8375 C1.05,2.83854167 1.17760417,2.0890625 1.4328125,1.5890625 C1.6890625,1.0890625 2.07083333,0.8390625 2.578125,0.8390625 C3.08958333,0.8390625 3.47291667,1.0890625 3.728125,1.5890625 C3.984375,2.0890625 4.1125,2.83854167 4.1125,3.8375 C4.1125,4.840625 3.984375,5.59166667 3.728125,6.090625 C3.47291667,6.590625 3.08958333,6.840625 2.578125,6.840625 Z M2.578125,7.621875 C3.39583333,7.621875 4.0203125,7.2984375 4.4515625,6.6515625 C4.8828125,6.00572917 5.0984375,5.06770833 5.0984375,3.8375 C5.0984375,2.61041667 4.8828125,1.6734375 4.4515625,1.0265625 C4.0203125,0.380729167 3.39583333,0.0578125 2.578125,0.0578125 C1.76145833,0.0578125 1.1375,0.380729167 0.70625,1.0265625 C0.275,1.6734375 0.059375,2.61041667 0.059375,3.8375 C0.059375,5.06770833 0.275,6.00572917 0.70625,6.6515625 C1.1375,7.2984375 1.76145833,7.621875 2.578125,7.621875 Z" id="DejaVuSans-30"></path>
                            </g>
                        </g>
                    </g>
                    <g id="text_14" transform="translate(60.000000, 40.000000)" fill-rule="nonzero" fill="#000000">
                        <g id="Group" transform="translate(5.546341, 3.952933) scale(-1, 1) rotate(-180.000000) translate(-5.546341, -3.952933) translate(0.798241, 0.870833)">
                            <g id="DejaVuSans-Oblique-77-link" transform="translate(0.000000, 1.525431)">
                                <polygon id="DejaVuSans-Oblique-77" points="0.04165 4.55546875 0.782239062 4.55546875 0.972267188 0.89026875 2.67340938 4.55546875 3.53894844 4.55546875 3.79145156 0.89026875 5.40669063 4.55546875 6.15508906 4.55546875 4.07258906 0 3.19793906 0 2.97407031 3.77453125 1.23257969 0 0.350120313 0"></polygon>
                            </g>
                            <g id="DejaVuSans-30-link" transform="translate(6.496326, 0.042171)">
                                <path d="M1.50330469,3.98876844 C1.20750292,3.98876844 0.984892344,3.84299344 0.835472969,3.55144344 C0.68666099,3.26050083 0.612255,2.82256844 0.612255,2.23764625 C0.612255,1.65515365 0.68666099,1.21813234 0.835472969,0.926582344 C0.984892344,0.635032344 1.20750292,0.489257344 1.50330469,0.489257344 C1.80153604,0.489257344 2.02505771,0.635032344 2.17386969,0.926582344 C2.32328906,1.21813234 2.39799875,1.65515365 2.39799875,2.23764625 C2.39799875,2.82256844 2.32328906,3.26050083 2.17386969,3.55144344 C2.02505771,3.84299344 1.80153604,3.98876844 1.50330469,3.98876844 Z M1.50330469,4.44431531 C1.98011042,4.44431531 2.34424422,4.25571891 2.59570609,3.87852609 C2.84716797,3.50194068 2.97289891,2.95498073 2.97289891,2.23764625 C2.97289891,1.52213396 2.84716797,0.975781406 2.59570609,0.598588594 C2.34424422,0.222003177 1.98011042,0.0337104687 1.50330469,0.0337104687 C1.02710635,0.0337104687 0.66327625,0.222003177 0.411814375,0.598588594 C0.1603525,0.975781406 0.0346215625,1.52213396 0.0346215625,2.23764625 C0.0346215625,2.95498073 0.1603525,3.50194068 0.411814375,3.87852609 C0.66327625,4.25571891 1.02710635,4.44431531 1.50330469,4.44431531 Z" id="DejaVuSans-30"></path>
                            </g>
                        </g>
                    </g>
                    <g id="text_15" transform="translate(60.000000, 67.000000)" fill-rule="nonzero" fill="#000000">
                        <g id="Group" transform="translate(5.504691, 3.770795) scale(-1, 1) rotate(-180.000000) translate(-5.504691, -3.770795) translate(0.798241, 0.730345)">
                            <g id="DejaVuSans-Oblique-77-link" transform="translate(0.000000, 1.442131)">
                                <polygon id="DejaVuSans-Oblique-77" points="0.04165 4.55546875 0.782239062 4.55546875 0.972267188 0.89026875 2.67340938 4.55546875 3.53894844 4.55546875 3.79145156 0.89026875 5.40669063 4.55546875 6.15508906 4.55546875 4.07258906 0 3.19793906 0 2.97407031 3.77453125 1.23257969 0 0.350120313 0"></polygon>
                            </g>
                            <g id="DejaVuSans-31-link" transform="translate(6.729566, 0.075491)">
                                <polygon id="DejaVuSans-31" points="0.140308438 0.483790781 1.07964609 0.483790781 1.07964609 3.72728453 0.0573989062 3.52228844 0.0573989062 4.04616734 1.07417953 4.25116344 1.64907969 4.25116344 1.64907969 0.483790781 2.58841734 0.483790781 2.58841734 0 0.140308438 0"></polygon>
                            </g>
                        </g>
                    </g>
                    <g id="text_16" transform="translate(60.000000, 91.000000)" fill-rule="nonzero" fill="#000000">
                        <g id="Group" transform="translate(5.463041, 3.802990) scale(-1, 1) rotate(-180.000000) translate(-5.463041, -3.802990) translate(0.798241, 0.762540)">
                            <g id="DejaVuSans-Oblique-77-link" transform="translate(0.000000, 1.442131)">
                                <polygon id="DejaVuSans-Oblique-77" points="0.04165 4.55546875 0.782239062 4.55546875 0.972267187 0.89026875 2.67340937 4.55546875 3.53894844 4.55546875 3.79145156 0.89026875 5.40669062 4.55546875 6.15508906 4.55546875 4.07258906 0 3.19793906 0 2.97407031 3.77453125 1.23257969 0 0.350120312 0"></polygon>
                            </g>
                            <g id="DejaVuSans-32-link" transform="translate(6.554636, 0.075491)">
                                <path d="M0.710653125,0.483790781 L2.71779266,0.483790781 L2.71779266,0 L0.0191329687,0 L0.0191329687,0.483790781 C0.237188073,0.709742031 0.534508333,1.01283255 0.91109375,1.39306234 C1.28828656,1.77389953 1.52517094,2.01959115 1.62174687,2.13013719 C1.80578781,2.33665177 1.93425203,2.51158177 2.00713953,2.65492719 C2.08063443,2.7982726 2.11738187,2.93918844 2.11738187,3.07767469 C2.11738187,3.30362594 2.03811672,3.48766687 1.87958641,3.6297975 C1.72105609,3.77253552 1.51454151,3.84390453 1.26004266,3.84390453 C1.07964609,3.84390453 0.8892275,3.81262365 0.688786875,3.75006187 C0.488953646,3.6875001 0.275150312,3.59244266 0.047376875,3.46488953 L0.047376875,4.04616734 C0.278794687,4.13909891 0.495027604,4.20925312 0.696075625,4.25663 C0.897731042,4.30400687 1.08207568,4.32769531 1.24910953,4.32769531 C1.68947151,4.32769531 2.0405463,4.21745297 2.30233391,3.99696828 C2.56412151,3.77709099 2.69501531,3.48311141 2.69501531,3.11502953 C2.69501531,2.94009953 2.66221594,2.77428047 2.59661719,2.61757234 C2.53162583,2.46147161 2.41257625,2.27712698 2.23946844,2.06453844 C2.19209156,2.00926542 2.0411537,1.85012771 1.78665484,1.58712531 C1.53276339,1.32412292 1.17409615,0.95634474 0.710653125,0.483790781 Z" id="DejaVuSans-32"></path>
                            </g>
                        </g>
                    </g>
                    <g id="text_17" transform="translate(60.000000, 110.000000)" fill-rule="nonzero" fill="#000000">
                        <g id="Group" transform="translate(5.504691, 3.165654) scale(-1, 1) rotate(-180.000000) translate(-5.504691, -3.165654) translate(0.798241, 0.083554)">
                            <g id="DejaVuSans-Oblique-77-link" transform="translate(0.000000, 1.525431)">
                                <polygon id="DejaVuSans-Oblique-77" points="0.04165 4.55546875 0.782239062 4.55546875 0.972267188 0.89026875 2.67340938 4.55546875 3.53894844 4.55546875 3.79145156 0.89026875 5.40669063 4.55546875 6.15508906 4.55546875 4.07258906 0 3.19793906 0 2.97407031 3.77453125 1.23257969 0 0.350120313 0"></polygon>
                            </g>
                            <g id="DejaVuSans-33-link" transform="translate(6.554636, 0.042171)">
                                <path d="M1.95794047,2.40893187 C2.23309078,2.35001448 2.44780521,2.22732052 2.60208375,2.04085 C2.75696969,1.85498688 2.83441266,1.62539125 2.83441266,1.35206312 C2.83441266,0.93296 2.69015615,0.608306927 2.40164312,0.378103906 C2.1131301,0.148508281 1.70313792,0.0337104687 1.17166656,0.0337104687 C0.993699583,0.0337104687 0.810266042,0.0513249479 0.621365937,0.0865539063 C0.432465833,0.121782865 0.237491771,0.174626302 0.03644375,0.245084219 L0.03644375,0.799940312 C0.195581458,0.70700875 0.369904062,0.636854531 0.559411562,0.589477656 C0.749526458,0.542100781 0.948144896,0.518412344 1.15526687,0.518412344 C1.5154526,0.518412344 1.78999552,0.589477656 1.97889562,0.731608281 C2.16779573,0.873738906 2.26224578,1.08055719 2.26224578,1.35206312 C2.26224578,1.6029176 2.17447708,1.79880276 1.99893969,1.93971859 C1.82340229,2.08124182 1.57922917,2.15200344 1.26642031,2.15200344 L0.770785312,2.15200344 L0.770785312,2.62486109 L1.28919766,2.62486109 C1.57163672,2.62486109 1.78786964,2.68134891 1.93789641,2.79432453 C2.08792318,2.90730016 2.16293656,3.07008224 2.16293656,3.28267078 C2.16293656,3.50072589 2.08549359,3.66806344 1.93060766,3.78468344 C1.77632911,3.90191083 1.55493333,3.96052453 1.26642031,3.96052453 C1.1084974,3.96052453 0.939337656,3.94321375 0.758941094,3.90859219 C0.578544531,3.87457802 0.380229792,3.82173458 0.163996875,3.75006187 L0.163996875,4.26209656 C0.382659375,4.32283615 0.587351771,4.36839083 0.778074062,4.39876062 C0.968796354,4.42913042 1.14858552,4.44431531 1.31744156,4.44431531 C1.75415917,4.44431531 2.0994637,4.34500609 2.35335516,4.14638766 C2.60785401,3.94837661 2.73510344,3.68051505 2.73510344,3.34280297 C2.73510344,3.10713339 2.6676825,2.90821125 2.53284062,2.74603656 C2.39799875,2.58386187 2.20636536,2.47149365 1.95794047,2.40893187 Z" id="DejaVuSans-33"></path>
                            </g>
                        </g>
                    </g>
                    <g id="text_18" transform="translate(60.000000, 128.000000)" fill-rule="nonzero" fill="#000000">
                        <g id="Group" transform="translate(5.629641, 3.558112) scale(-1, 1) rotate(-180.000000) translate(-5.629641, -3.558112) translate(0.798241, 0.517662)">
                            <g id="DejaVuSans-Oblique-77-link" transform="translate(0.000000, 1.442131)">
                                <polygon id="DejaVuSans-Oblique-77" points="0.04165 4.55546875 0.782239062 4.55546875 0.972267188 0.89026875 2.67340938 4.55546875 3.53894844 4.55546875 3.79145156 0.89026875 5.40669063 4.55546875 6.15508906 4.55546875 4.07258906 0 3.19793906 0 2.97407031 3.77453125 1.23257969 0 0.350120313 0"></polygon>
                            </g>
                            <g id="DejaVuSans-34-link" transform="translate(6.379706, 0.075491)">
                                <path d="M1.97069578,3.75006187 L0.518412344,1.48052734 L1.97069578,1.48052734 L1.97069578,3.75006187 Z M1.81945422,4.25116344 L2.54286266,4.25116344 L2.54286266,1.48052734 L3.14965109,1.48052734 L3.14965109,1.00220312 L2.54286266,1.00220312 L2.54286266,0 L1.97069578,0 L1.97069578,1.00220312 L0.0519323437,1.00220312 L0.0519323437,1.55705922 L1.81945422,4.25116344 Z" id="DejaVuSans-34"></path>
                            </g>
                        </g>
                    </g>
                    <g id="text_19" transform="translate(103.000000, 152.000000)" fill-rule="nonzero" fill="#000000">
                        <g id="Group" transform="translate(2.186049, 3.587865) scale(-1, 1) rotate(-180.000000) translate(-2.186049, -3.587865) translate(0.311799, 0.547415)">
                            <g id="DejaVuSans-31-link">
                                <polygon id="DejaVuSans-31" points="0.200440625 0.691129687 1.54235156 0.691129687 1.54235156 5.32469219 0.0819984375 5.03184062 0.0819984375 5.78023906 1.53454219 6.07309062 2.35582812 6.07309062 2.35582812 0.691129687 3.69773906 0.691129687 3.69773906 0 0.200440625 0"></polygon>
                            </g>
                        </g>
                    </g>
                    <g id="text_20" transform="translate(11.000000, 12.000000)" fill-rule="nonzero" fill="#FF0000">
                        <g id="Group" transform="translate(3.480415, 2.973277) scale(-1, 1) rotate(-180.000000) translate(-3.480415, -2.973277) translate(0.680415, 0.023277)">
                            <g id="DejaVuSans-Bold-61-link">
                                <path d="M2.890625,2.6609375 C2.52604167,2.6609375 2.2515625,2.59895833 2.0671875,2.475 C1.88385417,2.35208333 1.7921875,2.16979167 1.7921875,1.928125 C1.7921875,1.70729167 1.86614583,1.53385417 2.0140625,1.4078125 C2.16302083,1.2828125 2.36927083,1.2203125 2.6328125,1.2203125 C2.9609375,1.2203125 3.2375,1.33802083 3.4625,1.5734375 C3.6875,1.80989583 3.8,2.10572917 3.8,2.4609375 L3.8,2.6609375 L2.890625,2.6609375 Z M5.5625,3.3203125 L5.5625,0.2 L3.8,0.2 L3.8,1.0109375 C3.565625,0.678645833 3.3015625,0.436458333 3.0078125,0.284375 C2.71510417,0.133333333 2.35885417,0.0578125 1.9390625,0.0578125 C1.37239583,0.0578125 0.9125,0.222916667 0.559375,0.553125 C0.20625,0.884375 0.0296875,1.31354167 0.0296875,1.840625 C0.0296875,2.48229167 0.25,2.95260417 0.690625,3.2515625 C1.13229167,3.5515625 1.825,3.7015625 2.76875,3.7015625 L3.8,3.7015625 L3.8,3.8375 C3.8,4.11458333 3.690625,4.3171875 3.471875,4.4453125 C3.25416667,4.57447917 2.9140625,4.6390625 2.4515625,4.6390625 C2.07760417,4.6390625 1.72916667,4.6015625 1.40625,4.5265625 C1.084375,4.4515625 0.784895833,4.3390625 0.5078125,4.1890625 L0.5078125,5.521875 C0.8828125,5.61354167 1.25885417,5.6828125 1.6359375,5.7296875 C2.0140625,5.7765625 2.39166667,5.8 2.76875,5.8 C3.75520833,5.8 4.4671875,5.60572917 4.9046875,5.2171875 C5.34322917,4.82864583 5.5625,4.19635417 5.5625,3.3203125 Z" id="DejaVuSans-Bold-61"></path>
                            </g>
                        </g>
                    </g>
                    <g id="text_21" transform="translate(11.000000, 52.000000)" fill-rule="nonzero" fill="#0000FF">
                        <g id="Group" transform="translate(3.875728, 4.433034) scale(-1, 1) rotate(-180.000000) translate(-3.875728, -4.433034) translate(0.875728, 0.533034)">
                            <g id="DejaVuSans-Bold-62-link">
                                <path d="M2.95,1.328125 C3.32395833,1.328125 3.609375,1.46458333 3.80625,1.7375 C4.00416667,2.01145833 4.103125,2.40885417 4.103125,2.9296875 C4.103125,3.45052083 4.00416667,3.84739583 3.80625,4.1203125 C3.609375,4.39427083 3.32395833,4.53125 2.95,4.53125 C2.57604167,4.53125 2.28854167,4.39375 2.0875,4.11875 C1.8875,3.84375 1.7875,3.44739583 1.7875,2.9296875 C1.7875,2.41197917 1.8875,2.015625 2.0875,1.740625 C2.28854167,1.465625 2.57604167,1.328125 2.95,1.328125 Z M1.7875,4.86875 C2.02916667,5.1875 2.29635417,5.42239583 2.5890625,5.5734375 C2.88177083,5.72447917 3.21875,5.8 3.6,5.8 C4.27395833,5.8 4.82708333,5.53229167 5.259375,4.996875 C5.69270833,4.46145833 5.909375,3.77239583 5.909375,2.9296875 C5.909375,2.08697917 5.69270833,1.39739583 5.259375,0.8609375 C4.82708333,0.325520833 4.27395833,0.0578125 3.6,0.0578125 C3.21875,0.0578125 2.88177083,0.133333333 2.5890625,0.284375 C2.29635417,0.436458333 2.02916667,0.671875 1.7875,0.990625 L1.7875,0.2 L0.040625,0.2 L0.040625,7.7984375 L1.7875,7.7984375 L1.7875,4.86875 Z" id="DejaVuSans-Bold-62"></path>
                            </g>
                        </g>
                    </g>
                    <g id="text_22" transform="translate(12.000000, 96.000000)" fill-rule="nonzero" fill="#0000FF">
                        <g id="Group" transform="translate(2.540572, 3.792790) scale(-1, 1) rotate(-180.000000) translate(-2.540572, -3.792790) translate(0.090572, 0.842790)">
                            <g id="DejaVuSans-Bold-63-link">
                                <path d="M4.859375,5.4984375 L4.859375,4.071875 C4.621875,4.234375 4.38333333,4.3546875 4.14375,4.4328125 C3.90416667,4.5109375 3.65572917,4.55 3.3984375,4.55 C2.9109375,4.55 2.53125,4.4078125 2.259375,4.1234375 C1.9875,3.8390625 1.8515625,3.44114583 1.8515625,2.9296875 C1.8515625,2.41822917 1.9875,2.01979167 2.259375,1.734375 C2.53125,1.45 2.9109375,1.3078125 3.3984375,1.3078125 C3.67239583,1.3078125 3.93229167,1.3484375 4.178125,1.4296875 C4.42395833,1.51197917 4.65104167,1.6328125 4.859375,1.7921875 L4.859375,0.3609375 C4.58541667,0.259895833 4.3078125,0.184375 4.0265625,0.134375 C3.7453125,0.0833333333 3.46302083,0.0578125 3.1796875,0.0578125 C2.19322917,0.0578125 1.42135417,0.3109375 0.8640625,0.8171875 C0.3078125,1.3234375 0.0296875,2.02760417 0.0296875,2.9296875 C0.0296875,3.83177083 0.3078125,4.53541667 0.8640625,5.040625 C1.42135417,5.546875 2.19322917,5.8 3.1796875,5.8 C3.46614583,5.8 3.7484375,5.775 4.0265625,5.725 C4.3046875,5.675 4.58229167,5.59947917 4.859375,5.4984375 Z" id="DejaVuSans-Bold-63"></path>
                            </g>
                        </g>
                    </g>
                    <g id="text_23" transform="translate(11.000000, 137.000000)" fill-rule="nonzero" fill="#0000FF">
                        <g id="Group" transform="translate(3.475728, 4.252546) scale(-1, 1) rotate(-180.000000) translate(-3.475728, -4.252546) translate(0.475728, 0.352546)">
                            <g id="DejaVuSans-Bold-64-link">
                                <path d="M4.1609375,4.86875 L4.1609375,7.7984375 L5.91875,7.7984375 L5.91875,0.2 L4.1609375,0.2 L4.1609375,0.990625 C3.9203125,0.66875 3.6546875,0.4328125 3.3640625,0.2828125 C3.07447917,0.1328125 2.73958333,0.0578125 2.359375,0.0578125 C1.68541667,0.0578125 1.13177083,0.325520833 0.6984375,0.8609375 C0.266145833,1.39739583 0.05,2.08697917 0.05,2.9296875 C0.05,3.77239583 0.266145833,4.46145833 0.6984375,4.996875 C1.13177083,5.53229167 1.68541667,5.8 2.359375,5.8 C2.73645833,5.8 3.07083333,5.72447917 3.3625,5.5734375 C3.65416667,5.42239583 3.9203125,5.1875 4.1609375,4.86875 Z M3.0078125,1.328125 C3.3828125,1.328125 3.66875,1.46458333 3.865625,1.7375 C4.0625,2.01145833 4.1609375,2.40885417 4.1609375,2.9296875 C4.1609375,3.45052083 4.0625,3.84739583 3.865625,4.1203125 C3.66875,4.39427083 3.3828125,4.53125 3.0078125,4.53125 C2.63697917,4.53125 2.353125,4.39427083 2.15625,4.1203125 C1.959375,3.84739583 1.8609375,3.45052083 1.8609375,2.9296875 C1.8609375,2.40885417 1.959375,2.01145833 2.15625,1.7375 C2.353125,1.46458333 2.63697917,1.328125 3.0078125,1.328125 Z" id="DejaVuSans-Bold-64"></path>
                            </g>
                        </g>
                    </g>
                    <g id="text_24" transform="translate(11.000000, 181.000000)" fill-rule="nonzero" fill="#0000FF">
                        <g id="Group" transform="translate(3.613228, 3.612302) scale(-1, 1) rotate(-180.000000) translate(-3.613228, -3.612302) translate(0.663228, 0.662302)">
                            <g id="DejaVuSans-Bold-65-link">
                                <path d="M5.8984375,2.9484375 L5.8984375,2.4515625 L1.8125,2.4515625 C1.85416667,2.04114583 2.00208333,1.73333333 2.25625,1.528125 C2.51041667,1.32291667 2.86510417,1.2203125 3.3203125,1.2203125 C3.68802083,1.2203125 4.06458333,1.275 4.45,1.384375 C4.83645833,1.49375 5.23333333,1.65885417 5.640625,1.8796875 L5.640625,0.5328125 C5.22708333,0.3765625 4.81354167,0.258333333 4.4,0.178125 C3.98645833,0.0979166667 3.57291667,0.0578125 3.159375,0.0578125 C2.16979167,0.0578125 1.40052083,0.309375 0.8515625,0.8125 C0.303645833,1.315625 0.0296875,2.02135417 0.0296875,2.9296875 C0.0296875,3.82135417 0.298958333,4.52239583 0.8375,5.0328125 C1.37604167,5.54427083 2.11770833,5.8 3.0625,5.8 C3.921875,5.8 4.609375,5.54114583 5.125,5.0234375 C5.640625,4.50677083 5.8984375,3.81510417 5.8984375,2.9484375 Z M4.1015625,3.5296875 C4.1015625,3.86197917 4.0046875,4.1296875 3.8109375,4.3328125 C3.6171875,4.53697917 3.3640625,4.6390625 3.0515625,4.6390625 C2.71302083,4.6390625 2.43802083,4.54375 2.2265625,4.353125 C2.01510417,4.1625 1.88333333,3.88802083 1.83125,3.5296875 L4.1015625,3.5296875 Z" id="DejaVuSans-Bold-65"></path>
                            </g>
                        </g>
                    </g>
                    <g id="text_25" transform="translate(226.000000, 12.000000)" fill-rule="nonzero" fill="#0000FF">
                        <g id="Group" transform="translate(3.356513, 2.973277) scale(-1, 1) rotate(-180.000000) translate(-3.356513, -2.973277) translate(0.556513, 0.023277)">
                            <g id="DejaVuSans-Bold-61-link">
                                <path d="M2.890625,2.6609375 C2.52604167,2.6609375 2.2515625,2.59895833 2.0671875,2.475 C1.88385417,2.35208333 1.7921875,2.16979167 1.7921875,1.928125 C1.7921875,1.70729167 1.86614583,1.53385417 2.0140625,1.4078125 C2.16302083,1.2828125 2.36927083,1.2203125 2.6328125,1.2203125 C2.9609375,1.2203125 3.2375,1.33802083 3.4625,1.5734375 C3.6875,1.80989583 3.8,2.10572917 3.8,2.4609375 L3.8,2.6609375 L2.890625,2.6609375 Z M5.5625,3.3203125 L5.5625,0.2 L3.8,0.2 L3.8,1.0109375 C3.565625,0.678645833 3.3015625,0.436458333 3.0078125,0.284375 C2.71510417,0.133333333 2.35885417,0.0578125 1.9390625,0.0578125 C1.37239583,0.0578125 0.9125,0.222916667 0.559375,0.553125 C0.20625,0.884375 0.0296875,1.31354167 0.0296875,1.840625 C0.0296875,2.48229167 0.25,2.95260417 0.690625,3.2515625 C1.13229167,3.5515625 1.825,3.7015625 2.76875,3.7015625 L3.8,3.7015625 L3.8,3.8375 C3.8,4.11458333 3.690625,4.3171875 3.471875,4.4453125 C3.25416667,4.57447917 2.9140625,4.6390625 2.4515625,4.6390625 C2.07760417,4.6390625 1.72916667,4.6015625 1.40625,4.5265625 C1.084375,4.4515625 0.784895833,4.3390625 0.5078125,4.1890625 L0.5078125,5.521875 C0.8828125,5.61354167 1.25885417,5.6828125 1.6359375,5.7296875 C2.0140625,5.7765625 2.39166667,5.8 2.76875,5.8 C3.75520833,5.8 4.4671875,5.60572917 4.9046875,5.2171875 C5.34322917,4.82864583 5.5625,4.19635417 5.5625,3.3203125 Z" id="DejaVuSans-Bold-61"></path>
                            </g>
                        </g>
                    </g>
                    <g id="text_26" transform="translate(226.000000, 52.000000)" fill-rule="nonzero" fill="#0000FF">
                        <g id="Group" transform="translate(3.751825, 4.433034) scale(-1, 1) rotate(-180.000000) translate(-3.751825, -4.433034) translate(0.751825, 0.533034)">
                            <g id="DejaVuSans-Bold-62-link">
                                <path d="M2.95,1.328125 C3.32395833,1.328125 3.609375,1.46458333 3.80625,1.7375 C4.00416667,2.01145833 4.103125,2.40885417 4.103125,2.9296875 C4.103125,3.45052083 4.00416667,3.84739583 3.80625,4.1203125 C3.609375,4.39427083 3.32395833,4.53125 2.95,4.53125 C2.57604167,4.53125 2.28854167,4.39375 2.0875,4.11875 C1.8875,3.84375 1.7875,3.44739583 1.7875,2.9296875 C1.7875,2.41197917 1.8875,2.015625 2.0875,1.740625 C2.28854167,1.465625 2.57604167,1.328125 2.95,1.328125 Z M1.7875,4.86875 C2.02916667,5.1875 2.29635417,5.42239583 2.5890625,5.5734375 C2.88177083,5.72447917 3.21875,5.8 3.6,5.8 C4.27395833,5.8 4.82708333,5.53229167 5.259375,4.996875 C5.69270833,4.46145833 5.909375,3.77239583 5.909375,2.9296875 C5.909375,2.08697917 5.69270833,1.39739583 5.259375,0.8609375 C4.82708333,0.325520833 4.27395833,0.0578125 3.6,0.0578125 C3.21875,0.0578125 2.88177083,0.133333333 2.5890625,0.284375 C2.29635417,0.436458333 2.02916667,0.671875 1.7875,0.990625 L1.7875,0.2 L0.040625,0.2 L0.040625,7.7984375 L1.7875,7.7984375 L1.7875,4.86875 Z" id="DejaVuSans-Bold-62"></path>
                            </g>
                        </g>
                    </g>
                    <g id="text_27" transform="translate(226.000000, 96.000000)" fill-rule="nonzero" fill="#0000FF">
                        <g id="Group" transform="translate(3.416669, 3.792790) scale(-1, 1) rotate(-180.000000) translate(-3.416669, -3.792790) translate(0.966669, 0.842790)">
                            <g id="DejaVuSans-Bold-63-link">
                                <path d="M4.859375,5.4984375 L4.859375,4.071875 C4.621875,4.234375 4.38333333,4.3546875 4.14375,4.4328125 C3.90416667,4.5109375 3.65572917,4.55 3.3984375,4.55 C2.9109375,4.55 2.53125,4.4078125 2.259375,4.1234375 C1.9875,3.8390625 1.8515625,3.44114583 1.8515625,2.9296875 C1.8515625,2.41822917 1.9875,2.01979167 2.259375,1.734375 C2.53125,1.45 2.9109375,1.3078125 3.3984375,1.3078125 C3.67239583,1.3078125 3.93229167,1.3484375 4.178125,1.4296875 C4.42395833,1.51197917 4.65104167,1.6328125 4.859375,1.7921875 L4.859375,0.3609375 C4.58541667,0.259895833 4.3078125,0.184375 4.0265625,0.134375 C3.7453125,0.0833333333 3.46302083,0.0578125 3.1796875,0.0578125 C2.19322917,0.0578125 1.42135417,0.3109375 0.8640625,0.8171875 C0.3078125,1.3234375 0.0296875,2.02760417 0.0296875,2.9296875 C0.0296875,3.83177083 0.3078125,4.53541667 0.8640625,5.040625 C1.42135417,5.546875 2.19322917,5.8 3.1796875,5.8 C3.46614583,5.8 3.7484375,5.775 4.0265625,5.725 C4.3046875,5.675 4.58229167,5.59947917 4.859375,5.4984375 Z" id="DejaVuSans-Bold-63"></path>
                            </g>
                        </g>
                    </g>
                    <g id="text_28" transform="translate(226.000000, 137.000000)" fill-rule="nonzero" fill="#FF0000">
                        <g id="Group" transform="translate(3.351825, 4.252546) scale(-1, 1) rotate(-180.000000) translate(-3.351825, -4.252546) translate(0.351825, 0.352546)">
                            <g id="DejaVuSans-Bold-64-link">
                                <path d="M4.1609375,4.86875 L4.1609375,7.7984375 L5.91875,7.7984375 L5.91875,0.2 L4.1609375,0.2 L4.1609375,0.990625 C3.9203125,0.66875 3.6546875,0.4328125 3.3640625,0.2828125 C3.07447917,0.1328125 2.73958333,0.0578125 2.359375,0.0578125 C1.68541667,0.0578125 1.13177083,0.325520833 0.6984375,0.8609375 C0.266145833,1.39739583 0.05,2.08697917 0.05,2.9296875 C0.05,3.77239583 0.266145833,4.46145833 0.6984375,4.996875 C1.13177083,5.53229167 1.68541667,5.8 2.359375,5.8 C2.73645833,5.8 3.07083333,5.72447917 3.3625,5.5734375 C3.65416667,5.42239583 3.9203125,5.1875 4.1609375,4.86875 Z M3.0078125,1.328125 C3.3828125,1.328125 3.66875,1.46458333 3.865625,1.7375 C4.0625,2.01145833 4.1609375,2.40885417 4.1609375,2.9296875 C4.1609375,3.45052083 4.0625,3.84739583 3.865625,4.1203125 C3.66875,4.39427083 3.3828125,4.53125 3.0078125,4.53125 C2.63697917,4.53125 2.353125,4.39427083 2.15625,4.1203125 C1.959375,3.84739583 1.8609375,3.45052083 1.8609375,2.9296875 C1.8609375,2.40885417 1.959375,2.01145833 2.15625,1.7375 C2.353125,1.46458333 2.63697917,1.328125 3.0078125,1.328125 Z" id="DejaVuSans-Bold-64"></path>
                            </g>
                        </g>
                    </g>
                    <g id="text_29" transform="translate(226.000000, 181.000000)" fill-rule="nonzero" fill="#0000FF">
                        <g id="Group" transform="translate(3.489325, 3.612302) scale(-1, 1) rotate(-180.000000) translate(-3.489325, -3.612302) translate(0.539325, 0.662302)">
                            <g id="DejaVuSans-Bold-65-link">
                                <path d="M5.8984375,2.9484375 L5.8984375,2.4515625 L1.8125,2.4515625 C1.85416667,2.04114583 2.00208333,1.73333333 2.25625,1.528125 C2.51041667,1.32291667 2.86510417,1.2203125 3.3203125,1.2203125 C3.68802083,1.2203125 4.06458333,1.275 4.45,1.384375 C4.83645833,1.49375 5.23333333,1.65885417 5.640625,1.8796875 L5.640625,0.5328125 C5.22708333,0.3765625 4.81354167,0.258333333 4.4,0.178125 C3.98645833,0.0979166667 3.57291667,0.0578125 3.159375,0.0578125 C2.16979167,0.0578125 1.40052083,0.309375 0.8515625,0.8125 C0.303645833,1.315625 0.0296875,2.02135417 0.0296875,2.9296875 C0.0296875,3.82135417 0.298958333,4.52239583 0.8375,5.0328125 C1.37604167,5.54427083 2.11770833,5.8 3.0625,5.8 C3.921875,5.8 4.609375,5.54114583 5.125,5.0234375 C5.640625,4.50677083 5.8984375,3.81510417 5.8984375,2.9484375 Z M4.1015625,3.5296875 C4.1015625,3.86197917 4.0046875,4.1296875 3.8109375,4.3328125 C3.6171875,4.53697917 3.3640625,4.6390625 3.0515625,4.6390625 C2.71302083,4.6390625 2.43802083,4.54375 2.2265625,4.353125 C2.01510417,4.1625 1.88333333,3.88802083 1.83125,3.5296875 L4.1015625,3.5296875 Z" id="DejaVuSans-Bold-65"></path>
                            </g>
                        </g>
                    </g>
                    <g id="text_30" transform="translate(24.000000, 209.000000)" fill-rule="nonzero" fill="#000000">
                        <g id="Group" transform="translate(13.279679, 3.300807) scale(-1, 1) rotate(-180.000000) translate(-13.279679, -3.300807) translate(0.493129, 0.260357)">
                            <g id="DejaVuSans-Bold-2e-link" transform="translate(0.000000, 0.166600)">
                                <polygon id="DejaVuSans-Bold-2e" points="0.0169203125 1.57358906 1.48117813 1.57358906 1.48117813 0 0.0169203125 0"></polygon>
                            </g>
                            <g id="DejaVuSans-Bold-2e-link" transform="translate(3.164424, 0.166600)">
                                <polygon id="DejaVuSans-Bold-2e" points="0.0169203125 1.57358906 1.48117813 1.57358906 1.48117813 0 0.0169203125 0"></polygon>
                            </g>
                            <g id="DejaVuSans-Bold-2e-link" transform="translate(6.328848, 0.166600)">
                                <polygon id="DejaVuSans-Bold-2e" points="0.0169203125 1.57358906 1.48117813 1.57358906 1.48117813 0 0.0169203125 0"></polygon>
                            </g>
                            <g id="DejaVuSans-Bold-65-link" transform="translate(8.993472, 0.000000)">
                                <path d="M4.91339844,2.45604844 L4.91339844,2.04215156 L1.5098125,2.04215156 C1.54452083,1.70027448 1.66773542,1.44386667 1.87945625,1.27292812 C2.09117708,1.10198958 2.38663177,1.01652031 2.76582031,1.01652031 C3.07212135,1.01652031 3.38579792,1.062075 3.70685,1.15318437 C4.02876979,1.24429375 4.35936667,1.38182552 4.69864062,1.56577969 L4.69864062,0.443832812 C4.35416042,0.313676562 4.00968021,0.215191667 3.6652,0.148378125 C3.32071979,0.0815645833 2.97623958,0.0481578125 2.63175937,0.0481578125 C1.80743646,0.0481578125 1.16663385,0.257709375 0.709351562,0.6768125 C0.252936979,1.09591562 0.0247296875,1.68378802 0.0247296875,2.44042969 C0.0247296875,3.18318802 0.249032292,3.76715573 0.6976375,4.19233281 C1.14624271,4.6183776 1.76405104,4.8314 2.5510625,4.8314 C3.26692187,4.8314 3.83960937,4.61577448 4.269125,4.18452344 C4.69864062,3.7541401 4.91339844,3.17798177 4.91339844,2.45604844 Z M3.41660156,2.94022969 C3.41660156,3.21702865 3.33590469,3.44002969 3.17451094,3.60923281 C3.01311719,3.77930365 2.80226406,3.86433906 2.54195156,3.86433906 C2.25994635,3.86433906 2.03087135,3.78494375 1.85472656,3.62615312 C1.67858177,3.4673625 1.56881667,3.23872135 1.52543125,2.94022969 L3.41660156,2.94022969 Z" id="DejaVuSans-Bold-65"></path>
                            </g>
                            <g id="DejaVuSans-Bold-74-link" transform="translate(14.393166, 0.166600)">
                                <path d="M2.20614844,5.84922187 L2.20614844,4.55546875 L3.70815156,4.55546875 L3.70815156,3.51421875 L2.20614844,3.51421875 L2.20614844,1.5827 C2.20614844,1.37097917 2.24823229,1.22780729 2.3324,1.15318437 C2.41656771,1.07856146 2.58360156,1.04125 2.83350156,1.04125 L3.5819,1.04125 L3.5819,0 L2.3324,0 C1.75797708,0 1.35058802,0.11974375 1.11023281,0.35923125 C0.870745313,0.599586458 0.751001563,1.00740937 0.751001563,1.5827 L0.751001563,3.51421875 L0.02603125,3.51421875 L0.02603125,4.55546875 L0.751001563,4.55546875 L0.751001563,5.84922187 L2.20614844,5.84922187 Z" id="DejaVuSans-Bold-74"></path>
                            </g>
                            <g id="DejaVuSans-Bold-63-link" transform="translate(18.625034, 0.000000)">
                                <path d="M4.04785937,4.58019844 L4.04785937,3.39187187 C3.85002187,3.52723437 3.65131667,3.62745469 3.45174375,3.69253281 C3.25217083,3.75761094 3.0452224,3.79015 2.83089844,3.79015 C2.42481094,3.79015 2.10853125,3.67170781 1.88205938,3.43482344 C1.6555875,3.19793906 1.54235156,2.86647448 1.54235156,2.44042969 C1.54235156,2.0143849 1.6555875,1.68248646 1.88205938,1.44473437 C2.10853125,1.20785 2.42481094,1.08940781 2.83089844,1.08940781 C3.05910573,1.08940781 3.27559896,1.12324844 3.48037813,1.19092969 C3.68515729,1.25947865 3.87431771,1.36013281 4.04785937,1.49289219 L4.04785937,0.300660937 C3.81965208,0.216493229 3.58840781,0.153584375 3.35412656,0.111934375 C3.11984531,0.0694166667 2.88469635,0.0481578125 2.64867969,0.0481578125 C1.8269599,0.0481578125 1.18398802,0.259010937 0.719764063,0.680717187 C0.256407812,1.10242344 0.0247296875,1.68899427 0.0247296875,2.44042969 C0.0247296875,3.1918651 0.256407812,3.77800208 0.719764063,4.19884062 C1.18398802,4.62054687 1.8269599,4.8314 2.64867969,4.8314 C2.88729948,4.8314 3.12244844,4.810575 3.35412656,4.768925 C3.58580469,4.727275 3.81704896,4.66436615 4.04785937,4.58019844 Z" id="DejaVuSans-Bold-63"></path>
                            </g>
                            <g id="DejaVuSans-Bold-2e-link" transform="translate(24.062637, 0.166600)">
                                <polygon id="DejaVuSans-Bold-2e" points="0.0169203125 1.57358906 1.48117812 1.57358906 1.48117812 0 0.0169203125 0"></polygon>
                            </g>
                        </g>
                    </g>
                </g>
            </g>
            <text id="21" font-family="Helvetica-Bold, Helvetica" font-size="12" font-weight="bold" fill="#FF0000">
                <tspan x="0.326171875" y="21">21</tspan>
            </text>
            <text id="22" font-family="Helvetica" font-size="12" font-weight="normal" fill="#0000FF">
                <tspan x="0.326171875" y="63">22</tspan>
            </text>
            <text id="23" font-family="Helvetica" font-size="12" font-weight="normal" fill="#0000FF">
                <tspan x="0.326171875" y="106">23</tspan>
            </text>
            <text id="24" font-family="Helvetica" font-size="12" font-weight="normal" fill="#0000FF">
                <tspan x="0.326171875" y="148">24</tspan>
            </text>
            <text id="25" font-family="Helvetica" font-size="12" font-weight="normal" fill="#0000FF">
                <tspan x="0.326171875" y="191">25</tspan>
            </text>
            <text id="21" font-family="Helvetica" font-size="12" font-weight="normal" fill="#0000FF">
                <tspan x="274.326172" y="21">21</tspan>
            </text>
            <text id="22" font-family="Helvetica" font-size="12" font-weight="normal" fill="#0000FF">
                <tspan x="274.326172" y="63">22</tspan>
            </text>
            <text id="23" font-family="Helvetica" font-size="12" font-weight="normal" fill="#0000FF">
                <tspan x="274.326172" y="106">23</tspan>
            </text>
            <text id="24" font-family="Helvetica-Bold, Helvetica" font-size="12" font-weight="bold" fill="#FF0000">
                <tspan x="274.326172" y="148">24</tspan>
            </text>
            <text id="25" font-family="Helvetica" font-size="12" font-weight="normal" fill="#0000FF">
                <tspan x="274.326172" y="191">25</tspan>
            </text>
        </g>
    </g>
</svg>