<?xml version="1.0" encoding="utf-8" standalone="no"?>
<!DOCTYPE svg PUBLIC "-//W3C//DTD SVG 1.1//EN"
  "http://www.w3.org/Graphics/SVG/1.1/DTD/svg11.dtd">
<!-- Created with matplotlib (http://matplotlib.org/) -->
<svg height="221pt" version="1.1" viewBox="0 0 288 221" width="288pt" xmlns="http://www.w3.org/2000/svg" xmlns:xlink="http://www.w3.org/1999/xlink">
 <defs>
  <style type="text/css">
*{stroke-linecap:butt;stroke-linejoin:round;}
  </style>
 </defs>
 <g id="figure_1">
  <g id="patch_1">
   <path d="M 0 221.04 
L 288.72 221.04 
L 288.72 0 
L 0 0 
z
" style="fill:#ffffff;"/>
  </g>
  <g id="axes_1">
   <g id="patch_2">
    <path clip-path="url(#p438f612e82)" d="M 73.595294 51.009231 
L 67.084941 47.892 
L 67.934118 46.758462 
L 39.628235 25.504615 
L 39.628235 25.504615 
L 67.934118 46.758462 
L 68.783294 45.624923 
z
" style="stroke:#000000;stroke-linejoin:miter;"/>
   </g>
   <g id="patch_3">
    <path clip-path="url(#p438f612e82)" d="M 77.067008 90.228949 
L 71.964092 85.12016 
L 73.141688 84.334193 
L 36.156522 28.79259 
L 36.156522 28.79259 
L 73.141688 84.334193 
L 74.319284 83.548225 
z
" style="stroke:#000000;stroke-linejoin:miter;"/>
   </g>
   <g id="patch_4">
    <path clip-path="url(#p438f612e82)" d="M 79.169593 131.578147 
L 75.002254 125.679611 
L 76.295566 125.104144 
L 34.053936 29.951084 
L 34.053936 29.951084 
L 76.295566 125.104144 
L 77.588878 124.528677 
z
" style="stroke:#000000;stroke-linejoin:miter;"/>
   </g>
   <g id="patch_5">
    <path clip-path="url(#p438f612e82)" d="M 70.764706 59.510769 
L 63.688235 60.927692 
L 63.688235 59.510769 
L 42.458824 59.510769 
L 42.458824 59.510769 
L 63.688235 59.510769 
L 63.688235 58.093846 
z
" style="stroke:#000000;stroke-linejoin:miter;"/>
   </g>
   <g id="patch_6">
    <path clip-path="url(#p438f612e82)" d="M 73.595294 93.516923 
L 67.084941 90.399692 
L 67.934118 89.266154 
L 39.628235 68.012308 
L 39.628235 68.012308 
L 67.934118 89.266154 
L 68.783294 88.132615 
z
" style="stroke:#000000;stroke-linejoin:miter;"/>
   </g>
   <g id="patch_7">
    <path clip-path="url(#p438f612e82)" d="M 77.067008 132.736641 
L 71.964092 127.627852 
L 73.141688 126.841885 
L 36.156522 71.300282 
L 36.156522 71.300282 
L 73.141688 126.841885 
L 74.319284 126.055917 
z
" style="stroke:#000000;stroke-linejoin:miter;"/>
   </g>
   <g id="patch_8">
    <path clip-path="url(#p438f612e82)" d="M 73.595294 68.012308 
L 68.783294 73.396615 
L 67.934118 72.263077 
L 39.628235 93.516923 
L 39.628235 93.516923 
L 67.934118 72.263077 
L 67.084941 71.129538 
z
" style="stroke:#000000;stroke-linejoin:miter;"/>
   </g>
   <g id="patch_9">
    <path clip-path="url(#p438f612e82)" d="M 70.764706 102.018462 
L 63.688235 103.435385 
L 63.688235 102.018462 
L 42.458824 102.018462 
L 42.458824 102.018462 
L 63.688235 102.018462 
L 63.688235 100.601538 
z
" style="stroke:#000000;stroke-linejoin:miter;"/>
   </g>
   <g id="patch_10">
    <path clip-path="url(#p438f612e82)" d="M 73.595294 136.024615 
L 67.084941 132.907385 
L 67.934118 131.773846 
L 39.628235 110.52 
L 39.628235 110.52 
L 67.934118 131.773846 
L 68.783294 130.640308 
z
" style="stroke:#000000;stroke-linejoin:miter;"/>
   </g>
   <g id="patch_11">
    <path clip-path="url(#p438f612e82)" d="M 77.067008 71.300282 
L 74.319284 77.981006 
L 73.141688 77.195038 
L 36.156522 132.736641 
L 36.156522 132.736641 
L 73.141688 77.195038 
L 71.964092 76.409071 
z
" style="stroke:#000000;stroke-linejoin:miter;"/>
   </g>
   <g id="patch_12">
    <path clip-path="url(#p438f612e82)" d="M 73.595294 110.52 
L 68.783294 115.904308 
L 67.934118 114.770769 
L 39.628235 136.024615 
L 39.628235 136.024615 
L 67.934118 114.770769 
L 67.084941 113.637231 
z
" style="stroke:#000000;stroke-linejoin:miter;"/>
   </g>
   <g id="patch_13">
    <path clip-path="url(#p438f612e82)" d="M 70.764706 144.526154 
L 63.688235 145.943077 
L 63.688235 144.526154 
L 42.458824 144.526154 
L 42.458824 144.526154 
L 63.688235 144.526154 
L 63.688235 143.109231 
z
" style="stroke:#000000;stroke-linejoin:miter;"/>
   </g>
   <g id="patch_14">
    <path clip-path="url(#p438f612e82)" d="M 79.169593 72.458776 
L 77.588878 79.508246 
L 76.295566 78.932779 
L 34.053936 174.085839 
L 34.053936 174.085839 
L 76.295566 78.932779 
L 75.002254 78.357312 
z
" style="stroke:#000000;stroke-linejoin:miter;"/>
   </g>
   <g id="patch_15">
    <path clip-path="url(#p438f612e82)" d="M 77.067008 113.807974 
L 74.319284 120.488698 
L 73.141688 119.70273 
L 36.156522 175.244334 
L 36.156522 175.244334 
L 73.141688 119.70273 
L 71.964092 118.916763 
z
" style="stroke:#000000;stroke-linejoin:miter;"/>
   </g>
   <g id="patch_16">
    <path clip-path="url(#p438f612e82)" d="M 73.595294 153.027692 
L 68.783294 158.412 
L 67.934118 157.278462 
L 39.628235 178.532308 
L 39.628235 178.532308 
L 67.934118 157.278462 
L 67.084941 156.144923 
z
" style="stroke:#000000;stroke-linejoin:miter;"/>
   </g>
   <g id="patch_17">
    <path clip-path="url(#p438f612e82)" d="M 127.376471 59.510769 
L 120.3 60.927692 
L 120.3 59.510769 
L 99.070588 59.510769 
L 99.070588 59.510769 
L 120.3 59.510769 
L 120.3 58.093846 
z
" style="stroke:#000000;stroke-linejoin:miter;"/>
   </g>
   <g id="patch_18">
    <path clip-path="url(#p438f612e82)" d="M 130.207059 93.516923 
L 123.696706 90.399692 
L 124.545882 89.266154 
L 96.24 68.012308 
L 96.24 68.012308 
L 124.545882 89.266154 
L 125.395059 88.132615 
z
" style="stroke:#000000;stroke-linejoin:miter;"/>
   </g>
   <g id="patch_19">
    <path clip-path="url(#p438f612e82)" d="M 133.678773 132.736641 
L 128.575857 127.627852 
L 129.753453 126.841885 
L 92.768286 71.300282 
L 92.768286 71.300282 
L 129.753453 126.841885 
L 130.931049 126.055917 
z
" style="stroke:#000000;stroke-linejoin:miter;"/>
   </g>
   <g id="patch_20">
    <path clip-path="url(#p438f612e82)" d="M 130.207059 68.012308 
L 125.395059 73.396615 
L 124.545882 72.263077 
L 96.24 93.516923 
L 96.24 93.516923 
L 124.545882 72.263077 
L 123.696706 71.129538 
z
" style="stroke:#000000;stroke-linejoin:miter;"/>
   </g>
   <g id="patch_21">
    <path clip-path="url(#p438f612e82)" d="M 127.376471 102.018462 
L 120.3 103.435385 
L 120.3 102.018462 
L 99.070588 102.018462 
L 99.070588 102.018462 
L 120.3 102.018462 
L 120.3 100.601538 
z
" style="stroke:#000000;stroke-linejoin:miter;"/>
   </g>
   <g id="patch_22">
    <path clip-path="url(#p438f612e82)" d="M 130.207059 136.024615 
L 123.696706 132.907385 
L 124.545882 131.773846 
L 96.24 110.52 
L 96.24 110.52 
L 124.545882 131.773846 
L 125.395059 130.640308 
z
" style="stroke:#000000;stroke-linejoin:miter;"/>
   </g>
   <g id="patch_23">
    <path clip-path="url(#p438f612e82)" d="M 133.678773 71.300282 
L 130.931049 77.981006 
L 129.753453 77.195038 
L 92.768286 132.736641 
L 92.768286 132.736641 
L 129.753453 77.195038 
L 128.575857 76.409071 
z
" style="stroke:#000000;stroke-linejoin:miter;"/>
   </g>
   <g id="patch_24">
    <path clip-path="url(#p438f612e82)" d="M 130.207059 110.52 
L 125.395059 115.904308 
L 124.545882 114.770769 
L 96.24 136.024615 
L 96.24 136.024615 
L 124.545882 114.770769 
L 123.696706 113.637231 
z
" style="stroke:#000000;stroke-linejoin:miter;"/>
   </g>
   <g id="patch_25">
    <path clip-path="url(#p438f612e82)" d="M 127.376471 144.526154 
L 120.3 145.943077 
L 120.3 144.526154 
L 99.070588 144.526154 
L 99.070588 144.526154 
L 120.3 144.526154 
L 120.3 143.109231 
z
" style="stroke:#000000;stroke-linejoin:miter;"/>
   </g>
   <g id="patch_26">
    <path clip-path="url(#p438f612e82)" d="M 183.988235 59.510769 
L 176.911765 60.927692 
L 176.911765 59.510769 
L 155.682353 59.510769 
L 155.682353 59.510769 
L 176.911765 59.510769 
L 176.911765 58.093846 
z
" style="stroke:#000000;stroke-linejoin:miter;"/>
   </g>
   <g id="patch_27">
    <path clip-path="url(#p438f612e82)" d="M 186.818824 93.516923 
L 180.308471 90.399692 
L 181.157647 89.266154 
L 152.851765 68.012308 
L 152.851765 68.012308 
L 181.157647 89.266154 
L 182.006824 88.132615 
z
" style="stroke:#000000;stroke-linejoin:miter;"/>
   </g>
   <g id="patch_28">
    <path clip-path="url(#p438f612e82)" d="M 190.290537 132.736641 
L 185.187622 127.627852 
L 186.365218 126.841885 
L 149.380051 71.300282 
L 149.380051 71.300282 
L 186.365218 126.841885 
L 187.542813 126.055917 
z
" style="stroke:#000000;stroke-linejoin:miter;"/>
   </g>
   <g id="patch_29">
    <path clip-path="url(#p438f612e82)" d="M 186.818824 68.012308 
L 182.006824 73.396615 
L 181.157647 72.263077 
L 152.851765 93.516923 
L 152.851765 93.516923 
L 181.157647 72.263077 
L 180.308471 71.129538 
z
" style="stroke:#000000;stroke-linejoin:miter;"/>
   </g>
   <g id="patch_30">
    <path clip-path="url(#p438f612e82)" d="M 183.988235 102.018462 
L 176.911765 103.435385 
L 176.911765 102.018462 
L 155.682353 102.018462 
L 155.682353 102.018462 
L 176.911765 102.018462 
L 176.911765 100.601538 
z
" style="stroke:#000000;stroke-linejoin:miter;"/>
   </g>
   <g id="patch_31">
    <path clip-path="url(#p438f612e82)" d="M 186.818824 136.024615 
L 180.308471 132.907385 
L 181.157647 131.773846 
L 152.851765 110.52 
L 152.851765 110.52 
L 181.157647 131.773846 
L 182.006824 130.640308 
z
" style="stroke:#000000;stroke-linejoin:miter;"/>
   </g>
   <g id="patch_32">
    <path clip-path="url(#p438f612e82)" d="M 190.290537 71.300282 
L 187.542813 77.981006 
L 186.365218 77.195038 
L 149.380051 132.736641 
L 149.380051 132.736641 
L 186.365218 77.195038 
L 185.187622 76.409071 
z
" style="stroke:#000000;stroke-linejoin:miter;"/>
   </g>
   <g id="patch_33">
    <path clip-path="url(#p438f612e82)" d="M 186.818824 110.52 
L 182.006824 115.904308 
L 181.157647 114.770769 
L 152.851765 136.024615 
L 152.851765 136.024615 
L 181.157647 114.770769 
L 180.308471 113.637231 
z
" style="stroke:#000000;stroke-linejoin:miter;"/>
   </g>
   <g id="patch_34">
    <path clip-path="url(#p438f612e82)" d="M 183.988235 144.526154 
L 176.911765 145.943077 
L 176.911765 144.526154 
L 155.682353 144.526154 
L 155.682353 144.526154 
L 176.911765 144.526154 
L 176.911765 143.109231 
z
" style="stroke:#000000;stroke-linejoin:miter;"/>
   </g>
   <g id="patch_35">
    <path clip-path="url(#p438f612e82)" d="M 243.430588 25.504615 
L 238.618588 30.888923 
L 237.769412 29.755385 
L 209.463529 51.009231 
L 209.463529 51.009231 
L 237.769412 29.755385 
L 236.920235 28.621846 
z
" style="stroke:#000000;stroke-linejoin:miter;"/>
   </g>
   <g id="patch_36">
    <path clip-path="url(#p438f612e82)" d="M 240.6 59.510769 
L 233.523529 60.927692 
L 233.523529 59.510769 
L 212.294118 59.510769 
L 212.294118 59.510769 
L 233.523529 59.510769 
L 233.523529 58.093846 
z
" style="stroke:#000000;stroke-linejoin:miter;"/>
   </g>
   <g id="patch_37">
    <path clip-path="url(#p438f612e82)" d="M 243.430588 93.516923 
L 236.920235 90.399692 
L 237.769412 89.266154 
L 209.463529 68.012308 
L 209.463529 68.012308 
L 237.769412 89.266154 
L 238.618588 88.132615 
z
" style="stroke:#000000;stroke-linejoin:miter;"/>
   </g>
   <g id="patch_38">
    <path clip-path="url(#p438f612e82)" d="M 246.902302 132.736641 
L 241.799386 127.627852 
L 242.976982 126.841885 
L 205.991816 71.300282 
L 205.991816 71.300282 
L 242.976982 126.841885 
L 244.154578 126.055917 
z
" style="stroke:#000000;stroke-linejoin:miter;"/>
   </g>
   <g id="patch_39">
    <path clip-path="url(#p438f612e82)" d="M 249.004887 174.085839 
L 244.837548 168.187303 
L 246.13086 167.611836 
L 203.88923 72.458776 
L 203.88923 72.458776 
L 246.13086 167.611836 
L 247.424173 167.036369 
z
" style="stroke:#000000;stroke-linejoin:miter;"/>
   </g>
   <g id="patch_40">
    <path clip-path="url(#p438f612e82)" d="M 246.902302 28.79259 
L 244.154578 35.473313 
L 242.976982 34.687346 
L 205.991816 90.228949 
L 205.991816 90.228949 
L 242.976982 34.687346 
L 241.799386 33.901378 
z
" style="stroke:#000000;stroke-linejoin:miter;"/>
   </g>
   <g id="patch_41">
    <path clip-path="url(#p438f612e82)" d="M 243.430588 68.012308 
L 238.618588 73.396615 
L 237.769412 72.263077 
L 209.463529 93.516923 
L 209.463529 93.516923 
L 237.769412 72.263077 
L 236.920235 71.129538 
z
" style="stroke:#000000;stroke-linejoin:miter;"/>
   </g>
   <g id="patch_42">
    <path clip-path="url(#p438f612e82)" d="M 240.6 102.018462 
L 233.523529 103.435385 
L 233.523529 102.018462 
L 212.294118 102.018462 
L 212.294118 102.018462 
L 233.523529 102.018462 
L 233.523529 100.601538 
z
" style="stroke:#000000;stroke-linejoin:miter;"/>
   </g>
   <g id="patch_43">
    <path clip-path="url(#p438f612e82)" d="M 243.430588 136.024615 
L 236.920235 132.907385 
L 237.769412 131.773846 
L 209.463529 110.52 
L 209.463529 110.52 
L 237.769412 131.773846 
L 238.618588 130.640308 
z
" style="stroke:#000000;stroke-linejoin:miter;"/>
   </g>
   <g id="patch_44">
    <path clip-path="url(#p438f612e82)" d="M 246.902302 175.244334 
L 241.799386 170.135545 
L 242.976982 169.349577 
L 205.991816 113.807974 
L 205.991816 113.807974 
L 242.976982 169.349577 
L 244.154578 168.56361 
z
" style="stroke:#000000;stroke-linejoin:miter;"/>
   </g>
   <g id="patch_45">
    <path clip-path="url(#p438f612e82)" d="M 249.004887 29.951084 
L 247.424173 37.000554 
L 246.13086 36.425087 
L 203.88923 131.578147 
L 203.88923 131.578147 
L 246.13086 36.425087 
L 244.837548 35.84962 
z
" style="stroke:#000000;stroke-linejoin:miter;"/>
   </g>
   <g id="patch_46">
    <path clip-path="url(#p438f612e82)" d="M 246.902302 71.300282 
L 244.154578 77.981006 
L 242.976982 77.195038 
L 205.991816 132.736641 
L 205.991816 132.736641 
L 242.976982 77.195038 
L 241.799386 76.409071 
z
" style="stroke:#000000;stroke-linejoin:miter;"/>
   </g>
   <g id="patch_47">
    <path clip-path="url(#p438f612e82)" d="M 243.430588 110.52 
L 238.618588 115.904308 
L 237.769412 114.770769 
L 209.463529 136.024615 
L 209.463529 136.024615 
L 237.769412 114.770769 
L 236.920235 113.637231 
z
" style="stroke:#000000;stroke-linejoin:miter;"/>
   </g>
   <g id="patch_48">
    <path clip-path="url(#p438f612e82)" d="M 240.6 144.526154 
L 233.523529 145.943077 
L 233.523529 144.526154 
L 212.294118 144.526154 
L 212.294118 144.526154 
L 233.523529 144.526154 
L 233.523529 143.109231 
z
" style="stroke:#000000;stroke-linejoin:miter;"/>
   </g>
   <g id="patch_49">
    <path clip-path="url(#p438f612e82)" d="M 243.430588 178.532308 
L 236.920235 175.415077 
L 237.769412 174.281538 
L 209.463529 153.027692 
L 209.463529 153.027692 
L 237.769412 174.281538 
L 238.618588 173.148 
z
" style="stroke:#000000;stroke-linejoin:miter;"/>
   </g>
   <g id="patch_50">
    <path clip-path="url(#p438f612e82)" d="M 28.305882 31.172308 
C 32.059286 31.172308 35.659466 29.679348 38.313523 27.022236 
C 40.96758 24.365124 42.458824 20.760801 42.458824 17.003077 
C 42.458824 13.245353 40.96758 9.64103 38.313523 6.983918 
C 35.659466 4.326806 32.059286 2.833846 28.305882 2.833846 
C 24.552478 2.833846 20.952299 4.326806 18.298242 6.983918 
C 15.644184 9.64103 14.152941 13.245353 14.152941 17.003077 
C 14.152941 20.760801 15.644184 24.365124 18.298242 27.022236 
C 20.952299 29.679348 24.552478 31.172308 28.305882 31.172308 
z
" style="fill:none;stroke:#000000;stroke-linejoin:miter;"/>
   </g>
   <g id="patch_51">
    <path clip-path="url(#p438f612e82)" d="M 28.305882 73.68 
C 32.059286 73.68 35.659466 72.18704 38.313523 69.529928 
C 40.96758 66.872816 42.458824 63.268493 42.458824 59.510769 
C 42.458824 55.753045 40.96758 52.148722 38.313523 49.49161 
C 35.659466 46.834498 32.059286 45.341538 28.305882 45.341538 
C 24.552478 45.341538 20.952299 46.834498 18.298242 49.49161 
C 15.644184 52.148722 14.152941 55.753045 14.152941 59.510769 
C 14.152941 63.268493 15.644184 66.872816 18.298242 69.529928 
C 20.952299 72.18704 24.552478 73.68 28.305882 73.68 
z
" style="fill:none;stroke:#000000;stroke-linejoin:miter;"/>
   </g>
   <g id="patch_52">
    <path clip-path="url(#p438f612e82)" d="M 28.305882 116.187692 
C 32.059286 116.187692 35.659466 114.694733 38.313523 112.037621 
C 40.96758 109.380509 42.458824 105.776185 42.458824 102.018462 
C 42.458824 98.260738 40.96758 94.656414 38.313523 91.999302 
C 35.659466 89.34219 32.059286 87.849231 28.305882 87.849231 
C 24.552478 87.849231 20.952299 89.34219 18.298242 91.999302 
C 15.644184 94.656414 14.152941 98.260738 14.152941 102.018462 
C 14.152941 105.776185 15.644184 109.380509 18.298242 112.037621 
C 20.952299 114.694733 24.552478 116.187692 28.305882 116.187692 
z
" style="fill:none;stroke:#000000;stroke-linejoin:miter;"/>
   </g>
   <g id="patch_53">
    <path clip-path="url(#p438f612e82)" d="M 28.305882 158.695385 
C 32.059286 158.695385 35.659466 157.202425 38.313523 154.545313 
C 40.96758 151.888201 42.458824 148.283878 42.458824 144.526154 
C 42.458824 140.76843 40.96758 137.164107 38.313523 134.506995 
C 35.659466 131.849883 32.059286 130.356923 28.305882 130.356923 
C 24.552478 130.356923 20.952299 131.849883 18.298242 134.506995 
C 15.644184 137.164107 14.152941 140.76843 14.152941 144.526154 
C 14.152941 148.283878 15.644184 151.888201 18.298242 154.545313 
C 20.952299 157.202425 24.552478 158.695385 28.305882 158.695385 
z
" style="fill:none;stroke:#000000;stroke-linejoin:miter;"/>
   </g>
   <g id="patch_54">
    <path clip-path="url(#p438f612e82)" d="M 28.305882 201.203077 
C 32.059286 201.203077 35.659466 199.710117 38.313523 197.053005 
C 40.96758 194.395893 42.458824 190.79157 42.458824 187.033846 
C 42.458824 183.276122 40.96758 179.671799 38.313523 177.014687 
C 35.659466 174.357575 32.059286 172.864615 28.305882 172.864615 
C 24.552478 172.864615 20.952299 174.357575 18.298242 177.014687 
C 15.644184 179.671799 14.152941 183.276122 14.152941 187.033846 
C 14.152941 190.79157 15.644184 194.395893 18.298242 197.053005 
C 20.952299 199.710117 24.552478 201.203077 28.305882 201.203077 
z
" style="fill:none;stroke:#000000;stroke-linejoin:miter;"/>
   </g>
   <g id="patch_55">
    <path clip-path="url(#p438f612e82)" d="M 84.917647 73.68 
C 88.671051 73.68 92.27123 72.18704 94.925288 69.529928 
C 97.579345 66.872816 99.070588 63.268493 99.070588 59.510769 
C 99.070588 55.753045 97.579345 52.148722 94.925288 49.49161 
C 92.27123 46.834498 88.671051 45.341538 84.917647 45.341538 
C 81.164243 45.341538 77.564064 46.834498 74.910006 49.49161 
C 72.255949 52.148722 70.764706 55.753045 70.764706 59.510769 
C 70.764706 63.268493 72.255949 66.872816 74.910006 69.529928 
C 77.564064 72.18704 81.164243 73.68 84.917647 73.68 
z
" style="fill:#b2b2b2;stroke:#000000;stroke-linejoin:miter;"/>
   </g>
   <g id="patch_56">
    <path clip-path="url(#p438f612e82)" d="M 84.917647 73.68 
C 88.671051 73.68 92.27123 72.18704 94.925288 69.529928 
C 97.579345 66.872816 99.070588 63.268493 99.070588 59.510769 
C 99.070588 55.753045 97.579345 52.148722 94.925288 49.49161 
C 92.27123 46.834498 88.671051 45.341538 84.917647 45.341538 
C 81.164243 45.341538 77.564064 46.834498 74.910006 49.49161 
C 72.255949 52.148722 70.764706 55.753045 70.764706 59.510769 
C 70.764706 63.268493 72.255949 66.872816 74.910006 69.529928 
C 77.564064 72.18704 81.164243 73.68 84.917647 73.68 
z
" style="fill:none;stroke:#000000;stroke-linejoin:miter;"/>
   </g>
   <g id="patch_57">
    <path clip-path="url(#p438f612e82)" d="M 84.917647 116.187692 
C 88.671051 116.187692 92.27123 114.694733 94.925288 112.037621 
C 97.579345 109.380509 99.070588 105.776185 99.070588 102.018462 
C 99.070588 98.260738 97.579345 94.656414 94.925288 91.999302 
C 92.27123 89.34219 88.671051 87.849231 84.917647 87.849231 
C 81.164243 87.849231 77.564064 89.34219 74.910006 91.999302 
C 72.255949 94.656414 70.764706 98.260738 70.764706 102.018462 
C 70.764706 105.776185 72.255949 109.380509 74.910006 112.037621 
C 77.564064 114.694733 81.164243 116.187692 84.917647 116.187692 
z
" style="fill:#b2b2b2;stroke:#000000;stroke-linejoin:miter;"/>
   </g>
   <g id="patch_58">
    <path clip-path="url(#p438f612e82)" d="M 84.917647 116.187692 
C 88.671051 116.187692 92.27123 114.694733 94.925288 112.037621 
C 97.579345 109.380509 99.070588 105.776185 99.070588 102.018462 
C 99.070588 98.260738 97.579345 94.656414 94.925288 91.999302 
C 92.27123 89.34219 88.671051 87.849231 84.917647 87.849231 
C 81.164243 87.849231 77.564064 89.34219 74.910006 91.999302 
C 72.255949 94.656414 70.764706 98.260738 70.764706 102.018462 
C 70.764706 105.776185 72.255949 109.380509 74.910006 112.037621 
C 77.564064 114.694733 81.164243 116.187692 84.917647 116.187692 
z
" style="fill:none;stroke:#000000;stroke-linejoin:miter;"/>
   </g>
   <g id="patch_59">
    <path clip-path="url(#p438f612e82)" d="M 84.917647 158.695385 
C 88.671051 158.695385 92.27123 157.202425 94.925288 154.545313 
C 97.579345 151.888201 99.070588 148.283878 99.070588 144.526154 
C 99.070588 140.76843 97.579345 137.164107 94.925288 134.506995 
C 92.27123 131.849883 88.671051 130.356923 84.917647 130.356923 
C 81.164243 130.356923 77.564064 131.849883 74.910006 134.506995 
C 72.255949 137.164107 70.764706 140.76843 70.764706 144.526154 
C 70.764706 148.283878 72.255949 151.888201 74.910006 154.545313 
C 77.564064 157.202425 81.164243 158.695385 84.917647 158.695385 
z
" style="fill:#b2b2b2;stroke:#000000;stroke-linejoin:miter;"/>
   </g>
   <g id="patch_60">
    <path clip-path="url(#p438f612e82)" d="M 84.917647 158.695385 
C 88.671051 158.695385 92.27123 157.202425 94.925288 154.545313 
C 97.579345 151.888201 99.070588 148.283878 99.070588 144.526154 
C 99.070588 140.76843 97.579345 137.164107 94.925288 134.506995 
C 92.27123 131.849883 88.671051 130.356923 84.917647 130.356923 
C 81.164243 130.356923 77.564064 131.849883 74.910006 134.506995 
C 72.255949 137.164107 70.764706 140.76843 70.764706 144.526154 
C 70.764706 148.283878 72.255949 151.888201 74.910006 154.545313 
C 77.564064 157.202425 81.164243 158.695385 84.917647 158.695385 
z
" style="fill:none;stroke:#000000;stroke-linejoin:miter;"/>
   </g>
   <g id="patch_61">
    <path clip-path="url(#p438f612e82)" d="M 141.529412 73.68 
C 145.282816 73.68 148.882995 72.18704 151.537052 69.529928 
C 154.19111 66.872816 155.682353 63.268493 155.682353 59.510769 
C 155.682353 55.753045 154.19111 52.148722 151.537052 49.49161 
C 148.882995 46.834498 145.282816 45.341538 141.529412 45.341538 
C 137.776008 45.341538 134.175828 46.834498 131.521771 49.49161 
C 128.867714 52.148722 127.376471 55.753045 127.376471 59.510769 
C 127.376471 63.268493 128.867714 66.872816 131.521771 69.529928 
C 134.175828 72.18704 137.776008 73.68 141.529412 73.68 
z
" style="fill:#b2b2b2;stroke:#000000;stroke-linejoin:miter;"/>
   </g>
   <g id="patch_62">
    <path clip-path="url(#p438f612e82)" d="M 141.529412 73.68 
C 145.282816 73.68 148.882995 72.18704 151.537052 69.529928 
C 154.19111 66.872816 155.682353 63.268493 155.682353 59.510769 
C 155.682353 55.753045 154.19111 52.148722 151.537052 49.49161 
C 148.882995 46.834498 145.282816 45.341538 141.529412 45.341538 
C 137.776008 45.341538 134.175828 46.834498 131.521771 49.49161 
C 128.867714 52.148722 127.376471 55.753045 127.376471 59.510769 
C 127.376471 63.268493 128.867714 66.872816 131.521771 69.529928 
C 134.175828 72.18704 137.776008 73.68 141.529412 73.68 
z
" style="fill:none;stroke:#000000;stroke-linejoin:miter;"/>
   </g>
   <g id="patch_63">
    <path clip-path="url(#p438f612e82)" d="M 141.529412 116.187692 
C 145.282816 116.187692 148.882995 114.694733 151.537052 112.037621 
C 154.19111 109.380509 155.682353 105.776185 155.682353 102.018462 
C 155.682353 98.260738 154.19111 94.656414 151.537052 91.999302 
C 148.882995 89.34219 145.282816 87.849231 141.529412 87.849231 
C 137.776008 87.849231 134.175828 89.34219 131.521771 91.999302 
C 128.867714 94.656414 127.376471 98.260738 127.376471 102.018462 
C 127.376471 105.776185 128.867714 109.380509 131.521771 112.037621 
C 134.175828 114.694733 137.776008 116.187692 141.529412 116.187692 
z
" style="fill:#b2b2b2;stroke:#000000;stroke-linejoin:miter;"/>
   </g>
   <g id="patch_64">
    <path clip-path="url(#p438f612e82)" d="M 141.529412 116.187692 
C 145.282816 116.187692 148.882995 114.694733 151.537052 112.037621 
C 154.19111 109.380509 155.682353 105.776185 155.682353 102.018462 
C 155.682353 98.260738 154.19111 94.656414 151.537052 91.999302 
C 148.882995 89.34219 145.282816 87.849231 141.529412 87.849231 
C 137.776008 87.849231 134.175828 89.34219 131.521771 91.999302 
C 128.867714 94.656414 127.376471 98.260738 127.376471 102.018462 
C 127.376471 105.776185 128.867714 109.380509 131.521771 112.037621 
C 134.175828 114.694733 137.776008 116.187692 141.529412 116.187692 
z
" style="fill:none;stroke:#000000;stroke-linejoin:miter;"/>
   </g>
   <g id="patch_65">
    <path clip-path="url(#p438f612e82)" d="M 141.529412 158.695385 
C 145.282816 158.695385 148.882995 157.202425 151.537052 154.545313 
C 154.19111 151.888201 155.682353 148.283878 155.682353 144.526154 
C 155.682353 140.76843 154.19111 137.164107 151.537052 134.506995 
C 148.882995 131.849883 145.282816 130.356923 141.529412 130.356923 
C 137.776008 130.356923 134.175828 131.849883 131.521771 134.506995 
C 128.867714 137.164107 127.376471 140.76843 127.376471 144.526154 
C 127.376471 148.283878 128.867714 151.888201 131.521771 154.545313 
C 134.175828 157.202425 137.776008 158.695385 141.529412 158.695385 
z
" style="fill:#b2b2b2;stroke:#000000;stroke-linejoin:miter;"/>
   </g>
   <g id="patch_66">
    <path clip-path="url(#p438f612e82)" d="M 141.529412 158.695385 
C 145.282816 158.695385 148.882995 157.202425 151.537052 154.545313 
C 154.19111 151.888201 155.682353 148.283878 155.682353 144.526154 
C 155.682353 140.76843 154.19111 137.164107 151.537052 134.506995 
C 148.882995 131.849883 145.282816 130.356923 141.529412 130.356923 
C 137.776008 130.356923 134.175828 131.849883 131.521771 134.506995 
C 128.867714 137.164107 127.376471 140.76843 127.376471 144.526154 
C 127.376471 148.283878 128.867714 151.888201 131.521771 154.545313 
C 134.175828 157.202425 137.776008 158.695385 141.529412 158.695385 
z
" style="fill:none;stroke:#000000;stroke-linejoin:miter;"/>
   </g>
   <g id="patch_67">
    <path clip-path="url(#p438f612e82)" d="M 198.141176 73.68 
C 201.89458 73.68 205.49476 72.18704 208.148817 69.529928 
C 210.802874 66.872816 212.294118 63.268493 212.294118 59.510769 
C 212.294118 55.753045 210.802874 52.148722 208.148817 49.49161 
C 205.49476 46.834498 201.89458 45.341538 198.141176 45.341538 
C 194.387773 45.341538 190.787593 46.834498 188.133536 49.49161 
C 185.479478 52.148722 183.988235 55.753045 183.988235 59.510769 
C 183.988235 63.268493 185.479478 66.872816 188.133536 69.529928 
C 190.787593 72.18704 194.387773 73.68 198.141176 73.68 
z
" style="fill:#b2b2b2;stroke:#000000;stroke-linejoin:miter;"/>
   </g>
   <g id="patch_68">
    <path clip-path="url(#p438f612e82)" d="M 198.141176 73.68 
C 201.89458 73.68 205.49476 72.18704 208.148817 69.529928 
C 210.802874 66.872816 212.294118 63.268493 212.294118 59.510769 
C 212.294118 55.753045 210.802874 52.148722 208.148817 49.49161 
C 205.49476 46.834498 201.89458 45.341538 198.141176 45.341538 
C 194.387773 45.341538 190.787593 46.834498 188.133536 49.49161 
C 185.479478 52.148722 183.988235 55.753045 183.988235 59.510769 
C 183.988235 63.268493 185.479478 66.872816 188.133536 69.529928 
C 190.787593 72.18704 194.387773 73.68 198.141176 73.68 
z
" style="fill:none;stroke:#000000;stroke-linejoin:miter;"/>
   </g>
   <g id="patch_69">
    <path clip-path="url(#p438f612e82)" d="M 198.141176 116.187692 
C 201.89458 116.187692 205.49476 114.694733 208.148817 112.037621 
C 210.802874 109.380509 212.294118 105.776185 212.294118 102.018462 
C 212.294118 98.260738 210.802874 94.656414 208.148817 91.999302 
C 205.49476 89.34219 201.89458 87.849231 198.141176 87.849231 
C 194.387773 87.849231 190.787593 89.34219 188.133536 91.999302 
C 185.479478 94.656414 183.988235 98.260738 183.988235 102.018462 
C 183.988235 105.776185 185.479478 109.380509 188.133536 112.037621 
C 190.787593 114.694733 194.387773 116.187692 198.141176 116.187692 
z
" style="fill:#b2b2b2;stroke:#000000;stroke-linejoin:miter;"/>
   </g>
   <g id="patch_70">
    <path clip-path="url(#p438f612e82)" d="M 198.141176 116.187692 
C 201.89458 116.187692 205.49476 114.694733 208.148817 112.037621 
C 210.802874 109.380509 212.294118 105.776185 212.294118 102.018462 
C 212.294118 98.260738 210.802874 94.656414 208.148817 91.999302 
C 205.49476 89.34219 201.89458 87.849231 198.141176 87.849231 
C 194.387773 87.849231 190.787593 89.34219 188.133536 91.999302 
C 185.479478 94.656414 183.988235 98.260738 183.988235 102.018462 
C 183.988235 105.776185 185.479478 109.380509 188.133536 112.037621 
C 190.787593 114.694733 194.387773 116.187692 198.141176 116.187692 
z
" style="fill:none;stroke:#000000;stroke-linejoin:miter;"/>
   </g>
   <g id="patch_71">
    <path clip-path="url(#p438f612e82)" d="M 198.141176 158.695385 
C 201.89458 158.695385 205.49476 157.202425 208.148817 154.545313 
C 210.802874 151.888201 212.294118 148.283878 212.294118 144.526154 
C 212.294118 140.76843 210.802874 137.164107 208.148817 134.506995 
C 205.49476 131.849883 201.89458 130.356923 198.141176 130.356923 
C 194.387773 130.356923 190.787593 131.849883 188.133536 134.506995 
C 185.479478 137.164107 183.988235 140.76843 183.988235 144.526154 
C 183.988235 148.283878 185.479478 151.888201 188.133536 154.545313 
C 190.787593 157.202425 194.387773 158.695385 198.141176 158.695385 
z
" style="fill:#b2b2b2;stroke:#000000;stroke-linejoin:miter;"/>
   </g>
   <g id="patch_72">
    <path clip-path="url(#p438f612e82)" d="M 198.141176 158.695385 
C 201.89458 158.695385 205.49476 157.202425 208.148817 154.545313 
C 210.802874 151.888201 212.294118 148.283878 212.294118 144.526154 
C 212.294118 140.76843 210.802874 137.164107 208.148817 134.506995 
C 205.49476 131.849883 201.89458 130.356923 198.141176 130.356923 
C 194.387773 130.356923 190.787593 131.849883 188.133536 134.506995 
C 185.479478 137.164107 183.988235 140.76843 183.988235 144.526154 
C 183.988235 148.283878 185.479478 151.888201 188.133536 154.545313 
C 190.787593 157.202425 194.387773 158.695385 198.141176 158.695385 
z
" style="fill:none;stroke:#000000;stroke-linejoin:miter;"/>
   </g>
   <g id="patch_73">
    <path clip-path="url(#p438f612e82)" d="M 254.752941 31.172308 
C 258.506345 31.172308 262.106525 29.679348 264.760582 27.022236 
C 267.414639 24.365124 268.905882 20.760801 268.905882 17.003077 
C 268.905882 13.245353 267.414639 9.64103 264.760582 6.983918 
C 262.106525 4.326806 258.506345 2.833846 254.752941 2.833846 
C 250.999537 2.833846 247.399358 4.326806 244.7453 6.983918 
C 242.091243 9.64103 240.6 13.245353 240.6 17.003077 
C 240.6 20.760801 242.091243 24.365124 244.7453 27.022236 
C 247.399358 29.679348 250.999537 31.172308 254.752941 31.172308 
z
" style="fill:none;stroke:#000000;stroke-linejoin:miter;"/>
   </g>
   <g id="patch_74">
    <path clip-path="url(#p438f612e82)" d="M 254.752941 73.68 
C 258.506345 73.68 262.106525 72.18704 264.760582 69.529928 
C 267.414639 66.872816 268.905882 63.268493 268.905882 59.510769 
C 268.905882 55.753045 267.414639 52.148722 264.760582 49.49161 
C 262.106525 46.834498 258.506345 45.341538 254.752941 45.341538 
C 250.999537 45.341538 247.399358 46.834498 244.7453 49.49161 
C 242.091243 52.148722 240.6 55.753045 240.6 59.510769 
C 240.6 63.268493 242.091243 66.872816 244.7453 69.529928 
C 247.399358 72.18704 250.999537 73.68 254.752941 73.68 
z
" style="fill:none;stroke:#000000;stroke-linejoin:miter;"/>
   </g>
   <g id="patch_75">
    <path clip-path="url(#p438f612e82)" d="M 254.752941 116.187692 
C 258.506345 116.187692 262.106525 114.694733 264.760582 112.037621 
C 267.414639 109.380509 268.905882 105.776185 268.905882 102.018462 
C 268.905882 98.260738 267.414639 94.656414 264.760582 91.999302 
C 262.106525 89.34219 258.506345 87.849231 254.752941 87.849231 
C 250.999537 87.849231 247.399358 89.34219 244.7453 91.999302 
C 242.091243 94.656414 240.6 98.260738 240.6 102.018462 
C 240.6 105.776185 242.091243 109.380509 244.7453 112.037621 
C 247.399358 114.694733 250.999537 116.187692 254.752941 116.187692 
z
" style="fill:none;stroke:#000000;stroke-linejoin:miter;"/>
   </g>
   <g id="patch_76">
    <path clip-path="url(#p438f612e82)" d="M 254.752941 158.695385 
C 258.506345 158.695385 262.106525 157.202425 264.760582 154.545313 
C 267.414639 151.888201 268.905882 148.283878 268.905882 144.526154 
C 268.905882 140.76843 267.414639 137.164107 264.760582 134.506995 
C 262.106525 131.849883 258.506345 130.356923 254.752941 130.356923 
C 250.999537 130.356923 247.399358 131.849883 244.7453 134.506995 
C 242.091243 137.164107 240.6 140.76843 240.6 144.526154 
C 240.6 148.283878 242.091243 151.888201 244.7453 154.545313 
C 247.399358 157.202425 250.999537 158.695385 254.752941 158.695385 
z
" style="fill:none;stroke:#000000;stroke-linejoin:miter;"/>
   </g>
   <g id="patch_77">
    <path clip-path="url(#p438f612e82)" d="M 254.752941 201.203077 
C 258.506345 201.203077 262.106525 199.710117 264.760582 197.053005 
C 267.414639 194.395893 268.905882 190.79157 268.905882 187.033846 
C 268.905882 183.276122 267.414639 179.671799 264.760582 177.014687 
C 262.106525 174.357575 258.506345 172.864615 254.752941 172.864615 
C 250.999537 172.864615 247.399358 174.357575 244.7453 177.014687 
C 242.091243 179.671799 240.6 183.276122 240.6 187.033846 
C 240.6 190.79157 242.091243 194.395893 244.7453 197.053005 
C 247.399358 199.710117 250.999537 201.203077 254.752941 201.203077 
z
" style="fill:none;stroke:#000000;stroke-linejoin:miter;"/>
   </g>
   <g id="patch_78">
    <path clip-path="url(#p438f612e82)" d="M 5.661176 31.172308 
C 9.41458 31.172308 13.01476 29.679348 15.668817 27.022236 
C 18.322874 24.365124 19.814118 20.760801 19.814118 17.003077 
C 19.814118 13.245353 18.322874 9.64103 15.668817 6.983918 
C 13.01476 4.326806 9.41458 2.833846 5.661176 2.833846 
C 1.907773 2.833846 -1.692407 4.326806 -4.346464 6.983918 
C -7.000522 9.64103 -8.491765 13.245353 -8.491765 17.003077 
C -8.491765 20.760801 -7.000522 24.365124 -4.346464 27.022236 
C -1.692407 29.679348 1.907773 31.172308 5.661176 31.172308 
z
" style="fill:none;"/>
   </g>
   <g id="patch_79">
    <path clip-path="url(#p438f612e82)" d="M 5.661176 73.68 
C 9.41458 73.68 13.01476 72.18704 15.668817 69.529928 
C 18.322874 66.872816 19.814118 63.268493 19.814118 59.510769 
C 19.814118 55.753045 18.322874 52.148722 15.668817 49.49161 
C 13.01476 46.834498 9.41458 45.341538 5.661176 45.341538 
C 1.907773 45.341538 -1.692407 46.834498 -4.346464 49.49161 
C -7.000522 52.148722 -8.491765 55.753045 -8.491765 59.510769 
C -8.491765 63.268493 -7.000522 66.872816 -4.346464 69.529928 
C -1.692407 72.18704 1.907773 73.68 5.661176 73.68 
z
" style="fill:none;"/>
   </g>
   <g id="patch_80">
    <path clip-path="url(#p438f612e82)" d="M 5.661176 116.187692 
C 9.41458 116.187692 13.01476 114.694733 15.668817 112.037621 
C 18.322874 109.380509 19.814118 105.776185 19.814118 102.018462 
C 19.814118 98.260738 18.322874 94.656414 15.668817 91.999302 
C 13.01476 89.34219 9.41458 87.849231 5.661176 87.849231 
C 1.907773 87.849231 -1.692407 89.34219 -4.346464 91.999302 
C -7.000522 94.656414 -8.491765 98.260738 -8.491765 102.018462 
C -8.491765 105.776185 -7.000522 109.380509 -4.346464 112.037621 
C -1.692407 114.694733 1.907773 116.187692 5.661176 116.187692 
z
" style="fill:none;"/>
   </g>
   <g id="patch_81">
    <path clip-path="url(#p438f612e82)" d="M 5.661176 158.695385 
C 9.41458 158.695385 13.01476 157.202425 15.668817 154.545313 
C 18.322874 151.888201 19.814118 148.283878 19.814118 144.526154 
C 19.814118 140.76843 18.322874 137.164107 15.668817 134.506995 
C 13.01476 131.849883 9.41458 130.356923 5.661176 130.356923 
C 1.907773 130.356923 -1.692407 131.849883 -4.346464 134.506995 
C -7.000522 137.164107 -8.491765 140.76843 -8.491765 144.526154 
C -8.491765 148.283878 -7.000522 151.888201 -4.346464 154.545313 
C -1.692407 157.202425 1.907773 158.695385 5.661176 158.695385 
z
" style="fill:none;"/>
   </g>
   <g id="patch_82">
    <path clip-path="url(#p438f612e82)" d="M 5.661176 201.203077 
C 9.41458 201.203077 13.01476 199.710117 15.668817 197.053005 
C 18.322874 194.395893 19.814118 190.79157 19.814118 187.033846 
C 19.814118 183.276122 18.322874 179.671799 15.668817 177.014687 
C 13.01476 174.357575 9.41458 172.864615 5.661176 172.864615 
C 1.907773 172.864615 -1.692407 174.357575 -4.346464 177.014687 
C -7.000522 179.671799 -8.491765 183.276122 -8.491765 187.033846 
C -8.491765 190.79157 -7.000522 194.395893 -4.346464 197.053005 
C -1.692407 199.710117 1.907773 201.203077 5.661176 201.203077 
z
" style="fill:none;"/>
   </g>
   <g id="patch_83">
    <path clip-path="url(#p438f612e82)" d="M 277.397647 31.172308 
C 281.151051 31.172308 284.75123 29.679348 287.405288 27.022236 
C 290.059345 24.365124 291.550588 20.760801 291.550588 17.003077 
C 291.550588 13.245353 290.059345 9.64103 287.405288 6.983918 
C 284.75123 4.326806 281.151051 2.833846 277.397647 2.833846 
C 273.644243 2.833846 270.044064 4.326806 267.390006 6.983918 
C 264.735949 9.64103 263.244706 13.245353 263.244706 17.003077 
C 263.244706 20.760801 264.735949 24.365124 267.390006 27.022236 
C 270.044064 29.679348 273.644243 31.172308 277.397647 31.172308 
z
" style="fill:none;"/>
   </g>
   <g id="patch_84">
    <path clip-path="url(#p438f612e82)" d="M 277.397647 73.68 
C 281.151051 73.68 284.75123 72.18704 287.405288 69.529928 
C 290.059345 66.872816 291.550588 63.268493 291.550588 59.510769 
C 291.550588 55.753045 290.059345 52.148722 287.405288 49.49161 
C 284.75123 46.834498 281.151051 45.341538 277.397647 45.341538 
C 273.644243 45.341538 270.044064 46.834498 267.390006 49.49161 
C 264.735949 52.148722 263.244706 55.753045 263.244706 59.510769 
C 263.244706 63.268493 264.735949 66.872816 267.390006 69.529928 
C 270.044064 72.18704 273.644243 73.68 277.397647 73.68 
z
" style="fill:none;"/>
   </g>
   <g id="patch_85">
    <path clip-path="url(#p438f612e82)" d="M 277.397647 116.187692 
C 281.151051 116.187692 284.75123 114.694733 287.405288 112.037621 
C 290.059345 109.380509 291.550588 105.776185 291.550588 102.018462 
C 291.550588 98.260738 290.059345 94.656414 287.405288 91.999302 
C 284.75123 89.34219 281.151051 87.849231 277.397647 87.849231 
C 273.644243 87.849231 270.044064 89.34219 267.390006 91.999302 
C 264.735949 94.656414 263.244706 98.260738 263.244706 102.018462 
C 263.244706 105.776185 264.735949 109.380509 267.390006 112.037621 
C 270.044064 114.694733 273.644243 116.187692 277.397647 116.187692 
z
" style="fill:none;"/>
   </g>
   <g id="patch_86">
    <path clip-path="url(#p438f612e82)" d="M 277.397647 158.695385 
C 281.151051 158.695385 284.75123 157.202425 287.405288 154.545313 
C 290.059345 151.888201 291.550588 148.283878 291.550588 144.526154 
C 291.550588 140.76843 290.059345 137.164107 287.405288 134.506995 
C 284.75123 131.849883 281.151051 130.356923 277.397647 130.356923 
C 273.644243 130.356923 270.044064 131.849883 267.390006 134.506995 
C 264.735949 137.164107 263.244706 140.76843 263.244706 144.526154 
C 263.244706 148.283878 264.735949 151.888201 267.390006 154.545313 
C 270.044064 157.202425 273.644243 158.695385 277.397647 158.695385 
z
" style="fill:none;"/>
   </g>
   <g id="patch_87">
    <path clip-path="url(#p438f612e82)" d="M 277.397647 201.203077 
C 281.151051 201.203077 284.75123 199.710117 287.405288 197.053005 
C 290.059345 194.395893 291.550588 190.79157 291.550588 187.033846 
C 291.550588 183.276122 290.059345 179.671799 287.405288 177.014687 
C 284.75123 174.357575 281.151051 172.864615 277.397647 172.864615 
C 273.644243 172.864615 270.044064 174.357575 267.390006 177.014687 
C 264.735949 179.671799 263.244706 183.276122 263.244706 187.033846 
C 263.244706 190.79157 264.735949 194.395893 267.390006 197.053005 
C 270.044064 199.710117 273.644243 201.203077 277.397647 201.203077 
z
" style="fill:none;"/>
   </g>
   <g id="patch_88">
    <path clip-path="url(#p438f612e82)" d="M 28.305882 229.541538 
C 32.059286 229.541538 35.659466 228.048579 38.313523 225.391467 
C 40.96758 222.734355 42.458824 219.130032 42.458824 215.372308 
C 42.458824 211.614584 40.96758 208.010261 38.313523 205.353149 
C 35.659466 202.696036 32.059286 201.203077 28.305882 201.203077 
C 24.552478 201.203077 20.952299 202.696036 18.298242 205.353149 
C 15.644184 208.010261 14.152941 211.614584 14.152941 215.372308 
C 14.152941 219.130032 15.644184 222.734355 18.298242 225.391467 
C 20.952299 228.048579 24.552478 229.541538 28.305882 229.541538 
z
" style="fill:none;"/>
   </g>
   <g id="patch_89">
    <path clip-path="url(#p438f612e82)" d="M 254.752941 229.541538 
C 258.506345 229.541538 262.106525 228.048579 264.760582 225.391467 
C 267.414639 222.734355 268.905882 219.130032 268.905882 215.372308 
C 268.905882 211.614584 267.414639 208.010261 264.760582 205.353149 
C 262.106525 202.696036 258.506345 201.203077 254.752941 201.203077 
C 250.999537 201.203077 247.399358 202.696036 244.7453 205.353149 
C 242.091243 208.010261 240.6 211.614584 240.6 215.372308 
C 240.6 219.130032 242.091243 222.734355 244.7453 225.391467 
C 247.399358 228.048579 250.999537 229.541538 254.752941 229.541538 
z
" style="fill:none;"/>
   </g>
   <g id="matplotlib.axis_1"/>
   <g id="matplotlib.axis_2"/>
   <g id="text_1">
    <!-- 0 -->
    <defs>
     <path d="M 31.78125 66.40625 
Q 24.171875 66.40625 20.328125 58.90625 
Q 16.5 51.421875 16.5 36.375 
Q 16.5 21.390625 20.328125 13.890625 
Q 24.171875 6.390625 31.78125 6.390625 
Q 39.453125 6.390625 43.28125 13.890625 
Q 47.125 21.390625 47.125 36.375 
Q 47.125 51.421875 43.28125 58.90625 
Q 39.453125 66.40625 31.78125 66.40625 
z
M 31.78125 74.21875 
Q 44.046875 74.21875 50.515625 64.515625 
Q 56.984375 54.828125 56.984375 36.375 
Q 56.984375 17.96875 50.515625 8.265625 
Q 44.046875 -1.421875 31.78125 -1.421875 
Q 19.53125 -1.421875 13.0625 8.265625 
Q 6.59375 17.96875 6.59375 36.375 
Q 6.59375 54.828125 13.0625 64.515625 
Q 19.53125 74.21875 31.78125 74.21875 
z
" id="DejaVuSans-30"/>
    </defs>
    <g transform="translate(25.124632 19.762452)scale(0.1 -0.1)">
     <use xlink:href="#DejaVuSans-30"/>
    </g>
   </g>
   <g id="text_2">
    <!-- 1 -->
    <defs>
     <path d="M 12.40625 8.296875 
L 28.515625 8.296875 
L 28.515625 63.921875 
L 10.984375 60.40625 
L 10.984375 69.390625 
L 28.421875 72.90625 
L 38.28125 72.90625 
L 38.28125 8.296875 
L 54.390625 8.296875 
L 54.390625 0 
L 12.40625 0 
z
" id="DejaVuSans-31"/>
    </defs>
    <g transform="translate(25.124632 62.270144)scale(0.1 -0.1)">
     <use xlink:href="#DejaVuSans-31"/>
    </g>
   </g>
   <g id="text_3">
    <!-- 0 -->
    <g transform="translate(25.124632 104.777837)scale(0.1 -0.1)">
     <use xlink:href="#DejaVuSans-30"/>
    </g>
   </g>
   <g id="text_4">
    <!-- 0 -->
    <g transform="translate(25.124632 147.285529)scale(0.1 -0.1)">
     <use xlink:href="#DejaVuSans-30"/>
    </g>
   </g>
   <g id="text_5">
    <!-- 0 -->
    <g transform="translate(25.124632 189.793221)scale(0.1 -0.1)">
     <use xlink:href="#DejaVuSans-30"/>
    </g>
   </g>
   <g id="text_6">
    <!-- $h_{0,0}$ -->
    <defs>
     <path d="M 55.71875 33.015625 
L 49.3125 0 
L 40.28125 0 
L 46.6875 32.671875 
Q 47.125 34.96875 47.359375 36.71875 
Q 47.609375 38.484375 47.609375 39.5 
Q 47.609375 43.609375 45.015625 45.890625 
Q 42.4375 48.1875 37.796875 48.1875 
Q 30.5625 48.1875 25.265625 43.296875 
Q 19.96875 38.421875 18.40625 30.328125 
L 12.5 0 
L 3.515625 0 
L 18.3125 75.984375 
L 27.296875 75.984375 
L 21.484375 46.09375 
Q 24.90625 50.6875 30.21875 53.34375 
Q 35.546875 56 41.40625 56 
Q 48.640625 56 52.609375 52.09375 
Q 56.59375 48.1875 56.59375 41.109375 
Q 56.59375 39.359375 56.375 37.359375 
Q 56.15625 35.359375 55.71875 33.015625 
z
" id="DejaVuSans-Oblique-68"/>
     <path d="M 11.71875 12.40625 
L 22.015625 12.40625 
L 22.015625 4 
L 14.015625 -11.625 
L 7.71875 -11.625 
L 11.71875 4 
z
" id="DejaVuSans-2c"/>
    </defs>
    <g transform="translate(75.317647 62.060769)scale(0.1 -0.1)">
     <use transform="translate(0 0.015625)" xlink:href="#DejaVuSans-Oblique-68"/>
     <use transform="translate(63.378906 -16.390625)scale(0.7)" xlink:href="#DejaVuSans-30"/>
     <use transform="translate(107.915039 -16.390625)scale(0.7)" xlink:href="#DejaVuSans-2c"/>
     <use transform="translate(143.803711 -16.390625)scale(0.7)" xlink:href="#DejaVuSans-30"/>
    </g>
   </g>
   <g id="text_7">
    <!-- $h_{0,1}$ -->
    <g transform="translate(75.317647 104.568462)scale(0.1 -0.1)">
     <use transform="translate(0 0.015625)" xlink:href="#DejaVuSans-Oblique-68"/>
     <use transform="translate(63.378906 -16.390625)scale(0.7)" xlink:href="#DejaVuSans-30"/>
     <use transform="translate(107.915039 -16.390625)scale(0.7)" xlink:href="#DejaVuSans-2c"/>
     <use transform="translate(143.803711 -16.390625)scale(0.7)" xlink:href="#DejaVuSans-31"/>
    </g>
   </g>
   <g id="text_8">
    <!-- $h_{0,2}$ -->
    <defs>
     <path d="M 19.1875 8.296875 
L 53.609375 8.296875 
L 53.609375 0 
L 7.328125 0 
L 7.328125 8.296875 
Q 12.9375 14.109375 22.625 23.890625 
Q 32.328125 33.6875 34.8125 36.53125 
Q 39.546875 41.84375 41.421875 45.53125 
Q 43.3125 49.21875 43.3125 52.78125 
Q 43.3125 58.59375 39.234375 62.25 
Q 35.15625 65.921875 28.609375 65.921875 
Q 23.96875 65.921875 18.8125 64.3125 
Q 13.671875 62.703125 7.8125 59.421875 
L 7.8125 69.390625 
Q 13.765625 71.78125 18.9375 73 
Q 24.125 74.21875 28.421875 74.21875 
Q 39.75 74.21875 46.484375 68.546875 
Q 53.21875 62.890625 53.21875 53.421875 
Q 53.21875 48.921875 51.53125 44.890625 
Q 49.859375 40.875 45.40625 35.40625 
Q 44.1875 33.984375 37.640625 27.21875 
Q 31.109375 20.453125 19.1875 8.296875 
z
" id="DejaVuSans-32"/>
    </defs>
    <g transform="translate(75.317647 147.076154)scale(0.1 -0.1)">
     <use transform="translate(0 0.015625)" xlink:href="#DejaVuSans-Oblique-68"/>
     <use transform="translate(63.378906 -16.390625)scale(0.7)" xlink:href="#DejaVuSans-30"/>
     <use transform="translate(107.915039 -16.390625)scale(0.7)" xlink:href="#DejaVuSans-2c"/>
     <use transform="translate(143.803711 -16.390625)scale(0.7)" xlink:href="#DejaVuSans-32"/>
    </g>
   </g>
   <g id="text_9">
    <!-- $h_{1,0}$ -->
    <g transform="translate(131.929412 62.060769)scale(0.1 -0.1)">
     <use transform="translate(0 0.015625)" xlink:href="#DejaVuSans-Oblique-68"/>
     <use transform="translate(63.378906 -16.390625)scale(0.7)" xlink:href="#DejaVuSans-31"/>
     <use transform="translate(107.915039 -16.390625)scale(0.7)" xlink:href="#DejaVuSans-2c"/>
     <use transform="translate(143.803711 -16.390625)scale(0.7)" xlink:href="#DejaVuSans-30"/>
    </g>
   </g>
   <g id="text_10">
    <!-- $h_{1,1}$ -->
    <g transform="translate(131.929412 104.568462)scale(0.1 -0.1)">
     <use transform="translate(0 0.015625)" xlink:href="#DejaVuSans-Oblique-68"/>
     <use transform="translate(63.378906 -16.390625)scale(0.7)" xlink:href="#DejaVuSans-31"/>
     <use transform="translate(107.915039 -16.390625)scale(0.7)" xlink:href="#DejaVuSans-2c"/>
     <use transform="translate(143.803711 -16.390625)scale(0.7)" xlink:href="#DejaVuSans-31"/>
    </g>
   </g>
   <g id="text_11">
    <!-- $h_{1,2}$ -->
    <g transform="translate(131.929412 147.076154)scale(0.1 -0.1)">
     <use transform="translate(0 0.015625)" xlink:href="#DejaVuSans-Oblique-68"/>
     <use transform="translate(63.378906 -16.390625)scale(0.7)" xlink:href="#DejaVuSans-31"/>
     <use transform="translate(107.915039 -16.390625)scale(0.7)" xlink:href="#DejaVuSans-2c"/>
     <use transform="translate(143.803711 -16.390625)scale(0.7)" xlink:href="#DejaVuSans-32"/>
    </g>
   </g>
   <g id="text_12">
    <!-- $h_{2,0}$ -->
    <g transform="translate(188.541176 62.060769)scale(0.1 -0.1)">
     <use transform="translate(0 0.015625)" xlink:href="#DejaVuSans-Oblique-68"/>
     <use transform="translate(63.378906 -16.390625)scale(0.7)" xlink:href="#DejaVuSans-32"/>
     <use transform="translate(107.915039 -16.390625)scale(0.7)" xlink:href="#DejaVuSans-2c"/>
     <use transform="translate(143.803711 -16.390625)scale(0.7)" xlink:href="#DejaVuSans-30"/>
    </g>
   </g>
   <g id="text_13">
    <!-- $h_{2,1}$ -->
    <g transform="translate(188.541176 104.568462)scale(0.1 -0.1)">
     <use transform="translate(0 0.015625)" xlink:href="#DejaVuSans-Oblique-68"/>
     <use transform="translate(63.378906 -16.390625)scale(0.7)" xlink:href="#DejaVuSans-32"/>
     <use transform="translate(107.915039 -16.390625)scale(0.7)" xlink:href="#DejaVuSans-2c"/>
     <use transform="translate(143.803711 -16.390625)scale(0.7)" xlink:href="#DejaVuSans-31"/>
    </g>
   </g>
   <g id="text_14">
    <!-- $h_{2,2}$ -->
    <g transform="translate(188.541176 147.076154)scale(0.1 -0.1)">
     <use transform="translate(0 0.015625)" xlink:href="#DejaVuSans-Oblique-68"/>
     <use transform="translate(63.378906 -16.390625)scale(0.7)" xlink:href="#DejaVuSans-32"/>
     <use transform="translate(107.915039 -16.390625)scale(0.7)" xlink:href="#DejaVuSans-2c"/>
     <use transform="translate(143.803711 -16.390625)scale(0.7)" xlink:href="#DejaVuSans-32"/>
    </g>
   </g>
   <g id="text_15">
    <!-- 1 -->
    <g transform="translate(251.571691 19.762452)scale(0.1 -0.1)">
     <use xlink:href="#DejaVuSans-31"/>
    </g>
   </g>
   <g id="text_16">
    <!-- 0 -->
    <g transform="translate(251.571691 62.270144)scale(0.1 -0.1)">
     <use xlink:href="#DejaVuSans-30"/>
    </g>
   </g>
   <g id="text_17">
    <!-- 0 -->
    <g transform="translate(251.571691 104.777837)scale(0.1 -0.1)">
     <use xlink:href="#DejaVuSans-30"/>
    </g>
   </g>
   <g id="text_18">
    <!-- 0 -->
    <g transform="translate(251.571691 147.285529)scale(0.1 -0.1)">
     <use xlink:href="#DejaVuSans-30"/>
    </g>
   </g>
   <g id="text_19">
    <!-- 0 -->
    <g transform="translate(251.571691 189.793221)scale(0.1 -0.1)">
     <use xlink:href="#DejaVuSans-30"/>
    </g>
   </g>
   <g id="text_20">
    <!-- a -->
    <defs>
     <path d="M 32.90625 24.609375 
Q 27.4375 24.609375 24.671875 22.75 
Q 21.921875 20.90625 21.921875 17.28125 
Q 21.921875 13.96875 24.140625 12.078125 
Q 26.375 10.203125 30.328125 10.203125 
Q 35.25 10.203125 38.625 13.734375 
Q 42 17.28125 42 22.609375 
L 42 24.609375 
z
M 59.625 31.203125 
L 59.625 0 
L 42 0 
L 42 8.109375 
Q 38.484375 3.125 34.078125 0.84375 
Q 29.6875 -1.421875 23.390625 -1.421875 
Q 14.890625 -1.421875 9.59375 3.53125 
Q 4.296875 8.5 4.296875 16.40625 
Q 4.296875 26.03125 10.90625 30.515625 
Q 17.53125 35.015625 31.6875 35.015625 
L 42 35.015625 
L 42 36.375 
Q 42 40.53125 38.71875 42.453125 
Q 35.453125 44.390625 28.515625 44.390625 
Q 22.90625 44.390625 18.0625 43.265625 
Q 13.234375 42.140625 9.078125 39.890625 
L 9.078125 53.21875 
Q 14.703125 54.59375 20.359375 55.296875 
Q 26.03125 56 31.6875 56 
Q 46.484375 56 53.046875 50.171875 
Q 59.625 44.34375 59.625 31.203125 
z
" id="DejaVuSans-Bold-61"/>
    </defs>
    <g style="fill:#0000ff;" transform="translate(2.286958 19.762452)scale(0.1 -0.1)">
     <use xlink:href="#DejaVuSans-Bold-61"/>
    </g>
   </g>
   <g id="text_21">
    <!-- b -->
    <defs>
     <path d="M 37.5 11.28125 
Q 43.109375 11.28125 46.0625 15.375 
Q 49.03125 19.484375 49.03125 27.296875 
Q 49.03125 35.109375 46.0625 39.203125 
Q 43.109375 43.3125 37.5 43.3125 
Q 31.890625 43.3125 28.875 39.1875 
Q 25.875 35.0625 25.875 27.296875 
Q 25.875 19.53125 28.875 15.40625 
Q 31.890625 11.28125 37.5 11.28125 
z
M 25.875 46.6875 
Q 29.5 51.46875 33.890625 53.734375 
Q 38.28125 56 44 56 
Q 54.109375 56 60.59375 47.96875 
Q 67.09375 39.9375 67.09375 27.296875 
Q 67.09375 14.65625 60.59375 6.609375 
Q 54.109375 -1.421875 44 -1.421875 
Q 38.28125 -1.421875 33.890625 0.84375 
Q 29.5 3.125 25.875 7.90625 
L 25.875 0 
L 8.40625 0 
L 8.40625 75.984375 
L 25.875 75.984375 
z
" id="DejaVuSans-Bold-62"/>
    </defs>
    <g style="fill:#ff0000;" transform="translate(2.08227 62.270144)scale(0.1 -0.1)">
     <use xlink:href="#DejaVuSans-Bold-62"/>
    </g>
   </g>
   <g id="text_22">
    <!-- c -->
    <defs>
     <path d="M 52.59375 52.984375 
L 52.59375 38.71875 
Q 49.03125 41.15625 45.4375 42.328125 
Q 41.84375 43.5 37.984375 43.5 
Q 30.671875 43.5 26.59375 39.234375 
Q 22.515625 34.96875 22.515625 27.296875 
Q 22.515625 19.625 26.59375 15.34375 
Q 30.671875 11.078125 37.984375 11.078125 
Q 42.09375 11.078125 45.78125 12.296875 
Q 49.46875 13.53125 52.59375 15.921875 
L 52.59375 1.609375 
Q 48.484375 0.09375 44.265625 -0.65625 
Q 40.046875 -1.421875 35.796875 -1.421875 
Q 21 -1.421875 12.640625 6.171875 
Q 4.296875 13.765625 4.296875 27.296875 
Q 4.296875 40.828125 12.640625 48.40625 
Q 21 56 35.796875 56 
Q 40.09375 56 44.265625 55.25 
Q 48.4375 54.5 52.59375 52.984375 
z
" id="DejaVuSans-Bold-63"/>
    </defs>
    <g style="fill:#0000ff;" transform="translate(2.697114 104.777837)scale(0.1 -0.1)">
     <use xlink:href="#DejaVuSans-Bold-63"/>
    </g>
   </g>
   <g id="text_23">
    <!-- d -->
    <defs>
     <path d="M 45.609375 46.6875 
L 45.609375 75.984375 
L 63.1875 75.984375 
L 63.1875 0 
L 45.609375 0 
L 45.609375 7.90625 
Q 42 3.078125 37.640625 0.828125 
Q 33.296875 -1.421875 27.59375 -1.421875 
Q 17.484375 -1.421875 10.984375 6.609375 
Q 4.5 14.65625 4.5 27.296875 
Q 4.5 39.9375 10.984375 47.96875 
Q 17.484375 56 27.59375 56 
Q 33.25 56 37.625 53.734375 
Q 42 51.46875 45.609375 46.6875 
z
M 34.078125 11.28125 
Q 39.703125 11.28125 42.65625 15.375 
Q 45.609375 19.484375 45.609375 27.296875 
Q 45.609375 35.109375 42.65625 39.203125 
Q 39.703125 43.3125 34.078125 43.3125 
Q 28.515625 43.3125 25.5625 39.203125 
Q 22.609375 35.109375 22.609375 27.296875 
Q 22.609375 19.484375 25.5625 15.375 
Q 28.515625 11.28125 34.078125 11.28125 
z
" id="DejaVuSans-Bold-64"/>
    </defs>
    <g style="fill:#0000ff;" transform="translate(2.08227 147.285529)scale(0.1 -0.1)">
     <use xlink:href="#DejaVuSans-Bold-64"/>
    </g>
   </g>
   <g id="text_24">
    <!-- e -->
    <defs>
     <path d="M 62.984375 27.484375 
L 62.984375 22.515625 
L 22.125 22.515625 
Q 22.75 16.359375 26.5625 13.28125 
Q 30.375 10.203125 37.203125 10.203125 
Q 42.71875 10.203125 48.5 11.84375 
Q 54.296875 13.484375 60.40625 16.796875 
L 60.40625 3.328125 
Q 54.203125 0.984375 48 -0.21875 
Q 41.796875 -1.421875 35.59375 -1.421875 
Q 20.75 -1.421875 12.515625 6.125 
Q 4.296875 13.671875 4.296875 27.296875 
Q 4.296875 40.671875 12.375 48.328125 
Q 20.453125 56 34.625 56 
Q 47.515625 56 55.25 48.234375 
Q 62.984375 40.484375 62.984375 27.484375 
z
M 45.015625 33.296875 
Q 45.015625 38.28125 42.109375 41.328125 
Q 39.203125 44.390625 34.515625 44.390625 
Q 29.4375 44.390625 26.265625 41.53125 
Q 23.09375 38.671875 22.3125 33.296875 
z
" id="DejaVuSans-Bold-65"/>
    </defs>
    <g style="fill:#0000ff;" transform="translate(2.26977 189.793221)scale(0.1 -0.1)">
     <use xlink:href="#DejaVuSans-Bold-65"/>
    </g>
   </g>
   <g id="text_25">
    <!-- a -->
    <g style="fill:#ff0000;" transform="translate(274.023428 19.762452)scale(0.1 -0.1)">
     <use xlink:href="#DejaVuSans-Bold-61"/>
    </g>
   </g>
   <g id="text_26">
    <!-- b -->
    <g style="fill:#0000ff;" transform="translate(273.818741 62.270144)scale(0.1 -0.1)">
     <use xlink:href="#DejaVuSans-Bold-62"/>
    </g>
   </g>
   <g id="text_27">
    <!-- c -->
    <g style="fill:#0000ff;" transform="translate(274.433585 104.777837)scale(0.1 -0.1)">
     <use xlink:href="#DejaVuSans-Bold-63"/>
    </g>
   </g>
   <g id="text_28">
    <!-- d -->
    <g style="fill:#0000ff;" transform="translate(273.818741 147.285529)scale(0.1 -0.1)">
     <use xlink:href="#DejaVuSans-Bold-64"/>
    </g>
   </g>
   <g id="text_29">
    <!-- e -->
    <g style="fill:#0000ff;" transform="translate(274.006241 189.793221)scale(0.1 -0.1)">
     <use xlink:href="#DejaVuSans-Bold-65"/>
    </g>
   </g>
   <g id="text_30">
    <!-- ...etc. -->
    <defs>
     <path d="M 10.203125 18.890625 
L 27.78125 18.890625 
L 27.78125 0 
L 10.203125 0 
z
" id="DejaVuSans-Bold-2e"/>
     <path d="M 27.484375 70.21875 
L 27.484375 54.6875 
L 45.515625 54.6875 
L 45.515625 42.1875 
L 27.484375 42.1875 
L 27.484375 19 
Q 27.484375 15.1875 29 13.84375 
Q 30.515625 12.5 35.015625 12.5 
L 44 12.5 
L 44 0 
L 29 0 
Q 18.65625 0 14.328125 4.3125 
Q 10.015625 8.640625 10.015625 19 
L 10.015625 42.1875 
L 1.3125 42.1875 
L 1.3125 54.6875 
L 10.015625 54.6875 
L 10.015625 70.21875 
z
" id="DejaVuSans-Bold-74"/>
    </defs>
    <g transform="translate(14.69284 217.670867)scale(0.0833 -0.0833)">
     <use xlink:href="#DejaVuSans-Bold-2e"/>
     <use x="37.988281" xlink:href="#DejaVuSans-Bold-2e"/>
     <use x="75.976562" xlink:href="#DejaVuSans-Bold-2e"/>
     <use x="113.964844" xlink:href="#DejaVuSans-Bold-65"/>
     <use x="181.787109" xlink:href="#DejaVuSans-Bold-74"/>
     <use x="229.589844" xlink:href="#DejaVuSans-Bold-63"/>
     <use x="288.867188" xlink:href="#DejaVuSans-Bold-2e"/>
    </g>
   </g>
   <g id="text_31">
    <!-- ...etc. -->
    <g transform="translate(241.139899 217.670867)scale(0.0833 -0.0833)">
     <use xlink:href="#DejaVuSans-Bold-2e"/>
     <use x="37.988281" xlink:href="#DejaVuSans-Bold-2e"/>
     <use x="75.976562" xlink:href="#DejaVuSans-Bold-2e"/>
     <use x="113.964844" xlink:href="#DejaVuSans-Bold-65"/>
     <use x="181.787109" xlink:href="#DejaVuSans-Bold-74"/>
     <use x="229.589844" xlink:href="#DejaVuSans-Bold-63"/>
     <use x="288.867188" xlink:href="#DejaVuSans-Bold-2e"/>
    </g>
   </g>
  </g>
 </g>
 <defs>
  <clipPath id="p438f612e82">
   <rect height="221.04" width="288.72" x="0" y="0"/>
  </clipPath>
 </defs>
</svg>
