<?xml version="1.0" encoding="UTF-8"?>
<svg width="1330px" height="696px" viewBox="0 0 1330 696" version="1.1" xmlns="http://www.w3.org/2000/svg" xmlns:xlink="http://www.w3.org/1999/xlink">
    <!-- Generator: Sketch 47 (45396) - http://www.bohemiancoding.com/sketch -->
    <title>Group</title>
    <desc>Created with Sketch.</desc>
    <defs></defs>
    <g id="Page-1" stroke="none" stroke-width="1" fill="none" fill-rule="evenodd">
        <g id="Group" transform="translate(4.000000, 1.000000)">
            <polygon id="path22" stroke="#000000" stroke-width="0.9962625" fill="#FFF880" fill-rule="nonzero" transform="translate(186.716744, 317.716745) scale(-1, 1) rotate(-180.000000) translate(-186.716744, -317.716745) " points="169 300.000001 204.433488 300.000001 204.433488 335.433488 169 335.433488"></polygon>
            <polygon id="path22" stroke="#000000" stroke-width="0.9962625" fill="#FFF880" fill-rule="nonzero" transform="translate(317.716744, 127.716744) scale(-1, 1) rotate(-180.000000) translate(-317.716744, -127.716744) " points="300 110.000001 335.433488 110.000001 335.433488 145.433488 300 145.433488"></polygon>
            <polygon id="path22" stroke="#000000" stroke-width="0.9962625" fill="#FFF880" fill-rule="nonzero" transform="translate(317.716744, 174.716744) scale(-1, 1) rotate(-180.000000) translate(-317.716744, -174.716744) " points="300 157.000001 335.433488 157.000001 335.433488 192.433488 300 192.433488"></polygon>
            <polygon id="path22" stroke="#000000" stroke-width="0.9962625" fill="#FFF880" fill-rule="nonzero" transform="translate(317.716744, 222.716744) scale(-1, 1) rotate(-180.000000) translate(-317.716744, -222.716744) " points="300 205.000001 335.433488 205.000001 335.433488 240.433488 300 240.433488"></polygon>
            <polygon id="path22" stroke="#000000" stroke-width="0.9962625" fill="#FFF880" fill-rule="nonzero" transform="translate(317.716744, 269.716745) scale(-1, 1) rotate(-180.000000) translate(-317.716744, -269.716745) " points="300 252.000001 335.433488 252.000001 335.433488 287.433488 300 287.433488"></polygon>
            <polygon id="path22" stroke="#000000" stroke-width="0.9962625" fill="#FFF880" fill-rule="nonzero" transform="translate(317.716744, 316.716745) scale(-1, 1) rotate(-180.000000) translate(-317.716744, -316.716745) " points="300 299.000001 335.433488 299.000001 335.433488 334.433488 300 334.433488"></polygon>
            <polygon id="path22" stroke="#000000" stroke-width="0.9962625" fill="#FFF880" fill-rule="nonzero" transform="translate(317.716744, 363.716745) scale(-1, 1) rotate(-180.000000) translate(-317.716744, -363.716745) " points="300 346.000001 335.433488 346.000001 335.433488 381.433488 300 381.433488"></polygon>
            <polygon id="path22" stroke="#000000" stroke-width="0.9962625" fill="#FFF880" fill-rule="nonzero" transform="translate(317.716744, 411.716745) scale(-1, 1) rotate(-180.000000) translate(-317.716744, -411.716745) " points="300 394.000001 335.433488 394.000001 335.433488 429.433488 300 429.433488"></polygon>
            <polygon id="path22" stroke="#000000" stroke-width="0.9962625" fill="#FFF880" fill-rule="nonzero" transform="translate(317.716744, 458.716745) scale(-1, 1) rotate(-180.000000) translate(-317.716744, -458.716745) " points="300 441.000001 335.433488 441.000001 335.433488 476.433488 300 476.433488"></polygon>
            <polygon id="path22" stroke="#000000" stroke-width="0.9962625" fill="#FFF880" fill-rule="nonzero" transform="translate(317.716744, 506.716745) scale(-1, 1) rotate(-180.000000) translate(-317.716744, -506.716745) " points="300 489.000001 335.433488 489.000001 335.433488 524.433488 300 524.433488"></polygon>
            <polygon id="path22" stroke="#000000" stroke-width="0.9962625" fill="#FFF880" fill-rule="nonzero" transform="translate(477.716744, 676.716745) scale(-1, 1) rotate(-180.000000) translate(-477.716744, -676.716745) " points="460 659.000001 495.433488 659.000001 495.433488 694.433488 460 694.433488"></polygon>
            <polygon id="path22" stroke="#000000" stroke-width="0.9962625" fill="#FFF880" fill-rule="nonzero" transform="translate(789.716744, 676.716745) scale(-1, 1) rotate(-180.000000) translate(-789.716744, -676.716745) " points="772 659.000001 807.433487 659.000001 807.433487 694.433488 772 694.433488"></polygon>
            <polygon id="path22" stroke="#000000" stroke-width="0.9962625" fill="#FFF880" fill-rule="nonzero" transform="translate(633.716744, 676.716745) scale(-1, 1) rotate(-180.000000) translate(-633.716744, -676.716745) " points="616 659.000001 651.433487 659.000001 651.433487 694.433488 616 694.433488"></polygon>
            <polygon id="path22" stroke="#000000" stroke-width="0.9962625" fill="#9013FE" fill-rule="nonzero" transform="translate(1082.716743, 316.716745) rotate(-180.000000) translate(-1082.716743, -316.716745) " points="1065 299.000001 1100.43349 299.000001 1100.43349 334.433488 1065 334.433488"></polygon>
            <path d="M495.4335,30.71675 C495.4335,40.5015625 487.501562,48.4335 477.71675,48.4335 C467.931938,48.4335 460,40.5015625 460,30.71675 C460,20.931925 467.931938,13 477.71675,13 C487.501562,13 495.4335,20.931925 495.4335,30.71675 L495.4335,30.71675 Z" id="path386" stroke="#000000" stroke-width="0.9962625" fill="#8080FF" fill-rule="nonzero" transform="translate(477.716750, 30.716750) scale(-1, 1) rotate(-180.000000) translate(-477.716750, -30.716750) "></path>
            <rect id="path-1" fill="#7ED321" x="448" y="573" width="60" height="49"></rect>
            <rect id="Rectangle-path" stroke="#000000" x="448.5" y="573.5" width="59" height="48"></rect>
            <path d="M495.4335,76.71675 C495.4335,86.5015625 487.501562,94.4335 477.71675,94.4335 C467.931938,94.4335 460,86.5015625 460,76.71675 C460,66.931925 467.931938,59 477.71675,59 C487.501562,59 495.4335,66.931925 495.4335,76.71675 L495.4335,76.71675 Z" id="path386" stroke="#000000" stroke-width="0.9962625" fill="#8080FF" fill-rule="nonzero" transform="translate(477.716750, 76.716750) scale(-1, 1) rotate(-180.000000) translate(-477.716750, -76.716750) "></path>
            <path d="M495.4335,122.71675 C495.4335,132.501563 487.501562,140.4335 477.71675,140.4335 C467.931938,140.4335 460,132.501563 460,122.71675 C460,112.931925 467.931938,105 477.71675,105 C487.501562,105 495.4335,112.931925 495.4335,122.71675 L495.4335,122.71675 Z" id="path386" stroke="#000000" stroke-width="0.9962625" fill="#8080FF" fill-rule="nonzero" transform="translate(477.716750, 122.716750) scale(-1, 1) rotate(-180.000000) translate(-477.716750, -122.716750) "></path>
            <path d="M495.4335,168.71675 C495.4335,178.501563 487.501562,186.4335 477.71675,186.4335 C467.931938,186.4335 460,178.501563 460,168.71675 C460,158.931925 467.931938,151 477.71675,151 C487.501562,151 495.4335,158.931925 495.4335,168.71675 L495.4335,168.71675 Z" id="path386" stroke="#000000" stroke-width="0.9962625" fill="#8080FF" fill-rule="nonzero" transform="translate(477.716750, 168.716750) scale(-1, 1) rotate(-180.000000) translate(-477.716750, -168.716750) "></path>
            <path d="M495.4335,214.71675 C495.4335,224.501563 487.501562,232.4335 477.71675,232.4335 C467.931938,232.4335 460,224.501563 460,214.71675 C460,204.931925 467.931938,197 477.71675,197 C487.501562,197 495.4335,204.931925 495.4335,214.71675 L495.4335,214.71675 Z" id="path386" stroke="#000000" stroke-width="0.9962625" fill="#8080FF" fill-rule="nonzero" transform="translate(477.716750, 214.716750) scale(-1, 1) rotate(-180.000000) translate(-477.716750, -214.716750) "></path>
            <path d="M495.4335,260.71675 C495.4335,270.501563 487.501562,278.4335 477.71675,278.4335 C467.931938,278.4335 460,270.501563 460,260.71675 C460,250.931925 467.931938,243 477.71675,243 C487.501562,243 495.4335,250.931925 495.4335,260.71675 L495.4335,260.71675 Z" id="path386" stroke="#000000" stroke-width="0.9962625" fill="#8080FF" fill-rule="nonzero" transform="translate(477.716750, 260.716750) scale(-1, 1) rotate(-180.000000) translate(-477.716750, -260.716750) "></path>
            <path d="M495.4335,306.71675 C495.4335,316.501563 487.501562,324.4335 477.71675,324.4335 C467.931938,324.4335 460,316.501563 460,306.71675 C460,296.931925 467.931938,289 477.71675,289 C487.501562,289 495.4335,296.931925 495.4335,306.71675 L495.4335,306.71675 Z" id="path386" stroke="#000000" stroke-width="0.9962625" fill="#8080FF" fill-rule="nonzero" transform="translate(477.716750, 306.716750) scale(-1, 1) rotate(-180.000000) translate(-477.716750, -306.716750) "></path>
            <path d="M495.4335,352.71675 C495.4335,362.501563 487.501562,370.4335 477.71675,370.4335 C467.931938,370.4335 460,362.501563 460,352.71675 C460,342.931925 467.931938,335 477.71675,335 C487.501562,335 495.4335,342.931925 495.4335,352.71675 L495.4335,352.71675 Z" id="path386" stroke="#000000" stroke-width="0.9962625" fill="#8080FF" fill-rule="nonzero" transform="translate(477.716750, 352.716750) scale(-1, 1) rotate(-180.000000) translate(-477.716750, -352.716750) "></path>
            <path d="M495.4335,401.71675 C495.4335,411.501563 487.501562,419.4335 477.71675,419.4335 C467.931938,419.4335 460,411.501563 460,401.71675 C460,391.931925 467.931938,384 477.71675,384 C487.501562,384 495.4335,391.931925 495.4335,401.71675 L495.4335,401.71675 Z" id="path386" stroke="#000000" stroke-width="0.9962625" fill="#8080FF" fill-rule="nonzero" transform="translate(477.716750, 401.716750) scale(-1, 1) rotate(-180.000000) translate(-477.716750, -401.716750) "></path>
            <path d="M495.4335,447.71675 C495.4335,457.501563 487.501562,465.4335 477.71675,465.4335 C467.931938,465.4335 460,457.501563 460,447.71675 C460,437.931925 467.931938,430 477.71675,430 C487.501562,430 495.4335,437.931925 495.4335,447.71675 L495.4335,447.71675 Z" id="path386" stroke="#000000" stroke-width="0.9962625" fill="#8080FF" fill-rule="nonzero" transform="translate(477.716750, 447.716750) scale(-1, 1) rotate(-180.000000) translate(-477.716750, -447.716750) "></path>
            <path d="M495.4335,493.71675 C495.4335,503.501563 487.501562,511.4335 477.71675,511.4335 C467.931938,511.4335 460,503.501563 460,493.71675 C460,483.931925 467.931938,476 477.71675,476 C487.501562,476 495.4335,483.931925 495.4335,493.71675 L495.4335,493.71675 Z" id="path386" stroke="#000000" stroke-width="0.9962625" fill="#8080FF" fill-rule="nonzero" transform="translate(477.716750, 493.716750) scale(-1, 1) rotate(-180.000000) translate(-477.716750, -493.716750) "></path>
            <path d="M495.4335,539.71675 C495.4335,549.501563 487.501562,557.4335 477.71675,557.4335 C467.931938,557.4335 460,549.501563 460,539.71675 C460,529.931925 467.931938,522 477.71675,522 C487.501562,522 495.4335,529.931925 495.4335,539.71675 L495.4335,539.71675 Z" id="path386" stroke="#000000" stroke-width="0.9962625" fill="#8080FF" fill-rule="nonzero" transform="translate(477.716750, 539.716750) scale(-1, 1) rotate(-180.000000) translate(-477.716750, -539.716750) "></path>
            <path d="M651.4335,30.71675 C651.4335,40.5015625 643.501562,48.4335 633.71675,48.4335 C623.931938,48.4335 616,40.5015625 616,30.71675 C616,20.931925 623.931938,13 633.71675,13 C643.501562,13 651.4335,20.931925 651.4335,30.71675 L651.4335,30.71675 Z" id="path386" stroke="#000000" stroke-width="0.9962625" fill="#8080FF" fill-rule="nonzero" transform="translate(633.716750, 30.716750) scale(-1, 1) rotate(-180.000000) translate(-633.716750, -30.716750) "></path>
            <rect id="path-2" fill="#7ED321" x="604" y="573" width="60" height="49"></rect>
            <rect id="Rectangle-path" stroke="#000000" x="604.5" y="573.5" width="59" height="48"></rect>
            <path d="M651.4335,76.71675 C651.4335,86.5015625 643.501562,94.4335 633.71675,94.4335 C623.931938,94.4335 616,86.5015625 616,76.71675 C616,66.931925 623.931938,59 633.71675,59 C643.501562,59 651.4335,66.931925 651.4335,76.71675 L651.4335,76.71675 Z" id="path386" stroke="#000000" stroke-width="0.9962625" fill="#8080FF" fill-rule="nonzero" transform="translate(633.716750, 76.716750) scale(-1, 1) rotate(-180.000000) translate(-633.716750, -76.716750) "></path>
            <path d="M651.4335,122.71675 C651.4335,132.501563 643.501562,140.4335 633.71675,140.4335 C623.931938,140.4335 616,132.501563 616,122.71675 C616,112.931925 623.931938,105 633.71675,105 C643.501562,105 651.4335,112.931925 651.4335,122.71675 L651.4335,122.71675 Z" id="path386" stroke="#000000" stroke-width="0.9962625" fill="#8080FF" fill-rule="nonzero" transform="translate(633.716750, 122.716750) scale(-1, 1) rotate(-180.000000) translate(-633.716750, -122.716750) "></path>
            <path d="M651.4335,168.71675 C651.4335,178.501563 643.501562,186.4335 633.71675,186.4335 C623.931938,186.4335 616,178.501563 616,168.71675 C616,158.931925 623.931938,151 633.71675,151 C643.501562,151 651.4335,158.931925 651.4335,168.71675 L651.4335,168.71675 Z" id="path386" stroke="#000000" stroke-width="0.9962625" fill="#8080FF" fill-rule="nonzero" transform="translate(633.716750, 168.716750) scale(-1, 1) rotate(-180.000000) translate(-633.716750, -168.716750) "></path>
            <path d="M651.4335,214.71675 C651.4335,224.501563 643.501562,232.4335 633.71675,232.4335 C623.931938,232.4335 616,224.501563 616,214.71675 C616,204.931925 623.931938,197 633.71675,197 C643.501562,197 651.4335,204.931925 651.4335,214.71675 L651.4335,214.71675 Z" id="path386" stroke="#000000" stroke-width="0.9962625" fill="#8080FF" fill-rule="nonzero" transform="translate(633.716750, 214.716750) scale(-1, 1) rotate(-180.000000) translate(-633.716750, -214.716750) "></path>
            <path d="M651.4335,260.71675 C651.4335,270.501563 643.501562,278.4335 633.71675,278.4335 C623.931938,278.4335 616,270.501563 616,260.71675 C616,250.931925 623.931938,243 633.71675,243 C643.501562,243 651.4335,250.931925 651.4335,260.71675 L651.4335,260.71675 Z" id="path386" stroke="#000000" stroke-width="0.9962625" fill="#8080FF" fill-rule="nonzero" transform="translate(633.716750, 260.716750) scale(-1, 1) rotate(-180.000000) translate(-633.716750, -260.716750) "></path>
            <path d="M651.4335,306.71675 C651.4335,316.501563 643.501562,324.4335 633.71675,324.4335 C623.931938,324.4335 616,316.501563 616,306.71675 C616,296.931925 623.931938,289 633.71675,289 C643.501562,289 651.4335,296.931925 651.4335,306.71675 L651.4335,306.71675 Z" id="path386" stroke="#000000" stroke-width="0.9962625" fill="#8080FF" fill-rule="nonzero" transform="translate(633.716750, 306.716750) scale(-1, 1) rotate(-180.000000) translate(-633.716750, -306.716750) "></path>
            <path d="M651.4335,352.71675 C651.4335,362.501563 643.501562,370.4335 633.71675,370.4335 C623.931938,370.4335 616,362.501563 616,352.71675 C616,342.931925 623.931938,335 633.71675,335 C643.501562,335 651.4335,342.931925 651.4335,352.71675 L651.4335,352.71675 Z" id="path386" stroke="#000000" stroke-width="0.9962625" fill="#8080FF" fill-rule="nonzero" transform="translate(633.716750, 352.716750) scale(-1, 1) rotate(-180.000000) translate(-633.716750, -352.716750) "></path>
            <path d="M651.4335,401.71675 C651.4335,411.501563 643.501562,419.4335 633.71675,419.4335 C623.931938,419.4335 616,411.501563 616,401.71675 C616,391.931925 623.931938,384 633.71675,384 C643.501562,384 651.4335,391.931925 651.4335,401.71675 L651.4335,401.71675 Z" id="path386" stroke="#000000" stroke-width="0.9962625" fill="#8080FF" fill-rule="nonzero" transform="translate(633.716750, 401.716750) scale(-1, 1) rotate(-180.000000) translate(-633.716750, -401.716750) "></path>
            <path d="M651.4335,447.71675 C651.4335,457.501563 643.501562,465.4335 633.71675,465.4335 C623.931938,465.4335 616,457.501563 616,447.71675 C616,437.931925 623.931938,430 633.71675,430 C643.501562,430 651.4335,437.931925 651.4335,447.71675 L651.4335,447.71675 Z" id="path386" stroke="#000000" stroke-width="0.9962625" fill="#8080FF" fill-rule="nonzero" transform="translate(633.716750, 447.716750) scale(-1, 1) rotate(-180.000000) translate(-633.716750, -447.716750) "></path>
            <path d="M651.4335,493.71675 C651.4335,503.501563 643.501562,511.4335 633.71675,511.4335 C623.931938,511.4335 616,503.501563 616,493.71675 C616,483.931925 623.931938,476 633.71675,476 C643.501562,476 651.4335,483.931925 651.4335,493.71675 L651.4335,493.71675 Z" id="path386" stroke="#000000" stroke-width="0.9962625" fill="#8080FF" fill-rule="nonzero" transform="translate(633.716750, 493.716750) scale(-1, 1) rotate(-180.000000) translate(-633.716750, -493.716750) "></path>
            <path d="M651.4335,539.71675 C651.4335,549.501563 643.501562,557.4335 633.71675,557.4335 C623.931938,557.4335 616,549.501563 616,539.71675 C616,529.931925 623.931938,522 633.71675,522 C643.501562,522 651.4335,529.931925 651.4335,539.71675 L651.4335,539.71675 Z" id="path386" stroke="#000000" stroke-width="0.9962625" fill="#8080FF" fill-rule="nonzero" transform="translate(633.716750, 539.716750) scale(-1, 1) rotate(-180.000000) translate(-633.716750, -539.716750) "></path>
            <path d="M807.4335,30.71675 C807.4335,40.5015625 799.501562,48.4335 789.71675,48.4335 C779.931938,48.4335 772,40.5015625 772,30.71675 C772,20.931925 779.931938,13 789.71675,13 C799.501562,13 807.4335,20.931925 807.4335,30.71675 L807.4335,30.71675 Z" id="path386" stroke="#000000" stroke-width="0.9962625" fill="#8080FF" fill-rule="nonzero" transform="translate(789.716750, 30.716750) scale(-1, 1) rotate(-180.000000) translate(-789.716750, -30.716750) "></path>
            <rect id="path-3" fill="#7ED321" x="760" y="573" width="60" height="49"></rect>
            <rect id="Rectangle-path" stroke="#000000" x="760.5" y="573.5" width="59" height="48"></rect>
            <path d="M807.4335,76.71675 C807.4335,86.5015625 799.501562,94.4335 789.71675,94.4335 C779.931938,94.4335 772,86.5015625 772,76.71675 C772,66.931925 779.931938,59 789.71675,59 C799.501562,59 807.4335,66.931925 807.4335,76.71675 L807.4335,76.71675 Z" id="path386" stroke="#000000" stroke-width="0.9962625" fill="#8080FF" fill-rule="nonzero" transform="translate(789.716750, 76.716750) scale(-1, 1) rotate(-180.000000) translate(-789.716750, -76.716750) "></path>
            <path d="M807.4335,122.71675 C807.4335,132.501563 799.501562,140.4335 789.71675,140.4335 C779.931938,140.4335 772,132.501563 772,122.71675 C772,112.931925 779.931938,105 789.71675,105 C799.501562,105 807.4335,112.931925 807.4335,122.71675 L807.4335,122.71675 Z" id="path386" stroke="#000000" stroke-width="0.9962625" fill="#8080FF" fill-rule="nonzero" transform="translate(789.716750, 122.716750) scale(-1, 1) rotate(-180.000000) translate(-789.716750, -122.716750) "></path>
            <path d="M807.4335,168.71675 C807.4335,178.501563 799.501562,186.4335 789.71675,186.4335 C779.931938,186.4335 772,178.501563 772,168.71675 C772,158.931925 779.931938,151 789.71675,151 C799.501562,151 807.4335,158.931925 807.4335,168.71675 L807.4335,168.71675 Z" id="path386" stroke="#000000" stroke-width="0.9962625" fill="#8080FF" fill-rule="nonzero" transform="translate(789.716750, 168.716750) scale(-1, 1) rotate(-180.000000) translate(-789.716750, -168.716750) "></path>
            <path d="M807.4335,214.71675 C807.4335,224.501563 799.501562,232.4335 789.71675,232.4335 C779.931938,232.4335 772,224.501563 772,214.71675 C772,204.931925 779.931938,197 789.71675,197 C799.501562,197 807.4335,204.931925 807.4335,214.71675 L807.4335,214.71675 Z" id="path386" stroke="#000000" stroke-width="0.9962625" fill="#8080FF" fill-rule="nonzero" transform="translate(789.716750, 214.716750) scale(-1, 1) rotate(-180.000000) translate(-789.716750, -214.716750) "></path>
            <path d="M807.4335,260.71675 C807.4335,270.501563 799.501562,278.4335 789.71675,278.4335 C779.931938,278.4335 772,270.501563 772,260.71675 C772,250.931925 779.931938,243 789.71675,243 C799.501562,243 807.4335,250.931925 807.4335,260.71675 L807.4335,260.71675 Z" id="path386" stroke="#000000" stroke-width="0.9962625" fill="#8080FF" fill-rule="nonzero" transform="translate(789.716750, 260.716750) scale(-1, 1) rotate(-180.000000) translate(-789.716750, -260.716750) "></path>
            <path d="M807.4335,306.71675 C807.4335,316.501563 799.501562,324.4335 789.71675,324.4335 C779.931938,324.4335 772,316.501563 772,306.71675 C772,296.931925 779.931938,289 789.71675,289 C799.501562,289 807.4335,296.931925 807.4335,306.71675 L807.4335,306.71675 Z" id="path386" stroke="#000000" stroke-width="0.9962625" fill="#8080FF" fill-rule="nonzero" transform="translate(789.716750, 306.716750) scale(-1, 1) rotate(-180.000000) translate(-789.716750, -306.716750) "></path>
            <path d="M807.4335,352.71675 C807.4335,362.501563 799.501562,370.4335 789.71675,370.4335 C779.931938,370.4335 772,362.501563 772,352.71675 C772,342.931925 779.931938,335 789.71675,335 C799.501562,335 807.4335,342.931925 807.4335,352.71675 L807.4335,352.71675 Z" id="path386" stroke="#000000" stroke-width="0.9962625" fill="#8080FF" fill-rule="nonzero" transform="translate(789.716750, 352.716750) scale(-1, 1) rotate(-180.000000) translate(-789.716750, -352.716750) "></path>
            <path d="M807.4335,401.71675 C807.4335,411.501563 799.501562,419.4335 789.71675,419.4335 C779.931938,419.4335 772,411.501563 772,401.71675 C772,391.931925 779.931938,384 789.71675,384 C799.501562,384 807.4335,391.931925 807.4335,401.71675 L807.4335,401.71675 Z" id="path386" stroke="#000000" stroke-width="0.9962625" fill="#8080FF" fill-rule="nonzero" transform="translate(789.716750, 401.716750) scale(-1, 1) rotate(-180.000000) translate(-789.716750, -401.716750) "></path>
            <path d="M807.4335,447.71675 C807.4335,457.501563 799.501562,465.4335 789.71675,465.4335 C779.931938,465.4335 772,457.501563 772,447.71675 C772,437.931925 779.931938,430 789.71675,430 C799.501562,430 807.4335,437.931925 807.4335,447.71675 L807.4335,447.71675 Z" id="path386" stroke="#000000" stroke-width="0.9962625" fill="#8080FF" fill-rule="nonzero" transform="translate(789.716750, 447.716750) scale(-1, 1) rotate(-180.000000) translate(-789.716750, -447.716750) "></path>
            <path d="M807.4335,493.71675 C807.4335,503.501563 799.501562,511.4335 789.71675,511.4335 C779.931938,511.4335 772,503.501563 772,493.71675 C772,483.931925 779.931938,476 789.71675,476 C799.501562,476 807.4335,483.931925 807.4335,493.71675 L807.4335,493.71675 Z" id="path386" stroke="#000000" stroke-width="0.9962625" fill="#8080FF" fill-rule="nonzero" transform="translate(789.716750, 493.716750) scale(-1, 1) rotate(-180.000000) translate(-789.716750, -493.716750) "></path>
            <path d="M807.4335,539.71675 C807.4335,549.501563 799.501562,557.4335 789.71675,557.4335 C779.931938,557.4335 772,549.501563 772,539.71675 C772,529.931925 779.931938,522 789.71675,522 C799.501562,522 807.4335,529.931925 807.4335,539.71675 L807.4335,539.71675 Z" id="path386" stroke="#000000" stroke-width="0.9962625" fill="#8080FF" fill-rule="nonzero" transform="translate(789.716750, 539.716750) scale(-1, 1) rotate(-180.000000) translate(-789.716750, -539.716750) "></path>
            <path d="M206.5,317.5 L300.5,126.5" id="Line" stroke="#000000" stroke-width="1.5" stroke-linecap="square"></path>
            <path d="M205.5,318.5 L299.5,173.5" id="Line-2" stroke="#000000" stroke-width="1.5" stroke-linecap="square"></path>
            <path d="M205.5,317.5 L299.5,222.5" id="Line-3" stroke="#000000" stroke-width="1.5" stroke-linecap="square"></path>
            <path d="M205.5,317.5 L300.5,269.5" id="Line-4" stroke="#000000" stroke-width="1.5" stroke-linecap="square"></path>
            <path d="M205.5,317.5 L298.5,317.5" id="Line-5" stroke="#000000" stroke-width="1.5" stroke-linecap="square"></path>
            <path d="M205.5,318.5 L299.5,364.5" id="Line-6" stroke="#000000" stroke-width="1.5" stroke-linecap="square"></path>
            <path d="M204.5,317.5 L299.5,413.5" id="Line-7" stroke="#000000" stroke-width="1.5" stroke-linecap="square"></path>
            <path d="M204.5,318.5 L299.5,461.5" id="Line-8" stroke="#000000" stroke-width="1.5" stroke-linecap="square"></path>
            <path d="M839.5,317.5 L933.5,126.5" id="Line" stroke="#000000" stroke-width="1.5" stroke-linecap="square"></path>
            <path d="M204.5,317.5 L299.5,508.5" id="Line-9" stroke="#000000" stroke-width="1.5" stroke-linecap="square"></path>
            <path d="M838.5,318.5 L932.5,173.5" id="Line-2" stroke="#000000" stroke-width="1.5" stroke-linecap="square"></path>
            <path d="M838.5,317.5 L932.5,222.5" id="Line-3" stroke="#000000" stroke-width="1.5" stroke-linecap="square"></path>
            <path d="M838.5,317.5 L933.5,269.5" id="Line-4" stroke="#000000" stroke-width="1.5" stroke-linecap="square"></path>
            <path d="M838.5,317.5 L931.5,317.5" id="Line-5" stroke="#000000" stroke-width="1.5" stroke-linecap="square"></path>
            <path d="M838.5,318.5 L932.5,364.5" id="Line-6" stroke="#000000" stroke-width="1.5" stroke-linecap="square"></path>
            <path d="M837.5,317.5 L932.5,413.5" id="Line-7" stroke="#000000" stroke-width="1.5" stroke-linecap="square"></path>
            <path d="M837.5,318.5 L932.5,461.5" id="Line-8" stroke="#000000" stroke-width="1.5" stroke-linecap="square"></path>
            <path d="M837.5,317.5 L933.5,508.5" id="Line-9" stroke="#000000" stroke-width="1.5" stroke-linecap="square"></path>
            <path d="M967.5,317.5 L1061.5,126.5" id="Line" stroke="#000000" stroke-width="1.5" stroke-linecap="square" transform="translate(1014.500000, 222.000000) scale(-1, 1) translate(-1014.500000, -222.000000) "></path>
            <path d="M968.5,318.5 L1062.5,173.5" id="Line-2" stroke="#000000" stroke-width="1.5" stroke-linecap="square" transform="translate(1015.500000, 246.000000) scale(-1, 1) translate(-1015.500000, -246.000000) "></path>
            <path d="M968.5,317.5 L1062.5,222.5" id="Line-3" stroke="#000000" stroke-width="1.5" stroke-linecap="square" transform="translate(1015.500000, 270.000000) scale(-1, 1) translate(-1015.500000, -270.000000) "></path>
            <path d="M967.5,317.5 L1062.5,269.5" id="Line-4" stroke="#000000" stroke-width="1.5" stroke-linecap="square" transform="translate(1015.000000, 293.500000) scale(-1, 1) translate(-1015.000000, -293.500000) "></path>
            <path d="M969.5,317 L1062.5,317" id="Line-5" stroke="#000000" stroke-width="1.5" stroke-linecap="square" transform="translate(1016.000000, 317.750000) scale(-1, 1) translate(-1016.000000, -317.750000) "></path>
            <path d="M1101.5,316 L1138.5,316" id="Line-5" stroke="#000000" stroke-width="1.5" stroke-linecap="square" transform="translate(1120.000000, 316.750000) scale(-1, 1) translate(-1120.000000, -316.750000) "></path>
            <path d="M968.5,318.5 L1062.5,364.5" id="Line-6" stroke="#000000" stroke-width="1.5" stroke-linecap="square" transform="translate(1015.500000, 341.500000) scale(-1, 1) translate(-1015.500000, -341.500000) "></path>
            <path d="M968.5,317.5 L1063.5,413.5" id="Line-7" stroke="#000000" stroke-width="1.5" stroke-linecap="square" transform="translate(1016.000000, 365.500000) scale(-1, 1) translate(-1016.000000, -365.500000) "></path>
            <path d="M968.5,318.5 L1063.5,461.5" id="Line-8" stroke="#000000" stroke-width="1.5" stroke-linecap="square" transform="translate(1016.000000, 390.000000) scale(-1, 1) translate(-1016.000000, -390.000000) "></path>
            <polygon id="path22" stroke="#000000" stroke-width="0.9962625" fill="#9013FE" fill-rule="nonzero" transform="translate(950.716744, 127.716745) rotate(-180.000000) translate(-950.716744, -127.716745) " points="933.000001 110.000001 968.433488 110.000001 968.433488 145.433488 933.000001 145.433488"></polygon>
            <polygon id="path22" stroke="#000000" stroke-width="0.9962625" fill="#9013FE" fill-rule="nonzero" transform="translate(950.716744, 174.716745) rotate(-180.000000) translate(-950.716744, -174.716745) " points="933.000001 157.000001 968.433488 157.000001 968.433488 192.433488 933.000001 192.433488"></polygon>
            <polygon id="path22" stroke="#000000" stroke-width="0.9962625" fill="#9013FE" fill-rule="nonzero" transform="translate(950.716744, 222.716745) rotate(-180.000000) translate(-950.716744, -222.716745) " points="933.000001 205.000001 968.433488 205.000001 968.433488 240.433488 933.000001 240.433488"></polygon>
            <polygon id="path22" stroke="#000000" stroke-width="0.9962625" fill="#9013FE" fill-rule="nonzero" transform="translate(950.716744, 269.716745) rotate(-180.000000) translate(-950.716744, -269.716745) " points="933.000001 252.000001 968.433488 252.000001 968.433488 287.433488 933.000001 287.433488"></polygon>
            <polygon id="path22" stroke="#000000" stroke-width="0.9962625" fill="#9013FE" fill-rule="nonzero" transform="translate(950.716744, 316.716745) rotate(-180.000000) translate(-950.716744, -316.716745) " points="933.000001 299.000001 968.433488 299.000001 968.433488 334.433488 933.000001 334.433488"></polygon>
            <polygon id="path22" stroke="#000000" stroke-width="0.9962625" fill="#9013FE" fill-rule="nonzero" transform="translate(950.716744, 363.716745) rotate(-180.000000) translate(-950.716744, -363.716745) " points="933.000001 346.000001 968.433488 346.000001 968.433488 381.433488 933.000001 381.433488"></polygon>
            <polygon id="path22" stroke="#000000" stroke-width="0.9962625" fill="#9013FE" fill-rule="nonzero" transform="translate(950.716744, 411.716745) rotate(-180.000000) translate(-950.716744, -411.716745) " points="933.000001 394.000001 968.433488 394.000001 968.433488 429.433488 933.000001 429.433488"></polygon>
            <polygon id="path22" stroke="#000000" stroke-width="0.9962625" fill="#9013FE" fill-rule="nonzero" transform="translate(950.716744, 458.716745) rotate(-180.000000) translate(-950.716744, -458.716745) " points="933.000001 441.000001 968.433488 441.000001 968.433488 476.433488 933.000001 476.433488"></polygon>
            <path d="M968.5,317.5 L1063.5,505.5" id="Line-9" stroke="#000000" stroke-width="1.5" stroke-linecap="square" transform="translate(1016.000000, 411.500000) scale(-1, 1) translate(-1016.000000, -411.500000) "></path>
            <path d="M334.5,317.5 L428.5,126.5" id="Line" stroke="#000000" stroke-width="1.5" stroke-linecap="square" transform="translate(381.500000, 222.000000) scale(-1, 1) translate(-381.500000, -222.000000) "></path>
            <path d="M335.5,318.5 L429.5,173.5" id="Line-2" stroke="#000000" stroke-width="1.5" stroke-linecap="square" transform="translate(382.500000, 246.000000) scale(-1, 1) translate(-382.500000, -246.000000) "></path>
            <path d="M335.5,317.5 L429.5,222.5" id="Line-3" stroke="#000000" stroke-width="1.5" stroke-linecap="square" transform="translate(382.500000, 270.000000) scale(-1, 1) translate(-382.500000, -270.000000) "></path>
            <path d="M334.5,317.5 L429.5,269.5" id="Line-4" stroke="#000000" stroke-width="1.5" stroke-linecap="square" transform="translate(382.000000, 293.500000) scale(-1, 1) translate(-382.000000, -293.500000) "></path>
            <path d="M336.5,317 L429.5,317" id="Line-5" stroke="#000000" stroke-width="1.5" stroke-linecap="square" transform="translate(383.000000, 317.750000) scale(-1, 1) translate(-383.000000, -317.750000) "></path>
            <path d="M335.5,318.5 L429.5,364.5" id="Line-6" stroke="#000000" stroke-width="1.5" stroke-linecap="square" transform="translate(382.500000, 341.500000) scale(-1, 1) translate(-382.500000, -341.500000) "></path>
            <path d="M335.5,317.5 L430.5,413.5" id="Line-7" stroke="#000000" stroke-width="1.5" stroke-linecap="square" transform="translate(383.000000, 365.500000) scale(-1, 1) translate(-383.000000, -365.500000) "></path>
            <path d="M335.5,318.5 L430.5,461.5" id="Line-8" stroke="#000000" stroke-width="1.5" stroke-linecap="square" transform="translate(383.000000, 390.000000) scale(-1, 1) translate(-383.000000, -390.000000) "></path>
            <path d="M335.5,317.5 L430.5,508.5" id="Line-9" stroke="#000000" stroke-width="1.5" stroke-linecap="square" transform="translate(383.000000, 413.000000) scale(-1, 1) translate(-383.000000, -413.000000) "></path>
            <path d="M478.5,658.5 L478.5,621.5" id="Line-10" stroke="#000000" stroke-width="1.5" stroke-linecap="square"></path>
            <path d="M634.5,658.5 L634.5,621.5" id="Line-10" stroke="#000000" stroke-width="1.5" stroke-linecap="square"></path>
            <path d="M790.5,658.5 L790.5,621.5" id="Line-10" stroke="#000000" stroke-width="1.5" stroke-linecap="square"></path>
            <text id="current-char" fill="#000000" font-family="Helvetica-Bold, Helvetica" font-size="20" font-weight="bold">
                <tspan x="14" y="325">current char</tspan>
            </text>
            <path d="M136.5,318.5 L168.562439,318.5" id="Line-11" stroke="#000000" stroke-width="1.5" stroke-linecap="square"></path>
            <text id="predicted-next-char" fill="#000000" font-family="Helvetica-Bold, Helvetica" font-size="20" font-weight="bold">
                <tspan x="1142" y="323">predicted next char</tspan>
            </text>
            <rect id="Rectangle-2" stroke="#000000" stroke-width="3" x="431.5" y="0.5" width="93" height="633"></rect>
            <rect id="Rectangle-2" stroke="#000000" stroke-width="3" x="587.5" y="0.5" width="93" height="633"></rect>
            <rect id="Rectangle-2" stroke="#000000" stroke-width="3" x="743.5" y="0.5" width="93" height="633"></rect>
            <path d="M524.5,317.5 L588,317.5" id="Line-12" stroke="#000000" stroke-width="2" stroke-linecap="square"></path>
            <path d="M681.5,317.5 L745,317.5" id="Line-12" stroke="#000000" stroke-width="2" stroke-linecap="square"></path>
            <path d="M524.589844,348 C526.028498,379.355281 523.897803,340.532285 554.480469,428.832031 C569.141528,471.162148 565.454226,521.416198 564.679688,564.792969 C563.87705,609.743387 568.618409,651.791131 524.121094,675.113281 C516.835977,678.931592 500.696465,678.447844 496,678.789062" id="Path-3" stroke="#000000" stroke-width="2"></path>
            <path d="M836.589844,348 C838.028498,379.355281 835.897803,340.532285 866.480469,428.832031 C881.141528,471.162148 877.454226,521.416198 876.679688,564.792969 C875.87705,609.743387 880.618409,651.791131 836.121094,675.113281 C828.835977,678.931592 812.696465,678.447844 808,678.789062" id="Path-3" stroke="#000000" stroke-width="2"></path>
            <path d="M680.589844,348 C682.028498,379.355281 679.897803,340.532285 710.480469,428.832031 C725.141528,471.162148 721.454226,521.416198 720.679688,564.792969 C719.87705,609.743387 724.618409,651.791131 680.121094,675.113281 C672.835977,678.931592 656.696465,678.447844 652,678.789062" id="Path-3" stroke="#000000" stroke-width="2"></path>
            <rect id="Rectangle-3" stroke="#FF0000" stroke-width="8" x="0" y="274" width="254" height="88"></rect>
            <polygon id="path22" stroke="#000000" stroke-width="0.9962625" fill="#9013FE" fill-rule="nonzero" transform="translate(950.716744, 506.716745) rotate(-180.000000) translate(-950.716744, -506.716745) " points="933.000001 489.000001 968.433488 489.000001 968.433488 524.433488 933.000001 524.433488"></polygon>
            <text id="Input" fill="#000000" font-family="Helvetica-Bold, Helvetica" font-size="52" font-weight="bold">
                <tspan x="71" y="146">Input</tspan>
            </text>
        </g>
    </g>
</svg>