<?xml version="1.0" encoding="UTF-8"?>
<svg width="1515px" height="1145px" viewBox="0 0 1515 1145" version="1.1" xmlns="http://www.w3.org/2000/svg" xmlns:xlink="http://www.w3.org/1999/xlink">
    <!-- Generator: Sketch 47 (45396) - http://www.bohemiancoding.com/sketch -->
    <title>Group</title>
    <desc>Created with Sketch.</desc>
    <defs></defs>
    <g id="Page-1" stroke="none" stroke-width="1" fill="none" fill-rule="evenodd">
        <g id="Group" transform="translate(0.000000, -12.000000)">
            <polygon id="path22" stroke="#000000" stroke-width="0.9962625" fill="#FFF880" fill-rule="nonzero" transform="translate(172.716744, 438.716745) scale(-1, 1) rotate(-180.000000) translate(-172.716744, -438.716745) " points="155 421.000001 190.433488 421.000001 190.433488 456.433488 155 456.433488"></polygon>
            <polygon id="path22" stroke="#000000" stroke-width="0.9962625" fill="#FFF880" fill-rule="nonzero" transform="translate(303.716744, 248.716744) scale(-1, 1) rotate(-180.000000) translate(-303.716744, -248.716744) " points="286 231.000001 321.433488 231.000001 321.433488 266.433488 286 266.433488"></polygon>
            <polygon id="path22" stroke="#000000" stroke-width="0.9962625" fill="#FFF880" fill-rule="nonzero" transform="translate(303.716744, 295.716745) scale(-1, 1) rotate(-180.000000) translate(-303.716744, -295.716745) " points="286 278.000001 321.433488 278.000001 321.433488 313.433488 286 313.433488"></polygon>
            <polygon id="path22" stroke="#000000" stroke-width="0.9962625" fill="#FFF880" fill-rule="nonzero" transform="translate(303.716744, 343.716745) scale(-1, 1) rotate(-180.000000) translate(-303.716744, -343.716745) " points="286 326.000001 321.433488 326.000001 321.433488 361.433488 286 361.433488"></polygon>
            <polygon id="path22" stroke="#000000" stroke-width="0.9962625" fill="#FFF880" fill-rule="nonzero" transform="translate(303.716744, 390.716745) scale(-1, 1) rotate(-180.000000) translate(-303.716744, -390.716745) " points="286 373.000001 321.433488 373.000001 321.433488 408.433488 286 408.433488"></polygon>
            <polygon id="path22" stroke="#000000" stroke-width="0.9962625" fill="#FFF880" fill-rule="nonzero" transform="translate(303.716744, 437.716745) scale(-1, 1) rotate(-180.000000) translate(-303.716744, -437.716745) " points="286 420.000001 321.433488 420.000001 321.433488 455.433488 286 455.433488"></polygon>
            <polygon id="path22" stroke="#000000" stroke-width="0.9962625" fill="#FFF880" fill-rule="nonzero" transform="translate(303.716744, 484.716745) scale(-1, 1) rotate(-180.000000) translate(-303.716744, -484.716745) " points="286 467.000001 321.433488 467.000001 321.433488 502.433488 286 502.433488"></polygon>
            <polygon id="path22" stroke="#000000" stroke-width="0.9962625" fill="#FFF880" fill-rule="nonzero" transform="translate(303.716744, 532.716744) scale(-1, 1) rotate(-180.000000) translate(-303.716744, -532.716744) " points="286 515.000001 321.433488 515.000001 321.433488 550.433488 286 550.433488"></polygon>
            <polygon id="path22" stroke="#000000" stroke-width="0.9962625" fill="#FFF880" fill-rule="nonzero" transform="translate(303.716744, 579.716744) scale(-1, 1) rotate(-180.000000) translate(-303.716744, -579.716744) " points="286 562.000001 321.433488 562.000001 321.433488 597.433488 286 597.433488"></polygon>
            <polygon id="path22" stroke="#000000" stroke-width="0.9962625" fill="#FFF880" fill-rule="nonzero" transform="translate(303.716744, 627.716744) scale(-1, 1) rotate(-180.000000) translate(-303.716744, -627.716744) " points="286 610.000001 321.433488 610.000001 321.433488 645.433488 286 645.433488"></polygon>
            <polygon id="path22" stroke="#000000" stroke-width="0.9962625" fill="#FFF880" fill-rule="nonzero" transform="translate(463.716744, 797.716744) scale(-1, 1) rotate(-180.000000) translate(-463.716744, -797.716744) " points="446 780.000001 481.433488 780.000001 481.433488 815.433488 446 815.433488"></polygon>
            <polygon id="path22" stroke="#000000" stroke-width="0.9962625" fill="#FFF880" fill-rule="nonzero" transform="translate(775.716743, 797.716745) scale(-1, 1) rotate(-180.000000) translate(-775.716743, -797.716745) " points="758 780.000001 793.433487 780.000001 793.433487 815.433488 758 815.433488"></polygon>
            <polygon id="path22" stroke="#000000" stroke-width="0.9962625" fill="#FFF880" fill-rule="nonzero" transform="translate(619.716744, 797.716745) scale(-1, 1) rotate(-180.000000) translate(-619.716744, -797.716745) " points="602 780.000001 637.433487 780.000001 637.433487 815.433488 602 815.433488"></polygon>
            <polygon id="path22" stroke="#000000" stroke-width="0.9962625" fill="#9013FE" fill-rule="nonzero" transform="translate(1068.716743, 437.716745) rotate(-180.000000) translate(-1068.716743, -437.716745) " points="1051 420.000001 1086.43349 420.000001 1086.43349 455.433488 1051 455.433488"></polygon>
            <path d="M481.4335,151.71675 C481.4335,161.501563 473.501562,169.4335 463.71675,169.4335 C453.931938,169.4335 446,161.501563 446,151.71675 C446,141.931925 453.931938,134 463.71675,134 C473.501562,134 481.4335,141.931925 481.4335,151.71675 L481.4335,151.71675 Z" id="path386" stroke="#000000" stroke-width="0.9962625" fill="#8080FF" fill-rule="nonzero" transform="translate(463.716750, 151.716750) scale(-1, 1) rotate(-180.000000) translate(-463.716750, -151.716750) "></path>
            <rect id="path-1" fill="#7ED321" x="434" y="694" width="60" height="49"></rect>
            <rect id="Rectangle-path" stroke="#000000" x="434.5" y="694.5" width="59" height="48"></rect>
            <path d="M481.4335,197.71675 C481.4335,207.501563 473.501562,215.4335 463.71675,215.4335 C453.931938,215.4335 446,207.501563 446,197.71675 C446,187.931925 453.931938,180 463.71675,180 C473.501562,180 481.4335,187.931925 481.4335,197.71675 L481.4335,197.71675 Z" id="path386" stroke="#000000" stroke-width="0.9962625" fill="#8080FF" fill-rule="nonzero" transform="translate(463.716750, 197.716750) scale(-1, 1) rotate(-180.000000) translate(-463.716750, -197.716750) "></path>
            <path d="M481.4335,243.71675 C481.4335,253.501563 473.501562,261.4335 463.71675,261.4335 C453.931938,261.4335 446,253.501563 446,243.71675 C446,233.931925 453.931938,226 463.71675,226 C473.501562,226 481.4335,233.931925 481.4335,243.71675 L481.4335,243.71675 Z" id="path386" stroke="#000000" stroke-width="0.9962625" fill="#8080FF" fill-rule="nonzero" transform="translate(463.716750, 243.716750) scale(-1, 1) rotate(-180.000000) translate(-463.716750, -243.716750) "></path>
            <path d="M481.4335,289.71675 C481.4335,299.501563 473.501562,307.4335 463.71675,307.4335 C453.931938,307.4335 446,299.501563 446,289.71675 C446,279.931925 453.931938,272 463.71675,272 C473.501562,272 481.4335,279.931925 481.4335,289.71675 L481.4335,289.71675 Z" id="path386" stroke="#000000" stroke-width="0.9962625" fill="#8080FF" fill-rule="nonzero" transform="translate(463.716750, 289.716750) scale(-1, 1) rotate(-180.000000) translate(-463.716750, -289.716750) "></path>
            <path d="M481.4335,335.71675 C481.4335,345.501563 473.501562,353.4335 463.71675,353.4335 C453.931938,353.4335 446,345.501563 446,335.71675 C446,325.931925 453.931938,318 463.71675,318 C473.501562,318 481.4335,325.931925 481.4335,335.71675 L481.4335,335.71675 Z" id="path386" stroke="#000000" stroke-width="0.9962625" fill="#8080FF" fill-rule="nonzero" transform="translate(463.716750, 335.716750) scale(-1, 1) rotate(-180.000000) translate(-463.716750, -335.716750) "></path>
            <path d="M481.4335,381.71675 C481.4335,391.501563 473.501562,399.4335 463.71675,399.4335 C453.931938,399.4335 446,391.501563 446,381.71675 C446,371.931925 453.931938,364 463.71675,364 C473.501562,364 481.4335,371.931925 481.4335,381.71675 L481.4335,381.71675 Z" id="path386" stroke="#000000" stroke-width="0.9962625" fill="#8080FF" fill-rule="nonzero" transform="translate(463.716750, 381.716750) scale(-1, 1) rotate(-180.000000) translate(-463.716750, -381.716750) "></path>
            <path d="M481.4335,427.71675 C481.4335,437.501563 473.501562,445.4335 463.71675,445.4335 C453.931938,445.4335 446,437.501563 446,427.71675 C446,417.931925 453.931938,410 463.71675,410 C473.501562,410 481.4335,417.931925 481.4335,427.71675 L481.4335,427.71675 Z" id="path386" stroke="#000000" stroke-width="0.9962625" fill="#8080FF" fill-rule="nonzero" transform="translate(463.716750, 427.716750) scale(-1, 1) rotate(-180.000000) translate(-463.716750, -427.716750) "></path>
            <path d="M481.4335,473.71675 C481.4335,483.501563 473.501562,491.4335 463.71675,491.4335 C453.931938,491.4335 446,483.501563 446,473.71675 C446,463.931925 453.931938,456 463.71675,456 C473.501562,456 481.4335,463.931925 481.4335,473.71675 L481.4335,473.71675 Z" id="path386" stroke="#000000" stroke-width="0.9962625" fill="#8080FF" fill-rule="nonzero" transform="translate(463.716750, 473.716750) scale(-1, 1) rotate(-180.000000) translate(-463.716750, -473.716750) "></path>
            <path d="M481.4335,522.71675 C481.4335,532.501563 473.501562,540.4335 463.71675,540.4335 C453.931938,540.4335 446,532.501563 446,522.71675 C446,512.931925 453.931938,505 463.71675,505 C473.501562,505 481.4335,512.931925 481.4335,522.71675 L481.4335,522.71675 Z" id="path386" stroke="#000000" stroke-width="0.9962625" fill="#8080FF" fill-rule="nonzero" transform="translate(463.716750, 522.716750) scale(-1, 1) rotate(-180.000000) translate(-463.716750, -522.716750) "></path>
            <path d="M481.4335,568.71675 C481.4335,578.501563 473.501562,586.4335 463.71675,586.4335 C453.931938,586.4335 446,578.501563 446,568.71675 C446,558.931925 453.931938,551 463.71675,551 C473.501562,551 481.4335,558.931925 481.4335,568.71675 L481.4335,568.71675 Z" id="path386" stroke="#000000" stroke-width="0.9962625" fill="#8080FF" fill-rule="nonzero" transform="translate(463.716750, 568.716750) scale(-1, 1) rotate(-180.000000) translate(-463.716750, -568.716750) "></path>
            <path d="M481.4335,614.71675 C481.4335,624.501563 473.501562,632.4335 463.71675,632.4335 C453.931938,632.4335 446,624.501563 446,614.71675 C446,604.931925 453.931938,597 463.71675,597 C473.501562,597 481.4335,604.931925 481.4335,614.71675 L481.4335,614.71675 Z" id="path386" stroke="#000000" stroke-width="0.9962625" fill="#8080FF" fill-rule="nonzero" transform="translate(463.716750, 614.716750) scale(-1, 1) rotate(-180.000000) translate(-463.716750, -614.716750) "></path>
            <path d="M481.4335,660.71675 C481.4335,670.501563 473.501562,678.4335 463.71675,678.4335 C453.931938,678.4335 446,670.501563 446,660.71675 C446,650.931925 453.931938,643 463.71675,643 C473.501562,643 481.4335,650.931925 481.4335,660.71675 L481.4335,660.71675 Z" id="path386" stroke="#000000" stroke-width="0.9962625" fill="#8080FF" fill-rule="nonzero" transform="translate(463.716750, 660.716750) scale(-1, 1) rotate(-180.000000) translate(-463.716750, -660.716750) "></path>
            <path d="M637.4335,151.71675 C637.4335,161.501563 629.501562,169.4335 619.71675,169.4335 C609.931938,169.4335 602,161.501563 602,151.71675 C602,141.931925 609.931938,134 619.71675,134 C629.501562,134 637.4335,141.931925 637.4335,151.71675 L637.4335,151.71675 Z" id="path386" stroke="#000000" stroke-width="0.9962625" fill="#8080FF" fill-rule="nonzero" transform="translate(619.716750, 151.716750) scale(-1, 1) rotate(-180.000000) translate(-619.716750, -151.716750) "></path>
            <rect id="path-2" fill="#7ED321" x="590" y="694" width="60" height="49"></rect>
            <rect id="Rectangle-path" stroke="#000000" x="590.5" y="694.5" width="59" height="48"></rect>
            <path d="M637.4335,197.71675 C637.4335,207.501563 629.501562,215.4335 619.71675,215.4335 C609.931938,215.4335 602,207.501563 602,197.71675 C602,187.931925 609.931938,180 619.71675,180 C629.501562,180 637.4335,187.931925 637.4335,197.71675 L637.4335,197.71675 Z" id="path386" stroke="#000000" stroke-width="0.9962625" fill="#8080FF" fill-rule="nonzero" transform="translate(619.716750, 197.716750) scale(-1, 1) rotate(-180.000000) translate(-619.716750, -197.716750) "></path>
            <path d="M637.4335,243.71675 C637.4335,253.501563 629.501562,261.4335 619.71675,261.4335 C609.931938,261.4335 602,253.501563 602,243.71675 C602,233.931925 609.931938,226 619.71675,226 C629.501562,226 637.4335,233.931925 637.4335,243.71675 L637.4335,243.71675 Z" id="path386" stroke="#000000" stroke-width="0.9962625" fill="#8080FF" fill-rule="nonzero" transform="translate(619.716750, 243.716750) scale(-1, 1) rotate(-180.000000) translate(-619.716750, -243.716750) "></path>
            <path d="M637.4335,289.71675 C637.4335,299.501563 629.501562,307.4335 619.71675,307.4335 C609.931938,307.4335 602,299.501563 602,289.71675 C602,279.931925 609.931938,272 619.71675,272 C629.501562,272 637.4335,279.931925 637.4335,289.71675 L637.4335,289.71675 Z" id="path386" stroke="#000000" stroke-width="0.9962625" fill="#8080FF" fill-rule="nonzero" transform="translate(619.716750, 289.716750) scale(-1, 1) rotate(-180.000000) translate(-619.716750, -289.716750) "></path>
            <path d="M637.4335,335.71675 C637.4335,345.501563 629.501562,353.4335 619.71675,353.4335 C609.931938,353.4335 602,345.501563 602,335.71675 C602,325.931925 609.931938,318 619.71675,318 C629.501562,318 637.4335,325.931925 637.4335,335.71675 L637.4335,335.71675 Z" id="path386" stroke="#000000" stroke-width="0.9962625" fill="#8080FF" fill-rule="nonzero" transform="translate(619.716750, 335.716750) scale(-1, 1) rotate(-180.000000) translate(-619.716750, -335.716750) "></path>
            <path d="M637.4335,381.71675 C637.4335,391.501563 629.501562,399.4335 619.71675,399.4335 C609.931938,399.4335 602,391.501563 602,381.71675 C602,371.931925 609.931938,364 619.71675,364 C629.501562,364 637.4335,371.931925 637.4335,381.71675 L637.4335,381.71675 Z" id="path386" stroke="#000000" stroke-width="0.9962625" fill="#8080FF" fill-rule="nonzero" transform="translate(619.716750, 381.716750) scale(-1, 1) rotate(-180.000000) translate(-619.716750, -381.716750) "></path>
            <path d="M637.4335,427.71675 C637.4335,437.501563 629.501562,445.4335 619.71675,445.4335 C609.931938,445.4335 602,437.501563 602,427.71675 C602,417.931925 609.931938,410 619.71675,410 C629.501562,410 637.4335,417.931925 637.4335,427.71675 L637.4335,427.71675 Z" id="path386" stroke="#000000" stroke-width="0.9962625" fill="#8080FF" fill-rule="nonzero" transform="translate(619.716750, 427.716750) scale(-1, 1) rotate(-180.000000) translate(-619.716750, -427.716750) "></path>
            <path d="M637.4335,473.71675 C637.4335,483.501563 629.501562,491.4335 619.71675,491.4335 C609.931938,491.4335 602,483.501563 602,473.71675 C602,463.931925 609.931938,456 619.71675,456 C629.501562,456 637.4335,463.931925 637.4335,473.71675 L637.4335,473.71675 Z" id="path386" stroke="#000000" stroke-width="0.9962625" fill="#8080FF" fill-rule="nonzero" transform="translate(619.716750, 473.716750) scale(-1, 1) rotate(-180.000000) translate(-619.716750, -473.716750) "></path>
            <path d="M637.4335,522.71675 C637.4335,532.501563 629.501562,540.4335 619.71675,540.4335 C609.931938,540.4335 602,532.501563 602,522.71675 C602,512.931925 609.931938,505 619.71675,505 C629.501562,505 637.4335,512.931925 637.4335,522.71675 L637.4335,522.71675 Z" id="path386" stroke="#000000" stroke-width="0.9962625" fill="#8080FF" fill-rule="nonzero" transform="translate(619.716750, 522.716750) scale(-1, 1) rotate(-180.000000) translate(-619.716750, -522.716750) "></path>
            <path d="M637.4335,568.71675 C637.4335,578.501563 629.501562,586.4335 619.71675,586.4335 C609.931938,586.4335 602,578.501563 602,568.71675 C602,558.931925 609.931938,551 619.71675,551 C629.501562,551 637.4335,558.931925 637.4335,568.71675 L637.4335,568.71675 Z" id="path386" stroke="#000000" stroke-width="0.9962625" fill="#8080FF" fill-rule="nonzero" transform="translate(619.716750, 568.716750) scale(-1, 1) rotate(-180.000000) translate(-619.716750, -568.716750) "></path>
            <path d="M637.4335,614.71675 C637.4335,624.501563 629.501562,632.4335 619.71675,632.4335 C609.931938,632.4335 602,624.501563 602,614.71675 C602,604.931925 609.931938,597 619.71675,597 C629.501562,597 637.4335,604.931925 637.4335,614.71675 L637.4335,614.71675 Z" id="path386" stroke="#000000" stroke-width="0.9962625" fill="#8080FF" fill-rule="nonzero" transform="translate(619.716750, 614.716750) scale(-1, 1) rotate(-180.000000) translate(-619.716750, -614.716750) "></path>
            <path d="M637.4335,660.71675 C637.4335,670.501563 629.501562,678.4335 619.71675,678.4335 C609.931938,678.4335 602,670.501563 602,660.71675 C602,650.931925 609.931938,643 619.71675,643 C629.501562,643 637.4335,650.931925 637.4335,660.71675 L637.4335,660.71675 Z" id="path386" stroke="#000000" stroke-width="0.9962625" fill="#8080FF" fill-rule="nonzero" transform="translate(619.716750, 660.716750) scale(-1, 1) rotate(-180.000000) translate(-619.716750, -660.716750) "></path>
            <path d="M793.4335,151.71675 C793.4335,161.501563 785.501562,169.4335 775.71675,169.4335 C765.931938,169.4335 758,161.501563 758,151.71675 C758,141.931925 765.931938,134 775.71675,134 C785.501562,134 793.4335,141.931925 793.4335,151.71675 L793.4335,151.71675 Z" id="path386" stroke="#000000" stroke-width="0.9962625" fill="#8080FF" fill-rule="nonzero" transform="translate(775.716750, 151.716750) scale(-1, 1) rotate(-180.000000) translate(-775.716750, -151.716750) "></path>
            <rect id="path-3" fill="#7ED321" x="746" y="694" width="60" height="49"></rect>
            <rect id="Rectangle-path" stroke="#000000" x="746.5" y="694.5" width="59" height="48"></rect>
            <path d="M793.4335,197.71675 C793.4335,207.501563 785.501562,215.4335 775.71675,215.4335 C765.931938,215.4335 758,207.501563 758,197.71675 C758,187.931925 765.931938,180 775.71675,180 C785.501562,180 793.4335,187.931925 793.4335,197.71675 L793.4335,197.71675 Z" id="path386" stroke="#000000" stroke-width="0.9962625" fill="#8080FF" fill-rule="nonzero" transform="translate(775.716750, 197.716750) scale(-1, 1) rotate(-180.000000) translate(-775.716750, -197.716750) "></path>
            <path d="M793.4335,243.71675 C793.4335,253.501563 785.501562,261.4335 775.71675,261.4335 C765.931938,261.4335 758,253.501563 758,243.71675 C758,233.931925 765.931938,226 775.71675,226 C785.501562,226 793.4335,233.931925 793.4335,243.71675 L793.4335,243.71675 Z" id="path386" stroke="#000000" stroke-width="0.9962625" fill="#8080FF" fill-rule="nonzero" transform="translate(775.716750, 243.716750) scale(-1, 1) rotate(-180.000000) translate(-775.716750, -243.716750) "></path>
            <path d="M793.4335,289.71675 C793.4335,299.501563 785.501562,307.4335 775.71675,307.4335 C765.931938,307.4335 758,299.501563 758,289.71675 C758,279.931925 765.931938,272 775.71675,272 C785.501562,272 793.4335,279.931925 793.4335,289.71675 L793.4335,289.71675 Z" id="path386" stroke="#000000" stroke-width="0.9962625" fill="#8080FF" fill-rule="nonzero" transform="translate(775.716750, 289.716750) scale(-1, 1) rotate(-180.000000) translate(-775.716750, -289.716750) "></path>
            <path d="M793.4335,335.71675 C793.4335,345.501563 785.501562,353.4335 775.71675,353.4335 C765.931938,353.4335 758,345.501563 758,335.71675 C758,325.931925 765.931938,318 775.71675,318 C785.501562,318 793.4335,325.931925 793.4335,335.71675 L793.4335,335.71675 Z" id="path386" stroke="#000000" stroke-width="0.9962625" fill="#8080FF" fill-rule="nonzero" transform="translate(775.716750, 335.716750) scale(-1, 1) rotate(-180.000000) translate(-775.716750, -335.716750) "></path>
            <path d="M793.4335,381.71675 C793.4335,391.501563 785.501562,399.4335 775.71675,399.4335 C765.931938,399.4335 758,391.501563 758,381.71675 C758,371.931925 765.931938,364 775.71675,364 C785.501562,364 793.4335,371.931925 793.4335,381.71675 L793.4335,381.71675 Z" id="path386" stroke="#000000" stroke-width="0.9962625" fill="#8080FF" fill-rule="nonzero" transform="translate(775.716750, 381.716750) scale(-1, 1) rotate(-180.000000) translate(-775.716750, -381.716750) "></path>
            <path d="M793.4335,427.71675 C793.4335,437.501563 785.501562,445.4335 775.71675,445.4335 C765.931938,445.4335 758,437.501563 758,427.71675 C758,417.931925 765.931938,410 775.71675,410 C785.501562,410 793.4335,417.931925 793.4335,427.71675 L793.4335,427.71675 Z" id="path386" stroke="#000000" stroke-width="0.9962625" fill="#8080FF" fill-rule="nonzero" transform="translate(775.716750, 427.716750) scale(-1, 1) rotate(-180.000000) translate(-775.716750, -427.716750) "></path>
            <path d="M793.4335,473.71675 C793.4335,483.501563 785.501562,491.4335 775.71675,491.4335 C765.931938,491.4335 758,483.501563 758,473.71675 C758,463.931925 765.931938,456 775.71675,456 C785.501562,456 793.4335,463.931925 793.4335,473.71675 L793.4335,473.71675 Z" id="path386" stroke="#000000" stroke-width="0.9962625" fill="#8080FF" fill-rule="nonzero" transform="translate(775.716750, 473.716750) scale(-1, 1) rotate(-180.000000) translate(-775.716750, -473.716750) "></path>
            <path d="M793.4335,522.71675 C793.4335,532.501563 785.501562,540.4335 775.71675,540.4335 C765.931938,540.4335 758,532.501563 758,522.71675 C758,512.931925 765.931938,505 775.71675,505 C785.501562,505 793.4335,512.931925 793.4335,522.71675 L793.4335,522.71675 Z" id="path386" stroke="#000000" stroke-width="0.9962625" fill="#8080FF" fill-rule="nonzero" transform="translate(775.716750, 522.716750) scale(-1, 1) rotate(-180.000000) translate(-775.716750, -522.716750) "></path>
            <path d="M793.4335,568.71675 C793.4335,578.501563 785.501562,586.4335 775.71675,586.4335 C765.931938,586.4335 758,578.501563 758,568.71675 C758,558.931925 765.931938,551 775.71675,551 C785.501562,551 793.4335,558.931925 793.4335,568.71675 L793.4335,568.71675 Z" id="path386" stroke="#000000" stroke-width="0.9962625" fill="#8080FF" fill-rule="nonzero" transform="translate(775.716750, 568.716750) scale(-1, 1) rotate(-180.000000) translate(-775.716750, -568.716750) "></path>
            <path d="M793.4335,614.71675 C793.4335,624.501563 785.501562,632.4335 775.71675,632.4335 C765.931938,632.4335 758,624.501563 758,614.71675 C758,604.931925 765.931938,597 775.71675,597 C785.501562,597 793.4335,604.931925 793.4335,614.71675 L793.4335,614.71675 Z" id="path386" stroke="#000000" stroke-width="0.9962625" fill="#8080FF" fill-rule="nonzero" transform="translate(775.716750, 614.716750) scale(-1, 1) rotate(-180.000000) translate(-775.716750, -614.716750) "></path>
            <path d="M793.4335,660.71675 C793.4335,670.501563 785.501562,678.4335 775.71675,678.4335 C765.931938,678.4335 758,670.501563 758,660.71675 C758,650.931925 765.931938,643 775.71675,643 C785.501562,643 793.4335,650.931925 793.4335,660.71675 L793.4335,660.71675 Z" id="path386" stroke="#000000" stroke-width="0.9962625" fill="#8080FF" fill-rule="nonzero" transform="translate(775.716750, 660.716750) scale(-1, 1) rotate(-180.000000) translate(-775.716750, -660.716750) "></path>
            <path d="M192.5,438.5 L286.5,247.5" id="Line" stroke="#000000" stroke-width="1.5" stroke-linecap="square"></path>
            <path d="M191.5,439.5 L285.5,294.5" id="Line-2" stroke="#000000" stroke-width="1.5" stroke-linecap="square"></path>
            <path d="M191.5,438.5 L285.5,343.5" id="Line-3" stroke="#000000" stroke-width="1.5" stroke-linecap="square"></path>
            <path d="M191.5,438.5 L286.5,390.5" id="Line-4" stroke="#000000" stroke-width="1.5" stroke-linecap="square"></path>
            <path d="M191.5,438.5 L284.5,438.5" id="Line-5" stroke="#000000" stroke-width="1.5" stroke-linecap="square"></path>
            <path d="M191.5,439.5 L285.5,485.5" id="Line-6" stroke="#000000" stroke-width="1.5" stroke-linecap="square"></path>
            <path d="M190.5,438.5 L285.5,534.5" id="Line-7" stroke="#000000" stroke-width="1.5" stroke-linecap="square"></path>
            <path d="M190.5,439.5 L285.5,582.5" id="Line-8" stroke="#000000" stroke-width="1.5" stroke-linecap="square"></path>
            <path d="M825.5,438.5 L919.5,247.5" id="Line" stroke="#000000" stroke-width="1.5" stroke-linecap="square"></path>
            <path d="M190.5,438.5 L285.5,629.5" id="Line-9" stroke="#000000" stroke-width="1.5" stroke-linecap="square"></path>
            <path d="M824.5,439.5 L918.5,294.5" id="Line-2" stroke="#000000" stroke-width="1.5" stroke-linecap="square"></path>
            <path d="M824.5,438.5 L918.5,343.5" id="Line-3" stroke="#000000" stroke-width="1.5" stroke-linecap="square"></path>
            <path d="M824.5,438.5 L919.5,390.5" id="Line-4" stroke="#000000" stroke-width="1.5" stroke-linecap="square"></path>
            <path d="M824.5,438.5 L917.5,438.5" id="Line-5" stroke="#000000" stroke-width="1.5" stroke-linecap="square"></path>
            <path d="M824.5,439.5 L918.5,485.5" id="Line-6" stroke="#000000" stroke-width="1.5" stroke-linecap="square"></path>
            <path d="M823.5,438.5 L918.5,534.5" id="Line-7" stroke="#000000" stroke-width="1.5" stroke-linecap="square"></path>
            <path d="M823.5,439.5 L918.5,582.5" id="Line-8" stroke="#000000" stroke-width="1.5" stroke-linecap="square"></path>
            <path d="M823.5,438.5 L919.5,629.5" id="Line-9" stroke="#000000" stroke-width="1.5" stroke-linecap="square"></path>
            <path d="M953.5,438.5 L1047.5,247.5" id="Line" stroke="#000000" stroke-width="1.5" stroke-linecap="square" transform="translate(1000.500000, 343.000000) scale(-1, 1) translate(-1000.500000, -343.000000) "></path>
            <path d="M1144.21968,707.84375 L953,247 L1144.21968,707.84375 Z" id="Line" stroke="#FF0000" stroke-width="1.5" stroke-linecap="square"></path>
            <path d="M954.5,439.5 L1048.5,294.5" id="Line-2" stroke="#000000" stroke-width="1.5" stroke-linecap="square" transform="translate(1001.500000, 367.000000) scale(-1, 1) translate(-1001.500000, -367.000000) "></path>
            <path d="M1144.22375,705.753872 L954,294 L1144.22375,705.753872 Z" id="Line-2" stroke="#FF0000" stroke-width="1.5" stroke-linecap="square"></path>
            <path d="M954.5,438.5 L1048.5,343.5" id="Line-3" stroke="#000000" stroke-width="1.5" stroke-linecap="square" transform="translate(1001.500000, 391.000000) scale(-1, 1) translate(-1001.500000, -391.000000) "></path>
            <path d="M1143.22781,705.663995 L954,343 L1143.22781,705.663995 Z" id="Line-3" stroke="#FF0000" stroke-width="1.5" stroke-linecap="square"></path>
            <path d="M953.5,438.5 L1048.5,390.5" id="Line-4" stroke="#000000" stroke-width="1.5" stroke-linecap="square" transform="translate(1001.000000, 414.500000) scale(-1, 1) translate(-1001.000000, -414.500000) "></path>
            <path d="M955.5,438 L1048.5,438" id="Line-5" stroke="#000000" stroke-width="1.5" stroke-linecap="square" transform="translate(1002.000000, 438.750000) scale(-1, 1) translate(-1002.000000, -438.750000) "></path>
            <path d="M1143.22781,705.489742 L954,438 L1143.22781,705.489742 Z" id="Line-5" stroke="#FF0000" stroke-width="1.5" stroke-linecap="square"></path>
            <path d="M1087.5,437 L1124.5,437" id="Line-5" stroke="#000000" stroke-width="1.5" stroke-linecap="square" transform="translate(1106.000000, 437.750000) scale(-1, 1) translate(-1106.000000, -437.750000) "></path>
            <path d="M954.5,439.5 L1048.5,485.5" id="Line-6" stroke="#000000" stroke-width="1.5" stroke-linecap="square" transform="translate(1001.500000, 462.500000) scale(-1, 1) translate(-1001.500000, -462.500000) "></path>
            <path d="M1145.21968,707.405367 L954,486 L1145.21968,707.405367 Z" id="Line-6" stroke="#FF0000" stroke-width="1.5" stroke-linecap="square"></path>
            <path d="M954.5,438.5 L1049.5,534.5" id="Line-7" stroke="#000000" stroke-width="1.5" stroke-linecap="square" transform="translate(1002.000000, 486.500000) scale(-1, 1) translate(-1002.000000, -486.500000) "></path>
            <path d="M1144.22375,708.317323 L954,535 L1144.22375,708.317323 Z" id="Line-7" stroke="#FF0000" stroke-width="1.5" stroke-linecap="square"></path>
            <path d="M954.5,439.5 L1049.5,582.5" id="Line-8" stroke="#000000" stroke-width="1.5" stroke-linecap="square" transform="translate(1002.000000, 511.000000) scale(-1, 1) translate(-1002.000000, -511.000000) "></path>
            <path d="M1144.22375,707.227446 L954,583 L1144.22375,707.227446 Z" id="Line-8" stroke="#FF0000" stroke-width="1.5" stroke-linecap="square"></path>
            <polygon id="path22" stroke="#000000" stroke-width="0.9962625" fill="#9013FE" fill-rule="nonzero" transform="translate(936.716744, 248.716745) rotate(-180.000000) translate(-936.716744, -248.716745) " points="919.000001 231.000001 954.433488 231.000001 954.433488 266.433488 919.000001 266.433488"></polygon>
            <polygon id="path22" stroke="#000000" stroke-width="0.9962625" fill="#9013FE" fill-rule="nonzero" transform="translate(936.716744, 295.716745) rotate(-180.000000) translate(-936.716744, -295.716745) " points="919.000001 278.000001 954.433488 278.000001 954.433488 313.433488 919.000001 313.433488"></polygon>
            <polygon id="path22" stroke="#000000" stroke-width="0.9962625" fill="#9013FE" fill-rule="nonzero" transform="translate(936.716744, 343.716745) rotate(-180.000000) translate(-936.716744, -343.716745) " points="919.000001 326.000001 954.433488 326.000001 954.433488 361.433488 919.000001 361.433488"></polygon>
            <polygon id="path22" stroke="#000000" stroke-width="0.9962625" fill="#9013FE" fill-rule="nonzero" transform="translate(936.716744, 390.716745) rotate(-180.000000) translate(-936.716744, -390.716745) " points="919.000001 373.000001 954.433488 373.000001 954.433488 408.433488 919.000001 408.433488"></polygon>
            <polygon id="path22" stroke="#000000" stroke-width="0.9962625" fill="#9013FE" fill-rule="nonzero" transform="translate(936.716744, 437.716745) rotate(-180.000000) translate(-936.716744, -437.716745) " points="919.000001 420.000001 954.433488 420.000001 954.433488 455.433488 919.000001 455.433488"></polygon>
            <polygon id="path22" stroke="#000000" stroke-width="0.9962625" fill="#9013FE" fill-rule="nonzero" transform="translate(936.716744, 484.716745) rotate(-180.000000) translate(-936.716744, -484.716745) " points="919.000001 467.000001 954.433488 467.000001 954.433488 502.433488 919.000001 502.433488"></polygon>
            <polygon id="path22" stroke="#000000" stroke-width="0.9962625" fill="#9013FE" fill-rule="nonzero" transform="translate(936.716744, 532.716745) rotate(-180.000000) translate(-936.716744, -532.716745) " points="919.000001 515.000001 954.433488 515.000001 954.433488 550.433488 919.000001 550.433488"></polygon>
            <polygon id="path22" stroke="#000000" stroke-width="0.9962625" fill="#9013FE" fill-rule="nonzero" transform="translate(936.716744, 579.716745) rotate(-180.000000) translate(-936.716744, -579.716745) " points="919.000001 562.000001 954.433488 562.000001 954.433488 597.433488 919.000001 597.433488"></polygon>
            <path d="M954.5,438.5 L1049.5,626.5" id="Line-9" stroke="#000000" stroke-width="1.5" stroke-linecap="square" transform="translate(1002.000000, 532.500000) scale(-1, 1) translate(-1002.000000, -532.500000) "></path>
            <path d="M1144.22375,707.144905 L954,628 L1144.22375,707.144905 Z" id="Line-9" stroke="#FF0000" stroke-width="1.5" stroke-linecap="square"></path>
            <path d="M320.5,438.5 L414.5,247.5" id="Line" stroke="#000000" stroke-width="1.5" stroke-linecap="square" transform="translate(367.500000, 343.000000) scale(-1, 1) translate(-367.500000, -343.000000) "></path>
            <path d="M321.5,439.5 L415.5,294.5" id="Line-2" stroke="#000000" stroke-width="1.5" stroke-linecap="square" transform="translate(368.500000, 367.000000) scale(-1, 1) translate(-368.500000, -367.000000) "></path>
            <path d="M321.5,438.5 L415.5,343.5" id="Line-3" stroke="#000000" stroke-width="1.5" stroke-linecap="square" transform="translate(368.500000, 391.000000) scale(-1, 1) translate(-368.500000, -391.000000) "></path>
            <path d="M320.5,438.5 L415.5,390.5" id="Line-4" stroke="#000000" stroke-width="1.5" stroke-linecap="square" transform="translate(368.000000, 414.500000) scale(-1, 1) translate(-368.000000, -414.500000) "></path>
            <path d="M322.5,438 L415.5,438" id="Line-5" stroke="#000000" stroke-width="1.5" stroke-linecap="square" transform="translate(369.000000, 438.750000) scale(-1, 1) translate(-369.000000, -438.750000) "></path>
            <path d="M321.5,439.5 L415.5,485.5" id="Line-6" stroke="#000000" stroke-width="1.5" stroke-linecap="square" transform="translate(368.500000, 462.500000) scale(-1, 1) translate(-368.500000, -462.500000) "></path>
            <path d="M321.5,438.5 L416.5,534.5" id="Line-7" stroke="#000000" stroke-width="1.5" stroke-linecap="square" transform="translate(369.000000, 486.500000) scale(-1, 1) translate(-369.000000, -486.500000) "></path>
            <path d="M321.5,439.5 L416.5,582.5" id="Line-8" stroke="#000000" stroke-width="1.5" stroke-linecap="square" transform="translate(369.000000, 511.000000) scale(-1, 1) translate(-369.000000, -511.000000) "></path>
            <path d="M321.5,438.5 L416.5,629.5" id="Line-9" stroke="#000000" stroke-width="1.5" stroke-linecap="square" transform="translate(369.000000, 534.000000) scale(-1, 1) translate(-369.000000, -534.000000) "></path>
            <path d="M464.5,779.5 L464.5,742.5" id="Line-10" stroke="#000000" stroke-width="1.5" stroke-linecap="square"></path>
            <path d="M620.5,779.5 L620.5,742.5" id="Line-10" stroke="#000000" stroke-width="1.5" stroke-linecap="square"></path>
            <path d="M776.5,779.5 L776.5,742.5" id="Line-10" stroke="#000000" stroke-width="1.5" stroke-linecap="square"></path>
            <text id="current-char" fill="#000000" font-family="Helvetica-Bold, Helvetica" font-size="20" font-weight="bold">
                <tspan x="0" y="446">current char</tspan>
            </text>
            <path d="M122.5,439.5 L154.562439,439.5" id="Line-11" stroke="#000000" stroke-width="1.5" stroke-linecap="square"></path>
            <text id="predicted-next-char" fill="#000000" font-family="Helvetica-Bold, Helvetica" font-size="20" font-weight="bold">
                <tspan x="1128" y="444">predicted next char</tspan>
            </text>
            <rect id="Rectangle-2" stroke="#000000" stroke-width="3" x="417.5" y="121.5" width="93" height="633"></rect>
            <rect id="Rectangle-2" stroke="#000000" stroke-width="3" x="573.5" y="121.5" width="93" height="633"></rect>
            <rect id="Rectangle-2" stroke="#000000" stroke-width="3" x="729.5" y="121.5" width="93" height="633"></rect>
            <path d="M510.5,438.5 L574,438.5" id="Line-12" stroke="#000000" stroke-width="2" stroke-linecap="square"></path>
            <path d="M667.5,438.5 L731,438.5" id="Line-12" stroke="#000000" stroke-width="2" stroke-linecap="square"></path>
            <path d="M510.589844,469 C512.028498,500.355281 509.897803,461.532285 540.480469,549.832031 C555.141528,592.162148 551.454226,642.416198 550.679688,685.792969 C549.87705,730.743387 554.618409,772.791131 510.121094,796.113281 C502.835977,799.931592 486.696465,799.447844 482,799.789062" id="Path-3" stroke="#000000" stroke-width="2"></path>
            <path d="M822.589844,469 C824.028498,500.355281 821.897803,461.532285 852.480469,549.832031 C867.141528,592.162148 863.454226,642.416198 862.679688,685.792969 C861.87705,730.743387 866.618409,772.791131 822.121094,796.113281 C814.835977,799.931592 798.696465,799.447844 794,799.789062" id="Path-3" stroke="#000000" stroke-width="2"></path>
            <path d="M666.589844,469 C668.028498,500.355281 665.897803,461.532285 696.480469,549.832031 C711.141528,592.162148 707.454226,642.416198 706.679688,685.792969 C705.87705,730.743387 710.618409,772.791131 666.121094,796.113281 C658.835977,799.931592 642.696465,799.447844 638,799.789062" id="Path-3" stroke="#000000" stroke-width="2"></path>
            <polygon id="path22" stroke="#000000" stroke-width="0.9962625" fill="#FFF880" fill-rule="nonzero" transform="translate(1144.716745, 986.716745) scale(-1, 1) rotate(90.000000) translate(-1144.716745, -986.716745) " points="1127 969 1162.43349 969 1162.43349 1004.43349 1127 1004.43349"></polygon>
            <polygon id="path22" stroke="#000000" stroke-width="0.9962625" fill="#FFF880" fill-rule="nonzero" transform="translate(954.716744, 855.716744) scale(-1, 1) rotate(90.000000) translate(-954.716744, -855.716744) " points="937 838 972.433487 838 972.433487 873.433487 937 873.433487"></polygon>
            <polygon id="path22" stroke="#000000" stroke-width="0.9962625" fill="#FFF880" fill-rule="nonzero" transform="translate(1001.716743, 855.716745) scale(-1, 1) rotate(90.000000) translate(-1001.716743, -855.716745) " points="983.999998 838.000001 1019.43349 838.000001 1019.43349 873.433488 983.999998 873.433488"></polygon>
            <polygon id="path22" stroke="#000000" stroke-width="0.9962625" fill="#FFF880" fill-rule="nonzero" transform="translate(1049.716744, 855.716745) scale(-1, 1) rotate(90.000000) translate(-1049.716744, -855.716745) " points="1032 838.000001 1067.43349 838.000001 1067.43349 873.433488 1032 873.433488"></polygon>
            <polygon id="path22" stroke="#000000" stroke-width="0.9962625" fill="#FFF880" fill-rule="nonzero" transform="translate(1096.716744, 855.716745) scale(-1, 1) rotate(90.000000) translate(-1096.716744, -855.716745) " points="1079 838.000001 1114.43349 838.000001 1114.43349 873.433488 1079 873.433488"></polygon>
            <polygon id="path22" stroke="#000000" stroke-width="0.9962625" fill="#FFF880" fill-rule="nonzero" transform="translate(1143.716743, 855.716745) scale(-1, 1) rotate(90.000000) translate(-1143.716743, -855.716745) " points="1126 838.000001 1161.43349 838.000001 1161.43349 873.433488 1126 873.433488"></polygon>
            <polygon id="path22" stroke="#000000" stroke-width="0.9962625" fill="#FFF880" fill-rule="nonzero" transform="translate(1190.716744, 855.716745) scale(-1, 1) rotate(90.000000) translate(-1190.716744, -855.716745) " points="1173 838.000001 1208.43349 838.000001 1208.43349 873.433488 1173 873.433488"></polygon>
            <polygon id="path22" stroke="#000000" stroke-width="0.9962625" fill="#FFF880" fill-rule="nonzero" transform="translate(1238.716744, 855.716745) scale(-1, 1) rotate(90.000000) translate(-1238.716744, -855.716745) " points="1221 838.000001 1256.43349 838.000001 1256.43349 873.433488 1221 873.433488"></polygon>
            <polygon id="path22" stroke="#000000" stroke-width="0.9962625" fill="#FFF880" fill-rule="nonzero" transform="translate(1285.716744, 855.716745) scale(-1, 1) rotate(90.000000) translate(-1285.716744, -855.716745) " points="1268 838.000001 1303.43349 838.000001 1303.43349 873.433488 1268 873.433488"></polygon>
            <polygon id="path22" stroke="#000000" stroke-width="0.9962625" fill="#FFF880" fill-rule="nonzero" transform="translate(1333.716743, 855.716745) scale(-1, 1) rotate(90.000000) translate(-1333.716743, -855.716745) " points="1316 838.000001 1351.43349 838.000001 1351.43349 873.433488 1316 873.433488"></polygon>
            <path d="M1002,1015 L1096,824" id="Line" stroke="#000000" stroke-width="1.5" stroke-linecap="square" transform="translate(1049.000000, 919.500000) rotate(-90.000000) translate(-1049.000000, -919.500000) "></path>
            <path d="M1026,993 L1120,848" id="Line-2" stroke="#000000" stroke-width="1.5" stroke-linecap="square" transform="translate(1073.000000, 920.500000) rotate(-90.000000) translate(-1073.000000, -920.500000) "></path>
            <path d="M1050,968 L1144,873" id="Line-3" stroke="#000000" stroke-width="1.5" stroke-linecap="square" transform="translate(1097.000000, 920.500000) rotate(-90.000000) translate(-1097.000000, -920.500000) "></path>
            <path d="M1073,944 L1168,896" id="Line-4" stroke="#000000" stroke-width="1.5" stroke-linecap="square" transform="translate(1120.500000, 920.000000) rotate(-90.000000) translate(-1120.500000, -920.000000) "></path>
            <path d="M1098.5,920 L1191.5,920" id="Line-5" stroke="#000000" stroke-width="1.5" stroke-linecap="square" transform="translate(1145.000000, 920.750000) rotate(-90.000000) translate(-1145.000000, -920.750000) "></path>
            <path d="M1121.5,897.5 L1215.5,943.5" id="Line-6" stroke="#000000" stroke-width="1.5" stroke-linecap="square" transform="translate(1168.500000, 920.500000) rotate(-90.000000) translate(-1168.500000, -920.500000) "></path>
            <path d="M1145,873 L1240,969" id="Line-7" stroke="#000000" stroke-width="1.5" stroke-linecap="square" transform="translate(1192.500000, 921.000000) rotate(-90.000000) translate(-1192.500000, -921.000000) "></path>
            <path d="M1169.5,849.5 L1264.5,992.5" id="Line-8" stroke="#000000" stroke-width="1.5" stroke-linecap="square" transform="translate(1217.000000, 921.000000) rotate(-90.000000) translate(-1217.000000, -921.000000) "></path>
            <path d="M1192.5,825.5 L1287.5,1016.5" id="Line-9" stroke="#000000" stroke-width="1.5" stroke-linecap="square" transform="translate(1240.000000, 921.000000) rotate(-90.000000) translate(-1240.000000, -921.000000) "></path>
            <path d="M1002,887 L1096,696" id="Line" stroke="#000000" stroke-width="1.5" stroke-linecap="square" transform="translate(1049.000000, 791.500000) scale(-1, 1) rotate(-90.000000) translate(-1049.000000, -791.500000) "></path>
            <path d="M1026,863 L1120,718" id="Line-2" stroke="#000000" stroke-width="1.5" stroke-linecap="square" transform="translate(1073.000000, 790.500000) scale(-1, 1) rotate(-90.000000) translate(-1073.000000, -790.500000) "></path>
            <path d="M1050,838 L1144,743" id="Line-3" stroke="#000000" stroke-width="1.5" stroke-linecap="square" transform="translate(1097.000000, 790.500000) scale(-1, 1) rotate(-90.000000) translate(-1097.000000, -790.500000) "></path>
            <path d="M1073,815 L1168,767" id="Line-4" stroke="#000000" stroke-width="1.5" stroke-linecap="square" transform="translate(1120.500000, 791.000000) scale(-1, 1) rotate(-90.000000) translate(-1120.500000, -791.000000) "></path>
            <path d="M1097.5,789 L1190.5,789" id="Line-5" stroke="#000000" stroke-width="1.5" stroke-linecap="square" transform="translate(1144.000000, 789.750000) scale(-1, 1) rotate(-90.000000) translate(-1144.000000, -789.750000) "></path>
            <path d="M1121.5,767.5 L1215.5,813.5" id="Line-6" stroke="#000000" stroke-width="1.5" stroke-linecap="square" transform="translate(1168.500000, 790.500000) scale(-1, 1) rotate(-90.000000) translate(-1168.500000, -790.500000) "></path>
            <path d="M1145,742 L1240,838" id="Line-7" stroke="#000000" stroke-width="1.5" stroke-linecap="square" transform="translate(1192.500000, 790.000000) scale(-1, 1) rotate(-90.000000) translate(-1192.500000, -790.000000) "></path>
            <path d="M1169.5,718.5 L1264.5,861.5" id="Line-8" stroke="#000000" stroke-width="1.5" stroke-linecap="square" transform="translate(1217.000000, 790.000000) scale(-1, 1) rotate(-90.000000) translate(-1217.000000, -790.000000) "></path>
            <path d="M1192.5,694.5 L1287.5,885.5" id="Line-9" stroke="#000000" stroke-width="1.5" stroke-linecap="square" transform="translate(1240.000000, 790.000000) scale(-1, 1) rotate(-90.000000) translate(-1240.000000, -790.000000) "></path>
            <path d="M1129.96878,1019 L1162.03122,1019" id="Line-11" stroke="#000000" stroke-width="1.5" stroke-linecap="square" transform="translate(1146.000000, 1019.750000) rotate(-90.000000) translate(-1146.000000, -1019.750000) "></path>
            <rect id="Rectangle-3" stroke="#FF0000" stroke-width="8" x="908" y="680" width="555" height="404"></rect>
            <polygon id="path22" stroke="#000000" stroke-width="0.9962625" fill="#9013FE" fill-rule="nonzero" transform="translate(1146.716743, 724.716745) rotate(-180.000000) translate(-1146.716743, -724.716745) " points="1129 707.000001 1164.43349 707.000001 1164.43349 742.433488 1129 742.433488"></polygon>
            <path d="M1165.5,724 L1340.5,724" id="Line-5" stroke="#000000" stroke-width="1.5" stroke-linecap="square" transform="translate(1253.000000, 724.750000) scale(-1, 1) translate(-1253.000000, -724.750000) "></path>
            <text id="loss" fill="#000000" font-family="Helvetica-Bold, Helvetica" font-size="43" font-weight="bold">
                <tspan x="1344" y="738">loss</tspan>
            </text>
            <text id="expected-next-char" fill="#000000" font-family="Helvetica-Bold, Helvetica" font-size="20" font-weight="bold">
                <tspan x="1058" y="1059">expected next char</tspan>
            </text>
            <polygon id="path22" stroke="#000000" stroke-width="0.9962625" fill="#9013FE" fill-rule="nonzero" transform="translate(936.716744, 627.716745) rotate(-180.000000) translate(-936.716744, -627.716745) " points="919.000001 610.000001 954.433488 610.000001 954.433488 645.433488 919.000001 645.433488"></polygon>
            <text id="Input" fill="#000000" font-family="Helvetica-Bold, Helvetica" font-size="52" font-weight="bold">
                <tspan x="57" y="267">Input</tspan>
            </text>
            <text id="Output" fill="#000000" font-family="Helvetica-Bold, Helvetica" font-size="52" font-weight="bold">
                <tspan x="1056" y="306">Output</tspan>
            </text>
            <text id="Accuracy/Loss-Calculation" fill="#000000" font-family="Helvetica-Bold, Helvetica" font-size="52" font-weight="bold">
                <tspan x="854" y="1145">Accuracy/Loss Calculation</tspan>
            </text>
            <text id="Hidden-Recurrent-Layers" fill="#000000" font-family="Helvetica-Bold, Helvetica" font-size="52" font-weight="bold">
                <tspan x="311" y="50">Hidden Recurrent Layers</tspan>
            </text>
        </g>
    </g>
</svg>