<?xml version="1.0" encoding="UTF-8"?>
<svg width="1312px" height="696px" viewBox="0 0 1312 696" version="1.1" xmlns="http://www.w3.org/2000/svg" xmlns:xlink="http://www.w3.org/1999/xlink">
    <!-- Generator: Sketch 47 (45396) - http://www.bohemiancoding.com/sketch -->
    <title>Group</title>
    <desc>Created with Sketch.</desc>
    <defs></defs>
    <g id="Page-1" stroke="none" stroke-width="1" fill="none" fill-rule="evenodd">
        <g id="Group" transform="translate(0.000000, 1.000000)">
            <polygon id="path22" stroke="#000000" stroke-width="0.9962625" fill="#FFF880" fill-rule="nonzero" transform="translate(172.716744, 317.716745) scale(-1, 1) rotate(-180.000000) translate(-172.716744, -317.716745) " points="155 300.000001 190.433488 300.000001 190.433488 335.433488 155 335.433488"></polygon>
            <polygon id="path22" stroke="#000000" stroke-width="0.9962625" fill="#FFF880" fill-rule="nonzero" transform="translate(303.716744, 127.716744) scale(-1, 1) rotate(-180.000000) translate(-303.716744, -127.716744) " points="286 110.000001 321.433488 110.000001 321.433488 145.433488 286 145.433488"></polygon>
            <polygon id="path22" stroke="#000000" stroke-width="0.9962625" fill="#FFF880" fill-rule="nonzero" transform="translate(303.716744, 174.716744) scale(-1, 1) rotate(-180.000000) translate(-303.716744, -174.716744) " points="286 157.000001 321.433488 157.000001 321.433488 192.433488 286 192.433488"></polygon>
            <polygon id="path22" stroke="#000000" stroke-width="0.9962625" fill="#FFF880" fill-rule="nonzero" transform="translate(303.716744, 222.716744) scale(-1, 1) rotate(-180.000000) translate(-303.716744, -222.716744) " points="286 205.000001 321.433488 205.000001 321.433488 240.433488 286 240.433488"></polygon>
            <polygon id="path22" stroke="#000000" stroke-width="0.9962625" fill="#FFF880" fill-rule="nonzero" transform="translate(303.716744, 269.716745) scale(-1, 1) rotate(-180.000000) translate(-303.716744, -269.716745) " points="286 252.000001 321.433488 252.000001 321.433488 287.433488 286 287.433488"></polygon>
            <polygon id="path22" stroke="#000000" stroke-width="0.9962625" fill="#FFF880" fill-rule="nonzero" transform="translate(303.716744, 316.716745) scale(-1, 1) rotate(-180.000000) translate(-303.716744, -316.716745) " points="286 299.000001 321.433488 299.000001 321.433488 334.433488 286 334.433488"></polygon>
            <polygon id="path22" stroke="#000000" stroke-width="0.9962625" fill="#FFF880" fill-rule="nonzero" transform="translate(303.716744, 363.716745) scale(-1, 1) rotate(-180.000000) translate(-303.716744, -363.716745) " points="286 346.000001 321.433488 346.000001 321.433488 381.433488 286 381.433488"></polygon>
            <polygon id="path22" stroke="#000000" stroke-width="0.9962625" fill="#FFF880" fill-rule="nonzero" transform="translate(303.716744, 411.716745) scale(-1, 1) rotate(-180.000000) translate(-303.716744, -411.716745) " points="286 394.000001 321.433488 394.000001 321.433488 429.433488 286 429.433488"></polygon>
            <polygon id="path22" stroke="#000000" stroke-width="0.9962625" fill="#FFF880" fill-rule="nonzero" transform="translate(303.716744, 458.716745) scale(-1, 1) rotate(-180.000000) translate(-303.716744, -458.716745) " points="286 441.000001 321.433488 441.000001 321.433488 476.433488 286 476.433488"></polygon>
            <polygon id="path22" stroke="#000000" stroke-width="0.9962625" fill="#FFF880" fill-rule="nonzero" transform="translate(303.716744, 506.716745) scale(-1, 1) rotate(-180.000000) translate(-303.716744, -506.716745) " points="286 489.000001 321.433488 489.000001 321.433488 524.433488 286 524.433488"></polygon>
            <polygon id="path22" stroke="#000000" stroke-width="0.9962625" fill="#FFF880" fill-rule="nonzero" transform="translate(463.716744, 676.716744) scale(-1, 1) rotate(-180.000000) translate(-463.716744, -676.716744) " points="446 659.000001 481.433488 659.000001 481.433488 694.433488 446 694.433488"></polygon>
            <polygon id="path22" stroke="#000000" stroke-width="0.9962625" fill="#FFF880" fill-rule="nonzero" transform="translate(775.716744, 676.716745) scale(-1, 1) rotate(-180.000000) translate(-775.716744, -676.716745) " points="758 659.000001 793.433487 659.000001 793.433487 694.433488 758 694.433488"></polygon>
            <polygon id="path22" stroke="#000000" stroke-width="0.9962625" fill="#FFF880" fill-rule="nonzero" transform="translate(619.716744, 676.716745) scale(-1, 1) rotate(-180.000000) translate(-619.716744, -676.716745) " points="602 659.000001 637.433487 659.000001 637.433487 694.433488 602 694.433488"></polygon>
            <polygon id="path22" stroke="#000000" stroke-width="0.9962625" fill="#9013FE" fill-rule="nonzero" transform="translate(1068.716743, 316.716745) rotate(-180.000000) translate(-1068.716743, -316.716745) " points="1051 299.000001 1086.43349 299.000001 1086.43349 334.433488 1051 334.433488"></polygon>
            <path d="M481.4335,30.71675 C481.4335,40.5015625 473.501562,48.4335 463.71675,48.4335 C453.931938,48.4335 446,40.5015625 446,30.71675 C446,20.931925 453.931938,13 463.71675,13 C473.501562,13 481.4335,20.931925 481.4335,30.71675 L481.4335,30.71675 Z" id="path386" stroke="#000000" stroke-width="0.9962625" fill="#8080FF" fill-rule="nonzero" transform="translate(463.716750, 30.716750) scale(-1, 1) rotate(-180.000000) translate(-463.716750, -30.716750) "></path>
            <rect id="path-1" fill="#7ED321" x="434" y="573" width="60" height="49"></rect>
            <rect id="Rectangle-path" stroke="#000000" x="434.5" y="573.5" width="59" height="48"></rect>
            <path d="M481.4335,76.71675 C481.4335,86.5015625 473.501562,94.4335 463.71675,94.4335 C453.931938,94.4335 446,86.5015625 446,76.71675 C446,66.931925 453.931938,59 463.71675,59 C473.501562,59 481.4335,66.931925 481.4335,76.71675 L481.4335,76.71675 Z" id="path386" stroke="#000000" stroke-width="0.9962625" fill="#8080FF" fill-rule="nonzero" transform="translate(463.716750, 76.716750) scale(-1, 1) rotate(-180.000000) translate(-463.716750, -76.716750) "></path>
            <path d="M481.4335,122.71675 C481.4335,132.501563 473.501562,140.4335 463.71675,140.4335 C453.931938,140.4335 446,132.501563 446,122.71675 C446,112.931925 453.931938,105 463.71675,105 C473.501562,105 481.4335,112.931925 481.4335,122.71675 L481.4335,122.71675 Z" id="path386" stroke="#000000" stroke-width="0.9962625" fill="#8080FF" fill-rule="nonzero" transform="translate(463.716750, 122.716750) scale(-1, 1) rotate(-180.000000) translate(-463.716750, -122.716750) "></path>
            <path d="M481.4335,168.71675 C481.4335,178.501563 473.501562,186.4335 463.71675,186.4335 C453.931938,186.4335 446,178.501563 446,168.71675 C446,158.931925 453.931938,151 463.71675,151 C473.501562,151 481.4335,158.931925 481.4335,168.71675 L481.4335,168.71675 Z" id="path386" stroke="#000000" stroke-width="0.9962625" fill="#8080FF" fill-rule="nonzero" transform="translate(463.716750, 168.716750) scale(-1, 1) rotate(-180.000000) translate(-463.716750, -168.716750) "></path>
            <path d="M481.4335,214.71675 C481.4335,224.501563 473.501562,232.4335 463.71675,232.4335 C453.931938,232.4335 446,224.501563 446,214.71675 C446,204.931925 453.931938,197 463.71675,197 C473.501562,197 481.4335,204.931925 481.4335,214.71675 L481.4335,214.71675 Z" id="path386" stroke="#000000" stroke-width="0.9962625" fill="#8080FF" fill-rule="nonzero" transform="translate(463.716750, 214.716750) scale(-1, 1) rotate(-180.000000) translate(-463.716750, -214.716750) "></path>
            <path d="M481.4335,260.71675 C481.4335,270.501563 473.501562,278.4335 463.71675,278.4335 C453.931938,278.4335 446,270.501563 446,260.71675 C446,250.931925 453.931938,243 463.71675,243 C473.501562,243 481.4335,250.931925 481.4335,260.71675 L481.4335,260.71675 Z" id="path386" stroke="#000000" stroke-width="0.9962625" fill="#8080FF" fill-rule="nonzero" transform="translate(463.716750, 260.716750) scale(-1, 1) rotate(-180.000000) translate(-463.716750, -260.716750) "></path>
            <path d="M481.4335,306.71675 C481.4335,316.501563 473.501562,324.4335 463.71675,324.4335 C453.931938,324.4335 446,316.501563 446,306.71675 C446,296.931925 453.931938,289 463.71675,289 C473.501562,289 481.4335,296.931925 481.4335,306.71675 L481.4335,306.71675 Z" id="path386" stroke="#000000" stroke-width="0.9962625" fill="#8080FF" fill-rule="nonzero" transform="translate(463.716750, 306.716750) scale(-1, 1) rotate(-180.000000) translate(-463.716750, -306.716750) "></path>
            <path d="M481.4335,352.71675 C481.4335,362.501563 473.501562,370.4335 463.71675,370.4335 C453.931938,370.4335 446,362.501563 446,352.71675 C446,342.931925 453.931938,335 463.71675,335 C473.501562,335 481.4335,342.931925 481.4335,352.71675 L481.4335,352.71675 Z" id="path386" stroke="#000000" stroke-width="0.9962625" fill="#8080FF" fill-rule="nonzero" transform="translate(463.716750, 352.716750) scale(-1, 1) rotate(-180.000000) translate(-463.716750, -352.716750) "></path>
            <path d="M481.4335,401.71675 C481.4335,411.501563 473.501562,419.4335 463.71675,419.4335 C453.931938,419.4335 446,411.501563 446,401.71675 C446,391.931925 453.931938,384 463.71675,384 C473.501562,384 481.4335,391.931925 481.4335,401.71675 L481.4335,401.71675 Z" id="path386" stroke="#000000" stroke-width="0.9962625" fill="#8080FF" fill-rule="nonzero" transform="translate(463.716750, 401.716750) scale(-1, 1) rotate(-180.000000) translate(-463.716750, -401.716750) "></path>
            <path d="M481.4335,447.71675 C481.4335,457.501563 473.501562,465.4335 463.71675,465.4335 C453.931938,465.4335 446,457.501563 446,447.71675 C446,437.931925 453.931938,430 463.71675,430 C473.501562,430 481.4335,437.931925 481.4335,447.71675 L481.4335,447.71675 Z" id="path386" stroke="#000000" stroke-width="0.9962625" fill="#8080FF" fill-rule="nonzero" transform="translate(463.716750, 447.716750) scale(-1, 1) rotate(-180.000000) translate(-463.716750, -447.716750) "></path>
            <path d="M481.4335,493.71675 C481.4335,503.501563 473.501562,511.4335 463.71675,511.4335 C453.931938,511.4335 446,503.501563 446,493.71675 C446,483.931925 453.931938,476 463.71675,476 C473.501562,476 481.4335,483.931925 481.4335,493.71675 L481.4335,493.71675 Z" id="path386" stroke="#000000" stroke-width="0.9962625" fill="#8080FF" fill-rule="nonzero" transform="translate(463.716750, 493.716750) scale(-1, 1) rotate(-180.000000) translate(-463.716750, -493.716750) "></path>
            <path d="M481.4335,539.71675 C481.4335,549.501563 473.501562,557.4335 463.71675,557.4335 C453.931938,557.4335 446,549.501563 446,539.71675 C446,529.931925 453.931938,522 463.71675,522 C473.501562,522 481.4335,529.931925 481.4335,539.71675 L481.4335,539.71675 Z" id="path386" stroke="#000000" stroke-width="0.9962625" fill="#8080FF" fill-rule="nonzero" transform="translate(463.716750, 539.716750) scale(-1, 1) rotate(-180.000000) translate(-463.716750, -539.716750) "></path>
            <path d="M637.4335,30.71675 C637.4335,40.5015625 629.501562,48.4335 619.71675,48.4335 C609.931938,48.4335 602,40.5015625 602,30.71675 C602,20.931925 609.931938,13 619.71675,13 C629.501562,13 637.4335,20.931925 637.4335,30.71675 L637.4335,30.71675 Z" id="path386" stroke="#000000" stroke-width="0.9962625" fill="#8080FF" fill-rule="nonzero" transform="translate(619.716750, 30.716750) scale(-1, 1) rotate(-180.000000) translate(-619.716750, -30.716750) "></path>
            <rect id="path-2" fill="#7ED321" x="590" y="573" width="60" height="49"></rect>
            <rect id="Rectangle-path" stroke="#000000" x="590.5" y="573.5" width="59" height="48"></rect>
            <path d="M637.4335,76.71675 C637.4335,86.5015625 629.501562,94.4335 619.71675,94.4335 C609.931938,94.4335 602,86.5015625 602,76.71675 C602,66.931925 609.931938,59 619.71675,59 C629.501562,59 637.4335,66.931925 637.4335,76.71675 L637.4335,76.71675 Z" id="path386" stroke="#000000" stroke-width="0.9962625" fill="#8080FF" fill-rule="nonzero" transform="translate(619.716750, 76.716750) scale(-1, 1) rotate(-180.000000) translate(-619.716750, -76.716750) "></path>
            <path d="M637.4335,122.71675 C637.4335,132.501563 629.501562,140.4335 619.71675,140.4335 C609.931938,140.4335 602,132.501563 602,122.71675 C602,112.931925 609.931938,105 619.71675,105 C629.501562,105 637.4335,112.931925 637.4335,122.71675 L637.4335,122.71675 Z" id="path386" stroke="#000000" stroke-width="0.9962625" fill="#8080FF" fill-rule="nonzero" transform="translate(619.716750, 122.716750) scale(-1, 1) rotate(-180.000000) translate(-619.716750, -122.716750) "></path>
            <path d="M637.4335,168.71675 C637.4335,178.501563 629.501562,186.4335 619.71675,186.4335 C609.931938,186.4335 602,178.501563 602,168.71675 C602,158.931925 609.931938,151 619.71675,151 C629.501562,151 637.4335,158.931925 637.4335,168.71675 L637.4335,168.71675 Z" id="path386" stroke="#000000" stroke-width="0.9962625" fill="#8080FF" fill-rule="nonzero" transform="translate(619.716750, 168.716750) scale(-1, 1) rotate(-180.000000) translate(-619.716750, -168.716750) "></path>
            <path d="M637.4335,214.71675 C637.4335,224.501563 629.501562,232.4335 619.71675,232.4335 C609.931938,232.4335 602,224.501563 602,214.71675 C602,204.931925 609.931938,197 619.71675,197 C629.501562,197 637.4335,204.931925 637.4335,214.71675 L637.4335,214.71675 Z" id="path386" stroke="#000000" stroke-width="0.9962625" fill="#8080FF" fill-rule="nonzero" transform="translate(619.716750, 214.716750) scale(-1, 1) rotate(-180.000000) translate(-619.716750, -214.716750) "></path>
            <path d="M637.4335,260.71675 C637.4335,270.501563 629.501562,278.4335 619.71675,278.4335 C609.931938,278.4335 602,270.501563 602,260.71675 C602,250.931925 609.931938,243 619.71675,243 C629.501562,243 637.4335,250.931925 637.4335,260.71675 L637.4335,260.71675 Z" id="path386" stroke="#000000" stroke-width="0.9962625" fill="#8080FF" fill-rule="nonzero" transform="translate(619.716750, 260.716750) scale(-1, 1) rotate(-180.000000) translate(-619.716750, -260.716750) "></path>
            <path d="M637.4335,306.71675 C637.4335,316.501563 629.501562,324.4335 619.71675,324.4335 C609.931938,324.4335 602,316.501563 602,306.71675 C602,296.931925 609.931938,289 619.71675,289 C629.501562,289 637.4335,296.931925 637.4335,306.71675 L637.4335,306.71675 Z" id="path386" stroke="#000000" stroke-width="0.9962625" fill="#8080FF" fill-rule="nonzero" transform="translate(619.716750, 306.716750) scale(-1, 1) rotate(-180.000000) translate(-619.716750, -306.716750) "></path>
            <path d="M637.4335,352.71675 C637.4335,362.501563 629.501562,370.4335 619.71675,370.4335 C609.931938,370.4335 602,362.501563 602,352.71675 C602,342.931925 609.931938,335 619.71675,335 C629.501562,335 637.4335,342.931925 637.4335,352.71675 L637.4335,352.71675 Z" id="path386" stroke="#000000" stroke-width="0.9962625" fill="#8080FF" fill-rule="nonzero" transform="translate(619.716750, 352.716750) scale(-1, 1) rotate(-180.000000) translate(-619.716750, -352.716750) "></path>
            <path d="M637.4335,401.71675 C637.4335,411.501563 629.501562,419.4335 619.71675,419.4335 C609.931938,419.4335 602,411.501563 602,401.71675 C602,391.931925 609.931938,384 619.71675,384 C629.501562,384 637.4335,391.931925 637.4335,401.71675 L637.4335,401.71675 Z" id="path386" stroke="#000000" stroke-width="0.9962625" fill="#8080FF" fill-rule="nonzero" transform="translate(619.716750, 401.716750) scale(-1, 1) rotate(-180.000000) translate(-619.716750, -401.716750) "></path>
            <path d="M637.4335,447.71675 C637.4335,457.501563 629.501562,465.4335 619.71675,465.4335 C609.931938,465.4335 602,457.501563 602,447.71675 C602,437.931925 609.931938,430 619.71675,430 C629.501562,430 637.4335,437.931925 637.4335,447.71675 L637.4335,447.71675 Z" id="path386" stroke="#000000" stroke-width="0.9962625" fill="#8080FF" fill-rule="nonzero" transform="translate(619.716750, 447.716750) scale(-1, 1) rotate(-180.000000) translate(-619.716750, -447.716750) "></path>
            <path d="M637.4335,493.71675 C637.4335,503.501563 629.501562,511.4335 619.71675,511.4335 C609.931938,511.4335 602,503.501563 602,493.71675 C602,483.931925 609.931938,476 619.71675,476 C629.501562,476 637.4335,483.931925 637.4335,493.71675 L637.4335,493.71675 Z" id="path386" stroke="#000000" stroke-width="0.9962625" fill="#8080FF" fill-rule="nonzero" transform="translate(619.716750, 493.716750) scale(-1, 1) rotate(-180.000000) translate(-619.716750, -493.716750) "></path>
            <path d="M637.4335,539.71675 C637.4335,549.501563 629.501562,557.4335 619.71675,557.4335 C609.931938,557.4335 602,549.501563 602,539.71675 C602,529.931925 609.931938,522 619.71675,522 C629.501562,522 637.4335,529.931925 637.4335,539.71675 L637.4335,539.71675 Z" id="path386" stroke="#000000" stroke-width="0.9962625" fill="#8080FF" fill-rule="nonzero" transform="translate(619.716750, 539.716750) scale(-1, 1) rotate(-180.000000) translate(-619.716750, -539.716750) "></path>
            <path d="M793.4335,30.71675 C793.4335,40.5015625 785.501562,48.4335 775.71675,48.4335 C765.931938,48.4335 758,40.5015625 758,30.71675 C758,20.931925 765.931938,13 775.71675,13 C785.501562,13 793.4335,20.931925 793.4335,30.71675 L793.4335,30.71675 Z" id="path386" stroke="#000000" stroke-width="0.9962625" fill="#8080FF" fill-rule="nonzero" transform="translate(775.716750, 30.716750) scale(-1, 1) rotate(-180.000000) translate(-775.716750, -30.716750) "></path>
            <rect id="path-3" fill="#7ED321" x="746" y="573" width="60" height="49"></rect>
            <rect id="Rectangle-path" stroke="#000000" x="746.5" y="573.5" width="59" height="48"></rect>
            <path d="M793.4335,76.71675 C793.4335,86.5015625 785.501562,94.4335 775.71675,94.4335 C765.931938,94.4335 758,86.5015625 758,76.71675 C758,66.931925 765.931938,59 775.71675,59 C785.501562,59 793.4335,66.931925 793.4335,76.71675 L793.4335,76.71675 Z" id="path386" stroke="#000000" stroke-width="0.9962625" fill="#8080FF" fill-rule="nonzero" transform="translate(775.716750, 76.716750) scale(-1, 1) rotate(-180.000000) translate(-775.716750, -76.716750) "></path>
            <path d="M793.4335,122.71675 C793.4335,132.501563 785.501562,140.4335 775.71675,140.4335 C765.931938,140.4335 758,132.501563 758,122.71675 C758,112.931925 765.931938,105 775.71675,105 C785.501562,105 793.4335,112.931925 793.4335,122.71675 L793.4335,122.71675 Z" id="path386" stroke="#000000" stroke-width="0.9962625" fill="#8080FF" fill-rule="nonzero" transform="translate(775.716750, 122.716750) scale(-1, 1) rotate(-180.000000) translate(-775.716750, -122.716750) "></path>
            <path d="M793.4335,168.71675 C793.4335,178.501563 785.501562,186.4335 775.71675,186.4335 C765.931938,186.4335 758,178.501563 758,168.71675 C758,158.931925 765.931938,151 775.71675,151 C785.501562,151 793.4335,158.931925 793.4335,168.71675 L793.4335,168.71675 Z" id="path386" stroke="#000000" stroke-width="0.9962625" fill="#8080FF" fill-rule="nonzero" transform="translate(775.716750, 168.716750) scale(-1, 1) rotate(-180.000000) translate(-775.716750, -168.716750) "></path>
            <path d="M793.4335,214.71675 C793.4335,224.501563 785.501562,232.4335 775.71675,232.4335 C765.931938,232.4335 758,224.501563 758,214.71675 C758,204.931925 765.931938,197 775.71675,197 C785.501562,197 793.4335,204.931925 793.4335,214.71675 L793.4335,214.71675 Z" id="path386" stroke="#000000" stroke-width="0.9962625" fill="#8080FF" fill-rule="nonzero" transform="translate(775.716750, 214.716750) scale(-1, 1) rotate(-180.000000) translate(-775.716750, -214.716750) "></path>
            <path d="M793.4335,260.71675 C793.4335,270.501563 785.501562,278.4335 775.71675,278.4335 C765.931938,278.4335 758,270.501563 758,260.71675 C758,250.931925 765.931938,243 775.71675,243 C785.501562,243 793.4335,250.931925 793.4335,260.71675 L793.4335,260.71675 Z" id="path386" stroke="#000000" stroke-width="0.9962625" fill="#8080FF" fill-rule="nonzero" transform="translate(775.716750, 260.716750) scale(-1, 1) rotate(-180.000000) translate(-775.716750, -260.716750) "></path>
            <path d="M793.4335,306.71675 C793.4335,316.501563 785.501562,324.4335 775.71675,324.4335 C765.931938,324.4335 758,316.501563 758,306.71675 C758,296.931925 765.931938,289 775.71675,289 C785.501562,289 793.4335,296.931925 793.4335,306.71675 L793.4335,306.71675 Z" id="path386" stroke="#000000" stroke-width="0.9962625" fill="#8080FF" fill-rule="nonzero" transform="translate(775.716750, 306.716750) scale(-1, 1) rotate(-180.000000) translate(-775.716750, -306.716750) "></path>
            <path d="M793.4335,352.71675 C793.4335,362.501563 785.501562,370.4335 775.71675,370.4335 C765.931938,370.4335 758,362.501563 758,352.71675 C758,342.931925 765.931938,335 775.71675,335 C785.501562,335 793.4335,342.931925 793.4335,352.71675 L793.4335,352.71675 Z" id="path386" stroke="#000000" stroke-width="0.9962625" fill="#8080FF" fill-rule="nonzero" transform="translate(775.716750, 352.716750) scale(-1, 1) rotate(-180.000000) translate(-775.716750, -352.716750) "></path>
            <path d="M793.4335,401.71675 C793.4335,411.501563 785.501562,419.4335 775.71675,419.4335 C765.931938,419.4335 758,411.501563 758,401.71675 C758,391.931925 765.931938,384 775.71675,384 C785.501562,384 793.4335,391.931925 793.4335,401.71675 L793.4335,401.71675 Z" id="path386" stroke="#000000" stroke-width="0.9962625" fill="#8080FF" fill-rule="nonzero" transform="translate(775.716750, 401.716750) scale(-1, 1) rotate(-180.000000) translate(-775.716750, -401.716750) "></path>
            <path d="M793.4335,447.71675 C793.4335,457.501563 785.501562,465.4335 775.71675,465.4335 C765.931938,465.4335 758,457.501563 758,447.71675 C758,437.931925 765.931938,430 775.71675,430 C785.501562,430 793.4335,437.931925 793.4335,447.71675 L793.4335,447.71675 Z" id="path386" stroke="#000000" stroke-width="0.9962625" fill="#8080FF" fill-rule="nonzero" transform="translate(775.716750, 447.716750) scale(-1, 1) rotate(-180.000000) translate(-775.716750, -447.716750) "></path>
            <path d="M793.4335,493.71675 C793.4335,503.501563 785.501562,511.4335 775.71675,511.4335 C765.931938,511.4335 758,503.501563 758,493.71675 C758,483.931925 765.931938,476 775.71675,476 C785.501562,476 793.4335,483.931925 793.4335,493.71675 L793.4335,493.71675 Z" id="path386" stroke="#000000" stroke-width="0.9962625" fill="#8080FF" fill-rule="nonzero" transform="translate(775.716750, 493.716750) scale(-1, 1) rotate(-180.000000) translate(-775.716750, -493.716750) "></path>
            <path d="M793.4335,539.71675 C793.4335,549.501563 785.501562,557.4335 775.71675,557.4335 C765.931938,557.4335 758,549.501563 758,539.71675 C758,529.931925 765.931938,522 775.71675,522 C785.501562,522 793.4335,529.931925 793.4335,539.71675 L793.4335,539.71675 Z" id="path386" stroke="#000000" stroke-width="0.9962625" fill="#8080FF" fill-rule="nonzero" transform="translate(775.716750, 539.716750) scale(-1, 1) rotate(-180.000000) translate(-775.716750, -539.716750) "></path>
            <path d="M192.5,317.5 L286.5,126.5" id="Line" stroke="#000000" stroke-width="1.5" stroke-linecap="square"></path>
            <path d="M191.5,318.5 L285.5,173.5" id="Line-2" stroke="#000000" stroke-width="1.5" stroke-linecap="square"></path>
            <path d="M191.5,317.5 L285.5,222.5" id="Line-3" stroke="#000000" stroke-width="1.5" stroke-linecap="square"></path>
            <path d="M191.5,317.5 L286.5,269.5" id="Line-4" stroke="#000000" stroke-width="1.5" stroke-linecap="square"></path>
            <path d="M191.5,317.5 L284.5,317.5" id="Line-5" stroke="#000000" stroke-width="1.5" stroke-linecap="square"></path>
            <path d="M191.5,318.5 L285.5,364.5" id="Line-6" stroke="#000000" stroke-width="1.5" stroke-linecap="square"></path>
            <path d="M190.5,317.5 L285.5,413.5" id="Line-7" stroke="#000000" stroke-width="1.5" stroke-linecap="square"></path>
            <path d="M190.5,318.5 L285.5,461.5" id="Line-8" stroke="#000000" stroke-width="1.5" stroke-linecap="square"></path>
            <path d="M825.5,317.5 L919.5,126.5" id="Line" stroke="#000000" stroke-width="1.5" stroke-linecap="square"></path>
            <path d="M190.5,317.5 L285.5,508.5" id="Line-9" stroke="#000000" stroke-width="1.5" stroke-linecap="square"></path>
            <path d="M824.5,318.5 L918.5,173.5" id="Line-2" stroke="#000000" stroke-width="1.5" stroke-linecap="square"></path>
            <path d="M824.5,317.5 L918.5,222.5" id="Line-3" stroke="#000000" stroke-width="1.5" stroke-linecap="square"></path>
            <path d="M824.5,317.5 L919.5,269.5" id="Line-4" stroke="#000000" stroke-width="1.5" stroke-linecap="square"></path>
            <path d="M824.5,317.5 L917.5,317.5" id="Line-5" stroke="#000000" stroke-width="1.5" stroke-linecap="square"></path>
            <path d="M824.5,318.5 L918.5,364.5" id="Line-6" stroke="#000000" stroke-width="1.5" stroke-linecap="square"></path>
            <path d="M823.5,317.5 L918.5,413.5" id="Line-7" stroke="#000000" stroke-width="1.5" stroke-linecap="square"></path>
            <path d="M823.5,318.5 L918.5,461.5" id="Line-8" stroke="#000000" stroke-width="1.5" stroke-linecap="square"></path>
            <path d="M823.5,317.5 L919.5,508.5" id="Line-9" stroke="#000000" stroke-width="1.5" stroke-linecap="square"></path>
            <path d="M953.5,317.5 L1047.5,126.5" id="Line" stroke="#000000" stroke-width="1.5" stroke-linecap="square" transform="translate(1000.500000, 222.000000) scale(-1, 1) translate(-1000.500000, -222.000000) "></path>
            <path d="M954.5,318.5 L1048.5,173.5" id="Line-2" stroke="#000000" stroke-width="1.5" stroke-linecap="square" transform="translate(1001.500000, 246.000000) scale(-1, 1) translate(-1001.500000, -246.000000) "></path>
            <path d="M954.5,317.5 L1048.5,222.5" id="Line-3" stroke="#000000" stroke-width="1.5" stroke-linecap="square" transform="translate(1001.500000, 270.000000) scale(-1, 1) translate(-1001.500000, -270.000000) "></path>
            <path d="M953.5,317.5 L1048.5,269.5" id="Line-4" stroke="#000000" stroke-width="1.5" stroke-linecap="square" transform="translate(1001.000000, 293.500000) scale(-1, 1) translate(-1001.000000, -293.500000) "></path>
            <path d="M955.5,317 L1048.5,317" id="Line-5" stroke="#000000" stroke-width="1.5" stroke-linecap="square" transform="translate(1002.000000, 317.750000) scale(-1, 1) translate(-1002.000000, -317.750000) "></path>
            <path d="M1087.5,316 L1124.5,316" id="Line-5" stroke="#000000" stroke-width="1.5" stroke-linecap="square" transform="translate(1106.000000, 316.750000) scale(-1, 1) translate(-1106.000000, -316.750000) "></path>
            <path d="M954.5,318.5 L1048.5,364.5" id="Line-6" stroke="#000000" stroke-width="1.5" stroke-linecap="square" transform="translate(1001.500000, 341.500000) scale(-1, 1) translate(-1001.500000, -341.500000) "></path>
            <path d="M954.5,317.5 L1049.5,413.5" id="Line-7" stroke="#000000" stroke-width="1.5" stroke-linecap="square" transform="translate(1002.000000, 365.500000) scale(-1, 1) translate(-1002.000000, -365.500000) "></path>
            <path d="M954.5,318.5 L1049.5,461.5" id="Line-8" stroke="#000000" stroke-width="1.5" stroke-linecap="square" transform="translate(1002.000000, 390.000000) scale(-1, 1) translate(-1002.000000, -390.000000) "></path>
            <polygon id="path22" stroke="#000000" stroke-width="0.9962625" fill="#9013FE" fill-rule="nonzero" transform="translate(936.716744, 127.716745) rotate(-180.000000) translate(-936.716744, -127.716745) " points="919.000001 110.000001 954.433488 110.000001 954.433488 145.433488 919.000001 145.433488"></polygon>
            <polygon id="path22" stroke="#000000" stroke-width="0.9962625" fill="#9013FE" fill-rule="nonzero" transform="translate(936.716744, 174.716745) rotate(-180.000000) translate(-936.716744, -174.716745) " points="919.000001 157.000001 954.433488 157.000001 954.433488 192.433488 919.000001 192.433488"></polygon>
            <polygon id="path22" stroke="#000000" stroke-width="0.9962625" fill="#9013FE" fill-rule="nonzero" transform="translate(936.716744, 222.716745) rotate(-180.000000) translate(-936.716744, -222.716745) " points="919.000001 205.000001 954.433488 205.000001 954.433488 240.433488 919.000001 240.433488"></polygon>
            <polygon id="path22" stroke="#000000" stroke-width="0.9962625" fill="#9013FE" fill-rule="nonzero" transform="translate(936.716744, 269.716745) rotate(-180.000000) translate(-936.716744, -269.716745) " points="919.000001 252.000001 954.433488 252.000001 954.433488 287.433488 919.000001 287.433488"></polygon>
            <polygon id="path22" stroke="#000000" stroke-width="0.9962625" fill="#9013FE" fill-rule="nonzero" transform="translate(936.716744, 316.716745) rotate(-180.000000) translate(-936.716744, -316.716745) " points="919.000001 299.000001 954.433488 299.000001 954.433488 334.433488 919.000001 334.433488"></polygon>
            <polygon id="path22" stroke="#000000" stroke-width="0.9962625" fill="#9013FE" fill-rule="nonzero" transform="translate(936.716744, 363.716745) rotate(-180.000000) translate(-936.716744, -363.716745) " points="919.000001 346.000001 954.433488 346.000001 954.433488 381.433488 919.000001 381.433488"></polygon>
            <polygon id="path22" stroke="#000000" stroke-width="0.9962625" fill="#9013FE" fill-rule="nonzero" transform="translate(936.716744, 411.716745) rotate(-180.000000) translate(-936.716744, -411.716745) " points="919.000001 394.000001 954.433488 394.000001 954.433488 429.433488 919.000001 429.433488"></polygon>
            <polygon id="path22" stroke="#000000" stroke-width="0.9962625" fill="#9013FE" fill-rule="nonzero" transform="translate(936.716744, 458.716745) rotate(-180.000000) translate(-936.716744, -458.716745) " points="919.000001 441.000001 954.433488 441.000001 954.433488 476.433488 919.000001 476.433488"></polygon>
            <path d="M954.5,317.5 L1049.5,505.5" id="Line-9" stroke="#000000" stroke-width="1.5" stroke-linecap="square" transform="translate(1002.000000, 411.500000) scale(-1, 1) translate(-1002.000000, -411.500000) "></path>
            <path d="M320.5,317.5 L414.5,126.5" id="Line" stroke="#000000" stroke-width="1.5" stroke-linecap="square" transform="translate(367.500000, 222.000000) scale(-1, 1) translate(-367.500000, -222.000000) "></path>
            <path d="M321.5,318.5 L415.5,173.5" id="Line-2" stroke="#000000" stroke-width="1.5" stroke-linecap="square" transform="translate(368.500000, 246.000000) scale(-1, 1) translate(-368.500000, -246.000000) "></path>
            <path d="M321.5,317.5 L415.5,222.5" id="Line-3" stroke="#000000" stroke-width="1.5" stroke-linecap="square" transform="translate(368.500000, 270.000000) scale(-1, 1) translate(-368.500000, -270.000000) "></path>
            <path d="M320.5,317.5 L415.5,269.5" id="Line-4" stroke="#000000" stroke-width="1.5" stroke-linecap="square" transform="translate(368.000000, 293.500000) scale(-1, 1) translate(-368.000000, -293.500000) "></path>
            <path d="M322.5,317 L415.5,317" id="Line-5" stroke="#000000" stroke-width="1.5" stroke-linecap="square" transform="translate(369.000000, 317.750000) scale(-1, 1) translate(-369.000000, -317.750000) "></path>
            <path d="M321.5,318.5 L415.5,364.5" id="Line-6" stroke="#000000" stroke-width="1.5" stroke-linecap="square" transform="translate(368.500000, 341.500000) scale(-1, 1) translate(-368.500000, -341.500000) "></path>
            <path d="M321.5,317.5 L416.5,413.5" id="Line-7" stroke="#000000" stroke-width="1.5" stroke-linecap="square" transform="translate(369.000000, 365.500000) scale(-1, 1) translate(-369.000000, -365.500000) "></path>
            <path d="M321.5,318.5 L416.5,461.5" id="Line-8" stroke="#000000" stroke-width="1.5" stroke-linecap="square" transform="translate(369.000000, 390.000000) scale(-1, 1) translate(-369.000000, -390.000000) "></path>
            <path d="M321.5,317.5 L416.5,508.5" id="Line-9" stroke="#000000" stroke-width="1.5" stroke-linecap="square" transform="translate(369.000000, 413.000000) scale(-1, 1) translate(-369.000000, -413.000000) "></path>
            <path d="M464.5,658.5 L464.5,621.5" id="Line-10" stroke="#000000" stroke-width="1.5" stroke-linecap="square"></path>
            <path d="M620.5,658.5 L620.5,621.5" id="Line-10" stroke="#000000" stroke-width="1.5" stroke-linecap="square"></path>
            <path d="M776.5,658.5 L776.5,621.5" id="Line-10" stroke="#000000" stroke-width="1.5" stroke-linecap="square"></path>
            <text id="current-char" fill="#000000" font-family="Helvetica-Bold, Helvetica" font-size="20" font-weight="bold">
                <tspan x="0" y="325">current char</tspan>
            </text>
            <path d="M122.5,318.5 L154.562439,318.5" id="Line-11" stroke="#000000" stroke-width="1.5" stroke-linecap="square"></path>
            <text id="predicted-next-char" fill="#000000" font-family="Helvetica-Bold, Helvetica" font-size="20" font-weight="bold">
                <tspan x="1128" y="323">predicted next char</tspan>
            </text>
            <rect id="Rectangle-2" stroke="#000000" stroke-width="3" x="417.5" y="0.5" width="93" height="633"></rect>
            <rect id="Rectangle-2" stroke="#000000" stroke-width="3" x="573.5" y="0.5" width="93" height="633"></rect>
            <rect id="Rectangle-2" stroke="#000000" stroke-width="3" x="729.5" y="0.5" width="93" height="633"></rect>
            <path d="M510.5,317.5 L574,317.5" id="Line-12" stroke="#000000" stroke-width="2" stroke-linecap="square"></path>
            <path d="M667.5,317.5 L731,317.5" id="Line-12" stroke="#000000" stroke-width="2" stroke-linecap="square"></path>
            <path d="M510.589844,348 C512.028498,379.355281 509.897803,340.532285 540.480469,428.832031 C555.141528,471.162148 551.454226,521.416198 550.679688,564.792969 C549.87705,609.743387 554.618409,651.791131 510.121094,675.113281 C502.835977,678.931592 486.696465,678.447844 482,678.789062" id="Path-3" stroke="#000000" stroke-width="2"></path>
            <path d="M822.589844,348 C824.028498,379.355281 821.897803,340.532285 852.480469,428.832031 C867.141528,471.162148 863.454226,521.416198 862.679688,564.792969 C861.87705,609.743387 866.618409,651.791131 822.121094,675.113281 C814.835977,678.931592 798.696465,678.447844 794,678.789062" id="Path-3" stroke="#000000" stroke-width="2"></path>
            <path d="M666.589844,348 C668.028498,379.355281 665.897803,340.532285 696.480469,428.832031 C711.141528,471.162148 707.454226,521.416198 706.679688,564.792969 C705.87705,609.743387 710.618409,651.791131 666.121094,675.113281 C658.835977,678.931592 642.696465,678.447844 638,678.789062" id="Path-3" stroke="#000000" stroke-width="2"></path>
            <rect id="Rectangle-3" stroke="#FF0000" stroke-width="8" x="221" y="87" width="161" height="459"></rect>
            <polygon id="path22" stroke="#000000" stroke-width="0.9962625" fill="#9013FE" fill-rule="nonzero" transform="translate(936.716744, 506.716745) rotate(-180.000000) translate(-936.716744, -506.716745) " points="919.000001 489.000001 954.433488 489.000001 954.433488 524.433488 919.000001 524.433488"></polygon>
            <text id="Input" fill="#000000" font-family="Helvetica-Bold, Helvetica" font-size="52" font-weight="bold">
                <tspan x="57" y="146">Input</tspan>
            </text>
        </g>
    </g>
</svg>