<?xml version="1.0" encoding="iso-8859-1"?>
<!-- Generator: Adobe Illustrator 16.0.0, SVG Export Plug-In . SVG Version: 6.00 Build 0)  -->
<!DOCTYPE svg PUBLIC "-//W3C//DTD SVG 1.1//EN" "http://www.w3.org/Graphics/SVG/1.1/DTD/svg11.dtd">
<svg xmlns="http://www.w3.org/2000/svg" xmlns:xlink="http://www.w3.org/1999/xlink" version="1.1" id="Capa_1" x="0px" y="0px" width="512px" height="512px" viewBox="0 0 890.955 890.954" style="enable-background:new 0 0 890.955 890.954;" xml:space="preserve">
<g>
	<g>
		<path d="M486.399,180.712c24.521,0,40.811-17.122,44.409-41.096l12.34-98.526c0-22.689-19.889-41.09-44.411-41.09H392.23    c-24.531,0-44.418,18.401-44.418,41.09l12.338,98.526c3.086,26.825,19.888,41.096,44.412,41.096    c18.837,0,22.951-5.714,43.514-5.714C470.172,174.998,473.83,180.712,486.399,180.712" fill="#FFFFFF"/>
		<polygon points="540.397,451.477 332.307,561.57 326.493,596.463 545.269,480.717   " fill="#FFFFFF"/>
		<polygon points="519.69,327.246 357.017,413.31 335.468,542.607 537.749,435.59   " fill="#FFFFFF"/>
		<polygon points="360.179,394.339 517.04,311.352 512.63,284.905 365.439,362.781   " fill="#FFFFFF"/>
		<path d="M312.679,740.73l23.695,28.174L572.484,643.99l-21.918-131.504L320.171,634.385l-7.492,44.951    C310.817,688.498,297.052,723.77,312.679,740.73" fill="#FFFFFF"/>
		<path d="M383.321,824.719l45.026,53.535c15.627,16.934,18.734,16.934,34.367,0L578.375,740.73    c5.718-6.205,7.439-14.475,7.266-23.057L383.321,824.719z" fill="#FFFFFF"/>
		<path d="M507.334,253.134l-8.154-48.92c-15.627-16.955-91.673-16.955-107.312,0l-20.109,120.647L507.334,253.134z" fill="#FFFFFF"/>
		<path d="M578.375,679.336l-0.597-3.576L356.501,792.834l16.749,19.912L583.558,701.48    C581.625,692.359,578.972,684.197,578.375,679.336" fill="#FFFFFF"/>
	</g>
</g>
<g>
</g>
<g>
</g>
<g>
</g>
<g>
</g>
<g>
</g>
<g>
</g>
<g>
</g>
<g>
</g>
<g>
</g>
<g>
</g>
<g>
</g>
<g>
</g>
<g>
</g>
<g>
</g>
<g>
</g>
</svg>
