<?xml version="1.0" encoding="utf-8" standalone="no"?>
<!DOCTYPE svg PUBLIC "-//W3C//DTD SVG 1.1//EN"
  "http://www.w3.org/Graphics/SVG/1.1/DTD/svg11.dtd">
<!-- Created with matplotlib (http://matplotlib.org/) -->
<svg height="231pt" version="1.1" viewBox="0 0 288 231" width="288pt" xmlns="http://www.w3.org/2000/svg" xmlns:xlink="http://www.w3.org/1999/xlink">
 <defs>
  <style type="text/css">
*{stroke-linecap:butt;stroke-linejoin:round;}
  </style>
 </defs>
 <g id="figure_1">
  <g id="patch_1">
   <path d="M 0 231.84 
L 288.72 231.84 
L 288.72 0 
L 0 0 
z
" style="fill:#ffffff;"/>
  </g>
  <g id="axes_1">
   <g id="patch_2">
    <path clip-path="url(#pd3ff6fa1ae)" d="M 128.2776 54.409972 
L 121.154751 53.251779 
L 121.651694 51.928129 
L 41.557694 21.927589 
L 41.557694 21.927589 
L 121.651694 51.928129 
L 122.148637 50.604479 
z
" style="stroke:#000000;stroke-linejoin:miter;"/>
   </g>
   <g id="patch_3">
    <path clip-path="url(#pd3ff6fa1ae)" d="M 130.207059 93.301463 
L 123.696706 90.191415 
L 124.545882 89.060488 
L 39.628235 25.445854 
L 39.628235 25.445854 
L 124.545882 89.060488 
L 125.395059 87.929561 
z
" style="stroke:#000000;stroke-linejoin:miter;"/>
   </g>
   <g id="patch_4">
    <path clip-path="url(#pd3ff6fa1ae)" d="M 132.126709 133.627355 
L 126.367554 129.283631 
L 127.425358 128.344447 
L 37.708585 27.529718 
L 37.708585 27.529718 
L 127.425358 128.344447 
L 128.483162 127.405264 
z
" style="stroke:#000000;stroke-linejoin:miter;"/>
   </g>
   <g id="patch_5">
    <path clip-path="url(#pd3ff6fa1ae)" d="M 127.376471 59.373659 
L 120.3 60.787317 
L 120.3 59.373659 
L 42.458824 59.373659 
L 42.458824 59.373659 
L 120.3 59.373659 
L 120.3 57.96 
z
" style="stroke:#000000;stroke-linejoin:miter;"/>
   </g>
   <g id="patch_6">
    <path clip-path="url(#pd3ff6fa1ae)" d="M 128.2776 96.819728 
L 121.154751 95.661535 
L 121.651694 94.337885 
L 41.557694 64.337345 
L 41.557694 64.337345 
L 121.651694 94.337885 
L 122.148637 93.014235 
z
" style="stroke:#000000;stroke-linejoin:miter;"/>
   </g>
   <g id="patch_7">
    <path clip-path="url(#pd3ff6fa1ae)" d="M 130.207059 135.71122 
L 123.696706 132.601171 
L 124.545882 131.470244 
L 39.628235 67.85561 
L 39.628235 67.85561 
L 124.545882 131.470244 
L 125.395059 130.339317 
z
" style="stroke:#000000;stroke-linejoin:miter;"/>
   </g>
   <g id="patch_8">
    <path clip-path="url(#pd3ff6fa1ae)" d="M 128.2776 64.337345 
L 122.148637 68.142838 
L 121.651694 66.819188 
L 41.557694 96.819728 
L 41.557694 96.819728 
L 121.651694 66.819188 
L 121.154751 65.495539 
z
" style="stroke:#000000;stroke-linejoin:miter;"/>
   </g>
   <g id="patch_9">
    <path clip-path="url(#pd3ff6fa1ae)" d="M 127.376471 101.783415 
L 120.3 103.197073 
L 120.3 101.783415 
L 42.458824 101.783415 
L 42.458824 101.783415 
L 120.3 101.783415 
L 120.3 100.369756 
z
" style="stroke:#000000;stroke-linejoin:miter;"/>
   </g>
   <g id="patch_10">
    <path clip-path="url(#pd3ff6fa1ae)" d="M 128.2776 139.229484 
L 121.154751 138.071291 
L 121.651694 136.747641 
L 41.557694 106.747101 
L 41.557694 106.747101 
L 121.651694 136.747641 
L 122.148637 135.423991 
z
" style="stroke:#000000;stroke-linejoin:miter;"/>
   </g>
   <g id="patch_11">
    <path clip-path="url(#pd3ff6fa1ae)" d="M 130.207059 67.85561 
L 125.395059 73.227512 
L 124.545882 72.096585 
L 39.628235 135.71122 
L 39.628235 135.71122 
L 124.545882 72.096585 
L 123.696706 70.965659 
z
" style="stroke:#000000;stroke-linejoin:miter;"/>
   </g>
   <g id="patch_12">
    <path clip-path="url(#pd3ff6fa1ae)" d="M 128.2776 106.747101 
L 122.148637 110.552594 
L 121.651694 109.228944 
L 41.557694 139.229484 
L 41.557694 139.229484 
L 121.651694 109.228944 
L 121.154751 107.905295 
z
" style="stroke:#000000;stroke-linejoin:miter;"/>
   </g>
   <g id="patch_13">
    <path clip-path="url(#pd3ff6fa1ae)" d="M 127.376471 144.193171 
L 120.3 145.606829 
L 120.3 144.193171 
L 42.458824 144.193171 
L 42.458824 144.193171 
L 120.3 144.193171 
L 120.3 142.779512 
z
" style="stroke:#000000;stroke-linejoin:miter;"/>
   </g>
   <g id="patch_14">
    <path clip-path="url(#pd3ff6fa1ae)" d="M 132.126709 69.939474 
L 128.483162 76.161566 
L 127.425358 75.222382 
L 37.708585 176.037111 
L 37.708585 176.037111 
L 127.425358 75.222382 
L 126.367554 74.283198 
z
" style="stroke:#000000;stroke-linejoin:miter;"/>
   </g>
   <g id="patch_15">
    <path clip-path="url(#pd3ff6fa1ae)" d="M 130.207059 110.265366 
L 125.395059 115.637268 
L 124.545882 114.506341 
L 39.628235 178.120976 
L 39.628235 178.120976 
L 124.545882 114.506341 
L 123.696706 113.375415 
z
" style="stroke:#000000;stroke-linejoin:miter;"/>
   </g>
   <g id="patch_16">
    <path clip-path="url(#pd3ff6fa1ae)" d="M 128.2776 149.156857 
L 122.148637 152.96235 
L 121.651694 151.6387 
L 41.557694 181.63924 
L 41.557694 181.63924 
L 121.651694 151.6387 
L 121.154751 150.315051 
z
" style="stroke:#000000;stroke-linejoin:miter;"/>
   </g>
   <g id="patch_17">
    <path clip-path="url(#pd3ff6fa1ae)" d="M 241.501129 21.927589 
L 235.372166 25.733082 
L 234.875224 24.409432 
L 154.781224 54.409972 
L 154.781224 54.409972 
L 234.875224 24.409432 
L 234.378281 23.085782 
z
" style="stroke:#000000;stroke-linejoin:miter;"/>
   </g>
   <g id="patch_18">
    <path clip-path="url(#pd3ff6fa1ae)" d="M 240.6 59.373659 
L 233.523529 60.787317 
L 233.523529 59.373659 
L 155.682353 59.373659 
L 155.682353 59.373659 
L 233.523529 59.373659 
L 233.523529 57.96 
z
" style="stroke:#000000;stroke-linejoin:miter;"/>
   </g>
   <g id="patch_19">
    <path clip-path="url(#pd3ff6fa1ae)" d="M 241.501129 96.819728 
L 234.378281 95.661535 
L 234.875224 94.337885 
L 154.781224 64.337345 
L 154.781224 64.337345 
L 234.875224 94.337885 
L 235.372166 93.014235 
z
" style="stroke:#000000;stroke-linejoin:miter;"/>
   </g>
   <g id="patch_20">
    <path clip-path="url(#pd3ff6fa1ae)" d="M 243.430588 135.71122 
L 236.920235 132.601171 
L 237.769412 131.470244 
L 152.851765 67.85561 
L 152.851765 67.85561 
L 237.769412 131.470244 
L 238.618588 130.339317 
z
" style="stroke:#000000;stroke-linejoin:miter;"/>
   </g>
   <g id="patch_21">
    <path clip-path="url(#pd3ff6fa1ae)" d="M 245.350239 176.037111 
L 239.591084 171.693387 
L 240.648888 170.754203 
L 150.932114 69.939474 
L 150.932114 69.939474 
L 240.648888 170.754203 
L 241.706692 169.81502 
z
" style="stroke:#000000;stroke-linejoin:miter;"/>
   </g>
   <g id="patch_22">
    <path clip-path="url(#pd3ff6fa1ae)" d="M 243.430588 25.445854 
L 238.618588 30.817756 
L 237.769412 29.686829 
L 152.851765 93.301463 
L 152.851765 93.301463 
L 237.769412 29.686829 
L 236.920235 28.555902 
z
" style="stroke:#000000;stroke-linejoin:miter;"/>
   </g>
   <g id="patch_23">
    <path clip-path="url(#pd3ff6fa1ae)" d="M 241.501129 64.337345 
L 235.372166 68.142838 
L 234.875224 66.819188 
L 154.781224 96.819728 
L 154.781224 96.819728 
L 234.875224 66.819188 
L 234.378281 65.495539 
z
" style="stroke:#000000;stroke-linejoin:miter;"/>
   </g>
   <g id="patch_24">
    <path clip-path="url(#pd3ff6fa1ae)" d="M 240.6 101.783415 
L 233.523529 103.197073 
L 233.523529 101.783415 
L 155.682353 101.783415 
L 155.682353 101.783415 
L 233.523529 101.783415 
L 233.523529 100.369756 
z
" style="stroke:#000000;stroke-linejoin:miter;"/>
   </g>
   <g id="patch_25">
    <path clip-path="url(#pd3ff6fa1ae)" d="M 241.501129 139.229484 
L 234.378281 138.071291 
L 234.875224 136.747641 
L 154.781224 106.747101 
L 154.781224 106.747101 
L 234.875224 136.747641 
L 235.372166 135.423991 
z
" style="stroke:#000000;stroke-linejoin:miter;"/>
   </g>
   <g id="patch_26">
    <path clip-path="url(#pd3ff6fa1ae)" d="M 243.430588 178.120976 
L 236.920235 175.010927 
L 237.769412 173.88 
L 152.851765 110.265366 
L 152.851765 110.265366 
L 237.769412 173.88 
L 238.618588 172.749073 
z
" style="stroke:#000000;stroke-linejoin:miter;"/>
   </g>
   <g id="patch_27">
    <path clip-path="url(#pd3ff6fa1ae)" d="M 245.350239 27.529718 
L 241.706692 33.75181 
L 240.648888 32.812626 
L 150.932114 133.627355 
L 150.932114 133.627355 
L 240.648888 32.812626 
L 239.591084 31.873442 
z
" style="stroke:#000000;stroke-linejoin:miter;"/>
   </g>
   <g id="patch_28">
    <path clip-path="url(#pd3ff6fa1ae)" d="M 243.430588 67.85561 
L 238.618588 73.227512 
L 237.769412 72.096585 
L 152.851765 135.71122 
L 152.851765 135.71122 
L 237.769412 72.096585 
L 236.920235 70.965659 
z
" style="stroke:#000000;stroke-linejoin:miter;"/>
   </g>
   <g id="patch_29">
    <path clip-path="url(#pd3ff6fa1ae)" d="M 241.501129 106.747101 
L 235.372166 110.552594 
L 234.875224 109.228944 
L 154.781224 139.229484 
L 154.781224 139.229484 
L 234.875224 109.228944 
L 234.378281 107.905295 
z
" style="stroke:#000000;stroke-linejoin:miter;"/>
   </g>
   <g id="patch_30">
    <path clip-path="url(#pd3ff6fa1ae)" d="M 240.6 144.193171 
L 233.523529 145.606829 
L 233.523529 144.193171 
L 155.682353 144.193171 
L 155.682353 144.193171 
L 233.523529 144.193171 
L 233.523529 142.779512 
z
" style="stroke:#000000;stroke-linejoin:miter;"/>
   </g>
   <g id="patch_31">
    <path clip-path="url(#pd3ff6fa1ae)" d="M 241.501129 181.63924 
L 234.378281 180.481047 
L 234.875224 179.157397 
L 154.781224 149.156857 
L 154.781224 149.156857 
L 234.875224 179.157397 
L 235.372166 177.833747 
z
" style="stroke:#000000;stroke-linejoin:miter;"/>
   </g>
   <g id="patch_32">
    <path clip-path="url(#pd3ff6fa1ae)" d="M 28.305882 31.100488 
C 32.059286 31.100488 35.659466 29.610968 38.313523 26.959978 
C 40.96758 24.308988 42.458824 20.712969 42.458824 16.963902 
C 42.458824 13.214836 40.96758 9.618817 38.313523 6.967827 
C 35.659466 4.316837 32.059286 2.827317 28.305882 2.827317 
C 24.552478 2.827317 20.952299 4.316837 18.298242 6.967827 
C 15.644184 9.618817 14.152941 13.214836 14.152941 16.963902 
C 14.152941 20.712969 15.644184 24.308988 18.298242 26.959978 
C 20.952299 29.610968 24.552478 31.100488 28.305882 31.100488 
z
" style="fill:none;stroke:#000000;stroke-linejoin:miter;"/>
   </g>
   <g id="patch_33">
    <path clip-path="url(#pd3ff6fa1ae)" d="M 28.305882 73.510244 
C 32.059286 73.510244 35.659466 72.020724 38.313523 69.369734 
C 40.96758 66.718744 42.458824 63.122725 42.458824 59.373659 
C 42.458824 55.624592 40.96758 52.028573 38.313523 49.377583 
C 35.659466 46.726593 32.059286 45.237073 28.305882 45.237073 
C 24.552478 45.237073 20.952299 46.726593 18.298242 49.377583 
C 15.644184 52.028573 14.152941 55.624592 14.152941 59.373659 
C 14.152941 63.122725 15.644184 66.718744 18.298242 69.369734 
C 20.952299 72.020724 24.552478 73.510244 28.305882 73.510244 
z
" style="fill:none;stroke:#000000;stroke-linejoin:miter;"/>
   </g>
   <g id="patch_34">
    <path clip-path="url(#pd3ff6fa1ae)" d="M 28.305882 115.92 
C 32.059286 115.92 35.659466 114.43048 38.313523 111.77949 
C 40.96758 109.1285 42.458824 105.532481 42.458824 101.783415 
C 42.458824 98.034348 40.96758 94.438329 38.313523 91.787339 
C 35.659466 89.136349 32.059286 87.646829 28.305882 87.646829 
C 24.552478 87.646829 20.952299 89.136349 18.298242 91.787339 
C 15.644184 94.438329 14.152941 98.034348 14.152941 101.783415 
C 14.152941 105.532481 15.644184 109.1285 18.298242 111.77949 
C 20.952299 114.43048 24.552478 115.92 28.305882 115.92 
z
" style="fill:none;stroke:#000000;stroke-linejoin:miter;"/>
   </g>
   <g id="patch_35">
    <path clip-path="url(#pd3ff6fa1ae)" d="M 28.305882 158.329756 
C 32.059286 158.329756 35.659466 156.840236 38.313523 154.189246 
C 40.96758 151.538256 42.458824 147.942237 42.458824 144.193171 
C 42.458824 140.444104 40.96758 136.848086 38.313523 134.197095 
C 35.659466 131.546105 32.059286 130.056585 28.305882 130.056585 
C 24.552478 130.056585 20.952299 131.546105 18.298242 134.197095 
C 15.644184 136.848086 14.152941 140.444104 14.152941 144.193171 
C 14.152941 147.942237 15.644184 151.538256 18.298242 154.189246 
C 20.952299 156.840236 24.552478 158.329756 28.305882 158.329756 
z
" style="fill:none;stroke:#000000;stroke-linejoin:miter;"/>
   </g>
   <g id="patch_36">
    <path clip-path="url(#pd3ff6fa1ae)" d="M 28.305882 200.739512 
C 32.059286 200.739512 35.659466 199.249992 38.313523 196.599002 
C 40.96758 193.948012 42.458824 190.351993 42.458824 186.602927 
C 42.458824 182.853861 40.96758 179.257842 38.313523 176.606851 
C 35.659466 173.955861 32.059286 172.466341 28.305882 172.466341 
C 24.552478 172.466341 20.952299 173.955861 18.298242 176.606851 
C 15.644184 179.257842 14.152941 182.853861 14.152941 186.602927 
C 14.152941 190.351993 15.644184 193.948012 18.298242 196.599002 
C 20.952299 199.249992 24.552478 200.739512 28.305882 200.739512 
z
" style="fill:none;stroke:#000000;stroke-linejoin:miter;"/>
   </g>
   <g id="patch_37">
    <path clip-path="url(#pd3ff6fa1ae)" d="M 141.529412 73.510244 
C 145.282816 73.510244 148.882995 72.020724 151.537052 69.369734 
C 154.19111 66.718744 155.682353 63.122725 155.682353 59.373659 
C 155.682353 55.624592 154.19111 52.028573 151.537052 49.377583 
C 148.882995 46.726593 145.282816 45.237073 141.529412 45.237073 
C 137.776008 45.237073 134.175828 46.726593 131.521771 49.377583 
C 128.867714 52.028573 127.376471 55.624592 127.376471 59.373659 
C 127.376471 63.122725 128.867714 66.718744 131.521771 69.369734 
C 134.175828 72.020724 137.776008 73.510244 141.529412 73.510244 
z
" style="fill:#b2b2b2;stroke:#000000;stroke-linejoin:miter;"/>
   </g>
   <g id="patch_38">
    <path clip-path="url(#pd3ff6fa1ae)" d="M 141.529412 73.510244 
C 145.282816 73.510244 148.882995 72.020724 151.537052 69.369734 
C 154.19111 66.718744 155.682353 63.122725 155.682353 59.373659 
C 155.682353 55.624592 154.19111 52.028573 151.537052 49.377583 
C 148.882995 46.726593 145.282816 45.237073 141.529412 45.237073 
C 137.776008 45.237073 134.175828 46.726593 131.521771 49.377583 
C 128.867714 52.028573 127.376471 55.624592 127.376471 59.373659 
C 127.376471 63.122725 128.867714 66.718744 131.521771 69.369734 
C 134.175828 72.020724 137.776008 73.510244 141.529412 73.510244 
z
" style="fill:none;stroke:#000000;stroke-linejoin:miter;"/>
   </g>
   <g id="patch_39">
    <path clip-path="url(#pd3ff6fa1ae)" d="M 141.529412 115.92 
C 145.282816 115.92 148.882995 114.43048 151.537052 111.77949 
C 154.19111 109.1285 155.682353 105.532481 155.682353 101.783415 
C 155.682353 98.034348 154.19111 94.438329 151.537052 91.787339 
C 148.882995 89.136349 145.282816 87.646829 141.529412 87.646829 
C 137.776008 87.646829 134.175828 89.136349 131.521771 91.787339 
C 128.867714 94.438329 127.376471 98.034348 127.376471 101.783415 
C 127.376471 105.532481 128.867714 109.1285 131.521771 111.77949 
C 134.175828 114.43048 137.776008 115.92 141.529412 115.92 
z
" style="fill:#b2b2b2;stroke:#000000;stroke-linejoin:miter;"/>
   </g>
   <g id="patch_40">
    <path clip-path="url(#pd3ff6fa1ae)" d="M 141.529412 115.92 
C 145.282816 115.92 148.882995 114.43048 151.537052 111.77949 
C 154.19111 109.1285 155.682353 105.532481 155.682353 101.783415 
C 155.682353 98.034348 154.19111 94.438329 151.537052 91.787339 
C 148.882995 89.136349 145.282816 87.646829 141.529412 87.646829 
C 137.776008 87.646829 134.175828 89.136349 131.521771 91.787339 
C 128.867714 94.438329 127.376471 98.034348 127.376471 101.783415 
C 127.376471 105.532481 128.867714 109.1285 131.521771 111.77949 
C 134.175828 114.43048 137.776008 115.92 141.529412 115.92 
z
" style="fill:none;stroke:#000000;stroke-linejoin:miter;"/>
   </g>
   <g id="patch_41">
    <path clip-path="url(#pd3ff6fa1ae)" d="M 141.529412 158.329756 
C 145.282816 158.329756 148.882995 156.840236 151.537052 154.189246 
C 154.19111 151.538256 155.682353 147.942237 155.682353 144.193171 
C 155.682353 140.444104 154.19111 136.848086 151.537052 134.197095 
C 148.882995 131.546105 145.282816 130.056585 141.529412 130.056585 
C 137.776008 130.056585 134.175828 131.546105 131.521771 134.197095 
C 128.867714 136.848086 127.376471 140.444104 127.376471 144.193171 
C 127.376471 147.942237 128.867714 151.538256 131.521771 154.189246 
C 134.175828 156.840236 137.776008 158.329756 141.529412 158.329756 
z
" style="fill:#b2b2b2;stroke:#000000;stroke-linejoin:miter;"/>
   </g>
   <g id="patch_42">
    <path clip-path="url(#pd3ff6fa1ae)" d="M 141.529412 158.329756 
C 145.282816 158.329756 148.882995 156.840236 151.537052 154.189246 
C 154.19111 151.538256 155.682353 147.942237 155.682353 144.193171 
C 155.682353 140.444104 154.19111 136.848086 151.537052 134.197095 
C 148.882995 131.546105 145.282816 130.056585 141.529412 130.056585 
C 137.776008 130.056585 134.175828 131.546105 131.521771 134.197095 
C 128.867714 136.848086 127.376471 140.444104 127.376471 144.193171 
C 127.376471 147.942237 128.867714 151.538256 131.521771 154.189246 
C 134.175828 156.840236 137.776008 158.329756 141.529412 158.329756 
z
" style="fill:none;stroke:#000000;stroke-linejoin:miter;"/>
   </g>
   <g id="patch_43">
    <path clip-path="url(#pd3ff6fa1ae)" d="M 254.752941 31.100488 
C 258.506345 31.100488 262.106525 29.610968 264.760582 26.959978 
C 267.414639 24.308988 268.905882 20.712969 268.905882 16.963902 
C 268.905882 13.214836 267.414639 9.618817 264.760582 6.967827 
C 262.106525 4.316837 258.506345 2.827317 254.752941 2.827317 
C 250.999537 2.827317 247.399358 4.316837 244.7453 6.967827 
C 242.091243 9.618817 240.6 13.214836 240.6 16.963902 
C 240.6 20.712969 242.091243 24.308988 244.7453 26.959978 
C 247.399358 29.610968 250.999537 31.100488 254.752941 31.100488 
z
" style="fill:none;stroke:#000000;stroke-linejoin:miter;"/>
   </g>
   <g id="patch_44">
    <path clip-path="url(#pd3ff6fa1ae)" d="M 254.752941 73.510244 
C 258.506345 73.510244 262.106525 72.020724 264.760582 69.369734 
C 267.414639 66.718744 268.905882 63.122725 268.905882 59.373659 
C 268.905882 55.624592 267.414639 52.028573 264.760582 49.377583 
C 262.106525 46.726593 258.506345 45.237073 254.752941 45.237073 
C 250.999537 45.237073 247.399358 46.726593 244.7453 49.377583 
C 242.091243 52.028573 240.6 55.624592 240.6 59.373659 
C 240.6 63.122725 242.091243 66.718744 244.7453 69.369734 
C 247.399358 72.020724 250.999537 73.510244 254.752941 73.510244 
z
" style="fill:none;stroke:#000000;stroke-linejoin:miter;"/>
   </g>
   <g id="patch_45">
    <path clip-path="url(#pd3ff6fa1ae)" d="M 254.752941 115.92 
C 258.506345 115.92 262.106525 114.43048 264.760582 111.77949 
C 267.414639 109.1285 268.905882 105.532481 268.905882 101.783415 
C 268.905882 98.034348 267.414639 94.438329 264.760582 91.787339 
C 262.106525 89.136349 258.506345 87.646829 254.752941 87.646829 
C 250.999537 87.646829 247.399358 89.136349 244.7453 91.787339 
C 242.091243 94.438329 240.6 98.034348 240.6 101.783415 
C 240.6 105.532481 242.091243 109.1285 244.7453 111.77949 
C 247.399358 114.43048 250.999537 115.92 254.752941 115.92 
z
" style="fill:none;stroke:#000000;stroke-linejoin:miter;"/>
   </g>
   <g id="patch_46">
    <path clip-path="url(#pd3ff6fa1ae)" d="M 254.752941 158.329756 
C 258.506345 158.329756 262.106525 156.840236 264.760582 154.189246 
C 267.414639 151.538256 268.905882 147.942237 268.905882 144.193171 
C 268.905882 140.444104 267.414639 136.848086 264.760582 134.197095 
C 262.106525 131.546105 258.506345 130.056585 254.752941 130.056585 
C 250.999537 130.056585 247.399358 131.546105 244.7453 134.197095 
C 242.091243 136.848086 240.6 140.444104 240.6 144.193171 
C 240.6 147.942237 242.091243 151.538256 244.7453 154.189246 
C 247.399358 156.840236 250.999537 158.329756 254.752941 158.329756 
z
" style="fill:none;stroke:#000000;stroke-linejoin:miter;"/>
   </g>
   <g id="patch_47">
    <path clip-path="url(#pd3ff6fa1ae)" d="M 254.752941 200.739512 
C 258.506345 200.739512 262.106525 199.249992 264.760582 196.599002 
C 267.414639 193.948012 268.905882 190.351993 268.905882 186.602927 
C 268.905882 182.853861 267.414639 179.257842 264.760582 176.606851 
C 262.106525 173.955861 258.506345 172.466341 254.752941 172.466341 
C 250.999537 172.466341 247.399358 173.955861 244.7453 176.606851 
C 242.091243 179.257842 240.6 182.853861 240.6 186.602927 
C 240.6 190.351993 242.091243 193.948012 244.7453 196.599002 
C 247.399358 199.249992 250.999537 200.739512 254.752941 200.739512 
z
" style="fill:none;stroke:#000000;stroke-linejoin:miter;"/>
   </g>
   <g id="patch_48">
    <path clip-path="url(#pd3ff6fa1ae)" d="M 5.661176 31.100488 
C 9.41458 31.100488 13.01476 29.610968 15.668817 26.959978 
C 18.322874 24.308988 19.814118 20.712969 19.814118 16.963902 
C 19.814118 13.214836 18.322874 9.618817 15.668817 6.967827 
C 13.01476 4.316837 9.41458 2.827317 5.661176 2.827317 
C 1.907773 2.827317 -1.692407 4.316837 -4.346464 6.967827 
C -7.000522 9.618817 -8.491765 13.214836 -8.491765 16.963902 
C -8.491765 20.712969 -7.000522 24.308988 -4.346464 26.959978 
C -1.692407 29.610968 1.907773 31.100488 5.661176 31.100488 
z
" style="fill:none;"/>
   </g>
   <g id="patch_49">
    <path clip-path="url(#pd3ff6fa1ae)" d="M 5.661176 73.510244 
C 9.41458 73.510244 13.01476 72.020724 15.668817 69.369734 
C 18.322874 66.718744 19.814118 63.122725 19.814118 59.373659 
C 19.814118 55.624592 18.322874 52.028573 15.668817 49.377583 
C 13.01476 46.726593 9.41458 45.237073 5.661176 45.237073 
C 1.907773 45.237073 -1.692407 46.726593 -4.346464 49.377583 
C -7.000522 52.028573 -8.491765 55.624592 -8.491765 59.373659 
C -8.491765 63.122725 -7.000522 66.718744 -4.346464 69.369734 
C -1.692407 72.020724 1.907773 73.510244 5.661176 73.510244 
z
" style="fill:none;"/>
   </g>
   <g id="patch_50">
    <path clip-path="url(#pd3ff6fa1ae)" d="M 5.661176 115.92 
C 9.41458 115.92 13.01476 114.43048 15.668817 111.77949 
C 18.322874 109.1285 19.814118 105.532481 19.814118 101.783415 
C 19.814118 98.034348 18.322874 94.438329 15.668817 91.787339 
C 13.01476 89.136349 9.41458 87.646829 5.661176 87.646829 
C 1.907773 87.646829 -1.692407 89.136349 -4.346464 91.787339 
C -7.000522 94.438329 -8.491765 98.034348 -8.491765 101.783415 
C -8.491765 105.532481 -7.000522 109.1285 -4.346464 111.77949 
C -1.692407 114.43048 1.907773 115.92 5.661176 115.92 
z
" style="fill:none;"/>
   </g>
   <g id="patch_51">
    <path clip-path="url(#pd3ff6fa1ae)" d="M 5.661176 158.329756 
C 9.41458 158.329756 13.01476 156.840236 15.668817 154.189246 
C 18.322874 151.538256 19.814118 147.942237 19.814118 144.193171 
C 19.814118 140.444104 18.322874 136.848086 15.668817 134.197095 
C 13.01476 131.546105 9.41458 130.056585 5.661176 130.056585 
C 1.907773 130.056585 -1.692407 131.546105 -4.346464 134.197095 
C -7.000522 136.848086 -8.491765 140.444104 -8.491765 144.193171 
C -8.491765 147.942237 -7.000522 151.538256 -4.346464 154.189246 
C -1.692407 156.840236 1.907773 158.329756 5.661176 158.329756 
z
" style="fill:none;"/>
   </g>
   <g id="patch_52">
    <path clip-path="url(#pd3ff6fa1ae)" d="M 5.661176 200.739512 
C 9.41458 200.739512 13.01476 199.249992 15.668817 196.599002 
C 18.322874 193.948012 19.814118 190.351993 19.814118 186.602927 
C 19.814118 182.853861 18.322874 179.257842 15.668817 176.606851 
C 13.01476 173.955861 9.41458 172.466341 5.661176 172.466341 
C 1.907773 172.466341 -1.692407 173.955861 -4.346464 176.606851 
C -7.000522 179.257842 -8.491765 182.853861 -8.491765 186.602927 
C -8.491765 190.351993 -7.000522 193.948012 -4.346464 196.599002 
C -1.692407 199.249992 1.907773 200.739512 5.661176 200.739512 
z
" style="fill:none;"/>
   </g>
   <g id="patch_53">
    <path clip-path="url(#pd3ff6fa1ae)" d="M 277.397647 31.100488 
C 281.151051 31.100488 284.75123 29.610968 287.405288 26.959978 
C 290.059345 24.308988 291.550588 20.712969 291.550588 16.963902 
C 291.550588 13.214836 290.059345 9.618817 287.405288 6.967827 
C 284.75123 4.316837 281.151051 2.827317 277.397647 2.827317 
C 273.644243 2.827317 270.044064 4.316837 267.390006 6.967827 
C 264.735949 9.618817 263.244706 13.214836 263.244706 16.963902 
C 263.244706 20.712969 264.735949 24.308988 267.390006 26.959978 
C 270.044064 29.610968 273.644243 31.100488 277.397647 31.100488 
z
" style="fill:none;"/>
   </g>
   <g id="patch_54">
    <path clip-path="url(#pd3ff6fa1ae)" d="M 277.397647 73.510244 
C 281.151051 73.510244 284.75123 72.020724 287.405288 69.369734 
C 290.059345 66.718744 291.550588 63.122725 291.550588 59.373659 
C 291.550588 55.624592 290.059345 52.028573 287.405288 49.377583 
C 284.75123 46.726593 281.151051 45.237073 277.397647 45.237073 
C 273.644243 45.237073 270.044064 46.726593 267.390006 49.377583 
C 264.735949 52.028573 263.244706 55.624592 263.244706 59.373659 
C 263.244706 63.122725 264.735949 66.718744 267.390006 69.369734 
C 270.044064 72.020724 273.644243 73.510244 277.397647 73.510244 
z
" style="fill:none;"/>
   </g>
   <g id="patch_55">
    <path clip-path="url(#pd3ff6fa1ae)" d="M 277.397647 115.92 
C 281.151051 115.92 284.75123 114.43048 287.405288 111.77949 
C 290.059345 109.1285 291.550588 105.532481 291.550588 101.783415 
C 291.550588 98.034348 290.059345 94.438329 287.405288 91.787339 
C 284.75123 89.136349 281.151051 87.646829 277.397647 87.646829 
C 273.644243 87.646829 270.044064 89.136349 267.390006 91.787339 
C 264.735949 94.438329 263.244706 98.034348 263.244706 101.783415 
C 263.244706 105.532481 264.735949 109.1285 267.390006 111.77949 
C 270.044064 114.43048 273.644243 115.92 277.397647 115.92 
z
" style="fill:none;"/>
   </g>
   <g id="patch_56">
    <path clip-path="url(#pd3ff6fa1ae)" d="M 277.397647 158.329756 
C 281.151051 158.329756 284.75123 156.840236 287.405288 154.189246 
C 290.059345 151.538256 291.550588 147.942237 291.550588 144.193171 
C 291.550588 140.444104 290.059345 136.848086 287.405288 134.197095 
C 284.75123 131.546105 281.151051 130.056585 277.397647 130.056585 
C 273.644243 130.056585 270.044064 131.546105 267.390006 134.197095 
C 264.735949 136.848086 263.244706 140.444104 263.244706 144.193171 
C 263.244706 147.942237 264.735949 151.538256 267.390006 154.189246 
C 270.044064 156.840236 273.644243 158.329756 277.397647 158.329756 
z
" style="fill:none;"/>
   </g>
   <g id="patch_57">
    <path clip-path="url(#pd3ff6fa1ae)" d="M 277.397647 200.739512 
C 281.151051 200.739512 284.75123 199.249992 287.405288 196.599002 
C 290.059345 193.948012 291.550588 190.351993 291.550588 186.602927 
C 291.550588 182.853861 290.059345 179.257842 287.405288 176.606851 
C 284.75123 173.955861 281.151051 172.466341 277.397647 172.466341 
C 273.644243 172.466341 270.044064 173.955861 267.390006 176.606851 
C 264.735949 179.257842 263.244706 182.853861 263.244706 186.602927 
C 263.244706 190.351993 264.735949 193.948012 267.390006 196.599002 
C 270.044064 199.249992 273.644243 200.739512 277.397647 200.739512 
z
" style="fill:none;"/>
   </g>
   <g id="patch_58">
    <path clip-path="url(#pd3ff6fa1ae)" d="M 28.305882 229.012683 
C 32.059286 229.012683 35.659466 227.523163 38.313523 224.872173 
C 40.96758 222.221183 42.458824 218.625164 42.458824 214.876098 
C 42.458824 211.127031 40.96758 207.531012 38.313523 204.880022 
C 35.659466 202.229032 32.059286 200.739512 28.305882 200.739512 
C 24.552478 200.739512 20.952299 202.229032 18.298242 204.880022 
C 15.644184 207.531012 14.152941 211.127031 14.152941 214.876098 
C 14.152941 218.625164 15.644184 222.221183 18.298242 224.872173 
C 20.952299 227.523163 24.552478 229.012683 28.305882 229.012683 
z
" style="fill:none;"/>
   </g>
   <g id="matplotlib.axis_1"/>
   <g id="matplotlib.axis_2"/>
   <g id="text_1">
    <!-- 0 -->
    <defs>
     <path d="M 31.78125 66.40625 
Q 24.171875 66.40625 20.328125 58.90625 
Q 16.5 51.421875 16.5 36.375 
Q 16.5 21.390625 20.328125 13.890625 
Q 24.171875 6.390625 31.78125 6.390625 
Q 39.453125 6.390625 43.28125 13.890625 
Q 47.125 21.390625 47.125 36.375 
Q 47.125 51.421875 43.28125 58.90625 
Q 39.453125 66.40625 31.78125 66.40625 
z
M 31.78125 74.21875 
Q 44.046875 74.21875 50.515625 64.515625 
Q 56.984375 54.828125 56.984375 36.375 
Q 56.984375 17.96875 50.515625 8.265625 
Q 44.046875 -1.421875 31.78125 -1.421875 
Q 19.53125 -1.421875 13.0625 8.265625 
Q 6.59375 17.96875 6.59375 36.375 
Q 6.59375 54.828125 13.0625 64.515625 
Q 19.53125 74.21875 31.78125 74.21875 
z
" id="DejaVuSans-30"/>
    </defs>
    <g transform="translate(25.124632 19.723277)scale(0.1 -0.1)">
     <use xlink:href="#DejaVuSans-30"/>
    </g>
   </g>
   <g id="text_2">
    <!-- 1 -->
    <defs>
     <path d="M 12.40625 8.296875 
L 28.515625 8.296875 
L 28.515625 63.921875 
L 10.984375 60.40625 
L 10.984375 69.390625 
L 28.421875 72.90625 
L 38.28125 72.90625 
L 38.28125 8.296875 
L 54.390625 8.296875 
L 54.390625 0 
L 12.40625 0 
z
" id="DejaVuSans-31"/>
    </defs>
    <g transform="translate(25.124632 62.133034)scale(0.1 -0.1)">
     <use xlink:href="#DejaVuSans-31"/>
    </g>
   </g>
   <g id="text_3">
    <!-- 0 -->
    <g transform="translate(25.124632 104.54279)scale(0.1 -0.1)">
     <use xlink:href="#DejaVuSans-30"/>
    </g>
   </g>
   <g id="text_4">
    <!-- 0 -->
    <g transform="translate(25.124632 146.952546)scale(0.1 -0.1)">
     <use xlink:href="#DejaVuSans-30"/>
    </g>
   </g>
   <g id="text_5">
    <!-- 0 -->
    <g transform="translate(25.124632 189.362302)scale(0.1 -0.1)">
     <use xlink:href="#DejaVuSans-30"/>
    </g>
   </g>
   <g id="text_6">
    <!-- $h_0$ -->
    <defs>
     <path d="M 55.71875 33.015625 
L 49.3125 0 
L 40.28125 0 
L 46.6875 32.671875 
Q 47.125 34.96875 47.359375 36.71875 
Q 47.609375 38.484375 47.609375 39.5 
Q 47.609375 43.609375 45.015625 45.890625 
Q 42.4375 48.1875 37.796875 48.1875 
Q 30.5625 48.1875 25.265625 43.296875 
Q 19.96875 38.421875 18.40625 30.328125 
L 12.5 0 
L 3.515625 0 
L 18.3125 75.984375 
L 27.296875 75.984375 
L 21.484375 46.09375 
Q 24.90625 50.6875 30.21875 53.34375 
Q 35.546875 56 41.40625 56 
Q 48.640625 56 52.609375 52.09375 
Q 56.59375 48.1875 56.59375 41.109375 
Q 56.59375 39.359375 56.375 37.359375 
Q 56.15625 35.359375 55.71875 33.015625 
z
" id="DejaVuSans-Oblique-68"/>
    </defs>
    <g transform="translate(135.979412 62.133034)scale(0.1 -0.1)">
     <use transform="translate(0 0.015625)" xlink:href="#DejaVuSans-Oblique-68"/>
     <use transform="translate(63.378906 -16.390625)scale(0.7)" xlink:href="#DejaVuSans-30"/>
    </g>
   </g>
   <g id="text_7">
    <!-- $h_1$ -->
    <g transform="translate(135.979412 104.54279)scale(0.1 -0.1)">
     <use transform="translate(0 0.015625)" xlink:href="#DejaVuSans-Oblique-68"/>
     <use transform="translate(63.378906 -16.390625)scale(0.7)" xlink:href="#DejaVuSans-31"/>
    </g>
   </g>
   <g id="text_8">
    <!-- $h_2$ -->
    <defs>
     <path d="M 19.1875 8.296875 
L 53.609375 8.296875 
L 53.609375 0 
L 7.328125 0 
L 7.328125 8.296875 
Q 12.9375 14.109375 22.625 23.890625 
Q 32.328125 33.6875 34.8125 36.53125 
Q 39.546875 41.84375 41.421875 45.53125 
Q 43.3125 49.21875 43.3125 52.78125 
Q 43.3125 58.59375 39.234375 62.25 
Q 35.15625 65.921875 28.609375 65.921875 
Q 23.96875 65.921875 18.8125 64.3125 
Q 13.671875 62.703125 7.8125 59.421875 
L 7.8125 69.390625 
Q 13.765625 71.78125 18.9375 73 
Q 24.125 74.21875 28.421875 74.21875 
Q 39.75 74.21875 46.484375 68.546875 
Q 53.21875 62.890625 53.21875 53.421875 
Q 53.21875 48.921875 51.53125 44.890625 
Q 49.859375 40.875 45.40625 35.40625 
Q 44.1875 33.984375 37.640625 27.21875 
Q 31.109375 20.453125 19.1875 8.296875 
z
" id="DejaVuSans-32"/>
    </defs>
    <g transform="translate(135.979412 146.952546)scale(0.1 -0.1)">
     <use transform="translate(0 0.015625)" xlink:href="#DejaVuSans-Oblique-68"/>
     <use transform="translate(63.378906 -16.390625)scale(0.7)" xlink:href="#DejaVuSans-32"/>
    </g>
   </g>
   <g id="text_9">
    <!-- 1 -->
    <g transform="translate(251.571691 19.723277)scale(0.1 -0.1)">
     <use xlink:href="#DejaVuSans-31"/>
    </g>
   </g>
   <g id="text_10">
    <!-- 0 -->
    <g transform="translate(251.571691 62.133034)scale(0.1 -0.1)">
     <use xlink:href="#DejaVuSans-30"/>
    </g>
   </g>
   <g id="text_11">
    <!-- 0 -->
    <g transform="translate(251.571691 104.54279)scale(0.1 -0.1)">
     <use xlink:href="#DejaVuSans-30"/>
    </g>
   </g>
   <g id="text_12">
    <!-- 0 -->
    <g transform="translate(251.571691 146.952546)scale(0.1 -0.1)">
     <use xlink:href="#DejaVuSans-30"/>
    </g>
   </g>
   <g id="text_13">
    <!-- 0 -->
    <g transform="translate(251.571691 189.362302)scale(0.1 -0.1)">
     <use xlink:href="#DejaVuSans-30"/>
    </g>
   </g>
   <g id="text_14">
    <!-- a -->
    <defs>
     <path d="M 32.90625 24.609375 
Q 27.4375 24.609375 24.671875 22.75 
Q 21.921875 20.90625 21.921875 17.28125 
Q 21.921875 13.96875 24.140625 12.078125 
Q 26.375 10.203125 30.328125 10.203125 
Q 35.25 10.203125 38.625 13.734375 
Q 42 17.28125 42 22.609375 
L 42 24.609375 
z
M 59.625 31.203125 
L 59.625 0 
L 42 0 
L 42 8.109375 
Q 38.484375 3.125 34.078125 0.84375 
Q 29.6875 -1.421875 23.390625 -1.421875 
Q 14.890625 -1.421875 9.59375 3.53125 
Q 4.296875 8.5 4.296875 16.40625 
Q 4.296875 26.03125 10.90625 30.515625 
Q 17.53125 35.015625 31.6875 35.015625 
L 42 35.015625 
L 42 36.375 
Q 42 40.53125 38.71875 42.453125 
Q 35.453125 44.390625 28.515625 44.390625 
Q 22.90625 44.390625 18.0625 43.265625 
Q 13.234375 42.140625 9.078125 39.890625 
L 9.078125 53.21875 
Q 14.703125 54.59375 20.359375 55.296875 
Q 26.03125 56 31.6875 56 
Q 46.484375 56 53.046875 50.171875 
Q 59.625 44.34375 59.625 31.203125 
z
" id="DejaVuSans-Bold-61"/>
    </defs>
    <g style="fill:#0000ff;" transform="translate(2.286958 19.723277)scale(0.1 -0.1)">
     <use xlink:href="#DejaVuSans-Bold-61"/>
    </g>
   </g>
   <g id="text_15">
    <!-- b -->
    <defs>
     <path d="M 37.5 11.28125 
Q 43.109375 11.28125 46.0625 15.375 
Q 49.03125 19.484375 49.03125 27.296875 
Q 49.03125 35.109375 46.0625 39.203125 
Q 43.109375 43.3125 37.5 43.3125 
Q 31.890625 43.3125 28.875 39.1875 
Q 25.875 35.0625 25.875 27.296875 
Q 25.875 19.53125 28.875 15.40625 
Q 31.890625 11.28125 37.5 11.28125 
z
M 25.875 46.6875 
Q 29.5 51.46875 33.890625 53.734375 
Q 38.28125 56 44 56 
Q 54.109375 56 60.59375 47.96875 
Q 67.09375 39.9375 67.09375 27.296875 
Q 67.09375 14.65625 60.59375 6.609375 
Q 54.109375 -1.421875 44 -1.421875 
Q 38.28125 -1.421875 33.890625 0.84375 
Q 29.5 3.125 25.875 7.90625 
L 25.875 0 
L 8.40625 0 
L 8.40625 75.984375 
L 25.875 75.984375 
z
" id="DejaVuSans-Bold-62"/>
    </defs>
    <g style="fill:#ff0000;" transform="translate(2.08227 62.133034)scale(0.1 -0.1)">
     <use xlink:href="#DejaVuSans-Bold-62"/>
    </g>
   </g>
   <g id="text_16">
    <!-- c -->
    <defs>
     <path d="M 52.59375 52.984375 
L 52.59375 38.71875 
Q 49.03125 41.15625 45.4375 42.328125 
Q 41.84375 43.5 37.984375 43.5 
Q 30.671875 43.5 26.59375 39.234375 
Q 22.515625 34.96875 22.515625 27.296875 
Q 22.515625 19.625 26.59375 15.34375 
Q 30.671875 11.078125 37.984375 11.078125 
Q 42.09375 11.078125 45.78125 12.296875 
Q 49.46875 13.53125 52.59375 15.921875 
L 52.59375 1.609375 
Q 48.484375 0.09375 44.265625 -0.65625 
Q 40.046875 -1.421875 35.796875 -1.421875 
Q 21 -1.421875 12.640625 6.171875 
Q 4.296875 13.765625 4.296875 27.296875 
Q 4.296875 40.828125 12.640625 48.40625 
Q 21 56 35.796875 56 
Q 40.09375 56 44.265625 55.25 
Q 48.4375 54.5 52.59375 52.984375 
z
" id="DejaVuSans-Bold-63"/>
    </defs>
    <g style="fill:#0000ff;" transform="translate(2.697114 104.54279)scale(0.1 -0.1)">
     <use xlink:href="#DejaVuSans-Bold-63"/>
    </g>
   </g>
   <g id="text_17">
    <!-- d -->
    <defs>
     <path d="M 45.609375 46.6875 
L 45.609375 75.984375 
L 63.1875 75.984375 
L 63.1875 0 
L 45.609375 0 
L 45.609375 7.90625 
Q 42 3.078125 37.640625 0.828125 
Q 33.296875 -1.421875 27.59375 -1.421875 
Q 17.484375 -1.421875 10.984375 6.609375 
Q 4.5 14.65625 4.5 27.296875 
Q 4.5 39.9375 10.984375 47.96875 
Q 17.484375 56 27.59375 56 
Q 33.25 56 37.625 53.734375 
Q 42 51.46875 45.609375 46.6875 
z
M 34.078125 11.28125 
Q 39.703125 11.28125 42.65625 15.375 
Q 45.609375 19.484375 45.609375 27.296875 
Q 45.609375 35.109375 42.65625 39.203125 
Q 39.703125 43.3125 34.078125 43.3125 
Q 28.515625 43.3125 25.5625 39.203125 
Q 22.609375 35.109375 22.609375 27.296875 
Q 22.609375 19.484375 25.5625 15.375 
Q 28.515625 11.28125 34.078125 11.28125 
z
" id="DejaVuSans-Bold-64"/>
    </defs>
    <g style="fill:#0000ff;" transform="translate(2.08227 146.952546)scale(0.1 -0.1)">
     <use xlink:href="#DejaVuSans-Bold-64"/>
    </g>
   </g>
   <g id="text_18">
    <!-- e -->
    <defs>
     <path d="M 62.984375 27.484375 
L 62.984375 22.515625 
L 22.125 22.515625 
Q 22.75 16.359375 26.5625 13.28125 
Q 30.375 10.203125 37.203125 10.203125 
Q 42.71875 10.203125 48.5 11.84375 
Q 54.296875 13.484375 60.40625 16.796875 
L 60.40625 3.328125 
Q 54.203125 0.984375 48 -0.21875 
Q 41.796875 -1.421875 35.59375 -1.421875 
Q 20.75 -1.421875 12.515625 6.125 
Q 4.296875 13.671875 4.296875 27.296875 
Q 4.296875 40.671875 12.375 48.328125 
Q 20.453125 56 34.625 56 
Q 47.515625 56 55.25 48.234375 
Q 62.984375 40.484375 62.984375 27.484375 
z
M 45.015625 33.296875 
Q 45.015625 38.28125 42.109375 41.328125 
Q 39.203125 44.390625 34.515625 44.390625 
Q 29.4375 44.390625 26.265625 41.53125 
Q 23.09375 38.671875 22.3125 33.296875 
z
" id="DejaVuSans-Bold-65"/>
    </defs>
    <g style="fill:#0000ff;" transform="translate(2.26977 189.362302)scale(0.1 -0.1)">
     <use xlink:href="#DejaVuSans-Bold-65"/>
    </g>
   </g>
   <g id="text_19">
    <!-- a -->
    <g style="fill:#ff0000;" transform="translate(274.023428 19.723277)scale(0.1 -0.1)">
     <use xlink:href="#DejaVuSans-Bold-61"/>
    </g>
   </g>
   <g id="text_20">
    <!-- b -->
    <g style="fill:#0000ff;" transform="translate(273.818741 62.133034)scale(0.1 -0.1)">
     <use xlink:href="#DejaVuSans-Bold-62"/>
    </g>
   </g>
   <g id="text_21">
    <!-- c -->
    <g style="fill:#0000ff;" transform="translate(274.433585 104.54279)scale(0.1 -0.1)">
     <use xlink:href="#DejaVuSans-Bold-63"/>
    </g>
   </g>
   <g id="text_22">
    <!-- d -->
    <g style="fill:#0000ff;" transform="translate(273.818741 146.952546)scale(0.1 -0.1)">
     <use xlink:href="#DejaVuSans-Bold-64"/>
    </g>
   </g>
   <g id="text_23">
    <!-- e -->
    <g style="fill:#0000ff;" transform="translate(274.006241 189.362302)scale(0.1 -0.1)">
     <use xlink:href="#DejaVuSans-Bold-65"/>
    </g>
   </g>
   <g id="text_24">
    <!-- ...etc. -->
    <defs>
     <path d="M 10.203125 18.890625 
L 27.78125 18.890625 
L 27.78125 0 
L 10.203125 0 
z
" id="DejaVuSans-Bold-2e"/>
     <path d="M 27.484375 70.21875 
L 27.484375 54.6875 
L 45.515625 54.6875 
L 45.515625 42.1875 
L 27.484375 42.1875 
L 27.484375 19 
Q 27.484375 15.1875 29 13.84375 
Q 30.515625 12.5 35.015625 12.5 
L 44 12.5 
L 44 0 
L 29 0 
Q 18.65625 0 14.328125 4.3125 
Q 10.015625 8.640625 10.015625 19 
L 10.015625 42.1875 
L 1.3125 42.1875 
L 1.3125 54.6875 
L 10.015625 54.6875 
L 10.015625 70.21875 
z
" id="DejaVuSans-Bold-74"/>
    </defs>
    <g transform="translate(14.69284 217.174657)scale(0.0833 -0.0833)">
     <use xlink:href="#DejaVuSans-Bold-2e"/>
     <use x="37.988281" xlink:href="#DejaVuSans-Bold-2e"/>
     <use x="75.976562" xlink:href="#DejaVuSans-Bold-2e"/>
     <use x="113.964844" xlink:href="#DejaVuSans-Bold-65"/>
     <use x="181.787109" xlink:href="#DejaVuSans-Bold-74"/>
     <use x="229.589844" xlink:href="#DejaVuSans-Bold-63"/>
     <use x="288.867188" xlink:href="#DejaVuSans-Bold-2e"/>
    </g>
   </g>
  </g>
 </g>
 <defs>
  <clipPath id="pd3ff6fa1ae">
   <rect height="231.84" width="288.72" x="0" y="0"/>
  </clipPath>
 </defs>
</svg>
