<?xml version="1.0" encoding="utf-8" standalone="no"?>
<!DOCTYPE svg PUBLIC "-//W3C//DTD SVG 1.1//EN"
  "http://www.w3.org/Graphics/SVG/1.1/DTD/svg11.dtd">
<!-- Created with matplotlib (http://matplotlib.org/) -->
<svg height="121pt" version="1.1" viewBox="0 0 203 121" width="203pt" xmlns="http://www.w3.org/2000/svg" xmlns:xlink="http://www.w3.org/1999/xlink">
 <defs>
  <style type="text/css">
*{stroke-linecap:butt;stroke-linejoin:round;}
  </style>
 </defs>
 <g id="figure_1">
  <g id="patch_1">
   <path d="M 0 121.68 
L 203.76 121.68 
L 203.76 0 
L 0 0 
z
" style="fill:#ffffff;"/>
  </g>
  <g id="axes_1">
   <g id="patch_2">
    <path clip-path="url(#pe5f76963a2)" d="M 60.923855 41.778494 
L 53.962976 39.880228 
L 54.595783 38.614718 
L 29.636145 26.135924 
L 29.636145 26.135924 
L 54.595783 38.614718 
L 55.22859 37.349207 
z
" style="stroke:#000000;stroke-linejoin:miter;"/>
   </g>
   <g id="patch_3">
    <path clip-path="url(#pe5f76963a2)" d="M 60.923855 54.433599 
L 55.22859 58.862886 
L 54.595783 57.597375 
L 29.636145 70.076169 
L 29.636145 70.076169 
L 54.595783 57.597375 
L 53.962976 56.331865 
z
" style="stroke:#000000;stroke-linejoin:miter;"/>
   </g>
   <g id="patch_4">
    <path clip-path="url(#pe5f76963a2)" d="M 73.58 62.254884 
L 74.995 69.329302 
L 73.58 69.329302 
L 73.58 90.552558 
L 73.58 90.552558 
L 73.58 69.329302 
L 72.165 69.329302 
z
" style="stroke:#000000;stroke-linejoin:miter;"/>
   </g>
   <g id="patch_5">
    <path clip-path="url(#pe5f76963a2)" d="M 116.03 48.106047 
L 108.955 49.52093 
L 108.955 48.106047 
L 87.73 48.106047 
L 87.73 48.106047 
L 108.955 48.106047 
L 108.955 46.691163 
z
" style="stroke:#000000;stroke-linejoin:miter;"/>
   </g>
   <g id="patch_6">
    <path clip-path="url(#pe5f76963a2)" d="M 172.63 48.106047 
L 165.555 49.52093 
L 165.555 48.106047 
L 144.33 48.106047 
L 144.33 48.106047 
L 165.555 48.106047 
L 165.555 46.691163 
z
" style="stroke:#000000;stroke-linejoin:miter;"/>
   </g>
   <g id="patch_7">
    <path clip-path="url(#pe5f76963a2)" d="M 16.98 33.957209 
C 20.732624 33.957209 24.332055 32.466399 26.985561 29.813111 
C 29.639067 27.159823 31.13 23.560688 31.13 19.808372 
C 31.13 16.056057 29.639067 12.456921 26.985561 9.803633 
C 24.332055 7.150346 20.732624 5.659535 16.98 5.659535 
C 13.227376 5.659535 9.627945 7.150346 6.974439 9.803633 
C 4.320933 12.456921 2.83 16.056057 2.83 19.808372 
C 2.83 23.560688 4.320933 27.159823 6.974439 29.813111 
C 9.627945 32.466399 13.227376 33.957209 16.98 33.957209 
z
" style="fill:none;stroke:#000000;stroke-linejoin:miter;"/>
   </g>
   <g id="patch_8">
    <path clip-path="url(#pe5f76963a2)" d="M 16.98 90.552558 
C 20.732624 90.552558 24.332055 89.061747 26.985561 86.40846 
C 29.639067 83.755172 31.13 80.156036 31.13 76.403721 
C 31.13 72.651405 29.639067 69.05227 26.985561 66.398982 
C 24.332055 63.745694 20.732624 62.254884 16.98 62.254884 
C 13.227376 62.254884 9.627945 63.745694 6.974439 66.398982 
C 4.320933 69.05227 2.83 72.651405 2.83 76.403721 
C 2.83 80.156036 4.320933 83.755172 6.974439 86.40846 
C 9.627945 89.061747 13.227376 90.552558 16.98 90.552558 
z
" style="fill:none;stroke:#000000;stroke-linejoin:miter;"/>
   </g>
   <g id="patch_9">
    <path clip-path="url(#pe5f76963a2)" d="M 73.58 118.850233 
C 77.332624 118.850233 80.932055 117.359422 83.585561 114.706134 
C 86.239067 112.052846 87.73 108.453711 87.73 104.701395 
C 87.73 100.94908 86.239067 97.349944 83.585561 94.696657 
C 80.932055 92.043369 77.332624 90.552558 73.58 90.552558 
C 69.827376 90.552558 66.227945 92.043369 63.574439 94.696657 
C 60.920933 97.349944 59.43 100.94908 59.43 104.701395 
C 59.43 108.453711 60.920933 112.052846 63.574439 114.706134 
C 66.227945 117.359422 69.827376 118.850233 73.58 118.850233 
z
" style="fill:none;stroke:#000000;stroke-linejoin:miter;"/>
   </g>
   <g id="patch_10">
    <path clip-path="url(#pe5f76963a2)" d="M 73.58 62.254884 
C 77.332624 62.254884 80.932055 60.764073 83.585561 58.110785 
C 86.239067 55.457498 87.73 51.858362 87.73 48.106047 
C 87.73 44.353731 86.239067 40.754596 83.585561 38.101308 
C 80.932055 35.44802 77.332624 33.957209 73.58 33.957209 
C 69.827376 33.957209 66.227945 35.44802 63.574439 38.101308 
C 60.920933 40.754596 59.43 44.353731 59.43 48.106047 
C 59.43 51.858362 60.920933 55.457498 63.574439 58.110785 
C 66.227945 60.764073 69.827376 62.254884 73.58 62.254884 
z
" style="fill:#b2b2b2;stroke:#000000;stroke-linejoin:miter;"/>
   </g>
   <g id="patch_11">
    <path clip-path="url(#pe5f76963a2)" d="M 73.58 62.254884 
C 77.332624 62.254884 80.932055 60.764073 83.585561 58.110785 
C 86.239067 55.457498 87.73 51.858362 87.73 48.106047 
C 87.73 44.353731 86.239067 40.754596 83.585561 38.101308 
C 80.932055 35.44802 77.332624 33.957209 73.58 33.957209 
C 69.827376 33.957209 66.227945 35.44802 63.574439 38.101308 
C 60.920933 40.754596 59.43 44.353731 59.43 48.106047 
C 59.43 51.858362 60.920933 55.457498 63.574439 58.110785 
C 66.227945 60.764073 69.827376 62.254884 73.58 62.254884 
z
" style="fill:none;stroke:#000000;stroke-linejoin:miter;"/>
   </g>
   <g id="patch_12">
    <path clip-path="url(#pe5f76963a2)" d="M 130.18 62.254884 
C 133.932624 62.254884 137.532055 60.764073 140.185561 58.110785 
C 142.839067 55.457498 144.33 51.858362 144.33 48.106047 
C 144.33 44.353731 142.839067 40.754596 140.185561 38.101308 
C 137.532055 35.44802 133.932624 33.957209 130.18 33.957209 
C 126.427376 33.957209 122.827945 35.44802 120.174439 38.101308 
C 117.520933 40.754596 116.03 44.353731 116.03 48.106047 
C 116.03 51.858362 117.520933 55.457498 120.174439 58.110785 
C 122.827945 60.764073 126.427376 62.254884 130.18 62.254884 
z
" style="fill:#b2b2b2;stroke:#000000;stroke-linejoin:miter;"/>
   </g>
   <g id="patch_13">
    <path clip-path="url(#pe5f76963a2)" d="M 130.18 62.254884 
C 133.932624 62.254884 137.532055 60.764073 140.185561 58.110785 
C 142.839067 55.457498 144.33 51.858362 144.33 48.106047 
C 144.33 44.353731 142.839067 40.754596 140.185561 38.101308 
C 137.532055 35.44802 133.932624 33.957209 130.18 33.957209 
C 126.427376 33.957209 122.827945 35.44802 120.174439 38.101308 
C 117.520933 40.754596 116.03 44.353731 116.03 48.106047 
C 116.03 51.858362 117.520933 55.457498 120.174439 58.110785 
C 122.827945 60.764073 126.427376 62.254884 130.18 62.254884 
z
" style="fill:none;stroke:#000000;stroke-linejoin:miter;"/>
   </g>
   <g id="patch_14">
    <path clip-path="url(#pe5f76963a2)" d="M 186.78 62.254884 
C 190.532624 62.254884 194.132055 60.764073 196.785561 58.110785 
C 199.439067 55.457498 200.93 51.858362 200.93 48.106047 
C 200.93 44.353731 199.439067 40.754596 196.785561 38.101308 
C 194.132055 35.44802 190.532624 33.957209 186.78 33.957209 
C 183.027376 33.957209 179.427945 35.44802 176.774439 38.101308 
C 174.120933 40.754596 172.63 44.353731 172.63 48.106047 
C 172.63 51.858362 174.120933 55.457498 176.774439 58.110785 
C 179.427945 60.764073 183.027376 62.254884 186.78 62.254884 
z
" style="fill:none;stroke:#000000;stroke-linejoin:miter;"/>
   </g>
   <g id="patch_15">
    <path clip-path="url(#pe5f76963a2)" d="M 45.28 39.616744 
C 49.032624 39.616744 52.632055 38.125933 55.285561 35.472646 
C 57.939067 32.819358 59.43 29.220222 59.43 25.467907 
C 59.43 21.715591 57.939067 18.116456 55.285561 15.463168 
C 52.632055 12.809881 49.032624 11.31907 45.28 11.31907 
C 41.527376 11.31907 37.927945 12.809881 35.274439 15.463168 
C 32.620933 18.116456 31.13 21.715591 31.13 25.467907 
C 31.13 29.220222 32.620933 32.819358 35.274439 35.472646 
C 37.927945 38.125933 41.527376 39.616744 45.28 39.616744 
z
" style="fill:none;"/>
   </g>
   <g id="patch_16">
    <path clip-path="url(#pe5f76963a2)" d="M 45.28 84.893023 
C 49.032624 84.893023 52.632055 83.402213 55.285561 80.748925 
C 57.939067 78.095637 59.43 74.496502 59.43 70.744186 
C 59.43 66.991871 57.939067 63.392735 55.285561 60.739447 
C 52.632055 58.08616 49.032624 56.595349 45.28 56.595349 
C 41.527376 56.595349 37.927945 58.08616 35.274439 60.739447 
C 32.620933 63.392735 31.13 66.991871 31.13 70.744186 
C 31.13 74.496502 32.620933 78.095637 35.274439 80.748925 
C 37.927945 83.402213 41.527376 84.893023 45.28 84.893023 
z
" style="fill:none;"/>
   </g>
   <g id="patch_17">
    <path clip-path="url(#pe5f76963a2)" d="M 84.9 90.552558 
C 88.652624 90.552558 92.252055 89.061747 94.905561 86.40846 
C 97.559067 83.755172 99.05 80.156036 99.05 76.403721 
C 99.05 72.651405 97.559067 69.05227 94.905561 66.398982 
C 92.252055 63.745694 88.652624 62.254884 84.9 62.254884 
C 81.147376 62.254884 77.547945 63.745694 74.894439 66.398982 
C 72.240933 69.05227 70.75 72.651405 70.75 76.403721 
C 70.75 80.156036 72.240933 83.755172 74.894439 86.40846 
C 77.547945 89.061747 81.147376 90.552558 84.9 90.552558 
z
" style="fill:none;"/>
   </g>
   <g id="patch_18">
    <path clip-path="url(#pe5f76963a2)" d="M 73.58 33.957209 
C 77.332624 33.957209 80.932055 32.466399 83.585561 29.813111 
C 86.239067 27.159823 87.73 23.560688 87.73 19.808372 
C 87.73 16.056057 86.239067 12.456921 83.585561 9.803633 
C 80.932055 7.150346 77.332624 5.659535 73.58 5.659535 
C 69.827376 5.659535 66.227945 7.150346 63.574439 9.803633 
C 60.920933 12.456921 59.43 16.056057 59.43 19.808372 
C 59.43 23.560688 60.920933 27.159823 63.574439 29.813111 
C 66.227945 32.466399 69.827376 33.957209 73.58 33.957209 
z
" style="fill:none;"/>
   </g>
   <g id="patch_19">
    <path clip-path="url(#pe5f76963a2)" d="M 130.18 33.957209 
C 133.932624 33.957209 137.532055 32.466399 140.185561 29.813111 
C 142.839067 27.159823 144.33 23.560688 144.33 19.808372 
C 144.33 16.056057 142.839067 12.456921 140.185561 9.803633 
C 137.532055 7.150346 133.932624 5.659535 130.18 5.659535 
C 126.427376 5.659535 122.827945 7.150346 120.174439 9.803633 
C 117.520933 12.456921 116.03 16.056057 116.03 19.808372 
C 116.03 23.560688 117.520933 27.159823 120.174439 29.813111 
C 122.827945 32.466399 126.427376 33.957209 130.18 33.957209 
z
" style="fill:none;"/>
   </g>
   <g id="patch_20">
    <path clip-path="url(#pe5f76963a2)" d="M 186.78 33.957209 
C 190.532624 33.957209 194.132055 32.466399 196.785561 29.813111 
C 199.439067 27.159823 200.93 23.560688 200.93 19.808372 
C 200.93 16.056057 199.439067 12.456921 196.785561 9.803633 
C 194.132055 7.150346 190.532624 5.659535 186.78 5.659535 
C 183.027376 5.659535 179.427945 7.150346 176.774439 9.803633 
C 174.120933 12.456921 172.63 16.056057 172.63 19.808372 
C 172.63 23.560688 174.120933 27.159823 176.774439 29.813111 
C 179.427945 32.466399 183.027376 33.957209 186.78 33.957209 
z
" style="fill:none;"/>
   </g>
   <g id="matplotlib.axis_1"/>
   <g id="matplotlib.axis_2"/>
   <g id="text_1">
    <!-- $x_0$ -->
    <defs>
     <path d="M 60.015625 54.6875 
L 34.90625 27.875 
L 50.296875 0 
L 39.984375 0 
L 28.421875 21.6875 
L 8.296875 0 
L -2.59375 0 
L 24.3125 28.8125 
L 10.015625 54.6875 
L 20.3125 54.6875 
L 30.8125 34.90625 
L 49.125 54.6875 
z
" id="DejaVuSans-Oblique-78"/>
     <path d="M 31.78125 66.40625 
Q 24.171875 66.40625 20.328125 58.90625 
Q 16.5 51.421875 16.5 36.375 
Q 16.5 21.390625 20.328125 13.890625 
Q 24.171875 6.390625 31.78125 6.390625 
Q 39.453125 6.390625 43.28125 13.890625 
Q 47.125 21.390625 47.125 36.375 
Q 47.125 51.421875 43.28125 58.90625 
Q 39.453125 66.40625 31.78125 66.40625 
z
M 31.78125 74.21875 
Q 44.046875 74.21875 50.515625 64.515625 
Q 56.984375 54.828125 56.984375 36.375 
Q 56.984375 17.96875 50.515625 8.265625 
Q 44.046875 -1.421875 31.78125 -1.421875 
Q 19.53125 -1.421875 13.0625 8.265625 
Q 6.59375 17.96875 6.59375 36.375 
Q 6.59375 54.828125 13.0625 64.515625 
Q 19.53125 74.21875 31.78125 74.21875 
z
" id="DejaVuSans-30"/>
    </defs>
    <g transform="translate(11.63 22.567747)scale(0.1 -0.1)">
     <use transform="translate(0 0.3125)" xlink:href="#DejaVuSans-Oblique-78"/>
     <use transform="translate(59.179688 -16.09375)scale(0.7)" xlink:href="#DejaVuSans-30"/>
    </g>
   </g>
   <g id="text_2">
    <!-- $x_1$ -->
    <defs>
     <path d="M 12.40625 8.296875 
L 28.515625 8.296875 
L 28.515625 63.921875 
L 10.984375 60.40625 
L 10.984375 69.390625 
L 28.421875 72.90625 
L 38.28125 72.90625 
L 38.28125 8.296875 
L 54.390625 8.296875 
L 54.390625 0 
L 12.40625 0 
z
" id="DejaVuSans-31"/>
    </defs>
    <g transform="translate(11.63 79.163096)scale(0.1 -0.1)">
     <use transform="translate(0 0.3125)" xlink:href="#DejaVuSans-Oblique-78"/>
     <use transform="translate(59.179688 -16.09375)scale(0.7)" xlink:href="#DejaVuSans-31"/>
    </g>
   </g>
   <g id="text_3">
    <!-- $b$ -->
    <defs>
     <path d="M 49.515625 33.40625 
Q 49.515625 40.484375 46.265625 44.484375 
Q 43.015625 48.484375 37.3125 48.484375 
Q 33.15625 48.484375 29.515625 46.453125 
Q 25.875 44.4375 23.1875 40.578125 
Q 20.359375 36.53125 18.71875 31.171875 
Q 17.09375 25.828125 17.09375 20.515625 
Q 17.09375 13.765625 20.28125 9.9375 
Q 23.484375 6.109375 29.109375 6.109375 
Q 33.34375 6.109375 36.953125 8.078125 
Q 40.578125 10.0625 43.3125 13.921875 
Q 46.09375 17.921875 47.796875 23.234375 
Q 49.515625 28.5625 49.515625 33.40625 
z
M 21.578125 46.390625 
Q 24.90625 50.875 29.90625 53.4375 
Q 34.90625 56 40.375 56 
Q 48.78125 56 53.734375 50.328125 
Q 58.6875 44.671875 58.6875 35.015625 
Q 58.6875 27.09375 55.78125 19.671875 
Q 52.875 12.25 47.515625 6.5 
Q 44 2.6875 39.40625 0.625 
Q 34.8125 -1.421875 29.78125 -1.421875 
Q 24.46875 -1.421875 20.5625 1.015625 
Q 16.65625 3.46875 14.203125 8.296875 
L 12.59375 0 
L 3.609375 0 
L 18.40625 75.984375 
L 27.390625 75.984375 
z
" id="DejaVuSans-Oblique-62"/>
    </defs>
    <g transform="translate(70.38 107.46077)scale(0.1 -0.1)">
     <use transform="translate(0 0.015625)" xlink:href="#DejaVuSans-Oblique-62"/>
    </g>
   </g>
   <g id="text_4">
    <!-- Σ -->
    <defs>
     <path d="M 21.140625 8.296875 
L 56.78125 8.296875 
L 56.78125 0 
L 9.8125 0 
L 9.8125 8.296875 
L 33.203125 38.765625 
L 9.8125 64.59375 
L 9.8125 72.90625 
L 55.90625 72.90625 
L 55.90625 64.59375 
L 21.140625 64.59375 
L 44.53125 38.96875 
z
" id="DejaVuSans-3a3"/>
    </defs>
    <g transform="translate(70.420625 50.865422)scale(0.1 -0.1)">
     <use xlink:href="#DejaVuSans-3a3"/>
    </g>
   </g>
   <g id="text_5">
    <!-- $f(Σ)$ -->
    <defs>
     <path d="M 47.796875 75.984375 
L 46.390625 68.5 
L 37.796875 68.5 
Q 32.90625 68.5 30.6875 66.578125 
Q 28.46875 64.65625 27.390625 59.515625 
L 26.421875 54.6875 
L 41.21875 54.6875 
L 39.890625 47.703125 
L 25.09375 47.703125 
L 15.828125 0 
L 6.78125 0 
L 16.109375 47.703125 
L 7.515625 47.703125 
L 8.796875 54.6875 
L 17.390625 54.6875 
L 18.109375 58.5 
Q 19.96875 68.171875 24.625 72.078125 
Q 29.296875 75.984375 39.3125 75.984375 
z
" id="DejaVuSans-Oblique-66"/>
     <path d="M 31 75.875 
Q 24.46875 64.65625 21.28125 53.65625 
Q 18.109375 42.671875 18.109375 31.390625 
Q 18.109375 20.125 21.3125 9.0625 
Q 24.515625 -2 31 -13.1875 
L 23.1875 -13.1875 
Q 15.875 -1.703125 12.234375 9.375 
Q 8.59375 20.453125 8.59375 31.390625 
Q 8.59375 42.28125 12.203125 53.3125 
Q 15.828125 64.359375 23.1875 75.875 
z
" id="DejaVuSans-28"/>
     <path d="M 8.015625 75.875 
L 15.828125 75.875 
Q 23.140625 64.359375 26.78125 53.3125 
Q 30.421875 42.28125 30.421875 31.390625 
Q 30.421875 20.453125 26.78125 9.375 
Q 23.140625 -1.703125 15.828125 -13.1875 
L 8.015625 -13.1875 
Q 14.5 -2 17.703125 9.0625 
Q 20.90625 20.125 20.90625 31.390625 
Q 20.90625 42.671875 17.703125 53.65625 
Q 14.5 64.65625 8.015625 75.875 
z
" id="DejaVuSans-29"/>
    </defs>
    <g transform="translate(121.33 50.865422)scale(0.1 -0.1)">
     <use transform="translate(0 0.015625)" xlink:href="#DejaVuSans-Oblique-66"/>
     <use transform="translate(35.205078 0.015625)" xlink:href="#DejaVuSans-28"/>
     <use transform="translate(74.21875 0.015625)" xlink:href="#DejaVuSans-3a3"/>
     <use transform="translate(137.402344 0.015625)" xlink:href="#DejaVuSans-29"/>
    </g>
   </g>
   <g id="text_6">
    <!-- $y$ -->
    <defs>
     <path d="M 24.8125 -5.078125 
Q 18.5625 -15.578125 14.625 -18.1875 
Q 10.6875 -20.796875 4.59375 -20.796875 
L -2.484375 -20.796875 
L -0.984375 -13.28125 
L 4.203125 -13.28125 
Q 7.953125 -13.28125 10.59375 -11.234375 
Q 13.234375 -9.1875 16.5 -3.21875 
L 19.28125 2 
L 7.171875 54.6875 
L 16.703125 54.6875 
L 25.78125 12.796875 
L 50.875 54.6875 
L 60.296875 54.6875 
z
" id="DejaVuSans-Oblique-79"/>
    </defs>
    <g transform="translate(183.78 50.845109)scale(0.1 -0.1)">
     <use transform="translate(0 0.3125)" xlink:href="#DejaVuSans-Oblique-79"/>
    </g>
   </g>
   <g id="text_7">
    <!-- $w_0$ -->
    <defs>
     <path d="M 8.5 54.6875 
L 17.390625 54.6875 
L 19.671875 10.6875 
L 40.09375 54.6875 
L 50.484375 54.6875 
L 53.515625 10.6875 
L 72.90625 54.6875 
L 81.890625 54.6875 
L 56.890625 0 
L 46.390625 0 
L 43.703125 45.3125 
L 22.796875 0 
L 12.203125 0 
z
" id="DejaVuSans-Oblique-77"/>
    </defs>
    <g transform="translate(39.8655 27.766466)scale(0.0833 -0.0833)">
     <use transform="translate(0 0.3125)" xlink:href="#DejaVuSans-Oblique-77"/>
     <use transform="translate(81.787109 -16.09375)scale(0.7)" xlink:href="#DejaVuSans-30"/>
    </g>
   </g>
   <g id="text_8">
    <!-- $w_1$ -->
    <g transform="translate(39.8655 73.042745)scale(0.0833 -0.0833)">
     <use transform="translate(0 0.3125)" xlink:href="#DejaVuSans-Oblique-77"/>
     <use transform="translate(81.787109 -16.09375)scale(0.7)" xlink:href="#DejaVuSans-31"/>
    </g>
   </g>
   <g id="text_9">
    <!-- 1 -->
    <g transform="translate(82.250019 78.70228)scale(0.0833 -0.0833)">
     <use xlink:href="#DejaVuSans-31"/>
    </g>
   </g>
   <g id="text_10">
    <!-- sum -->
    <defs>
     <path d="M 51.125 52.984375 
L 51.125 39.703125 
Q 45.515625 42.046875 40.28125 43.21875 
Q 35.0625 44.390625 30.421875 44.390625 
Q 25.4375 44.390625 23.015625 43.140625 
Q 20.609375 41.890625 20.609375 39.3125 
Q 20.609375 37.203125 22.4375 36.078125 
Q 24.265625 34.96875 29 34.421875 
L 32.078125 33.984375 
Q 45.515625 32.28125 50.140625 28.375 
Q 54.78125 24.46875 54.78125 16.109375 
Q 54.78125 7.375 48.328125 2.96875 
Q 41.890625 -1.421875 29.109375 -1.421875 
Q 23.6875 -1.421875 17.890625 -0.5625 
Q 12.109375 0.296875 6 2 
L 6 15.28125 
Q 11.234375 12.75 16.71875 11.46875 
Q 22.21875 10.203125 27.875 10.203125 
Q 33.015625 10.203125 35.59375 11.609375 
Q 38.1875 13.03125 38.1875 15.828125 
Q 38.1875 18.171875 36.40625 19.3125 
Q 34.625 20.453125 29.296875 21.09375 
L 26.21875 21.484375 
Q 14.546875 22.953125 9.859375 26.90625 
Q 5.171875 30.859375 5.171875 38.921875 
Q 5.171875 47.609375 11.125 51.796875 
Q 17.09375 56 29.390625 56 
Q 34.234375 56 39.546875 55.265625 
Q 44.875 54.546875 51.125 52.984375 
z
" id="DejaVuSans-Bold-73"/>
     <path d="M 7.8125 21.296875 
L 7.8125 54.6875 
L 25.390625 54.6875 
L 25.390625 49.21875 
Q 25.390625 44.78125 25.34375 38.0625 
Q 25.296875 31.34375 25.296875 29.109375 
Q 25.296875 22.515625 25.640625 19.609375 
Q 25.984375 16.703125 26.8125 15.375 
Q 27.875 13.671875 29.609375 12.734375 
Q 31.34375 11.8125 33.59375 11.8125 
Q 39.0625 11.8125 42.1875 16.015625 
Q 45.3125 20.21875 45.3125 27.6875 
L 45.3125 54.6875 
L 62.796875 54.6875 
L 62.796875 0 
L 45.3125 0 
L 45.3125 7.90625 
Q 41.359375 3.125 36.9375 0.84375 
Q 32.515625 -1.421875 27.203125 -1.421875 
Q 17.71875 -1.421875 12.765625 4.390625 
Q 7.8125 10.203125 7.8125 21.296875 
z
" id="DejaVuSans-Bold-75"/>
     <path d="M 59.078125 45.609375 
Q 62.40625 50.6875 66.96875 53.34375 
Q 71.53125 56 77 56 
Q 86.421875 56 91.359375 50.1875 
Q 96.296875 44.390625 96.296875 33.296875 
L 96.296875 0 
L 78.71875 0 
L 78.71875 28.515625 
Q 78.765625 29.15625 78.78125 29.828125 
Q 78.8125 30.515625 78.8125 31.78125 
Q 78.8125 37.59375 77.09375 40.203125 
Q 75.390625 42.828125 71.578125 42.828125 
Q 66.609375 42.828125 63.890625 38.71875 
Q 61.1875 34.625 61.078125 26.859375 
L 61.078125 0 
L 43.5 0 
L 43.5 28.515625 
Q 43.5 37.59375 41.9375 40.203125 
Q 40.375 42.828125 36.375 42.828125 
Q 31.34375 42.828125 28.609375 38.703125 
Q 25.875 34.578125 25.875 26.90625 
L 25.875 0 
L 8.296875 0 
L 8.296875 54.6875 
L 25.875 54.6875 
L 25.875 46.6875 
Q 29.109375 51.3125 33.28125 53.65625 
Q 37.453125 56 42.484375 56 
Q 48.140625 56 52.484375 53.265625 
Q 56.84375 50.53125 59.078125 45.609375 
z
" id="DejaVuSans-Bold-6d"/>
    </defs>
    <g transform="translate(63.796155 22.106931)scale(0.0833 -0.0833)">
     <use xlink:href="#DejaVuSans-Bold-73"/>
     <use x="59.521484" xlink:href="#DejaVuSans-Bold-75"/>
     <use x="130.712891" xlink:href="#DejaVuSans-Bold-6d"/>
    </g>
   </g>
   <g id="text_11">
    <!-- activation -->
    <defs>
     <path d="M 32.90625 24.609375 
Q 27.4375 24.609375 24.671875 22.75 
Q 21.921875 20.90625 21.921875 17.28125 
Q 21.921875 13.96875 24.140625 12.078125 
Q 26.375 10.203125 30.328125 10.203125 
Q 35.25 10.203125 38.625 13.734375 
Q 42 17.28125 42 22.609375 
L 42 24.609375 
z
M 59.625 31.203125 
L 59.625 0 
L 42 0 
L 42 8.109375 
Q 38.484375 3.125 34.078125 0.84375 
Q 29.6875 -1.421875 23.390625 -1.421875 
Q 14.890625 -1.421875 9.59375 3.53125 
Q 4.296875 8.5 4.296875 16.40625 
Q 4.296875 26.03125 10.90625 30.515625 
Q 17.53125 35.015625 31.6875 35.015625 
L 42 35.015625 
L 42 36.375 
Q 42 40.53125 38.71875 42.453125 
Q 35.453125 44.390625 28.515625 44.390625 
Q 22.90625 44.390625 18.0625 43.265625 
Q 13.234375 42.140625 9.078125 39.890625 
L 9.078125 53.21875 
Q 14.703125 54.59375 20.359375 55.296875 
Q 26.03125 56 31.6875 56 
Q 46.484375 56 53.046875 50.171875 
Q 59.625 44.34375 59.625 31.203125 
z
" id="DejaVuSans-Bold-61"/>
     <path d="M 52.59375 52.984375 
L 52.59375 38.71875 
Q 49.03125 41.15625 45.4375 42.328125 
Q 41.84375 43.5 37.984375 43.5 
Q 30.671875 43.5 26.59375 39.234375 
Q 22.515625 34.96875 22.515625 27.296875 
Q 22.515625 19.625 26.59375 15.34375 
Q 30.671875 11.078125 37.984375 11.078125 
Q 42.09375 11.078125 45.78125 12.296875 
Q 49.46875 13.53125 52.59375 15.921875 
L 52.59375 1.609375 
Q 48.484375 0.09375 44.265625 -0.65625 
Q 40.046875 -1.421875 35.796875 -1.421875 
Q 21 -1.421875 12.640625 6.171875 
Q 4.296875 13.765625 4.296875 27.296875 
Q 4.296875 40.828125 12.640625 48.40625 
Q 21 56 35.796875 56 
Q 40.09375 56 44.265625 55.25 
Q 48.4375 54.5 52.59375 52.984375 
z
" id="DejaVuSans-Bold-63"/>
     <path d="M 27.484375 70.21875 
L 27.484375 54.6875 
L 45.515625 54.6875 
L 45.515625 42.1875 
L 27.484375 42.1875 
L 27.484375 19 
Q 27.484375 15.1875 29 13.84375 
Q 30.515625 12.5 35.015625 12.5 
L 44 12.5 
L 44 0 
L 29 0 
Q 18.65625 0 14.328125 4.3125 
Q 10.015625 8.640625 10.015625 19 
L 10.015625 42.1875 
L 1.3125 42.1875 
L 1.3125 54.6875 
L 10.015625 54.6875 
L 10.015625 70.21875 
z
" id="DejaVuSans-Bold-74"/>
     <path d="M 8.40625 54.6875 
L 25.875 54.6875 
L 25.875 0 
L 8.40625 0 
z
M 8.40625 75.984375 
L 25.875 75.984375 
L 25.875 61.71875 
L 8.40625 61.71875 
z
" id="DejaVuSans-Bold-69"/>
     <path d="M 1.515625 54.6875 
L 19 54.6875 
L 32.625 16.890625 
L 46.1875 54.6875 
L 63.71875 54.6875 
L 42.1875 0 
L 23 0 
z
" id="DejaVuSans-Bold-76"/>
     <path d="M 34.421875 43.5 
Q 28.609375 43.5 25.5625 39.328125 
Q 22.515625 35.15625 22.515625 27.296875 
Q 22.515625 19.4375 25.5625 15.25 
Q 28.609375 11.078125 34.421875 11.078125 
Q 40.140625 11.078125 43.15625 15.25 
Q 46.1875 19.4375 46.1875 27.296875 
Q 46.1875 35.15625 43.15625 39.328125 
Q 40.140625 43.5 34.421875 43.5 
z
M 34.421875 56 
Q 48.53125 56 56.46875 48.375 
Q 64.40625 40.765625 64.40625 27.296875 
Q 64.40625 13.8125 56.46875 6.1875 
Q 48.53125 -1.421875 34.421875 -1.421875 
Q 20.265625 -1.421875 12.28125 6.1875 
Q 4.296875 13.8125 4.296875 27.296875 
Q 4.296875 40.765625 12.28125 48.375 
Q 20.265625 56 34.421875 56 
z
" id="DejaVuSans-Bold-6f"/>
     <path d="M 63.375 33.296875 
L 63.375 0 
L 45.796875 0 
L 45.796875 5.421875 
L 45.796875 25.484375 
Q 45.796875 32.5625 45.484375 35.25 
Q 45.171875 37.9375 44.390625 39.203125 
Q 43.359375 40.921875 41.59375 41.875 
Q 39.84375 42.828125 37.59375 42.828125 
Q 32.125 42.828125 29 38.59375 
Q 25.875 34.375 25.875 26.90625 
L 25.875 0 
L 8.40625 0 
L 8.40625 54.6875 
L 25.875 54.6875 
L 25.875 46.6875 
Q 29.828125 51.46875 34.265625 53.734375 
Q 38.71875 56 44.09375 56 
Q 53.5625 56 58.46875 50.1875 
Q 63.375 44.390625 63.375 33.296875 
z
" id="DejaVuSans-Bold-6e"/>
    </defs>
    <g transform="translate(106.710876 17.443043)scale(0.0833 -0.0833)">
     <use xlink:href="#DejaVuSans-Bold-61"/>
     <use x="67.480469" xlink:href="#DejaVuSans-Bold-63"/>
     <use x="126.757812" xlink:href="#DejaVuSans-Bold-74"/>
     <use x="174.560547" xlink:href="#DejaVuSans-Bold-69"/>
     <use x="208.837891" xlink:href="#DejaVuSans-Bold-76"/>
     <use x="274.023438" xlink:href="#DejaVuSans-Bold-61"/>
     <use x="341.503906" xlink:href="#DejaVuSans-Bold-74"/>
     <use x="389.306641" xlink:href="#DejaVuSans-Bold-69"/>
     <use x="423.583984" xlink:href="#DejaVuSans-Bold-6f"/>
     <use x="492.285156" xlink:href="#DejaVuSans-Bold-6e"/>
    </g>
    <!-- function -->
    <defs>
     <path d="M 44.390625 75.984375 
L 44.390625 64.5 
L 34.71875 64.5 
Q 31 64.5 29.53125 63.15625 
Q 28.078125 61.8125 28.078125 58.5 
L 28.078125 54.6875 
L 43.015625 54.6875 
L 43.015625 42.1875 
L 28.078125 42.1875 
L 28.078125 0 
L 10.59375 0 
L 10.59375 42.1875 
L 1.90625 42.1875 
L 1.90625 54.6875 
L 10.59375 54.6875 
L 10.59375 58.5 
Q 10.59375 67.4375 15.578125 71.703125 
Q 20.5625 75.984375 31 75.984375 
z
" id="DejaVuSans-Bold-66"/>
    </defs>
    <g transform="translate(110.724244 26.77082)scale(0.0833 -0.0833)">
     <use xlink:href="#DejaVuSans-Bold-66"/>
     <use x="43.505859" xlink:href="#DejaVuSans-Bold-75"/>
     <use x="114.697266" xlink:href="#DejaVuSans-Bold-6e"/>
     <use x="185.888672" xlink:href="#DejaVuSans-Bold-63"/>
     <use x="245.166016" xlink:href="#DejaVuSans-Bold-74"/>
     <use x="292.96875" xlink:href="#DejaVuSans-Bold-69"/>
     <use x="327.246094" xlink:href="#DejaVuSans-Bold-6f"/>
     <use x="395.947266" xlink:href="#DejaVuSans-Bold-6e"/>
    </g>
   </g>
   <g id="text_12">
    <!-- output -->
    <defs>
     <path d="M 25.875 7.90625 
L 25.875 -20.796875 
L 8.40625 -20.796875 
L 8.40625 54.6875 
L 25.875 54.6875 
L 25.875 46.6875 
Q 29.5 51.46875 33.890625 53.734375 
Q 38.28125 56 44 56 
Q 54.109375 56 60.59375 47.96875 
Q 67.09375 39.9375 67.09375 27.296875 
Q 67.09375 14.65625 60.59375 6.609375 
Q 54.109375 -1.421875 44 -1.421875 
Q 38.28125 -1.421875 33.890625 0.84375 
Q 29.5 3.125 25.875 7.90625 
z
M 37.5 43.3125 
Q 31.890625 43.3125 28.875 39.1875 
Q 25.875 35.0625 25.875 27.296875 
Q 25.875 19.53125 28.875 15.40625 
Q 31.890625 11.28125 37.5 11.28125 
Q 43.109375 11.28125 46.0625 15.375 
Q 49.03125 19.484375 49.03125 27.296875 
Q 49.03125 35.109375 46.0625 39.203125 
Q 43.109375 43.3125 37.5 43.3125 
z
" id="DejaVuSans-Bold-70"/>
    </defs>
    <g transform="translate(171.025888 22.106931)scale(0.0833 -0.0833)">
     <use xlink:href="#DejaVuSans-Bold-6f"/>
     <use x="68.701172" xlink:href="#DejaVuSans-Bold-75"/>
     <use x="139.892578" xlink:href="#DejaVuSans-Bold-74"/>
     <use x="187.695312" xlink:href="#DejaVuSans-Bold-70"/>
     <use x="259.277344" xlink:href="#DejaVuSans-Bold-75"/>
     <use x="330.46875" xlink:href="#DejaVuSans-Bold-74"/>
    </g>
   </g>
  </g>
 </g>
 <defs>
  <clipPath id="pe5f76963a2">
   <rect height="121.68" width="203.76" x="0" y="0"/>
  </clipPath>
 </defs>
</svg>
