<?xml version="1.0" encoding="utf-8"?>
<!-- Generator: Adobe Illustrator 16.0.0, SVG Export Plug-In . SVG Version: 6.00 Build 0)  -->
<!DOCTYPE svg PUBLIC "-//W3C//DTD SVG 1.1//EN" "http://www.w3.org/Graphics/SVG/1.1/DTD/svg11.dtd">
<svg version="1.1" id="Layer_1" xmlns="http://www.w3.org/2000/svg" xmlns:xlink="http://www.w3.org/1999/xlink" x="0px" y="0px"
	 width="1224px" height="1224px" viewBox="0 0 1224 1224" enable-background="new 0 0 1224 1224" xml:space="preserve">
<polyline fill="none" stroke="#000000" stroke-width="3.276" stroke-linecap="round" stroke-linejoin="round" points="
	79.167,70.046 79.167,514.106 523.227,514.106 "/>
<polyline fill="none" stroke="#000000" stroke-width="3.276" stroke-linecap="round" stroke-linejoin="round" points="
	74.743,82.207 79.167,70.046 83.593,82.207 "/>
<polyline fill="none" stroke="#000000" stroke-width="3.276" stroke-linecap="round" stroke-linejoin="round" points="
	511.067,509.681 523.227,514.106 511.067,518.532 "/>
<polyline fill="none" stroke="#000000" stroke-width="3.276" stroke-linecap="round" stroke-linejoin="round" points="
	79.167,677.586 79.167,1121.646 523.227,1121.646 "/>
<polyline fill="none" stroke="#000000" stroke-width="3.276" stroke-linecap="round" stroke-linejoin="round" points="
	74.743,689.746 79.167,677.586 83.593,689.746 "/>
<polyline fill="none" stroke="#000000" stroke-width="3.276" stroke-linecap="round" stroke-linejoin="round" points="
	511.067,1117.221 523.227,1121.646 511.067,1126.07 "/>
<g>
	<defs>
		<rect id="SVGID_1_" x="37.119" y="58.803" width="1153.881" height="1103.284"/>
	</defs>
	<clipPath id="SVGID_2_">
		<use xlink:href="#SVGID_1_"  overflow="visible"/>
	</clipPath>
	<g clip-path="url(#SVGID_2_)">
		<text transform="matrix(-6.123234e-17 -1 1 -6.123234e-17 54.3169 312.3521)" font-family="'GothamMedium'" font-size="23.2601">size</text>
	</g>
	<g clip-path="url(#SVGID_2_)">
		<text transform="matrix(-6.123234e-17 -1 1 -6.123234e-17 54.1079 919.8828)" font-family="'GothamMedium'" font-size="23.2601">size</text>
	</g>
</g>
<text transform="matrix(-6.123234e-17 -1 1 -6.123234e-17 677.9785 919.8916)" font-family="'GothamMedium'" font-size="23.2601">size</text>
<text transform="matrix(1 0 0 1 219.771 551.417)" font-family="'GothamMedium'" font-size="23.2601">domestication</text>
<g>
	<defs>
		<rect id="SVGID_3_" x="37.119" y="58.803" width="1153.881" height="1103.284"/>
	</defs>
	<clipPath id="SVGID_4_">
		<use xlink:href="#SVGID_3_"  overflow="visible"/>
	</clipPath>
	<g clip-path="url(#SVGID_4_)">
		<text transform="matrix(1 0 0 1 219.771 1158.957)" font-family="'GothamMedium'" font-size="23.2601">domestication</text>
	</g>
	
		<path clip-path="url(#SVGID_4_)" fill="none" stroke="#C6262C" stroke-width="3.276" stroke-linecap="round" stroke-linejoin="round" d="
		M355.668,93.896c-0.63-0.915-0.846-1.677,0.11-2.479c0.687-0.574,0.641-1.155,0.127-1.907c-3.246-4.735-4.806-9.988-4.77-15.735
		c0.02-3.247-1.114-6.153-3.533-8.276c-4.375-3.84-9.542-5.802-15.415-5.102c-4.928,0.588-9.479,2.589-14.069,4.359
		c-2.004,0.773-3.385,2.26-3.391,4.468c-0.008,3.487-1.696,5.982-4.222,8.1c-1.858,1.558-3.705,3.128-5.567,4.681
		c-1.759,1.465-3.335,3.106-4.711,4.931c-0.912,1.209-0.813,2.323,0.537,3.175c5.109,3.225,10.463,4.935,16.537,2.959
		c3.272-1.063,5.556,0.879,5.36,4.38c-0.042,0.754-0.026,1.511,0.461,2.104c0.845,1.03,1.124,2.209,1.102,3.49
		c-0.032,1.837,0.987,2.27,2.581,1.981c0.506-0.091,1.015-0.182,1.526-0.225c0.738-0.062,1.529-0.142,1.896,0.717
		c0.352,0.823-0.106,1.433-0.7,1.915c-1.057,0.859-1.46,2-1.508,3.296c-0.093,2.568-0.18,5.135-0.227,7.704
		c-0.023,1.252-0.201,2.635,1.872,2.332c0.782-0.114,0.757,0.707,0.873,1.276c0.417,2.036,0.143,4.262,1.81,5.964
		c0.312,0.319,0.234,1.141,0.154,1.707c-0.906,6.413,0.464,12.366,3.356,18.098c4.792,9.497,8.326,19.633,14.503,28.423
		c0.083,0.119,0.191,0.254,0.202,0.388c0.343,4.351,2.893,8.287,2.856,12.585c-0.037,4.396,0.169,8.782,0.14,13.17
		c-0.027,4.266-1.193,8.439-1.44,12.677c-0.248,4.238-2.059,6.826-6.182,7.952c-2.078,0.567-3.922,1.707-5.128,3.602
		c-1.916,3.01-0.662,5.612,2.813,6.148c2.394,0.37,4.671-0.412,7.014-0.431c3.576-0.029,6.689-0.935,8.482-4.424
		c0.258-0.5,0.747-0.921,1.212-1.267c2.353-1.752,3.651-4.112,4.394-6.918c0.741-2.802,1.725-5.54,2.604-8.306
		c0.188-0.018,0.377-0.036,0.566-0.053c1.427,3.102,2.867,6.197,4.272,9.308c0.375,0.83-0.173,1.419-0.736,1.904
		c-1.281,1.104-2.609,2.149-3.894,3.247c-1.564,1.337-2.162,3.882-1.438,5.833c0.771,2.076,2.493,2.276,4.334,2.217
		c2.13-0.068,4.26-0.081,6.369-0.485c4.675-0.895,9.259-7.131,8.724-11.903c-0.667-5.938-2.016-11.73-3.96-17.362
		c-2.849-8.256-6.337-16.292-8.304-24.847c-0.809-3.516,0.449-6.121,3.841-7.246c3.069-1.017,6.114-2.137,9.238-2.95
		c5.999-1.559,11.021-4.649,15.492-8.892c4.452-4.227,9.689-7.389,15.111-10.227c1.244-0.651,2.666-1.283,3.95-0.299
		c1.259,0.964,0.749,2.429,0.475,3.696c-0.468,2.157-0.965,4.286-0.69,6.532c1.361,11.088,5.381,21.212,11.725,30.303
		c3.505,5.023,6.105,10.199,6.442,16.338c0.302,5.51-0.236,10.866-3.518,15.599c-0.803,1.159-1.709,1.87-3.219,1.939
		c-3.006,0.139-5.481,1.761-7.67,3.572c-1.68,1.391-1.427,3.624-0.861,5.559c0.526,1.807,2.183,1.377,3.541,1.383
		c4.715,0.02,9.376-0.706,14.066-1.036c0.963-0.068,1.917-0.285,2.662-0.944c6.253-5.531,11.776-11.396,14.922-19.548
		c2.215-5.74,1.821-9.823-2.646-13.918c-2.51-2.301-3.463-5.575-3.743-8.965c-0.113-1.379,0.333-1.975,1.794-1.228
		c1.604,0.821,2.87,2.018,4.113,3.281c2.729,2.775,5.388,5.633,8.289,8.216c1.591,1.417,2.92,2.885,3.604,4.88
		c1.633,4.774,2.414,9.64,1.828,14.717c-0.29,2.525-1.403,4.023-3.897,4.636c-5.033,1.234-4.987,2.097-5.199,7.636
		c-0.051,1.345,0.635,1.973,1.896,2.256c3.985,0.896,7.841,0.326,11.75-0.634c4.202-1.031,6.777-3.614,8.222-7.524
		c2.065-5.588,3.82-11.282,5.028-17.109c0.871-4.208,0.998-8.746-2.724-11.619c-3.994-3.081-6.998-6.92-9.905-10.839
		c-3.606-4.86-4.556-10.856-6.096-16.563c-0.036-0.135-0.004-0.293,0.018-0.438c0.655-4.382,1.938-8.589,3.516-12.716
		c0.479-1.252,1.01-1.191,1.817-0.248c1.384,1.62,2.809,3.208,4.272,4.756c3.089,3.27,6.585,5.832,11.212,6.507
		c6.947,1.013,13.911-2.659,14.846-9.565c0.372-2.755-0.784-6.118-1.763-8.284c-2.838-6.284-4.773-1.144-5.329-0.665
		c-0.717,0.618-0.07,1.363,0.125,2.026c0.186,0.633,0.514,1.222,0.698,1.855c1.2,4.139,0.048,7.467-3.265,8.107
		c-6.066,1.172-10.028-0.012-12.878-4.994c-3.106-5.429-3.271-8.716-3.065-14.697c0.16-4.658-0.224-9.247-1.252-13.779
		c-1.597-7.042-5.746-12.125-11.727-16.125c-9.11-6.092-18.763-9.98-29.934-9.1c-2.928,0.231-5.854,0.521-8.785,0.712
		c-9.246,0.601-18.417,1.587-27.456,3.824c-10.412,2.577-20.651,2.87-30.004-3.76c-1.721-1.219-3.755-2.006-5.666-2.949
		c-0.72-0.355-1.482-0.762-2.257-0.846C360.228,99.458,357.775,96.96,355.668,93.896z"/>
	
		<path clip-path="url(#SVGID_4_)" fill="none" stroke="#79B5E3" stroke-width="2.939" stroke-linecap="round" stroke-linejoin="round" stroke-miterlimit="10" d="
		M245.599,434.75c3.11,0.884,5.958-0.884,8.833-3.023c5.636-4.191,11.369-8.249,16.679-12.859c1.053-0.914,2.022-1.921,3.05-2.862
		c1.15-1.05,1.861-2.292,1.958-3.881c0.061-1.001,0.564-1.801,1.288-2.502c3.914-3.79,8.916-4.621,13.822-2.298
		c0.908,0.43,1.566,1.023,2.026,1.94c3.042,6.062,6.102,12.114,9.201,18.146c0.555,1.08,0.438,1.408-0.841,1.567
		c-1.966,0.247-2.804,1.434-2.637,3.281c0.153,1.695,1.033,2.442,3.081,2.492c1.779,0.045,3.561-0.037,5.339,0.021
		c1.142,0.038,1.63-0.501,1.876-1.541c0.5-2.116,0.217-4.213-0.043-6.312c-0.822-6.628-1.669-13.252-2.501-19.879
		c-0.061-0.477-0.049-0.964-0.126-1.437c-0.124-0.759,0.224-1.042,0.935-1.108c2.68-0.246,5.355-0.542,8.036-0.765
		c0.926-0.078,1.774,0.385,2.651,0.623c4.272,1.153,8.54,2.312,12.999,2.513c1.066,0.048,2.129,0.046,3.137-0.291
		c0.843-0.283,1.203,0.012,1.509,0.775c1.976,4.928,4.701,9.365,8.693,12.936c0.647,0.579,0.605,1.074,0.157,1.74
		c-1.772,2.634-3.523,5.282-5.25,7.946c-0.448,0.692-0.938,0.941-1.792,0.809c-3.198-0.499-4.504,0.754-4.33,3.941
		c0.051,0.954,0.455,1.249,1.338,1.239c2.406-0.026,4.811-0.015,7.216-0.006c0.559,0.002,1.03-0.163,1.433-0.557
		c3.884-3.812,7.626-7.743,10.694-12.27c1.259-1.857,1.715-3.681,1.017-5.961c-0.904-2.957-0.659-6.094-0.717-9.165
		c-0.022-1.164,0.733-0.746,1.283-0.546c4.295,1.56,8.529,3.308,12.889,4.65c2.701,0.832,4.203,2.315,5.135,4.964
		c1.334,3.789,3.434,7.315,3.622,11.472c0.023,0.511,0.248,1.029,0.455,1.513c0.621,1.453,1.225,1.637,2.536,0.822
		c3.352-2.082,4.074-3.961,2.994-7.763c-1.747-6.15-3.505-12.3-5.214-18.461c-0.253-0.91-0.726-1.505-1.516-1.979
		c-2.021-1.212-4.062-2.401-5.997-3.741c-3.28-2.272-4.932-5.371-4.133-9.424c0.815-4.143-0.054-8.029-1.558-11.839
		c-0.812-2.057-1.608-4.131-2.77-6.021c-0.454-0.738-0.137-1.119,0.317-1.604c6.038-6.444,9.553-14.156,11.094-22.762
		c1.28-7.147,0.696-14.094-3.158-20.489c-2.272-3.773-5.283-6.617-9.786-7.439c-3.076-0.563-6.026-0.05-8.851,1.269
		c-1.843,0.86-3.557,1.927-5.083,3.265c-1.936,1.696-2.166,4.243-0.623,6.21c1.484,1.89,4.139,2.188,6.195,0.65
		c1.238-0.925,2.475-1.831,3.956-2.339c2.476-0.85,4.243-0.326,5.82,1.79c1.955,2.625,3.021,5.632,3.12,8.856
		c0.296,9.568-2.796,17.932-9.281,25.016c-0.698,0.764-1.333,0.98-2.38,0.544c-2.688-1.117-5.521-1.58-8.448-1.591
		c-9.097-0.038-18.153,0.628-27.209,1.413c-7.374,0.638-14.741,1.319-22.03,2.662c-1.177,0.217-2.388,0.453-3.472,0.934
		c-2.085,0.925-4.18,0.975-6.349,0.527c-4.593-0.947-8.786-2.786-12.532-5.613c-0.533-0.402-1.084-0.843-1.461-1.382
		c-1.406-2.015-3.386-3.088-5.703-3.633c-0.879-0.207-1.585-0.638-2.197-1.291c-1.745-1.859-3.542-3.682-4.957-5.811
		c-0.711-1.068-1.081-0.79-1.539,0.129c-0.964,1.932-1.508,3.964-1.302,6.123c0.078,0.818-0.125,1.229-0.891,1.524
		c-2.899,1.115-4.951,3.092-6.507,5.828c-0.951,1.671-2.548,2.983-3.894,4.42c-1.493,1.593-1.54,3.383,0.044,4.886
		c0.619,0.587,1.021,1.209,1.312,2c0.655,1.779,2.3,2.764,4.146,2.282c6.272-1.635,10.658,1.924,12.394,7.583
		c0.241,0.785,0.337,1.55,0.225,2.4c-0.286,2.165,0.35,4.296,0.387,6.458c0.134,7.778-0.159,15.475-5.314,21.938
		c-2.795,3.504-6.313,6.328-9.441,9.523c-0.403,0.411-0.896,0.747-1.249,1.195c-1.063,1.347-2.349,1.837-4.118,1.789
		c-2.998-0.082-4.511,1.955-4.041,4.93c0.125,0.785,0.598,0.904,1.213,0.908C241.956,434.756,243.447,434.75,245.599,434.75z"/>
	<path clip-path="url(#SVGID_4_)" fill="#79B5E3" d="M315.582,391.66c2.288,0,4.143-1.855,4.143-4.143
		c0-2.288-1.854-4.143-4.143-4.143c-2.289,0-4.143,1.855-4.143,4.143C311.439,389.805,313.293,391.66,315.582,391.66"/>
	<path clip-path="url(#SVGID_4_)" fill="#C6262C" d="M407.373,135.681c2.288,0,4.143-1.855,4.143-4.143s-1.854-4.143-4.143-4.143
		s-4.143,1.855-4.143,4.143S405.085,135.681,407.373,135.681"/>
</g>
<polyline fill="none" stroke="#000000" stroke-width="3.276" stroke-linecap="round" stroke-linejoin="round" points="
	695.873,70.046 695.873,514.106 1139.932,514.106 "/>
<polyline fill="none" stroke="#000000" stroke-width="3.276" stroke-linecap="round" stroke-linejoin="round" points="
	691.447,82.207 695.873,70.046 700.298,82.207 "/>
<polyline fill="none" stroke="#000000" stroke-width="3.276" stroke-linecap="round" stroke-linejoin="round" points="
	1127.771,509.681 1139.932,514.106 1127.771,518.532 "/>
<text transform="matrix(-6.123234e-17 -1 1 -6.123234e-17 671 312.3525)" font-family="'GothamMedium'" font-size="23.2601">size</text>
<text transform="matrix(1 0 0 1 836.4756 551.417)" font-family="'GothamMedium'" font-size="23.2601">domestication</text>
<g>
	<defs>
		<rect id="SVGID_5_" x="37.119" y="58.803" width="1153.881" height="1103.284"/>
	</defs>
	<clipPath id="SVGID_6_">
		<use xlink:href="#SVGID_5_"  overflow="visible"/>
	</clipPath>
	
		<path clip-path="url(#SVGID_6_)" fill="none" stroke="#C6262C" stroke-width="3.276" stroke-linecap="round" stroke-linejoin="round" d="
		M972.373,93.896c-0.63-0.915-0.847-1.677,0.11-2.479c0.687-0.574,0.64-1.155,0.126-1.907c-3.246-4.735-4.806-9.988-4.77-15.735
		c0.021-3.247-1.113-6.153-3.532-8.276c-4.376-3.84-9.542-5.802-15.417-5.102c-4.927,0.588-9.479,2.589-14.067,4.359
		c-2.005,0.773-3.386,2.26-3.392,4.468c-0.008,3.487-1.696,5.982-4.222,8.1c-1.859,1.558-3.705,3.128-5.567,4.681
		c-1.759,1.465-3.336,3.106-4.711,4.931c-0.913,1.209-0.813,2.323,0.536,3.175c5.109,3.225,10.463,4.935,16.537,2.959
		c3.272-1.063,5.557,0.879,5.36,4.38c-0.042,0.754-0.026,1.511,0.461,2.104c0.845,1.03,1.123,2.209,1.102,3.49
		c-0.032,1.837,0.986,2.27,2.58,1.981c0.506-0.091,1.015-0.182,1.526-0.225c0.737-0.062,1.528-0.142,1.896,0.717
		c0.351,0.823-0.106,1.433-0.699,1.915c-1.058,0.859-1.462,2-1.51,3.296c-0.092,2.568-0.179,5.135-0.227,7.704
		c-0.023,1.252-0.2,2.635,1.872,2.332c0.781-0.114,0.757,0.707,0.873,1.276c0.417,2.036,0.143,4.262,1.81,5.964
		c0.312,0.319,0.234,1.141,0.154,1.707c-0.906,6.413,0.465,12.366,3.355,18.098c4.792,9.497,8.325,19.633,14.504,28.423
		c0.084,0.119,0.192,0.254,0.202,0.388c0.342,4.351,2.892,8.287,2.855,12.585c-0.037,4.396,0.169,8.782,0.141,13.17
		c-0.027,4.266-1.194,8.439-1.44,12.677c-0.248,4.238-2.06,6.826-6.182,7.952c-2.078,0.567-3.923,1.707-5.129,3.602
		c-1.916,3.01-0.661,5.612,2.813,6.148c2.394,0.37,4.671-0.412,7.014-0.431c3.575-0.029,6.689-0.935,8.482-4.424
		c0.257-0.5,0.746-0.921,1.211-1.267c2.354-1.752,3.652-4.112,4.396-6.918c0.741-2.802,1.724-5.54,2.603-8.306
		c0.188-0.018,0.377-0.036,0.566-0.053c1.427,3.102,2.867,6.197,4.272,9.308c0.375,0.83-0.173,1.419-0.736,1.904
		c-1.281,1.104-2.609,2.149-3.894,3.247c-1.565,1.337-2.162,3.882-1.438,5.833c0.771,2.076,2.492,2.276,4.333,2.217
		c2.131-0.068,4.26-0.081,6.37-0.485c4.675-0.895,9.259-7.131,8.724-11.903c-0.667-5.938-2.017-11.73-3.961-17.362
		c-2.849-8.256-6.336-16.292-8.303-24.847c-0.809-3.516,0.449-6.121,3.842-7.246c3.066-1.017,6.113-2.137,9.237-2.95
		c5.999-1.559,11.021-4.649,15.491-8.892c4.452-4.227,9.69-7.389,15.112-10.227c1.243-0.651,2.666-1.283,3.95-0.299
		c1.259,0.964,0.748,2.429,0.474,3.696c-0.468,2.157-0.966,4.286-0.69,6.532c1.361,11.088,5.381,21.212,11.725,30.303
		c3.506,5.023,6.105,10.199,6.442,16.338c0.302,5.51-0.235,10.866-3.518,15.599c-0.803,1.159-1.709,1.87-3.219,1.939
		c-3.008,0.139-5.481,1.761-7.671,3.572c-1.68,1.391-1.426,3.624-0.861,5.559c0.526,1.807,2.183,1.377,3.542,1.383
		c4.715,0.02,9.376-0.706,14.065-1.036c0.963-0.068,1.918-0.285,2.662-0.944c6.253-5.531,11.777-11.396,14.922-19.548
		c2.216-5.74,1.821-9.823-2.646-13.918c-2.51-2.301-3.463-5.575-3.742-8.965c-0.113-1.379,0.333-1.975,1.795-1.228
		c1.604,0.821,2.868,2.018,4.112,3.281c2.729,2.775,5.388,5.633,8.289,8.216c1.591,1.417,2.92,2.885,3.603,4.88
		c1.633,4.774,2.415,9.64,1.829,14.717c-0.29,2.525-1.403,4.023-3.896,4.636c-5.034,1.234-4.987,2.097-5.199,7.636
		c-0.054,1.345,0.634,1.973,1.896,2.256c3.984,0.896,7.841,0.326,11.75-0.634c4.202-1.031,6.776-3.614,8.222-7.524
		c2.065-5.588,3.821-11.282,5.027-17.109c0.871-4.208,0.999-8.746-2.723-11.619c-3.994-3.081-6.999-6.92-9.905-10.839
		c-3.606-4.86-4.557-10.856-6.096-16.563c-0.036-0.135-0.004-0.293,0.018-0.438c0.655-4.382,1.938-8.589,3.516-12.716
		c0.479-1.252,1.012-1.191,1.817-0.248c1.384,1.62,2.81,3.208,4.271,4.756c3.09,3.27,6.586,5.832,11.212,6.507
		c6.948,1.013,13.911-2.659,14.847-9.565c0.371-2.755-0.784-6.118-1.763-8.284c-2.838-6.284-4.773-1.144-5.329-0.665
		c-0.718,0.618-0.071,1.363,0.124,2.026c0.187,0.633,0.514,1.222,0.697,1.855c1.201,4.139,0.049,7.467-3.264,8.107
		c-6.066,1.172-10.028-0.012-12.879-4.994c-3.105-5.429-3.271-8.716-3.064-14.697c0.159-4.658-0.224-9.247-1.252-13.779
		c-1.598-7.042-5.747-12.125-11.727-16.125c-9.11-6.092-18.764-9.98-29.935-9.1c-2.929,0.231-5.854,0.521-8.786,0.712
		c-9.245,0.601-18.416,1.587-27.455,3.824c-10.411,2.577-20.65,2.87-30.004-3.76c-1.721-1.219-3.755-2.006-5.665-2.949
		c-0.721-0.355-1.482-0.762-2.257-0.846C976.933,99.458,974.479,96.96,972.373,93.896z"/>
	
		<path clip-path="url(#SVGID_6_)" fill="none" stroke="#C6262C" stroke-width="3.276" stroke-linecap="round" stroke-linejoin="round" d="
		M802.031,247.9c-0.218,0.89-0.471,1.816-0.436,2.716c0.137,3.458-1.306,6.47-2.51,9.545l-0.226,0.6
		c-1.196,0.01-2.932,0.057-4.61,0.227c0.095-0.177,0.196-0.349,0.311-0.512c1.084-1.543,0.781-4.189,1.745-5.742
		c0.416-0.666,0.59-2.151,0.527-2.887c-0.388-4.502,2.586-6.809,3.153-11.163C800.062,244.344,802.906,244.319,802.031,247.9z
		 M884.683,259.048c3.243-3.83,2.575-7.142,3.824-11.662c0.164-0.593,0.611-0.878,0.263-1.312
		c-2.297-2.849-5.434-7.961-7.052-10.197c-0.207-0.285-0.712-0.437-0.612-1.02c0.312,0.141,0.542,0.225,0.754,0.343
		c9.848,5.475,13.839,14.319,14.433,25.089c0.069,1.242-0.107,2.718-1.33,3.233c-2.317,0.976-3.32,2.986-4.534,4.88
		c-1.324,2.063-0.739,3.337,1.71,3.704c3.928,0.588,7.567-0.355,11.031-2.136c0.852-0.438,1.587-1.085,1.363-2.172
		c-0.929-4.514,0.469-8.892,0.699-13.336c0.143-2.76,0.908-5.649-1.068-8.168c-2.093-2.664-5.044-5.404-6.367-8.532
		c-1.029-2.434-2.302-4.749-3.891-6.876c-2.385-3.195-3.521-6.542-5.91-9.734c-0.943-1.261-1.727-2.575-1.681-4.338
		c2.003,2.476,5.167,4.615,7.1,6.776c2.908,3.252,4.851,7.054,7.407,10.471c2.093,2.795,3.162,5.484,5.521,7.937
		c0.361,0.377,0.883,0.776,1.479,0.512c0.631-0.278,0.513-0.93,0.508-1.46c-0.014-1.725-0.039-3.461,0.721-5.057
		c0.755-1.583,0.81-3.159,0.335-4.823c-0.589-2.073-0.426-4.137,0.355-6.136c0.392-1.003,0.596-2.015,0.315-3.057
		c-1.149-4.297-2.739-8.431-3.385-12.923c-0.634-4.404-3.84-7.889-6.703-11.142c-2.303-2.613-4.426-5.239-5.913-8.351
		c-0.959-2.004-2.327-3.595-4.136-4.833c-2.034-1.396-3.871-2.965-5.401-4.943c-4.418-5.704-10.501-8.283-17.521-8.945
		c-6.928-0.655-13.889-0.455-20.816-0.249c-5.815,0.173-11.421-1.755-17.225-1.241c-0.462,0.041-0.984-0.144-1.42-0.349
		c-4.318-2.026-8.839-2.929-13.609-2.568c-0.274,0.02-0.973,0.191-0.808-0.307c0.479-1.449-0.697-1.144-1.299-1.272
		c-0.893-0.19-1.835-0.141-2.744-0.27c-2.904-0.411-6.124,0.333-8.674-1.26c-4.289-2.682-9.162-4.163-13.392-6.925
		c-2.83-1.849-5.859-3.355-8.975-4.688c-1.805-0.772-3.981-1.235-5.266-2.544c-2.197-2.239-4.897-2.931-7.654-3.712
		c-3.274-0.927-6.14-2.437-8.308-5.154c-0.68-0.854-1.544-1.588-2.414-2.261c-1.519-1.172-2.087-0.935-2.257,0.993
		c-0.128,1.441-0.58,1.657-1.844,0.961c-1.501-0.825-3.103-1.473-4.68-2.155c-0.441-0.192-1.018-0.357-1.381,0.077
		c-0.374,0.445-0.043,0.958,0.199,1.367c1.188,2.006,2.356,4.027,3.638,5.973c0.708,1.075,0.618,1.668-0.422,2.553
		c-3.671,3.125-7.18,6.395-7.445,11.738c-0.051,1.036-0.967,1.782-1.716,2.538c-3.136,3.164-6.584,5.877-10.657,7.752
		c-1.194,0.55-1.826,1.435-1.466,2.804c0.514,1.945,4.016,4.25,6.029,4.129c4.067-0.244,7.357-2.174,10.417-4.625
		c1.545-1.238,3.186-2.256,5.199-2.65c-1.474,1.233-2.906,2.489-4.023,4.023c-1.101,1.509-2.442,2.708-3.925,3.823
		c-0.588,0.443-2.625,5.066-2.124,5.395c0.534,0.352,0.443,0.299,1.271,0.874c1.89,1.317,3.686,0.931,5.378-0.513
		c1.821-1.554,3.669-3.078,5.542-4.571c1.752-1.398,2.089-1.244,2.484,0.89c0.191,1.04,0.279,2.056,0.03,3.098
		c-0.127,0.53-0.258,1.154,0.223,1.562c1.095,0.927,1.516,2.321,2.867,3.178c5.394,3.415,8.167,9.492,13.436,13.238
		c2.868,2.04,4.592,5.688,6.838,8.604c0.407,0.527,0.766,1.209,1.544,1.181c1.762-0.063,2.661,0.969,3.314,2.405
		c0.201,0.44,0.424,1.117,0.767,1.209c2.917,0.783,3.075,3.756,4.583,5.638c1.136,1.419,1.687,3.152,1.978,4.91
		c0.856,5.178,0.637,10.387,0.296,15.598c-0.297,4.552-1.914,8.883-2.276,13.399c-0.284,3.548-1.251,6.864-2.495,10.137
		c-1.064,2.8-2.527,4.949-6.141,4.659c-1.735-0.14-3.453,0.762-4.832,1.943c-0.645,0.553-1.254,1.312-0.912,2.25
		c0.321,0.887,1.232,0.872,2.023,0.985c3.187,0.458,6.502-0.394,9.606,0.958c0.311,0.136,0.73,0.046,1.098,0.029
		c1.499-0.069,2.999-0.14,4.498-0.212l2.056-4.682l4.602-0.376l-0.062,0.17c2.308-0.108,2.988-0.485,5.298-0.578
		c1.607-0.064,2.623-0.597,2.982-2.336c0.177-0.858,0.427-2.222,1.437-2.297c1.096-0.081,1.136-0.737,1.413-1.354
		c0.479-1.062,0.838-1.134,1.38-2.162c3.434-6.507,4.097-9.584,5.439-16.732c0.933-4.966,0.613-10.16,2.793-14.914
		c0.237-0.518,0.135-1.212,0.118-1.822c-0.032-1.152,0.46-1.948,1.399-2.614c3.2-2.274,6.365-4.598,9.536-6.913
		c1.244-0.907,2.525-1.35,4.131-0.982c1.87,0.428,3.788,0.258,5.675-0.108c1.749-0.339,3.517-0.825,5.292-0.443
		c1.727,0.371,3.397,0.296,5.11,0.011c3.247-0.542,4.228,0.019,5.024,3.242c0.624,2.516,1.95,4.583,3.375,6.676
		c3.72,5.465,9.861,8.43,13.879,13.567c0.037,0.047,0.099,0.074,0.144,0.115c7.846,7.208,8.686,15.539,3.841,24.248
		c-0.695,1.251-1.698,2.457-3.309,2.266c-2.61-0.31-4.433,1.151-6.345,2.465c-0.782,0.538-1.46,1.255-1.059,2.313
		c0.378,0.996,1.307,1.29,2.266,1.262c3.787-0.112,7.58-0.196,11.358-0.447c3.005-0.199,3.704-0.986,4.573-3.89
		c0.829-2.774,2.879-5.119,2.933-8.184C884.339,259.47,884.527,259.231,884.683,259.048z"/>
	
		<path clip-path="url(#SVGID_6_)" fill="none" stroke="#79B5E3" stroke-width="2.939" stroke-linecap="round" stroke-linejoin="round" stroke-miterlimit="10" d="
		M862.303,434.75c3.11,0.884,5.959-0.884,8.834-3.023c5.636-4.191,11.369-8.249,16.68-12.859c1.052-0.914,2.021-1.921,3.05-2.862
		c1.149-1.05,1.862-2.292,1.958-3.881c0.061-1.001,0.563-1.801,1.287-2.502c3.914-3.79,8.916-4.621,13.823-2.298
		c0.907,0.43,1.565,1.023,2.026,1.94c3.041,6.062,6.102,12.114,9.2,18.146c0.556,1.08,0.438,1.408-0.84,1.567
		c-1.967,0.247-2.805,1.434-2.639,3.281c0.154,1.695,1.033,2.442,3.082,2.492c1.778,0.045,3.561-0.037,5.339,0.021
		c1.142,0.038,1.631-0.501,1.877-1.541c0.499-2.116,0.217-4.213-0.043-6.312c-0.823-6.628-1.669-13.252-2.502-19.879
		c-0.061-0.477-0.049-0.964-0.126-1.437c-0.125-0.759,0.224-1.042,0.935-1.108c2.68-0.246,5.355-0.542,8.036-0.765
		c0.926-0.078,1.774,0.385,2.651,0.623c4.271,1.153,8.54,2.312,12.998,2.513c1.067,0.048,2.13,0.046,3.138-0.291
		c0.843-0.283,1.204,0.012,1.509,0.775c1.977,4.928,4.701,9.365,8.693,12.936c0.647,0.579,0.604,1.074,0.156,1.74
		c-1.771,2.634-3.521,5.282-5.249,7.946c-0.447,0.692-0.938,0.941-1.791,0.809c-3.198-0.499-4.504,0.754-4.33,3.941
		c0.052,0.954,0.455,1.249,1.339,1.239c2.405-0.026,4.811-0.015,7.216-0.006c0.559,0.002,1.029-0.163,1.433-0.557
		c3.884-3.812,7.626-7.743,10.694-12.27c1.26-1.857,1.715-3.681,1.018-5.961c-0.905-2.957-0.659-6.094-0.718-9.165
		c-0.021-1.164,0.733-0.746,1.283-0.546c4.294,1.56,8.529,3.308,12.888,4.65c2.701,0.832,4.204,2.315,5.136,4.964
		c1.334,3.789,3.434,7.315,3.621,11.472c0.023,0.511,0.248,1.029,0.455,1.513c0.62,1.453,1.226,1.637,2.536,0.822
		c3.353-2.082,4.073-3.961,2.994-7.763c-1.747-6.15-3.506-12.3-5.215-18.461c-0.253-0.91-0.727-1.505-1.517-1.979
		c-2.021-1.212-4.062-2.401-5.996-3.741c-3.281-2.272-4.932-5.371-4.134-9.424c0.814-4.143-0.054-8.029-1.559-11.839
		c-0.812-2.057-1.607-4.131-2.77-6.021c-0.453-0.738-0.138-1.119,0.317-1.604c6.037-6.444,9.553-14.156,11.094-22.762
		c1.279-7.147,0.696-14.094-3.158-20.489c-2.272-3.773-5.283-6.617-9.785-7.439c-3.076-0.563-6.026-0.05-8.852,1.269
		c-1.843,0.86-3.557,1.927-5.082,3.265c-1.936,1.696-2.166,4.243-0.623,6.21c1.483,1.89,4.139,2.188,6.195,0.65
		c1.237-0.925,2.476-1.831,3.955-2.339c2.476-0.85,4.243-0.326,5.819,1.79c1.956,2.625,3.021,5.632,3.12,8.856
		c0.297,9.568-2.795,17.932-9.28,25.016c-0.698,0.764-1.332,0.98-2.38,0.544c-2.688-1.117-5.521-1.58-8.449-1.591
		c-9.097-0.038-18.152,0.628-27.208,1.413c-7.375,0.638-14.742,1.319-22.03,2.662c-1.177,0.217-2.389,0.453-3.472,0.934
		c-2.085,0.925-4.179,0.975-6.35,0.527c-4.592-0.947-8.785-2.786-12.531-5.613c-0.534-0.402-1.085-0.843-1.461-1.382
		c-1.406-2.015-3.387-3.088-5.703-3.633c-0.88-0.207-1.585-0.638-2.198-1.291c-1.744-1.859-3.54-3.682-4.957-5.811
		c-0.71-1.068-1.08-0.79-1.538,0.129c-0.964,1.932-1.508,3.964-1.302,6.123c0.078,0.818-0.125,1.229-0.892,1.524
		c-2.899,1.115-4.95,3.092-6.508,5.828c-0.95,1.671-2.547,2.983-3.894,4.42c-1.492,1.593-1.54,3.383,0.045,4.886
		c0.618,0.587,1.021,1.209,1.312,2c0.655,1.779,2.301,2.764,4.146,2.282c6.272-1.635,10.658,1.924,12.395,7.583
		c0.241,0.785,0.337,1.55,0.226,2.4c-0.286,2.165,0.35,4.296,0.387,6.458c0.134,7.778-0.159,15.475-5.314,21.938
		c-2.796,3.504-6.313,6.328-9.441,9.523c-0.402,0.411-0.896,0.747-1.249,1.195c-1.063,1.347-2.349,1.837-4.117,1.789
		c-2.999-0.082-4.512,1.955-4.041,4.93c0.125,0.785,0.598,0.904,1.213,0.908C858.659,434.756,860.152,434.75,862.303,434.75z"/>
	<path clip-path="url(#SVGID_6_)" fill="#79B5E3" d="M932.286,391.66c2.288,0,4.144-1.855,4.144-4.143
		c0-2.288-1.855-4.143-4.144-4.143s-4.143,1.855-4.143,4.143C928.144,389.805,929.998,391.66,932.286,391.66"/>
	<path clip-path="url(#SVGID_6_)" fill="#C6262C" d="M832.036,199.667c2.288,0,4.144-1.855,4.144-4.143s-1.855-4.143-4.144-4.143
		s-4.143,1.855-4.143,4.143S829.748,199.667,832.036,199.667"/>
	<path clip-path="url(#SVGID_6_)" fill="#C6262C" d="M1024.078,135.681c2.287,0,4.143-1.855,4.143-4.143s-1.855-4.143-4.143-4.143
		c-2.288,0-4.144,1.855-4.144,4.143S1021.79,135.681,1024.078,135.681"/>
	
		<path clip-path="url(#SVGID_6_)" fill="none" stroke="#C6262C" stroke-width="3.276" stroke-linecap="round" stroke-linejoin="round" d="
		M1165.135,1068.745c0-0.468-0.019-0.821,0.003-1.173c0.052-0.87,0.164-1.738,0.437-2.57c0.156-0.477,0.198-0.929,0.104-1.41
		c-0.058-0.29-0.276-0.48-0.435-0.709c-0.045-0.062-0.1-0.133-0.007-0.19c0.066-0.042,0.131,0.003,0.179,0.047
		c0.041,0.036,0.074,0.081,0.099,0.128c0.404,0.759,0.962,1.403,1.616,1.975c0.15,0.131,0.256,0.293,0.315,0.48
		c0.255,0.791,0.572,1.561,0.92,2.316c0.207,0.448,0.304,0.898,0.319,1.387c0.017,0.526-0.103,1.035-0.163,1.55
		c-0.072,0.602-0.216,1.192-0.44,1.763c-0.199,0.51-0.455,0.993-0.673,1.492c-0.252,0.575-0.502,1.173-1.331,1.264
		c-0.472,0.052-0.689-0.026-0.675-0.48c0.009-0.277-0.005-0.549-0.044-0.826c-0.094-0.664-0.165-1.334-0.212-2.002
		C1165.074,1070.734,1165.145,1069.68,1165.135,1068.745z M1138.718,1013.66c-1.02,0.488-2.048,0.962-3.043,1.491
		c-0.698,0.372-1.433,0.636-2.196,0.804c-0.506,0.11-1.018,0.227-1.517,0.347c-0.493,0.117-1.03,0.095-1.488,0.383
		c-0.323,0.203-0.641,0.203-0.983-0.112c-0.387-0.354-0.914-0.557-1.355-0.867c-0.533-0.376-1.095-0.719-1.663-1.05
		c-0.961-0.561-1.989-0.9-3.132-0.954c-0.988-0.048-1.974,0.018-2.962-0.027c-0.61-0.027-1.229,0.111-1.843,0.224
		c-0.636,0.114-1.25,0.287-1.867,0.453c-0.629,0.17-1.277,0.314-1.834,0.68c-0.201,0.133-0.453,0.159-0.677,0.238
		c-0.574,0.203-0.985,0.615-1.476,0.923c-0.305,0.191-0.459,0.518-0.679,0.783c-0.605,0.732-1.216,1.464-1.714,2.277
		c-0.27,0.441-0.757,0.566-1.276,0.527c-0.147-0.011-0.296-0.037-0.424,0.037c-0.412,0.236-0.868,0.228-1.326,0.241
		c-1.011,0.028-2.035,0.093-3.015-0.158c-0.566-0.145-1.18-0.068-1.709-0.356c-0.065-0.035-0.15-0.057-0.226-0.053
		c-0.664,0.033-1.322-0.109-1.941-0.26c-1.436-0.348-2.876-0.163-4.312-0.191c-0.653-0.012-1.293,0.145-1.908,0.382
		c-0.226,0.088-0.442,0.173-0.656,0.286c-0.792,0.414-1.036,1.182-0.371,1.94c0.757,0.863,1.511,1.729,2.333,2.535
		c0.553,0.542,1.177,1.007,1.796,1.476c0.874,0.659,1.763,1.296,2.716,1.845c0.82,0.473,1.699,0.825,2.62,1.067
		c0.847,0.223,1.579,0.577,2.136,1.256c0.402,0.492,0.957,0.854,1.607,0.871c0.381,0.012,0.828,0.021,1.191-0.199
		c0.577-0.35,1.215-0.562,1.862-0.733c0.37-0.099,0.77-0.11,1.157-0.123c0.207-0.007,0.349,0.142,0.378,0.344
		c0.088,0.612,0.403,1.146,0.604,1.719c0.196,0.559,0.565,1.021,0.811,1.55c0.171,0.367,0.495,0.603,0.858,0.773
		c0.176,0.083,0.332,0.173,0.457,0.312c0.331,0.371,0.713,0.695,1.021,1.09c0.173,0.22,0.128,0.482,0.27,0.711
		c0.225,0.361,0.612,0.629,0.699,1.066c0.144,0.719,0.646,1.32,0.7,2.073c0.026,0.355,0.184,0.7,0.286,1.05
		c0.254,0.86,0.327,1.759,0.616,2.613c0.15,0.449,0.458,0.806,0.743,1.166c0.343,0.436,0.539,0.896,0.562,1.437
		c0.008,0.19,0,0.394,0.063,0.569c0.263,0.732,0.215,1.473,0.097,2.215c-0.076,0.475,0.083,0.912,0.206,1.351
		c0.163,0.573,0.271,1.159,0.418,1.737c0.141,0.558,0.357,1.073,0.643,1.566c0.158,0.273,0.293,0.56,0.342,0.858
		c0.142,0.885,0.581,1.698,0.652,2.599c0.018,0.218,0.075,0.454,0.187,0.643c0.276,0.472,0.166,0.952,0.103,1.435
		c-0.13,1.005-0.197,2.008,0.074,3.006c0.091,0.328,0.172,0.663,0.208,1c0.035,0.338,0.049,0.669,0.205,0.991
		c0.144,0.301,0.154,0.637,0.144,0.971c-0.032,1.022-0.025,2.044-0.049,3.066c-0.017,0.742,0.052,1.484,0.438,2.169
		c0.161,0.287,0.095,0.628,0.054,0.944c-0.062,0.497-0.171,0.988-0.193,1.491c-0.02,0.475-0.189,0.917-0.386,1.346
		c-0.186,0.399-0.253,0.832-0.455,1.229c-0.282,0.551-0.719,0.768-1.339,0.615c-0.473-0.115-0.975-0.105-1.288,0.297
		c-0.4,0.514-0.995,0.681-1.535,0.962c-0.419,0.218-0.827,0.459-1.223,0.715c-0.223,0.144-0.189,0.307,0.07,0.477
		c0.252,0.165,0.576,0.225,0.751,0.507c0.097,0.155,0.21,0.292,0.231,0.485c0.028,0.245,0.188,0.369,0.457,0.371
		c0.267,0.003,0.533,0.019,0.799,0.037c0.205,0.015,0.385,0.085,0.527,0.241c0.199,0.218,0.463,0.232,0.701,0.102
		c0.483-0.266,1-0.233,1.519-0.213c0.939,0.037,1.878,0.145,2.819,0.031c0.6-0.07,0.57-0.113,0.741-0.661
		c0.182-0.575,0.261-1.163,0.379-1.746c0.052-0.253,0.165-0.459,0.405-0.595c0.373-0.212,0.551-0.565,0.635-0.942
		c0.137-0.612,0.308-1.226,0.242-1.866c-0.04-0.385,0.096-0.698,0.418-0.957c0.359-0.291,0.37-0.694,0.248-1.09
		c-0.071-0.227-0.069-0.428,0.001-0.652c0.312-1.001,0.583-2.015,0.514-3.07c-0.038-0.573,0.232-1.082,0.29-1.633
		c0.021-0.212,0.043-0.424,0.053-0.636c0.029-0.604,0.129-1.212,0.088-1.81c-0.076-1.072,0.071-2.148-0.116-3.223
		c-0.101-0.571-0.131-1.164-0.107-1.752c0.009-0.195,0.087-0.285,0.295-0.186c0.785,0.377,1.549,0.797,2.341,1.152
		c0.939,0.423,1.906,0.791,2.95,0.973c0.581,0.101,1.174,0.053,1.743,0.217c0.328,0.095,0.474,0.305,0.479,0.61
		c0.011,0.47,0.004,0.938,0.004,1.497c0.037,0.799-0.097,1.667-0.228,2.545c-0.146,0.969-0.399,1.914-0.525,2.885
		c-0.092,0.712-0.021,1.387,0.186,2.064c0.104,0.341,0.129,0.691,0.021,1.042c-0.108,0.363-0.136,0.729-0.072,1.107
		c0.107,0.649-0.132,1.269-0.203,1.901c-0.049,0.432-0.166,0.833-0.385,1.209c-0.053,0.094-0.107,0.195-0.188,0.262
		c-0.709,0.574-1.023,1.339-1.167,2.188c-0.005,0.031-0.01,0.062-0.018,0.094c-0.203,0.771,0.177,1.306,1.013,1.373
		c0.43,0.035,0.86,0.113,1.297,0.03c0.295-0.056,0.575,0.06,0.851,0.13c0.692,0.176,1.368,0.078,2.049-0.049
		c0.206-0.038,0.416-0.069,0.627-0.083c0.677-0.044,0.991-0.298,1.156-0.935c0.217-0.838,0.27-1.681,0.135-2.539
		c-0.092-0.578-0.057-1.179-0.158-1.748c-0.095-0.541,0.053-0.979,0.206-1.471c0.259-0.825,0.182-1.692,0.129-2.545
		c-0.044-0.702-0.117-1.395,0.185-2.074c0.158-0.354,0.162-0.761,0.16-1.133c-0.008-0.924,0.279-1.78,0.525-2.65
		c0.128-0.451,0.189-0.916,0.283-1.37c0.123-0.601,0.255-1.21,0.443-1.798c0.096-0.298,0.093-0.586,0.105-0.882
		c0.02-0.42,0.184-0.562,0.608-0.668c1.075-0.267,2.18-0.249,3.271-0.341c0.154-0.012,0.315-0.001,0.465,0.033
		c0.531,0.121,1.021-0.135,1.537-0.146c0.586-0.014,1.163-0.067,1.756,0.032c0.349,0.059,0.746-0.022,1.113-0.068
		c0.659-0.084,1.322-0.125,1.982-0.2c0.225-0.024,0.372,0.088,0.496,0.261c0.259,0.358,0.446,0.758,0.677,1.132
		c0.28,0.456,0.686,0.759,1.107,1.034c0.6,0.39,1.152,0.83,1.732,1.241c0.586,0.416,1.138,0.87,1.797,1.197
		c0.892,0.443,1.663,1.025,2.031,1.981c0.104,0.271,0.348,0.466,0.525,0.693c0.25,0.318,0.442,0.643,0.473,1.035
		c0.05,0.636,0.318,1.225,0.355,1.873c0.036,0.604-0.023,1.194-0.067,1.782c-0.048,0.675-0.136,1.356-0.352,2.009
		c-0.139,0.42-0.308,0.826-0.737,1.065c-0.038,0.021-0.071,0.067-0.108,0.069c-0.815,0.052-1.336,0.684-2.045,0.962
		c-0.644,0.253-1.14,0.786-1.337,1.472c-0.125,0.435,0.097,0.642,0.551,0.709c0.559,0.084,1.137-0.018,1.683,0.169
		c0.03,0.011,0.067,0.014,0.099,0.007c0.899-0.184,1.726,0.194,2.586,0.311c0.393,0.052,0.715,0.279,1.079,0.408
		c0.306,0.107,0.594,0.165,0.903,0.037c0.148-0.062,0.314-0.077,0.452,0.005c0.244,0.145,0.507,0.15,0.774,0.142
		c0.27-0.01,0.531,0.02,0.794,0.078c1.06,0.236,2.071,0.016,3.071-0.306c0.129-0.042,0.272-0.092,0.321-0.214
		c0.143-0.355,0.435-0.545,0.763-0.722c0.408-0.222,0.586-0.598,0.647-1.027c0.029-0.193,0.078-0.385,0.175-0.547
		c0.249-0.429,0.339-0.906,0.45-1.368c0.233-0.968,0.495-1.925,0.961-2.815c0.157-0.304,0.231-0.621,0.309-0.94
		c0.218-0.92,0.596-1.778,1.035-2.617c0.281-0.533,0.478-1.104,0.645-1.676c0.136-0.468-0.073-0.914-0.328-1.304
		c-0.304-0.468-0.653-0.905-1.062-1.306c-0.8-0.782-1.321-1.721-1.614-2.785c-0.107-0.388-0.284-0.761-0.463-1.126
		c-0.188-0.388-0.297-0.771-0.218-1.204c0.212-1.148-0.068-2.236-0.405-3.335c-0.145-0.474-0.355-0.995-0.068-1.539
		c0.132-0.251,0.103-0.583,0.128-0.881c0.044-0.502,0.299-0.95,0.364-1.453c0.104-0.79,0.272-1.571,0.204-2.374
		c-0.034-0.393-0.014-0.787-0.087-1.178c-0.01-0.048,0-0.107,0.02-0.154c0.243-0.599,0.131-1.133-0.208-1.686
		c-0.431-0.705-0.737-1.464-0.931-2.275c-0.14-0.582-0.388-1.154-0.75-1.66c-0.113-0.159-0.117-0.343-0.169-0.514
		c-0.175-0.569-0.536-1.075-0.602-1.684c-0.021-0.18-0.055-0.35-0.027-0.534c0.068-0.431,0.067-0.858,0.035-1.3
		c-0.036-0.496,0.08-1.007,0.247-1.502c0.407-1.209,0.715-2.454,0.653-3.728c-0.043-0.893-0.097-1.797-0.352-2.678
		c-0.164-0.569-0.181-1.175-0.35-1.75c-0.22-0.747-0.343-1.528-0.643-2.242c-0.386-0.925-0.738-1.873-1.362-2.697
		c-0.368-0.49-0.583-1.077-0.963-1.566c-0.672-0.868-1.237-1.795-1.723-2.77c-0.149-0.299-0.463-0.496-0.646-0.76
		c-0.326-0.469-0.71-0.898-1.009-1.388c-0.453-0.743-1.113-1.289-1.885-1.722c-0.22-0.123-0.417-0.283-0.636-0.409
		c-0.107-0.059-0.226-0.165-0.369-0.069c-0.139,0.093-0.147,0.239-0.115,0.377c0.151,0.65,0.215,1.317,0.472,1.95
		c0.422,1.033,0.995,1.995,1.463,3.006c0.339,0.728,0.685,1.455,0.937,2.219c0.096,0.291,0.271,0.56,0.381,0.848
		c0.386,1.02,0.77,2.04,1.134,3.066c0.161,0.453,0.236,0.935,0.408,1.383c0.62,1.607,0.326,3.273,0.312,4.91
		c-0.015,1.553-0.438,3.07-1.036,4.518c-0.473,1.143-0.819,1.328-2.052,0.994c-1.045-0.284-2.066-0.171-3.106-0.121
		c-0.82,0.04-1.629,0.179-2.456,0.17c-0.716-0.007-1.396-0.271-2.112-0.211c-0.902,0.074-1.808,0.038-2.714,0.155
		c-1.369,0.179-2.73,0.512-4.136,0.322c-0.394-0.054-0.802-0.047-1.2,0.025c-0.218,0.04-0.422-0.025-0.626-0.071
		c-0.578-0.129-1.161-0.247-1.73-0.428c-0.532-0.167-1.09-0.268-1.642-0.377c-0.616-0.122-1.212-0.32-1.839-0.413
		c-0.33-0.049-0.691-0.144-0.998-0.326c-0.568-0.341-1.255-0.413-1.831-0.743c-0.257-0.146-0.545-0.239-0.811-0.372
		c-0.747-0.374-1.467-0.8-2.237-1.132c-0.02-0.008-0.041-0.02-0.055-0.036c-0.667-0.749-1.454-1.405-1.949-2.288
		c-0.252-0.453-0.103-0.92,0.018-1.373c0.145-0.544,0.491-1.025,0.569-1.595c0.007-0.053,0.03-0.106,0.024-0.157
		c-0.09-0.821,0.076-1.635,0.068-2.453c-0.001-0.117,0.006-0.235,0.006-0.353c0.003-0.183,0.098-0.275,0.288-0.275
		c0.836-0.004,1.674-0.043,2.505,0.008c0.351,0.021,0.688,0.224,1.066,0.174c0.787-0.102,1.454-0.397,1.82-1.111
		c0.256-0.498,0.646-0.92,0.851-1.445c0.033-0.083,0.113-0.166,0.196-0.214c1.205-0.709,2.078-1.749,2.979-2.76
		c0.565-0.633,1.038-1.324,1.523-2.014c0.466-0.66,0.828-1.379,1.339-2.015c0.279-0.347,0.453-0.8,0.648-1.216
		c0.393-0.834,0.699-1.701,1.012-2.565c0.055-0.151,0.03-0.272-0.066-0.388c-0.239-0.279-0.552-0.514-0.899-0.581
		c-0.575-0.112-1.146-0.221-1.771-0.092c-0.555,0.115-1.127,0.207-1.684,0.327c-0.357,0.076-0.714,0.215-1.067,0.328
		c-0.496,0.157-0.925,0.448-1.434,0.578C1139.316,1013.369,1139.014,1013.518,1138.718,1013.66z"/>
	<path clip-path="url(#SVGID_6_)" fill="#C6262C" d="M1142.714,1052.062c2.288,0,4.144-1.855,4.144-4.143
		c0-2.289-1.855-4.145-4.144-4.145s-4.143,1.855-4.143,4.145C1138.571,1050.207,1140.426,1052.062,1142.714,1052.062"/>
</g>
<polyline fill="none" stroke="#000000" stroke-width="3.276" stroke-linecap="round" stroke-linejoin="round" points="
	702.757,677.586 702.757,1121.646 1146.816,1121.646 "/>
<polyline fill="none" stroke="#000000" stroke-width="3.276" stroke-linecap="round" stroke-linejoin="round" points="
	698.332,689.746 702.757,677.586 707.183,689.746 "/>
<polyline fill="none" stroke="#000000" stroke-width="3.276" stroke-linecap="round" stroke-linejoin="round" points="
	1134.656,1117.221 1146.816,1121.646 1134.656,1126.07 "/>
<g>
	<defs>
		<rect id="SVGID_7_" x="37.119" y="58.803" width="1153.881" height="1103.284"/>
	</defs>
	<clipPath id="SVGID_8_">
		<use xlink:href="#SVGID_7_"  overflow="visible"/>
	</clipPath>
	<g clip-path="url(#SVGID_8_)">
		<text transform="matrix(1 0 0 1 843.3613 1158.957)" font-family="'GothamMedium'" font-size="23.2601">domestication</text>
	</g>
	
		<path clip-path="url(#SVGID_8_)" fill="none" stroke="#C6262C" stroke-width="3.276" stroke-linecap="round" stroke-linejoin="round" d="
		M362.553,701.436c-0.63-0.915-0.847-1.678,0.11-2.479c0.687-0.573,0.641-1.155,0.127-1.906c-3.246-4.735-4.806-9.988-4.77-15.736
		c0.02-3.246-1.114-6.153-3.533-8.275c-4.375-3.841-9.542-5.802-15.415-5.102c-4.927,0.588-9.479,2.59-14.069,4.359
		c-2.004,0.772-3.385,2.26-3.391,4.467c-0.008,3.489-1.696,5.983-4.222,8.101c-1.858,1.558-3.705,3.129-5.567,4.682
		c-1.759,1.465-3.335,3.105-4.711,4.93c-0.913,1.21-0.813,2.323,0.537,3.176c5.109,3.224,10.463,4.935,16.537,2.959
		c3.272-1.063,5.556,0.879,5.36,4.381c-0.042,0.752-0.026,1.51,0.461,2.104c0.845,1.028,1.124,2.209,1.102,3.489
		c-0.032,1.838,0.987,2.271,2.581,1.981c0.506-0.091,1.015-0.181,1.526-0.226c0.738-0.062,1.529-0.142,1.896,0.718
		c0.352,0.822-0.106,1.434-0.7,1.914c-1.057,0.859-1.46,2-1.508,3.297c-0.093,2.567-0.179,5.135-0.228,7.703
		c-0.023,1.253-0.2,2.635,1.872,2.333c0.782-0.115,0.757,0.706,0.873,1.276c0.417,2.036,0.143,4.262,1.81,5.964
		c0.312,0.318,0.234,1.142,0.154,1.706c-0.906,6.413,0.464,12.366,3.356,18.099c4.792,9.496,8.326,19.632,14.503,28.423
		c0.083,0.119,0.191,0.254,0.202,0.388c0.342,4.351,2.892,8.287,2.856,12.585c-0.038,4.397,0.169,8.782,0.14,13.17
		c-0.027,4.267-1.193,8.439-1.44,12.678c-0.248,4.237-2.059,6.825-6.182,7.952c-2.078,0.566-3.922,1.706-5.129,3.602
		c-1.915,3.011-0.661,5.611,2.813,6.148c2.394,0.37,4.671-0.412,7.014-0.431c3.576-0.03,6.689-0.935,8.482-4.425
		c0.258-0.499,0.747-0.922,1.212-1.267c2.353-1.753,3.651-4.111,4.394-6.918c0.741-2.802,1.725-5.54,2.604-8.307
		c0.188-0.018,0.377-0.035,0.566-0.053c1.427,3.102,2.867,6.197,4.272,9.308c0.375,0.83-0.173,1.42-0.737,1.905
		c-1.281,1.103-2.608,2.149-3.894,3.246c-1.564,1.338-2.162,3.882-1.438,5.833c0.771,2.076,2.493,2.276,4.334,2.217
		c2.13-0.068,4.26-0.082,6.369-0.485c4.675-0.896,9.259-7.131,8.724-11.904c-0.667-5.937-2.016-11.729-3.96-17.361
		c-2.849-8.256-6.337-16.292-8.304-24.848c-0.809-3.515,0.449-6.12,3.841-7.245c3.069-1.017,6.114-2.138,9.239-2.951
		c5.999-1.559,11.021-4.648,15.492-8.892c4.452-4.226,9.689-7.389,15.111-10.227c1.244-0.651,2.666-1.282,3.95-0.3
		c1.259,0.964,0.749,2.43,0.475,3.696c-0.468,2.157-0.965,4.286-0.69,6.532c1.361,11.089,5.381,21.211,11.725,30.303
		c3.505,5.023,6.105,10.199,6.442,16.338c0.302,5.511-0.236,10.866-3.518,15.6c-0.803,1.158-1.709,1.869-3.219,1.938
		c-3.006,0.14-5.481,1.762-7.67,3.573c-1.68,1.39-1.427,3.623-0.861,5.558c0.526,1.808,2.183,1.377,3.541,1.384
		c4.715,0.019,9.376-0.707,14.066-1.036c0.963-0.068,1.917-0.286,2.662-0.944c6.253-5.531,11.776-11.396,14.922-19.549
		c2.215-5.74,1.821-9.823-2.646-13.918c-2.51-2.301-3.463-5.576-3.743-8.965c-0.113-1.379,0.334-1.976,1.795-1.229
		c1.604,0.822,2.87,2.019,4.113,3.281c2.729,2.775,5.388,5.633,8.289,8.217c1.591,1.417,2.92,2.884,3.604,4.879
		c1.633,4.775,2.414,9.641,1.828,14.717c-0.29,2.527-1.403,4.023-3.897,4.638c-5.033,1.233-4.987,2.097-5.199,7.635
		c-0.051,1.346,0.635,1.973,1.896,2.256c3.985,0.896,7.841,0.327,11.75-0.634c4.202-1.031,6.777-3.614,8.222-7.523
		c2.065-5.589,3.82-11.283,5.028-17.109c0.871-4.208,0.998-8.746-2.724-11.618c-3.994-3.082-6.998-6.92-9.905-10.839
		c-3.606-4.862-4.556-10.857-6.096-16.563c-0.036-0.136-0.004-0.294,0.018-0.438c0.655-4.382,1.938-8.588,3.516-12.717
		c0.479-1.253,1.01-1.19,1.817-0.248c1.384,1.62,2.809,3.208,4.271,4.757c3.09,3.27,6.586,5.832,11.212,6.508
		c6.947,1.012,13.911-2.659,14.846-9.566c0.372-2.754-0.784-6.117-1.763-8.284c-2.837-6.283-4.773-1.143-5.329-0.665
		c-0.717,0.619-0.071,1.364,0.125,2.026c0.186,0.633,0.514,1.223,0.699,1.855c1.199,4.14,0.047,7.468-3.266,8.107
		c-6.066,1.172-10.028-0.013-12.878-4.994c-3.106-5.428-3.271-8.715-3.065-14.696c0.16-4.658-0.224-9.247-1.252-13.78
		c-1.597-7.042-5.746-12.125-11.727-16.124c-9.11-6.092-18.763-9.98-29.934-9.1c-2.928,0.23-5.854,0.521-8.785,0.712
		c-9.246,0.602-18.417,1.587-27.456,3.825c-10.412,2.577-20.651,2.87-30.004-3.761c-1.721-1.22-3.755-2.006-5.666-2.949
		c-0.72-0.354-1.482-0.761-2.257-0.846C367.113,706.998,364.66,704.499,362.553,701.436z"/>
	
		<path clip-path="url(#SVGID_8_)" fill="none" stroke="#C6262C" stroke-width="3.276" stroke-linecap="round" stroke-linejoin="round" d="
		M979.257,701.436c-0.63-0.915-0.847-1.678,0.11-2.479c0.688-0.573,0.642-1.155,0.128-1.906c-3.247-4.735-4.807-9.988-4.77-15.736
		c0.02-3.246-1.114-6.153-3.534-8.275c-4.375-3.841-9.541-5.802-15.416-5.102c-4.927,0.588-9.479,2.59-14.067,4.359
		c-2.004,0.772-3.386,2.26-3.392,4.467c-0.008,3.489-1.696,5.983-4.222,8.101c-1.858,1.558-3.705,3.129-5.568,4.682
		c-1.758,1.465-3.335,3.105-4.71,4.93c-0.913,1.21-0.813,2.323,0.537,3.176c5.109,3.224,10.463,4.935,16.537,2.959
		c3.271-1.063,5.556,0.879,5.359,4.381c-0.042,0.752-0.026,1.51,0.46,2.104c0.846,1.028,1.124,2.209,1.102,3.489
		c-0.032,1.838,0.987,2.271,2.581,1.981c0.506-0.091,1.015-0.181,1.525-0.226c0.738-0.062,1.529-0.142,1.896,0.718
		c0.353,0.822-0.106,1.434-0.699,1.914c-1.057,0.859-1.46,2-1.508,3.297c-0.094,2.567-0.18,5.135-0.228,7.703
		c-0.023,1.253-0.201,2.635,1.872,2.333c0.781-0.115,0.757,0.706,0.873,1.276c0.417,2.036,0.143,4.262,1.81,5.964
		c0.312,0.318,0.234,1.142,0.154,1.706c-0.906,6.413,0.464,12.366,3.356,18.099c4.791,9.496,8.325,19.632,14.503,28.423
		c0.084,0.119,0.192,0.254,0.201,0.388c0.343,4.351,2.893,8.287,2.856,12.585c-0.037,4.397,0.169,8.782,0.141,13.17
		c-0.027,4.267-1.194,8.439-1.44,12.678c-0.247,4.237-2.059,6.825-6.182,7.952c-2.078,0.566-3.923,1.706-5.13,3.602
		c-1.914,3.011-0.661,5.611,2.814,6.148c2.394,0.37,4.671-0.412,7.014-0.431c3.576-0.03,6.689-0.935,8.481-4.425
		c0.259-0.499,0.747-0.922,1.213-1.267c2.354-1.753,3.651-4.111,4.395-6.918c0.74-2.802,1.725-5.54,2.603-8.307
		c0.188-0.018,0.378-0.035,0.566-0.053c1.427,3.102,2.866,6.197,4.272,9.308c0.375,0.83-0.173,1.42-0.737,1.905
		c-1.279,1.103-2.607,2.149-3.893,3.246c-1.564,1.338-2.162,3.882-1.438,5.833c0.771,2.076,2.494,2.276,4.334,2.217
		c2.13-0.068,4.261-0.082,6.37-0.485c4.675-0.896,9.259-7.131,8.724-11.904c-0.666-5.937-2.017-11.729-3.96-17.361
		c-2.85-8.256-6.338-16.292-8.304-24.848c-0.809-3.515,0.448-6.12,3.841-7.245c3.069-1.017,6.114-2.138,9.238-2.951
		c5.999-1.559,11.021-4.648,15.492-8.892c4.451-4.226,9.689-7.389,15.111-10.227c1.243-0.651,2.666-1.282,3.949-0.3
		c1.26,0.964,0.749,2.43,0.475,3.696c-0.469,2.157-0.965,4.286-0.69,6.532c1.361,11.089,5.382,21.211,11.725,30.303
		c3.506,5.023,6.105,10.199,6.442,16.338c0.302,5.511-0.236,10.866-3.518,15.6c-0.803,1.158-1.709,1.869-3.219,1.938
		c-3.008,0.14-5.481,1.762-7.67,3.573c-1.68,1.39-1.427,3.623-0.861,5.558c0.526,1.808,2.183,1.377,3.54,1.384
		c4.716,0.019,9.377-0.707,14.067-1.036c0.963-0.068,1.916-0.286,2.661-0.944c6.254-5.531,11.776-11.396,14.922-19.549
		c2.215-5.74,1.822-9.823-2.646-13.918c-2.51-2.301-3.463-5.576-3.743-8.965c-0.112-1.379,0.335-1.976,1.795-1.229
		c1.604,0.822,2.87,2.019,4.112,3.281c2.729,2.775,5.389,5.633,8.29,8.217c1.59,1.417,2.92,2.884,3.604,4.879
		c1.633,4.775,2.414,9.641,1.828,14.717c-0.291,2.527-1.403,4.023-3.897,4.638c-5.032,1.233-4.986,2.097-5.199,7.635
		c-0.051,1.346,0.635,1.973,1.896,2.256c3.984,0.896,7.841,0.327,11.749-0.634c4.203-1.031,6.778-3.614,8.223-7.523
		c2.064-5.589,3.82-11.283,5.028-17.109c0.87-4.208,0.998-8.746-2.725-11.618c-3.994-3.082-6.998-6.92-9.904-10.839
		c-3.606-4.862-4.556-10.857-6.096-16.563c-0.037-0.136-0.005-0.294,0.018-0.438c0.654-4.382,1.938-8.588,3.517-12.717
		c0.479-1.253,1.01-1.19,1.816-0.248c1.384,1.62,2.81,3.208,4.271,4.757c3.09,3.27,6.585,5.832,11.213,6.508
		c6.946,1.012,13.911-2.659,14.845-9.566c0.372-2.754-0.783-6.117-1.763-8.284c-2.837-6.283-4.772-1.143-5.329-0.665
		c-0.716,0.619-0.07,1.364,0.125,2.026c0.187,0.633,0.515,1.223,0.698,1.855c1.199,4.14,0.048,7.468-3.265,8.107
		c-6.066,1.172-10.028-0.013-12.879-4.994c-3.106-5.428-3.271-8.715-3.064-14.696c0.159-4.658-0.224-9.247-1.253-13.78
		c-1.597-7.042-5.745-12.125-11.726-16.124c-9.11-6.092-18.764-9.98-29.934-9.1c-2.929,0.23-5.855,0.521-8.786,0.712
		c-9.246,0.602-18.417,1.587-27.454,3.825c-10.414,2.577-20.652,2.87-30.006-3.761c-1.721-1.22-3.755-2.006-5.666-2.949
		c-0.719-0.354-1.482-0.761-2.257-0.846C983.818,706.998,981.364,704.499,979.257,701.436z"/>
	
		<path clip-path="url(#SVGID_8_)" fill="none" stroke="#C6262C" stroke-width="3.276" stroke-linecap="round" stroke-linejoin="round" d="
		M192.211,855.438c-0.218,0.892-0.471,1.817-0.435,2.717c0.137,3.458-1.305,6.47-2.51,9.545l-0.226,0.6
		c-1.195,0.01-2.93,0.058-4.609,0.227c0.095-0.176,0.196-0.349,0.311-0.511c1.084-1.544,0.781-4.19,1.746-5.743
		c0.415-0.665,0.589-2.15,0.526-2.887c-0.387-4.503,2.586-6.808,3.153-11.163C190.241,851.883,193.086,851.859,192.211,855.438z
		 M274.863,866.587c3.243-3.829,2.575-7.142,3.824-11.661c0.164-0.593,0.612-0.879,0.263-1.313
		c-2.297-2.849-5.434-7.961-7.051-10.196c-0.207-0.285-0.713-0.437-0.612-1.02c0.311,0.142,0.542,0.226,0.754,0.344
		c9.848,5.475,13.838,14.318,14.433,25.089c0.068,1.242-0.107,2.718-1.331,3.233c-2.318,0.975-3.32,2.985-4.535,4.879
		c-1.323,2.064-0.738,3.337,1.71,3.705c3.928,0.587,7.567-0.356,11.032-2.137c0.852-0.438,1.587-1.084,1.363-2.171
		c-0.929-4.515,0.469-8.892,0.7-13.337c0.142-2.76,0.908-5.648-1.069-8.167c-2.093-2.665-5.043-5.404-6.367-8.533
		c-1.03-2.433-2.302-4.748-3.891-6.876c-2.385-3.194-3.521-6.543-5.91-9.734c-0.944-1.26-1.726-2.574-1.68-4.338
		c2.002,2.477,5.167,4.615,7.099,6.776c2.907,3.252,4.849,7.054,7.407,10.47c2.093,2.796,3.163,5.484,5.521,7.938
		c0.361,0.377,0.882,0.776,1.479,0.513c0.631-0.279,0.512-0.93,0.508-1.462c-0.013-1.724-0.04-3.46,0.721-5.057
		c0.753-1.581,0.81-3.158,0.335-4.822c-0.589-2.073-0.427-4.138,0.355-6.136c0.392-1.003,0.595-2.015,0.316-3.058
		c-1.15-4.297-2.74-8.43-3.386-12.922c-0.634-4.404-3.84-7.89-6.704-11.143c-2.301-2.612-4.425-5.239-5.913-8.352
		c-0.958-2.004-2.327-3.594-4.136-4.832c-2.034-1.396-3.871-2.966-5.401-4.942c-4.417-5.705-10.5-8.283-17.52-8.945
		c-6.929-0.655-13.889-0.456-20.816-0.249c-5.816,0.174-11.421-1.756-17.224-1.241c-0.462,0.041-0.985-0.144-1.42-0.349
		c-4.318-2.026-8.839-2.929-13.61-2.568c-0.273,0.02-0.973,0.192-0.808-0.307c0.479-1.448-0.696-1.145-1.298-1.272
		c-0.893-0.19-1.834-0.141-2.744-0.27c-2.904-0.411-6.124,0.333-8.674-1.261c-4.29-2.681-9.162-4.162-13.392-6.925
		c-2.83-1.849-5.859-3.355-8.974-4.688c-1.806-0.771-3.982-1.233-5.267-2.543c-2.197-2.239-4.898-2.932-7.654-3.713
		c-3.274-0.926-6.14-2.437-8.307-5.153c-0.681-0.854-1.545-1.588-2.415-2.261c-1.519-1.172-2.087-0.936-2.257,0.992
		c-0.127,1.442-0.58,1.657-1.843,0.962c-1.501-0.826-3.103-1.473-4.68-2.155c-0.441-0.191-1.017-0.356-1.381,0.077
		c-0.374,0.444-0.042,0.958,0.199,1.366c1.188,2.007,2.357,4.027,3.638,5.974c0.708,1.075,0.619,1.669-0.421,2.554
		c-3.671,3.123-7.18,6.395-7.445,11.736c-0.052,1.035-0.967,1.782-1.717,2.539c-3.135,3.163-6.584,5.878-10.657,7.753
		c-1.194,0.55-1.826,1.435-1.465,2.803c0.513,1.946,4.015,4.25,6.029,4.13c4.067-0.244,7.357-2.175,10.417-4.626
		c1.544-1.238,3.186-2.256,5.2-2.65c-1.474,1.233-2.907,2.49-4.025,4.024c-1.1,1.509-2.443,2.708-3.924,3.822
		c-0.588,0.443-2.625,5.066-2.125,5.396c0.535,0.351,0.444,0.298,1.271,0.874c1.891,1.317,3.687,0.929,5.378-0.514
		c1.822-1.554,3.669-3.078,5.542-4.572c1.753-1.396,2.09-1.243,2.485,0.892c0.191,1.04,0.28,2.055,0.03,3.097
		c-0.127,0.531-0.258,1.155,0.223,1.562c1.095,0.927,1.516,2.32,2.867,3.177c5.394,3.415,8.167,9.492,13.434,13.238
		c2.87,2.041,4.592,5.688,6.839,8.604c0.407,0.527,0.766,1.21,1.544,1.183c1.761-0.064,2.662,0.968,3.314,2.404
		c0.202,0.44,0.424,1.117,0.766,1.209c2.917,0.783,3.075,3.755,4.583,5.638c1.136,1.42,1.688,3.153,1.978,4.91
		c0.857,5.178,0.637,10.387,0.296,15.598c-0.297,4.552-1.915,8.883-2.277,13.399c-0.284,3.548-1.251,6.864-2.495,10.136
		c-1.065,2.801-2.527,4.95-6.142,4.66c-1.735-0.14-3.453,0.762-4.831,1.942c-0.646,0.554-1.254,1.312-0.913,2.251
		c0.322,0.887,1.232,0.871,2.024,0.984c3.186,0.459,6.502-0.393,9.605,0.959c0.312,0.136,0.731,0.046,1.098,0.029
		c1.5-0.069,2.999-0.141,4.499-0.212l2.055-4.682l4.602-0.376l-0.064,0.17c2.309-0.108,2.989-0.485,5.298-0.577
		c1.608-0.065,2.623-0.598,2.982-2.338c0.177-0.857,0.428-2.222,1.438-2.297c1.096-0.08,1.135-0.736,1.412-1.353
		c0.479-1.062,0.839-1.135,1.38-2.162c3.433-6.508,4.097-9.584,5.44-16.732c0.933-4.967,0.612-10.16,2.792-14.914
		c0.237-0.519,0.135-1.212,0.119-1.822c-0.033-1.151,0.459-1.948,1.399-2.615c3.201-2.273,6.365-4.598,9.537-6.912
		c1.244-0.906,2.525-1.35,4.131-0.982c1.87,0.428,3.787,0.259,5.675-0.108c1.748-0.34,3.516-0.825,5.292-0.443
		c1.727,0.371,3.397,0.296,5.111,0.01c3.247-0.54,4.228,0.02,5.024,3.243c0.624,2.516,1.949,4.582,3.375,6.675
		c3.72,5.466,9.861,8.431,13.88,13.567c0.036,0.048,0.098,0.074,0.143,0.115c7.845,7.209,8.685,15.54,3.841,24.249
		c-0.695,1.25-1.699,2.457-3.31,2.266c-2.61-0.31-4.433,1.151-6.344,2.465c-0.783,0.538-1.46,1.255-1.058,2.313
		c0.377,0.996,1.306,1.29,2.264,1.263c3.788-0.112,7.58-0.197,11.359-0.446c3.005-0.2,3.704-0.986,4.573-3.891
		c0.83-2.775,2.879-5.119,2.933-8.184C274.519,867.01,274.708,866.771,274.863,866.587z"/>
	
		<path clip-path="url(#SVGID_8_)" fill="none" stroke="#C6262C" stroke-width="3.276" stroke-linecap="round" stroke-linejoin="round" d="
		M808.916,855.438c-0.218,0.892-0.471,1.817-0.436,2.717c0.138,3.458-1.305,6.47-2.511,9.545l-0.226,0.6
		c-1.194,0.01-2.93,0.058-4.609,0.227c0.095-0.176,0.196-0.349,0.311-0.511c1.084-1.544,0.781-4.19,1.746-5.743
		c0.414-0.665,0.589-2.15,0.526-2.887c-0.387-4.503,2.586-6.808,3.152-11.163C806.947,851.883,809.79,851.859,808.916,855.438z
		 M891.568,866.587c3.243-3.829,2.574-7.142,3.822-11.661c0.165-0.593,0.613-0.879,0.263-1.313
		c-2.297-2.849-5.433-7.961-7.051-10.196c-0.207-0.285-0.712-0.437-0.612-1.02c0.311,0.142,0.543,0.226,0.754,0.344
		c9.849,5.475,13.839,14.318,14.434,25.089c0.068,1.242-0.107,2.718-1.33,3.233c-2.319,0.975-3.321,2.985-4.536,4.879
		c-1.323,2.064-0.738,3.337,1.71,3.705c3.929,0.587,7.568-0.356,11.032-2.137c0.853-0.438,1.587-1.084,1.364-2.171
		c-0.931-4.515,0.468-8.892,0.698-13.337c0.142-2.76,0.908-5.648-1.068-8.167c-2.093-2.665-5.044-5.404-6.367-8.533
		c-1.029-2.433-2.302-4.748-3.891-6.876c-2.385-3.194-3.521-6.543-5.91-9.734c-0.943-1.26-1.726-2.574-1.68-4.338
		c2.002,2.477,5.166,4.615,7.099,6.776c2.907,3.252,4.85,7.054,7.406,10.47c2.095,2.796,3.164,5.484,5.522,7.938
		c0.36,0.377,0.881,0.776,1.478,0.513c0.632-0.279,0.512-0.93,0.508-1.462c-0.013-1.724-0.04-3.46,0.721-5.057
		c0.755-1.581,0.81-3.158,0.336-4.822c-0.59-2.073-0.428-4.138,0.354-6.136c0.393-1.003,0.596-2.015,0.316-3.058
		c-1.15-4.297-2.74-8.43-3.387-12.922c-0.634-4.404-3.839-7.89-6.703-11.143c-2.301-2.612-4.425-5.239-5.912-8.352
		c-0.959-2.004-2.327-3.594-4.137-4.832c-2.034-1.396-3.87-2.966-5.401-4.942c-4.416-5.705-10.5-8.283-17.519-8.945
		c-6.93-0.655-13.89-0.456-20.817-0.249c-5.816,0.174-11.42-1.756-17.224-1.241c-0.463,0.041-0.985-0.144-1.421-0.349
		c-4.318-2.026-8.84-2.929-13.61-2.568c-0.272,0.02-0.972,0.192-0.807-0.307c0.479-1.448-0.696-1.145-1.299-1.272
		c-0.893-0.19-1.834-0.141-2.744-0.27c-2.903-0.411-6.124,0.333-8.674-1.261c-4.289-2.681-9.162-4.162-13.392-6.925
		c-2.83-1.849-5.859-3.355-8.974-4.688c-1.807-0.771-3.982-1.233-5.267-2.543c-2.197-2.239-4.898-2.932-7.653-3.713
		c-3.274-0.926-6.141-2.437-8.308-5.153c-0.682-0.854-1.546-1.588-2.415-2.261c-1.52-1.172-2.088-0.936-2.258,0.992
		c-0.127,1.442-0.579,1.657-1.843,0.962c-1.502-0.826-3.103-1.473-4.68-2.155c-0.441-0.191-1.017-0.356-1.381,0.077
		c-0.374,0.444-0.043,0.958,0.198,1.366c1.188,2.007,2.357,4.027,3.639,5.974c0.708,1.075,0.618,1.669-0.422,2.554
		c-3.671,3.123-7.18,6.395-7.444,11.736c-0.052,1.035-0.968,1.782-1.717,2.539c-3.135,3.163-6.585,5.878-10.657,7.753
		c-1.193,0.55-1.825,1.435-1.465,2.803c0.512,1.946,4.015,4.25,6.028,4.13c4.068-0.244,7.358-2.175,10.417-4.626
		c1.544-1.238,3.185-2.256,5.2-2.65c-1.475,1.233-2.907,2.49-4.025,4.024c-1.1,1.509-2.442,2.708-3.924,3.822
		c-0.588,0.443-2.624,5.066-2.125,5.396c0.536,0.351,0.444,0.298,1.271,0.874c1.891,1.317,3.687,0.929,5.377-0.514
		c1.823-1.554,3.671-3.078,5.542-4.572c1.754-1.396,2.091-1.243,2.485,0.892c0.192,1.04,0.279,2.055,0.03,3.097
		c-0.127,0.531-0.259,1.155,0.223,1.562c1.096,0.927,1.516,2.32,2.868,3.177c5.394,3.415,8.167,9.492,13.434,13.238
		c2.87,2.041,4.592,5.688,6.84,8.604c0.407,0.527,0.765,1.21,1.543,1.183c1.762-0.064,2.662,0.968,3.314,2.404
		c0.202,0.44,0.425,1.117,0.767,1.209c2.917,0.783,3.075,3.755,4.583,5.638c1.136,1.42,1.688,3.153,1.977,4.91
		c0.858,5.178,0.639,10.387,0.297,15.598c-0.298,4.552-1.914,8.883-2.276,13.399c-0.284,3.548-1.251,6.864-2.495,10.136
		c-1.064,2.801-2.527,4.95-6.142,4.66c-1.735-0.14-3.452,0.762-4.83,1.942c-0.646,0.554-1.254,1.312-0.914,2.251
		c0.323,0.887,1.233,0.871,2.025,0.984c3.186,0.459,6.502-0.393,9.605,0.959c0.312,0.136,0.729,0.046,1.098,0.029
		c1.5-0.069,2.999-0.141,4.499-0.212l2.055-4.682l4.603-0.376l-0.064,0.17c2.31-0.108,2.989-0.485,5.299-0.577
		c1.608-0.065,2.622-0.598,2.981-2.338c0.178-0.857,0.429-2.222,1.438-2.297c1.096-0.08,1.136-0.736,1.412-1.353
		c0.479-1.062,0.839-1.135,1.38-2.162c3.433-6.508,4.097-9.584,5.44-16.732c0.933-4.967,0.611-10.16,2.791-14.914
		c0.238-0.519,0.137-1.212,0.119-1.822c-0.033-1.151,0.46-1.948,1.398-2.615c3.202-2.273,6.365-4.598,9.538-6.912
		c1.243-0.906,2.524-1.35,4.131-0.982c1.869,0.428,3.786,0.259,5.674-0.108c1.748-0.34,3.517-0.825,5.291-0.443
		c1.728,0.371,3.397,0.296,5.112,0.01c3.246-0.54,4.227,0.02,5.023,3.243c0.624,2.516,1.949,4.582,3.375,6.675
		c3.719,5.466,9.86,8.431,13.88,13.567c0.036,0.048,0.098,0.074,0.143,0.115c7.846,7.209,8.686,15.54,3.842,24.249
		c-0.695,1.25-1.699,2.457-3.311,2.266c-2.609-0.31-4.432,1.151-6.344,2.465c-0.783,0.538-1.46,1.255-1.058,2.313
		c0.377,0.996,1.305,1.29,2.264,1.263c3.788-0.112,7.58-0.197,11.359-0.446c3.006-0.2,3.704-0.986,4.572-3.891
		c0.831-2.775,2.881-5.119,2.934-8.184C891.223,867.01,891.413,866.771,891.568,866.587z"/>
	
		<path clip-path="url(#SVGID_8_)" fill="none" stroke="#79B5E3" stroke-width="2.939" stroke-linecap="round" stroke-linejoin="round" stroke-miterlimit="10" d="
		M252.483,1042.289c3.11,0.885,5.959-0.884,8.833-3.023c5.636-4.191,11.369-8.248,16.679-12.859c1.053-0.912,2.022-1.92,3.05-2.861
		c1.149-1.05,1.861-2.293,1.958-3.881c0.061-1.002,0.564-1.803,1.288-2.504c3.914-3.789,8.916-4.62,13.822-2.297
		c0.908,0.431,1.567,1.023,2.026,1.94c3.042,6.062,6.102,12.113,9.201,18.145c0.555,1.081,0.438,1.407-0.84,1.567
		c-1.966,0.246-2.805,1.435-2.638,3.281c0.154,1.695,1.033,2.443,3.082,2.492c1.779,0.045,3.561-0.036,5.339,0.021
		c1.141,0.037,1.63-0.502,1.876-1.541c0.5-2.115,0.218-4.213-0.042-6.311c-0.823-6.628-1.669-13.253-2.501-19.88
		c-0.061-0.477-0.049-0.964-0.126-1.437c-0.124-0.76,0.224-1.043,0.935-1.108c2.68-0.246,5.355-0.542,8.037-0.766
		c0.926-0.078,1.774,0.385,2.651,0.622c4.272,1.154,8.54,2.312,12.999,2.513c1.067,0.049,2.129,0.047,3.138-0.29
		c0.843-0.283,1.203,0.011,1.509,0.774c1.976,4.929,4.701,9.365,8.693,12.937c0.647,0.578,0.605,1.074,0.157,1.74
		c-1.772,2.634-3.522,5.281-5.25,7.945c-0.447,0.692-0.937,0.94-1.791,0.809c-3.198-0.499-4.504,0.755-4.331,3.941
		c0.052,0.953,0.456,1.249,1.339,1.239c2.406-0.026,4.811-0.016,7.216-0.007c0.559,0.002,1.03-0.162,1.432-0.557
		c3.884-3.812,7.627-7.743,10.695-12.27c1.259-1.858,1.715-3.682,1.017-5.963c-0.904-2.956-0.659-6.093-0.717-9.164
		c-0.022-1.163,0.733-0.745,1.282-0.545c4.295,1.559,8.529,3.307,12.889,4.649c2.701,0.832,4.203,2.315,5.135,4.965
		c1.334,3.788,3.434,7.315,3.622,11.472c0.023,0.512,0.247,1.029,0.455,1.513c0.621,1.453,1.226,1.637,2.536,0.822
		c3.352-2.082,4.074-3.962,2.994-7.763c-1.747-6.15-3.505-12.3-5.214-18.462c-0.253-0.91-0.726-1.505-1.516-1.979
		c-2.021-1.211-4.062-2.399-5.997-3.74c-3.28-2.271-4.932-5.37-4.133-9.424c0.815-4.144-0.054-8.029-1.558-11.839
		c-0.812-2.056-1.608-4.131-2.77-6.021c-0.455-0.737-0.138-1.119,0.317-1.604c6.038-6.444,9.553-14.156,11.094-22.761
		c1.28-7.148,0.696-14.096-3.158-20.489c-2.273-3.774-5.284-6.617-9.786-7.44c-3.076-0.562-6.026-0.049-8.851,1.27
		c-1.843,0.86-3.557,1.927-5.083,3.266c-1.936,1.695-2.166,4.243-0.623,6.21c1.484,1.89,4.138,2.188,6.195,0.65
		c1.238-0.926,2.475-1.831,3.956-2.34c2.476-0.85,4.243-0.326,5.819,1.791c1.955,2.624,3.021,5.632,3.121,8.854
		c0.296,9.569-2.796,17.932-9.281,25.017c-0.699,0.763-1.333,0.979-2.38,0.543c-2.688-1.116-5.521-1.578-8.448-1.591
		c-9.097-0.038-18.153,0.628-27.209,1.412c-7.374,0.64-14.741,1.32-22.03,2.662c-1.177,0.217-2.389,0.454-3.472,0.935
		c-2.085,0.925-4.18,0.974-6.35,0.526c-4.592-0.947-8.786-2.785-12.532-5.612c-0.533-0.402-1.084-0.844-1.461-1.382
		c-1.406-2.015-3.386-3.089-5.703-3.633c-0.879-0.207-1.585-0.639-2.198-1.29c-1.745-1.86-3.541-3.683-4.957-5.811
		c-0.711-1.068-1.081-0.79-1.539,0.128c-0.964,1.932-1.508,3.964-1.302,6.124c0.078,0.818-0.125,1.229-0.892,1.523
		c-2.899,1.114-4.95,3.092-6.507,5.827c-0.95,1.672-2.547,2.984-3.893,4.421c-1.493,1.593-1.54,3.383,0.044,4.886
		c0.619,0.587,1.021,1.209,1.312,2c0.655,1.779,2.301,2.765,4.146,2.282c6.272-1.635,10.658,1.925,12.395,7.584
		c0.241,0.785,0.337,1.55,0.225,2.399c-0.286,2.165,0.35,4.297,0.387,6.458c0.134,7.778-0.159,15.475-5.315,21.938
		c-2.795,3.504-6.312,6.328-9.441,9.523c-0.403,0.41-0.896,0.746-1.249,1.195c-1.063,1.348-2.349,1.837-4.118,1.788
		c-2.998-0.081-4.511,1.956-4.041,4.931c0.125,0.785,0.597,0.904,1.213,0.908C248.84,1042.295,250.332,1042.289,252.483,1042.289z"
		/>
	
		<path clip-path="url(#SVGID_8_)" fill="none" stroke="#79B5E3" stroke-width="2.939" stroke-linecap="round" stroke-linejoin="round" stroke-miterlimit="10" d="
		M869.188,1042.289c3.11,0.885,5.96-0.884,8.834-3.023c5.636-4.191,11.369-8.248,16.679-12.859c1.053-0.912,2.022-1.92,3.051-2.861
		c1.149-1.05,1.862-2.293,1.958-3.881c0.06-1.002,0.563-1.803,1.288-2.504c3.913-3.789,8.916-4.62,13.821-2.297
		c0.908,0.431,1.567,1.023,2.026,1.94c3.042,6.062,6.102,12.113,9.201,18.145c0.556,1.081,0.438,1.407-0.841,1.567
		c-1.967,0.246-2.805,1.435-2.638,3.281c0.154,1.695,1.033,2.443,3.082,2.492c1.778,0.045,3.561-0.036,5.34,0.021
		c1.141,0.037,1.63-0.502,1.875-1.541c0.5-2.115,0.218-4.213-0.042-6.311c-0.823-6.628-1.67-13.253-2.502-19.88
		c-0.061-0.477-0.049-0.964-0.126-1.437c-0.124-0.76,0.224-1.043,0.935-1.108c2.681-0.246,5.355-0.542,8.036-0.766
		c0.926-0.078,1.774,0.385,2.651,0.622c4.272,1.154,8.539,2.312,12.998,2.513c1.067,0.049,2.13,0.047,3.138-0.29
		c0.844-0.283,1.203,0.011,1.509,0.774c1.976,4.929,4.701,9.365,8.693,12.937c0.646,0.578,0.605,1.074,0.157,1.74
		c-1.772,2.634-3.522,5.281-5.25,7.945c-0.447,0.692-0.937,0.94-1.79,0.809c-3.199-0.499-4.505,0.755-4.331,3.941
		c0.052,0.953,0.456,1.249,1.339,1.239c2.406-0.026,4.812-0.016,7.216-0.007c0.56,0.002,1.03-0.162,1.433-0.557
		c3.884-3.812,7.627-7.743,10.695-12.27c1.259-1.858,1.714-3.682,1.017-5.963c-0.904-2.956-0.66-6.093-0.717-9.164
		c-0.022-1.163,0.733-0.745,1.282-0.545c4.295,1.559,8.528,3.307,12.889,4.649c2.7,0.832,4.203,2.315,5.135,4.965
		c1.334,3.788,3.434,7.315,3.621,11.472c0.022,0.512,0.247,1.029,0.454,1.513c0.622,1.453,1.226,1.637,2.537,0.822
		c3.352-2.082,4.073-3.962,2.994-7.763c-1.748-6.15-3.506-12.3-5.215-18.462c-0.253-0.91-0.726-1.505-1.516-1.979
		c-2.021-1.211-4.062-2.399-5.997-3.74c-3.28-2.271-4.933-5.37-4.133-9.424c0.814-4.144-0.055-8.029-1.56-11.839
		c-0.812-2.056-1.607-4.131-2.77-6.021c-0.454-0.737-0.138-1.119,0.316-1.604c6.038-6.444,9.554-14.156,11.095-22.761
		c1.279-7.148,0.695-14.096-3.158-20.489c-2.273-3.774-5.283-6.617-9.786-7.44c-3.075-0.562-6.026-0.049-8.85,1.27
		c-1.844,0.86-3.558,1.927-5.083,3.266c-1.936,1.695-2.165,4.243-0.623,6.21c1.484,1.89,4.138,2.188,6.194,0.65
		c1.239-0.926,2.476-1.831,3.956-2.34c2.477-0.85,4.243-0.326,5.819,1.791c1.955,2.624,3.021,5.632,3.121,8.854
		c0.296,9.569-2.796,17.932-9.281,25.017c-0.698,0.763-1.332,0.979-2.38,0.543c-2.688-1.116-5.521-1.578-8.448-1.591
		c-9.098-0.038-18.153,0.628-27.209,1.412c-7.374,0.64-14.741,1.32-22.029,2.662c-1.178,0.217-2.389,0.454-3.473,0.935
		c-2.085,0.925-4.179,0.974-6.35,0.526c-4.592-0.947-8.786-2.785-12.531-5.612c-0.533-0.402-1.085-0.844-1.461-1.382
		c-1.405-2.015-3.386-3.089-5.704-3.633c-0.879-0.207-1.585-0.639-2.197-1.29c-1.744-1.86-3.541-3.683-4.956-5.811
		c-0.711-1.068-1.081-0.79-1.539,0.128c-0.964,1.932-1.508,3.964-1.302,6.124c0.077,0.818-0.124,1.229-0.892,1.523
		c-2.899,1.114-4.95,3.092-6.507,5.827c-0.951,1.672-2.549,2.984-3.894,4.421c-1.493,1.593-1.54,3.383,0.044,4.886
		c0.619,0.587,1.021,1.209,1.312,2c0.655,1.779,2.301,2.765,4.147,2.282c6.271-1.635,10.658,1.925,12.394,7.584
		c0.241,0.785,0.338,1.55,0.226,2.399c-0.286,2.165,0.35,4.297,0.387,6.458c0.134,7.778-0.158,15.475-5.314,21.938
		c-2.796,3.504-6.312,6.328-9.441,9.523c-0.403,0.41-0.896,0.746-1.249,1.195c-1.062,1.348-2.348,1.837-4.118,1.788
		c-2.998-0.081-4.511,1.956-4.039,4.931c0.124,0.785,0.597,0.904,1.212,0.908C865.545,1042.295,867.036,1042.289,869.188,1042.289z"
		/>
	<path clip-path="url(#SVGID_8_)" fill="#79B5E3" d="M322.467,999.199c2.288,0,4.143-1.854,4.143-4.143s-1.854-4.143-4.143-4.143
		c-2.289,0-4.143,1.854-4.143,4.143S320.178,999.199,322.467,999.199"/>
	<path clip-path="url(#SVGID_8_)" fill="#79B5E3" d="M939.172,999.199c2.288,0,4.143-1.854,4.143-4.143s-1.854-4.143-4.143-4.143
		s-4.144,1.854-4.144,4.143S936.884,999.199,939.172,999.199"/>
	<path clip-path="url(#SVGID_8_)" fill="#C6262C" d="M222.216,807.207c2.288,0,4.144-1.855,4.144-4.144s-1.855-4.143-4.144-4.143
		c-2.288,0-4.143,1.854-4.143,4.143S219.929,807.207,222.216,807.207"/>
	<path clip-path="url(#SVGID_8_)" fill="#C6262C" d="M838.922,807.207c2.287,0,4.143-1.855,4.143-4.144s-1.855-4.143-4.143-4.143
		c-2.288,0-4.143,1.854-4.143,4.143S836.634,807.207,838.922,807.207"/>
	<path clip-path="url(#SVGID_8_)" fill="#C6262C" d="M414.258,743.221c2.288,0,4.143-1.855,4.143-4.144s-1.854-4.143-4.143-4.143
		s-4.143,1.854-4.143,4.143S411.97,743.221,414.258,743.221"/>
	<path clip-path="url(#SVGID_8_)" fill="#C6262C" d="M1030.962,743.221c2.288,0,4.144-1.855,4.144-4.144s-1.855-4.143-4.144-4.143
		s-4.143,1.854-4.143,4.143S1028.674,743.221,1030.962,743.221"/>
	
		<path clip-path="url(#SVGID_8_)" fill="none" stroke="#C6262C" stroke-width="3.276" stroke-linecap="round" stroke-linejoin="round" d="
		M483.107,902.13c-5.773-0.373-10.514-2.64-14.766-6.43c-5.14-4.582-9.459-9.847-13.514-15.366
		c-3.496-4.756-6.552-9.828-10.324-14.385c-2.267-2.738-4.309-5.577-4.927-9.194c-0.052-0.3-0.198-0.59-0.343-0.864
		c-0.339-0.646-0.838-1.067-1.619-0.937c-0.737,0.123-1.057,0.692-1.079,1.339c-0.048,1.403-0.74,2.58-1.258,3.808
		c-0.863,2.039-2.376,2.247-3.781,0.498c-0.771-0.962-1.377-2.063-2.008-3.132c-0.493-0.833-0.997-1.676-2.108-1.525
		c-1.215,0.165-1.627,1.105-1.854,2.2c-0.362,1.745-0.216,3.508-0.272,5.266c-0.149,4.593-2.04,8.11-6.406,9.938
		c-2.507,1.053-4.809,2.404-6.984,4.01c-0.869,0.641-1.997,1.182-1.691,2.513c0.298,1.29,1.51,1.216,2.524,1.366
		c0.203,0.031,0.399,0.107,0.598,0.163c1.227,0.354,1.381,1.131,0.805,2.142c-0.229,0.399-0.54,0.759-0.848,1.107
		c-3.117,3.537-6.341,6.973-9.686,10.293c-1.625,1.614-2.866,3.469-3.082,5.779c-0.338,3.644,0.04,7.24,1.214,10.723
		c0.555,1.647,1.602,2.848,3.275,3.512c2.093,0.829,3.903,2.119,5.533,3.672c1.462,1.392,2.902,2.815,4.442,4.119
		c3.615,3.069,9.437,2.283,11.395-1.785c2.271-4.719,4.192-9.624,3.15-15.09c-0.086-0.453-0.081-0.929-0.076-1.395
		c0.006-0.554,0.184-1.04,0.798-1.178c0.64-0.143,1.252-0.092,1.672,0.503c0.369,0.522,0.468,1.132,0.539,1.758
		c0.252,2.263,0.53,4.522,0.8,6.783c0.769,6.444,1.37,12.916-0.332,19.285c-1.164,4.361-1.544,8.749-1.398,13.221
		c0.109,3.363,0.475,6.716,0.349,10.087c0,1.969-0.07,3.939,0.015,5.903c0.166,3.836,1.456,5.126,5.303,5.477
		c2.887,0.263,5.752,0.601,8.543,1.485c2.021,0.638,4.132,0.892,6.262,1.055c5.259,0.404,10.429-0.365,15.607-1.035
		c1.523-0.197,2.835-0.85,3.826-2.139c1.416-1.844,3.423-2.761,5.685-2.734c4.335,0.054,8.53-0.938,12.781-1.492
		c4.479-0.584,9.019-1.468,13.353,0.239c3.866,1.524,7.511,1.265,11.36,0.146c4.767-1.383,9.04-0.371,12.42,3.438
		c1.096,1.236,2.393,1.758,3.99,1.635c2.683-0.207,5.376-0.329,8.043-0.664c4.435-0.557,6.728-2.856,7.35-7.303
		c0.461-3.296,0.253-6.614,0.067-9.923c-0.075-1.343-0.352-2.707,0.08-4.009c0.52-1.562,0.429-3.036-0.153-4.545
		c-0.504-1.303-0.854-2.668-1.402-3.948c-4.152-9.71-8.916-19.027-16.574-26.57c-3.097-3.051-4.651-6.79-4.196-11.249
		c0.137-1.332,0.035-2.684-0.103-4.03c-0.632-6.128-3.275-11.507-6.188-16.785c-1.225-2.222-2.517-4.406-3.815-6.585
		c-0.496-0.831-1.164-1.509-2.271-1.244c-1.142,0.273-1.542,1.168-1.613,2.21c-0.06,0.875-0.031,1.762,0.03,2.637
		c0.208,3.006,0.811,5.938,1.588,8.848c1.218,4.557,1.508,9.187,0.752,13.851c-0.442,2.727-1.771,3.953-4.528,4.293
		C499.748,902.925,491.44,902.667,483.107,902.13z"/>
	
		<path clip-path="url(#SVGID_8_)" fill="none" stroke="#C6262C" stroke-width="3.276" stroke-linecap="round" stroke-linejoin="round" d="
		M1099.812,902.13c-5.773-0.373-10.513-2.64-14.766-6.43c-5.14-4.582-9.459-9.847-13.513-15.366
		c-3.496-4.756-6.553-9.828-10.325-14.385c-2.267-2.738-4.309-5.577-4.927-9.194c-0.053-0.3-0.198-0.59-0.343-0.864
		c-0.339-0.646-0.839-1.067-1.619-0.937c-0.737,0.123-1.057,0.692-1.078,1.339c-0.047,1.403-0.74,2.58-1.259,3.808
		c-0.862,2.039-2.377,2.247-3.78,0.498c-0.771-0.962-1.378-2.063-2.009-3.132c-0.492-0.833-0.996-1.676-2.108-1.525
		c-1.215,0.165-1.627,1.105-1.854,2.2c-0.362,1.745-0.216,3.508-0.271,5.266c-0.149,4.593-2.04,8.11-6.405,9.938
		c-2.508,1.053-4.809,2.404-6.984,4.01c-0.869,0.641-1.997,1.182-1.691,2.513c0.299,1.29,1.51,1.216,2.523,1.366
		c0.203,0.031,0.399,0.107,0.598,0.163c1.228,0.354,1.382,1.131,0.805,2.142c-0.229,0.399-0.539,0.759-0.848,1.107
		c-3.116,3.537-6.341,6.973-9.686,10.293c-1.626,1.614-2.866,3.469-3.082,5.779c-0.338,3.644,0.04,7.24,1.214,10.723
		c0.555,1.647,1.601,2.848,3.274,3.512c2.094,0.829,3.903,2.119,5.533,3.672c1.461,1.392,2.902,2.815,4.441,4.119
		c3.615,3.069,9.437,2.283,11.395-1.785c2.271-4.719,4.192-9.624,3.149-15.09c-0.086-0.453-0.08-0.929-0.075-1.395
		c0.007-0.554,0.184-1.04,0.799-1.178c0.639-0.143,1.252-0.092,1.672,0.503c0.369,0.522,0.469,1.132,0.539,1.758
		c0.251,2.263,0.529,4.522,0.799,6.783c0.769,6.444,1.37,12.916-0.331,19.285c-1.164,4.361-1.544,8.749-1.399,13.221
		c0.109,3.363,0.476,6.716,0.35,10.087c0,1.969-0.07,3.939,0.015,5.903c0.167,3.836,1.456,5.126,5.304,5.477
		c2.887,0.263,5.751,0.601,8.544,1.485c2.021,0.638,4.13,0.892,6.261,1.055c5.259,0.404,10.429-0.365,15.606-1.035
		c1.522-0.197,2.836-0.85,3.827-2.139c1.415-1.844,3.422-2.761,5.684-2.734c4.336,0.054,8.53-0.938,12.781-1.492
		c4.479-0.584,9.019-1.468,13.353,0.239c3.866,1.524,7.512,1.265,11.36,0.146c4.767-1.383,9.04-0.371,12.42,3.438
		c1.097,1.236,2.393,1.758,3.99,1.635c2.684-0.207,5.377-0.329,8.043-0.664c4.436-0.557,6.729-2.856,7.35-7.303
		c0.462-3.296,0.254-6.614,0.068-9.923c-0.075-1.343-0.353-2.707,0.08-4.009c0.52-1.562,0.429-3.036-0.154-4.545
		c-0.503-1.303-0.854-2.668-1.401-3.948c-4.151-9.71-8.916-19.027-16.574-26.57c-3.097-3.051-4.651-6.79-4.195-11.249
		c0.136-1.332,0.034-2.684-0.104-4.03c-0.632-6.128-3.276-11.507-6.188-16.785c-1.226-2.222-2.517-4.406-3.815-6.585
		c-0.495-0.831-1.163-1.509-2.271-1.244c-1.142,0.273-1.543,1.168-1.613,2.21c-0.061,0.875-0.031,1.762,0.029,2.637
		c0.209,3.006,0.812,5.938,1.589,8.848c1.218,4.557,1.509,9.187,0.752,13.851c-0.442,2.727-1.771,3.953-4.528,4.293
		C1116.453,902.925,1108.146,902.667,1099.812,902.13z"/>
	<path clip-path="url(#SVGID_8_)" fill="#C6262C" d="M481.75,934.036c2.288,0,4.143-1.854,4.143-4.143s-1.854-4.144-4.143-4.144
		s-4.143,1.855-4.143,4.144S479.462,934.036,481.75,934.036"/>
	<path clip-path="url(#SVGID_8_)" fill="#C6262C" d="M1098.455,934.036c2.287,0,4.143-1.854,4.143-4.143s-1.855-4.144-4.143-4.144
		c-2.288,0-4.144,1.855-4.144,4.144S1096.167,934.036,1098.455,934.036"/>
	<path clip-path="url(#SVGID_8_)" fill="#79B5E3" d="M329.497,1075.764c1.724,0,3.123-1.398,3.123-3.123s-1.399-3.123-3.123-3.123
		c-1.725,0-3.124,1.398-3.124,3.123S327.772,1075.764,329.497,1075.764"/>
	<path clip-path="url(#SVGID_8_)" fill="#79B5E3" d="M946.201,1075.764c1.725,0,3.123-1.398,3.123-3.123s-1.398-3.123-3.123-3.123
		s-3.122,1.398-3.122,3.123S944.477,1075.764,946.201,1075.764"/>
	
		<path clip-path="url(#SVGID_8_)" fill="none" stroke="#79B5E3" stroke-width="2.939" stroke-linecap="round" stroke-linejoin="round" stroke-miterlimit="10" d="
		M304.937,1109.219h-2.902c-0.225-0.088-0.448-0.181-0.675-0.262c-1.263-0.446-1.523-1.59-0.57-2.544
		c0.367-0.366,0.765-0.706,1.127-1.071c0.425-0.429,0.974-0.771,1.227-1.342c0.796-1.792,1.659-3.559,2.145-5.472
		c0.099-0.393,0.243-0.775,0.434-1.14c0.63-1.203,0.952-2.501,0.999-3.841c0.104-3-0.233-5.939-1.337-8.769
		c-0.288-0.737-0.505-1.5-0.823-2.233c-0.374-0.863-0.861-1.708-1.074-2.608c-0.347-1.473-0.753-2.932-1.079-4.41
		c-0.096-0.433-0.097-0.893-0.236-1.309c-0.608-1.812-1.447-3.495-2.973-4.734c-1.062-0.862-2.19-1.668-3.625-1.652
		c-1.325,0.014-2.264-0.722-3.256-1.396c-0.222-0.15-0.318-0.396-0.367-0.663c-0.04-0.216-0.123-0.425-0.187-0.637v-2.005
		c0.236-0.609,0.53-1.178,1.017-1.64c0.257-0.241,0.453-0.543,0.512-0.906c0.138-0.856,0.532-1.612,0.919-2.37
		c0.15-0.295,0.221-0.657,0.54-0.824c0.56-0.294,0.87-0.855,1.363-1.22c0.198-0.146,0.301-0.376,0.328-0.626
		c0.078-0.724-0.02-1.404-0.49-1.998c-0.299-0.378-0.607-0.757-0.748-1.229c-0.1-0.338-0.437-0.714-0.071-1.024
		c0.373-0.317,0.773-0.022,1.139,0.144c0.114,0.052,0.222,0.141,0.306,0.235c0.973,1.093,2.283,1.678,3.545,2.33
		c0.364,0.188,0.641,0.078,0.791-0.326c0.193-0.521,0.392-1.042,0.607-1.555c0.217-0.515,0.576-0.644,1.075-0.385
		c0.263,0.136,0.556,0.262,0.753,0.47c0.774,0.82,1.672,1.51,2.409,2.371c0.6,0.701,1.247,1.355,1.776,2.122
		c1.127,1.634,1.965,3.433,2.98,5.13c0.705,1.18,1.643,2.073,2.618,2.975c0.2,0.184,0.442,0.282,0.704,0.31
		c0.959,0.103,1.898,0.039,2.761-0.445c0.778-0.438,1.602-0.682,2.504-0.638c0.313,0.015,0.656,0.069,0.932-0.096
		c0.702-0.416,1.504-0.389,2.261-0.532c1.577-0.296,3.176-0.388,4.742-0.853c1.393-0.414,2.796-0.845,4.24-1.115
		c1.177-0.22,2.338-0.512,3.491-0.887c1.524-0.495,3.148-0.702,4.772-0.764c0.257-0.008,0.526-0.02,0.757-0.159
		c0.4-0.242,0.838-0.269,1.291-0.271c2.547-0.008,5.094-0.026,7.643-0.041c0.299-0.001,0.593-0.013,0.876-0.129
		c1.917-0.798,3.806-1.645,5.39-3.031c0.404-0.354,0.805-0.705,1.259-1.006c1.063-0.705,2.047-1.525,3.062-2.293
		c0.73-0.553,1.265-1.385,1.911-2.071c0.899-0.956,1.745-1.973,2.526-3.026c0.667-0.902,1.31-1.84,1.676-2.917
		c0.148-0.435,0.092-0.98,0.337-1.331c0.603-0.869,0.87-1.881,1.362-2.795c0.417-0.769,0.934-1.468,1.365-2.226
		c0.78-1.367,1.881-2.463,3.135-3.41c0.521,0,1.245-0.203,1.505,0.057c0.26,0.26,0.057,0.982,0.057,1.502v0.891
		c-0.534,1.103-0.86,2.294-1.202,3.449c-0.626,2.118-1.317,4.208-2.091,6.272c-0.402,1.07-0.874,2.13-1.435,3.127
		c-1.146,2.035-2.641,3.826-4.148,5.604c-0.107,0.128-0.219,0.268-0.358,0.349c-0.934,0.536-1.536,1.433-2.33,2.118
		c-0.755,0.651-1.548,1.255-2.289,1.926c-0.944,0.854-2.141,1.388-3.069,2.283c-0.56,0.539-0.849,1.149-0.755,1.933
		c0.095,0.79,0.22,1.581,0.246,2.374c0.103,3.188,0.06,6.377-0.063,9.564c-0.037,0.945,0.118,1.89,0.496,2.77
		c0.534,1.239,1.222,2.409,1.666,3.689c0.064,0.188,0.196,0.354,0.298,0.53c0.716,1.221,1.598,2.367,1.75,3.845
		c0.056,0.553,0.119,1.105,0.194,1.654c0.217,1.591,0.225,3.173-0.118,4.752c-0.13,0.599-0.474,0.947-1.06,1.074
		c-0.884,0.192-1.775,0.155-2.662,0.05c-0.42-0.05-0.76-0.285-0.969-0.677c-0.426-0.806-0.212-2.305,0.479-2.896
		c0.457-0.394,0.496-0.807,0.233-1.279c-0.273-0.489-0.458-1.01-0.639-1.535c-0.272-0.791-0.569-1.569-1.13-2.219
		c-0.276-0.32-0.597-0.567-1.008-0.426c-0.469,0.161-0.309,0.611-0.3,0.968c0.002,0.128,0.063,0.253,0.074,0.382
		c0.116,1.219,0.242,2.451-0.07,3.647c-0.405,1.558-1.187,2.999-1.475,4.599c-0.02,0.106-0.066,0.221-0.135,0.303
		c-0.538,0.66-0.679,1.468-0.886,2.257c-0.192,0.731-0.48,1.436-0.621,2.184c-0.054,0.29-0.224,0.541-0.472,0.735
		c-0.665,0.521-1.385,0.841-2.259,0.754c-0.405-0.039-0.812,0.018-1.219,0.09c-1.095,0.192-2.493-0.932-2.565-2.027
		c-0.068-1.056,0.488-1.914,1.561-2.262c0.609-0.199,0.974-0.587,1.208-1.139c0.117-0.276,0.29-0.515,0.437-0.771
		c0.586-1.02,1.113-2.08,0.969-3.295c-0.152-1.273-0.624-2.476-1.477-3.421c-0.963-1.068-1.744-2.265-2.629-3.385
		c-0.32-0.404-0.689-0.776-0.966-1.214c-0.621-0.984-1.222-1.981-1.841-2.967c-0.542-0.864-0.779-0.946-1.738-0.628
		c-0.246,0.082-0.502,0.153-0.728,0.276c-1.583,0.88-3.411,0.968-5.088,1.557c-1.111,0.39-2.362,0.381-3.474,0.77
		c-1.628,0.57-3.331,0.877-4.945,1.48c-0.639,0.24-1.374,0.161-1.963,0.582c-0.454,0.324-0.982,0.467-1.522,0.477
		c-1.041,0.018-1.764,0.726-2.62,1.142c-0.146,0.07-0.233,0.28-0.322,0.441c-0.372,0.666-0.49,1.415-0.505,2.146
		c-0.042,1.87-0.317,3.728-0.246,5.604c0.038,0.981,0.014,1.966,0.003,2.949c-0.008,0.778-0.004,1.569-0.275,2.31
		c-0.468,1.271-1.095,2.404-2.607,2.688c-1.16,0.219-2.303,0.146-3.407-0.244c-0.782-0.275-0.958-0.818-0.604-1.551
		c0.097-0.199,0.172-0.41,0.258-0.615c0.247-0.594,0.663-0.946,1.326-1.046c0.749-0.112,1.112-0.51,1.13-1.278
		c0.014-0.551-0.089-1.105-0.162-1.654c-0.027-0.196-0.08-0.429-0.342-0.446c-0.235-0.017-0.276,0.208-0.374,0.359
		c-1.142,1.771-1.833,3.784-2.987,5.55c-0.07,0.107-0.101,0.238-0.152,0.357c-0.421,0.987-0.792,2.002-1.281,2.955
		c-0.294,0.572-0.613,1.125-0.882,1.717c-0.34,0.75-0.838,1.445-1.733,1.691C305.519,1108.968,305.23,1109.106,304.937,1109.219z"/>
	
		<path clip-path="url(#SVGID_8_)" fill="none" stroke="#79B5E3" stroke-width="2.939" stroke-linecap="round" stroke-linejoin="round" stroke-miterlimit="10" d="
		M921.642,1109.219h-2.903c-0.224-0.088-0.447-0.181-0.674-0.262c-1.263-0.446-1.522-1.59-0.57-2.544
		c0.366-0.366,0.766-0.706,1.128-1.071c0.425-0.429,0.973-0.771,1.226-1.342c0.797-1.792,1.66-3.559,2.146-5.472
		c0.1-0.393,0.243-0.775,0.435-1.14c0.63-1.203,0.952-2.501,0.999-3.841c0.104-3-0.234-5.939-1.337-8.769
		c-0.288-0.737-0.506-1.5-0.824-2.233c-0.373-0.863-0.861-1.708-1.073-2.608c-0.347-1.473-0.753-2.932-1.079-4.41
		c-0.096-0.433-0.097-0.893-0.236-1.309c-0.608-1.812-1.447-3.495-2.974-4.734c-1.061-0.862-2.189-1.668-3.624-1.652
		c-1.324,0.014-2.264-0.722-3.257-1.396c-0.222-0.15-0.317-0.396-0.366-0.663c-0.04-0.216-0.122-0.425-0.187-0.637v-2.005
		c0.236-0.609,0.53-1.178,1.018-1.64c0.257-0.241,0.452-0.543,0.512-0.906c0.138-0.856,0.532-1.612,0.919-2.37
		c0.15-0.295,0.222-0.657,0.539-0.824c0.561-0.294,0.87-0.855,1.363-1.22c0.199-0.146,0.301-0.376,0.329-0.626
		c0.078-0.724-0.021-1.404-0.49-1.998c-0.299-0.378-0.607-0.757-0.748-1.229c-0.1-0.338-0.436-0.714-0.07-1.024
		c0.373-0.317,0.773-0.022,1.139,0.144c0.114,0.052,0.222,0.141,0.307,0.235c0.973,1.093,2.283,1.678,3.545,2.33
		c0.364,0.188,0.642,0.078,0.79-0.326c0.193-0.521,0.393-1.042,0.608-1.555c0.216-0.515,0.576-0.644,1.074-0.385
		c0.263,0.136,0.556,0.262,0.753,0.47c0.774,0.82,1.672,1.51,2.409,2.371c0.6,0.701,1.247,1.355,1.775,2.122
		c1.127,1.634,1.965,3.433,2.98,5.13c0.705,1.18,1.643,2.073,2.617,2.975c0.2,0.184,0.442,0.282,0.704,0.31
		c0.959,0.103,1.897,0.039,2.761-0.445c0.778-0.438,1.601-0.682,2.504-0.638c0.313,0.015,0.656,0.069,0.933-0.096
		c0.702-0.416,1.504-0.389,2.261-0.532c1.576-0.296,3.177-0.388,4.741-0.853c1.395-0.414,2.797-0.845,4.24-1.115
		c1.177-0.22,2.338-0.512,3.49-0.887c1.524-0.495,3.149-0.702,4.772-0.764c0.257-0.008,0.526-0.02,0.758-0.159
		c0.399-0.242,0.837-0.269,1.29-0.271c2.547-0.008,5.094-0.026,7.642-0.041c0.3-0.001,0.593-0.013,0.877-0.129
		c1.917-0.798,3.807-1.645,5.39-3.031c0.404-0.354,0.806-0.705,1.259-1.006c1.063-0.705,2.047-1.525,3.062-2.293
		c0.73-0.553,1.265-1.385,1.91-2.071c0.9-0.956,1.745-1.973,2.526-3.026c0.667-0.902,1.311-1.84,1.678-2.917
		c0.147-0.435,0.091-0.98,0.335-1.331c0.603-0.869,0.87-1.881,1.363-2.795c0.416-0.769,0.934-1.468,1.365-2.226
		c0.779-1.367,1.88-2.463,3.134-3.41c0.521,0,1.244-0.203,1.505,0.057s0.058,0.982,0.058,1.502v0.891
		c-0.534,1.103-0.86,2.294-1.202,3.449c-0.627,2.118-1.316,4.208-2.091,6.272c-0.402,1.07-0.873,2.13-1.435,3.127
		c-1.146,2.035-2.641,3.826-4.147,5.604c-0.107,0.128-0.219,0.268-0.359,0.349c-0.934,0.536-1.534,1.433-2.329,2.118
		c-0.755,0.651-1.548,1.255-2.289,1.926c-0.944,0.854-2.141,1.388-3.069,2.283c-0.56,0.539-0.85,1.149-0.755,1.933
		c0.095,0.79,0.22,1.581,0.245,2.374c0.103,3.188,0.06,6.377-0.063,9.564c-0.037,0.945,0.118,1.89,0.496,2.77
		c0.534,1.239,1.222,2.409,1.666,3.689c0.064,0.188,0.195,0.354,0.299,0.53c0.715,1.221,1.597,2.367,1.748,3.845
		c0.057,0.553,0.12,1.105,0.195,1.654c0.218,1.591,0.225,3.173-0.119,4.752c-0.13,0.599-0.473,0.947-1.059,1.074
		c-0.885,0.192-1.775,0.155-2.662,0.05c-0.42-0.05-0.761-0.285-0.969-0.677c-0.427-0.806-0.213-2.305,0.479-2.896
		c0.456-0.394,0.495-0.807,0.232-1.279c-0.272-0.489-0.457-1.01-0.639-1.535c-0.271-0.791-0.569-1.569-1.13-2.219
		c-0.275-0.32-0.598-0.567-1.008-0.426c-0.469,0.161-0.31,0.611-0.3,0.968c0.002,0.128,0.063,0.253,0.074,0.382
		c0.116,1.219,0.241,2.451-0.07,3.647c-0.404,1.558-1.188,2.999-1.475,4.599c-0.02,0.106-0.067,0.221-0.136,0.303
		c-0.537,0.66-0.68,1.468-0.887,2.257c-0.191,0.731-0.479,1.436-0.62,2.184c-0.055,0.29-0.225,0.541-0.472,0.735
		c-0.665,0.521-1.386,0.841-2.26,0.754c-0.404-0.039-0.811,0.018-1.219,0.09c-1.095,0.192-2.493-0.932-2.565-2.027
		c-0.067-1.056,0.489-1.914,1.562-2.262c0.608-0.199,0.973-0.587,1.207-1.139c0.117-0.276,0.289-0.515,0.437-0.771
		c0.586-1.02,1.113-2.08,0.969-3.295c-0.151-1.273-0.623-2.476-1.477-3.421c-0.963-1.068-1.744-2.265-2.63-3.385
		c-0.319-0.404-0.688-0.776-0.965-1.214c-0.622-0.984-1.223-1.981-1.841-2.967c-0.542-0.864-0.779-0.946-1.738-0.628
		c-0.245,0.082-0.502,0.153-0.727,0.276c-1.584,0.88-3.411,0.968-5.089,1.557c-1.111,0.39-2.362,0.381-3.474,0.77
		c-1.629,0.57-3.331,0.877-4.945,1.48c-0.64,0.24-1.374,0.161-1.964,0.582c-0.453,0.324-0.981,0.467-1.521,0.477
		c-1.041,0.018-1.764,0.726-2.62,1.142c-0.146,0.07-0.233,0.28-0.321,0.441c-0.372,0.666-0.491,1.415-0.507,2.146
		c-0.041,1.87-0.317,3.728-0.245,5.604c0.037,0.981,0.015,1.966,0.004,2.949c-0.009,0.778-0.005,1.569-0.276,2.31
		c-0.468,1.271-1.094,2.404-2.606,2.688c-1.16,0.219-2.303,0.146-3.407-0.244c-0.782-0.275-0.958-0.818-0.604-1.551
		c0.098-0.199,0.173-0.41,0.258-0.615c0.248-0.594,0.664-0.946,1.326-1.046c0.748-0.112,1.111-0.51,1.13-1.278
		c0.014-0.551-0.089-1.105-0.162-1.654c-0.026-0.196-0.08-0.429-0.342-0.446c-0.235-0.017-0.276,0.208-0.373,0.359
		c-1.142,1.771-1.833,3.784-2.987,5.55c-0.069,0.107-0.101,0.238-0.152,0.357c-0.421,0.987-0.792,2.002-1.281,2.955
		c-0.294,0.572-0.612,1.125-0.882,1.717c-0.341,0.75-0.838,1.445-1.733,1.691C922.223,1108.968,921.936,1109.106,921.642,1109.219z"
		/>
</g>
<line fill="none" stroke="#000000" stroke-width="5.46" x1="99.8" y1="76.624" x2="511.534" y2="491.817"/>
<g>
	<defs>
		<rect id="SVGID_9_" x="37.119" y="58.803" width="1153.881" height="1103.284"/>
	</defs>
	<clipPath id="SVGID_10_">
		<use xlink:href="#SVGID_9_"  overflow="visible"/>
	</clipPath>
	
		<line clip-path="url(#SVGID_10_)" fill="none" stroke="#000000" stroke-width="5.46" x1="674.721" y1="151.338" x2="1189.854" y2="428.009"/>
	
		<line clip-path="url(#SVGID_10_)" fill="none" stroke="#000000" stroke-width="5.46" x1="45.817" y1="792.097" x2="588.959" y2="1008.675"/>
</g>
<line fill="none" stroke="#000000" stroke-width="5.46" x1="697.558" y1="730.987" x2="1156.821" y2="1092.908"/>
<g>
	<defs>
		<rect id="SVGID_11_" x="37.119" y="58.803" width="1153.881" height="1103.284"/>
	</defs>
	<clipPath id="SVGID_12_">
		<use xlink:href="#SVGID_11_"  overflow="visible"/>
	</clipPath>
	<path clip-path="url(#SVGID_12_)" d="M78.885,555.024c23.067,0,41.766-18.7,41.766-41.766s-18.699-41.766-41.766-41.766
		c-23.066,0-41.766,18.699-41.766,41.766S55.818,555.024,78.885,555.024"/>
</g>
<polygon fill="#FFFFFF" points="78.917,524.67 83.839,524.67 83.839,501.846 80.439,501.846 73.931,503.788 74.967,507.868 
	78.917,506.896 "/>
<g>
	<defs>
		<rect id="SVGID_13_" x="37.119" y="58.803" width="1153.881" height="1103.284"/>
	</defs>
	<clipPath id="SVGID_14_">
		<use xlink:href="#SVGID_13_"  overflow="visible"/>
	</clipPath>
	<path clip-path="url(#SVGID_14_)" d="M80.819,1162.087c23.066,0,41.766-18.699,41.766-41.766s-18.699-41.766-41.766-41.766
		c-23.067,0-41.766,18.699-41.766,41.766S57.752,1162.087,80.819,1162.087"/>
	<path clip-path="url(#SVGID_14_)" fill="#FFFFFF" d="M84.548,1131.297c1.018-0.367,1.88-0.885,2.586-1.554
		c0.707-0.669,1.249-1.451,1.629-2.349c0.38-0.895,0.571-1.882,0.571-2.962v-0.064c0-1.058-0.174-1.958-0.521-2.704
		c-0.348-0.744-0.81-1.365-1.386-1.861c-0.575-0.496-1.227-0.885-1.955-1.165c-0.728-0.28-1.479-0.486-2.257-0.615l5.761-5.472
		v-3.757H73.632v4.308h8.903l-5.407,5.414l0.777,3.159h2.072c1.403,0,2.493,0.247,3.271,0.741c0.776,0.494,1.165,1.203,1.165,2.127
		v0.064c0,0.838-0.297,1.505-0.89,1.998c-0.595,0.494-1.366,0.741-2.315,0.741c-1.166,0-2.175-0.231-3.028-0.696
		c-0.853-0.464-1.667-1.138-2.444-2.023l-3.432,3.274c0.972,1.174,2.174,2.126,3.61,2.854c1.436,0.729,3.179,1.093,5.229,1.093
		C82.395,1131.848,83.53,1131.664,84.548,1131.297"/>
	<path clip-path="url(#SVGID_14_)" d="M696.828,555.024c23.067,0,41.767-18.7,41.767-41.766s-18.699-41.766-41.767-41.766
		c-23.065,0-41.765,18.699-41.765,41.766S673.763,555.024,696.828,555.024"/>
	<path clip-path="url(#SVGID_14_)" fill="#FFFFFF" d="M688.443,524.751h16.771v-4.306h-9.875l3.691-2.849
		c0.991-0.777,1.865-1.495,2.621-2.153c0.756-0.659,1.377-1.316,1.862-1.975c0.486-0.659,0.853-1.36,1.102-2.104
		c0.247-0.746,0.372-1.592,0.372-2.542v-0.065c0-1.057-0.189-2.019-0.567-2.882c-0.378-0.863-0.906-1.597-1.587-2.201
		c-0.68-0.604-1.499-1.074-2.46-1.409s-2.023-0.502-3.188-0.502c-1.016,0-1.922,0.104-2.721,0.311
		c-0.798,0.206-1.527,0.51-2.185,0.912c-0.659,0.403-1.273,0.897-1.846,1.484c-0.572,0.587-1.14,1.26-1.7,2.021l3.497,2.817
		c0.843-1.036,1.603-1.802,2.282-2.299c0.681-0.496,1.462-0.745,2.348-0.745c0.906,0,1.64,0.248,2.201,0.744
		c0.562,0.495,0.842,1.228,0.842,2.197c0,0.474-0.07,0.91-0.21,1.309c-0.141,0.399-0.367,0.809-0.68,1.229
		c-0.313,0.42-0.718,0.862-1.215,1.326c-0.496,0.463-1.102,0.985-1.812,1.567l-7.544,6.173V524.751z"/>
	<path clip-path="url(#SVGID_14_)" d="M702.759,1158.957c23.066,0,41.767-18.699,41.767-41.766s-18.7-41.766-41.767-41.766
		c-23.067,0-41.766,18.699-41.766,41.766S679.691,1158.957,702.759,1158.957"/>
</g>
<path fill="#FFFFFF" d="M704.798,1128.604h4.76v-4.889h3.044v-4.047h-3.044v-13.89h-4.209l-12.433,14.408l0.81,3.528h11.072
	V1128.604z M698.777,1119.668l6.021-7.059v7.059H698.777z"/>
</svg>
