<?xml version="1.0" encoding="UTF-8"?>
<svg width="528px" height="373px" viewBox="0 0 528 373" version="1.1" xmlns="http://www.w3.org/2000/svg" xmlns:xlink="http://www.w3.org/1999/xlink">
    <!-- Generator: Sketch 46.2 (44496) - http://www.bohemiancoding.com/sketch -->
    <title>Group</title>
    <desc>Created with Sketch.</desc>
    <defs></defs>
    <g id="Page-1" stroke="none" stroke-width="1" fill="none" fill-rule="evenodd">
        <g id="Group" transform="translate(0.000000, -1.000000)">
            <polygon id="path22" stroke="#000000" stroke-width="0.9962625" fill="#FFF880" fill-rule="nonzero" transform="translate(102.240006, 54.146531) scale(-1, 1) rotate(-180.000000) translate(-102.240006, -54.146531) " points="84.5232625 36.4297875 119.95675 36.4297875 119.95675 71.863275 84.5232625 71.863275"></polygon>
            <path d="M226.257275,54.146525 C226.257275,63.9313375 218.325338,71.863275 208.540525,71.863275 C198.755713,71.863275 190.823775,63.9313375 190.823775,54.146525 C190.823775,44.3617125 198.755713,36.429775 208.540525,36.429775 C218.325338,36.429775 226.257275,44.3617125 226.257275,54.146525 Z" id="path34" stroke="#000000" stroke-width="0.9962625" fill="#8080FF" fill-rule="nonzero" transform="translate(208.540525, 54.146525) scale(-1, 1) rotate(-180.000000) translate(-208.540525, -54.146525) "></path>
            <path d="M332.5578,54.146525 C332.5578,63.9313375 324.625875,71.863275 314.841075,71.863275 C305.05625,71.863275 297.124325,63.9313375 297.124325,54.146525 C297.124325,44.3617125 305.05625,36.429775 314.841075,36.429775 C324.625875,36.429775 332.5578,44.3617125 332.5578,54.146525 L332.5578,54.146525 Z" id="path46" stroke="#000000" stroke-width="0.9962625" fill="#8080FF" fill-rule="nonzero" transform="translate(314.841063, 54.146525) scale(-1, 1) rotate(-180.000000) translate(-314.841063, -54.146525) "></path>
            <path d="M438.85835,54.146525 C438.85835,63.9313375 430.926413,71.863275 421.1416,71.863275 C411.356787,71.863275 403.424863,63.9313375 403.424863,54.146525 C403.424863,44.3617125 411.356787,36.429775 421.1416,36.429775 C430.926413,36.429775 438.85835,44.3617125 438.85835,54.146525 Z" id="path58" stroke="#000000" stroke-width="0.9962625" fill="#8080FF" fill-rule="nonzero" transform="translate(421.141606, 54.146525) scale(-1, 1) rotate(-180.000000) translate(-421.141606, -54.146525) "></path>
            <path d="M123.500075,52.896525 L185.773575,52.896525" id="path68" stroke="#000000" stroke-width="1.99255005" transform="translate(154.636825, 53.521525) scale(-1, 1) rotate(-180.000000) translate(-154.636825, -53.521525) "></path>
            <path d="M182.934225,57.93235 C183.170825,56.51265 185.773575,54.3831125 186.4834,54.146525 C185.773575,53.9099375 183.170825,51.7804 182.934225,50.3607" id="path74" stroke="#000000" stroke-width="1.59402505" stroke-linecap="round" stroke-linejoin="round" transform="translate(184.708812, 54.146525) scale(-1, 1) rotate(-180.000000) translate(-184.708812, -54.146525) "></path>
            <path d="M229.800625,52.896525 L292.0741,52.896525" id="path78" stroke="#000000" stroke-width="1.99255005" transform="translate(260.937363, 53.521525) scale(-1, 1) rotate(-180.000000) translate(-260.937363, -53.521525) "></path>
            <path d="M289.23475,57.93235 C289.47135,56.51265 292.0741,54.3831125 292.783925,54.146525 C292.0741,53.9099375 289.47135,51.7804 289.23475,50.3607" id="path84" stroke="#000000" stroke-width="1.59402505" stroke-linecap="round" stroke-linejoin="round" transform="translate(291.009337, 54.146525) scale(-1, 1) rotate(-180.000000) translate(-291.009337, -54.146525) "></path>
            <path d="M336.101137,52.896525 L398.374638,52.896525" id="path88" stroke="#000000" stroke-width="1.99255005" transform="translate(367.237887, 53.521525) scale(-1, 1) rotate(-180.000000) translate(-367.237887, -53.521525) "></path>
            <path d="M395.535287,57.93235 C395.771887,56.51265 398.374638,54.3831125 399.084462,54.146525 C398.374638,53.9099375 395.771887,51.7804 395.535287,50.3607" id="path94" stroke="#000000" stroke-width="1.59402505" stroke-linecap="round" stroke-linejoin="round" transform="translate(397.309875, 54.146525) scale(-1, 1) rotate(-180.000000) translate(-397.309875, -54.146525) "></path>
            <path d="M442.401687,52.896525 L490.50175,52.896525" id="path98" stroke="#000000" stroke-width="1.99255005" transform="translate(466.451719, 53.521525) scale(-1, 1) rotate(-180.000000) translate(-466.451719, -53.521525) "></path>
            <path d="M487.6624,57.93235 C487.899,56.51265 490.50175,54.3831125 491.211575,54.146525 C490.50175,53.9099375 487.899,51.7804 487.6624,50.3607" id="path104" stroke="#000000" stroke-width="1.59402505" stroke-linecap="round" stroke-linejoin="round" transform="translate(489.436987, 54.146525) scale(-1, 1) rotate(-180.000000) translate(-489.436987, -54.146525) "></path>
            <polygon id="path110" stroke="#000000" stroke-width="0.9962625" fill="#FFF880" fill-rule="nonzero" transform="translate(102.240006, 107.296806) scale(-1, 1) rotate(-180.000000) translate(-102.240006, -107.296806) " points="84.5232625 89.5800625 119.95675 89.5800625 119.95675 125.01355 84.5232625 125.01355"></polygon>
            <path d="M226.257275,107.296787 C226.257275,117.0816 218.325338,125.01355 208.540525,125.01355 C198.755713,125.01355 190.823775,117.0816 190.823775,107.296787 C190.823775,97.511975 198.755713,89.5800375 208.540525,89.5800375 C218.325338,89.5800375 226.257275,97.511975 226.257275,107.296787 Z" id="path122" stroke="#000000" stroke-width="0.9962625" fill="#8080FF" fill-rule="nonzero" transform="translate(208.540525, 107.296794) scale(-1, 1) rotate(-180.000000) translate(-208.540525, -107.296794) "></path>
            <path d="M332.5578,107.296787 C332.5578,117.0816 324.625875,125.01355 314.841075,125.01355 C305.05625,125.01355 297.124325,117.0816 297.124325,107.296787 C297.124325,97.511975 305.05625,89.5800375 314.841075,89.5800375 C324.625875,89.5800375 332.5578,97.511975 332.5578,107.296787 L332.5578,107.296787 Z" id="path134" stroke="#000000" stroke-width="0.9962625" fill="#8080FF" fill-rule="nonzero" transform="translate(314.841063, 107.296794) scale(-1, 1) rotate(-180.000000) translate(-314.841063, -107.296794) "></path>
            <path d="M438.85835,107.296787 C438.85835,117.0816 430.926413,125.01355 421.1416,125.01355 C411.356787,125.01355 403.424863,117.0816 403.424863,107.296787 C403.424863,97.511975 411.356787,89.5800375 421.1416,89.5800375 C430.926413,89.5800375 438.85835,97.511975 438.85835,107.296787 Z" id="path146" stroke="#000000" stroke-width="0.9962625" fill="#8080FF" fill-rule="nonzero" transform="translate(421.141606, 107.296794) scale(-1, 1) rotate(-180.000000) translate(-421.141606, -107.296794) "></path>
            <path d="M123.500075,106.0468 L185.773575,106.0468" id="path156" stroke="#000000" stroke-width="1.99255005" transform="translate(154.636825, 106.671800) scale(-1, 1) rotate(-180.000000) translate(-154.636825, -106.671800) "></path>
            <path d="M182.934225,111.082625 C183.170825,109.662925 185.773575,107.533387 186.4834,107.2968 C185.773575,107.060212 183.170825,104.930675 182.934225,103.510975" id="path162" stroke="#000000" stroke-width="1.59402505" stroke-linecap="round" stroke-linejoin="round" transform="translate(184.708812, 107.296800) scale(-1, 1) rotate(-180.000000) translate(-184.708812, -107.296800) "></path>
            <path d="M229.800625,106.0468 L292.0741,106.0468" id="path166" stroke="#000000" stroke-width="1.99255005" transform="translate(260.937363, 106.671800) scale(-1, 1) rotate(-180.000000) translate(-260.937363, -106.671800) "></path>
            <path d="M289.23475,111.082625 C289.47135,109.662925 292.0741,107.533387 292.783925,107.2968 C292.0741,107.060212 289.47135,104.930675 289.23475,103.510975" id="path172" stroke="#000000" stroke-width="1.59402505" stroke-linecap="round" stroke-linejoin="round" transform="translate(291.009337, 107.296800) scale(-1, 1) rotate(-180.000000) translate(-291.009337, -107.296800) "></path>
            <path d="M336.101137,106.0468 L398.374638,106.0468" id="path176" stroke="#000000" stroke-width="1.99255005" transform="translate(367.237887, 106.671800) scale(-1, 1) rotate(-180.000000) translate(-367.237887, -106.671800) "></path>
            <path d="M395.535287,111.082625 C395.771887,109.662925 398.374638,107.533387 399.084462,107.2968 C398.374638,107.060212 395.771887,104.930675 395.535287,103.510975" id="path182" stroke="#000000" stroke-width="1.59402505" stroke-linecap="round" stroke-linejoin="round" transform="translate(397.309875, 107.296800) scale(-1, 1) rotate(-180.000000) translate(-397.309875, -107.296800) "></path>
            <path d="M442.401687,106.0468 L490.50175,106.0468" id="path186" stroke="#000000" stroke-width="1.99255005" transform="translate(466.451719, 106.671800) scale(-1, 1) rotate(-180.000000) translate(-466.451719, -106.671800) "></path>
            <path d="M487.6624,111.082625 C487.899,109.662925 490.50175,107.533387 491.211575,107.2968 C490.50175,107.060212 487.899,104.930675 487.6624,103.510975" id="path192" stroke="#000000" stroke-width="1.59402505" stroke-linecap="round" stroke-linejoin="round" transform="translate(489.436987, 107.296800) scale(-1, 1) rotate(-180.000000) translate(-489.436987, -107.296800) "></path>
            <polygon id="path198" stroke="#000000" stroke-width="0.9962625" fill="#FFF880" fill-rule="nonzero" transform="translate(102.240006, 160.447069) scale(-1, 1) rotate(-180.000000) translate(-102.240006, -160.447069) " points="84.5232625 142.730325 119.95675 142.730325 119.95675 178.163812 84.5232625 178.163812"></polygon>
            <path d="M226.257275,160.447087 C226.257275,170.231875 218.325338,178.163812 208.540525,178.163812 C198.755713,178.163812 190.823775,170.231875 190.823775,160.447087 C190.823775,150.662275 198.755713,142.730337 208.540525,142.730337 C218.325338,142.730337 226.257275,150.662275 226.257275,160.447087 Z" id="path210" stroke="#000000" stroke-width="0.9962625" fill="#8080FF" fill-rule="nonzero" transform="translate(208.540525, 160.447075) scale(-1, 1) rotate(-180.000000) translate(-208.540525, -160.447075) "></path>
            <path d="M332.5578,160.447087 C332.5578,170.231875 324.625875,178.163812 314.841075,178.163812 C305.05625,178.163812 297.124325,170.231875 297.124325,160.447087 C297.124325,150.662275 305.05625,142.730337 314.841075,142.730337 C324.625875,142.730337 332.5578,150.662275 332.5578,160.447087 L332.5578,160.447087 Z" id="path222" stroke="#000000" stroke-width="0.9962625" fill="#8080FF" fill-rule="nonzero" transform="translate(314.841063, 160.447075) scale(-1, 1) rotate(-180.000000) translate(-314.841063, -160.447075) "></path>
            <path d="M438.85835,160.447087 C438.85835,170.231875 430.926413,178.163812 421.1416,178.163812 C411.356787,178.163812 403.424863,170.231875 403.424863,160.447087 C403.424863,150.662275 411.356787,142.730337 421.1416,142.730337 C430.926413,142.730337 438.85835,150.662275 438.85835,160.447087 Z" id="path234" stroke="#000000" stroke-width="0.9962625" fill="#8080FF" fill-rule="nonzero" transform="translate(421.141606, 160.447075) scale(-1, 1) rotate(-180.000000) translate(-421.141606, -160.447075) "></path>
            <path d="M123.500075,159.197062 L185.773575,159.197062" id="path244" stroke="#000000" stroke-width="1.99255005" transform="translate(154.636825, 159.822062) scale(-1, 1) rotate(-180.000000) translate(-154.636825, -159.822062) "></path>
            <path d="M182.934225,164.232887 C183.170825,162.813187 185.773575,160.68365 186.4834,160.447062 C185.773575,160.210475 183.170825,158.080937 182.934225,156.661237" id="path250" stroke="#000000" stroke-width="1.59402505" stroke-linecap="round" stroke-linejoin="round" transform="translate(184.708812, 160.447062) scale(-1, 1) rotate(-180.000000) translate(-184.708812, -160.447062) "></path>
            <path d="M229.800625,159.197062 L292.0741,159.197062" id="path254" stroke="#000000" stroke-width="1.99255005" transform="translate(260.937363, 159.822062) scale(-1, 1) rotate(-180.000000) translate(-260.937363, -159.822062) "></path>
            <path d="M289.23475,164.232887 C289.47135,162.813187 292.0741,160.68365 292.783925,160.447062 C292.0741,160.210475 289.47135,158.080937 289.23475,156.661237" id="path260" stroke="#000000" stroke-width="1.59402505" stroke-linecap="round" stroke-linejoin="round" transform="translate(291.009337, 160.447062) scale(-1, 1) rotate(-180.000000) translate(-291.009337, -160.447062) "></path>
            <path d="M336.101137,159.197062 L398.374638,159.197062" id="path264" stroke="#000000" stroke-width="1.99255005" transform="translate(367.237887, 159.822062) scale(-1, 1) rotate(-180.000000) translate(-367.237887, -159.822062) "></path>
            <path d="M395.535287,164.232887 C395.771887,162.813187 398.374638,160.68365 399.084462,160.447062 C398.374638,160.210475 395.771887,158.080937 395.535287,156.661237" id="path270" stroke="#000000" stroke-width="1.59402505" stroke-linecap="round" stroke-linejoin="round" transform="translate(397.309875, 160.447062) scale(-1, 1) rotate(-180.000000) translate(-397.309875, -160.447062) "></path>
            <path d="M442.401687,159.197062 L490.50175,159.197062" id="path274" stroke="#000000" stroke-width="1.99255005" transform="translate(466.451719, 159.822062) scale(-1, 1) rotate(-180.000000) translate(-466.451719, -159.822062) "></path>
            <path d="M487.6624,164.232887 C487.899,162.813187 490.50175,160.68365 491.211575,160.447062 C490.50175,160.210475 487.899,158.080937 487.6624,156.661237" id="path280" stroke="#000000" stroke-width="1.59402505" stroke-linecap="round" stroke-linejoin="round" transform="translate(489.436987, 160.447062) scale(-1, 1) rotate(-180.000000) translate(-489.436987, -160.447062) "></path>
            <polygon id="path286" stroke="#000000" stroke-width="0.9962625" fill="#FFF880" fill-rule="nonzero" transform="translate(102.240006, 213.597344) scale(-1, 1) rotate(-180.000000) translate(-102.240006, -213.597344) " points="84.5232625 195.8806 119.95675 195.8806 119.95675 231.314087 84.5232625 231.314087"></polygon>
            <path d="M226.257275,213.597337 C226.257275,223.38215 218.325338,231.314087 208.540525,231.314087 C198.755713,231.314087 190.823775,223.38215 190.823775,213.597337 C190.823775,203.812525 198.755713,195.880612 208.540525,195.880612 C218.325338,195.880612 226.257275,203.812525 226.257275,213.597337 Z" id="path298" stroke="#000000" stroke-width="0.9962625" fill="#8080FF" fill-rule="nonzero" transform="translate(208.540525, 213.597350) scale(-1, 1) rotate(-180.000000) translate(-208.540525, -213.597350) "></path>
            <path d="M332.5578,213.597337 C332.5578,223.38215 324.625875,231.314087 314.841075,231.314087 C305.05625,231.314087 297.124325,223.38215 297.124325,213.597337 C297.124325,203.812525 305.05625,195.880612 314.841075,195.880612 C324.625875,195.880612 332.5578,203.812525 332.5578,213.597337 L332.5578,213.597337 Z" id="path310" stroke="#000000" stroke-width="0.9962625" fill="#8080FF" fill-rule="nonzero" transform="translate(314.841063, 213.597350) scale(-1, 1) rotate(-180.000000) translate(-314.841063, -213.597350) "></path>
            <path d="M438.85835,213.597337 C438.85835,223.38215 430.926413,231.314087 421.1416,231.314087 C411.356787,231.314087 403.424863,223.38215 403.424863,213.597337 C403.424863,203.812525 411.356787,195.880612 421.1416,195.880612 C430.926413,195.880612 438.85835,203.812525 438.85835,213.597337 Z" id="path322" stroke="#000000" stroke-width="0.9962625" fill="#8080FF" fill-rule="nonzero" transform="translate(421.141606, 213.597350) scale(-1, 1) rotate(-180.000000) translate(-421.141606, -213.597350) "></path>
            <path d="M123.500075,212.347363 L185.773575,212.347363" id="path332" stroke="#000000" stroke-width="1.99255005" transform="translate(154.636825, 212.972363) scale(-1, 1) rotate(-180.000000) translate(-154.636825, -212.972363) "></path>
            <path d="M182.934225,217.383187 C183.170825,215.963487 185.773575,213.83395 186.4834,213.597362 C185.773575,213.360775 183.170825,211.231237 182.934225,209.811537" id="path338" stroke="#000000" stroke-width="1.59402505" stroke-linecap="round" stroke-linejoin="round" transform="translate(184.708812, 213.597362) scale(-1, 1) rotate(-180.000000) translate(-184.708812, -213.597362) "></path>
            <path d="M229.800625,212.347362 L292.0741,212.347362" id="path342" stroke="#000000" stroke-width="1.99255005" transform="translate(260.937363, 212.972362) scale(-1, 1) rotate(-180.000000) translate(-260.937363, -212.972362) "></path>
            <path d="M289.23475,217.383187 C289.47135,215.963487 292.0741,213.83395 292.783925,213.597362 C292.0741,213.360775 289.47135,211.231237 289.23475,209.811537" id="path348" stroke="#000000" stroke-width="1.59402505" stroke-linecap="round" stroke-linejoin="round" transform="translate(291.009337, 213.597362) scale(-1, 1) rotate(-180.000000) translate(-291.009337, -213.597362) "></path>
            <path d="M336.101137,212.347362 L398.374638,212.347362" id="path352" stroke="#000000" stroke-width="1.99255005" transform="translate(367.237887, 212.972362) scale(-1, 1) rotate(-180.000000) translate(-367.237887, -212.972362) "></path>
            <path d="M395.535287,217.383187 C395.771887,215.963487 398.374638,213.83395 399.084462,213.597362 C398.374638,213.360775 395.771887,211.231237 395.535287,209.811537" id="path358" stroke="#000000" stroke-width="1.59402505" stroke-linecap="round" stroke-linejoin="round" transform="translate(397.309875, 213.597362) scale(-1, 1) rotate(-180.000000) translate(-397.309875, -213.597362) "></path>
            <path d="M442.401687,212.347362 L490.50175,212.347362" id="path362" stroke="#000000" stroke-width="1.99255005" transform="translate(466.451719, 212.972362) scale(-1, 1) rotate(-180.000000) translate(-466.451719, -212.972362) "></path>
            <path d="M487.6624,217.383187 C487.899,215.963487 490.50175,213.83395 491.211575,213.597362 C490.50175,213.360775 487.899,211.231237 487.6624,209.811537" id="path368" stroke="#000000" stroke-width="1.59402505" stroke-linecap="round" stroke-linejoin="round" transform="translate(489.436987, 213.597362) scale(-1, 1) rotate(-180.000000) translate(-489.436987, -213.597362) "></path>
            <polygon id="path374" stroke="#000000" stroke-width="0.9962625" fill="#FFF880" fill-rule="nonzero" transform="translate(102.240006, 266.747631) scale(-1, 1) rotate(-180.000000) translate(-102.240006, -266.747631) " points="84.5232625 249.030887 119.95675 249.030887 119.95675 284.464375 84.5232625 284.464375"></polygon>
            <path d="M226.257275,266.747625 C226.257275,276.532438 218.325338,284.464375 208.540525,284.464375 C198.755713,284.464375 190.823775,276.532438 190.823775,266.747625 C190.823775,256.9628 198.755713,249.030875 208.540525,249.030875 C218.325338,249.030875 226.257275,256.9628 226.257275,266.747625 L226.257275,266.747625 Z" id="path386" stroke="#000000" stroke-width="0.9962625" fill="#8080FF" fill-rule="nonzero" transform="translate(208.540525, 266.747625) scale(-1, 1) rotate(-180.000000) translate(-208.540525, -266.747625) "></path>
            <path d="M332.5578,266.747625 C332.5578,276.532438 324.625875,284.464375 314.841075,284.464375 C305.05625,284.464375 297.124325,276.532438 297.124325,266.747625 C297.124325,256.9628 305.05625,249.030875 314.841075,249.030875 C324.625875,249.030875 332.5578,256.9628 332.5578,266.747625 L332.5578,266.747625 Z" id="path398" stroke="#000000" stroke-width="0.9962625" fill="#8080FF" fill-rule="nonzero" transform="translate(314.841063, 266.747625) scale(-1, 1) rotate(-180.000000) translate(-314.841063, -266.747625) "></path>
            <path d="M438.85835,266.747625 C438.85835,276.532437 430.926413,284.464375 421.1416,284.464375 C411.356787,284.464375 403.424863,276.532437 403.424863,266.747625 C403.424863,256.9628 411.356787,249.030875 421.1416,249.030875 C430.926413,249.030875 438.85835,256.9628 438.85835,266.747625 L438.85835,266.747625 Z" id="path410" stroke="#000000" stroke-width="0.9962625" fill="#8080FF" fill-rule="nonzero" transform="translate(421.141606, 266.747625) scale(-1, 1) rotate(-180.000000) translate(-421.141606, -266.747625) "></path>
            <path d="M123.500075,265.497625 L185.773575,265.497625" id="path420" stroke="#000000" stroke-width="1.99255005" transform="translate(154.636825, 266.122625) scale(-1, 1) rotate(-180.000000) translate(-154.636825, -266.122625) "></path>
            <path d="M182.934225,270.53345 C183.170825,269.11375 185.773575,266.984212 186.4834,266.747625 C185.773575,266.511037 183.170825,264.3815 182.934225,262.9618" id="path426" stroke="#000000" stroke-width="1.59402505" stroke-linecap="round" stroke-linejoin="round" transform="translate(184.708812, 266.747625) scale(-1, 1) rotate(-180.000000) translate(-184.708812, -266.747625) "></path>
            <path d="M229.800625,265.497625 L292.0741,265.497625" id="path430" stroke="#000000" stroke-width="1.99255005" transform="translate(260.937363, 266.122625) scale(-1, 1) rotate(-180.000000) translate(-260.937363, -266.122625) "></path>
            <path d="M289.23475,270.53345 C289.47135,269.11375 292.0741,266.984212 292.783925,266.747625 C292.0741,266.511037 289.47135,264.3815 289.23475,262.9618" id="path436" stroke="#000000" stroke-width="1.59402505" stroke-linecap="round" stroke-linejoin="round" transform="translate(291.009337, 266.747625) scale(-1, 1) rotate(-180.000000) translate(-291.009337, -266.747625) "></path>
            <path d="M336.101137,265.497625 L398.374638,265.497625" id="path440" stroke="#000000" stroke-width="1.99255005" transform="translate(367.237887, 266.122625) scale(-1, 1) rotate(-180.000000) translate(-367.237887, -266.122625) "></path>
            <path d="M395.535287,270.53345 C395.771887,269.11375 398.374638,266.984212 399.084462,266.747625 C398.374638,266.511037 395.771887,264.3815 395.535287,262.9618" id="path446" stroke="#000000" stroke-width="1.59402505" stroke-linecap="round" stroke-linejoin="round" transform="translate(397.309875, 266.747625) scale(-1, 1) rotate(-180.000000) translate(-397.309875, -266.747625) "></path>
            <path d="M442.401687,265.497625 L490.50175,265.497625" id="path450" stroke="#000000" stroke-width="1.99255005" transform="translate(466.451719, 266.122625) scale(-1, 1) rotate(-180.000000) translate(-466.451719, -266.122625) "></path>
            <path d="M487.6624,270.53345 C487.899,269.11375 490.50175,266.984212 491.211575,266.747625 C490.50175,266.511037 487.899,264.3815 487.6624,262.9618" id="path456" stroke="#000000" stroke-width="1.59402505" stroke-linecap="round" stroke-linejoin="round" transform="translate(489.436987, 266.747625) scale(-1, 1) rotate(-180.000000) translate(-489.436987, -266.747625) "></path>
            <polygon id="path462" stroke="#000000" stroke-width="0.9962625" fill="#FFF880" fill-rule="nonzero" transform="translate(102.240006, 319.897906) scale(-1, 1) rotate(-180.000000) translate(-102.240006, -319.897906) " points="84.5232625 302.181162 119.95675 302.181162 119.95675 337.61465 84.5232625 337.61465"></polygon>
            <path d="M226.257275,319.8979 C226.257275,329.682712 218.325338,337.61465 208.540525,337.61465 C198.755713,337.61465 190.823775,329.682712 190.823775,319.8979 C190.823775,310.113087 198.755713,302.18115 208.540525,302.18115 C218.325338,302.18115 226.257275,310.113087 226.257275,319.8979 L226.257275,319.8979 Z" id="path474" stroke="#000000" stroke-width="0.9962625" fill="#8080FF" fill-rule="nonzero" transform="translate(208.540525, 319.897900) scale(-1, 1) rotate(-180.000000) translate(-208.540525, -319.897900) "></path>
            <path d="M332.5578,319.8979 C332.5578,329.682712 324.625875,337.61465 314.841075,337.61465 C305.05625,337.61465 297.124325,329.682712 297.124325,319.8979 C297.124325,310.113087 305.05625,302.18115 314.841075,302.18115 C324.625875,302.18115 332.5578,310.113087 332.5578,319.8979 L332.5578,319.8979 Z" id="path486" stroke="#000000" stroke-width="0.9962625" fill="#8080FF" fill-rule="nonzero" transform="translate(314.841063, 319.897900) scale(-1, 1) rotate(-180.000000) translate(-314.841063, -319.897900) "></path>
            <path d="M438.85835,319.8979 C438.85835,329.682712 430.926413,337.61465 421.1416,337.61465 C411.356787,337.61465 403.424863,329.682712 403.424863,319.8979 C403.424863,310.113087 411.356787,302.18115 421.1416,302.18115 C430.926413,302.18115 438.85835,310.113087 438.85835,319.8979 L438.85835,319.8979 Z" id="path498" stroke="#000000" stroke-width="0.9962625" fill="#8080FF" fill-rule="nonzero" transform="translate(421.141606, 319.897900) scale(-1, 1) rotate(-180.000000) translate(-421.141606, -319.897900) "></path>
            <path d="M123.500075,318.6479 L185.773575,318.6479" id="path508" stroke="#000000" stroke-width="1.99255005" transform="translate(154.636825, 319.272900) scale(-1, 1) rotate(-180.000000) translate(-154.636825, -319.272900) "></path>
            <path d="M182.934225,323.683725 C183.170825,322.264025 185.773575,320.134487 186.4834,319.8979 C185.773575,319.661312 183.170825,317.531775 182.934225,316.112075" id="path514" stroke="#000000" stroke-width="1.59402505" stroke-linecap="round" stroke-linejoin="round" transform="translate(184.708813, 319.897900) scale(-1, 1) rotate(-180.000000) translate(-184.708813, -319.897900) "></path>
            <path d="M229.800625,318.6479 L292.0741,318.6479" id="path518" stroke="#000000" stroke-width="1.99255005" transform="translate(260.937363, 319.272900) scale(-1, 1) rotate(-180.000000) translate(-260.937363, -319.272900) "></path>
            <path d="M289.23475,323.683725 C289.47135,322.264025 292.0741,320.134487 292.783925,319.8979 C292.0741,319.661312 289.47135,317.531775 289.23475,316.112075" id="path524" stroke="#000000" stroke-width="1.59402505" stroke-linecap="round" stroke-linejoin="round" transform="translate(291.009337, 319.897900) scale(-1, 1) rotate(-180.000000) translate(-291.009337, -319.897900) "></path>
            <path d="M336.101137,318.6479 L398.374638,318.6479" id="path528" stroke="#000000" stroke-width="1.99255005" transform="translate(367.237887, 319.272900) scale(-1, 1) rotate(-180.000000) translate(-367.237887, -319.272900) "></path>
            <path d="M395.535287,323.683725 C395.771887,322.264025 398.374638,320.134487 399.084462,319.8979 C398.374638,319.661312 395.771887,317.531775 395.535287,316.112075" id="path534" stroke="#000000" stroke-width="1.59402505" stroke-linecap="round" stroke-linejoin="round" transform="translate(397.309875, 319.897900) scale(-1, 1) rotate(-180.000000) translate(-397.309875, -319.897900) "></path>
            <path d="M442.401687,318.6479 L490.50175,318.6479" id="path538" stroke="#000000" stroke-width="1.99255005" transform="translate(466.451719, 319.272900) scale(-1, 1) rotate(-180.000000) translate(-466.451719, -319.272900) "></path>
            <path d="M487.6624,323.683725 C487.899,322.264025 490.50175,320.134487 491.211575,319.8979 C490.50175,319.661312 487.899,317.531775 487.6624,316.112075" id="path544" stroke="#000000" stroke-width="1.59402505" stroke-linecap="round" stroke-linejoin="round" transform="translate(489.436987, 319.897900) scale(-1, 1) rotate(-180.000000) translate(-489.436987, -319.897900) "></path>
            <path d="M208.540525,31.690925 L208.540525,0.99625" id="path564" stroke="#000000" stroke-width="1.49441257" transform="translate(209.165525, 16.343587) scale(-1, 1) rotate(-180.000000) translate(-209.165525, -16.343587) "></path>
            <path d="M207.046125,33.98235 C207.245387,32.7868 209.437175,30.9935 210.034925,30.794275 C209.437175,30.59505 207.245387,28.80175 207.046125,27.6062" id="path570" stroke="#000000" stroke-width="1.19549997" stroke-linecap="round" stroke-linejoin="round" transform="translate(208.540525, 30.794275) scale(-1, 1) rotate(-270.000000) translate(-208.540525, -30.794275) "></path>
            <path d="M314.841075,31.690925 L314.841075,0.99625" id="path574" stroke="#000000" stroke-width="1.49441257" transform="translate(315.466075, 16.343587) scale(-1, 1) rotate(-180.000000) translate(-315.466075, -16.343587) "></path>
            <path d="M313.346675,33.98235 C313.545937,32.7868 315.737725,30.9935 316.335475,30.794275 C315.737725,30.59505 313.545937,28.80175 313.346675,27.6062" id="path580" stroke="#000000" stroke-width="1.19549997" stroke-linecap="round" stroke-linejoin="round" transform="translate(314.841075, 30.794275) scale(-1, 1) rotate(-270.000000) translate(-314.841075, -30.794275) "></path>
            <path d="M421.1416,31.690925 L421.1416,0.99625" id="path584" stroke="#000000" stroke-width="1.49441257" transform="translate(421.766600, 16.343587) scale(-1, 1) rotate(-180.000000) translate(-421.766600, -16.343587) "></path>
            <path d="M419.6472,33.98235 C419.846463,32.7868 422.03825,30.9935 422.636,30.794275 C422.03825,30.59505 419.846463,28.80175 419.6472,27.6062" id="path590" stroke="#000000" stroke-width="1.19549997" stroke-linecap="round" stroke-linejoin="round" transform="translate(421.141600, 30.794275) scale(-1, 1) rotate(-270.000000) translate(-421.141600, -30.794275) "></path>
            <path d="M208.540525,84.8412 L208.540525,75.4065875" id="path594" stroke="#000000" stroke-width="1.49441257" transform="translate(209.165525, 80.123894) scale(-1, 1) rotate(-180.000000) translate(-209.165525, -80.123894) "></path>
            <path d="M207.046125,87.132625 C207.245387,85.937075 209.437175,84.143775 210.034925,83.94455 C209.437175,83.745325 207.245387,81.952025 207.046125,80.756475" id="path600" stroke="#000000" stroke-width="1.19549997" stroke-linecap="round" stroke-linejoin="round" transform="translate(208.540525, 83.944550) scale(-1, 1) rotate(-270.000000) translate(-208.540525, -83.944550) "></path>
            <path d="M314.841075,84.8412 L314.841075,75.4065875" id="path604" stroke="#000000" stroke-width="1.49441257" transform="translate(315.466075, 80.123894) scale(-1, 1) rotate(-180.000000) translate(-315.466075, -80.123894) "></path>
            <path d="M313.346675,87.132625 C313.545937,85.937075 315.737725,84.143775 316.335475,83.94455 C315.737725,83.745325 313.545937,81.952025 313.346675,80.756475" id="path610" stroke="#000000" stroke-width="1.19549997" stroke-linecap="round" stroke-linejoin="round" transform="translate(314.841075, 83.944550) scale(-1, 1) rotate(-270.000000) translate(-314.841075, -83.944550) "></path>
            <path d="M421.1416,84.8412 L421.1416,75.4065875" id="path614" stroke="#000000" stroke-width="1.49441257" transform="translate(421.766600, 80.123894) scale(-1, 1) rotate(-180.000000) translate(-421.766600, -80.123894) "></path>
            <path d="M419.6472,87.132625 C419.846463,85.937075 422.03825,84.143775 422.636,83.94455 C422.03825,83.745325 419.846463,81.952025 419.6472,80.756475" id="path620" stroke="#000000" stroke-width="1.19549997" stroke-linecap="round" stroke-linejoin="round" transform="translate(421.141600, 83.944550) scale(-1, 1) rotate(-270.000000) translate(-421.141600, -83.944550) "></path>
            <path d="M208.540525,137.991475 L208.540525,128.556887" id="path624" stroke="#000000" stroke-width="1.49441257" transform="translate(209.165525, 133.274181) scale(-1, 1) rotate(-180.000000) translate(-209.165525, -133.274181) "></path>
            <path d="M207.046125,140.2829 C207.245387,139.08735 209.437175,137.29405 210.034925,137.094825 C209.437175,136.8956 207.245387,135.1023 207.046125,133.90675" id="path630" stroke="#000000" stroke-width="1.19549997" stroke-linecap="round" stroke-linejoin="round" transform="translate(208.540525, 137.094825) scale(-1, 1) rotate(-270.000000) translate(-208.540525, -137.094825) "></path>
            <path d="M314.841075,137.991475 L314.841075,128.556887" id="path634" stroke="#000000" stroke-width="1.49441257" transform="translate(315.466075, 133.274181) scale(-1, 1) rotate(-180.000000) translate(-315.466075, -133.274181) "></path>
            <path d="M313.346675,140.2829 C313.545937,139.08735 315.737725,137.29405 316.335475,137.094825 C315.737725,136.8956 313.545937,135.1023 313.346675,133.90675" id="path640" stroke="#000000" stroke-width="1.19549997" stroke-linecap="round" stroke-linejoin="round" transform="translate(314.841075, 137.094825) scale(-1, 1) rotate(-270.000000) translate(-314.841075, -137.094825) "></path>
            <path d="M421.1416,137.991475 L421.1416,128.556887" id="path644" stroke="#000000" stroke-width="1.49441257" transform="translate(421.766600, 133.274181) scale(-1, 1) rotate(-180.000000) translate(-421.766600, -133.274181) "></path>
            <path d="M419.6472,140.2829 C419.846463,139.08735 422.03825,137.29405 422.636,137.094825 C422.03825,136.8956 419.846463,135.1023 419.6472,133.90675" id="path650" stroke="#000000" stroke-width="1.19549997" stroke-linecap="round" stroke-linejoin="round" transform="translate(421.141600, 137.094825) scale(-1, 1) rotate(-270.000000) translate(-421.141600, -137.094825) "></path>
            <path d="M208.540525,191.14175 L208.540525,181.707162" id="path654" stroke="#000000" stroke-width="1.49441257" transform="translate(209.165525, 186.424456) scale(-1, 1) rotate(-180.000000) translate(-209.165525, -186.424456) "></path>
            <path d="M207.046125,193.433175 C207.245387,192.237625 209.437175,190.444325 210.034925,190.2451 C209.437175,190.045875 207.245387,188.252575 207.046125,187.057025" id="path660" stroke="#000000" stroke-width="1.19549997" stroke-linecap="round" stroke-linejoin="round" transform="translate(208.540525, 190.245100) scale(-1, 1) rotate(-270.000000) translate(-208.540525, -190.245100) "></path>
            <path d="M314.841075,191.14175 L314.841075,181.707162" id="path664" stroke="#000000" stroke-width="1.49441257" transform="translate(315.466075, 186.424456) scale(-1, 1) rotate(-180.000000) translate(-315.466075, -186.424456) "></path>
            <path d="M313.346675,193.433175 C313.545937,192.237625 315.737725,190.444325 316.335475,190.2451 C315.737725,190.045875 313.545937,188.252575 313.346675,187.057025" id="path670" stroke="#000000" stroke-width="1.19549997" stroke-linecap="round" stroke-linejoin="round" transform="translate(314.841075, 190.245100) scale(-1, 1) rotate(-270.000000) translate(-314.841075, -190.245100) "></path>
            <path d="M421.1416,191.14175 L421.1416,181.707162" id="path674" stroke="#000000" stroke-width="1.49441257" transform="translate(421.766600, 186.424456) scale(-1, 1) rotate(-180.000000) translate(-421.766600, -186.424456) "></path>
            <path d="M419.6472,193.433175 C419.846463,192.237625 422.03825,190.444325 422.636,190.2451 C422.03825,190.045875 419.846463,188.252575 419.6472,187.057025" id="path680" stroke="#000000" stroke-width="1.19549997" stroke-linecap="round" stroke-linejoin="round" transform="translate(421.141600, 190.245100) scale(-1, 1) rotate(-270.000000) translate(-421.141600, -190.245100) "></path>
            <path d="M208.540525,244.292037 L208.540525,234.857425" id="path684" stroke="#000000" stroke-width="1.49441257" transform="translate(209.165525, 239.574731) scale(-1, 1) rotate(-180.000000) translate(-209.165525, -239.574731) "></path>
            <path d="M207.046125,246.583462 C207.245387,245.387912 209.437175,243.594612 210.034925,243.395387 C209.437175,243.196162 207.245387,241.402862 207.046125,240.207312" id="path690" stroke="#000000" stroke-width="1.19549997" stroke-linecap="round" stroke-linejoin="round" transform="translate(208.540525, 243.395387) scale(-1, 1) rotate(-270.000000) translate(-208.540525, -243.395387) "></path>
            <path d="M314.841075,244.292037 L314.841075,234.857425" id="path694" stroke="#000000" stroke-width="1.49441257" transform="translate(315.466075, 239.574731) scale(-1, 1) rotate(-180.000000) translate(-315.466075, -239.574731) "></path>
            <path d="M313.346675,246.583462 C313.545937,245.387912 315.737725,243.594612 316.335475,243.395387 C315.737725,243.196162 313.545937,241.402862 313.346675,240.207312" id="path700" stroke="#000000" stroke-width="1.19549997" stroke-linecap="round" stroke-linejoin="round" transform="translate(314.841075, 243.395387) scale(-1, 1) rotate(-270.000000) translate(-314.841075, -243.395387) "></path>
            <path d="M421.1416,244.292037 L421.1416,234.857425" id="path704" stroke="#000000" stroke-width="1.49441257" transform="translate(421.766600, 239.574731) scale(-1, 1) rotate(-180.000000) translate(-421.766600, -239.574731) "></path>
            <path d="M419.6472,246.583462 C419.846463,245.387912 422.03825,243.594612 422.636,243.395387 C422.03825,243.196162 419.846463,241.402862 419.6472,240.207312" id="path710" stroke="#000000" stroke-width="1.19549997" stroke-linecap="round" stroke-linejoin="round" transform="translate(421.141600, 243.395387) scale(-1, 1) rotate(-270.000000) translate(-421.141600, -243.395387) "></path>
            <path d="M208.540525,297.442312 L208.540525,288.0077" id="path714" stroke="#000000" stroke-width="1.49441257" transform="translate(209.165525, 292.725006) scale(-1, 1) rotate(-180.000000) translate(-209.165525, -292.725006) "></path>
            <path d="M207.046125,299.733737 C207.245387,298.538187 209.437175,296.744887 210.034925,296.545662 C209.437175,296.346437 207.245387,294.553137 207.046125,293.357587" id="path720" stroke="#000000" stroke-width="1.19549997" stroke-linecap="round" stroke-linejoin="round" transform="translate(208.540525, 296.545662) scale(-1, 1) rotate(-270.000000) translate(-208.540525, -296.545662) "></path>
            <path d="M314.841075,297.442312 L314.841075,288.0077" id="path724" stroke="#000000" stroke-width="1.49441257" transform="translate(315.466075, 292.725006) scale(-1, 1) rotate(-180.000000) translate(-315.466075, -292.725006) "></path>
            <path d="M313.346675,299.733737 C313.545937,298.538187 315.737725,296.744887 316.335475,296.545662 C315.737725,296.346437 313.545937,294.553137 313.346675,293.357587" id="path730" stroke="#000000" stroke-width="1.19549997" stroke-linecap="round" stroke-linejoin="round" transform="translate(314.841075, 296.545662) scale(-1, 1) rotate(-270.000000) translate(-314.841075, -296.545662) "></path>
            <path d="M421.1416,297.442312 L421.1416,288.0077" id="path734" stroke="#000000" stroke-width="1.49441257" transform="translate(421.766600, 292.725006) scale(-1, 1) rotate(-180.000000) translate(-421.766600, -292.725006) "></path>
            <path d="M419.6472,299.733737 C419.846463,298.538187 422.03825,296.744887 422.636,296.545662 C422.03825,296.346437 419.846463,294.553137 419.6472,293.357587" id="path740" stroke="#000000" stroke-width="1.19549997" stroke-linecap="round" stroke-linejoin="round" transform="translate(421.141600, 296.545662) scale(-1, 1) rotate(-270.000000) translate(-421.141600, -296.545662) "></path>
            <path d="M208.540525,371.852662 L208.540525,341.158" id="path744" stroke="#000000" stroke-width="1.49441257" transform="translate(209.165525, 356.505331) scale(-1, 1) rotate(-180.000000) translate(-209.165525, -356.505331) "></path>
            <path d="M207.046125,374.144088 C207.245387,372.948538 209.437175,371.155237 210.034925,370.956013 C209.437175,370.756788 207.245387,368.963488 207.046125,367.767938" id="path750" stroke="#000000" stroke-width="1.19549997" stroke-linecap="round" stroke-linejoin="round" transform="translate(208.540525, 370.956013) scale(-1, 1) rotate(-270.000000) translate(-208.540525, -370.956013) "></path>
            <path d="M314.841075,371.852662 L314.841075,341.158" id="path754" stroke="#000000" stroke-width="1.49441257" transform="translate(315.466075, 356.505331) scale(-1, 1) rotate(-180.000000) translate(-315.466075, -356.505331) "></path>
            <path d="M313.346675,374.144088 C313.545937,372.948538 315.737725,371.155237 316.335475,370.956013 C315.737725,370.756788 313.545937,368.963488 313.346675,367.767938" id="path760" stroke="#000000" stroke-width="1.19549997" stroke-linecap="round" stroke-linejoin="round" transform="translate(314.841075, 370.956013) scale(-1, 1) rotate(-270.000000) translate(-314.841075, -370.956013) "></path>
            <path d="M421.1416,371.852662 L421.1416,341.158" id="path764" stroke="#000000" stroke-width="1.49441257" transform="translate(421.766600, 356.505331) scale(-1, 1) rotate(-180.000000) translate(-421.766600, -356.505331) "></path>
            <path d="M419.6472,374.144088 C419.846463,372.948538 422.03825,371.155237 422.636,370.956013 C422.03825,370.756788 419.846463,368.963488 419.6472,367.767938" id="path770" stroke="#000000" stroke-width="1.19549997" stroke-linecap="round" stroke-linejoin="round" transform="translate(421.141600, 370.956013) scale(-1, 1) rotate(-270.000000) translate(-421.141600, -370.956013) "></path>
            <path d="M66.8065,371.541312 L66.8065,0.99625" id="path774" stroke="#000000" stroke-width="1.99255005" transform="translate(67.431500, 186.268781) scale(-1, 1) rotate(-180.000000) translate(-67.431500, -186.268781) "></path>
            <path d="M65.0319125,374.262375 C65.2685125,372.842675 67.8712625,370.713137 68.5810875,370.47655 C67.8712625,370.239962 65.2685125,368.110425 65.0319125,366.690725" id="path780" stroke="#000000" stroke-width="1.59402505" stroke-linecap="round" stroke-linejoin="round" transform="translate(66.806500, 370.476550) scale(-1, 1) rotate(-270.000000) translate(-66.806500, -370.476550) "></path>
            <text id="tspan792" fill="#000000" transform="translate(52.900000, 183.587500) rotate(-450.000000) translate(-52.900000, -183.587500) " font-family="Helvetica" font-size="14" font-weight="normal">
                <tspan x="37.4" y="189.0875">Time</tspan>
            </text>
            <text id="tspan792-copy" fill="#000000" transform="translate(52.900000, 183.587500) rotate(-450.000000) translate(-52.900000, -183.587500) " font-family="Helvetica" font-size="14" font-weight="normal">
                <tspan x="37.4" y="189.0875">Time</tspan>
            </text>
            <text id="B" font-family="Helvetica-Bold, Helvetica" font-size="28" font-weight="bold" fill="#000000">
                <tspan x="92" y="64">B</tspan>
            </text>
            <text id="o" font-family="Helvetica-Bold, Helvetica" font-size="28" font-weight="bold" fill="#000000">
                <tspan x="94" y="116">o</tspan>
            </text>
            <text id="b" font-family="Helvetica-Bold, Helvetica" font-size="28" font-weight="bold" fill="#000000">
                <tspan x="94" y="171">b</tspan>
            </text>
            <text id="_" font-family="Helvetica-Bold, Helvetica" font-size="30" font-weight="bold" fill="#FF0000">
                <tspan x="95" y="220">_</tspan>
            </text>
            <text id="o" font-family="Helvetica-Bold, Helvetica" font-size="28" font-weight="bold" fill="#000000">
                <tspan x="511" y="64">o</tspan>
            </text>
            <text id="b" font-family="Helvetica-Bold, Helvetica" font-size="28" font-weight="bold" fill="#000000">
                <tspan x="511" y="119">b</tspan>
            </text>
            <text id="i" font-family="Helvetica-Bold, Helvetica" font-size="30" font-weight="bold" fill="#0000FF">
                <tspan x="516" y="225">i</tspan>
            </text>
            <text id="_" font-family="Helvetica-Bold, Helvetica" font-size="28" font-weight="bold" fill="#000000">
                <tspan x="512" y="168">_</tspan>
            </text>
            <text id="t=0" font-family="Helvetica" font-size="24" font-weight="normal" fill="#000000">
                <tspan x="0" y="65">t=0</tspan>
            </text>
            <text id="t=1" font-family="Helvetica" font-size="24" font-weight="normal" fill="#000000">
                <tspan x="0" y="118">t=1</tspan>
            </text>
            <text id="t=2" font-family="Helvetica" font-size="24" font-weight="normal" fill="#000000">
                <tspan x="0" y="171">t=2</tspan>
            </text>
            <text id="t=3" font-family="Helvetica" font-size="24" font-weight="normal" fill="#000000">
                <tspan x="0" y="225">t=3</tspan>
            </text>
            <text id="t=4" font-family="Helvetica" font-size="24" font-weight="normal" fill="#000000">
                <tspan x="0" y="277">t=4</tspan>
            </text>
            <text id="t=5" font-family="Helvetica" font-size="24" font-weight="normal" fill="#000000">
                <tspan x="0" y="325">t=5</tspan>
            </text>
        </g>
    </g>
</svg>