<?xml version="1.0" encoding="UTF-8"?>
<svg width="408px" height="91px" viewBox="0 0 408 91" version="1.1" xmlns="http://www.w3.org/2000/svg" xmlns:xlink="http://www.w3.org/1999/xlink">
    <!-- Generator: Sketch 47 (45396) - http://www.bohemiancoding.com/sketch -->
    <title>Group</title>
    <desc>Created with Sketch.</desc>
    <defs></defs>
    <g id="Page-1" stroke="none" stroke-width="1" fill="none" fill-rule="evenodd">
        <g id="Group">
            <polygon id="path22" stroke="#000000" stroke-width="0.9962625" fill="#FFF880" fill-rule="nonzero" transform="translate(18.215006, 18.214994) scale(-1, 1) rotate(-180.000000) translate(-18.215006, -18.214994) " points="0.4982625 0.49825 35.93175 0.49825 35.93175 35.9317375 0.4982625 35.9317375"></polygon>
            <path d="M142.232275,18.215 C142.232275,27.9998 134.300338,35.9317375 124.515525,35.9317375 C114.730713,35.9317375 106.798775,27.9998 106.798775,18.215 C106.798775,8.4302 114.730713,0.4982625 124.515525,0.4982625 C134.300338,0.4982625 142.232275,8.4302 142.232275,18.215 Z" id="path32" stroke="#000000" stroke-width="0.9962625" fill="#8080FF" fill-rule="nonzero" transform="translate(124.515525, 18.215000) scale(-1, 1) rotate(-180.000000) translate(-124.515525, -18.215000) "></path>
            <path d="M248.5328,18.215 C248.5328,27.9998 240.600875,35.9317375 230.816075,35.9317375 C221.03125,35.9317375 213.099325,27.9998 213.099325,18.215 C213.099325,8.4302 221.03125,0.4982625 230.816075,0.4982625 C240.600875,0.4982625 248.5328,8.4302 248.5328,18.215 L248.5328,18.215 Z" id="path44" stroke="#000000" stroke-width="0.9962625" fill="#8080FF" fill-rule="nonzero" transform="translate(230.816063, 18.215000) scale(-1, 1) rotate(-180.000000) translate(-230.816063, -18.215000) "></path>
            <path d="M354.83335,18.215 C354.83335,27.9998 346.901412,35.9317375 337.1166,35.9317375 C327.331787,35.9317375 319.399862,27.9998 319.399862,18.215 C319.399862,8.4302 327.331787,0.4982625 337.1166,0.4982625 C346.901412,0.4982625 354.83335,8.4302 354.83335,18.215 Z" id="path56" stroke="#000000" stroke-width="0.9962625" fill="#8080FF" fill-rule="nonzero" transform="translate(337.116606, 18.215000) scale(-1, 1) rotate(-180.000000) translate(-337.116606, -18.215000) "></path>
            <path d="M145.775625,44.790125 L147.547388,44.790125 C152.4398,44.790125 156.405763,40.824175 156.405763,35.9317625 L156.405763,27.073375 C156.405763,22.1809625 152.4398,18.215 147.547388,18.215 L101.483663,18.215 C96.59125,18.215 92.6252875,22.1809625 92.6252875,27.073375 L92.6252875,28.8451875 C92.6252875,33.737575 96.59125,37.7035375 101.483663,37.7035375 L101.748575,37.7035375" id="path66" stroke="#000000" stroke-width="1.99255005" transform="translate(124.515525, 31.502563) scale(-1, 1) rotate(-180.000000) translate(-124.515525, -31.502563) "></path>
            <path d="M98.909225,29.0874125 C99.145825,27.6677125 101.748575,25.538175 102.4584,25.3015875 C101.748575,25.065 99.145825,22.9354625 98.909225,21.5157625" id="path72" stroke="#000000" stroke-width="1.59402505" stroke-linecap="round" stroke-linejoin="round" transform="translate(100.683813, 25.301588) scale(-1, 1) rotate(-180.000000) translate(-100.683813, -25.301588) "></path>
            <path d="M252.076137,44.790125 L253.847938,44.790125 C258.740325,44.790125 262.706287,40.824175 262.706287,35.9317625 L262.706287,27.073375 C262.706287,22.1809625 258.740325,18.215 253.847938,18.215 L207.784188,18.215 C202.8918,18.215 198.925825,22.1809625 198.925825,27.073375 L198.925825,28.8451875 C198.925825,33.737575 202.8918,37.7035375 207.784188,37.7035375 L208.0491,37.7035375" id="path76" stroke="#000000" stroke-width="1.99255005" transform="translate(230.816056, 31.502562) scale(-1, 1) rotate(-180.000000) translate(-230.816056, -31.502562) "></path>
            <path d="M205.20975,29.0874125 C205.44635,27.6677125 208.0491,25.538175 208.758925,25.3015875 C208.0491,25.065 205.44635,22.9354625 205.20975,21.5157625" id="path82" stroke="#000000" stroke-width="1.59402505" stroke-linecap="round" stroke-linejoin="round" transform="translate(206.984338, 25.301588) scale(-1, 1) rotate(-180.000000) translate(-206.984338, -25.301588) "></path>
            <path d="M358.376688,44.790125 L360.148475,44.790125 C365.040875,44.790125 369.006838,40.824175 369.006838,35.9317625 L369.006838,27.073375 C369.006838,22.1809625 365.040875,18.215 360.148475,18.215 L314.084738,18.215 C309.192325,18.215 305.226375,22.1809625 305.226375,27.073375 L305.226375,28.8451875 C305.226375,33.737575 309.192325,37.7035375 314.084738,37.7035375 L314.349638,37.7035375" id="path86" stroke="#000000" stroke-width="1.99255005" transform="translate(337.116606, 31.502562) scale(-1, 1) rotate(-180.000000) translate(-337.116606, -31.502562) "></path>
            <path d="M311.510288,29.0874125 C311.746888,27.6677125 314.349638,25.538175 315.059462,25.3015875 C314.349638,25.065 311.746888,22.9354625 311.510288,21.5157625" id="path92" stroke="#000000" stroke-width="1.59402505" stroke-linecap="round" stroke-linejoin="round" transform="translate(313.284875, 25.301587) scale(-1, 1) rotate(-180.000000) translate(-313.284875, -25.301587) "></path>
            <path d="M39.475075,16.965 L101.748575,16.965" id="path96" stroke="#000000" stroke-width="1.99255005" transform="translate(70.611825, 17.590000) scale(-1, 1) rotate(-180.000000) translate(-70.611825, -17.590000) "></path>
            <path d="M98.909225,22.000825 C99.145825,20.581125 101.748575,18.4515875 102.4584,18.215 C101.748575,17.9784125 99.145825,15.848875 98.909225,14.429175" id="path102" stroke="#000000" stroke-width="1.59402505" stroke-linecap="round" stroke-linejoin="round" transform="translate(100.683813, 18.215000) scale(-1, 1) rotate(-180.000000) translate(-100.683813, -18.215000) "></path>
            <path d="M145.775625,16.965 L208.0491,16.965" id="path106" stroke="#000000" stroke-width="1.99255005" transform="translate(176.912362, 17.590000) scale(-1, 1) rotate(-180.000000) translate(-176.912362, -17.590000) "></path>
            <path d="M205.20975,22.000825 C205.44635,20.581125 208.0491,18.4515875 208.758925,18.215 C208.0491,17.9784125 205.44635,15.848875 205.20975,14.429175" id="path112" stroke="#000000" stroke-width="1.59402505" stroke-linecap="round" stroke-linejoin="round" transform="translate(206.984338, 18.215000) scale(-1, 1) rotate(-180.000000) translate(-206.984338, -18.215000) "></path>
            <path d="M252.076137,16.965 L314.349637,16.965" id="path116" stroke="#000000" stroke-width="1.99255005" transform="translate(283.212887, 17.590000) scale(-1, 1) rotate(-180.000000) translate(-283.212887, -17.590000) "></path>
            <path d="M311.510288,22.000825 C311.746888,20.581125 314.349638,18.4515875 315.059462,18.215 C314.349638,17.9784125 311.746888,15.848875 311.510288,14.429175" id="path122" stroke="#000000" stroke-width="1.59402505" stroke-linecap="round" stroke-linejoin="round" transform="translate(313.284875, 18.215000) scale(-1, 1) rotate(-180.000000) translate(-313.284875, -18.215000) "></path>
            <path d="M358.376688,16.965 L406.47675,16.965" id="path126" stroke="#000000" stroke-width="1.99255005" transform="translate(382.426719, 17.590000) scale(-1, 1) rotate(-180.000000) translate(-382.426719, -17.590000) "></path>
            <path d="M403.6374,22.000825 C403.874,20.581125 406.47675,18.4515875 407.186575,18.215 C406.47675,17.9784125 403.874,15.848875 403.6374,14.429175" id="path132" stroke="#000000" stroke-width="1.59402505" stroke-linecap="round" stroke-linejoin="round" transform="translate(405.411988, 18.215000) scale(-1, 1) rotate(-180.000000) translate(-405.411988, -18.215000) "></path>
            <text id="O_0-(layer-0-output)" font-family="Helvetica-BoldOblique, Helvetica" font-size="16" font-style="italic" font-weight="bold" fill="#000000">
                <tspan x="107.878906" y="66">O_</tspan>
                <tspan x="129.222656" y="66" font-family="Helvetica-Bold, Helvetica">0</tspan>
                <tspan x="90.4980469" y="85" font-family="Helvetica-Bold, Helvetica" font-size="9">(layer 0 output)</tspan>
            </text>
            <text id="O_1-(layer-1-output)" font-family="Helvetica-BoldOblique, Helvetica" font-size="16" font-style="italic" font-weight="bold" fill="#000000">
                <tspan x="214.878906" y="66">O_</tspan>
                <tspan x="236.222656" y="66" font-family="Helvetica-Bold, Helvetica">1</tspan>
                <tspan x="197.498047" y="85" font-family="Helvetica-Bold, Helvetica" font-size="9">(layer 1 output)</tspan>
            </text>
            <text id="O_2-(layer-2-output)" font-family="Helvetica-BoldOblique, Helvetica" font-size="16" font-style="italic" font-weight="bold" fill="#000000">
                <tspan x="320.878906" y="66">O_</tspan>
                <tspan x="342.222656" y="66" font-family="Helvetica-Bold, Helvetica">2</tspan>
                <tspan x="303.498047" y="85" font-family="Helvetica-Bold, Helvetica" font-size="9">(layer 2 output)</tspan>
            </text>
            <rect id="Rectangle-2" fill="#FFFFFF" x="218" y="85" width="19" height="6"></rect>
        </g>
    </g>
</svg>