<?xml version="1.0" encoding="UTF-8"?>
<svg width="810px" height="693px" viewBox="0 0 810 693" version="1.1" xmlns="http://www.w3.org/2000/svg" xmlns:xlink="http://www.w3.org/1999/xlink">
    <!-- Generator: Sketch 46.2 (44496) - http://www.bohemiancoding.com/sketch -->
    <title>Group</title>
    <desc>Created with Sketch.</desc>
    <defs></defs>
    <g id="Page-1" stroke="none" stroke-width="1" fill="none" fill-rule="evenodd">
        <g id="Group" transform="translate(-26.000000, -1.000000)">
            <polygon id="path22" stroke="#000000" stroke-width="0.9962625" fill="#FFF880" fill-rule="nonzero" transform="translate(408.240006, 54.146531) scale(-1, 1) rotate(-180.000000) translate(-408.240006, -54.146531) " points="390.523262 36.429787 425.95675 36.429787 425.95675 71.8632745 390.523262 71.8632745"></polygon>
            <path d="M532.257275,54.146525 C532.257275,63.9313375 524.325337,71.863275 514.540525,71.863275 C504.755713,71.863275 496.823775,63.9313375 496.823775,54.146525 C496.823775,44.3617125 504.755713,36.429775 514.540525,36.429775 C524.325337,36.429775 532.257275,44.3617125 532.257275,54.146525 Z" id="path34" stroke="#000000" stroke-width="5" fill="#FF8080" fill-rule="nonzero" transform="translate(514.540525, 54.146525) scale(-1, 1) rotate(-180.000000) translate(-514.540525, -54.146525) "></path>
            <path d="M638.5578,54.146525 C638.5578,63.9313375 630.625875,71.863275 620.841075,71.863275 C611.05625,71.863275 603.124325,63.9313375 603.124325,54.146525 C603.124325,44.3617125 611.05625,36.429775 620.841075,36.429775 C630.625875,36.429775 638.5578,44.3617125 638.5578,54.146525 L638.5578,54.146525 Z" id="path46" stroke="#000000" stroke-width="5" fill="#FF8080" fill-rule="nonzero" transform="translate(620.841063, 54.146525) scale(-1, 1) rotate(-180.000000) translate(-620.841063, -54.146525) "></path>
            <path d="M744.85835,54.146525 C744.85835,63.9313375 736.926413,71.863275 727.1416,71.863275 C717.356787,71.863275 709.424863,63.9313375 709.424863,54.146525 C709.424863,44.3617125 717.356787,36.429775 727.1416,36.429775 C736.926413,36.429775 744.85835,44.3617125 744.85835,54.146525 Z" id="path58" stroke="#000000" stroke-width="5" fill="#FF8080" fill-rule="nonzero" transform="translate(727.141606, 54.146525) scale(-1, 1) rotate(-180.000000) translate(-727.141606, -54.146525) "></path>
            <path d="M429.500075,53 L491.773575,53" id="path68" stroke="#000000" stroke-width="1.99255005" transform="translate(460.636825, 53.996275) scale(-1, 1) rotate(-180.000000) translate(-460.636825, -53.996275) "></path>
            <path d="M488.934225,57.93235 C489.170825,56.51265 491.773575,54.3831125 492.4834,54.146525 C491.773575,53.9099375 489.170825,51.7804 488.934225,50.3607" id="path74" stroke="#000000" stroke-width="1.59402505" stroke-linecap="round" stroke-linejoin="round" transform="translate(490.708813, 54.146525) scale(-1, 1) rotate(-180.000000) translate(-490.708813, -54.146525) "></path>
            <path d="M535.800625,53 L598.0741,53" id="path78" stroke="#000000" stroke-width="1.99255005" transform="translate(566.937363, 53.996275) scale(-1, 1) rotate(-180.000000) translate(-566.937363, -53.996275) "></path>
            <path d="M595.23475,57.93235 C595.47135,56.51265 598.0741,54.3831125 598.783925,54.146525 C598.0741,53.9099375 595.47135,51.7804 595.23475,50.3607" id="path84" stroke="#000000" stroke-width="1.59402505" stroke-linecap="round" stroke-linejoin="round" transform="translate(597.009338, 54.146525) scale(-1, 1) rotate(-180.000000) translate(-597.009338, -54.146525) "></path>
            <path d="M642.101137,53 L704.374638,53" id="path88" stroke="#000000" stroke-width="1.99255005" transform="translate(673.237887, 53.996275) scale(-1, 1) rotate(-180.000000) translate(-673.237887, -53.996275) "></path>
            <path d="M701.535287,57.93235 C701.771887,56.51265 704.374637,54.3831125 705.084462,54.146525 C704.374637,53.9099375 701.771887,51.7804 701.535287,50.3607" id="path94" stroke="#000000" stroke-width="1.59402505" stroke-linecap="round" stroke-linejoin="round" transform="translate(703.309874, 54.146525) scale(-1, 1) rotate(-180.000000) translate(-703.309874, -54.146525) "></path>
            <path d="M748.401687,53 L796.50175,53" id="path98" stroke="#000000" stroke-width="1.99255005" transform="translate(772.451718, 53.996275) scale(-1, 1) rotate(-180.000000) translate(-772.451718, -53.996275) "></path>
            <path d="M793.6624,57.93235 C793.899,56.51265 796.50175,54.3831125 797.211575,54.146525 C796.50175,53.9099375 793.899,51.7804 793.6624,50.3607" id="path104" stroke="#000000" stroke-width="1.59402505" stroke-linecap="round" stroke-linejoin="round" transform="translate(795.436987, 54.146525) scale(-1, 1) rotate(-180.000000) translate(-795.436987, -54.146525) "></path>
            <polygon id="path110" stroke="#000000" stroke-width="0.9962625" fill="#FFF880" fill-rule="nonzero" transform="translate(408.240006, 107.296806) scale(-1, 1) rotate(-180.000000) translate(-408.240006, -107.296806) " points="390.523262 89.580062 425.95675 89.580062 425.95675 125.013549 390.523262 125.013549"></polygon>
            <path d="M532.257275,107.296787 C532.257275,117.0816 524.325337,125.01355 514.540525,125.01355 C504.755713,125.01355 496.823775,117.0816 496.823775,107.296787 C496.823775,97.5119755 504.755713,89.580038 514.540525,89.580038 C524.325337,89.580038 532.257275,97.5119755 532.257275,107.296787 Z" id="path122" stroke="#000000" stroke-width="5" fill="#FF8080" fill-rule="nonzero" transform="translate(514.540525, 107.296794) scale(-1, 1) rotate(-180.000000) translate(-514.540525, -107.296794) "></path>
            <path d="M638.5578,107.296787 C638.5578,117.0816 630.625875,125.01355 620.841075,125.01355 C611.05625,125.01355 603.124325,117.0816 603.124325,107.296787 C603.124325,97.5119755 611.05625,89.580038 620.841075,89.580038 C630.625875,89.580038 638.5578,97.5119755 638.5578,107.296787 L638.5578,107.296787 Z" id="path134" stroke="#000000" stroke-width="5" fill="#FF8080" fill-rule="nonzero" transform="translate(620.841063, 107.296794) scale(-1, 1) rotate(-180.000000) translate(-620.841063, -107.296794) "></path>
            <path d="M744.85835,107.296787 C744.85835,117.0816 736.926413,125.01355 727.1416,125.01355 C717.356787,125.01355 709.424863,117.0816 709.424863,107.296787 C709.424863,97.5119755 717.356787,89.580038 727.1416,89.580038 C736.926413,89.580038 744.85835,97.5119755 744.85835,107.296787 Z" id="path146" stroke="#000000" stroke-width="5" fill="#FF8080" fill-rule="nonzero" transform="translate(727.141606, 107.296794) scale(-1, 1) rotate(-180.000000) translate(-727.141606, -107.296794) "></path>
            <path d="M429.500075,106 L491.773575,106" id="path156" stroke="#000000" stroke-width="1.99255005" transform="translate(460.636825, 106.996275) scale(-1, 1) rotate(-180.000000) translate(-460.636825, -106.996275) "></path>
            <path d="M488.934225,111.082625 C489.170825,109.662925 491.773575,107.533388 492.4834,107.2968 C491.773575,107.060213 489.170825,104.930675 488.934225,103.510975" id="path162" stroke="#000000" stroke-width="1.59402505" stroke-linecap="round" stroke-linejoin="round" transform="translate(490.708813, 107.296800) scale(-1, 1) rotate(-180.000000) translate(-490.708813, -107.296800) "></path>
            <path d="M535.800625,106 L598.0741,106" id="path166" stroke="#000000" stroke-width="1.99255005" transform="translate(566.937363, 106.996275) scale(-1, 1) rotate(-180.000000) translate(-566.937363, -106.996275) "></path>
            <path d="M595.23475,111.082625 C595.47135,109.662925 598.0741,107.533388 598.783925,107.2968 C598.0741,107.060213 595.47135,104.930675 595.23475,103.510975" id="path172" stroke="#000000" stroke-width="1.59402505" stroke-linecap="round" stroke-linejoin="round" transform="translate(597.009338, 107.296800) scale(-1, 1) rotate(-180.000000) translate(-597.009338, -107.296800) "></path>
            <path d="M642.101137,106 L704.374638,106" id="path176" stroke="#000000" stroke-width="1.99255005" transform="translate(673.237887, 106.996275) scale(-1, 1) rotate(-180.000000) translate(-673.237887, -106.996275) "></path>
            <path d="M701.535287,111.082625 C701.771887,109.662925 704.374637,107.533387 705.084462,107.2968 C704.374637,107.060212 701.771887,104.930675 701.535287,103.510975" id="path182" stroke="#000000" stroke-width="1.59402505" stroke-linecap="round" stroke-linejoin="round" transform="translate(703.309874, 107.296800) scale(-1, 1) rotate(-180.000000) translate(-703.309874, -107.296800) "></path>
            <path d="M748.401687,106 L796.50175,106" id="path186" stroke="#000000" stroke-width="1.99255005" transform="translate(772.451718, 106.996275) scale(-1, 1) rotate(-180.000000) translate(-772.451718, -106.996275) "></path>
            <path d="M793.6624,111.082625 C793.899,109.662925 796.50175,107.533387 797.211575,107.2968 C796.50175,107.060212 793.899,104.930675 793.6624,103.510975" id="path192" stroke="#000000" stroke-width="1.59402505" stroke-linecap="round" stroke-linejoin="round" transform="translate(795.436987, 107.296800) scale(-1, 1) rotate(-180.000000) translate(-795.436987, -107.296800) "></path>
            <polygon id="path198" stroke="#000000" stroke-width="0.9962625" fill="#FFF880" fill-rule="nonzero" transform="translate(408.240006, 160.447069) scale(-1, 1) rotate(-180.000000) translate(-408.240006, -160.447069) " points="390.523262 142.730326 425.95675 142.730326 425.95675 178.163813 390.523262 178.163813"></polygon>
            <path d="M532.257275,160.447088 C532.257275,170.231876 524.325337,178.163813 514.540525,178.163813 C504.755713,178.163813 496.823775,170.231876 496.823775,160.447088 C496.823775,150.662276 504.755713,142.730338 514.540525,142.730338 C524.325337,142.730338 532.257275,150.662276 532.257275,160.447088 Z" id="path210" stroke="#000000" stroke-width="5" fill="#FF8080" fill-rule="nonzero" transform="translate(514.540525, 160.447076) scale(-1, 1) rotate(-180.000000) translate(-514.540525, -160.447076) "></path>
            <path d="M638.5578,160.447088 C638.5578,170.231876 630.625875,178.163813 620.841075,178.163813 C611.05625,178.163813 603.124325,170.231876 603.124325,160.447088 C603.124325,150.662276 611.05625,142.730338 620.841075,142.730338 C630.625875,142.730338 638.5578,150.662276 638.5578,160.447088 L638.5578,160.447088 Z" id="path222" stroke="#000000" stroke-width="5" fill="#FF8080" fill-rule="nonzero" transform="translate(620.841063, 160.447076) scale(-1, 1) rotate(-180.000000) translate(-620.841063, -160.447076) "></path>
            <path d="M744.85835,160.447088 C744.85835,170.231876 736.926413,178.163813 727.1416,178.163813 C717.356787,178.163813 709.424863,170.231876 709.424863,160.447088 C709.424863,150.662276 717.356787,142.730338 727.1416,142.730338 C736.926413,142.730338 744.85835,150.662276 744.85835,160.447088 Z" id="path234" stroke="#000000" stroke-width="5" fill="#FF8080" fill-rule="nonzero" transform="translate(727.141606, 160.447076) scale(-1, 1) rotate(-180.000000) translate(-727.141606, -160.447076) "></path>
            <path d="M429.500075,159 L491.773575,159" id="path244" stroke="#000000" stroke-width="1.99255005" transform="translate(460.636825, 159.996275) scale(-1, 1) rotate(-180.000000) translate(-460.636825, -159.996275) "></path>
            <path d="M488.934225,164.232887 C489.170825,162.813187 491.773575,160.68365 492.4834,160.447062 C491.773575,160.210475 489.170825,158.080937 488.934225,156.661237" id="path250" stroke="#000000" stroke-width="1.59402505" stroke-linecap="round" stroke-linejoin="round" transform="translate(490.708813, 160.447062) scale(-1, 1) rotate(-180.000000) translate(-490.708813, -160.447062) "></path>
            <path d="M535.800625,159 L598.0741,159" id="path254" stroke="#000000" stroke-width="1.99255005" transform="translate(566.937363, 159.996275) scale(-1, 1) rotate(-180.000000) translate(-566.937363, -159.996275) "></path>
            <path d="M595.23475,164.232887 C595.47135,162.813187 598.0741,160.68365 598.783925,160.447062 C598.0741,160.210475 595.47135,158.080937 595.23475,156.661237" id="path260" stroke="#000000" stroke-width="1.59402505" stroke-linecap="round" stroke-linejoin="round" transform="translate(597.009338, 160.447062) scale(-1, 1) rotate(-180.000000) translate(-597.009338, -160.447062) "></path>
            <path d="M642.101137,159 L704.374638,159" id="path264" stroke="#000000" stroke-width="1.99255005" transform="translate(673.237887, 159.996275) scale(-1, 1) rotate(-180.000000) translate(-673.237887, -159.996275) "></path>
            <path d="M701.535287,164.232887 C701.771887,162.813187 704.374637,160.68365 705.084462,160.447062 C704.374637,160.210475 701.771887,158.080937 701.535287,156.661237" id="path270" stroke="#000000" stroke-width="1.59402505" stroke-linecap="round" stroke-linejoin="round" transform="translate(703.309874, 160.447062) scale(-1, 1) rotate(-180.000000) translate(-703.309874, -160.447062) "></path>
            <path d="M748.401687,159 L796.50175,159" id="path274" stroke="#000000" stroke-width="1.99255005" transform="translate(772.451718, 159.996275) scale(-1, 1) rotate(-180.000000) translate(-772.451718, -159.996275) "></path>
            <path d="M793.6624,164.232887 C793.899,162.813187 796.50175,160.68365 797.211575,160.447062 C796.50175,160.210475 793.899,158.080937 793.6624,156.661237" id="path280" stroke="#000000" stroke-width="1.59402505" stroke-linecap="round" stroke-linejoin="round" transform="translate(795.436987, 160.447062) scale(-1, 1) rotate(-180.000000) translate(-795.436987, -160.447062) "></path>
            <polygon id="path286" stroke="#000000" stroke-width="0.9962625" fill="#FFF880" fill-rule="nonzero" transform="translate(408.240006, 213.597345) scale(-1, 1) rotate(-180.000000) translate(-408.240006, -213.597345) " points="390.523262 195.880601 425.95675 195.880601 425.95675 231.314088 390.523262 231.314088"></polygon>
            <path d="M532.257275,213.597338 C532.257275,223.382151 524.325337,231.314088 514.540525,231.314088 C504.755713,231.314088 496.823775,223.382151 496.823775,213.597338 C496.823775,203.812526 504.755713,195.880613 514.540525,195.880613 C524.325337,195.880613 532.257275,203.812526 532.257275,213.597338 Z" id="path298" stroke="#000000" stroke-width="0.9962625" fill="#8080FF" fill-rule="nonzero" transform="translate(514.540525, 213.597351) scale(-1, 1) rotate(-180.000000) translate(-514.540525, -213.597351) "></path>
            <path d="M638.5578,213.597338 C638.5578,223.382151 630.625875,231.314088 620.841075,231.314088 C611.05625,231.314088 603.124325,223.382151 603.124325,213.597338 C603.124325,203.812526 611.05625,195.880613 620.841075,195.880613 C630.625875,195.880613 638.5578,203.812526 638.5578,213.597338 L638.5578,213.597338 Z" id="path310" stroke="#000000" stroke-width="0.9962625" fill="#8080FF" fill-rule="nonzero" transform="translate(620.841063, 213.597351) scale(-1, 1) rotate(-180.000000) translate(-620.841063, -213.597351) "></path>
            <path d="M744.85835,213.597338 C744.85835,223.382151 736.926413,231.314088 727.1416,231.314088 C717.356787,231.314088 709.424863,223.382151 709.424863,213.597338 C709.424863,203.812526 717.356787,195.880613 727.1416,195.880613 C736.926413,195.880613 744.85835,203.812526 744.85835,213.597338 Z" id="path322" stroke="#000000" stroke-width="0.9962625" fill="#8080FF" fill-rule="nonzero" transform="translate(727.141606, 213.597351) scale(-1, 1) rotate(-180.000000) translate(-727.141606, -213.597351) "></path>
            <path d="M429.500075,212 L491.773575,212" id="path332" stroke="#000000" stroke-width="1.99255005" transform="translate(460.636825, 212.996275) scale(-1, 1) rotate(-180.000000) translate(-460.636825, -212.996275) "></path>
            <path d="M488.934225,217.383187 C489.170825,215.963487 491.773575,213.83395 492.4834,213.597362 C491.773575,213.360775 489.170825,211.231237 488.934225,209.811537" id="path338" stroke="#000000" stroke-width="1.59402505" stroke-linecap="round" stroke-linejoin="round" transform="translate(490.708813, 213.597362) scale(-1, 1) rotate(-180.000000) translate(-490.708813, -213.597362) "></path>
            <path d="M535.800625,212 L598.0741,212" id="path342" stroke="#000000" stroke-width="1.99255005" transform="translate(566.937363, 212.996275) scale(-1, 1) rotate(-180.000000) translate(-566.937363, -212.996275) "></path>
            <path d="M595.23475,217.383187 C595.47135,215.963487 598.0741,213.83395 598.783925,213.597362 C598.0741,213.360775 595.47135,211.231237 595.23475,209.811537" id="path348" stroke="#000000" stroke-width="1.59402505" stroke-linecap="round" stroke-linejoin="round" transform="translate(597.009338, 213.597362) scale(-1, 1) rotate(-180.000000) translate(-597.009338, -213.597362) "></path>
            <path d="M642.101137,212 L704.374638,212" id="path352" stroke="#000000" stroke-width="1.99255005" transform="translate(673.237887, 212.996275) scale(-1, 1) rotate(-180.000000) translate(-673.237887, -212.996275) "></path>
            <path d="M701.535287,217.383187 C701.771887,215.963487 704.374637,213.83395 705.084462,213.597362 C704.374637,213.360775 701.771887,211.231237 701.535287,209.811537" id="path358" stroke="#000000" stroke-width="1.59402505" stroke-linecap="round" stroke-linejoin="round" transform="translate(703.309874, 213.597362) scale(-1, 1) rotate(-180.000000) translate(-703.309874, -213.597362) "></path>
            <path d="M748.401687,212 L796.50175,212" id="path362" stroke="#000000" stroke-width="1.99255005" transform="translate(772.451718, 212.996275) scale(-1, 1) rotate(-180.000000) translate(-772.451718, -212.996275) "></path>
            <path d="M793.6624,217.383187 C793.899,215.963487 796.50175,213.83395 797.211575,213.597362 C796.50175,213.360775 793.899,211.231237 793.6624,209.811537" id="path368" stroke="#000000" stroke-width="1.59402505" stroke-linecap="round" stroke-linejoin="round" transform="translate(795.436987, 213.597362) scale(-1, 1) rotate(-180.000000) translate(-795.436987, -213.597362) "></path>
            <polygon id="path374" stroke="#000000" stroke-width="0.9962625" fill="#FFF880" fill-rule="nonzero" transform="translate(408.240006, 266.747631) scale(-1, 1) rotate(-180.000000) translate(-408.240006, -266.747631) " points="390.523262 249.030887 425.95675 249.030887 425.95675 284.464375 390.523262 284.464375"></polygon>
            <path d="M532.257275,266.747625 C532.257275,276.532438 524.325337,284.464375 514.540525,284.464375 C504.755713,284.464375 496.823775,276.532437 496.823775,266.747625 C496.823775,256.9628 504.755713,249.030875 514.540525,249.030875 C524.325337,249.030875 532.257275,256.9628 532.257275,266.747625 L532.257275,266.747625 Z" id="path386" stroke="#000000" stroke-width="0.9962625" fill="#8080FF" fill-rule="nonzero" transform="translate(514.540525, 266.747625) scale(-1, 1) rotate(-180.000000) translate(-514.540525, -266.747625) "></path>
            <path d="M638.5578,266.747625 C638.5578,276.532438 630.625875,284.464375 620.841075,284.464375 C611.05625,284.464375 603.124325,276.532437 603.124325,266.747625 C603.124325,256.9628 611.05625,249.030875 620.841075,249.030875 C630.625875,249.030875 638.5578,256.9628 638.5578,266.747625 L638.5578,266.747625 Z" id="path398" stroke="#000000" stroke-width="0.9962625" fill="#8080FF" fill-rule="nonzero" transform="translate(620.841063, 266.747625) scale(-1, 1) rotate(-180.000000) translate(-620.841063, -266.747625) "></path>
            <path d="M744.85835,266.747625 C744.85835,276.532438 736.926413,284.464375 727.1416,284.464375 C717.356787,284.464375 709.424863,276.532437 709.424863,266.747625 C709.424863,256.9628 717.356787,249.030875 727.1416,249.030875 C736.926413,249.030875 744.85835,256.9628 744.85835,266.747625 L744.85835,266.747625 Z" id="path410" stroke="#000000" stroke-width="0.9962625" fill="#8080FF" fill-rule="nonzero" transform="translate(727.141606, 266.747625) scale(-1, 1) rotate(-180.000000) translate(-727.141606, -266.747625) "></path>
            <path d="M429.500075,265 L491.773575,265" id="path420" stroke="#000000" stroke-width="1.99255005" transform="translate(460.636825, 265.996275) scale(-1, 1) rotate(-180.000000) translate(-460.636825, -265.996275) "></path>
            <path d="M488.934225,270.53345 C489.170825,269.11375 491.773575,266.984212 492.4834,266.747625 C491.773575,266.511037 489.170825,264.3815 488.934225,262.9618" id="path426" stroke="#000000" stroke-width="1.59402505" stroke-linecap="round" stroke-linejoin="round" transform="translate(490.708813, 266.747625) scale(-1, 1) rotate(-180.000000) translate(-490.708813, -266.747625) "></path>
            <path d="M535.800625,265 L598.0741,265" id="path430" stroke="#000000" stroke-width="1.99255005" transform="translate(566.937363, 265.996275) scale(-1, 1) rotate(-180.000000) translate(-566.937363, -265.996275) "></path>
            <path d="M595.23475,270.53345 C595.47135,269.11375 598.0741,266.984212 598.783925,266.747625 C598.0741,266.511037 595.47135,264.3815 595.23475,262.9618" id="path436" stroke="#000000" stroke-width="1.59402505" stroke-linecap="round" stroke-linejoin="round" transform="translate(597.009338, 266.747625) scale(-1, 1) rotate(-180.000000) translate(-597.009338, -266.747625) "></path>
            <path d="M642.101137,265 L704.374638,265" id="path440" stroke="#000000" stroke-width="1.99255005" transform="translate(673.237887, 265.996275) scale(-1, 1) rotate(-180.000000) translate(-673.237887, -265.996275) "></path>
            <path d="M701.535287,270.53345 C701.771887,269.11375 704.374637,266.984212 705.084462,266.747625 C704.374637,266.511037 701.771887,264.3815 701.535287,262.9618" id="path446" stroke="#000000" stroke-width="1.59402505" stroke-linecap="round" stroke-linejoin="round" transform="translate(703.309874, 266.747625) scale(-1, 1) rotate(-180.000000) translate(-703.309874, -266.747625) "></path>
            <path d="M748.401687,265 L796.50175,265" id="path450" stroke="#000000" stroke-width="1.99255005" transform="translate(772.451718, 265.996275) scale(-1, 1) rotate(-180.000000) translate(-772.451718, -265.996275) "></path>
            <path d="M793.6624,270.53345 C793.899,269.11375 796.50175,266.984212 797.211575,266.747625 C796.50175,266.511037 793.899,264.3815 793.6624,262.9618" id="path456" stroke="#000000" stroke-width="1.59402505" stroke-linecap="round" stroke-linejoin="round" transform="translate(795.436987, 266.747625) scale(-1, 1) rotate(-180.000000) translate(-795.436987, -266.747625) "></path>
            <polygon id="path462" stroke="#000000" stroke-width="0.9962625" fill="#FFF880" fill-rule="nonzero" transform="translate(408.240006, 319.897906) scale(-1, 1) rotate(-180.000000) translate(-408.240006, -319.897906) " points="390.523262 302.181162 425.95675 302.181162 425.95675 337.61465 390.523262 337.61465"></polygon>
            <path d="M532.257275,319.8979 C532.257275,329.682712 524.325337,337.61465 514.540525,337.61465 C504.755713,337.61465 496.823775,329.682712 496.823775,319.8979 C496.823775,310.113087 504.755713,302.18115 514.540525,302.18115 C524.325337,302.18115 532.257275,310.113087 532.257275,319.8979 L532.257275,319.8979 Z" id="path474" stroke="#000000" stroke-width="0.9962625" fill="#8080FF" fill-rule="nonzero" transform="translate(514.540525, 319.897900) scale(-1, 1) rotate(-180.000000) translate(-514.540525, -319.897900) "></path>
            <path d="M638.5578,319.8979 C638.5578,329.682712 630.625875,337.61465 620.841075,337.61465 C611.05625,337.61465 603.124325,329.682712 603.124325,319.8979 C603.124325,310.113087 611.05625,302.18115 620.841075,302.18115 C630.625875,302.18115 638.5578,310.113087 638.5578,319.8979 L638.5578,319.8979 Z" id="path486" stroke="#000000" stroke-width="0.9962625" fill="#8080FF" fill-rule="nonzero" transform="translate(620.841063, 319.897900) scale(-1, 1) rotate(-180.000000) translate(-620.841063, -319.897900) "></path>
            <path d="M744.85835,319.8979 C744.85835,329.682712 736.926413,337.61465 727.1416,337.61465 C717.356787,337.61465 709.424863,329.682712 709.424863,319.8979 C709.424863,310.113087 717.356787,302.18115 727.1416,302.18115 C736.926413,302.18115 744.85835,310.113087 744.85835,319.8979 L744.85835,319.8979 Z" id="path498" stroke="#000000" stroke-width="0.9962625" fill="#8080FF" fill-rule="nonzero" transform="translate(727.141606, 319.897900) scale(-1, 1) rotate(-180.000000) translate(-727.141606, -319.897900) "></path>
            <path d="M429.500075,318 L491.773575,318" id="path508" stroke="#000000" stroke-width="1.99255005" transform="translate(460.636825, 318.996275) scale(-1, 1) rotate(-180.000000) translate(-460.636825, -318.996275) "></path>
            <path d="M488.934225,323.683725 C489.170825,322.264025 491.773575,320.134487 492.4834,319.8979 C491.773575,319.661312 489.170825,317.531775 488.934225,316.112075" id="path514" stroke="#000000" stroke-width="1.59402505" stroke-linecap="round" stroke-linejoin="round" transform="translate(490.708813, 319.897900) scale(-1, 1) rotate(-180.000000) translate(-490.708813, -319.897900) "></path>
            <path d="M535.800625,318 L598.0741,318" id="path518" stroke="#000000" stroke-width="1.99255005" transform="translate(566.937363, 318.996275) scale(-1, 1) rotate(-180.000000) translate(-566.937363, -318.996275) "></path>
            <path d="M595.23475,323.683725 C595.47135,322.264025 598.0741,320.134487 598.783925,319.8979 C598.0741,319.661312 595.47135,317.531775 595.23475,316.112075" id="path524" stroke="#000000" stroke-width="1.59402505" stroke-linecap="round" stroke-linejoin="round" transform="translate(597.009338, 319.897900) scale(-1, 1) rotate(-180.000000) translate(-597.009338, -319.897900) "></path>
            <path d="M642.101137,318 L704.374638,318" id="path528" stroke="#000000" stroke-width="1.99255005" transform="translate(673.237887, 318.996275) scale(-1, 1) rotate(-180.000000) translate(-673.237887, -318.996275) "></path>
            <path d="M701.535287,323.683725 C701.771887,322.264025 704.374637,320.134487 705.084462,319.8979 C704.374637,319.661312 701.771887,317.531775 701.535287,316.112075" id="path534" stroke="#000000" stroke-width="1.59402505" stroke-linecap="round" stroke-linejoin="round" transform="translate(703.309874, 319.897900) scale(-1, 1) rotate(-180.000000) translate(-703.309874, -319.897900) "></path>
            <path d="M748.401687,318 L796.50175,318" id="path538" stroke="#000000" stroke-width="1.99255005" transform="translate(772.451718, 318.996275) scale(-1, 1) rotate(-180.000000) translate(-772.451718, -318.996275) "></path>
            <path d="M793.6624,323.683725 C793.899,322.264025 796.50175,320.134487 797.211575,319.8979 C796.50175,319.661312 793.899,317.531775 793.6624,316.112075" id="path544" stroke="#000000" stroke-width="1.59402505" stroke-linecap="round" stroke-linejoin="round" transform="translate(795.436987, 319.897900) scale(-1, 1) rotate(-180.000000) translate(-795.436987, -319.897900) "></path>
            <path d="M793.6624,376.93235 C793.899,375.51265 796.50175,373.383112 797.211575,373.146525 C796.50175,372.909938 793.899,370.7804 793.6624,369.3607" id="path104" stroke="#000000" stroke-width="1.59402505" stroke-linecap="round" stroke-linejoin="round" transform="translate(795.436987, 373.146525) scale(-1, 1) rotate(-180.000000) translate(-795.436987, -373.146525) "></path>
            <path d="M793.6624,430.082625 C793.899,428.662925 796.50175,426.533387 797.211575,426.2968 C796.50175,426.060212 793.899,423.930675 793.6624,422.510975" id="path192" stroke="#000000" stroke-width="1.59402505" stroke-linecap="round" stroke-linejoin="round" transform="translate(795.436987, 426.296800) scale(-1, 1) rotate(-180.000000) translate(-795.436987, -426.296800) "></path>
            <path d="M793.6624,483.232887 C793.899,481.813186 796.50175,479.683649 797.211575,479.447061 C796.50175,479.210474 793.899,477.080936 793.6624,475.661236" id="path280" stroke="#000000" stroke-width="1.59402505" stroke-linecap="round" stroke-linejoin="round" transform="translate(795.436987, 479.447062) scale(-1, 1) rotate(-180.000000) translate(-795.436987, -479.447062) "></path>
            <path d="M793.6624,536.383187 C793.899,534.963487 796.50175,532.83395 797.211575,532.597362 C796.50175,532.360775 793.899,530.231237 793.6624,528.811537" id="path368" stroke="#000000" stroke-width="1.59402505" stroke-linecap="round" stroke-linejoin="round" transform="translate(795.436987, 532.597362) scale(-1, 1) rotate(-180.000000) translate(-795.436987, -532.597362) "></path>
            <path d="M793.6624,589.53345 C793.899,588.11375 796.50175,585.984212 797.211575,585.747625 C796.50175,585.511037 793.899,583.3815 793.6624,581.9618" id="path456" stroke="#000000" stroke-width="1.59402505" stroke-linecap="round" stroke-linejoin="round" transform="translate(795.436987, 585.747625) scale(-1, 1) rotate(-180.000000) translate(-795.436987, -585.747625) "></path>
            <path d="M793.6624,642.683725 C793.899,641.264025 796.50175,639.134487 797.211575,638.8979 C796.50175,638.661312 793.899,636.531775 793.6624,635.112075" id="path544" stroke="#000000" stroke-width="1.59402505" stroke-linecap="round" stroke-linejoin="round" transform="translate(795.436987, 638.897900) scale(-1, 1) rotate(-180.000000) translate(-795.436987, -638.897900) "></path>
            <path d="M514,31.690924 L514,0.996249" id="path564" stroke="#000000" stroke-width="1.49441257" transform="translate(514.747206, 16.343587) scale(-1, 1) rotate(-180.000000) translate(-514.747206, -16.343587) "></path>
            <path d="M513.046125,33.98235 C513.245387,32.7868 515.437175,30.9935 516.034925,30.794275 C515.437175,30.59505 513.245387,28.80175 513.046125,27.6062" id="path570" stroke="#000000" stroke-width="1.19549997" stroke-linecap="round" stroke-linejoin="round" transform="translate(514.540525, 30.794275) scale(-1, 1) rotate(90.000000) translate(-514.540525, -30.794275) "></path>
            <path d="M620,31.690924 L620,0.996249" id="path574" stroke="#000000" stroke-width="1.49441257" transform="translate(620.747206, 16.343587) scale(-1, 1) rotate(-180.000000) translate(-620.747206, -16.343587) "></path>
            <path d="M619.346675,33.98235 C619.545937,32.7868 621.737725,30.9935 622.335475,30.794275 C621.737725,30.59505 619.545937,28.80175 619.346675,27.6062" id="path580" stroke="#000000" stroke-width="1.19549997" stroke-linecap="round" stroke-linejoin="round" transform="translate(620.841075, 30.794275) scale(-1, 1) rotate(90.000000) translate(-620.841075, -30.794275) "></path>
            <path d="M727,31.690924 L727,0.996249" id="path584" stroke="#000000" stroke-width="1.49441257" transform="translate(727.747206, 16.343587) scale(-1, 1) rotate(-180.000000) translate(-727.747206, -16.343587) "></path>
            <path d="M725.6472,33.98235 C725.846463,32.7868 728.03825,30.9935 728.636,30.794275 C728.03825,30.59505 725.846463,28.80175 725.6472,27.6062" id="path590" stroke="#000000" stroke-width="1.19549997" stroke-linecap="round" stroke-linejoin="round" transform="translate(727.141600, 30.794275) scale(-1, 1) rotate(90.000000) translate(-727.141600, -30.794275) "></path>
            <path d="M514,84.8412005 L514,75.406588" id="path594" stroke="#000000" stroke-width="1.49441257" transform="translate(514.747206, 80.123894) scale(-1, 1) rotate(-180.000000) translate(-514.747206, -80.123894) "></path>
            <path d="M513.046125,87.132625 C513.245387,85.937075 515.437175,84.143775 516.034925,83.94455 C515.437175,83.745325 513.245387,81.952025 513.046125,80.756475" id="path600" stroke="#000000" stroke-width="1.19549997" stroke-linecap="round" stroke-linejoin="round" transform="translate(514.540525, 83.944550) scale(-1, 1) rotate(90.000000) translate(-514.540525, -83.944550) "></path>
            <path d="M620,84.8412005 L620,75.406588" id="path604" stroke="#000000" stroke-width="1.49441257" transform="translate(620.747206, 80.123894) scale(-1, 1) rotate(-180.000000) translate(-620.747206, -80.123894) "></path>
            <path d="M619.346675,87.132625 C619.545937,85.937075 621.737725,84.143775 622.335475,83.94455 C621.737725,83.745325 619.545937,81.952025 619.346675,80.756475" id="path610" stroke="#000000" stroke-width="1.19549997" stroke-linecap="round" stroke-linejoin="round" transform="translate(620.841075, 83.944550) scale(-1, 1) rotate(90.000000) translate(-620.841075, -83.944550) "></path>
            <path d="M727,84.8412005 L727,75.406588" id="path614" stroke="#000000" stroke-width="1.49441257" transform="translate(727.747206, 80.123894) scale(-1, 1) rotate(-180.000000) translate(-727.747206, -80.123894) "></path>
            <path d="M725.6472,87.132625 C725.846463,85.937075 728.03825,84.143775 728.636,83.94455 C728.03825,83.745325 725.846463,81.952025 725.6472,80.756475" id="path620" stroke="#000000" stroke-width="1.19549997" stroke-linecap="round" stroke-linejoin="round" transform="translate(727.141600, 83.944550) scale(-1, 1) rotate(90.000000) translate(-727.141600, -83.944550) "></path>
            <path d="M514,137.991475 L514,128.556887" id="path624" stroke="#000000" stroke-width="1.49441257" transform="translate(514.747206, 133.274181) scale(-1, 1) rotate(-180.000000) translate(-514.747206, -133.274181) "></path>
            <path d="M513.046125,140.2829 C513.245387,139.08735 515.437175,137.29405 516.034925,137.094825 C515.437175,136.8956 513.245387,135.1023 513.046125,133.90675" id="path630" stroke="#000000" stroke-width="1.19549997" stroke-linecap="round" stroke-linejoin="round" transform="translate(514.540525, 137.094825) scale(-1, 1) rotate(90.000000) translate(-514.540525, -137.094825) "></path>
            <path d="M620,137.991475 L620,128.556887" id="path634" stroke="#000000" stroke-width="1.49441257" transform="translate(620.747206, 133.274181) scale(-1, 1) rotate(-180.000000) translate(-620.747206, -133.274181) "></path>
            <path d="M619.346675,140.2829 C619.545937,139.08735 621.737725,137.29405 622.335475,137.094825 C621.737725,136.8956 619.545937,135.1023 619.346675,133.90675" id="path640" stroke="#000000" stroke-width="1.19549997" stroke-linecap="round" stroke-linejoin="round" transform="translate(620.841075, 137.094825) scale(-1, 1) rotate(90.000000) translate(-620.841075, -137.094825) "></path>
            <path d="M727,137.991475 L727,128.556887" id="path644" stroke="#000000" stroke-width="1.49441257" transform="translate(727.747206, 133.274181) scale(-1, 1) rotate(-180.000000) translate(-727.747206, -133.274181) "></path>
            <path d="M725.6472,140.2829 C725.846463,139.08735 728.03825,137.29405 728.636,137.094825 C728.03825,136.8956 725.846463,135.1023 725.6472,133.90675" id="path650" stroke="#000000" stroke-width="1.19549997" stroke-linecap="round" stroke-linejoin="round" transform="translate(727.141600, 137.094825) scale(-1, 1) rotate(90.000000) translate(-727.141600, -137.094825) "></path>
            <path d="M514,191.14175 L514,181.707162" id="path654" stroke="#000000" stroke-width="1.49441257" transform="translate(514.747206, 186.424456) scale(-1, 1) rotate(-180.000000) translate(-514.747206, -186.424456) "></path>
            <path d="M513.046125,193.433175 C513.245387,192.237625 515.437175,190.444325 516.034925,190.2451 C515.437175,190.045875 513.245387,188.252575 513.046125,187.057025" id="path660" stroke="#000000" stroke-width="1.19549997" stroke-linecap="round" stroke-linejoin="round" transform="translate(514.540525, 190.245100) scale(-1, 1) rotate(90.000000) translate(-514.540525, -190.245100) "></path>
            <path d="M620,191.14175 L620,181.707162" id="path664" stroke="#000000" stroke-width="1.49441257" transform="translate(620.747206, 186.424456) scale(-1, 1) rotate(-180.000000) translate(-620.747206, -186.424456) "></path>
            <path d="M619.346675,193.433175 C619.545937,192.237625 621.737725,190.444325 622.335475,190.2451 C621.737725,190.045875 619.545937,188.252575 619.346675,187.057025" id="path670" stroke="#000000" stroke-width="1.19549997" stroke-linecap="round" stroke-linejoin="round" transform="translate(620.841075, 190.245100) scale(-1, 1) rotate(90.000000) translate(-620.841075, -190.245100) "></path>
            <path d="M727,191.14175 L727,181.707162" id="path674" stroke="#000000" stroke-width="1.49441257" transform="translate(727.747206, 186.424456) scale(-1, 1) rotate(-180.000000) translate(-727.747206, -186.424456) "></path>
            <path d="M725.6472,193.433175 C725.846463,192.237625 728.03825,190.444325 728.636,190.2451 C728.03825,190.045875 725.846463,188.252575 725.6472,187.057025" id="path680" stroke="#000000" stroke-width="1.19549997" stroke-linecap="round" stroke-linejoin="round" transform="translate(727.141600, 190.245100) scale(-1, 1) rotate(90.000000) translate(-727.141600, -190.245100) "></path>
            <path d="M514,244.292037 L514,234.857425" id="path684" stroke="#000000" stroke-width="1.49441257" transform="translate(514.747206, 239.574731) scale(-1, 1) rotate(-180.000000) translate(-514.747206, -239.574731) "></path>
            <path d="M513.046125,246.583462 C513.245387,245.387912 515.437175,243.594612 516.034925,243.395387 C515.437175,243.196162 513.245387,241.402862 513.046125,240.207312" id="path690" stroke="#000000" stroke-width="1.19549997" stroke-linecap="round" stroke-linejoin="round" transform="translate(514.540525, 243.395387) scale(-1, 1) rotate(90.000000) translate(-514.540525, -243.395387) "></path>
            <path d="M620,244.292037 L620,234.857425" id="path694" stroke="#000000" stroke-width="1.49441257" transform="translate(620.747206, 239.574731) scale(-1, 1) rotate(-180.000000) translate(-620.747206, -239.574731) "></path>
            <path d="M619.346675,246.583462 C619.545937,245.387912 621.737725,243.594612 622.335475,243.395387 C621.737725,243.196162 619.545937,241.402862 619.346675,240.207312" id="path700" stroke="#000000" stroke-width="1.19549997" stroke-linecap="round" stroke-linejoin="round" transform="translate(620.841075, 243.395387) scale(-1, 1) rotate(90.000000) translate(-620.841075, -243.395387) "></path>
            <path d="M727,244.292037 L727,234.857425" id="path704" stroke="#000000" stroke-width="1.49441257" transform="translate(727.747206, 239.574731) scale(-1, 1) rotate(-180.000000) translate(-727.747206, -239.574731) "></path>
            <path d="M725.6472,246.583462 C725.846463,245.387912 728.03825,243.594612 728.636,243.395387 C728.03825,243.196162 725.846463,241.402862 725.6472,240.207312" id="path710" stroke="#000000" stroke-width="1.19549997" stroke-linecap="round" stroke-linejoin="round" transform="translate(727.141600, 243.395387) scale(-1, 1) rotate(90.000000) translate(-727.141600, -243.395387) "></path>
            <path d="M514,297.442312 L514,288.0077" id="path714" stroke="#000000" stroke-width="1.49441257" transform="translate(514.747206, 292.725006) scale(-1, 1) rotate(-180.000000) translate(-514.747206, -292.725006) "></path>
            <path d="M513.046125,299.733737 C513.245387,298.538187 515.437175,296.744887 516.034925,296.545662 C515.437175,296.346437 513.245387,294.553137 513.046125,293.357587" id="path720" stroke="#000000" stroke-width="1.19549997" stroke-linecap="round" stroke-linejoin="round" transform="translate(514.540525, 296.545662) scale(-1, 1) rotate(90.000000) translate(-514.540525, -296.545662) "></path>
            <path d="M620,297.442312 L620,288.0077" id="path724" stroke="#000000" stroke-width="1.49441257" transform="translate(620.747206, 292.725006) scale(-1, 1) rotate(-180.000000) translate(-620.747206, -292.725006) "></path>
            <path d="M619.346675,299.733737 C619.545937,298.538187 621.737725,296.744887 622.335475,296.545662 C621.737725,296.346437 619.545937,294.553137 619.346675,293.357587" id="path730" stroke="#000000" stroke-width="1.19549997" stroke-linecap="round" stroke-linejoin="round" transform="translate(620.841075, 296.545662) scale(-1, 1) rotate(90.000000) translate(-620.841075, -296.545662) "></path>
            <path d="M727,297.442312 L727,288.0077" id="path734" stroke="#000000" stroke-width="1.49441257" transform="translate(727.747206, 292.725006) scale(-1, 1) rotate(-180.000000) translate(-727.747206, -292.725006) "></path>
            <path d="M725.6472,299.733737 C725.846463,298.538187 728.03825,296.744887 728.636,296.545662 C728.03825,296.346437 725.846463,294.553137 725.6472,293.357587" id="path740" stroke="#000000" stroke-width="1.19549997" stroke-linecap="round" stroke-linejoin="round" transform="translate(727.141600, 296.545662) scale(-1, 1) rotate(90.000000) translate(-727.141600, -296.545662) "></path>
            <path d="M514,350.442312 L514,341.0077" id="path714" stroke="#000000" stroke-width="1.49441257" transform="translate(514.747206, 345.725006) scale(-1, 1) rotate(-180.000000) translate(-514.747206, -345.725006) "></path>
            <path d="M513.046125,352.733737 C513.245387,351.538187 515.437175,349.744887 516.034925,349.545662 C515.437175,349.346437 513.245387,347.553137 513.046125,346.357587" id="path720" stroke="#000000" stroke-width="1.19549997" stroke-linecap="round" stroke-linejoin="round" transform="translate(514.540525, 349.545662) scale(-1, 1) rotate(90.000000) translate(-514.540525, -349.545662) "></path>
            <path d="M620,350.442312 L620,341.0077" id="path724" stroke="#000000" stroke-width="1.49441257" transform="translate(620.747206, 345.725006) scale(-1, 1) rotate(-180.000000) translate(-620.747206, -345.725006) "></path>
            <path d="M619.346675,352.733737 C619.545937,351.538187 621.737725,349.744887 622.335475,349.545662 C621.737725,349.346437 619.545937,347.553137 619.346675,346.357587" id="path730" stroke="#000000" stroke-width="1.19549997" stroke-linecap="round" stroke-linejoin="round" transform="translate(620.841075, 349.545662) scale(-1, 1) rotate(90.000000) translate(-620.841075, -349.545662) "></path>
            <path d="M727,350.442312 L727,341.0077" id="path734" stroke="#000000" stroke-width="1.49441257" transform="translate(727.747206, 345.725006) scale(-1, 1) rotate(-180.000000) translate(-727.747206, -345.725006) "></path>
            <path d="M725.6472,352.733737 C725.846463,351.538187 728.03825,349.744887 728.636,349.545662 C728.03825,349.346437 725.846463,347.553137 725.6472,346.357587" id="path740" stroke="#000000" stroke-width="1.19549997" stroke-linecap="round" stroke-linejoin="round" transform="translate(727.141600, 349.545662) scale(-1, 1) rotate(90.000000) translate(-727.141600, -349.545662) "></path>
            <path d="M372,691.500001 L372,0.996251" id="path774" stroke="#000000" stroke-width="1.99255005" transform="translate(372.996275, 346.248126) scale(-1, 1) rotate(-180.000000) translate(-372.996275, -346.248126) "></path>
            <text id="Time" fill="#000000" transform="translate(351.000000, 344.000000) rotate(-90.000000) translate(-351.000000, -344.000000) " font-family="Helvetica" font-size="18" font-weight="normal">
                <tspan x="331" y="351">Time</tspan>
            </text>
            <text id="B" fill="#000000" font-family="Helvetica-Bold, Helvetica" font-size="28" font-weight="bold">
                <tspan x="397" y="64">B</tspan>
            </text>
            <text id="o" fill="#000000" font-family="Helvetica-Bold, Helvetica" font-size="28" font-weight="bold">
                <tspan x="399" y="116">o</tspan>
            </text>
            <text id="b" fill="#000000" font-family="Helvetica-Bold, Helvetica" font-size="28" font-weight="bold">
                <tspan x="399" y="171">b</tspan>
            </text>
            <text id="i" fill="#000000" font-family="Helvetica-Bold, Helvetica" font-size="28" font-weight="bold">
                <tspan x="404" y="277">i</tspan>
            </text>
            <text id="s" fill="#000000" font-family="Helvetica-Bold, Helvetica" font-size="28" font-weight="bold">
                <tspan x="400" y="328">s</tspan>
            </text>
            <text id="_" fill="#000000" font-family="Helvetica-Bold, Helvetica" font-size="28" font-weight="bold">
                <tspan x="400" y="220">_</tspan>
            </text>
            <polygon id="path22" stroke="#000000" stroke-width="0.9962625" fill="#FFF880" fill-rule="nonzero" transform="translate(408.240006, 373.146531) scale(-1, 1) rotate(-180.000000) translate(-408.240006, -373.146531) " points="390.523262 355.429787 425.95675 355.429787 425.95675 390.863275 390.523262 390.863275"></polygon>
            <path d="M532.257275,373.146525 C532.257275,382.931337 524.325337,390.863275 514.540525,390.863275 C504.755713,390.863275 496.823775,382.931337 496.823775,373.146525 C496.823775,363.361712 504.755713,355.429775 514.540525,355.429775 C524.325337,355.429775 532.257275,363.361712 532.257275,373.146525 Z" id="path34" stroke="#000000" stroke-width="0.9962625" fill="#8080FF" fill-rule="nonzero" transform="translate(514.540525, 373.146525) scale(-1, 1) rotate(-180.000000) translate(-514.540525, -373.146525) "></path>
            <path d="M638.5578,373.146525 C638.5578,382.931337 630.625875,390.863275 620.841075,390.863275 C611.05625,390.863275 603.124325,382.931337 603.124325,373.146525 C603.124325,363.361712 611.05625,355.429775 620.841075,355.429775 C630.625875,355.429775 638.5578,363.361712 638.5578,373.146525 L638.5578,373.146525 Z" id="path46" stroke="#000000" stroke-width="0.9962625" fill="#8080FF" fill-rule="nonzero" transform="translate(620.841063, 373.146525) scale(-1, 1) rotate(-180.000000) translate(-620.841063, -373.146525) "></path>
            <path d="M744.85835,373.146525 C744.85835,382.931337 736.926413,390.863275 727.1416,390.863275 C717.356787,390.863275 709.424863,382.931337 709.424863,373.146525 C709.424863,363.361712 717.356787,355.429775 727.1416,355.429775 C736.926413,355.429775 744.85835,363.361712 744.85835,373.146525 Z" id="path58" stroke="#000000" stroke-width="0.9962625" fill="#8080FF" fill-rule="nonzero" transform="translate(727.141606, 373.146525) scale(-1, 1) rotate(-180.000000) translate(-727.141606, -373.146525) "></path>
            <path d="M429.500075,372 L491.773575,372" id="path68" stroke="#000000" stroke-width="1.99255005" transform="translate(460.636825, 372.996275) scale(-1, 1) rotate(-180.000000) translate(-460.636825, -372.996275) "></path>
            <path d="M488.934225,376.93235 C489.170825,375.51265 491.773575,373.383113 492.4834,373.146525 C491.773575,372.909938 489.170825,370.7804 488.934225,369.3607" id="path74" stroke="#000000" stroke-width="1.59402505" stroke-linecap="round" stroke-linejoin="round" transform="translate(490.708813, 373.146525) scale(-1, 1) rotate(-180.000000) translate(-490.708813, -373.146525) "></path>
            <path d="M535.800625,372 L598.0741,372" id="path78" stroke="#000000" stroke-width="1.99255005" transform="translate(566.937363, 372.996275) scale(-1, 1) rotate(-180.000000) translate(-566.937363, -372.996275) "></path>
            <path d="M595.23475,376.93235 C595.47135,375.51265 598.0741,373.383113 598.783925,373.146525 C598.0741,372.909938 595.47135,370.7804 595.23475,369.3607" id="path84" stroke="#000000" stroke-width="1.59402505" stroke-linecap="round" stroke-linejoin="round" transform="translate(597.009338, 373.146525) scale(-1, 1) rotate(-180.000000) translate(-597.009338, -373.146525) "></path>
            <path d="M642.101137,372 L704.374638,372" id="path88" stroke="#000000" stroke-width="1.99255005" transform="translate(673.237887, 372.996275) scale(-1, 1) rotate(-180.000000) translate(-673.237887, -372.996275) "></path>
            <path d="M701.535287,376.93235 C701.771887,375.51265 704.374637,373.383112 705.084462,373.146525 C704.374637,372.909938 701.771887,370.7804 701.535287,369.3607" id="path94" stroke="#000000" stroke-width="1.59402505" stroke-linecap="round" stroke-linejoin="round" transform="translate(703.309874, 373.146525) scale(-1, 1) rotate(-180.000000) translate(-703.309874, -373.146525) "></path>
            <path d="M748.401687,372 L796.50175,372" id="path98" stroke="#000000" stroke-width="1.99255005" transform="translate(772.451718, 372.996275) scale(-1, 1) rotate(-180.000000) translate(-772.451718, -372.996275) "></path>
            <polygon id="path110" stroke="#000000" stroke-width="0.9962625" fill="#FFF880" fill-rule="nonzero" transform="translate(408.240006, 426.296806) scale(-1, 1) rotate(-180.000000) translate(-408.240006, -426.296806) " points="390.523262 408.580062 425.95675 408.580062 425.95675 444.01355 390.523262 444.01355"></polygon>
            <path d="M532.257275,426.296788 C532.257275,436.081601 524.325337,444.013551 514.540525,444.013551 C504.755713,444.013551 496.823775,436.081601 496.823775,426.296788 C496.823775,416.511976 504.755713,408.580038 514.540525,408.580038 C524.325337,408.580038 532.257275,416.511976 532.257275,426.296788 Z" id="path122" stroke="#000000" stroke-width="0.9962625" fill="#8080FF" fill-rule="nonzero" transform="translate(514.540525, 426.296794) scale(-1, 1) rotate(-180.000000) translate(-514.540525, -426.296794) "></path>
            <path d="M638.5578,426.296788 C638.5578,436.081601 630.625875,444.013551 620.841075,444.013551 C611.05625,444.013551 603.124325,436.081601 603.124325,426.296788 C603.124325,416.511976 611.05625,408.580038 620.841075,408.580038 C630.625875,408.580038 638.5578,416.511976 638.5578,426.296788 L638.5578,426.296788 Z" id="path134" stroke="#000000" stroke-width="0.9962625" fill="#8080FF" fill-rule="nonzero" transform="translate(620.841063, 426.296794) scale(-1, 1) rotate(-180.000000) translate(-620.841063, -426.296794) "></path>
            <path d="M744.85835,426.296788 C744.85835,436.081601 736.926413,444.013551 727.1416,444.013551 C717.356787,444.013551 709.424863,436.081601 709.424863,426.296788 C709.424863,416.511976 717.356787,408.580038 727.1416,408.580038 C736.926413,408.580038 744.85835,416.511976 744.85835,426.296788 Z" id="path146" stroke="#000000" stroke-width="0.9962625" fill="#8080FF" fill-rule="nonzero" transform="translate(727.141606, 426.296794) scale(-1, 1) rotate(-180.000000) translate(-727.141606, -426.296794) "></path>
            <path d="M429.500075,425 L491.773575,425" id="path156" stroke="#000000" stroke-width="1.99255005" transform="translate(460.636825, 425.996275) scale(-1, 1) rotate(-180.000000) translate(-460.636825, -425.996275) "></path>
            <path d="M488.934225,430.082625 C489.170825,428.662925 491.773575,426.533387 492.4834,426.2968 C491.773575,426.060212 489.170825,423.930675 488.934225,422.510975" id="path162" stroke="#000000" stroke-width="1.59402505" stroke-linecap="round" stroke-linejoin="round" transform="translate(490.708813, 426.296800) scale(-1, 1) rotate(-180.000000) translate(-490.708813, -426.296800) "></path>
            <path d="M535.800625,425 L598.0741,425" id="path166" stroke="#000000" stroke-width="1.99255005" transform="translate(566.937363, 425.996275) scale(-1, 1) rotate(-180.000000) translate(-566.937363, -425.996275) "></path>
            <path d="M595.23475,430.082625 C595.47135,428.662925 598.0741,426.533387 598.783925,426.2968 C598.0741,426.060212 595.47135,423.930675 595.23475,422.510975" id="path172" stroke="#000000" stroke-width="1.59402505" stroke-linecap="round" stroke-linejoin="round" transform="translate(597.009338, 426.296800) scale(-1, 1) rotate(-180.000000) translate(-597.009338, -426.296800) "></path>
            <path d="M642.101137,425 L704.374638,425" id="path176" stroke="#000000" stroke-width="1.99255005" transform="translate(673.237887, 425.996275) scale(-1, 1) rotate(-180.000000) translate(-673.237887, -425.996275) "></path>
            <path d="M701.535287,430.082625 C701.771887,428.662925 704.374637,426.533387 705.084462,426.2968 C704.374637,426.060212 701.771887,423.930675 701.535287,422.510975" id="path182" stroke="#000000" stroke-width="1.59402505" stroke-linecap="round" stroke-linejoin="round" transform="translate(703.309874, 426.296800) scale(-1, 1) rotate(-180.000000) translate(-703.309874, -426.296800) "></path>
            <path d="M748.401687,425 L796.50175,425" id="path186" stroke="#000000" stroke-width="1.99255005" transform="translate(772.451718, 425.996275) scale(-1, 1) rotate(-180.000000) translate(-772.451718, -425.996275) "></path>
            <polygon id="path198" stroke="#000000" stroke-width="0.9962625" fill="#FFF880" fill-rule="nonzero" transform="translate(408.240006, 479.447069) scale(-1, 1) rotate(-180.000000) translate(-408.240006, -479.447069) " points="390.523262 461.730326 425.95675 461.730326 425.95675 497.163813 390.523262 497.163813"></polygon>
            <path d="M532.257275,479.447088 C532.257275,489.231876 524.325337,497.163813 514.540525,497.163813 C504.755713,497.163813 496.823775,489.231876 496.823775,479.447088 C496.823775,469.662276 504.755713,461.730338 514.540525,461.730338 C524.325337,461.730338 532.257275,469.662276 532.257275,479.447088 Z" id="path210" stroke="#000000" stroke-width="0.9962625" fill="#8080FF" fill-rule="nonzero" transform="translate(514.540525, 479.447076) scale(-1, 1) rotate(-180.000000) translate(-514.540525, -479.447076) "></path>
            <path d="M638.5578,479.447088 C638.5578,489.231876 630.625875,497.163813 620.841075,497.163813 C611.05625,497.163813 603.124325,489.231876 603.124325,479.447088 C603.124325,469.662276 611.05625,461.730338 620.841075,461.730338 C630.625875,461.730338 638.5578,469.662276 638.5578,479.447088 L638.5578,479.447088 Z" id="path222" stroke="#000000" stroke-width="0.9962625" fill="#8080FF" fill-rule="nonzero" transform="translate(620.841063, 479.447076) scale(-1, 1) rotate(-180.000000) translate(-620.841063, -479.447076) "></path>
            <path d="M744.85835,479.447088 C744.85835,489.231876 736.926413,497.163813 727.1416,497.163813 C717.356787,497.163813 709.424863,489.231876 709.424863,479.447088 C709.424863,469.662276 717.356787,461.730338 727.1416,461.730338 C736.926413,461.730338 744.85835,469.662276 744.85835,479.447088 Z" id="path234" stroke="#000000" stroke-width="0.9962625" fill="#8080FF" fill-rule="nonzero" transform="translate(727.141606, 479.447076) scale(-1, 1) rotate(-180.000000) translate(-727.141606, -479.447076) "></path>
            <path d="M429.500075,478 L491.773575,478" id="path244" stroke="#000000" stroke-width="1.99255005" transform="translate(460.636825, 478.996275) scale(-1, 1) rotate(-180.000000) translate(-460.636825, -478.996275) "></path>
            <path d="M488.934225,483.232887 C489.170825,481.813186 491.773575,479.683649 492.4834,479.447061 C491.773575,479.210474 489.170825,477.080936 488.934225,475.661236" id="path250" stroke="#000000" stroke-width="1.59402505" stroke-linecap="round" stroke-linejoin="round" transform="translate(490.708813, 479.447062) scale(-1, 1) rotate(-180.000000) translate(-490.708813, -479.447062) "></path>
            <path d="M535.800625,478 L598.0741,478" id="path254" stroke="#000000" stroke-width="1.99255005" transform="translate(566.937363, 478.996275) scale(-1, 1) rotate(-180.000000) translate(-566.937363, -478.996275) "></path>
            <path d="M595.23475,483.232887 C595.47135,481.813186 598.0741,479.683649 598.783925,479.447061 C598.0741,479.210474 595.47135,477.080936 595.23475,475.661236" id="path260" stroke="#000000" stroke-width="1.59402505" stroke-linecap="round" stroke-linejoin="round" transform="translate(597.009338, 479.447062) scale(-1, 1) rotate(-180.000000) translate(-597.009338, -479.447062) "></path>
            <path d="M642.101137,478 L704.374638,478" id="path264" stroke="#000000" stroke-width="1.99255005" transform="translate(673.237887, 478.996275) scale(-1, 1) rotate(-180.000000) translate(-673.237887, -478.996275) "></path>
            <path d="M701.535287,483.232887 C701.771887,481.813186 704.374637,479.683649 705.084462,479.447061 C704.374637,479.210474 701.771887,477.080936 701.535287,475.661236" id="path270" stroke="#000000" stroke-width="1.59402505" stroke-linecap="round" stroke-linejoin="round" transform="translate(703.309874, 479.447062) scale(-1, 1) rotate(-180.000000) translate(-703.309874, -479.447062) "></path>
            <path d="M748.401687,478 L796.50175,478" id="path274" stroke="#000000" stroke-width="1.99255005" transform="translate(772.451718, 478.996275) scale(-1, 1) rotate(-180.000000) translate(-772.451718, -478.996275) "></path>
            <polygon id="path286" stroke="#000000" stroke-width="0.9962625" fill="#FFF880" fill-rule="nonzero" transform="translate(408.240006, 532.597345) scale(-1, 1) rotate(-180.000000) translate(-408.240006, -532.597345) " points="390.523262 514.880601 425.95675 514.880601 425.95675 550.314088 390.523262 550.314088"></polygon>
            <path d="M532.257275,532.597338 C532.257275,542.382151 524.325337,550.314088 514.540525,550.314088 C504.755713,550.314088 496.823775,542.382151 496.823775,532.597338 C496.823775,522.812526 504.755713,514.880613 514.540525,514.880613 C524.325337,514.880613 532.257275,522.812526 532.257275,532.597338 Z" id="path298" stroke="#000000" stroke-width="5" fill="#FF8080" fill-rule="nonzero" transform="translate(514.540525, 532.597350) scale(-1, 1) rotate(-180.000000) translate(-514.540525, -532.597350) "></path>
            <path d="M638.5578,532.597338 C638.5578,542.382151 630.625875,550.314088 620.841075,550.314088 C611.05625,550.314088 603.124325,542.382151 603.124325,532.597338 C603.124325,522.812526 611.05625,514.880613 620.841075,514.880613 C630.625875,514.880613 638.5578,522.812526 638.5578,532.597338 L638.5578,532.597338 Z" id="path310" stroke="#000000" stroke-width="5" fill="#FF8080" fill-rule="nonzero" transform="translate(620.841063, 532.597350) scale(-1, 1) rotate(-180.000000) translate(-620.841063, -532.597350) "></path>
            <path d="M744.85835,532.597338 C744.85835,542.382151 736.926413,550.314088 727.1416,550.314088 C717.356787,550.314088 709.424863,542.382151 709.424863,532.597338 C709.424863,522.812526 717.356787,514.880613 727.1416,514.880613 C736.926413,514.880613 744.85835,522.812526 744.85835,532.597338 Z" id="path322" stroke="#000000" stroke-width="5" fill="#FF8080" fill-rule="nonzero" transform="translate(727.141606, 532.597350) scale(-1, 1) rotate(-180.000000) translate(-727.141606, -532.597350) "></path>
            <path d="M429.500075,531 L491.773575,531" id="path332" stroke="#000000" stroke-width="1.99255005" transform="translate(460.636825, 531.996275) scale(-1, 1) rotate(-180.000000) translate(-460.636825, -531.996275) "></path>
            <path d="M488.934225,536.383187 C489.170825,534.963487 491.773575,532.83395 492.4834,532.597362 C491.773575,532.360775 489.170825,530.231237 488.934225,528.811537" id="path338" stroke="#000000" stroke-width="1.59402505" stroke-linecap="round" stroke-linejoin="round" transform="translate(490.708813, 532.597362) scale(-1, 1) rotate(-180.000000) translate(-490.708813, -532.597362) "></path>
            <path d="M535.800625,531 L598.0741,531" id="path342" stroke="#000000" stroke-width="1.99255005" transform="translate(566.937363, 531.996275) scale(-1, 1) rotate(-180.000000) translate(-566.937363, -531.996275) "></path>
            <path d="M595.23475,536.383187 C595.47135,534.963487 598.0741,532.83395 598.783925,532.597362 C598.0741,532.360775 595.47135,530.231237 595.23475,528.811537" id="path348" stroke="#000000" stroke-width="1.59402505" stroke-linecap="round" stroke-linejoin="round" transform="translate(597.009338, 532.597362) scale(-1, 1) rotate(-180.000000) translate(-597.009338, -532.597362) "></path>
            <path d="M642.101137,531 L704.374638,531" id="path352" stroke="#000000" stroke-width="1.99255005" transform="translate(673.237887, 531.996275) scale(-1, 1) rotate(-180.000000) translate(-673.237887, -531.996275) "></path>
            <path d="M701.535287,536.383187 C701.771887,534.963487 704.374637,532.83395 705.084462,532.597362 C704.374637,532.360775 701.771887,530.231237 701.535287,528.811537" id="path358" stroke="#000000" stroke-width="1.59402505" stroke-linecap="round" stroke-linejoin="round" transform="translate(703.309874, 532.597362) scale(-1, 1) rotate(-180.000000) translate(-703.309874, -532.597362) "></path>
            <path d="M748.401687,531 L796.50175,531" id="path362" stroke="#000000" stroke-width="1.99255005" transform="translate(772.451718, 531.996275) scale(-1, 1) rotate(-180.000000) translate(-772.451718, -531.996275) "></path>
            <polygon id="path374" stroke="#000000" stroke-width="0.9962625" fill="#FFF880" fill-rule="nonzero" transform="translate(408.240006, 585.747631) scale(-1, 1) rotate(-180.000000) translate(-408.240006, -585.747631) " points="390.523262 568.030887 425.95675 568.030887 425.95675 603.464375 390.523262 603.464375"></polygon>
            <path d="M532.257275,585.747625 C532.257275,595.532438 524.325337,603.464375 514.540525,603.464375 C504.755713,603.464375 496.823775,595.532438 496.823775,585.747625 C496.823775,575.9628 504.755713,568.030875 514.540525,568.030875 C524.325337,568.030875 532.257275,575.9628 532.257275,585.747625 L532.257275,585.747625 Z" id="path386" stroke="#000000" stroke-width="5" fill="#FF8080" fill-rule="nonzero" transform="translate(514.540525, 585.747625) scale(-1, 1) rotate(-180.000000) translate(-514.540525, -585.747625) "></path>
            <path d="M638.5578,585.747625 C638.5578,595.532438 630.625875,603.464375 620.841075,603.464375 C611.05625,603.464375 603.124325,595.532438 603.124325,585.747625 C603.124325,575.9628 611.05625,568.030875 620.841075,568.030875 C630.625875,568.030875 638.5578,575.9628 638.5578,585.747625 L638.5578,585.747625 Z" id="path398" stroke="#000000" stroke-width="5" fill="#FF8080" fill-rule="nonzero" transform="translate(620.841063, 585.747625) scale(-1, 1) rotate(-180.000000) translate(-620.841063, -585.747625) "></path>
            <path d="M744.85835,585.747625 C744.85835,595.532438 736.926413,603.464375 727.1416,603.464375 C717.356787,603.464375 709.424863,595.532438 709.424863,585.747625 C709.424863,575.9628 717.356787,568.030875 727.1416,568.030875 C736.926413,568.030875 744.85835,575.9628 744.85835,585.747625 L744.85835,585.747625 Z" id="path410" stroke="#000000" stroke-width="5" fill="#FF8080" fill-rule="nonzero" transform="translate(727.141606, 585.747625) scale(-1, 1) rotate(-180.000000) translate(-727.141606, -585.747625) "></path>
            <path d="M429.500075,584 L491.773575,584" id="path420" stroke="#000000" stroke-width="1.99255005" transform="translate(460.636825, 584.996275) scale(-1, 1) rotate(-180.000000) translate(-460.636825, -584.996275) "></path>
            <path d="M488.934225,589.53345 C489.170825,588.11375 491.773575,585.984212 492.4834,585.747625 C491.773575,585.511037 489.170825,583.3815 488.934225,581.9618" id="path426" stroke="#000000" stroke-width="1.59402505" stroke-linecap="round" stroke-linejoin="round" transform="translate(490.708813, 585.747625) scale(-1, 1) rotate(-180.000000) translate(-490.708813, -585.747625) "></path>
            <path d="M535.800625,584 L598.0741,584" id="path430" stroke="#000000" stroke-width="1.99255005" transform="translate(566.937363, 584.996275) scale(-1, 1) rotate(-180.000000) translate(-566.937363, -584.996275) "></path>
            <path d="M595.23475,589.53345 C595.47135,588.11375 598.0741,585.984212 598.783925,585.747625 C598.0741,585.511037 595.47135,583.3815 595.23475,581.9618" id="path436" stroke="#000000" stroke-width="1.59402505" stroke-linecap="round" stroke-linejoin="round" transform="translate(597.009338, 585.747625) scale(-1, 1) rotate(-180.000000) translate(-597.009338, -585.747625) "></path>
            <path d="M642.101137,584 L704.374638,584" id="path440" stroke="#000000" stroke-width="1.99255005" transform="translate(673.237887, 584.996275) scale(-1, 1) rotate(-180.000000) translate(-673.237887, -584.996275) "></path>
            <path d="M701.535287,589.53345 C701.771887,588.11375 704.374637,585.984212 705.084462,585.747625 C704.374637,585.511037 701.771887,583.3815 701.535287,581.9618" id="path446" stroke="#000000" stroke-width="1.59402505" stroke-linecap="round" stroke-linejoin="round" transform="translate(703.309874, 585.747625) scale(-1, 1) rotate(-180.000000) translate(-703.309874, -585.747625) "></path>
            <path d="M748.401687,584 L796.50175,584" id="path450" stroke="#000000" stroke-width="1.99255005" transform="translate(772.451718, 584.996275) scale(-1, 1) rotate(-180.000000) translate(-772.451718, -584.996275) "></path>
            <polygon id="path462" stroke="#000000" stroke-width="0.9962625" fill="#FFF880" fill-rule="nonzero" transform="translate(408.240006, 638.897906) scale(-1, 1) rotate(-180.000000) translate(-408.240006, -638.897906) " points="390.523262 621.181162 425.95675 621.181162 425.95675 656.61465 390.523262 656.61465"></polygon>
            <path d="M532.257275,638.8979 C532.257275,648.682712 524.325337,656.61465 514.540525,656.61465 C504.755713,656.61465 496.823775,648.682712 496.823775,638.8979 C496.823775,629.113087 504.755713,621.18115 514.540525,621.18115 C524.325337,621.18115 532.257275,629.113087 532.257275,638.8979 L532.257275,638.8979 Z" id="path474" stroke="#000000" stroke-width="5" fill="#FF8080" fill-rule="nonzero" transform="translate(514.540525, 638.897900) scale(-1, 1) rotate(-180.000000) translate(-514.540525, -638.897900) "></path>
            <path d="M638.5578,638.8979 C638.5578,648.682712 630.625875,656.61465 620.841075,656.61465 C611.05625,656.61465 603.124325,648.682712 603.124325,638.8979 C603.124325,629.113087 611.05625,621.18115 620.841075,621.18115 C630.625875,621.18115 638.5578,629.113087 638.5578,638.8979 L638.5578,638.8979 Z" id="path486" stroke="#000000" stroke-width="5" fill="#FF8080" fill-rule="nonzero" transform="translate(620.841063, 638.897900) scale(-1, 1) rotate(-180.000000) translate(-620.841063, -638.897900) "></path>
            <path d="M744.85835,638.8979 C744.85835,648.682712 736.926413,656.61465 727.1416,656.61465 C717.356787,656.61465 709.424863,648.682712 709.424863,638.8979 C709.424863,629.113087 717.356787,621.18115 727.1416,621.18115 C736.926413,621.18115 744.85835,629.113087 744.85835,638.8979 L744.85835,638.8979 Z" id="path498" stroke="#000000" stroke-width="5" fill="#FF8080" fill-rule="nonzero" transform="translate(727.141606, 638.897900) scale(-1, 1) rotate(-180.000000) translate(-727.141606, -638.897900) "></path>
            <path d="M429.500075,637 L491.773575,637" id="path508" stroke="#000000" stroke-width="1.99255005" transform="translate(460.636825, 637.996275) scale(-1, 1) rotate(-180.000000) translate(-460.636825, -637.996275) "></path>
            <path d="M488.934225,642.683725 C489.170825,641.264025 491.773575,639.134487 492.4834,638.8979 C491.773575,638.661312 489.170825,636.531775 488.934225,635.112075" id="path514" stroke="#000000" stroke-width="1.59402505" stroke-linecap="round" stroke-linejoin="round" transform="translate(490.708813, 638.897900) scale(-1, 1) rotate(-180.000000) translate(-490.708813, -638.897900) "></path>
            <path d="M535.800625,637 L598.0741,637" id="path518" stroke="#000000" stroke-width="1.99255005" transform="translate(566.937363, 637.996275) scale(-1, 1) rotate(-180.000000) translate(-566.937363, -637.996275) "></path>
            <path d="M595.23475,642.683725 C595.47135,641.264025 598.0741,639.134487 598.783925,638.8979 C598.0741,638.661312 595.47135,636.531775 595.23475,635.112075" id="path524" stroke="#000000" stroke-width="1.59402505" stroke-linecap="round" stroke-linejoin="round" transform="translate(597.009338, 638.897900) scale(-1, 1) rotate(-180.000000) translate(-597.009338, -638.897900) "></path>
            <path d="M642.101137,637 L704.374638,637" id="path528" stroke="#000000" stroke-width="1.99255005" transform="translate(673.237887, 637.996275) scale(-1, 1) rotate(-180.000000) translate(-673.237887, -637.996275) "></path>
            <path d="M701.535287,642.683725 C701.771887,641.264025 704.374637,639.134487 705.084462,638.8979 C704.374637,638.661312 701.771887,636.531775 701.535287,635.112075" id="path534" stroke="#000000" stroke-width="1.59402505" stroke-linecap="round" stroke-linejoin="round" transform="translate(703.309874, 638.897900) scale(-1, 1) rotate(-180.000000) translate(-703.309874, -638.897900) "></path>
            <path d="M748.401687,637 L796.50175,637" id="path538" stroke="#000000" stroke-width="1.99255005" transform="translate(772.451718, 637.996275) scale(-1, 1) rotate(-180.000000) translate(-772.451718, -637.996275) "></path>
            <path d="M514,403.8412 L514,394.406588" id="path594" stroke="#000000" stroke-width="1.49441257" transform="translate(514.747206, 399.123894) scale(-1, 1) rotate(-180.000000) translate(-514.747206, -399.123894) "></path>
            <path d="M513.046125,406.132625 C513.245387,404.937075 515.437175,403.143775 516.034925,402.94455 C515.437175,402.745325 513.245387,400.952025 513.046125,399.756475" id="path600" stroke="#000000" stroke-width="1.19549997" stroke-linecap="round" stroke-linejoin="round" transform="translate(514.540525, 402.944550) scale(-1, 1) rotate(90.000000) translate(-514.540525, -402.944550) "></path>
            <path d="M620,403.8412 L620,394.406588" id="path604" stroke="#000000" stroke-width="1.49441257" transform="translate(620.747206, 399.123894) scale(-1, 1) rotate(-180.000000) translate(-620.747206, -399.123894) "></path>
            <path d="M619.346675,406.132625 C619.545937,404.937075 621.737725,403.143775 622.335475,402.94455 C621.737725,402.745325 619.545937,400.952025 619.346675,399.756475" id="path610" stroke="#000000" stroke-width="1.19549997" stroke-linecap="round" stroke-linejoin="round" transform="translate(620.841075, 402.944550) scale(-1, 1) rotate(90.000000) translate(-620.841075, -402.944550) "></path>
            <path d="M727,403.8412 L727,394.406588" id="path614" stroke="#000000" stroke-width="1.49441257" transform="translate(727.747206, 399.123894) scale(-1, 1) rotate(-180.000000) translate(-727.747206, -399.123894) "></path>
            <path d="M725.6472,406.132625 C725.846463,404.937075 728.03825,403.143775 728.636,402.94455 C728.03825,402.745325 725.846463,400.952025 725.6472,399.756475" id="path620" stroke="#000000" stroke-width="1.19549997" stroke-linecap="round" stroke-linejoin="round" transform="translate(727.141600, 402.944550) scale(-1, 1) rotate(90.000000) translate(-727.141600, -402.944550) "></path>
            <path d="M514,456.991475 L514,447.556887" id="path624" stroke="#000000" stroke-width="1.49441257" transform="translate(514.747206, 452.274181) scale(-1, 1) rotate(-180.000000) translate(-514.747206, -452.274181) "></path>
            <path d="M513.046125,459.2829 C513.245387,458.08735 515.437175,456.29405 516.034925,456.094825 C515.437175,455.8956 513.245387,454.1023 513.046125,452.90675" id="path630" stroke="#000000" stroke-width="1.19549997" stroke-linecap="round" stroke-linejoin="round" transform="translate(514.540525, 456.094825) scale(-1, 1) rotate(90.000000) translate(-514.540525, -456.094825) "></path>
            <path d="M620,456.991475 L620,447.556887" id="path634" stroke="#000000" stroke-width="1.49441257" transform="translate(620.747206, 452.274181) scale(-1, 1) rotate(-180.000000) translate(-620.747206, -452.274181) "></path>
            <path d="M619.346675,459.2829 C619.545937,458.08735 621.737725,456.29405 622.335475,456.094825 C621.737725,455.8956 619.545937,454.1023 619.346675,452.90675" id="path640" stroke="#000000" stroke-width="1.19549997" stroke-linecap="round" stroke-linejoin="round" transform="translate(620.841075, 456.094825) scale(-1, 1) rotate(90.000000) translate(-620.841075, -456.094825) "></path>
            <path d="M727,456.991475 L727,447.556887" id="path644" stroke="#000000" stroke-width="1.49441257" transform="translate(727.747206, 452.274181) scale(-1, 1) rotate(-180.000000) translate(-727.747206, -452.274181) "></path>
            <path d="M725.6472,459.2829 C725.846463,458.08735 728.03825,456.29405 728.636,456.094825 C728.03825,455.8956 725.846463,454.1023 725.6472,452.90675" id="path650" stroke="#000000" stroke-width="1.19549997" stroke-linecap="round" stroke-linejoin="round" transform="translate(727.141600, 456.094825) scale(-1, 1) rotate(90.000000) translate(-727.141600, -456.094825) "></path>
            <path d="M514,510.14175 L514,500.707162" id="path654" stroke="#000000" stroke-width="1.49441257" transform="translate(514.747206, 505.424456) scale(-1, 1) rotate(-180.000000) translate(-514.747206, -505.424456) "></path>
            <path d="M513.046125,512.433175 C513.245387,511.237625 515.437175,509.444325 516.034925,509.2451 C515.437175,509.045875 513.245387,507.252575 513.046125,506.057025" id="path660" stroke="#000000" stroke-width="1.19549997" stroke-linecap="round" stroke-linejoin="round" transform="translate(514.540525, 509.245100) scale(-1, 1) rotate(90.000000) translate(-514.540525, -509.245100) "></path>
            <path d="M620,510.14175 L620,500.707162" id="path664" stroke="#000000" stroke-width="1.49441257" transform="translate(620.747206, 505.424456) scale(-1, 1) rotate(-180.000000) translate(-620.747206, -505.424456) "></path>
            <path d="M619.346675,512.433175 C619.545937,511.237625 621.737725,509.444325 622.335475,509.2451 C621.737725,509.045875 619.545937,507.252575 619.346675,506.057025" id="path670" stroke="#000000" stroke-width="1.19549997" stroke-linecap="round" stroke-linejoin="round" transform="translate(620.841075, 509.245100) scale(-1, 1) rotate(90.000000) translate(-620.841075, -509.245100) "></path>
            <path d="M727,510.14175 L727,500.707162" id="path674" stroke="#000000" stroke-width="1.49441257" transform="translate(727.747206, 505.424456) scale(-1, 1) rotate(-180.000000) translate(-727.747206, -505.424456) "></path>
            <path d="M725.6472,512.433175 C725.846463,511.237625 728.03825,509.444325 728.636,509.2451 C728.03825,509.045875 725.846463,507.252575 725.6472,506.057025" id="path680" stroke="#000000" stroke-width="1.19549997" stroke-linecap="round" stroke-linejoin="round" transform="translate(727.141600, 509.245100) scale(-1, 1) rotate(90.000000) translate(-727.141600, -509.245100) "></path>
            <path d="M514,563.292037 L514,553.857425" id="path684" stroke="#000000" stroke-width="1.49441257" transform="translate(514.747206, 558.574731) scale(-1, 1) rotate(-180.000000) translate(-514.747206, -558.574731) "></path>
            <path d="M513.046125,565.583462 C513.245387,564.387912 515.437175,562.594612 516.034925,562.395387 C515.437175,562.196162 513.245387,560.402862 513.046125,559.207312" id="path690" stroke="#000000" stroke-width="1.19549997" stroke-linecap="round" stroke-linejoin="round" transform="translate(514.540525, 562.395387) scale(-1, 1) rotate(90.000000) translate(-514.540525, -562.395387) "></path>
            <path d="M620,563.292037 L620,553.857425" id="path694" stroke="#000000" stroke-width="1.49441257" transform="translate(620.747206, 558.574731) scale(-1, 1) rotate(-180.000000) translate(-620.747206, -558.574731) "></path>
            <path d="M619.346675,565.583462 C619.545937,564.387912 621.737725,562.594612 622.335475,562.395387 C621.737725,562.196162 619.545937,560.402862 619.346675,559.207312" id="path700" stroke="#000000" stroke-width="1.19549997" stroke-linecap="round" stroke-linejoin="round" transform="translate(620.841075, 562.395387) scale(-1, 1) rotate(90.000000) translate(-620.841075, -562.395387) "></path>
            <path d="M727,563.292037 L727,553.857425" id="path704" stroke="#000000" stroke-width="1.49441257" transform="translate(727.747206, 558.574731) scale(-1, 1) rotate(-180.000000) translate(-727.747206, -558.574731) "></path>
            <path d="M725.6472,565.583462 C725.846463,564.387912 728.03825,562.594612 728.636,562.395387 C728.03825,562.196162 725.846463,560.402862 725.6472,559.207312" id="path710" stroke="#000000" stroke-width="1.19549997" stroke-linecap="round" stroke-linejoin="round" transform="translate(727.141600, 562.395387) scale(-1, 1) rotate(90.000000) translate(-727.141600, -562.395387) "></path>
            <path d="M514,616.442312 L514,607.0077" id="path714" stroke="#000000" stroke-width="1.49441257" transform="translate(514.747206, 611.725006) scale(-1, 1) rotate(-180.000000) translate(-514.747206, -611.725006) "></path>
            <path d="M513.046125,618.733737 C513.245387,617.538187 515.437175,615.744887 516.034925,615.545662 C515.437175,615.346437 513.245387,613.553137 513.046125,612.357587" id="path720" stroke="#000000" stroke-width="1.19549997" stroke-linecap="round" stroke-linejoin="round" transform="translate(514.540525, 615.545662) scale(-1, 1) rotate(90.000000) translate(-514.540525, -615.545662) "></path>
            <path d="M620,616.442312 L620,607.0077" id="path724" stroke="#000000" stroke-width="1.49441257" transform="translate(620.747206, 611.725006) scale(-1, 1) rotate(-180.000000) translate(-620.747206, -611.725006) "></path>
            <path d="M619.346675,618.733737 C619.545937,617.538187 621.737725,615.744887 622.335475,615.545662 C621.737725,615.346437 619.545937,613.553137 619.346675,612.357587" id="path730" stroke="#000000" stroke-width="1.19549997" stroke-linecap="round" stroke-linejoin="round" transform="translate(620.841075, 615.545662) scale(-1, 1) rotate(90.000000) translate(-620.841075, -615.545662) "></path>
            <path d="M727,616.442312 L727,607.0077" id="path734" stroke="#000000" stroke-width="1.49441257" transform="translate(727.747206, 611.725006) scale(-1, 1) rotate(-180.000000) translate(-727.747206, -611.725006) "></path>
            <path d="M725.6472,618.733737 C725.846463,617.538187 728.03825,615.744887 728.636,615.545662 C728.03825,615.346437 725.846463,613.553137 725.6472,612.357587" id="path740" stroke="#000000" stroke-width="1.19549997" stroke-linecap="round" stroke-linejoin="round" transform="translate(727.141600, 615.545662) scale(-1, 1) rotate(90.000000) translate(-727.141600, -615.545662) "></path>
            <text id="_" fill="#000000" font-family="Helvetica-Bold, Helvetica" font-size="28" font-weight="bold">
                <tspan x="400" y="383">_</tspan>
            </text>
            <text id="a" fill="#000000" font-family="Helvetica-Bold, Helvetica" font-size="28" font-weight="bold">
                <tspan x="400" y="435">a</tspan>
            </text>
            <text id="_" fill="#000000" font-family="Helvetica-Bold, Helvetica" font-size="28" font-weight="bold">
                <tspan x="400" y="487">_</tspan>
            </text>
            <text id="a" fill="#000000" font-family="Helvetica-Bold, Helvetica" font-size="28" font-weight="bold">
                <tspan x="400" y="594">a</tspan>
            </text>
            <text id="n" fill="#000000" font-family="Helvetica-Bold, Helvetica" font-size="28" font-weight="bold">
                <tspan x="399" y="647">n</tspan>
            </text>
            <text id="m" fill="#000000" font-family="Helvetica-Bold, Helvetica" font-size="28" font-weight="bold">
                <tspan x="396" y="541">m</tspan>
            </text>
            <text id="o" fill="#000000" font-family="Helvetica-Bold, Helvetica" font-size="28" font-weight="bold">
                <tspan x="815" y="62">o</tspan>
            </text>
            <text id="b" fill="#000000" font-family="Helvetica-Bold, Helvetica" font-size="28" font-weight="bold">
                <tspan x="815" y="117">b</tspan>
            </text>
            <text id="i" fill="#000000" font-family="Helvetica-Bold, Helvetica" font-size="28" font-weight="bold">
                <tspan x="820" y="223">i</tspan>
            </text>
            <text id="s" fill="#000000" font-family="Helvetica-Bold, Helvetica" font-size="28" font-weight="bold">
                <tspan x="816" y="274">s</tspan>
            </text>
            <text id="_" fill="#000000" font-family="Helvetica-Bold, Helvetica" font-size="28" font-weight="bold">
                <tspan x="816" y="166">_</tspan>
            </text>
            <text id="_" fill="#000000" font-family="Helvetica-Bold, Helvetica" font-size="28" font-weight="bold">
                <tspan x="816" y="329">_</tspan>
            </text>
            <text id="a" fill="#000000" font-family="Helvetica-Bold, Helvetica" font-size="28" font-weight="bold">
                <tspan x="816" y="381">a</tspan>
            </text>
            <text id="_" fill="#000000" font-family="Helvetica-Bold, Helvetica" font-size="28" font-weight="bold">
                <tspan x="816" y="433">_</tspan>
            </text>
            <text id="a" fill="#000000" font-family="Helvetica-Bold, Helvetica" font-size="28" font-weight="bold">
                <tspan x="816" y="540">a</tspan>
            </text>
            <text id="n" fill="#000000" font-family="Helvetica-Bold, Helvetica" font-size="28" font-weight="bold">
                <tspan x="815" y="593">n</tspan>
            </text>
            <text id="m" fill="#000000" font-family="Helvetica-Bold, Helvetica" font-size="28" font-weight="bold">
                <tspan x="812" y="486">m</tspan>
            </text>
            <path d="M514,691.852662 L514,661.158" id="path744" stroke="#000000" stroke-width="1.49441257" transform="translate(514.747206, 676.505331) scale(-1, 1) rotate(-180.000000) translate(-514.747206, -676.505331) "></path>
            <path d="M513.046125,694.144088 C513.245387,692.948538 515.437175,691.155237 516.034925,690.956013 C515.437175,690.756787 513.245387,688.963488 513.046125,687.767938" id="path750" stroke="#000000" stroke-width="1.19549997" stroke-linecap="round" stroke-linejoin="round" transform="translate(514.540525, 690.956013) scale(-1, 1) rotate(90.000000) translate(-514.540525, -690.956013) "></path>
            <path d="M620,691.852662 L620,661.158" id="path754" stroke="#000000" stroke-width="1.49441257" transform="translate(620.747206, 676.505331) scale(-1, 1) rotate(-180.000000) translate(-620.747206, -676.505331) "></path>
            <path d="M619.346675,694.144088 C619.545937,692.948538 621.737725,691.155237 622.335475,690.956013 C621.737725,690.756787 619.545937,688.963488 619.346675,687.767938" id="path760" stroke="#000000" stroke-width="1.19549997" stroke-linecap="round" stroke-linejoin="round" transform="translate(620.841075, 690.956013) scale(-1, 1) rotate(90.000000) translate(-620.841075, -690.956013) "></path>
            <path d="M727,691.852662 L727,661.158" id="path764" stroke="#000000" stroke-width="1.49441257" transform="translate(727.747206, 676.505331) scale(-1, 1) rotate(-180.000000) translate(-727.747206, -676.505331) "></path>
            <path d="M725.6472,694.144088 C725.846463,692.948538 728.03825,691.155237 728.636,690.956013 C728.03825,690.756787 725.846463,688.963488 725.6472,687.767938" id="path770" stroke="#000000" stroke-width="1.19549997" stroke-linecap="round" stroke-linejoin="round" transform="translate(727.141600, 690.956013) scale(-1, 1) rotate(90.000000) translate(-727.141600, -690.956013) "></path>
            <path d="M371.031913,694.262375 C371.268513,692.842675 373.871263,690.713137 374.581088,690.47655 C373.871263,690.239962 371.268513,688.110425 371.031913,686.690725" id="path780" stroke="#000000" stroke-width="1.59402505" stroke-linecap="round" stroke-linejoin="round" transform="translate(372.806500, 690.476550) scale(-1, 1) rotate(90.000000) translate(-372.806500, -690.476550) "></path>
            <text id="..." fill="#000000" font-family="Helvetica-Bold, Helvetica" font-size="28" font-weight="bold">
                <tspan x="811" y="642">...</tspan>
            </text>
            <path d="M388.5,533 L330.49138,533" id="Line" stroke="#000000" stroke-width="4" stroke-linecap="square"></path>
            <path d="M388.5,640 L330.49138,640" id="Line" stroke="#000000" stroke-width="4" stroke-linecap="square"></path>
            <path d="M330.5,533.5 L330,640" id="Line-2" stroke="#000000" stroke-width="4" stroke-linecap="square"></path>
            <path d="M388.5,53 L330.49138,53" id="Line" stroke="#000000" stroke-width="4" stroke-linecap="square"></path>
            <path d="M388.5,160 L330.49138,160" id="Line" stroke="#000000" stroke-width="4" stroke-linecap="square"></path>
            <path d="M330.5,53.5 L330,160" id="Line-2" stroke="#000000" stroke-width="4" stroke-linecap="square"></path>
            <path d="M329,104 L192,358.5" id="Line-3" stroke="#000000" stroke-width="4.5" stroke-linecap="square"></path>
            <path d="M192,360 L329,590" id="Line-4" stroke="#000000" stroke-width="4.5" stroke-linecap="square"></path>
            <text id="" stroke="#000000" stroke-width="3" font-family="Helvetica-Bold, Helvetica" font-size="175" font-weight="bold">
                <tspan x="0" y="422" fill="#4A90E2">	</tspan>
                <tspan x="28" y="422" font-family="ZapfDingbatsITC, Zapf Dingbats" font-weight="normal" fill="#FF8080"></tspan>
            </text>
        </g>
    </g>
</svg>