<?xml version="1.0" encoding="UTF-8"?>
<svg width="422px" height="384px" viewBox="0 0 422 384" version="1.1" xmlns="http://www.w3.org/2000/svg" xmlns:xlink="http://www.w3.org/1999/xlink">
    <!-- Generator: Sketch 46.2 (44496) - http://www.bohemiancoding.com/sketch -->
    <title>Group</title>
    <desc>Created with Sketch.</desc>
    <defs></defs>
    <g id="Page-1" stroke="none" stroke-width="1" fill="none" fill-rule="evenodd">
        <g id="Group" stroke="#000000">
            <g id="rnn-compress" transform="translate(12.000000, 9.000000)">
                <g id="g10" transform="translate(205.750000, 20.303750) scale(-1, 1) rotate(-180.000000) translate(-205.750000, -20.303750) translate(0.750000, 0.928750)">
                    <g id="g12" transform="translate(0.715000, 0.715000)">
                        <g id="g14">
                            <g id="g16">
                                <g id="g18" stroke-width="0.9962625" fill="#FFF880" fill-rule="nonzero">
                                    <g id="g20">
                                        <polygon id="path22" points="1.0332625 1.0332625 36.46675 1.0332625 36.46675 36.46675 1.0332625 36.46675"></polygon>
                                    </g>
                                </g>
                                <g id="g28" transform="translate(106.250000, 0.000000)" stroke-width="0.9962625" fill="#8080FF" fill-rule="nonzero">
                                    <g id="g30">
                                        <path d="M36.517275,18.75 C36.517275,28.5348 28.5853375,36.4667375 18.800525,36.4667375 C9.0157125,36.4667375 1.083775,28.5348 1.083775,18.75 C1.083775,8.9652 9.0157125,1.0332625 18.800525,1.0332625 C28.5853375,1.0332625 36.517275,8.9652 36.517275,18.75 Z" id="path32"></path>
                                    </g>
                                </g>
                                <g id="g40" transform="translate(212.500000, 0.000000)" stroke-width="0.9962625" fill="#8080FF" fill-rule="nonzero">
                                    <g id="g42">
                                        <path d="M36.5678,18.75 C36.5678,28.5348 28.635875,36.4667375 18.851075,36.4667375 C9.06625,36.4667375 1.134325,28.5348 1.134325,18.75 C1.134325,8.9652 9.06625,1.0332625 18.851075,1.0332625 C28.635875,1.0332625 36.5678,8.9652 36.5678,18.75 L36.5678,18.75 Z" id="path44"></path>
                                    </g>
                                </g>
                                <g id="g52" transform="translate(318.750000, 0.000000)" stroke-width="0.9962625" fill="#8080FF" fill-rule="nonzero">
                                    <g id="g54">
                                        <path d="M36.61835,18.75 C36.61835,28.5348 28.6864125,36.4667375 18.9016,36.4667375 C9.1167875,36.4667375 1.1848625,28.5348 1.1848625,18.75 C1.1848625,8.9652 9.1167875,1.0332625 18.9016,1.0332625 C28.6864125,1.0332625 36.61835,8.9652 36.61835,18.75 Z" id="path56"></path>
                                    </g>
                                </g>
                                <g id="g64" transform="translate(40.000000, 13.750000)">
                                    <path d="M0.010075,5 L62.283575,5" id="path66" stroke-width="1.99255005"></path>
                                    <g id="g68" transform="translate(58.533575, 0.000000)" stroke-linecap="round" stroke-width="1.59402505" stroke-linejoin="round">
                                        <g id="g70">
                                            <path d="M0.91065,8.785825 C1.14725,7.366125 3.75,5.2365875 4.459825,5 C3.75,4.7634125 1.14725,2.633875 0.91065,1.214175" id="path72"></path>
                                        </g>
                                    </g>
                                </g>
                                <g id="g74" transform="translate(146.250000, 13.750000)">
                                    <path d="M0.060625,5 L62.3341,5" id="path76" stroke-width="1.99255005"></path>
                                    <g id="g78" transform="translate(58.584100, 0.000000)" stroke-linecap="round" stroke-width="1.59402505" stroke-linejoin="round">
                                        <g id="g80">
                                            <path d="M0.91065,8.785825 C1.14725,7.366125 3.75,5.2365875 4.459825,5 C3.75,4.7634125 1.14725,2.633875 0.91065,1.214175" id="path82"></path>
                                        </g>
                                    </g>
                                </g>
                                <g id="g84" transform="translate(252.500000, 13.750000)">
                                    <path d="M0.1111375,5 L62.3846375,5" id="path86" stroke-width="1.99255005"></path>
                                    <g id="g88" transform="translate(58.634638, 0.000000)" stroke-linecap="round" stroke-width="1.59402505" stroke-linejoin="round">
                                        <g id="g90">
                                            <path d="M0.91065,8.785825 C1.14725,7.366125 3.75,5.2365875 4.459825,5 C3.75,4.7634125 1.14725,2.633875 0.91065,1.214175" id="path92"></path>
                                        </g>
                                    </g>
                                </g>
                                <g id="g94" transform="translate(358.750000, 13.750000)">
                                    <path d="M0.1616875,5 L48.26175,5" id="path96" stroke-width="1.99255005"></path>
                                    <g id="g98" transform="translate(44.511750, 0.000000)" stroke-linecap="round" stroke-width="1.59402505" stroke-linejoin="round">
                                        <g id="g100">
                                            <path d="M0.91065,8.785825 C1.14725,7.366125 3.75,5.2365875 4.459825,5 C3.75,4.7634125 1.14725,2.633875 0.91065,1.214175" id="path102"></path>
                                        </g>
                                    </g>
                                </g>
                            </g>
                        </g>
                    </g>
                </g>
            </g>
            <polygon id="path22" stroke-width="0.9962625" fill="#FFF880" fill-rule="nonzero" points="144.632812 367.789062 144.632812 355.629452 156.339878 355.629452 156.339878 367.789062"></polygon>
            <polygon id="path32" stroke-width="0.9962625" fill="#FFF880" fill-rule="nonzero" points="144.632812 327.752761 144.632812 315.59315 156.339878 315.59315 156.339878 327.752761 144.632812 327.752761"></polygon>
            <polygon id="path44" stroke-width="0.9962625" fill="#FFF880" fill-rule="nonzero" points="144.632812 286.572566 156.339878 286.572566 156.339878 274.412955 144.632812 274.412955"></polygon>
            <polygon id="path56" stroke-width="0.9962625" fill="#FFF880" fill-rule="nonzero" points="144.632812 246.536264 156.339878 246.536264 156.339878 234.376653 144.632812 234.376653"></polygon>
            <polygon id="path68" stroke-width="0.9962625" fill="#FFF880" fill-rule="nonzero" points="144.632812 205.356069 144.632812 193.196458 156.339878 193.196458 156.339878 205.356069"></polygon>
            <polygon id="path80" stroke-width="0.9962625" fill="#FFF880" fill-rule="nonzero" points="144.632812 165.319767 144.632812 153.160156 156.339878 153.160156 156.339878 165.319767"></polygon>
            <path d="M279.280506,341.479536 C279.280506,334.763875 274.039137,329.319882 267.573414,329.319882 C261.107691,329.319882 255.866321,334.763875 255.866321,341.479536 C255.866321,348.195182 261.107691,353.639176 267.573414,353.639176 C274.039137,353.639176 279.280506,348.195182 279.280506,341.479536 Z" id="path92" stroke-width="0.9962625" fill="#8080FF" fill-rule="nonzero"></path>
            <path d="M279.280506,300.299326 C279.280506,293.583665 274.039137,288.139686 267.573414,288.139686 C261.107691,288.139686 255.866321,293.583665 255.866321,300.299326 C255.866321,307.014987 261.107691,312.458966 267.573414,312.458966 C274.039137,312.458966 279.280506,307.014987 279.280506,300.299326 Z" id="path104" stroke-width="0.9962625" fill="#8080FF" fill-rule="nonzero"></path>
            <path d="M279.280506,260.263053 C279.280506,253.547393 274.039137,248.103385 267.573414,248.103385 C261.107691,248.103385 255.866321,253.547393 255.866321,260.263053 C255.866321,266.978685 261.107691,272.422679 267.573414,272.422679 C274.039137,272.422679 279.280506,266.978685 279.280506,260.263053 L279.280506,260.263053 Z" id="path116" stroke-width="0.9962625" fill="#8080FF" fill-rule="nonzero"></path>
            <path d="M279.280506,220.226723 C279.280506,213.511063 274.039137,208.067084 267.573414,208.067084 C261.107691,208.067084 255.866321,213.511063 255.866321,220.226723 C255.866321,226.942384 261.107691,232.386349 267.573414,232.386349 C274.039137,232.386349 279.280506,226.942384 279.280506,220.226723 Z" id="path128" stroke-width="0.9962625" fill="#8080FF" fill-rule="nonzero"></path>
            <path d="M279.280506,179.046556 C279.280506,172.330896 274.039137,166.886888 267.573414,166.886888 C261.107691,166.886888 255.866321,172.330896 255.866321,179.046556 C255.866321,185.762188 261.107691,191.206182 267.573414,191.206182 C274.039137,191.206182 279.280506,185.762188 279.280506,179.046556 Z" id="path140" stroke-width="0.9962625" fill="#8080FF" fill-rule="nonzero"></path>
            <path d="M160.051319,359.99255 L251.330155,344.190508 L160.051319,359.99255 Z" id="path256" stroke-width="0.5"></path>
            <path d="M249.25839,342.254386 C249.529268,343.074907 251.222106,344.083006 251.650933,344.153316 C251.267243,344.364287 249.980713,345.888163 249.980698,346.75558 L249.25839,342.254386 Z" id="path262" stroke-width="0.625" stroke-linecap="round" stroke-linejoin="round"></path>
            <path d="M160.051319,356.922152 L252.840783,308.729784 L160.051319,356.922152 Z" id="path264" stroke-width="0.5"></path>
            <path d="M250.359712,307.397701 C250.850455,308.098441 252.751904,308.544319 253.181226,308.480579 C252.874571,308.799102 252.07732,310.64668 252.322688,311.474867 L250.359712,307.397701 Z" id="path270" stroke-width="0.625" stroke-linecap="round" stroke-linejoin="round"></path>
            <path d="M160.051319,353.056247 L254.869845,270.981272 L160.051319,353.056247 Z" id="path272" stroke-width="0.5"></path>
            <path d="M252.562355,270.063846 C253.195653,270.63016 255.148172,270.611785 255.552705,270.447323 C255.324061,270.83098 254.954825,272.822468 255.377021,273.571526 L252.562355,270.063846 Z" id="path278" stroke-width="0.625" stroke-linecap="round" stroke-linejoin="round"></path>
            <path d="M158.949997,350.966166 L257.062522,232.088865 L158.949997,350.966166 Z" id="path280" stroke-width="0.5"></path>
            <path d="M253.663677,232.573025 C254.380264,233.022764 256.30621,232.66632 256.679436,232.433759 C256.515174,232.85239 256.470244,234.883757 257.007632,235.550603 L253.663677,232.573025 Z" id="path286" stroke-width="0.625" stroke-linecap="round" stroke-linejoin="round"></path>
            <path d="M156.747353,351.380284 L258.288472,193.196458 L156.747353,351.380284 Z" id="path288" stroke-width="0.5"></path>
            <path d="M255.866321,193.835896 C256.629438,194.192597 258.499141,193.598254 258.84253,193.32086 C258.728035,193.756766 258.918752,195.777974 259.529209,196.37249 L255.866321,193.835896 Z" id="path294" stroke-width="0.625" stroke-linecap="round" stroke-linejoin="round"></path>
            <path d="M160.051319,322.456516 L251.330155,338.258544 L160.051319,322.456516 Z" id="path296" stroke-width="0.5"></path>
            <path d="M249.980698,336.183248 C249.980713,337.050665 251.267243,338.574541 251.650933,338.785511 C251.222106,338.855822 249.529268,339.863921 249.25839,340.684441 L249.980698,336.183248 Z" id="path302" stroke-width="0.625" stroke-linecap="round" stroke-linejoin="round"></path>
            <path d="M160.051319,319.956221 L251.330155,304.154207 L160.051319,319.956221 Z" id="path304" stroke-width="0.5"></path>
            <path d="M249.25839,302.218085 C249.529268,303.038605 251.222106,304.046705 251.650933,304.117015 C251.267243,304.327985 249.980713,305.851862 249.980698,306.719278 L249.25839,302.218085 Z" id="path310" stroke-width="0.625" stroke-linecap="round" stroke-linejoin="round"></path>
            <path d="M160.051319,315.741942 L252.840783,267.549589 L160.051319,315.741942 Z" id="path312" stroke-width="0.5"></path>
            <path d="M250.359712,266.217505 C250.850455,266.918245 252.751904,267.364124 253.181226,267.300383 C252.874571,267.618907 252.07732,269.466484 252.322688,270.294671 L250.359712,266.217505 Z" id="path318" stroke-width="0.625" stroke-linecap="round" stroke-linejoin="round"></path>
            <path d="M160.051319,313.019946 L254.869845,230.94497 L160.051319,313.019946 Z" id="path320" stroke-width="0.5"></path>
            <path d="M252.562355,230.027545 C253.195653,230.593859 255.148172,230.575483 255.552705,230.411021 C255.324061,230.794679 254.954825,232.786167 255.377021,233.535224 L252.562355,230.027545 Z" id="path326" stroke-width="0.625" stroke-linecap="round" stroke-linejoin="round"></path>
            <path d="M158.949997,310.929879 L257.062522,192.052563 L158.949997,310.929879 Z" id="path328" stroke-width="0.5"></path>
            <path d="M253.663677,191.39283 C254.380264,191.842568 256.30621,191.486125 256.679436,191.253564 C256.515174,191.672194 256.470244,193.703562 257.007632,194.370408 L253.663677,191.39283 Z" id="path334" stroke-width="0.625" stroke-linecap="round" stroke-linejoin="round"></path>
            <path d="M160.051319,285.851898 L252.840783,334.044294 L160.051319,285.851898 Z" id="path336" stroke-width="0.5"></path>
            <path d="M252.322688,330.463776 C252.07732,331.291964 252.874571,333.139541 253.181226,333.458065 C252.751904,333.394324 250.850455,333.840203 250.359712,334.540943 L252.322688,330.463776 Z" id="path342" stroke-width="0.625" stroke-linecap="round" stroke-linejoin="round"></path>
            <path d="M160.051319,282.420215 L251.330155,298.222257 L160.051319,282.420215 Z" id="path344" stroke-width="0.5"></path>
            <path d="M249.980698,295.003052 C249.980713,295.870469 251.267243,297.394345 251.650933,297.605316 C251.222106,297.675626 249.529268,298.683725 249.25839,299.504246 L249.980698,295.003052 Z" id="path350" stroke-width="0.625" stroke-linecap="round" stroke-linejoin="round"></path>
            <path d="M160.051319,278.776039 L251.330155,262.974011 L160.051319,278.776039 Z" id="path352" stroke-width="0.5"></path>
            <path d="M249.25839,261.037889 C249.529268,261.85841 251.222106,262.866509 251.650933,262.936819 C251.267243,263.14779 249.980713,264.671666 249.980698,265.539083 L249.25839,261.037889 Z" id="path358" stroke-width="0.625" stroke-linecap="round" stroke-linejoin="round"></path>
            <path d="M160.051319,275.705627 L252.840783,227.513287 L160.051319,275.705627 Z" id="path360" stroke-width="0.5"></path>
            <path d="M250.359712,226.181204 C250.850455,226.881944 252.751904,227.327822 253.181226,227.264082 C252.874571,227.582605 252.07732,229.430183 252.322688,230.25837 L250.359712,226.181204 Z" id="path366" stroke-width="0.625" stroke-linecap="round" stroke-linejoin="round"></path>
            <path d="M160.051319,271.83975 L254.869845,189.764775 L160.051319,271.83975 Z" id="path368" stroke-width="0.5"></path>
            <path d="M252.562355,188.847349 C253.195653,189.413663 255.148172,189.395288 255.552705,189.230826 C255.324061,189.614483 254.954825,191.605971 255.377021,192.355029 L252.562355,188.847349 Z" id="path374" stroke-width="0.625" stroke-linecap="round" stroke-linejoin="round"></path>
            <path d="M160.051319,248.103385 L254.869845,330.178375 L160.051319,248.103385 Z" id="path376" stroke-width="0.5"></path>
            <path d="M255.377021,328.175988 C254.954825,328.925045 255.324061,330.916533 255.552705,331.300191 C255.148172,331.135729 253.195653,331.117353 252.562355,331.683668 L255.377021,328.175988 Z" id="path382" stroke-width="0.625" stroke-linecap="round" stroke-linejoin="round"></path>
            <path d="M160.051319,244.671702 L252.840783,292.86407 L160.051319,244.671702 Z" id="path384" stroke-width="0.5"></path>
            <path d="M252.322688,290.427475 C252.07732,291.255662 252.874571,293.10324 253.181226,293.421763 C252.751904,293.358023 250.850455,293.803901 250.359712,294.504642 L252.322688,290.427475 Z" id="path390" stroke-width="0.625" stroke-linecap="round" stroke-linejoin="round"></path>
            <path d="M160.051319,241.240019 L251.330155,257.042047 L160.051319,241.240019 Z" id="path392" stroke-width="0.5"></path>
            <path d="M249.980698,254.966751 C249.980713,255.834168 251.267243,257.358044 251.650933,257.569014 C251.222106,257.639325 249.529268,258.647424 249.25839,259.467944 L249.980698,254.966751 Z" id="path398" stroke-width="0.625" stroke-linecap="round" stroke-linejoin="round"></path>
            <path d="M160.051319,238.739709 L251.330155,222.93771 L160.051319,238.739709 Z" id="path400" stroke-width="0.5"></path>
            <path d="M249.25839,221.001588 C249.529268,221.822108 251.222106,222.830208 251.650933,222.900518 C251.267243,223.111488 249.980713,224.635365 249.980698,225.502781 L249.25839,221.001588 Z" id="path406" stroke-width="0.625" stroke-linecap="round" stroke-linejoin="round"></path>
            <path d="M160.051319,234.52546 L252.840783,186.333092 L160.051319,234.52546 Z" id="path408" stroke-width="0.5"></path>
            <path d="M250.359712,185.001008 C250.850455,185.701748 252.751904,186.147627 253.181226,186.083886 C252.874571,186.40241 252.07732,188.249987 252.322688,189.078175 L250.359712,185.001008 Z" id="path414" stroke-width="0.625" stroke-linecap="round" stroke-linejoin="round"></path>
            <path d="M158.949997,209.210978 L257.062522,328.088294 L158.949997,209.210978 Z" id="path416" stroke-width="0.5"></path>
            <path d="M257.007632,325.888199 C256.470244,326.555045 256.515174,328.586413 256.679436,329.005043 C256.30621,328.772482 254.380264,328.416038 253.663677,328.865777 L257.007632,325.888199 Z" id="path422" stroke-width="0.625" stroke-linecap="round" stroke-linejoin="round"></path>
            <path d="M160.051319,208.067084 L254.869845,290.142088 L160.051319,208.067084 Z" id="path424" stroke-width="0.5"></path>
            <path d="M255.377021,286.995792 C254.954825,287.74485 255.324061,289.736337 255.552705,290.119995 C255.148172,289.955533 253.195653,289.937158 252.562355,290.503472 L255.377021,286.995792 Z" id="path430" stroke-width="0.625" stroke-linecap="round" stroke-linejoin="round"></path>
            <path d="M160.051319,204.635401 L252.840783,252.827797 L160.051319,204.635401 Z" id="path432" stroke-width="0.5"></path>
            <path d="M252.322688,250.391174 C252.07732,251.219361 252.874571,253.066938 253.181226,253.385462 C252.751904,253.321721 250.850455,253.7676 250.359712,254.46834 L252.322688,250.391174 Z" id="path438" stroke-width="0.625" stroke-linecap="round" stroke-linejoin="round"></path>
            <path d="M160.051319,201.203718 L251.330155,217.005774 L160.051319,201.203718 Z" id="path440" stroke-width="0.5"></path>
            <path d="M249.980698,214.93045 C249.980713,215.797866 251.267243,217.321743 251.650933,217.532713 C251.222106,217.603023 249.529268,218.611123 249.25839,219.431643 L249.980698,214.93045 Z" id="path446" stroke-width="0.625" stroke-linecap="round" stroke-linejoin="round"></path>
            <path d="M160.051319,197.559542 L251.330155,181.757514 L160.051319,197.559542 Z" id="path448" stroke-width="0.5"></path>
            <path d="M249.25839,179.821392 C249.529268,180.641913 251.222106,181.650012 251.650933,181.720322 C251.267243,181.931293 249.980713,183.455169 249.980698,184.322586 L249.25839,179.821392 Z" id="path454" stroke-width="0.625" stroke-linecap="round" stroke-linejoin="round"></path>
            <path d="M156.747353,169.174677 L258.288472,327.358532 L156.747353,169.174677 Z" id="path456" stroke-width="0.5"></path>
            <path d="M259.529209,324.744305 C258.918752,325.33882 258.728035,327.360029 258.84253,327.795935 C258.499141,327.518541 256.629438,326.924197 255.866321,327.280898 L259.529209,324.744305 Z" id="path462" stroke-width="0.625" stroke-linecap="round" stroke-linejoin="round"></path>
            <path d="M158.949997,169.174677 L257.062522,288.052021 L158.949997,169.174677 Z" id="path464" stroke-width="0.5"></path>
            <path d="M257.007632,284.708003 C256.470244,285.37485 256.515174,287.406217 256.679436,287.824848 C256.30621,287.592287 254.380264,287.235843 253.663677,287.685581 L257.007632,284.708003 Z" id="path470" stroke-width="0.625" stroke-linecap="round" stroke-linejoin="round"></path>
            <path d="M160.051319,166.886888 L254.869845,248.961892 L160.051319,166.886888 Z" id="path472" stroke-width="0.5"></path>
            <path d="M255.377021,246.959491 C254.954825,247.708548 255.324061,249.700036 255.552705,250.083694 C255.148172,249.919232 253.195653,249.900856 252.562355,250.467171 L255.377021,246.959491 Z" id="path478" stroke-width="0.625" stroke-linecap="round" stroke-linejoin="round"></path>
            <path d="M160.051319,164.599099 L252.840783,212.791467 L160.051319,164.599099 Z" id="path480" stroke-width="0.5"></path>
            <path d="M252.322688,209.210978 C252.07732,210.039166 252.874571,211.886743 253.181226,212.205266 C252.751904,212.141526 250.850455,212.587404 250.359712,213.288145 L252.322688,209.210978 Z" id="path486" stroke-width="0.625" stroke-linecap="round" stroke-linejoin="round"></path>
            <path d="M160.051319,161.167417 L251.330155,176.969444 L160.051319,161.167417 Z" id="path488" stroke-width="0.5"></path>
            <path d="M249.980698,173.750254 C249.980713,174.617671 251.267243,176.141547 251.650933,176.352517 C251.222106,176.422828 249.529268,177.430927 249.25839,178.251447 L249.980698,173.750254 Z" id="path494" stroke-width="0.625" stroke-linecap="round" stroke-linejoin="round"></path>
            <path d="M282.298046,341.044799 L367.519364,341.044799 L282.298046,341.044799 Z" id="path496" stroke-width="0.5"></path>
            <path d="M282.298046,336.502652 L369.123618,306.441996 L282.298046,336.502652 Z" id="path504" stroke-width="0.5"></path>
            <path d="M280.095402,332.494661 L370.584398,269.837377 L280.095402,332.494661 Z" id="path512" stroke-width="0.5"></path>
            <path d="M277.892758,330.293665 L372.442424,232.088865 L277.892758,330.293665 Z" id="path520" stroke-width="0.5"></path>
            <path d="M276.791436,328.798309 L374.707031,193.196458 L276.791436,328.798309 Z" id="path528" stroke-width="0.5"></path>
            <path d="M282.298046,306.441996 L369.123618,336.502652 L282.298046,306.441996 Z" id="path536" stroke-width="0.5"></path>
            <path d="M282.298046,301.008498 L367.519364,301.008498 L282.298046,301.008498 Z" id="path544" stroke-width="0.5"></path>
            <path d="M282.298046,295.322456 L369.123618,265.2618 L282.298046,295.322456 Z" id="path552" stroke-width="0.5"></path>
            <path d="M280.095402,291.314436 L370.584398,228.657182 L280.095402,291.314436 Z" id="path560" stroke-width="0.5"></path>
            <path d="M277.892758,289.113469 L372.442424,190.908669 L277.892758,289.113469 Z" id="path568" stroke-width="0.5"></path>
            <path d="M280.095402,269.837377 L370.584398,332.494661 L280.095402,269.837377 Z" id="path576" stroke-width="0.5"></path>
            <path d="M282.298046,265.2618 L369.123618,295.322456 L282.298046,265.2618 Z" id="path584" stroke-width="0.5"></path>
            <path d="M282.298046,259.828302 L367.519364,259.828302 L282.298046,259.828302 Z" id="path592" stroke-width="0.5"></path>
            <path d="M282.298046,255.286155 L369.123618,225.225499 L282.298046,255.286155 Z" id="path600" stroke-width="0.5"></path>
            <path d="M280.095402,251.278164 L370.584398,188.62088 L280.095402,251.278164 Z" id="path608" stroke-width="0.5"></path>
            <path d="M277.892758,230.94497 L372.442424,329.149785 L277.892758,230.94497 Z" id="path616" stroke-width="0.5"></path>
            <path d="M280.095402,228.657182 L370.584398,291.314465 L280.095402,228.657182 Z" id="path624" stroke-width="0.5"></path>
            <path d="M282.298046,225.225499 L369.123618,255.286141 L282.298046,225.225499 Z" id="path632" stroke-width="0.5"></path>
            <path d="M282.298046,219.792001 L367.519364,219.792001 L282.298046,219.792001 Z" id="path640" stroke-width="0.5"></path>
            <path d="M282.298046,214.105959 L369.123618,184.045303 L282.298046,214.105959 Z" id="path648" stroke-width="0.5"></path>
            <path d="M276.791436,192.052563 L374.707031,327.654415 L276.791436,192.052563 Z" id="path656" stroke-width="0.5"></path>
            <path d="M277.892758,190.908669 L372.442424,289.113469 L277.892758,190.908669 Z" id="path664" stroke-width="0.5"></path>
            <path d="M280.095402,188.62088 L370.584398,251.278164 L280.095402,188.62088 Z" id="path672" stroke-width="0.5"></path>
            <path d="M282.298046,184.045303 L369.123618,214.105959 L282.298046,184.045303 Z" id="path680" stroke-width="0.5"></path>
            <path d="M282.298046,179.755699 L367.519364,179.755699 L282.298046,179.755699 Z" id="path688" stroke-width="0.5"></path>
            <rect id="Rectangle" stroke-width="5" x="2.5" y="2.5" width="203" height="53"></rect>
            <path d="M3.47727273,57.5 L129,380" id="Line" stroke-width="5" stroke-linecap="square"></path>
            <path d="M206,56 L392,179" id="Line-2" stroke-width="4" stroke-linecap="square"></path>
        </g>
    </g>
</svg>