<?xml version="1.0" encoding="UTF-8"?>
<svg width="797px" height="693px" viewBox="0 0 797 693" version="1.1" xmlns="http://www.w3.org/2000/svg" xmlns:xlink="http://www.w3.org/1999/xlink">
    <!-- Generator: Sketch 46.2 (44496) - http://www.bohemiancoding.com/sketch -->
    <title>Group</title>
    <desc>Created with Sketch.</desc>
    <defs></defs>
    <g id="Page-1" stroke="none" stroke-width="1" fill="none" fill-rule="evenodd">
        <g id="Group" transform="translate(-31.000000, -1.000000)">
            <polygon id="path22" stroke="#000000" stroke-width="0.9962625" fill="#FFF880" fill-rule="nonzero" transform="translate(400.240006, 54.146531) scale(-1, 1) rotate(-180.000000) translate(-400.240006, -54.146531) " points="382.523262 36.4297875 417.95675 36.4297875 417.95675 71.863275 382.523262 71.863275"></polygon>
            <path d="M524.257275,54.146525 C524.257275,44.3617125 516.325338,36.429775 506.540525,36.429775 C496.755713,36.429775 488.823775,44.3617125 488.823775,54.146525 C488.823775,63.9313375 496.755713,71.863275 506.540525,71.863275 C516.325338,71.863275 524.257275,63.9313375 524.257275,54.146525 Z" id="path34" stroke="#000000" stroke-width="5" fill="#B8E986" fill-rule="nonzero"></path>
            <path d="M630.5578,54.146525 C630.5578,63.9313375 622.625875,71.863275 612.841075,71.863275 C603.05625,71.863275 595.124325,63.9313375 595.124325,54.146525 C595.124325,44.3617125 603.05625,36.429775 612.841075,36.429775 C622.625875,36.429775 630.5578,44.3617125 630.5578,54.146525 L630.5578,54.146525 Z" id="path46" stroke="#000000" stroke-width="5" fill="#B8E986" fill-rule="nonzero" transform="translate(612.841063, 54.146525) scale(-1, 1) rotate(-180.000000) translate(-612.841063, -54.146525) "></path>
            <path d="M736.85835,54.146525 C736.85835,63.9313375 728.926413,71.863275 719.1416,71.863275 C709.356787,71.863275 701.424863,63.9313375 701.424863,54.146525 C701.424863,44.3617125 709.356787,36.429775 719.1416,36.429775 C728.926413,36.429775 736.85835,44.3617125 736.85835,54.146525 Z" id="path58" stroke="#000000" stroke-width="5" fill="#B8E986" fill-rule="nonzero" transform="translate(719.141606, 54.146525) scale(-1, 1) rotate(-180.000000) translate(-719.141606, -54.146525) "></path>
            <path d="M421.500075,52.896525 L483.773575,52.896525" id="path68" stroke="#000000" stroke-width="1.99255005" transform="translate(452.636825, 53.521525) scale(-1, 1) rotate(-180.000000) translate(-452.636825, -53.521525) "></path>
            <path d="M480.934225,57.93235 C481.170825,56.51265 483.773575,54.3831125 484.4834,54.146525 C483.773575,53.9099375 481.170825,51.7804 480.934225,50.3607" id="path74" stroke="#000000" stroke-width="1.59402505" stroke-linecap="round" stroke-linejoin="round" transform="translate(482.708813, 54.146525) scale(-1, 1) rotate(-180.000000) translate(-482.708813, -54.146525) "></path>
            <path d="M527.800625,52.896525 L590.0741,52.896525" id="path78" stroke="#000000" stroke-width="1.99255005" transform="translate(558.937363, 53.521525) scale(-1, 1) rotate(-180.000000) translate(-558.937363, -53.521525) "></path>
            <path d="M587.23475,57.93235 C587.47135,56.51265 590.0741,54.3831125 590.783925,54.146525 C590.0741,53.9099375 587.47135,51.7804 587.23475,50.3607" id="path84" stroke="#000000" stroke-width="1.59402505" stroke-linecap="round" stroke-linejoin="round" transform="translate(589.009338, 54.146525) scale(-1, 1) rotate(-180.000000) translate(-589.009338, -54.146525) "></path>
            <path d="M634.101138,52.896525 L696.374638,52.896525" id="path88" stroke="#000000" stroke-width="1.99255005" transform="translate(665.237888, 53.521525) scale(-1, 1) rotate(-180.000000) translate(-665.237888, -53.521525) "></path>
            <path d="M693.535287,57.93235 C693.771887,56.51265 696.374637,54.3831125 697.084462,54.146525 C696.374637,53.9099375 693.771887,51.7804 693.535287,50.3607" id="path94" stroke="#000000" stroke-width="1.59402505" stroke-linecap="round" stroke-linejoin="round" transform="translate(695.309875, 54.146525) scale(-1, 1) rotate(-180.000000) translate(-695.309875, -54.146525) "></path>
            <path d="M740.401687,52.896525 L788.50175,52.896525" id="path98" stroke="#000000" stroke-width="1.99255005" transform="translate(764.451719, 53.521525) scale(-1, 1) rotate(-180.000000) translate(-764.451719, -53.521525) "></path>
            <path d="M785.6624,57.93235 C785.899,56.51265 788.50175,54.3831125 789.211575,54.146525 C788.50175,53.9099375 785.899,51.7804 785.6624,50.3607" id="path104" stroke="#000000" stroke-width="1.59402505" stroke-linecap="round" stroke-linejoin="round" transform="translate(787.436988, 54.146525) scale(-1, 1) rotate(-180.000000) translate(-787.436988, -54.146525) "></path>
            <polygon id="path110" stroke="#000000" stroke-width="0.9962625" fill="#FFF880" fill-rule="nonzero" transform="translate(400.240006, 107.296806) scale(-1, 1) rotate(-180.000000) translate(-400.240006, -107.296806) " points="382.523262 89.5800625 417.95675 89.5800625 417.95675 125.01355 382.523262 125.01355"></polygon>
            <path d="M524.257275,107.2968 C524.257275,97.5119875 516.325338,89.5800375 506.540525,89.5800375 C496.755713,89.5800375 488.823775,97.5119875 488.823775,107.2968 C488.823775,117.081612 496.755713,125.01355 506.540525,125.01355 C516.325338,125.01355 524.257275,117.081612 524.257275,107.2968 Z" id="path122" stroke="#000000" stroke-width="5" fill="#B8E986" fill-rule="nonzero"></path>
            <path d="M630.5578,107.296787 C630.5578,117.0816 622.625875,125.01355 612.841075,125.01355 C603.05625,125.01355 595.124325,117.0816 595.124325,107.296787 C595.124325,97.511975 603.05625,89.5800375 612.841075,89.5800375 C622.625875,89.5800375 630.5578,97.511975 630.5578,107.296787 L630.5578,107.296787 Z" id="path134" stroke="#000000" stroke-width="5" fill="#B8E986" fill-rule="nonzero" transform="translate(612.841063, 107.296794) scale(-1, 1) rotate(-180.000000) translate(-612.841063, -107.296794) "></path>
            <path d="M736.85835,107.296787 C736.85835,117.0816 728.926413,125.01355 719.1416,125.01355 C709.356787,125.01355 701.424863,117.0816 701.424863,107.296787 C701.424863,97.511975 709.356787,89.5800375 719.1416,89.5800375 C728.926413,89.5800375 736.85835,97.511975 736.85835,107.296787 Z" id="path146" stroke="#000000" stroke-width="5" fill="#B8E986" fill-rule="nonzero" transform="translate(719.141606, 107.296794) scale(-1, 1) rotate(-180.000000) translate(-719.141606, -107.296794) "></path>
            <path d="M421.500075,106.0468 L483.773575,106.0468" id="path156" stroke="#000000" stroke-width="1.99255005" transform="translate(452.636825, 106.671800) scale(-1, 1) rotate(-180.000000) translate(-452.636825, -106.671800) "></path>
            <path d="M480.934225,111.082625 C481.170825,109.662925 483.773575,107.533388 484.4834,107.2968 C483.773575,107.060213 481.170825,104.930675 480.934225,103.510975" id="path162" stroke="#000000" stroke-width="1.59402505" stroke-linecap="round" stroke-linejoin="round" transform="translate(482.708813, 107.296800) scale(-1, 1) rotate(-180.000000) translate(-482.708813, -107.296800) "></path>
            <path d="M527.800625,106.0468 L590.0741,106.0468" id="path166" stroke="#000000" stroke-width="1.99255005" transform="translate(558.937363, 106.671800) scale(-1, 1) rotate(-180.000000) translate(-558.937363, -106.671800) "></path>
            <path d="M587.23475,111.082625 C587.47135,109.662925 590.0741,107.533388 590.783925,107.2968 C590.0741,107.060213 587.47135,104.930675 587.23475,103.510975" id="path172" stroke="#000000" stroke-width="1.59402505" stroke-linecap="round" stroke-linejoin="round" transform="translate(589.009338, 107.296800) scale(-1, 1) rotate(-180.000000) translate(-589.009338, -107.296800) "></path>
            <path d="M634.101138,106.0468 L696.374638,106.0468" id="path176" stroke="#000000" stroke-width="1.99255005" transform="translate(665.237888, 106.671800) scale(-1, 1) rotate(-180.000000) translate(-665.237888, -106.671800) "></path>
            <path d="M693.535287,111.082625 C693.771887,109.662925 696.374637,107.533387 697.084462,107.2968 C696.374637,107.060212 693.771887,104.930675 693.535287,103.510975" id="path182" stroke="#000000" stroke-width="1.59402505" stroke-linecap="round" stroke-linejoin="round" transform="translate(695.309875, 107.296800) scale(-1, 1) rotate(-180.000000) translate(-695.309875, -107.296800) "></path>
            <path d="M740.401687,106.0468 L788.50175,106.0468" id="path186" stroke="#000000" stroke-width="1.99255005" transform="translate(764.451719, 106.671800) scale(-1, 1) rotate(-180.000000) translate(-764.451719, -106.671800) "></path>
            <path d="M785.6624,111.082625 C785.899,109.662925 788.50175,107.533387 789.211575,107.2968 C788.50175,107.060212 785.899,104.930675 785.6624,103.510975" id="path192" stroke="#000000" stroke-width="1.59402505" stroke-linecap="round" stroke-linejoin="round" transform="translate(787.436988, 107.296800) scale(-1, 1) rotate(-180.000000) translate(-787.436988, -107.296800) "></path>
            <polygon id="path198" stroke="#000000" stroke-width="0.9962625" fill="#FFF880" fill-rule="nonzero" transform="translate(400.240006, 160.447069) scale(-1, 1) rotate(-180.000000) translate(-400.240006, -160.447069) " points="382.523262 142.730325 417.95675 142.730325 417.95675 178.163812 382.523262 178.163812"></polygon>
            <path d="M524.257275,160.447062 C524.257275,150.662275 516.325338,142.730337 506.540525,142.730337 C496.755713,142.730337 488.823775,150.662275 488.823775,160.447062 C488.823775,170.231875 496.755713,178.163812 506.540525,178.163812 C516.325338,178.163812 524.257275,170.231875 524.257275,160.447062 Z" id="path210" stroke="#000000" stroke-width="5" fill="#B8E986" fill-rule="nonzero"></path>
            <path d="M630.5578,160.447062 C630.5578,150.662275 622.625875,142.730337 612.841075,142.730337 C603.05625,142.730337 595.124325,150.662275 595.124325,160.447062 C595.124325,170.231875 603.05625,178.163812 612.841075,178.163812 C622.625875,178.163812 630.5578,170.231875 630.5578,160.447062 L630.5578,160.447062 Z" id="path222" stroke="#000000" stroke-width="5" fill="#B8E986" fill-rule="nonzero"></path>
            <path d="M736.85835,160.447087 C736.85835,170.231875 728.926413,178.163812 719.1416,178.163812 C709.356787,178.163812 701.424863,170.231875 701.424863,160.447087 C701.424863,150.662275 709.356787,142.730337 719.1416,142.730337 C728.926413,142.730337 736.85835,150.662275 736.85835,160.447087 Z" id="path234" stroke="#000000" stroke-width="5" fill="#B8E986" fill-rule="nonzero" transform="translate(719.141606, 160.447075) scale(-1, 1) rotate(-180.000000) translate(-719.141606, -160.447075) "></path>
            <path d="M421.500075,159.197062 L483.773575,159.197062" id="path244" stroke="#000000" stroke-width="1.99255005" transform="translate(452.636825, 159.822062) scale(-1, 1) rotate(-180.000000) translate(-452.636825, -159.822062) "></path>
            <path d="M480.934225,164.232887 C481.170825,162.813187 483.773575,160.68365 484.4834,160.447062 C483.773575,160.210475 481.170825,158.080937 480.934225,156.661237" id="path250" stroke="#000000" stroke-width="1.59402505" stroke-linecap="round" stroke-linejoin="round" transform="translate(482.708813, 160.447062) scale(-1, 1) rotate(-180.000000) translate(-482.708813, -160.447062) "></path>
            <path d="M527.800625,159.197062 L590.0741,159.197062" id="path254" stroke="#000000" stroke-width="1.99255005" transform="translate(558.937363, 159.822062) scale(-1, 1) rotate(-180.000000) translate(-558.937363, -159.822062) "></path>
            <path d="M587.23475,164.232887 C587.47135,162.813187 590.0741,160.68365 590.783925,160.447062 C590.0741,160.210475 587.47135,158.080937 587.23475,156.661237" id="path260" stroke="#000000" stroke-width="1.59402505" stroke-linecap="round" stroke-linejoin="round" transform="translate(589.009338, 160.447062) scale(-1, 1) rotate(-180.000000) translate(-589.009338, -160.447062) "></path>
            <path d="M634.101138,159.197062 L696.374638,159.197062" id="path264" stroke="#000000" stroke-width="1.99255005" transform="translate(665.237888, 159.822062) scale(-1, 1) rotate(-180.000000) translate(-665.237888, -159.822062) "></path>
            <path d="M693.535287,164.232887 C693.771887,162.813187 696.374637,160.68365 697.084462,160.447062 C696.374637,160.210475 693.771887,158.080937 693.535287,156.661237" id="path270" stroke="#000000" stroke-width="1.59402505" stroke-linecap="round" stroke-linejoin="round" transform="translate(695.309875, 160.447062) scale(-1, 1) rotate(-180.000000) translate(-695.309875, -160.447062) "></path>
            <path d="M740.401687,159.197062 L788.50175,159.197062" id="path274" stroke="#000000" stroke-width="1.99255005" transform="translate(764.451719, 159.822062) scale(-1, 1) rotate(-180.000000) translate(-764.451719, -159.822062) "></path>
            <path d="M785.6624,164.232887 C785.899,162.813187 788.50175,160.68365 789.211575,160.447062 C788.50175,160.210475 785.899,158.080937 785.6624,156.661237" id="path280" stroke="#000000" stroke-width="1.59402505" stroke-linecap="round" stroke-linejoin="round" transform="translate(787.436988, 160.447062) scale(-1, 1) rotate(-180.000000) translate(-787.436988, -160.447062) "></path>
            <polygon id="path286" stroke="#000000" stroke-width="0.9962625" fill="#FFF880" fill-rule="nonzero" transform="translate(400.240006, 213.597344) scale(-1, 1) rotate(-180.000000) translate(-400.240006, -213.597344) " points="382.523262 195.8806 417.95675 195.8806 417.95675 231.314087 382.523262 231.314087"></polygon>
            <path d="M524.257275,213.597337 C524.257275,223.38215 516.325338,231.314087 506.540525,231.314087 C496.755713,231.314087 488.823775,223.38215 488.823775,213.597337 C488.823775,203.812525 496.755713,195.880612 506.540525,195.880612 C516.325338,195.880612 524.257275,203.812525 524.257275,213.597337 Z" id="path298" stroke="#000000" stroke-width="0.9962625" fill="#8080FF" fill-rule="nonzero" transform="translate(506.540525, 213.597350) scale(-1, 1) rotate(-180.000000) translate(-506.540525, -213.597350) "></path>
            <path d="M630.5578,213.597337 C630.5578,223.38215 622.625875,231.314087 612.841075,231.314087 C603.05625,231.314087 595.124325,223.38215 595.124325,213.597337 C595.124325,203.812525 603.05625,195.880612 612.841075,195.880612 C622.625875,195.880612 630.5578,203.812525 630.5578,213.597337 L630.5578,213.597337 Z" id="path310" stroke="#000000" stroke-width="0.9962625" fill="#8080FF" fill-rule="nonzero" transform="translate(612.841063, 213.597350) scale(-1, 1) rotate(-180.000000) translate(-612.841063, -213.597350) "></path>
            <path d="M736.85835,213.597337 C736.85835,223.38215 728.926413,231.314087 719.1416,231.314087 C709.356787,231.314087 701.424863,223.38215 701.424863,213.597337 C701.424863,203.812525 709.356787,195.880612 719.1416,195.880612 C728.926413,195.880612 736.85835,203.812525 736.85835,213.597337 Z" id="path322" stroke="#000000" stroke-width="0.9962625" fill="#8080FF" fill-rule="nonzero" transform="translate(719.141606, 213.597350) scale(-1, 1) rotate(-180.000000) translate(-719.141606, -213.597350) "></path>
            <path d="M421.500075,212.347362 L483.773575,212.347362" id="path332" stroke="#000000" stroke-width="1.99255005" transform="translate(452.636825, 212.972362) scale(-1, 1) rotate(-180.000000) translate(-452.636825, -212.972362) "></path>
            <path d="M480.934225,217.383187 C481.170825,215.963487 483.773575,213.83395 484.4834,213.597362 C483.773575,213.360775 481.170825,211.231237 480.934225,209.811537" id="path338" stroke="#000000" stroke-width="1.59402505" stroke-linecap="round" stroke-linejoin="round" transform="translate(482.708813, 213.597362) scale(-1, 1) rotate(-180.000000) translate(-482.708813, -213.597362) "></path>
            <path d="M527.800625,212.347362 L590.0741,212.347362" id="path342" stroke="#000000" stroke-width="1.99255005" transform="translate(558.937363, 212.972362) scale(-1, 1) rotate(-180.000000) translate(-558.937363, -212.972362) "></path>
            <path d="M587.23475,217.383187 C587.47135,215.963487 590.0741,213.83395 590.783925,213.597362 C590.0741,213.360775 587.47135,211.231237 587.23475,209.811537" id="path348" stroke="#000000" stroke-width="1.59402505" stroke-linecap="round" stroke-linejoin="round" transform="translate(589.009338, 213.597362) scale(-1, 1) rotate(-180.000000) translate(-589.009338, -213.597362) "></path>
            <path d="M634.101138,212.347362 L696.374638,212.347362" id="path352" stroke="#000000" stroke-width="1.99255005" transform="translate(665.237888, 212.972362) scale(-1, 1) rotate(-180.000000) translate(-665.237888, -212.972362) "></path>
            <path d="M693.535287,217.383187 C693.771887,215.963487 696.374637,213.83395 697.084462,213.597362 C696.374637,213.360775 693.771887,211.231237 693.535287,209.811537" id="path358" stroke="#000000" stroke-width="1.59402505" stroke-linecap="round" stroke-linejoin="round" transform="translate(695.309875, 213.597362) scale(-1, 1) rotate(-180.000000) translate(-695.309875, -213.597362) "></path>
            <path d="M740.401687,212.347362 L788.50175,212.347362" id="path362" stroke="#000000" stroke-width="1.99255005" transform="translate(764.451719, 212.972362) scale(-1, 1) rotate(-180.000000) translate(-764.451719, -212.972362) "></path>
            <path d="M785.6624,217.383187 C785.899,215.963487 788.50175,213.83395 789.211575,213.597362 C788.50175,213.360775 785.899,211.231237 785.6624,209.811537" id="path368" stroke="#000000" stroke-width="1.59402505" stroke-linecap="round" stroke-linejoin="round" transform="translate(787.436988, 213.597362) scale(-1, 1) rotate(-180.000000) translate(-787.436988, -213.597362) "></path>
            <polygon id="path374" stroke="#000000" stroke-width="0.9962625" fill="#FFF880" fill-rule="nonzero" transform="translate(400.240006, 266.747631) scale(-1, 1) rotate(-180.000000) translate(-400.240006, -266.747631) " points="382.523262 249.030887 417.95675 249.030887 417.95675 284.464375 382.523262 284.464375"></polygon>
            <path d="M524.257275,266.747625 C524.257275,276.532438 516.325338,284.464375 506.540525,284.464375 C496.755713,284.464375 488.823775,276.532437 488.823775,266.747625 C488.823775,256.9628 496.755713,249.030875 506.540525,249.030875 C516.325338,249.030875 524.257275,256.9628 524.257275,266.747625 L524.257275,266.747625 Z" id="path386" stroke="#000000" stroke-width="0.9962625" fill="#8080FF" fill-rule="nonzero" transform="translate(506.540525, 266.747625) scale(-1, 1) rotate(-180.000000) translate(-506.540525, -266.747625) "></path>
            <path d="M630.5578,266.747625 C630.5578,276.532438 622.625875,284.464375 612.841075,284.464375 C603.05625,284.464375 595.124325,276.532437 595.124325,266.747625 C595.124325,256.9628 603.05625,249.030875 612.841075,249.030875 C622.625875,249.030875 630.5578,256.9628 630.5578,266.747625 L630.5578,266.747625 Z" id="path398" stroke="#000000" stroke-width="0.9962625" fill="#8080FF" fill-rule="nonzero" transform="translate(612.841063, 266.747625) scale(-1, 1) rotate(-180.000000) translate(-612.841063, -266.747625) "></path>
            <path d="M736.85835,266.747625 C736.85835,276.532438 728.926413,284.464375 719.1416,284.464375 C709.356787,284.464375 701.424863,276.532437 701.424863,266.747625 C701.424863,256.9628 709.356787,249.030875 719.1416,249.030875 C728.926413,249.030875 736.85835,256.9628 736.85835,266.747625 L736.85835,266.747625 Z" id="path410" stroke="#000000" stroke-width="0.9962625" fill="#8080FF" fill-rule="nonzero" transform="translate(719.141606, 266.747625) scale(-1, 1) rotate(-180.000000) translate(-719.141606, -266.747625) "></path>
            <path d="M421.500075,265.497625 L483.773575,265.497625" id="path420" stroke="#000000" stroke-width="1.99255005" transform="translate(452.636825, 266.122625) scale(-1, 1) rotate(-180.000000) translate(-452.636825, -266.122625) "></path>
            <path d="M480.934225,270.53345 C481.170825,269.11375 483.773575,266.984212 484.4834,266.747625 C483.773575,266.511037 481.170825,264.3815 480.934225,262.9618" id="path426" stroke="#000000" stroke-width="1.59402505" stroke-linecap="round" stroke-linejoin="round" transform="translate(482.708813, 266.747625) scale(-1, 1) rotate(-180.000000) translate(-482.708813, -266.747625) "></path>
            <path d="M527.800625,265.497625 L590.0741,265.497625" id="path430" stroke="#000000" stroke-width="1.99255005" transform="translate(558.937363, 266.122625) scale(-1, 1) rotate(-180.000000) translate(-558.937363, -266.122625) "></path>
            <path d="M587.23475,270.53345 C587.47135,269.11375 590.0741,266.984212 590.783925,266.747625 C590.0741,266.511037 587.47135,264.3815 587.23475,262.9618" id="path436" stroke="#000000" stroke-width="1.59402505" stroke-linecap="round" stroke-linejoin="round" transform="translate(589.009338, 266.747625) scale(-1, 1) rotate(-180.000000) translate(-589.009338, -266.747625) "></path>
            <path d="M634.101138,265.497625 L696.374638,265.497625" id="path440" stroke="#000000" stroke-width="1.99255005" transform="translate(665.237888, 266.122625) scale(-1, 1) rotate(-180.000000) translate(-665.237888, -266.122625) "></path>
            <path d="M693.535287,270.53345 C693.771887,269.11375 696.374637,266.984212 697.084462,266.747625 C696.374637,266.511037 693.771887,264.3815 693.535287,262.9618" id="path446" stroke="#000000" stroke-width="1.59402505" stroke-linecap="round" stroke-linejoin="round" transform="translate(695.309875, 266.747625) scale(-1, 1) rotate(-180.000000) translate(-695.309875, -266.747625) "></path>
            <path d="M740.401687,265.497625 L788.50175,265.497625" id="path450" stroke="#000000" stroke-width="1.99255005" transform="translate(764.451719, 266.122625) scale(-1, 1) rotate(-180.000000) translate(-764.451719, -266.122625) "></path>
            <path d="M785.6624,270.53345 C785.899,269.11375 788.50175,266.984212 789.211575,266.747625 C788.50175,266.511037 785.899,264.3815 785.6624,262.9618" id="path456" stroke="#000000" stroke-width="1.59402505" stroke-linecap="round" stroke-linejoin="round" transform="translate(787.436988, 266.747625) scale(-1, 1) rotate(-180.000000) translate(-787.436988, -266.747625) "></path>
            <polygon id="path462" stroke="#000000" stroke-width="0.9962625" fill="#FFF880" fill-rule="nonzero" transform="translate(400.240006, 319.897906) scale(-1, 1) rotate(-180.000000) translate(-400.240006, -319.897906) " points="382.523262 302.181162 417.95675 302.181162 417.95675 337.61465 382.523262 337.61465"></polygon>
            <path d="M524.257275,319.8979 C524.257275,329.682712 516.325338,337.61465 506.540525,337.61465 C496.755713,337.61465 488.823775,329.682712 488.823775,319.8979 C488.823775,310.113087 496.755713,302.18115 506.540525,302.18115 C516.325338,302.18115 524.257275,310.113087 524.257275,319.8979 L524.257275,319.8979 Z" id="path474" stroke="#000000" stroke-width="0.9962625" fill="#8080FF" fill-rule="nonzero" transform="translate(506.540525, 319.897900) scale(-1, 1) rotate(-180.000000) translate(-506.540525, -319.897900) "></path>
            <path d="M630.5578,319.8979 C630.5578,329.682712 622.625875,337.61465 612.841075,337.61465 C603.05625,337.61465 595.124325,329.682712 595.124325,319.8979 C595.124325,310.113087 603.05625,302.18115 612.841075,302.18115 C622.625875,302.18115 630.5578,310.113087 630.5578,319.8979 L630.5578,319.8979 Z" id="path486" stroke="#000000" stroke-width="0.9962625" fill="#8080FF" fill-rule="nonzero" transform="translate(612.841063, 319.897900) scale(-1, 1) rotate(-180.000000) translate(-612.841063, -319.897900) "></path>
            <path d="M736.85835,319.8979 C736.85835,329.682712 728.926413,337.61465 719.1416,337.61465 C709.356787,337.61465 701.424863,329.682712 701.424863,319.8979 C701.424863,310.113087 709.356787,302.18115 719.1416,302.18115 C728.926413,302.18115 736.85835,310.113087 736.85835,319.8979 L736.85835,319.8979 Z" id="path498" stroke="#000000" stroke-width="0.9962625" fill="#8080FF" fill-rule="nonzero" transform="translate(719.141606, 319.897900) scale(-1, 1) rotate(-180.000000) translate(-719.141606, -319.897900) "></path>
            <path d="M421.500075,318.6479 L483.773575,318.6479" id="path508" stroke="#000000" stroke-width="1.99255005" transform="translate(452.636825, 319.272900) scale(-1, 1) rotate(-180.000000) translate(-452.636825, -319.272900) "></path>
            <path d="M480.934225,323.683725 C481.170825,322.264025 483.773575,320.134487 484.4834,319.8979 C483.773575,319.661312 481.170825,317.531775 480.934225,316.112075" id="path514" stroke="#000000" stroke-width="1.59402505" stroke-linecap="round" stroke-linejoin="round" transform="translate(482.708813, 319.897900) scale(-1, 1) rotate(-180.000000) translate(-482.708813, -319.897900) "></path>
            <path d="M527.800625,318.6479 L590.0741,318.6479" id="path518" stroke="#000000" stroke-width="1.99255005" transform="translate(558.937363, 319.272900) scale(-1, 1) rotate(-180.000000) translate(-558.937363, -319.272900) "></path>
            <path d="M587.23475,323.683725 C587.47135,322.264025 590.0741,320.134487 590.783925,319.8979 C590.0741,319.661312 587.47135,317.531775 587.23475,316.112075" id="path524" stroke="#000000" stroke-width="1.59402505" stroke-linecap="round" stroke-linejoin="round" transform="translate(589.009338, 319.897900) scale(-1, 1) rotate(-180.000000) translate(-589.009338, -319.897900) "></path>
            <path d="M634.101138,318.6479 L696.374638,318.6479" id="path528" stroke="#000000" stroke-width="1.99255005" transform="translate(665.237888, 319.272900) scale(-1, 1) rotate(-180.000000) translate(-665.237888, -319.272900) "></path>
            <path d="M693.535287,323.683725 C693.771887,322.264025 696.374637,320.134487 697.084462,319.8979 C696.374637,319.661312 693.771887,317.531775 693.535287,316.112075" id="path534" stroke="#000000" stroke-width="1.59402505" stroke-linecap="round" stroke-linejoin="round" transform="translate(695.309875, 319.897900) scale(-1, 1) rotate(-180.000000) translate(-695.309875, -319.897900) "></path>
            <path d="M740.401687,318.6479 L788.50175,318.6479" id="path538" stroke="#000000" stroke-width="1.99255005" transform="translate(764.451719, 319.272900) scale(-1, 1) rotate(-180.000000) translate(-764.451719, -319.272900) "></path>
            <path d="M785.6624,323.683725 C785.899,322.264025 788.50175,320.134487 789.211575,319.8979 C788.50175,319.661312 785.899,317.531775 785.6624,316.112075" id="path544" stroke="#000000" stroke-width="1.59402505" stroke-linecap="round" stroke-linejoin="round" transform="translate(787.436988, 319.897900) scale(-1, 1) rotate(-180.000000) translate(-787.436988, -319.897900) "></path>
            <path d="M785.6624,376.93235 C785.899,375.51265 788.50175,373.383112 789.211575,373.146525 C788.50175,372.909938 785.899,370.7804 785.6624,369.3607" id="path104" stroke="#000000" stroke-width="1.59402505" stroke-linecap="round" stroke-linejoin="round" transform="translate(787.436988, 373.146525) scale(-1, 1) rotate(-180.000000) translate(-787.436988, -373.146525) "></path>
            <path d="M785.6624,430.082625 C785.899,428.662925 788.50175,426.533387 789.211575,426.2968 C788.50175,426.060212 785.899,423.930675 785.6624,422.510975" id="path192" stroke="#000000" stroke-width="1.59402505" stroke-linecap="round" stroke-linejoin="round" transform="translate(787.436988, 426.296800) scale(-1, 1) rotate(-180.000000) translate(-787.436988, -426.296800) "></path>
            <path d="M785.6624,483.232888 C785.899,481.813187 788.50175,479.68365 789.211575,479.447062 C788.50175,479.210475 785.899,477.080937 785.6624,475.661237" id="path280" stroke="#000000" stroke-width="1.59402505" stroke-linecap="round" stroke-linejoin="round" transform="translate(787.436988, 479.447062) scale(-1, 1) rotate(-180.000000) translate(-787.436988, -479.447062) "></path>
            <path d="M785.6624,536.383187 C785.899,534.963487 788.50175,532.83395 789.211575,532.597362 C788.50175,532.360775 785.899,530.231237 785.6624,528.811537" id="path368" stroke="#000000" stroke-width="1.59402505" stroke-linecap="round" stroke-linejoin="round" transform="translate(787.436988, 532.597362) scale(-1, 1) rotate(-180.000000) translate(-787.436988, -532.597362) "></path>
            <path d="M785.6624,589.53345 C785.899,588.11375 788.50175,585.984212 789.211575,585.747625 C788.50175,585.511037 785.899,583.3815 785.6624,581.9618" id="path456" stroke="#000000" stroke-width="1.59402505" stroke-linecap="round" stroke-linejoin="round" transform="translate(787.436988, 585.747625) scale(-1, 1) rotate(-180.000000) translate(-787.436988, -585.747625) "></path>
            <path d="M785.6624,642.683725 C785.899,641.264025 788.50175,639.134487 789.211575,638.8979 C788.50175,638.661312 785.899,636.531775 785.6624,635.112075" id="path544" stroke="#000000" stroke-width="1.59402505" stroke-linecap="round" stroke-linejoin="round" transform="translate(787.436988, 638.897900) scale(-1, 1) rotate(-180.000000) translate(-787.436988, -638.897900) "></path>
            <path d="M506.540525,31.690925 L506.540525,0.99625" id="path564" stroke="#000000" stroke-width="1.49441257" transform="translate(507.165525, 16.343587) scale(-1, 1) rotate(-180.000000) translate(-507.165525, -16.343587) "></path>
            <path d="M505.046125,33.98235 C505.245387,32.7868 507.437175,30.9935 508.034925,30.794275 C507.437175,30.59505 505.245387,28.80175 505.046125,27.6062" id="path570" stroke="#000000" stroke-width="1.19549997" stroke-linecap="round" stroke-linejoin="round" transform="translate(506.540525, 30.794275) scale(-1, 1) rotate(-270.000000) translate(-506.540525, -30.794275) "></path>
            <path d="M612.841075,31.690925 L612.841075,0.99625" id="path574" stroke="#000000" stroke-width="1.49441257" transform="translate(613.466075, 16.343587) scale(-1, 1) rotate(-180.000000) translate(-613.466075, -16.343587) "></path>
            <path d="M611.346675,33.98235 C611.545938,32.7868 613.737725,30.9935 614.335475,30.794275 C613.737725,30.59505 611.545938,28.80175 611.346675,27.6062" id="path580" stroke="#000000" stroke-width="1.19549997" stroke-linecap="round" stroke-linejoin="round" transform="translate(612.841075, 30.794275) scale(-1, 1) rotate(-270.000000) translate(-612.841075, -30.794275) "></path>
            <path d="M719.1416,31.690925 L719.1416,0.99625" id="path584" stroke="#000000" stroke-width="1.49441257" transform="translate(719.766600, 16.343587) scale(-1, 1) rotate(-180.000000) translate(-719.766600, -16.343587) "></path>
            <path d="M717.6472,33.98235 C717.846463,32.7868 720.03825,30.9935 720.636,30.794275 C720.03825,30.59505 717.846463,28.80175 717.6472,27.6062" id="path590" stroke="#000000" stroke-width="1.19549997" stroke-linecap="round" stroke-linejoin="round" transform="translate(719.141600, 30.794275) scale(-1, 1) rotate(-270.000000) translate(-719.141600, -30.794275) "></path>
            <path d="M506.540525,84.8412 L506.540525,75.4065875" id="path594" stroke="#000000" stroke-width="1.49441257" transform="translate(507.165525, 80.123894) scale(-1, 1) rotate(-180.000000) translate(-507.165525, -80.123894) "></path>
            <path d="M505.046125,87.132625 C505.245387,85.937075 507.437175,84.143775 508.034925,83.94455 C507.437175,83.745325 505.245387,81.952025 505.046125,80.756475" id="path600" stroke="#000000" stroke-width="1.19549997" stroke-linecap="round" stroke-linejoin="round" transform="translate(506.540525, 83.944550) scale(-1, 1) rotate(-270.000000) translate(-506.540525, -83.944550) "></path>
            <path d="M612.841075,84.8412 L612.841075,75.4065875" id="path604" stroke="#000000" stroke-width="1.49441257" transform="translate(613.466075, 80.123894) scale(-1, 1) rotate(-180.000000) translate(-613.466075, -80.123894) "></path>
            <path d="M611.346675,87.132625 C611.545938,85.937075 613.737725,84.143775 614.335475,83.94455 C613.737725,83.745325 611.545938,81.952025 611.346675,80.756475" id="path610" stroke="#000000" stroke-width="1.19549997" stroke-linecap="round" stroke-linejoin="round" transform="translate(612.841075, 83.944550) scale(-1, 1) rotate(-270.000000) translate(-612.841075, -83.944550) "></path>
            <path d="M719.1416,84.8412 L719.1416,75.4065875" id="path614" stroke="#000000" stroke-width="1.49441257" transform="translate(719.766600, 80.123894) scale(-1, 1) rotate(-180.000000) translate(-719.766600, -80.123894) "></path>
            <path d="M717.6472,87.132625 C717.846463,85.937075 720.03825,84.143775 720.636,83.94455 C720.03825,83.745325 717.846463,81.952025 717.6472,80.756475" id="path620" stroke="#000000" stroke-width="1.19549997" stroke-linecap="round" stroke-linejoin="round" transform="translate(719.141600, 83.944550) scale(-1, 1) rotate(-270.000000) translate(-719.141600, -83.944550) "></path>
            <path d="M506.540525,137.991475 L506.540525,128.556887" id="path624" stroke="#000000" stroke-width="1.49441257" transform="translate(507.165525, 133.274181) scale(-1, 1) rotate(-180.000000) translate(-507.165525, -133.274181) "></path>
            <path d="M505.046125,140.2829 C505.245387,139.08735 507.437175,137.29405 508.034925,137.094825 C507.437175,136.8956 505.245387,135.1023 505.046125,133.90675" id="path630" stroke="#000000" stroke-width="1.19549997" stroke-linecap="round" stroke-linejoin="round" transform="translate(506.540525, 137.094825) scale(-1, 1) rotate(-270.000000) translate(-506.540525, -137.094825) "></path>
            <path d="M612.841075,137.991475 L612.841075,128.556887" id="path634" stroke="#000000" stroke-width="1.49441257" transform="translate(613.466075, 133.274181) scale(-1, 1) rotate(-180.000000) translate(-613.466075, -133.274181) "></path>
            <path d="M611.346675,140.2829 C611.545938,139.08735 613.737725,137.29405 614.335475,137.094825 C613.737725,136.8956 611.545938,135.1023 611.346675,133.90675" id="path640" stroke="#000000" stroke-width="1.19549997" stroke-linecap="round" stroke-linejoin="round" transform="translate(612.841075, 137.094825) scale(-1, 1) rotate(-270.000000) translate(-612.841075, -137.094825) "></path>
            <path d="M719.1416,137.991475 L719.1416,128.556887" id="path644" stroke="#000000" stroke-width="1.49441257" transform="translate(719.766600, 133.274181) scale(-1, 1) rotate(-180.000000) translate(-719.766600, -133.274181) "></path>
            <path d="M717.6472,140.2829 C717.846463,139.08735 720.03825,137.29405 720.636,137.094825 C720.03825,136.8956 717.846463,135.1023 717.6472,133.90675" id="path650" stroke="#000000" stroke-width="1.19549997" stroke-linecap="round" stroke-linejoin="round" transform="translate(719.141600, 137.094825) scale(-1, 1) rotate(-270.000000) translate(-719.141600, -137.094825) "></path>
            <path d="M506.540525,191.14175 L506.540525,181.707162" id="path654" stroke="#000000" stroke-width="1.49441257" transform="translate(507.165525, 186.424456) scale(-1, 1) rotate(-180.000000) translate(-507.165525, -186.424456) "></path>
            <path d="M505.046125,193.433175 C505.245387,192.237625 507.437175,190.444325 508.034925,190.2451 C507.437175,190.045875 505.245387,188.252575 505.046125,187.057025" id="path660" stroke="#000000" stroke-width="1.19549997" stroke-linecap="round" stroke-linejoin="round" transform="translate(506.540525, 190.245100) scale(-1, 1) rotate(-270.000000) translate(-506.540525, -190.245100) "></path>
            <path d="M612.841075,191.14175 L612.841075,181.707162" id="path664" stroke="#000000" stroke-width="1.49441257" transform="translate(613.466075, 186.424456) scale(-1, 1) rotate(-180.000000) translate(-613.466075, -186.424456) "></path>
            <path d="M611.346675,193.433175 C611.545938,192.237625 613.737725,190.444325 614.335475,190.2451 C613.737725,190.045875 611.545938,188.252575 611.346675,187.057025" id="path670" stroke="#000000" stroke-width="1.19549997" stroke-linecap="round" stroke-linejoin="round" transform="translate(612.841075, 190.245100) scale(-1, 1) rotate(-270.000000) translate(-612.841075, -190.245100) "></path>
            <path d="M719.1416,191.14175 L719.1416,181.707162" id="path674" stroke="#000000" stroke-width="1.49441257" transform="translate(719.766600, 186.424456) scale(-1, 1) rotate(-180.000000) translate(-719.766600, -186.424456) "></path>
            <path d="M717.6472,193.433175 C717.846463,192.237625 720.03825,190.444325 720.636,190.2451 C720.03825,190.045875 717.846463,188.252575 717.6472,187.057025" id="path680" stroke="#000000" stroke-width="1.19549997" stroke-linecap="round" stroke-linejoin="round" transform="translate(719.141600, 190.245100) scale(-1, 1) rotate(-270.000000) translate(-719.141600, -190.245100) "></path>
            <path d="M506.540525,244.292037 L506.540525,234.857425" id="path684" stroke="#000000" stroke-width="1.49441257" transform="translate(507.165525, 239.574731) scale(-1, 1) rotate(-180.000000) translate(-507.165525, -239.574731) "></path>
            <path d="M505.046125,246.583462 C505.245387,245.387912 507.437175,243.594612 508.034925,243.395387 C507.437175,243.196162 505.245387,241.402862 505.046125,240.207312" id="path690" stroke="#000000" stroke-width="1.19549997" stroke-linecap="round" stroke-linejoin="round" transform="translate(506.540525, 243.395387) scale(-1, 1) rotate(-270.000000) translate(-506.540525, -243.395387) "></path>
            <path d="M612.841075,244.292037 L612.841075,234.857425" id="path694" stroke="#000000" stroke-width="1.49441257" transform="translate(613.466075, 239.574731) scale(-1, 1) rotate(-180.000000) translate(-613.466075, -239.574731) "></path>
            <path d="M611.346675,246.583462 C611.545938,245.387912 613.737725,243.594612 614.335475,243.395387 C613.737725,243.196162 611.545938,241.402862 611.346675,240.207312" id="path700" stroke="#000000" stroke-width="1.19549997" stroke-linecap="round" stroke-linejoin="round" transform="translate(612.841075, 243.395387) scale(-1, 1) rotate(-270.000000) translate(-612.841075, -243.395387) "></path>
            <path d="M719.1416,244.292037 L719.1416,234.857425" id="path704" stroke="#000000" stroke-width="1.49441257" transform="translate(719.766600, 239.574731) scale(-1, 1) rotate(-180.000000) translate(-719.766600, -239.574731) "></path>
            <path d="M717.6472,246.583462 C717.846463,245.387912 720.03825,243.594612 720.636,243.395387 C720.03825,243.196162 717.846463,241.402862 717.6472,240.207312" id="path710" stroke="#000000" stroke-width="1.19549997" stroke-linecap="round" stroke-linejoin="round" transform="translate(719.141600, 243.395387) scale(-1, 1) rotate(-270.000000) translate(-719.141600, -243.395387) "></path>
            <path d="M506.540525,297.442312 L506.540525,288.0077" id="path714" stroke="#000000" stroke-width="1.49441257" transform="translate(507.165525, 292.725006) scale(-1, 1) rotate(-180.000000) translate(-507.165525, -292.725006) "></path>
            <path d="M505.046125,299.733737 C505.245387,298.538187 507.437175,296.744887 508.034925,296.545662 C507.437175,296.346437 505.245387,294.553137 505.046125,293.357587" id="path720" stroke="#000000" stroke-width="1.19549997" stroke-linecap="round" stroke-linejoin="round" transform="translate(506.540525, 296.545662) scale(-1, 1) rotate(-270.000000) translate(-506.540525, -296.545662) "></path>
            <path d="M612.841075,297.442312 L612.841075,288.0077" id="path724" stroke="#000000" stroke-width="1.49441257" transform="translate(613.466075, 292.725006) scale(-1, 1) rotate(-180.000000) translate(-613.466075, -292.725006) "></path>
            <path d="M611.346675,299.733737 C611.545938,298.538187 613.737725,296.744887 614.335475,296.545662 C613.737725,296.346437 611.545938,294.553137 611.346675,293.357587" id="path730" stroke="#000000" stroke-width="1.19549997" stroke-linecap="round" stroke-linejoin="round" transform="translate(612.841075, 296.545662) scale(-1, 1) rotate(-270.000000) translate(-612.841075, -296.545662) "></path>
            <path d="M719.1416,297.442312 L719.1416,288.0077" id="path734" stroke="#000000" stroke-width="1.49441257" transform="translate(719.766600, 292.725006) scale(-1, 1) rotate(-180.000000) translate(-719.766600, -292.725006) "></path>
            <path d="M717.6472,299.733737 C717.846463,298.538187 720.03825,296.744887 720.636,296.545662 C720.03825,296.346437 717.846463,294.553137 717.6472,293.357587" id="path740" stroke="#000000" stroke-width="1.19549997" stroke-linecap="round" stroke-linejoin="round" transform="translate(719.141600, 296.545662) scale(-1, 1) rotate(-270.000000) translate(-719.141600, -296.545662) "></path>
            <path d="M506.540525,350.442312 L506.540525,341.0077" id="path714" stroke="#000000" stroke-width="1.49441257" transform="translate(507.165525, 345.725006) scale(-1, 1) rotate(-180.000000) translate(-507.165525, -345.725006) "></path>
            <path d="M505.046125,352.733737 C505.245387,351.538187 507.437175,349.744887 508.034925,349.545662 C507.437175,349.346437 505.245387,347.553137 505.046125,346.357587" id="path720" stroke="#000000" stroke-width="1.19549997" stroke-linecap="round" stroke-linejoin="round" transform="translate(506.540525, 349.545662) scale(-1, 1) rotate(-270.000000) translate(-506.540525, -349.545662) "></path>
            <path d="M612.841075,350.442312 L612.841075,341.0077" id="path724" stroke="#000000" stroke-width="1.49441257" transform="translate(613.466075, 345.725006) scale(-1, 1) rotate(-180.000000) translate(-613.466075, -345.725006) "></path>
            <path d="M611.346675,352.733737 C611.545937,351.538187 613.737725,349.744887 614.335475,349.545662 C613.737725,349.346437 611.545937,347.553137 611.346675,346.357587" id="path730" stroke="#000000" stroke-width="1.19549997" stroke-linecap="round" stroke-linejoin="round" transform="translate(612.841075, 349.545662) scale(-1, 1) rotate(-270.000000) translate(-612.841075, -349.545662) "></path>
            <path d="M719.1416,350.442312 L719.1416,341.0077" id="path734" stroke="#000000" stroke-width="1.49441257" transform="translate(719.766600, 345.725006) scale(-1, 1) rotate(-180.000000) translate(-719.766600, -345.725006) "></path>
            <path d="M717.6472,352.733737 C717.846463,351.538187 720.03825,349.744887 720.636,349.545662 C720.03825,349.346437 717.846463,347.553137 717.6472,346.357587" id="path740" stroke="#000000" stroke-width="1.19549997" stroke-linecap="round" stroke-linejoin="round" transform="translate(719.141600, 349.545662) scale(-1, 1) rotate(-270.000000) translate(-719.141600, -349.545662) "></path>
            <path d="M364.8065,691.086375 L364.8065,0.582625" id="path774" stroke="#000000" stroke-width="1.99255005" transform="translate(364.306500, 346.041313) scale(-1, 1) rotate(-180.000000) translate(-364.306500, -346.041313) "></path>
            <text id="Time" fill="#000000" transform="translate(343.000000, 344.000000) rotate(-450.000000) translate(-343.000000, -344.000000) " font-family="Helvetica" font-size="18" font-weight="normal">
                <tspan x="323" y="351">Time</tspan>
            </text>
            <text id="B" font-family="Helvetica-Bold, Helvetica" font-size="28" font-weight="bold" fill="#000000">
                <tspan x="389" y="64">B</tspan>
            </text>
            <text id="o" font-family="Helvetica-Bold, Helvetica" font-size="28" font-weight="bold" fill="#000000">
                <tspan x="391" y="116">o</tspan>
            </text>
            <text id="b" font-family="Helvetica-Bold, Helvetica" font-size="28" font-weight="bold" fill="#000000">
                <tspan x="391" y="171">b</tspan>
            </text>
            <text id="i" font-family="Helvetica-Bold, Helvetica" font-size="28" font-weight="bold" fill="#000000">
                <tspan x="396" y="277">i</tspan>
            </text>
            <text id="s" font-family="Helvetica-Bold, Helvetica" font-size="28" font-weight="bold" fill="#000000">
                <tspan x="392" y="328">s</tspan>
            </text>
            <text id="_" font-family="Helvetica-Bold, Helvetica" font-size="28" font-weight="bold" fill="#000000">
                <tspan x="392" y="220">_</tspan>
            </text>
            <polygon id="path22" stroke="#000000" stroke-width="0.9962625" fill="#FFF880" fill-rule="nonzero" transform="translate(400.240006, 373.146531) scale(-1, 1) rotate(-180.000000) translate(-400.240006, -373.146531) " points="382.523262 355.429787 417.95675 355.429787 417.95675 390.863275 382.523262 390.863275"></polygon>
            <path d="M524.257275,373.146525 C524.257275,382.931337 516.325338,390.863275 506.540525,390.863275 C496.755713,390.863275 488.823775,382.931337 488.823775,373.146525 C488.823775,363.361712 496.755713,355.429775 506.540525,355.429775 C516.325338,355.429775 524.257275,363.361712 524.257275,373.146525 Z" id="path34" stroke="#000000" stroke-width="0.9962625" fill="#8080FF" fill-rule="nonzero" transform="translate(506.540525, 373.146525) scale(-1, 1) rotate(-180.000000) translate(-506.540525, -373.146525) "></path>
            <path d="M630.5578,373.146525 C630.5578,382.931337 622.625875,390.863275 612.841075,390.863275 C603.05625,390.863275 595.124325,382.931337 595.124325,373.146525 C595.124325,363.361712 603.05625,355.429775 612.841075,355.429775 C622.625875,355.429775 630.5578,363.361712 630.5578,373.146525 L630.5578,373.146525 Z" id="path46" stroke="#000000" stroke-width="0.9962625" fill="#8080FF" fill-rule="nonzero" transform="translate(612.841063, 373.146525) scale(-1, 1) rotate(-180.000000) translate(-612.841063, -373.146525) "></path>
            <path d="M736.85835,373.146525 C736.85835,382.931337 728.926413,390.863275 719.1416,390.863275 C709.356787,390.863275 701.424863,382.931337 701.424863,373.146525 C701.424863,363.361712 709.356787,355.429775 719.1416,355.429775 C728.926413,355.429775 736.85835,363.361712 736.85835,373.146525 Z" id="path58" stroke="#000000" stroke-width="0.9962625" fill="#8080FF" fill-rule="nonzero" transform="translate(719.141606, 373.146525) scale(-1, 1) rotate(-180.000000) translate(-719.141606, -373.146525) "></path>
            <path d="M421.500075,371.896525 L483.773575,371.896525" id="path68" stroke="#000000" stroke-width="1.99255005" transform="translate(452.636825, 372.521525) scale(-1, 1) rotate(-180.000000) translate(-452.636825, -372.521525) "></path>
            <path d="M480.934225,376.93235 C481.170825,375.51265 483.773575,373.383113 484.4834,373.146525 C483.773575,372.909938 481.170825,370.7804 480.934225,369.3607" id="path74" stroke="#000000" stroke-width="1.59402505" stroke-linecap="round" stroke-linejoin="round" transform="translate(482.708813, 373.146525) scale(-1, 1) rotate(-180.000000) translate(-482.708813, -373.146525) "></path>
            <path d="M527.800625,371.896525 L590.0741,371.896525" id="path78" stroke="#000000" stroke-width="1.99255005" transform="translate(558.937363, 372.521525) scale(-1, 1) rotate(-180.000000) translate(-558.937363, -372.521525) "></path>
            <path d="M587.23475,376.93235 C587.47135,375.51265 590.0741,373.383113 590.783925,373.146525 C590.0741,372.909938 587.47135,370.7804 587.23475,369.3607" id="path84" stroke="#000000" stroke-width="1.59402505" stroke-linecap="round" stroke-linejoin="round" transform="translate(589.009337, 373.146525) scale(-1, 1) rotate(-180.000000) translate(-589.009337, -373.146525) "></path>
            <path d="M634.101138,371.896525 L696.374638,371.896525" id="path88" stroke="#000000" stroke-width="1.99255005" transform="translate(665.237888, 372.521525) scale(-1, 1) rotate(-180.000000) translate(-665.237888, -372.521525) "></path>
            <path d="M693.535287,376.93235 C693.771887,375.51265 696.374637,373.383112 697.084462,373.146525 C696.374637,372.909938 693.771887,370.7804 693.535287,369.3607" id="path94" stroke="#000000" stroke-width="1.59402505" stroke-linecap="round" stroke-linejoin="round" transform="translate(695.309875, 373.146525) scale(-1, 1) rotate(-180.000000) translate(-695.309875, -373.146525) "></path>
            <path d="M740.401687,371.896525 L788.50175,371.896525" id="path98" stroke="#000000" stroke-width="1.99255005" transform="translate(764.451719, 372.521525) scale(-1, 1) rotate(-180.000000) translate(-764.451719, -372.521525) "></path>
            <polygon id="path110" stroke="#000000" stroke-width="0.9962625" fill="#FFF880" fill-rule="nonzero" transform="translate(400.240006, 426.296806) scale(-1, 1) rotate(-180.000000) translate(-400.240006, -426.296806) " points="382.523262 408.580062 417.95675 408.580062 417.95675 444.01355 382.523262 444.01355"></polygon>
            <path d="M524.257275,426.296787 C524.257275,436.0816 516.325338,444.01355 506.540525,444.01355 C496.755713,444.01355 488.823775,436.0816 488.823775,426.296787 C488.823775,416.511975 496.755713,408.580037 506.540525,408.580037 C516.325338,408.580037 524.257275,416.511975 524.257275,426.296787 Z" id="path122" stroke="#000000" stroke-width="0.9962625" fill="#8080FF" fill-rule="nonzero" transform="translate(506.540525, 426.296794) scale(-1, 1) rotate(-180.000000) translate(-506.540525, -426.296794) "></path>
            <path d="M630.5578,426.296787 C630.5578,436.0816 622.625875,444.01355 612.841075,444.01355 C603.05625,444.01355 595.124325,436.0816 595.124325,426.296787 C595.124325,416.511975 603.05625,408.580037 612.841075,408.580037 C622.625875,408.580037 630.5578,416.511975 630.5578,426.296787 L630.5578,426.296787 Z" id="path134" stroke="#000000" stroke-width="0.9962625" fill="#8080FF" fill-rule="nonzero" transform="translate(612.841063, 426.296794) scale(-1, 1) rotate(-180.000000) translate(-612.841063, -426.296794) "></path>
            <path d="M736.85835,426.296787 C736.85835,436.0816 728.926413,444.01355 719.1416,444.01355 C709.356787,444.01355 701.424863,436.0816 701.424863,426.296787 C701.424863,416.511975 709.356787,408.580037 719.1416,408.580037 C728.926413,408.580037 736.85835,416.511975 736.85835,426.296787 Z" id="path146" stroke="#000000" stroke-width="0.9962625" fill="#8080FF" fill-rule="nonzero" transform="translate(719.141606, 426.296794) scale(-1, 1) rotate(-180.000000) translate(-719.141606, -426.296794) "></path>
            <path d="M421.500075,425.0468 L483.773575,425.0468" id="path156" stroke="#000000" stroke-width="1.99255005" transform="translate(452.636825, 425.671800) scale(-1, 1) rotate(-180.000000) translate(-452.636825, -425.671800) "></path>
            <path d="M480.934225,430.082625 C481.170825,428.662925 483.773575,426.533387 484.4834,426.2968 C483.773575,426.060212 481.170825,423.930675 480.934225,422.510975" id="path162" stroke="#000000" stroke-width="1.59402505" stroke-linecap="round" stroke-linejoin="round" transform="translate(482.708813, 426.296800) scale(-1, 1) rotate(-180.000000) translate(-482.708813, -426.296800) "></path>
            <path d="M527.800625,425.0468 L590.0741,425.0468" id="path166" stroke="#000000" stroke-width="1.99255005" transform="translate(558.937363, 425.671800) scale(-1, 1) rotate(-180.000000) translate(-558.937363, -425.671800) "></path>
            <path d="M587.23475,430.082625 C587.47135,428.662925 590.0741,426.533387 590.783925,426.2968 C590.0741,426.060212 587.47135,423.930675 587.23475,422.510975" id="path172" stroke="#000000" stroke-width="1.59402505" stroke-linecap="round" stroke-linejoin="round" transform="translate(589.009337, 426.296800) scale(-1, 1) rotate(-180.000000) translate(-589.009337, -426.296800) "></path>
            <path d="M634.101138,425.0468 L696.374638,425.0468" id="path176" stroke="#000000" stroke-width="1.99255005" transform="translate(665.237888, 425.671800) scale(-1, 1) rotate(-180.000000) translate(-665.237888, -425.671800) "></path>
            <path d="M693.535287,430.082625 C693.771887,428.662925 696.374637,426.533387 697.084462,426.2968 C696.374637,426.060212 693.771887,423.930675 693.535287,422.510975" id="path182" stroke="#000000" stroke-width="1.59402505" stroke-linecap="round" stroke-linejoin="round" transform="translate(695.309875, 426.296800) scale(-1, 1) rotate(-180.000000) translate(-695.309875, -426.296800) "></path>
            <path d="M740.401687,425.0468 L788.50175,425.0468" id="path186" stroke="#000000" stroke-width="1.99255005" transform="translate(764.451719, 425.671800) scale(-1, 1) rotate(-180.000000) translate(-764.451719, -425.671800) "></path>
            <polygon id="path198" stroke="#000000" stroke-width="0.9962625" fill="#FFF880" fill-rule="nonzero" transform="translate(400.240006, 479.447069) scale(-1, 1) rotate(-180.000000) translate(-400.240006, -479.447069) " points="382.523262 461.730325 417.95675 461.730325 417.95675 497.163812 382.523262 497.163812"></polygon>
            <path d="M524.257275,479.447087 C524.257275,489.231875 516.325338,497.163812 506.540525,497.163812 C496.755713,497.163812 488.823775,489.231875 488.823775,479.447087 C488.823775,469.662275 496.755713,461.730337 506.540525,461.730337 C516.325338,461.730337 524.257275,469.662275 524.257275,479.447087 Z" id="path210" stroke="#000000" stroke-width="0.9962625" fill="#8080FF" fill-rule="nonzero" transform="translate(506.540525, 479.447075) scale(-1, 1) rotate(-180.000000) translate(-506.540525, -479.447075) "></path>
            <path d="M630.5578,479.447087 C630.5578,489.231875 622.625875,497.163812 612.841075,497.163812 C603.05625,497.163812 595.124325,489.231875 595.124325,479.447087 C595.124325,469.662275 603.05625,461.730337 612.841075,461.730337 C622.625875,461.730337 630.5578,469.662275 630.5578,479.447087 L630.5578,479.447087 Z" id="path222" stroke="#000000" stroke-width="0.9962625" fill="#8080FF" fill-rule="nonzero" transform="translate(612.841063, 479.447075) scale(-1, 1) rotate(-180.000000) translate(-612.841063, -479.447075) "></path>
            <path d="M736.85835,479.447087 C736.85835,489.231875 728.926413,497.163812 719.1416,497.163812 C709.356787,497.163812 701.424863,489.231875 701.424863,479.447087 C701.424863,469.662275 709.356787,461.730337 719.1416,461.730337 C728.926413,461.730337 736.85835,469.662275 736.85835,479.447087 Z" id="path234" stroke="#000000" stroke-width="0.9962625" fill="#8080FF" fill-rule="nonzero" transform="translate(719.141606, 479.447075) scale(-1, 1) rotate(-180.000000) translate(-719.141606, -479.447075) "></path>
            <path d="M421.500075,478.197062 L483.773575,478.197062" id="path244" stroke="#000000" stroke-width="1.99255005" transform="translate(452.636825, 478.822062) scale(-1, 1) rotate(-180.000000) translate(-452.636825, -478.822062) "></path>
            <path d="M480.934225,483.232888 C481.170825,481.813187 483.773575,479.68365 484.4834,479.447062 C483.773575,479.210475 481.170825,477.080937 480.934225,475.661237" id="path250" stroke="#000000" stroke-width="1.59402505" stroke-linecap="round" stroke-linejoin="round" transform="translate(482.708813, 479.447062) scale(-1, 1) rotate(-180.000000) translate(-482.708813, -479.447062) "></path>
            <path d="M527.800625,478.197062 L590.0741,478.197062" id="path254" stroke="#000000" stroke-width="1.99255005" transform="translate(558.937363, 478.822062) scale(-1, 1) rotate(-180.000000) translate(-558.937363, -478.822062) "></path>
            <path d="M587.23475,483.232888 C587.47135,481.813187 590.0741,479.68365 590.783925,479.447062 C590.0741,479.210475 587.47135,477.080937 587.23475,475.661237" id="path260" stroke="#000000" stroke-width="1.59402505" stroke-linecap="round" stroke-linejoin="round" transform="translate(589.009337, 479.447062) scale(-1, 1) rotate(-180.000000) translate(-589.009337, -479.447062) "></path>
            <path d="M634.101138,478.197062 L696.374638,478.197062" id="path264" stroke="#000000" stroke-width="1.99255005" transform="translate(665.237888, 478.822062) scale(-1, 1) rotate(-180.000000) translate(-665.237888, -478.822062) "></path>
            <path d="M693.535287,483.232888 C693.771887,481.813187 696.374637,479.68365 697.084462,479.447062 C696.374637,479.210475 693.771887,477.080937 693.535287,475.661237" id="path270" stroke="#000000" stroke-width="1.59402505" stroke-linecap="round" stroke-linejoin="round" transform="translate(695.309875, 479.447062) scale(-1, 1) rotate(-180.000000) translate(-695.309875, -479.447062) "></path>
            <path d="M740.401687,478.197062 L788.50175,478.197062" id="path274" stroke="#000000" stroke-width="1.99255005" transform="translate(764.451719, 478.822062) scale(-1, 1) rotate(-180.000000) translate(-764.451719, -478.822062) "></path>
            <polygon id="path286" stroke="#000000" stroke-width="0.9962625" fill="#FFF880" fill-rule="nonzero" transform="translate(400.240006, 532.597344) scale(-1, 1) rotate(-180.000000) translate(-400.240006, -532.597344) " points="382.523262 514.8806 417.95675 514.8806 417.95675 550.314087 382.523262 550.314087"></polygon>
            <path d="M524.257275,532.597337 C524.257275,542.38215 516.325338,550.314087 506.540525,550.314087 C496.755713,550.314087 488.823775,542.38215 488.823775,532.597337 C488.823775,522.812525 496.755713,514.880612 506.540525,514.880612 C516.325338,514.880612 524.257275,522.812525 524.257275,532.597337 Z" id="path298" stroke="#000000" stroke-width="5" fill="#B8E986" fill-rule="nonzero" transform="translate(506.540525, 532.597350) scale(-1, 1) rotate(-180.000000) translate(-506.540525, -532.597350) "></path>
            <path d="M630.5578,532.597337 C630.5578,542.38215 622.625875,550.314087 612.841075,550.314087 C603.05625,550.314087 595.124325,542.38215 595.124325,532.597337 C595.124325,522.812525 603.05625,514.880612 612.841075,514.880612 C622.625875,514.880612 630.5578,522.812525 630.5578,532.597337 L630.5578,532.597337 Z" id="path310" stroke="#000000" stroke-width="5" fill="#B8E986" fill-rule="nonzero" transform="translate(612.841063, 532.597350) scale(-1, 1) rotate(-180.000000) translate(-612.841063, -532.597350) "></path>
            <path d="M736.85835,532.597337 C736.85835,542.38215 728.926413,550.314087 719.1416,550.314087 C709.356787,550.314087 701.424863,542.38215 701.424863,532.597337 C701.424863,522.812525 709.356787,514.880612 719.1416,514.880612 C728.926413,514.880612 736.85835,522.812525 736.85835,532.597337 Z" id="path322" stroke="#000000" stroke-width="5" fill="#B8E986" fill-rule="nonzero" transform="translate(719.141606, 532.597350) scale(-1, 1) rotate(-180.000000) translate(-719.141606, -532.597350) "></path>
            <path d="M421.500075,531.347362 L483.773575,531.347362" id="path332" stroke="#000000" stroke-width="1.99255005" transform="translate(452.636825, 531.972362) scale(-1, 1) rotate(-180.000000) translate(-452.636825, -531.972362) "></path>
            <path d="M480.934225,536.383187 C481.170825,534.963487 483.773575,532.83395 484.4834,532.597362 C483.773575,532.360775 481.170825,530.231237 480.934225,528.811537" id="path338" stroke="#000000" stroke-width="1.59402505" stroke-linecap="round" stroke-linejoin="round" transform="translate(482.708813, 532.597362) scale(-1, 1) rotate(-180.000000) translate(-482.708813, -532.597362) "></path>
            <path d="M527.800625,531.347362 L590.0741,531.347362" id="path342" stroke="#000000" stroke-width="1.99255005" transform="translate(558.937363, 531.972362) scale(-1, 1) rotate(-180.000000) translate(-558.937363, -531.972362) "></path>
            <path d="M587.23475,536.383187 C587.47135,534.963487 590.0741,532.83395 590.783925,532.597362 C590.0741,532.360775 587.47135,530.231237 587.23475,528.811537" id="path348" stroke="#000000" stroke-width="1.59402505" stroke-linecap="round" stroke-linejoin="round" transform="translate(589.009337, 532.597362) scale(-1, 1) rotate(-180.000000) translate(-589.009337, -532.597362) "></path>
            <path d="M634.101138,531.347362 L696.374638,531.347362" id="path352" stroke="#000000" stroke-width="1.99255005" transform="translate(665.237888, 531.972362) scale(-1, 1) rotate(-180.000000) translate(-665.237888, -531.972362) "></path>
            <path d="M693.535287,536.383187 C693.771887,534.963487 696.374637,532.83395 697.084462,532.597362 C696.374637,532.360775 693.771887,530.231237 693.535287,528.811537" id="path358" stroke="#000000" stroke-width="1.59402505" stroke-linecap="round" stroke-linejoin="round" transform="translate(695.309875, 532.597362) scale(-1, 1) rotate(-180.000000) translate(-695.309875, -532.597362) "></path>
            <path d="M740.401687,531.347362 L788.50175,531.347362" id="path362" stroke="#000000" stroke-width="1.99255005" transform="translate(764.451719, 531.972362) scale(-1, 1) rotate(-180.000000) translate(-764.451719, -531.972362) "></path>
            <polygon id="path374" stroke="#000000" stroke-width="0.9962625" fill="#FFF880" fill-rule="nonzero" transform="translate(400.240006, 585.747631) scale(-1, 1) rotate(-180.000000) translate(-400.240006, -585.747631) " points="382.523262 568.030887 417.95675 568.030887 417.95675 603.464375 382.523262 603.464375"></polygon>
            <path d="M524.257275,585.747625 C524.257275,595.532438 516.325338,603.464375 506.540525,603.464375 C496.755713,603.464375 488.823775,595.532438 488.823775,585.747625 C488.823775,575.9628 496.755713,568.030875 506.540525,568.030875 C516.325338,568.030875 524.257275,575.9628 524.257275,585.747625 L524.257275,585.747625 Z" id="path386" stroke="#000000" stroke-width="5" fill="#B8E986" fill-rule="nonzero" transform="translate(506.540525, 585.747625) scale(-1, 1) rotate(-180.000000) translate(-506.540525, -585.747625) "></path>
            <path d="M630.5578,585.747625 C630.5578,595.532438 622.625875,603.464375 612.841075,603.464375 C603.05625,603.464375 595.124325,595.532438 595.124325,585.747625 C595.124325,575.9628 603.05625,568.030875 612.841075,568.030875 C622.625875,568.030875 630.5578,575.9628 630.5578,585.747625 L630.5578,585.747625 Z" id="path398" stroke="#000000" stroke-width="5" fill="#B8E986" fill-rule="nonzero" transform="translate(612.841063, 585.747625) scale(-1, 1) rotate(-180.000000) translate(-612.841063, -585.747625) "></path>
            <path d="M736.85835,585.747625 C736.85835,595.532438 728.926413,603.464375 719.1416,603.464375 C709.356787,603.464375 701.424863,595.532438 701.424863,585.747625 C701.424863,575.9628 709.356787,568.030875 719.1416,568.030875 C728.926413,568.030875 736.85835,575.9628 736.85835,585.747625 L736.85835,585.747625 Z" id="path410" stroke="#000000" stroke-width="5" fill="#B8E986" fill-rule="nonzero" transform="translate(719.141606, 585.747625) scale(-1, 1) rotate(-180.000000) translate(-719.141606, -585.747625) "></path>
            <path d="M421.500075,584.497625 L483.773575,584.497625" id="path420" stroke="#000000" stroke-width="1.99255005" transform="translate(452.636825, 585.122625) scale(-1, 1) rotate(-180.000000) translate(-452.636825, -585.122625) "></path>
            <path d="M480.934225,589.53345 C481.170825,588.11375 483.773575,585.984212 484.4834,585.747625 C483.773575,585.511037 481.170825,583.3815 480.934225,581.9618" id="path426" stroke="#000000" stroke-width="1.59402505" stroke-linecap="round" stroke-linejoin="round" transform="translate(482.708813, 585.747625) scale(-1, 1) rotate(-180.000000) translate(-482.708813, -585.747625) "></path>
            <path d="M527.800625,584.497625 L590.0741,584.497625" id="path430" stroke="#000000" stroke-width="1.99255005" transform="translate(558.937363, 585.122625) scale(-1, 1) rotate(-180.000000) translate(-558.937363, -585.122625) "></path>
            <path d="M587.23475,589.53345 C587.47135,588.11375 590.0741,585.984212 590.783925,585.747625 C590.0741,585.511037 587.47135,583.3815 587.23475,581.9618" id="path436" stroke="#000000" stroke-width="1.59402505" stroke-linecap="round" stroke-linejoin="round" transform="translate(589.009337, 585.747625) scale(-1, 1) rotate(-180.000000) translate(-589.009337, -585.747625) "></path>
            <path d="M634.101138,584.497625 L696.374638,584.497625" id="path440" stroke="#000000" stroke-width="1.99255005" transform="translate(665.237888, 585.122625) scale(-1, 1) rotate(-180.000000) translate(-665.237888, -585.122625) "></path>
            <path d="M693.535287,589.53345 C693.771887,588.11375 696.374637,585.984212 697.084462,585.747625 C696.374637,585.511037 693.771887,583.3815 693.535287,581.9618" id="path446" stroke="#000000" stroke-width="1.59402505" stroke-linecap="round" stroke-linejoin="round" transform="translate(695.309875, 585.747625) scale(-1, 1) rotate(-180.000000) translate(-695.309875, -585.747625) "></path>
            <path d="M740.401687,584.497625 L788.50175,584.497625" id="path450" stroke="#000000" stroke-width="1.99255005" transform="translate(764.451719, 585.122625) scale(-1, 1) rotate(-180.000000) translate(-764.451719, -585.122625) "></path>
            <polygon id="path462" stroke="#000000" stroke-width="0.9962625" fill="#FFF880" fill-rule="nonzero" transform="translate(400.240006, 638.897906) scale(-1, 1) rotate(-180.000000) translate(-400.240006, -638.897906) " points="382.523262 621.181162 417.95675 621.181162 417.95675 656.61465 382.523262 656.61465"></polygon>
            <path d="M524.257275,638.8979 C524.257275,648.682712 516.325338,656.61465 506.540525,656.61465 C496.755713,656.61465 488.823775,648.682712 488.823775,638.8979 C488.823775,629.113087 496.755713,621.18115 506.540525,621.18115 C516.325338,621.18115 524.257275,629.113087 524.257275,638.8979 L524.257275,638.8979 Z" id="path474" stroke="#000000" stroke-width="5" fill="#B8E986" fill-rule="nonzero" transform="translate(506.540525, 638.897900) scale(-1, 1) rotate(-180.000000) translate(-506.540525, -638.897900) "></path>
            <path d="M630.5578,638.8979 C630.5578,648.682712 622.625875,656.61465 612.841075,656.61465 C603.05625,656.61465 595.124325,648.682712 595.124325,638.8979 C595.124325,629.113087 603.05625,621.18115 612.841075,621.18115 C622.625875,621.18115 630.5578,629.113087 630.5578,638.8979 L630.5578,638.8979 Z" id="path486" stroke="#000000" stroke-width="5" fill="#B8E986" fill-rule="nonzero" transform="translate(612.841063, 638.897900) scale(-1, 1) rotate(-180.000000) translate(-612.841063, -638.897900) "></path>
            <path d="M736.85835,638.8979 C736.85835,648.682712 728.926413,656.61465 719.1416,656.61465 C709.356787,656.61465 701.424863,648.682712 701.424863,638.8979 C701.424863,629.113087 709.356787,621.18115 719.1416,621.18115 C728.926413,621.18115 736.85835,629.113087 736.85835,638.8979 L736.85835,638.8979 Z" id="path498" stroke="#000000" stroke-width="5" fill="#B8E986" fill-rule="nonzero" transform="translate(719.141606, 638.897900) scale(-1, 1) rotate(-180.000000) translate(-719.141606, -638.897900) "></path>
            <path d="M421.500075,637.6479 L483.773575,637.6479" id="path508" stroke="#000000" stroke-width="1.99255005" transform="translate(452.636825, 638.272900) scale(-1, 1) rotate(-180.000000) translate(-452.636825, -638.272900) "></path>
            <path d="M480.934225,642.683725 C481.170825,641.264025 483.773575,639.134487 484.4834,638.8979 C483.773575,638.661312 481.170825,636.531775 480.934225,635.112075" id="path514" stroke="#000000" stroke-width="1.59402505" stroke-linecap="round" stroke-linejoin="round" transform="translate(482.708813, 638.897900) scale(-1, 1) rotate(-180.000000) translate(-482.708813, -638.897900) "></path>
            <path d="M527.800625,637.6479 L590.0741,637.6479" id="path518" stroke="#000000" stroke-width="1.99255005" transform="translate(558.937363, 638.272900) scale(-1, 1) rotate(-180.000000) translate(-558.937363, -638.272900) "></path>
            <path d="M587.23475,642.683725 C587.47135,641.264025 590.0741,639.134487 590.783925,638.8979 C590.0741,638.661312 587.47135,636.531775 587.23475,635.112075" id="path524" stroke="#000000" stroke-width="1.59402505" stroke-linecap="round" stroke-linejoin="round" transform="translate(589.009337, 638.897900) scale(-1, 1) rotate(-180.000000) translate(-589.009337, -638.897900) "></path>
            <path d="M634.101138,637.6479 L696.374638,637.6479" id="path528" stroke="#000000" stroke-width="1.99255005" transform="translate(665.237888, 638.272900) scale(-1, 1) rotate(-180.000000) translate(-665.237888, -638.272900) "></path>
            <path d="M693.535287,642.683725 C693.771887,641.264025 696.374637,639.134487 697.084462,638.8979 C696.374637,638.661312 693.771887,636.531775 693.535287,635.112075" id="path534" stroke="#000000" stroke-width="1.59402505" stroke-linecap="round" stroke-linejoin="round" transform="translate(695.309875, 638.897900) scale(-1, 1) rotate(-180.000000) translate(-695.309875, -638.897900) "></path>
            <path d="M740.401687,637.6479 L788.50175,637.6479" id="path538" stroke="#000000" stroke-width="1.99255005" transform="translate(764.451719, 638.272900) scale(-1, 1) rotate(-180.000000) translate(-764.451719, -638.272900) "></path>
            <path d="M506.540525,403.8412 L506.540525,394.406588" id="path594" stroke="#000000" stroke-width="1.49441257" transform="translate(507.165525, 399.123894) scale(-1, 1) rotate(-180.000000) translate(-507.165525, -399.123894) "></path>
            <path d="M505.046125,406.132625 C505.245387,404.937075 507.437175,403.143775 508.034925,402.94455 C507.437175,402.745325 505.245387,400.952025 505.046125,399.756475" id="path600" stroke="#000000" stroke-width="1.19549997" stroke-linecap="round" stroke-linejoin="round" transform="translate(506.540525, 402.944550) scale(-1, 1) rotate(-270.000000) translate(-506.540525, -402.944550) "></path>
            <path d="M612.841075,403.8412 L612.841075,394.406588" id="path604" stroke="#000000" stroke-width="1.49441257" transform="translate(613.466075, 399.123894) scale(-1, 1) rotate(-180.000000) translate(-613.466075, -399.123894) "></path>
            <path d="M611.346675,406.132625 C611.545938,404.937075 613.737725,403.143775 614.335475,402.94455 C613.737725,402.745325 611.545938,400.952025 611.346675,399.756475" id="path610" stroke="#000000" stroke-width="1.19549997" stroke-linecap="round" stroke-linejoin="round" transform="translate(612.841075, 402.944550) scale(-1, 1) rotate(-270.000000) translate(-612.841075, -402.944550) "></path>
            <path d="M719.1416,403.8412 L719.1416,394.406588" id="path614" stroke="#000000" stroke-width="1.49441257" transform="translate(719.766600, 399.123894) scale(-1, 1) rotate(-180.000000) translate(-719.766600, -399.123894) "></path>
            <path d="M717.6472,406.132625 C717.846463,404.937075 720.03825,403.143775 720.636,402.94455 C720.03825,402.745325 717.846463,400.952025 717.6472,399.756475" id="path620" stroke="#000000" stroke-width="1.19549997" stroke-linecap="round" stroke-linejoin="round" transform="translate(719.141600, 402.944550) scale(-1, 1) rotate(-270.000000) translate(-719.141600, -402.944550) "></path>
            <path d="M506.540525,456.991475 L506.540525,447.556887" id="path624" stroke="#000000" stroke-width="1.49441257" transform="translate(507.165525, 452.274181) scale(-1, 1) rotate(-180.000000) translate(-507.165525, -452.274181) "></path>
            <path d="M505.046125,459.2829 C505.245387,458.08735 507.437175,456.29405 508.034925,456.094825 C507.437175,455.8956 505.245387,454.1023 505.046125,452.90675" id="path630" stroke="#000000" stroke-width="1.19549997" stroke-linecap="round" stroke-linejoin="round" transform="translate(506.540525, 456.094825) scale(-1, 1) rotate(-270.000000) translate(-506.540525, -456.094825) "></path>
            <path d="M612.841075,456.991475 L612.841075,447.556887" id="path634" stroke="#000000" stroke-width="1.49441257" transform="translate(613.466075, 452.274181) scale(-1, 1) rotate(-180.000000) translate(-613.466075, -452.274181) "></path>
            <path d="M611.346675,459.2829 C611.545938,458.08735 613.737725,456.29405 614.335475,456.094825 C613.737725,455.8956 611.545938,454.1023 611.346675,452.90675" id="path640" stroke="#000000" stroke-width="1.19549997" stroke-linecap="round" stroke-linejoin="round" transform="translate(612.841075, 456.094825) scale(-1, 1) rotate(-270.000000) translate(-612.841075, -456.094825) "></path>
            <path d="M719.1416,456.991475 L719.1416,447.556887" id="path644" stroke="#000000" stroke-width="1.49441257" transform="translate(719.766600, 452.274181) scale(-1, 1) rotate(-180.000000) translate(-719.766600, -452.274181) "></path>
            <path d="M717.6472,459.2829 C717.846463,458.08735 720.03825,456.29405 720.636,456.094825 C720.03825,455.8956 717.846463,454.1023 717.6472,452.90675" id="path650" stroke="#000000" stroke-width="1.19549997" stroke-linecap="round" stroke-linejoin="round" transform="translate(719.141600, 456.094825) scale(-1, 1) rotate(-270.000000) translate(-719.141600, -456.094825) "></path>
            <path d="M506.540525,510.14175 L506.540525,500.707162" id="path654" stroke="#000000" stroke-width="1.49441257" transform="translate(507.165525, 505.424456) scale(-1, 1) rotate(-180.000000) translate(-507.165525, -505.424456) "></path>
            <path d="M505.046125,512.433175 C505.245387,511.237625 507.437175,509.444325 508.034925,509.2451 C507.437175,509.045875 505.245387,507.252575 505.046125,506.057025" id="path660" stroke="#000000" stroke-width="1.19549997" stroke-linecap="round" stroke-linejoin="round" transform="translate(506.540525, 509.245100) scale(-1, 1) rotate(-270.000000) translate(-506.540525, -509.245100) "></path>
            <path d="M612.841075,510.14175 L612.841075,500.707162" id="path664" stroke="#000000" stroke-width="1.49441257" transform="translate(613.466075, 505.424456) scale(-1, 1) rotate(-180.000000) translate(-613.466075, -505.424456) "></path>
            <path d="M611.346675,512.433175 C611.545938,511.237625 613.737725,509.444325 614.335475,509.2451 C613.737725,509.045875 611.545938,507.252575 611.346675,506.057025" id="path670" stroke="#000000" stroke-width="1.19549997" stroke-linecap="round" stroke-linejoin="round" transform="translate(612.841075, 509.245100) scale(-1, 1) rotate(-270.000000) translate(-612.841075, -509.245100) "></path>
            <path d="M719.1416,510.14175 L719.1416,500.707162" id="path674" stroke="#000000" stroke-width="1.49441257" transform="translate(719.766600, 505.424456) scale(-1, 1) rotate(-180.000000) translate(-719.766600, -505.424456) "></path>
            <path d="M717.6472,512.433175 C717.846463,511.237625 720.03825,509.444325 720.636,509.2451 C720.03825,509.045875 717.846463,507.252575 717.6472,506.057025" id="path680" stroke="#000000" stroke-width="1.19549997" stroke-linecap="round" stroke-linejoin="round" transform="translate(719.141600, 509.245100) scale(-1, 1) rotate(-270.000000) translate(-719.141600, -509.245100) "></path>
            <path d="M506.540525,563.292037 L506.540525,553.857425" id="path684" stroke="#000000" stroke-width="1.49441257" transform="translate(507.165525, 558.574731) scale(-1, 1) rotate(-180.000000) translate(-507.165525, -558.574731) "></path>
            <path d="M505.046125,565.583462 C505.245387,564.387912 507.437175,562.594612 508.034925,562.395387 C507.437175,562.196162 505.245387,560.402862 505.046125,559.207312" id="path690" stroke="#000000" stroke-width="1.19549997" stroke-linecap="round" stroke-linejoin="round" transform="translate(506.540525, 562.395387) scale(-1, 1) rotate(-270.000000) translate(-506.540525, -562.395387) "></path>
            <path d="M612.841075,563.292037 L612.841075,553.857425" id="path694" stroke="#000000" stroke-width="1.49441257" transform="translate(613.466075, 558.574731) scale(-1, 1) rotate(-180.000000) translate(-613.466075, -558.574731) "></path>
            <path d="M611.346675,565.583462 C611.545938,564.387912 613.737725,562.594612 614.335475,562.395387 C613.737725,562.196162 611.545938,560.402862 611.346675,559.207312" id="path700" stroke="#000000" stroke-width="1.19549997" stroke-linecap="round" stroke-linejoin="round" transform="translate(612.841075, 562.395387) scale(-1, 1) rotate(-270.000000) translate(-612.841075, -562.395387) "></path>
            <path d="M719.1416,563.292037 L719.1416,553.857425" id="path704" stroke="#000000" stroke-width="1.49441257" transform="translate(719.766600, 558.574731) scale(-1, 1) rotate(-180.000000) translate(-719.766600, -558.574731) "></path>
            <path d="M717.6472,565.583462 C717.846463,564.387912 720.03825,562.594612 720.636,562.395387 C720.03825,562.196162 717.846463,560.402862 717.6472,559.207312" id="path710" stroke="#000000" stroke-width="1.19549997" stroke-linecap="round" stroke-linejoin="round" transform="translate(719.141600, 562.395387) scale(-1, 1) rotate(-270.000000) translate(-719.141600, -562.395387) "></path>
            <path d="M506.540525,616.442312 L506.540525,607.0077" id="path714" stroke="#000000" stroke-width="1.49441257" transform="translate(507.165525, 611.725006) scale(-1, 1) rotate(-180.000000) translate(-507.165525, -611.725006) "></path>
            <path d="M505.046125,618.733737 C505.245387,617.538187 507.437175,615.744887 508.034925,615.545662 C507.437175,615.346437 505.245387,613.553137 505.046125,612.357587" id="path720" stroke="#000000" stroke-width="1.19549997" stroke-linecap="round" stroke-linejoin="round" transform="translate(506.540525, 615.545662) scale(-1, 1) rotate(-270.000000) translate(-506.540525, -615.545662) "></path>
            <path d="M612.841075,616.442312 L612.841075,607.0077" id="path724" stroke="#000000" stroke-width="1.49441257" transform="translate(613.466075, 611.725006) scale(-1, 1) rotate(-180.000000) translate(-613.466075, -611.725006) "></path>
            <path d="M611.346675,618.733737 C611.545938,617.538187 613.737725,615.744887 614.335475,615.545662 C613.737725,615.346437 611.545938,613.553137 611.346675,612.357587" id="path730" stroke="#000000" stroke-width="1.19549997" stroke-linecap="round" stroke-linejoin="round" transform="translate(612.841075, 615.545662) scale(-1, 1) rotate(-270.000000) translate(-612.841075, -615.545662) "></path>
            <path d="M719.1416,616.442312 L719.1416,607.0077" id="path734" stroke="#000000" stroke-width="1.49441257" transform="translate(719.766600, 611.725006) scale(-1, 1) rotate(-180.000000) translate(-719.766600, -611.725006) "></path>
            <path d="M717.6472,618.733737 C717.846463,617.538187 720.03825,615.744887 720.636,615.545662 C720.03825,615.346437 717.846463,613.553137 717.6472,612.357587" id="path740" stroke="#000000" stroke-width="1.19549997" stroke-linecap="round" stroke-linejoin="round" transform="translate(719.141600, 615.545662) scale(-1, 1) rotate(-270.000000) translate(-719.141600, -615.545662) "></path>
            <text id="_" font-family="Helvetica-Bold, Helvetica" font-size="28" font-weight="bold" fill="#000000">
                <tspan x="392" y="383">_</tspan>
            </text>
            <text id="a" font-family="Helvetica-Bold, Helvetica" font-size="28" font-weight="bold" fill="#000000">
                <tspan x="392" y="435">a</tspan>
            </text>
            <text id="_" font-family="Helvetica-Bold, Helvetica" font-size="28" font-weight="bold" fill="#000000">
                <tspan x="392" y="487">_</tspan>
            </text>
            <text id="a" font-family="Helvetica-Bold, Helvetica" font-size="28" font-weight="bold" fill="#000000">
                <tspan x="392" y="594">a</tspan>
            </text>
            <text id="n" font-family="Helvetica-Bold, Helvetica" font-size="28" font-weight="bold" fill="#000000">
                <tspan x="391" y="647">n</tspan>
            </text>
            <text id="m" font-family="Helvetica-Bold, Helvetica" font-size="28" font-weight="bold" fill="#000000">
                <tspan x="388" y="541">m</tspan>
            </text>
            <text id="o" font-family="Helvetica-Bold, Helvetica" font-size="28" font-weight="bold" fill="#000000">
                <tspan x="807" y="62">o</tspan>
            </text>
            <text id="b" font-family="Helvetica-Bold, Helvetica" font-size="28" font-weight="bold" fill="#000000">
                <tspan x="807" y="117">b</tspan>
            </text>
            <text id="i" font-family="Helvetica-Bold, Helvetica" font-size="28" font-weight="bold" fill="#000000">
                <tspan x="812" y="223">i</tspan>
            </text>
            <text id="s" font-family="Helvetica-Bold, Helvetica" font-size="28" font-weight="bold" fill="#000000">
                <tspan x="808" y="274">s</tspan>
            </text>
            <text id="_" font-family="Helvetica-Bold, Helvetica" font-size="28" font-weight="bold" fill="#000000">
                <tspan x="808" y="166">_</tspan>
            </text>
            <text id="_" font-family="Helvetica-Bold, Helvetica" font-size="28" font-weight="bold" fill="#000000">
                <tspan x="808" y="329">_</tspan>
            </text>
            <text id="a" font-family="Helvetica-Bold, Helvetica" font-size="28" font-weight="bold" fill="#000000">
                <tspan x="808" y="381">a</tspan>
            </text>
            <text id="_" font-family="Helvetica-Bold, Helvetica" font-size="28" font-weight="bold" fill="#000000">
                <tspan x="808" y="433">_</tspan>
            </text>
            <text id="a" font-family="Helvetica-Bold, Helvetica" font-size="28" font-weight="bold" fill="#000000">
                <tspan x="808" y="540">a</tspan>
            </text>
            <text id="n" font-family="Helvetica-Bold, Helvetica" font-size="28" font-weight="bold" fill="#000000">
                <tspan x="807" y="593">n</tspan>
            </text>
            <text id="m" font-family="Helvetica-Bold, Helvetica" font-size="28" font-weight="bold" fill="#000000">
                <tspan x="804" y="486">m</tspan>
            </text>
            <path d="M506.540525,691.852662 L506.540525,661.158" id="path744" stroke="#000000" stroke-width="1.49441257" transform="translate(507.165525, 676.505331) scale(-1, 1) rotate(-180.000000) translate(-507.165525, -676.505331) "></path>
            <path d="M505.046125,694.144088 C505.245387,692.948538 507.437175,691.155237 508.034925,690.956013 C507.437175,690.756787 505.245387,688.963488 505.046125,687.767938" id="path750" stroke="#000000" stroke-width="1.19549997" stroke-linecap="round" stroke-linejoin="round" transform="translate(506.540525, 690.956013) scale(-1, 1) rotate(-270.000000) translate(-506.540525, -690.956013) "></path>
            <path d="M612.841075,691.852662 L612.841075,661.158" id="path754" stroke="#000000" stroke-width="1.49441257" transform="translate(613.466075, 676.505331) scale(-1, 1) rotate(-180.000000) translate(-613.466075, -676.505331) "></path>
            <path d="M611.346675,694.144088 C611.545938,692.948538 613.737725,691.155237 614.335475,690.956013 C613.737725,690.756787 611.545938,688.963488 611.346675,687.767938" id="path760" stroke="#000000" stroke-width="1.19549997" stroke-linecap="round" stroke-linejoin="round" transform="translate(612.841075, 690.956013) scale(-1, 1) rotate(-270.000000) translate(-612.841075, -690.956013) "></path>
            <path d="M719.1416,691.852662 L719.1416,661.158" id="path764" stroke="#000000" stroke-width="1.49441257" transform="translate(719.766600, 676.505331) scale(-1, 1) rotate(-180.000000) translate(-719.766600, -676.505331) "></path>
            <path d="M717.6472,694.144088 C717.846463,692.948538 720.03825,691.155237 720.636,690.956013 C720.03825,690.756787 717.846463,688.963488 717.6472,687.767938" id="path770" stroke="#000000" stroke-width="1.19549997" stroke-linecap="round" stroke-linejoin="round" transform="translate(719.141600, 690.956013) scale(-1, 1) rotate(-270.000000) translate(-719.141600, -690.956013) "></path>
            <path d="M363.031912,694.262375 C363.268512,692.842675 365.871263,690.713137 366.581087,690.47655 C365.871263,690.239962 363.268512,688.110425 363.031912,686.690725" id="path780" stroke="#000000" stroke-width="1.59402505" stroke-linecap="round" stroke-linejoin="round" transform="translate(364.806500, 690.476550) scale(-1, 1) rotate(-270.000000) translate(-364.806500, -690.476550) "></path>
            <text id="..." font-family="Helvetica-Bold, Helvetica" font-size="28" font-weight="bold" fill="#000000">
                <tspan x="803" y="642">...</tspan>
            </text>
            <path d="M380.5,533 L322.49138,533" id="Line" stroke="#000000" stroke-width="4" stroke-linecap="square"></path>
            <path d="M380.5,640 L322.49138,640" id="Line" stroke="#000000" stroke-width="4" stroke-linecap="square"></path>
            <path d="M322.5,533.5 L322,640" id="Line-2" stroke="#000000" stroke-width="4" stroke-linecap="square"></path>
            <path d="M380.5,53 L322.49138,53" id="Line" stroke="#000000" stroke-width="4" stroke-linecap="square"></path>
            <path d="M380.5,160 L322.49138,160" id="Line" stroke="#000000" stroke-width="4" stroke-linecap="square"></path>
            <path d="M322.5,53.5 L322,160" id="Line-2" stroke="#000000" stroke-width="4" stroke-linecap="square"></path>
            <path d="M321,104 L184,358.5" id="Line-3" stroke="#000000" stroke-width="4.5" stroke-linecap="square"></path>
            <path d="M184,360 L321,590" id="Line-4" stroke="#000000" stroke-width="4.5" stroke-linecap="square"></path>
            <text id="" stroke="#000000" stroke-width="3" font-family="Helvetica-Bold, Helvetica" font-size="170" font-weight="bold" fill="#B8E986">
                <tspan x="0" y="432">	</tspan>
                <tspan x="28" y="432" font-family="LucidaGrande-Bold, Lucida Grande"></tspan>
            </text>
        </g>
    </g>
</svg>